<svg xmlns="http://www.w3.org/2000/svg" width="24" height="24" fill="none"><path fill="currentColor" d="M12 21.75H5.38c-2.663 0-4.13-1.467-4.13-4.13V6.37c0-2.657 1.467-4.12 4.13-4.12h11.24c2.663 0 4.13 1.463 4.13 4.12V12a.75.75 0 0 1-1.5 0V6.37c0-1.836-.787-2.62-2.63-2.62H5.38c-1.843 0-2.63.784-2.63 2.62v11.25c0 1.843.787 2.63 2.63 2.63H12a.75.75 0 0 1 0 1.5m-5.47-7.22 2.791-2.791a.25.25 0 0 1 .354 0l1.589 1.585a1.752 1.752 0 0 0 2.474-.001l2.793-2.793a.75.75 0 1 0-1.061-1.061l-2.793 2.793a.25.25 0 0 1-.354 0l-1.589-1.585a1.752 1.752 0 0 0-2.474.001l-2.791 2.791A.75.75 0 1 0 6.53 14.53m12.276 8.155c.136-.06 3.338-1.521 3.864-4.185.213-1.083.002-2.112-.581-2.824-.492-.602-1.197-.922-2.039-.926a2.199 2.199 0 0 0-1.55.588 2.192 2.192 0 0 0-1.551-.588c-.841.004-1.546.324-2.039.927-.583.712-.794 1.741-.581 2.823.525 2.664 3.728 4.124 3.864 4.185a.758.758 0 0 0 .613 0m-1.016-5.802c.102.301.385.5.703.504a.73.73 0 0 0 .715-.496c.024-.066.218-.631.836-.642.39.002.68.125.885.376.293.359.394.951.27 1.583-.297 1.503-1.993 2.567-2.698 2.95-.706-.383-2.402-1.446-2.698-2.95-.125-.631-.024-1.223.27-1.583.206-.251.495-.375.884-.376h.004c.579.001.808.577.829.634m4.144 1.471h.01z"/></svg>