<svg xmlns="http://www.w3.org/2000/svg" width="24" height="24" fill="none"><path fill="currentColor" d="M12 21.75H5.38c-2.663 0-4.13-1.467-4.13-4.13V6.37c0-2.657 1.467-4.12 4.13-4.12h11.24c2.663 0 4.13 1.463 4.13 4.12V12a.75.75 0 0 1-1.5 0V6.37c0-1.836-.787-2.62-2.63-2.62H5.38c-1.843 0-2.63.784-2.63 2.62v11.25c0 1.843.787 2.63 2.63 2.63H12a.75.75 0 0 1 0 1.5Zm9.081.771c.357-.262.531-.695.455-1.13l-.254-1.45 1.118-1.065a1.129 1.129 0 0 0-.628-1.936l-1.558-.222-.669-1.328a1.16 1.16 0 0 0-1.044-.641c-.445 0-.845.245-1.043.64l-.67 1.328-1.558.222c-.436.062-.791.36-.924.776a1.12 1.12 0 0 0 .296 1.161l1.117 1.065-.253 1.448c-.076.435.098.868.455 1.13.361.266.833.303 1.232.098l1.349-.694 1.35.694a1.153 1.153 0 0 0 1.229-.096Zm-2.743-.68h.001-.001Zm.326 0h-.001.001Zm-1.481-3.664c.371-.053.691-.283.857-.614l.46-.912.459.91c.167.333.488.562.858.615l.994.14-.709.678a1.132 1.132 0 0 0-.333 1.01l.171.974-.915-.47a1.15 1.15 0 0 0-1.05-.002l-.916.472.17-.976a1.131 1.131 0 0 0-.333-1.01l-.708-.675.995-.14Zm4.378.248h.01-.01ZM6.53 14.53l2.791-2.791a.25.25 0 0 1 .354 0l1.589 1.585a1.752 1.752 0 0 0 2.474-.001l2.793-2.793a.75.75 0 1 0-1.061-1.061l-2.793 2.793a.25.25 0 0 1-.354 0l-1.589-1.585a1.752 1.752 0 0 0-2.474.001l-2.791 2.791A.75.75 0 1 0 6.53 14.53Z"/></svg>