<svg xmlns="http://www.w3.org/2000/svg" width="24" height="24" fill="none"><path fill="currentColor" d="M17.62 21.75H6.38c-2.663 0-4.13-1.467-4.13-4.13V6.37c0-2.657 1.467-4.12 4.13-4.12H14a.75.75 0 0 1 0 1.5H6.38c-1.843 0-2.63.784-2.63 2.62v11.25c0 1.843.787 2.63 2.63 2.63h11.24c1.843 0 2.63-.787 2.63-2.63V10a.75.75 0 0 1 1.5 0v7.62c0 2.663-1.467 4.13-4.13 4.13M7.53 14.53l2.791-2.791a.25.25 0 0 1 .354 0l1.589 1.585a1.752 1.752 0 0 0 2.474-.001l2.793-2.793a.75.75 0 1 0-1.061-1.061l-2.793 2.793a.25.25 0 0 1-.354 0l-1.589-1.585a1.752 1.752 0 0 0-2.474.001l-2.791 2.791A.75.75 0 1 0 7.53 14.53M22.75 4A2.752 2.752 0 0 0 20 1.25 2.752 2.752 0 0 0 17.25 4 2.752 2.752 0 0 0 20 6.75 2.752 2.752 0 0 0 22.75 4m-1.5 0c0 .689-.561 1.25-1.25 1.25S18.75 4.689 18.75 4s.561-1.25 1.25-1.25 1.25.561 1.25 1.25"/></svg>