<svg xmlns="http://www.w3.org/2000/svg" width="24" height="24" fill="none"><path fill="currentColor" d="M12.749 20.947a.75.75 0 0 1-.706.792c-.185.011-.358.011-.543.011-5.652 0-10.25-4.598-10.25-10.25S5.848 1.25 11.5 1.25 21.75 5.848 21.75 11.5c0 .185 0 .358-.011.543a.735.735 0 0 1-.792.706.75.75 0 0 1-.706-.792c.009-.155.008-.302.008-.457 0-4.825-3.925-8.75-8.75-8.75s-8.75 3.925-8.75 8.75 3.925 8.75 8.75 8.75c.158-.003.301 0 .457-.008a.742.742 0 0 1 .793.705ZM16.53 9.17a.75.75 0 0 0-1.061 0l-2.514 2.514a.152.152 0 0 1-.213 0l-1.43-1.427a1.653 1.653 0 0 0-2.333.001L6.468 12.77a.75.75 0 0 0 1.06 1.061l2.511-2.511a.15.15 0 0 1 .213 0l1.43 1.427a1.655 1.655 0 0 0 2.333 0l2.514-2.515a.75.75 0 0 0 .001-1.061Zm5.87 9.706-1.118 1.066.254 1.45c.076.434-.098.867-.455 1.129a1.163 1.163 0 0 1-1.232.097l-1.35-.694-1.349.694a1.166 1.166 0 0 1-1.232-.098 1.148 1.148 0 0 1-.455-1.13l.253-1.448-1.117-1.065a1.129 1.129 0 0 1 .628-1.937l1.558-.222.67-1.328a1.16 1.16 0 0 1 1.043-.64c.444 0 .845.245 1.044.641l.669 1.328 1.558.222c.436.062.791.359.924.776.136.413.022.858-.293 1.159Zm-4.196-2.811h.001-.001Zm2.608 2.253-.994-.141a1.14 1.14 0 0 1-.858-.615l-.459-.91-.46.912a1.14 1.14 0 0 1-.857.614l-.994.142.708.675c.273.262.398.639.333 1.01l-.17.976.916-.472a1.148 1.148 0 0 1 1.05.001l.915.471-.171-.974a1.13 1.13 0 0 1 .333-1.01l.708-.679Z"/></svg>