<svg xmlns="http://www.w3.org/2000/svg" width="24" height="24" fill="none"><path fill="currentColor" d="M12.749 20.947a.75.75 0 0 1-.706.792c-.185.011-.358.011-.543.011-5.652 0-10.25-4.598-10.25-10.25S5.848 1.25 11.5 1.25 21.75 5.848 21.75 11.5c0 .185 0 .358-.011.543a.74.74 0 0 1-.792.706.75.75 0 0 1-.706-.792c.009-.155.008-.302.008-.457 0-4.825-3.925-8.75-8.75-8.75s-8.75 3.925-8.75 8.75 3.925 8.75 8.75 8.75c.156-.003.301 0 .457-.008a.739.739 0 0 1 .793.705M16.53 9.17a.75.75 0 0 0-1.061 0l-2.514 2.514a.152.152 0 0 1-.213 0l-1.43-1.427a1.653 1.653 0 0 0-2.333.001L6.468 12.77a.75.75 0 0 0 1.06 1.061l2.511-2.511a.15.15 0 0 1 .213 0l1.43 1.427c.645.641 1.69.641 2.333 0l2.514-2.515a.75.75 0 0 0 .001-1.061Zm6.14 9.33c-.526 2.664-3.728 4.124-3.864 4.185a.758.758 0 0 1-.612 0c-.136-.06-3.339-1.521-3.864-4.185-.213-1.082-.002-2.11.581-2.823.493-.603 1.198-.923 2.039-.927.676-.041 1.179.253 1.551.588.371-.335.875-.627 1.55-.588.842.004 1.547.324 2.039.926.582.712.793 1.741.58 2.824m-1.741-1.874c-.206-.251-.495-.374-.885-.376h-.004c-.579 0-.808.576-.832.642-.109.298-.364.478-.715.496a.75.75 0 0 1-.703-.504c-.021-.058-.25-.633-.83-.633h-.004c-.389.002-.678.125-.884.376-.294.359-.395.951-.27 1.583.296 1.504 1.993 2.567 2.698 2.95.706-.383 2.401-1.446 2.698-2.95.125-.633.024-1.225-.269-1.584"/></svg>