<svg xmlns="http://www.w3.org/2000/svg" width="24" height="24" fill="none"><path fill="currentColor" d="M18 18.75a.75.75 0 0 1 0-1.5c1.577 0 2.25-.673 2.25-2.25V7c0-1.577-.673-2.25-2.25-2.25H6c-1.577 0-2.25.673-2.25 2.25v8c0 1.577.673 2.25 2.25 2.25a.75.75 0 0 1 0 1.5c-2.418 0-3.75-1.332-3.75-3.75V7c0-2.418 1.332-3.75 3.75-3.75h12c2.418 0 3.75 1.332 3.75 3.75v8c0 2.418-1.332 3.75-3.75 3.75m-1.438 2.03c.3-.601.236-1.308-.167-1.844l-2.997-3.986c-.668-.89-2.129-.889-2.797 0l-2.997 3.987a1.751 1.751 0 0 0-.167 1.844c.299.598.899.97 1.566.97h5.992a1.745 1.745 0 0 0 1.567-.971m-4.363-4.929 2.997 3.987c.084.11.051.22.024.272a.243.243 0 0 1-.225.14H9.003a.244.244 0 0 1-.225-.14.251.251 0 0 1 .024-.272l2.997-3.987a.244.244 0 0 1 .199-.1c.046 0 .136.012.201.1"/></svg>