<svg xmlns="http://www.w3.org/2000/svg" width="24" height="24" fill="none"><path fill="currentColor" d="M20.75 12c0-4.825-3.925-8.75-8.75-8.75S3.25 7.175 3.25 12c0 2.905 1.429 5.477 3.614 7.07l-1.395 1.4a.75.75 0 1 0 1.062 1.058l1.657-1.665A8.678 8.678 0 0 0 12 20.75a8.681 8.681 0 0 0 3.812-.886l1.657 1.665a.747.747 0 0 0 1.06.003.75.75 0 0 0 .002-1.061l-1.395-1.402c2.185-1.592 3.614-4.164 3.614-7.069m-16 0c0-3.998 3.252-7.25 7.25-7.25s7.25 3.252 7.25 7.25-3.252 7.25-7.25 7.25S4.75 15.998 4.75 12m16.786-6.475a.749.749 0 0 1-1.06.011l-2-1.96a.751.751 0 0 1 1.05-1.072l2 1.96c.294.29.299.765.01 1.061M3.53 5.53a.748.748 0 0 1-1.06 0 .75.75 0 0 1 0-1.061l2-2A.75.75 0 0 1 5.531 3.53z"/></svg>