<svg xmlns="http://www.w3.org/2000/svg" width="24" height="24" fill="none"><path fill="currentColor" d="M18 4.25H6C3.58 4.25 2.25 5.58 2.25 8v8c0 2.42 1.33 3.75 3.75 3.75h12c2.42 0 3.75-1.33 3.75-3.75V8c0-2.42-1.33-3.75-3.75-3.75ZM20.25 16c0 1.58-.67 2.25-2.25 2.25H6c-1.58 0-2.25-.67-2.25-2.25V8c0-1.58.67-2.25 2.25-2.25h12c1.58 0 2.25.67 2.25 2.25v8Zm-9-4.64c.27.15.57.17.87.13.35-.05.65-.2.92-.42.01 0 .02-.02.04-.03.01.09.02.17.04.25.01.07.06.12.12.12h.37c.06 0 .1-.04.11-.11V8.81c0-.1 0-.2-.02-.3-.04-.3-.17-.54-.43-.69-.15-.09-.32-.14-.5-.16l-.25-.03h-.34c-.22.01-.45.04-.66.1-.14.04-.27.09-.41.13-.08.03-.12.09-.12.18v.23c0 .11.05.14.16.11.18-.05.36-.1.54-.13.28-.05.57-.07.85-.03.15.02.29.07.39.19.08.11.11.24.12.37v.6h-.03c-.24-.06-.48-.1-.73-.11-.26-.01-.52 0-.76.09-.3.1-.53.28-.67.57-.11.23-.13.46-.09.71.05.32.21.57.49.73l-.01-.01Zm.24-1.19c.05-.19.19-.3.37-.36.19-.06.38-.07.57-.05.19.02.38.05.57.08.04 0 .05.02.05.06v.65c0 .03-.01.05-.04.07a1.7 1.7 0 0 1-.86.34c-.13.01-.26 0-.39-.04a.438.438 0 0 1-.28-.31.664.664 0 0 1 0-.44h.01Zm2.76-2.19s-.03-.09-.04-.14c-.01-.06.02-.1.08-.1h.52c.07 0 .12.04.15.11.05.13.1.26.14.39.3.82.59 1.64.89 2.45 0 .01.01.03.02.05.06-.18.12-.34.18-.51l.8-2.29s.02-.06.04-.09c.03-.08.09-.12.18-.12h.46c.07 0 .1.04.08.1 0 .04-.02.08-.04.13l-1.62 4.11c-.06.14-.13.29-.21.42-.2.34-.51.5-.9.49-.13 0-.26-.02-.39-.05-.13-.02-.17-.08-.17-.21v-.23c0-.08.04-.11.12-.11.06 0 .11.02.17.02.12.01.24 0 .35-.02.16-.05.28-.16.35-.31.08-.17.14-.34.21-.51.04-.1.03-.17 0-.27l-1.35-3.33-.02.02Zm3.47 6.61c-.06.07-.14.12-.22.17-.7.48-1.47.83-2.28 1.1-.56.18-1.13.31-1.72.4-.4.06-.81.1-1.22.11h-.6c-.08 0-.16 0-.25-.01-.39-.02-.77-.06-1.15-.12-.63-.1-1.24-.26-1.84-.48-1.24-.45-2.35-1.11-3.34-1.99-.04-.04-.07-.09-.1-.13v-.05c.05-.1.12-.11.22-.06.24.13.47.26.71.38.93.47 1.91.82 2.92 1.06.48.11.96.21 1.45.27.72.1 1.45.14 2.18.12.4-.01.8-.04 1.19-.09 1.29-.15 2.54-.48 3.74-.98.07-.03.13-.05.21-.03.15.04.21.21.09.33h.01Zm1.29-1.08v.4c-.01.08-.03.17-.05.25-.1.46-.27.9-.57 1.27-.08.11-.19.21-.29.31-.03.03-.07.05-.11.06-.07.01-.1-.03-.09-.1 0-.02.01-.05.02-.07.14-.34.27-.68.36-1.03.05-.17.09-.35.08-.53 0-.12-.06-.21-.17-.24a1.91 1.91 0 0 0-.33-.06c-.26-.02-.52 0-.79.02l-.53.06h-.05c-.04 0-.07 0-.08-.04 0-.03 0-.07.01-.09.02-.03.05-.06.08-.08.28-.19.59-.3.92-.36.3-.05.6-.07.9-.04.16.01.33.04.48.09.1.03.19.08.21.19v-.01ZM6.95 12.9h.48c.07 0 .11-.05.11-.11v-1.73s.04.03.05.04c.41.34.88.45 1.4.35.47-.09.79-.38 1-.8.16-.32.23-.66.24-1.01.01-.39-.03-.78-.19-1.14-.19-.45-.52-.75-1-.84-.07-.02-.15-.02-.22-.03h-.19s-.07 0-.1.01c-.32.04-.61.16-.87.35-.05.04-.11.08-.16.12 0-.01 0-.02-.01-.03l-.03-.19c-.02-.11-.07-.15-.18-.15h-.27c-.16 0-.19.03-.19.19v4.86c0 .07.05.11.11.11h.02Zm.6-3.35v-.97s.01-.05.04-.07c.31-.22.66-.33 1.04-.3.34.02.62.19.77.59.09.24.11.5.11.76 0 .24-.02.47-.09.7-.16.49-.51.68-.98.65-.32-.01-.6-.14-.86-.32-.02-.02-.04-.04-.04-.08v-.97l.01.01Z"/></svg>