<svg xmlns="http://www.w3.org/2000/svg" width="24" height="24" fill="none"><path fill="currentColor" d="M8.62 13.81c0 .42-.34.76-.75.76s-.76-.34-.76-.76.34-.75.76-.75.75.34.75.75m7.51-.75c-.41 0-.75.33-.75.75s.33.76.75.76.76-.34.76-.76-.34-.75-.76-.75m5.62 3.86c.02.21-.05.42-.19.58-.14.16-.34.25-.56.25H3a.75.75 0 0 1-.56-.25.772.772 0 0 1-.19-.58 9.743 9.743 0 0 1 4.8-7.45L5.77 7.24a.502.502 0 0 1 .18-.68c.24-.14.54-.06.68.18l1.3 2.27c2.54-1.13 5.61-1.12 8.11 0l1.3-2.27c.14-.24.45-.32.68-.18.24.14.32.44.18.68l-1.28 2.23a9.734 9.734 0 0 1 4.8 7.45zm-1.62-.67c-.49-2.37-1.97-4.42-4.1-5.58l-.51-.26c-2.12-.98-4.89-.99-7.05.01l-.52.26c-2.1 1.15-3.59 3.2-4.07 5.57z"/></svg>