<svg xmlns="http://www.w3.org/2000/svg" width="24" height="24" fill="none"><path fill="currentColor" d="M12 7.75c3.06 0 4.75-1.69 4.75-4.75 0-.41-.34-.75-.75-.75-3.06 0-4.75 1.69-4.75 4.75 0 .41.34.75.75.75m3.2-3.95c-.19 1.44-.96 2.21-2.4 2.4.19-1.44.96-2.21 2.4-2.4m.54 4.47c-1.5-.31-2.71-.08-3.74.72-1.03-.8-2.23-1.03-3.74-.72-2.55.52-4.01 2.61-4.01 5.73 0 3.49 2.48 7.75 5.38 7.75.94 0 1.42-.2 1.77-.35.23-.1.35-.15.6-.15s.37.05.6.15c.35.15.83.35 1.77.35 2.9 0 5.38-4.26 5.38-7.75 0-3.12-1.46-5.21-4.01-5.73m-1.37 11.98c-.64 0-.89-.11-1.19-.23-.28-.12-.63-.27-1.18-.27-.55 0-.9.15-1.18.27-.29.12-.55.23-1.19.23-1.78 0-3.88-3.39-3.88-6.25 0-1.68.49-3.78 2.81-4.26 1.49-.3 2.24.09 2.9.78.28.3.8.3 1.08 0 .66-.69 1.4-1.09 2.9-.78 2.32.48 2.81 2.58 2.81 4.26 0 2.86-2.1 6.25-3.88 6.25"/></svg>