<svg xmlns="http://www.w3.org/2000/svg" width="24" height="24" fill="none"><path fill="currentColor" d="M19.32 15.03c-1.99-.94-2.04-2.65-2.03-2.98v-.03c0-1.2.51-2.08 1.63-2.77.18-.11.3-.28.34-.49.04-.2 0-.41-.12-.58-.88-1.27-2.2-1.98-3.93-2.11-.17-.01-.34 0-.52.01.06-.06.12-.11.18-.17 1.29-1.53 1.18-2.97 1.14-3.46a.746.746 0 0 0-.79-.69c-1.15.07-2.46.73-3.25 1.65-.84.95-1.24 2.06-1.21 3.22-.64-.23-1.44-.52-2.2-.52-2.65.04-5.33 2.15-5.33 6.1 0 1.13.21 2.31.62 3.51.5 1.45 2.47 5.54 4.93 5.54h.07c.59-.01 1.07-.2 1.53-.38.46-.18.9-.34 1.47-.34.51 0 .9.15 1.35.33.47.18 1.01.39 1.71.39 2.51-.04 4.31-3.85 4.79-5.31a.745.745 0 0 0-.39-.91zM13.11 4.39c.34-.39.85-.74 1.37-.94-.08.42-.29.93-.75 1.48-.34.4-.83.84-1.43 1.03.1-.55.38-1.08.81-1.57m1.8 15.36c-.4 0-.73-.13-1.15-.29-.51-.2-1.1-.43-1.89-.43-.84 0-1.49.25-2 .44-.38.14-.7.27-1.04.28H8.8c-1.19 0-2.87-2.67-3.51-4.52-.35-1.04-.53-2.06-.53-3.02 0-3.12 2-4.57 3.84-4.6.48 0 1.12.23 1.68.44.54.2.97.35 1.36.35.34 0 .71-.14 1.22-.33.67-.25 1.51-.57 2.25-.51.98.08 1.75.38 2.33.91-1.09.91-1.64 2.1-1.64 3.53-.01.46.05 2.66 2.28 4.05-.68 1.67-2.03 3.68-3.16 3.7z"/></svg>