<svg xmlns="http://www.w3.org/2000/svg" width="24" height="24" fill="none"><path fill="currentColor" d="M18 4.25H6C3.58 4.25 2.25 5.58 2.25 8v8c0 2.42 1.33 3.75 3.75 3.75h12c2.42 0 3.75-1.33 3.75-3.75V8c0-2.42-1.33-3.75-3.75-3.75ZM20.25 16c0 1.58-.67 2.25-2.25 2.25H6c-1.58 0-2.25-.67-2.25-2.25V8c0-1.58.67-2.25 2.25-2.25h12c1.58 0 2.25.67 2.25 2.25v8ZM8.76 12.52s-.1.33-.32.65c-.19.28-.39.56-.71.57-.31 0-.41-.18-.76-.18-.35 0-.46.18-.75.19-.31.01-.54-.3-.73-.59-.4-.57-.7-1.62-.29-2.32.2-.35.56-.57.95-.58.3 0 .58.2.76.2.18 0 .51-.24.89-.22.15.01.57.05.85.46-.02.02-.51.3-.5.88 0 .7.61.93.62.94h-.01Zm-1.2-2.66c-.16.19-.43.35-.69.33-.03-.26.1-.54.25-.71.16-.2.45-.34.68-.35.03.27-.08.54-.24.74v-.01Zm10.77.75H19l-1.16 3.26c-.27.75-.57.99-1.21.99-.05 0-.21 0-.25-.02v-.51s.14.01.19.01c.29 0 .46-.12.56-.44l.06-.19-1.12-3.1h.69l.78 2.52h.01l.78-2.52Zm-6.74-1.17h-1.6v4.26h.66v-1.46h.92c.84 0 1.42-.57 1.42-1.41s-.58-1.4-1.4-1.4v.01Zm-.18 2.25h-.76V10h.76c.57 0 .9.31.9.85s-.33.85-.91.85l.01-.01Zm3.14-1.12c-.7 0-1.22.4-1.24.95h.6c.05-.26.29-.43.63-.43.4 0 .63.19.63.54v.24l-.83.05c-.77.05-1.18.36-1.18.91s.43.92 1.04.92c.42 0 .8-.21.98-.54h.01v.51h.61V11.6c0-.62-.49-1.01-1.25-1.01v-.02Zm.61 1.98c0 .4-.34.68-.79.68-.35 0-.58-.17-.58-.43s.22-.42.63-.45l.74-.05v.25Z"/></svg>