<svg xmlns="http://www.w3.org/2000/svg" width="24" height="24" fill="none"><path fill="currentColor" d="M20 8.75c1.079 0 1.75-.67 1.75-1.75V5c0-1.08-.671-1.75-1.75-1.75H4c-1.079 0-1.75.67-1.75 1.75v2c0 1.08.671 1.75 1.75 1.75h.25v10.5H3a.75.75 0 0 0 0 1.5h6a.75.75 0 0 0 .75-.75v-5c0-1.241 1.01-2.25 2.25-2.25s2.25 1.009 2.25 2.25v5c0 .414.336.75.75.75h6a.75.75 0 0 0 0-1.5h-1.25V8.75H20ZM3.784 7.223C3.78 7.215 3.75 7.156 3.75 7V5c0-.156.029-.214.027-.217A.514.514 0 0 1 4 4.75h16c.182 0 .218.026.217.027.004.01.033.067.033.223v2c0 .156-.029.214-.027.217A.514.514 0 0 1 20 7.25H4c-.151 0-.21-.027-.216-.027ZM18.25 19.25h-2.5V15A3.755 3.755 0 0 0 12 11.25 3.755 3.755 0 0 0 8.25 15v4.25h-2.5V8.75h12.5v10.5Z"/></svg>