<svg xmlns="http://www.w3.org/2000/svg" width="24" height="24" fill="none"><path fill="currentColor" d="M19.5 2.25h-15c-1.409 0-2.25.841-2.25 2.25V8c0 .414.336.75.75.75h.25V18c0 2.418 1.332 3.75 3.75 3.75h10c2.418 0 3.75-1.332 3.75-3.75V8.75H21a.75.75 0 0 0 .75-.75V4.5c0-1.409-.841-2.25-2.25-2.25ZM3.75 4.5c0-.589.161-.75.75-.75h15c.589 0 .75.161.75.75v2.75H3.75V4.5ZM19.25 18c0 1.577-.673 2.25-2.25 2.25H7c-1.577 0-2.25-.673-2.25-2.25V8.75h14.5V18Zm-10-6a.75.75 0 0 1 .75-.75h4a.75.75 0 0 1 0 1.5h-4a.75.75 0 0 1-.75-.75Z"/></svg>