<svg xmlns="http://www.w3.org/2000/svg" width="24" height="24" fill="none"><path fill="currentColor" d="M17.625 2.25H6.375c-2.66 0-4.125 1.465-4.125 4.125v11.25c0 2.66 1.465 4.125 4.125 4.125h11.25c2.66 0 4.125-1.465 4.125-4.125V6.375c0-2.66-1.465-4.125-4.125-4.125m2.625 15.375c0 1.84-.785 2.625-2.625 2.625H6.375c-1.84 0-2.625-.785-2.625-2.625V6.375c0-1.84.785-2.625 2.625-2.625h11.25c1.84 0 2.625.785 2.625 2.625zM8.667 12.418a.744.744 0 0 1-.53-.22L6.47 10.531a.744.744 0 0 1-.219-.53.769.769 0 0 1 .219-.531l1.667-1.667a.75.75 0 0 1 1.061 1.061l-.387.387H15a.75.75 0 0 1 0 1.5H8.811l.386.386a.75.75 0 0 1-.53 1.281m9.083 1.58a.769.769 0 0 1-.219.531l-1.667 1.667a.75.75 0 1 1-1.06-1.061l.386-.386H9a.75.75 0 0 1 0-1.5h6.189l-.386-.386a.75.75 0 1 1 1.061-1.061l1.667 1.667a.748.748 0 0 1 .219.529"/></svg>