<svg xmlns="http://www.w3.org/2000/svg" width="24" height="24" fill="none"><path fill="currentColor" d="M8.667 12.417a.744.744 0 0 1-.53-.22L6.47 10.53a.748.748 0 0 1-.219-.531.765.765 0 0 1 .219-.531l1.667-1.667a.75.75 0 1 1 1.061 1.061l-.386.386H15a.75.75 0 0 1 0 1.5H8.811l.386.386a.75.75 0 0 1-.53 1.283m9.025 1.29a.749.749 0 0 0-.161-.24l-1.667-1.668a.75.75 0 1 0-1.061 1.061l.386.386H9a.75.75 0 0 0 0 1.5h6.189l-.387.387a.75.75 0 0 0 1.06 1.061l1.667-1.667a.749.749 0 0 0 .219-.53.73.73 0 0 0-.056-.29M22.75 12c0 5.928-4.822 10.75-10.75 10.75S1.25 17.928 1.25 12 6.072 1.25 12 1.25 22.75 6.072 22.75 12m-1.5 0c0-5.101-4.149-9.25-9.25-9.25S2.75 6.899 2.75 12s4.149 9.25 9.25 9.25 9.25-4.149 9.25-9.25"/></svg>