<svg xmlns="http://www.w3.org/2000/svg" width="24" height="24" fill="none"><path fill="currentColor" d="M21.692 12.287a.748.748 0 0 1-.162.244l-3 3a.748.748 0 0 1-1.06 0 .75.75 0 0 1 0-1.06l1.72-1.72h-6.439v6.438l1.72-1.72a.75.75 0 1 1 1.061 1.061l-3 3a.755.755 0 0 1-.817.162.745.745 0 0 1-.243-.162l-3-3a.75.75 0 1 1 1.061-1.06l1.72 1.72v-6.44H4.814l1.72 1.72a.75.75 0 0 1-1.06 1.061l-3-3a.749.749 0 0 1-.162-.817.75.75 0 0 1 .162-.244l3-3a.75.75 0 1 1 1.061 1.061l-1.72 1.72h6.439V4.812l-1.72 1.72a.75.75 0 1 1-1.061-1.06l3-3a.75.75 0 0 1 .817-.163.748.748 0 0 1 .244.162l3 3a.75.75 0 0 1-1.06 1.061l-1.72-1.72v6.44h6.44l-1.721-1.72a.75.75 0 0 1 1.061-1.062l3 3c.07.07.124.152.162.244a.767.767 0 0 1-.004.573"/></svg>