<svg xmlns="http://www.w3.org/2000/svg" width="24" height="24" fill="none"><path fill="currentColor" d="M12 2.25c-5.376 0-9.75 4.374-9.75 9.75s4.374 9.75 9.75 9.75a.75.75 0 0 0 0-1.5c-4.549 0-8.25-3.701-8.25-8.25 0-4.549 3.701-8.25 8.25-8.25 4.549 0 8.25 3.701 8.25 8.25 0 1.64-1.114 3.25-2.25 3.25-1.063 0-1.75-.883-1.75-2.25V8.5a.75.75 0 0 0-1.5 0v.287A4.21 4.21 0 0 0 12 7.75 4.254 4.254 0 0 0 7.75 12 4.254 4.254 0 0 0 12 16.25c1.242 0 2.35-.545 3.129-1.397.582 1.284 1.751 1.897 2.871 1.897 2.21 0 3.75-2.503 3.75-4.75 0-5.376-4.374-9.75-9.75-9.75Zm0 12.5A2.753 2.753 0 0 1 9.25 12 2.753 2.753 0 0 1 12 9.25 2.753 2.753 0 0 1 14.75 12 2.753 2.753 0 0 1 12 14.75Z"/></svg>