<svg xmlns="http://www.w3.org/2000/svg" width="24" height="24" fill="none"><path fill="currentColor" d="m18.896 7.438-.32-.318a.336.336 0 0 1-.097-.236v-.448a2.919 2.919 0 0 0-2.915-2.915h-.448a.34.34 0 0 1-.236-.097l-.318-.319a2.918 2.918 0 0 0-4.123 0l-.318.318a.336.336 0 0 1-.236.098h-.448a2.919 2.919 0 0 0-2.915 2.915v.448a.328.328 0 0 1-.098.235l-.32.32a2.92 2.92 0 0 0 0 4.123l.32.318a.336.336 0 0 1 .098.236v.448c0 1.225.76 2.271 1.833 2.702l-1.576 5.528a.751.751 0 0 0 1.001.902l2.768-1.109a5.248 5.248 0 0 1 3.904 0l2.77 1.11a.745.745 0 0 0 .781-.139.75.75 0 0 0 .22-.763l-1.576-5.528a2.916 2.916 0 0 0 1.833-2.702v-.448c0-.09.035-.173.098-.235l.319-.319v-.001a2.922 2.922 0 0 0-.001-4.124m-3.888 11.755a6.753 6.753 0 0 0-5.018 0l-1.35.541 1.213-4.255h.03a.34.34 0 0 1 .236.097l.318.319a2.906 2.906 0 0 0 2.062.853c.746 0 1.493-.284 2.062-.853l.318-.318a.336.336 0 0 1 .236-.098h.03l1.213 4.255zm2.828-8.692-.319.319a1.818 1.818 0 0 0-.537 1.296v.448c0 .78-.635 1.415-1.415 1.415h-.448c-.483 0-.956.196-1.297.538l-.318.318c-.535.534-1.467.534-2.002 0l-.318-.319a1.845 1.845 0 0 0-1.297-.537h-.448c-.78 0-1.415-.635-1.415-1.415v-.448c0-.49-.19-.95-.537-1.297l-.319-.318a1.419 1.419 0 0 1 0-2.002l.32-.319c.346-.346.536-.807.536-1.296v-.448c0-.78.635-1.415 1.415-1.415h.448c.483 0 .956-.196 1.297-.538l.318-.318c.535-.534 1.467-.534 2.002 0l.318.319c.341.341.813.537 1.297.537h.448c.78 0 1.415.635 1.415 1.415v.448c0 .49.19.95.537 1.297l.319.318c.55.552.55 1.45 0 2.002M15.32 7.827l-1.278-.185-.551-1.11a1.099 1.099 0 0 0-.992-.615c-.425 0-.805.236-.992.615l-.551 1.11-1.278.185c-.411.06-.747.342-.875.737-.13.396-.023.821.275 1.111l.923.896-.21 1.214c-.072.418.096.833.438 1.083a1.1 1.1 0 0 0 1.167.086l1.103-.577 1.104.578a1.105 1.105 0 0 0 1.167-.088c.343-.25.51-.665.438-1.081l-.21-1.217.924-.896a1.08 1.08 0 0 0-.602-1.846m-1.524 1.82a1.079 1.079 0 0 0-.314.961l.112.649-.594-.311a1.093 1.093 0 0 0-1.004.001l-.592.31.112-.65a1.081 1.081 0 0 0-.313-.96l-.472-.458.654-.094c.354-.051.659-.272.817-.592l.296-.596.296.596c.158.32.464.542.816.592l.655.095z"/></svg>