<svg xmlns="http://www.w3.org/2000/svg" width="24" height="24" fill="none"><path fill="currentColor" d="M20.226 5.522a2.664 2.664 0 0 0-2.834.311L12.75 9.498V7.964c0-1.05-.584-1.985-1.524-2.441a2.664 2.664 0 0 0-2.834.311L3.281 9.87a2.701 2.701 0 0 0-1.03 2.131c0 .837.376 1.614 1.03 2.131l5.111 4.038c.487.384 1.07.582 1.66.582a2.706 2.706 0 0 0 2.698-2.712v-1.535l4.642 3.667c.487.384 1.07.582 1.66.582a2.706 2.706 0 0 0 2.698-2.712V7.969a2.693 2.693 0 0 0-1.524-2.447ZM11.25 16.037c0 .478-.254.885-.679 1.09a1.16 1.16 0 0 1-1.25-.136L4.21 12.954A1.21 1.21 0 0 1 3.75 12c0-.375.168-.723.46-.954L9.321 7.01a1.164 1.164 0 0 1 1.25-.138c.425.206.679.614.679 1.09v8.075Zm9 0c0 .478-.254.885-.679 1.09a1.16 1.16 0 0 1-1.25-.136l-5.111-4.037a1.21 1.21 0 0 1-.46-.954c0-.375.168-.723.46-.954l5.111-4.036a1.164 1.164 0 0 1 1.25-.138c.425.206.679.614.679 1.09v8.075Z"/></svg>