<svg xmlns="http://www.w3.org/2000/svg" width="24" height="24" fill="none"><path fill="currentColor" d="M13.75 10a.75.75 0 0 1-.75.75h-2a.75.75 0 0 1 0-1.5h2a.75.75 0 0 1 .75.75m8 4v4c0 1.08-.671 1.75-1.75 1.75h-.564c-.521 1.296-1.69 2-3.436 2H8c-1.746 0-2.916-.704-3.436-2H4c-1.079 0-1.75-.67-1.75-1.75v-4c0-1.08.671-1.75 1.75-1.75h.25V11c0-2.831 1.581-4.873 4.052-5.516C8.556 3.661 10.109 2.25 12 2.25s3.444 1.412 3.698 3.234C18.17 6.127 19.75 8.169 19.75 11v1.25H20c1.079 0 1.75.67 1.75 1.75M9.885 5.26c.04 0 .075-.01.115-.01h4c.04 0 .075.009.115.01A2.247 2.247 0 0 0 12 3.75c-.98 0-1.807.634-2.115 1.51M4.268 18.25c-.003-.085-.018-.162-.018-.25v-4.25H4a.52.52 0 0 0-.225.033c.002.003-.025.063-.025.217v4c0 .154.027.214.033.225.007 0 .068.025.217.025zM15.25 14.5c0-.589-.161-.75-.75-.75h-5c-.589 0-.75.161-.75.75v5.75h6.5zm3 3.5v-7c0-2.582-1.668-4.25-4.25-4.25h-4c-2.582 0-4.25 1.668-4.25 4.25v7c0 1.295.464 1.973 1.5 2.176V14.5c0-1.409.841-2.25 2.25-2.25h5c1.409 0 2.25.841 2.25 2.25v5.676c1.036-.203 1.5-.881 1.5-2.176m2-4a.515.515 0 0 0-.033-.225c-.007 0-.068-.025-.217-.025h-.25V18c0 .088-.015.165-.018.25H20a.52.52 0 0 0 .225-.033c-.002-.003.025-.063.025-.217z"/></svg>