<svg xmlns="http://www.w3.org/2000/svg" width="24" height="24" fill="none"><path fill="currentColor" d="M21.1 2.9c-.69-.69-2.18-1.19-5.32.43-2.2 1.13-4.71 3.05-7.05 5.39s-4.26 4.85-5.39 7.05c-1.62 3.14-1.13 4.63-.43 5.32.35.35.91.65 1.78.65s2-.28 3.55-1.08c2.2-1.13 4.71-3.05 7.05-5.39s4.26-4.85 5.39-7.05c1.62-3.14 1.13-4.63.43-5.32h-.01Zm-1.77 4.64c-1.07 2.07-2.88 4.44-5.12 6.68-4.91 4.91-9.35 6.73-10.25 5.82-.35-.35-.37-1.49.71-3.58.53-1.03 1.24-2.13 2.1-3.25l2.71.81a.76.76 0 0 0 .94-.5c.12-.4-.11-.81-.5-.93l-2.12-.64c.3-.35.61-.7.93-1.05l2.98.9a.76.76 0 0 0 .94-.5c.12-.4-.11-.81-.5-.93L9.9 9.7c.39-.38.77-.74 1.15-1.09l2.98.89a.756.756 0 0 0 .93-.51c.12-.4-.11-.81-.5-.93l-2.06-.61c3.04-2.49 5.64-3.7 6.94-3.7.32 0 .57.07.72.22.35.35.37 1.49-.71 3.58l-.02-.01Z"/></svg>