<svg xmlns="http://www.w3.org/2000/svg" width="24" height="24" fill="none"><path fill="currentColor" d="M21.75 5.73c.04-.93-.31-1.85-.97-2.51a3.329 3.329 0 0 0-2.51-.97 3.3 3.3 0 0 0-2.4 1.2l-7.96 9.46-3.32 3.94a1.844 1.844 0 0 0-1.8 3.08l1.28 1.28c.36.36.83.54 1.31.54.48 0 .95-.18 1.31-.54.49-.49.64-1.18.46-1.8l13.4-11.28a3.3 3.3 0 0 0 1.2-2.4Zm-15.93 12 2.68-3.18.96.96-3.18 2.68-.46-.46Zm-.19 2.42c-.14.14-.36.14-.49 0l-1.28-1.28a.338.338 0 0 1 0-.49c.07-.07.16-.1.25-.1s.18.03.25.1l1.28 1.28c.14.14.14.36 0 .49h-.01ZM19.59 6.98l-8.98 7.56-1.14-1.14 7.56-8.99c.33-.4.8-.63 1.32-.66.53-.03 1.01.16 1.37.53.37.37.56.86.53 1.37-.02.52-.26.99-.67 1.32l.01.01ZM6.51 8.75c1.79 0 3.25-1.46 3.25-3.25S8.3 2.25 6.51 2.25 3.26 3.71 3.26 5.5s1.46 3.25 3.25 3.25Zm0-5c.96 0 1.75.79 1.75 1.75s-.79 1.75-1.75 1.75-1.75-.79-1.75-1.75.79-1.75 1.75-1.75Z"/></svg>