<svg xmlns="http://www.w3.org/2000/svg" width="24" height="24" fill="none"><path fill="currentColor" d="M19.62 19.57c1.93-1.94 3.13-4.62 3.13-7.57s-1.2-5.63-3.13-7.57c0 0-.01-.02-.02-.03-.01-.01-.02-.01-.03-.02A10.714 10.714 0 0 0 12 1.25c-2.95 0-5.63 1.2-7.57 3.13 0 0-.02.01-.03.02-.01.01-.01.02-.02.03A10.714 10.714 0 0 0 1.25 12c0 2.95 1.2 5.63 3.13 7.57 0 0 .01.02.02.03.01.01.02.01.03.02 1.94 1.93 4.62 3.13 7.57 3.13s5.63-1.2 7.57-3.13c0 0 .02-.01.03-.02.01-.01.01-.02.02-.03M2.79 12.79c1.97.17 3.77.95 5.19 2.17l-3.02 3.02a9.25 9.25 0 0 1-2.17-5.19m2.17-6.77L10.94 12l-1.9 1.9c-1.7-1.48-3.87-2.43-6.26-2.61.15-2 .94-3.83 2.17-5.27zm16.25 5.19a9.152 9.152 0 0 1-5.19-2.17l3.02-3.02a9.25 9.25 0 0 1 2.17 5.19m-6.25-3.23a9.25 9.25 0 0 1-2.17-5.19c1.97.17 3.77.95 5.19 2.17zM13.9 9.04l-1.9 1.9-5.98-5.98a9.16 9.16 0 0 1 5.27-2.17 10.7 10.7 0 0 0 2.61 6.26zm-4.85 6.98a9.25 9.25 0 0 1 2.17 5.19 9.152 9.152 0 0 1-5.19-2.17zm1.06-1.06 1.9-1.9 5.98 5.98a9.16 9.16 0 0 1-5.27 2.17c-.17-2.39-1.13-4.55-2.61-6.26zM13.07 12l1.9-1.9c1.7 1.48 3.87 2.43 6.26 2.61-.15 2-.94 3.83-2.17 5.27L13.08 12z"/></svg>