<svg xmlns="http://www.w3.org/2000/svg" width="24" height="24" fill="none"><path fill="currentColor" d="M21.75 6v8c0 2.42-1.33 3.75-3.75 3.75h-1c-.41 0-.75-.34-.75-.75s.34-.75.75-.75h1c1.58 0 2.25-.67 2.25-2.25V6c0-1.58-.67-2.25-2.25-2.25H6c-1.58 0-2.25.67-2.25 2.25v8c0 1.58.67 2.25 2.25 2.25h1c.41 0 .75.34.75.75s-.34.75-.75.75H6c-2.42 0-3.75-1.33-3.75-3.75V6c0-2.42 1.33-3.75 3.75-3.75h12c2.42 0 3.75 1.33 3.75 3.75ZM16 11.75c.41 0 .75-.34.75-.75V8.5c0-1.24-1.01-2.25-2.25-2.25h-5c-1.24 0-2.25 1.01-2.25 2.25V11c0 .41.34.75.75.75s.75-.34.75-.75V8.5c0-.41.34-.75.75-.75h5c.41 0 .75.34.75.75V11c0 .41.34.75.75.75Zm-.25 9.17a.75.75 0 0 1-.67.82H15c-.38 0-.71-.29-.75-.67-.05-.47-.08-.9-.11-1.33h-1.4v1.25c0 .41-.34.75-.75.75s-.75-.34-.75-.75v-1.25h-1.4c-.02.42-.06.86-.11 1.33-.04.39-.37.67-.75.67H8.9a.75.75 0 0 1-.67-.82c.3-2.93.1-4.82-.77-7.17h-.48c-.41 0-.75-.34-.75-.75s.34-.75.75-.75h10c.41 0 .75.34.75.75s-.34.75-.75.75h-.48c-.88 2.36-1.08 4.24-.77 7.17h.02Zm-.82-7.17h-2.17v1.5h1.74c.12-.49.25-.99.43-1.5Zm-5.84 0c.18.51.31 1.01.43 1.5h1.74v-1.5H9.09Zm2.17 4.5v-1.5H9.79c.06.48.09.98.1 1.5h1.37Zm1.5 0h1.37c0-.52.04-1.02.1-1.5h-1.47v1.5Z"/></svg>