<svg xmlns="http://www.w3.org/2000/svg" width="24" height="24" fill="none"><path fill="currentColor" d="M21.75 11v3a.75.75 0 0 1-1.5 0v-3a.75.75 0 0 1 1.5 0M6 9.75a.75.75 0 0 0-.75.75v4a.75.75 0 0 0 1.5 0v-4A.75.75 0 0 0 6 9.75m2.5 0a.75.75 0 0 0-.75.75v4a.75.75 0 0 0 1.5 0v-4a.75.75 0 0 0-.75-.75m2.5 0a.75.75 0 0 0-.75.75v4a.75.75 0 0 0 1.5 0v-4a.75.75 0 0 0-.75-.75m2.5 0a.75.75 0 0 0-.75.75v4a.75.75 0 0 0 1.5 0v-4a.75.75 0 0 0-.75-.75m2.5 0a.75.75 0 0 0-.75.75v4a.75.75 0 0 0 1.5 0v-4a.75.75 0 0 0-.75-.75m3.75-.25v6c0 1.409-.841 2.25-2.25 2.25h-13c-1.409 0-2.25-.841-2.25-2.25v-6c0-1.409.841-2.25 2.25-2.25h13c1.409 0 2.25.841 2.25 2.25m-1.5 0c0-.589-.161-.75-.75-.75h-13c-.589 0-.75.161-.75.75v6c0 .589.161.75.75.75h13c.589 0 .75-.161.75-.75z"/></svg>