<svg xmlns="http://www.w3.org/2000/svg" width="24" height="24" fill="none"><path fill="currentColor" d="M10.2 11.52c.99-.47 1.5-1.18 1.5-2.29 0-2.2-1.63-2.73-3.51-2.73H3v11h5.33c2 0 3.88-.96 3.88-3.19 0-1.39-.66-2.41-2.01-2.79ZM5.43 8.11h2.29c.88 0 1.67.24 1.67 1.26 0 .94-.62 1.32-1.49 1.32H5.43V8.11Zm2.61 7.3H5.43v-3.05h2.66c1.07 0 1.75.45 1.75 1.58 0 1.13-.81 1.47-1.8 1.47Zm11.2-7.52h-4.49V6.8h4.49v1.09ZM21 13.4c0-2.37-1.39-4.35-3.9-4.35S13 10.89 13 13.29c0 2.4 1.57 4.21 4.1 4.21 1.91 0 3.15-.86 3.75-2.69h-1.94c-.21.68-1.07 1.04-1.74 1.04-1.29 0-1.97-.75-1.97-2.04h5.78c.01-.13.02-.27.02-.41Zm-5.8-.98c.07-1.05.77-1.71 1.83-1.71s1.66.65 1.75 1.71H15.2Z"/></svg>