<svg xmlns="http://www.w3.org/2000/svg" width="24" height="24" fill="none"><path fill="currentColor" d="M14.378 20.378A2.73 2.73 0 0 1 12 21.75a2.73 2.73 0 0 1-2.378-1.372.75.75 0 1 1 1.296-.755c.46.787 1.705.787 2.164 0a.75.75 0 0 1 1.296.755M18.75 12.5V10a.75.75 0 0 0-1.5 0v2.5c0 1.937.748 3.658 1.365 4.75H10a.75.75 0 0 0 0 1.5h10a.75.75 0 0 0 .586-1.219c-.019-.022-1.836-2.325-1.836-5.031m2.78-8.97-15 15-3 3a.748.748 0 0 1-1.06 0 .75.75 0 0 1 0-1.061l1.72-1.72H4a.751.751 0 0 1-.587-1.218c.019-.023 1.836-2.343 1.836-5.032V9A6.758 6.758 0 0 1 12 2.25a6.767 6.767 0 0 1 5.641 3.049L20.47 2.47a.75.75 0 0 1 1.061 1.06Zm-4.985 2.865A5.254 5.254 0 0 0 12 3.75 5.256 5.256 0 0 0 6.75 9v3.5c0 1.937-.748 3.658-1.365 4.75h.304z"/></svg>