<svg xmlns="http://www.w3.org/2000/svg" width="24" height="24" fill="none"><path fill="currentColor" d="M12.005 21.75a2.728 2.728 0 0 1-2.378-1.373.75.75 0 1 1 1.296-.754c.458.785 1.705.787 2.164 0a.751.751 0 0 1 1.296.756 2.732 2.732 0 0 1-2.378 1.371m8.671-3.425a.75.75 0 0 0-.09-.793c-.018-.023-1.835-2.326-1.835-5.031V10a.75.75 0 0 0-1.5 0v2.5c0 1.936.748 3.658 1.365 4.75H5.387c.617-1.092 1.365-2.814 1.365-4.75V9a5.256 5.256 0 0 1 5.25-5.25.75.75 0 0 0 0-1.5A6.758 6.758 0 0 0 5.252 9v3.5c0 2.689-1.818 5.009-1.836 5.032a.75.75 0 0 0 .587 1.218h16a.749.749 0 0 0 .673-.425M19.75 5A2.753 2.753 0 0 0 17 2.25 2.753 2.753 0 0 0 14.25 5 2.753 2.753 0 0 0 17 7.75 2.753 2.753 0 0 0 19.75 5m-1.5 0c0 .689-.561 1.25-1.25 1.25S15.75 5.689 15.75 5s.561-1.25 1.25-1.25 1.25.561 1.25 1.25"/></svg>