<svg xmlns="http://www.w3.org/2000/svg" width="24" height="24" fill="none"><path fill="currentColor" d="M14.378 20.378A2.73 2.73 0 0 1 12 21.75a2.73 2.73 0 0 1-2.378-1.372.75.75 0 1 1 1.296-.755c.459.787 1.705.787 2.164 0a.75.75 0 0 1 1.296.755Zm6.297-2.053a.75.75 0 0 1-.675.425H4a.75.75 0 0 1-.586-1.218c.019-.023 1.841-2.343 1.841-5.032V8.995A6.753 6.753 0 0 1 12 2.25a6.753 6.753 0 0 1 6.745 6.745V12.5c0 2.689 1.822 5.009 1.841 5.032a.751.751 0 0 1 .089.793Zm-2.062-1.075c-.619-1.092-1.368-2.813-1.368-4.75V8.995A5.251 5.251 0 0 0 12 3.75a5.251 5.251 0 0 0-5.245 5.245V12.5c0 1.937-.75 3.658-1.368 4.75h13.226Zm-4.613-7h-1.25V9a.75.75 0 0 0-1.5 0v1.25H10a.75.75 0 0 0 0 1.5h1.25V13a.75.75 0 0 0 1.5 0v-1.25H14a.75.75 0 0 0 0-1.5Z"/></svg>