<svg xmlns="http://www.w3.org/2000/svg" width="24" height="24" fill="none"><path fill="currentColor" d="M12 21.75a2.73 2.73 0 0 1-2.378-1.372.75.75 0 0 1 1.296-.756c.459.787 1.705.787 2.164 0a.751.751 0 0 1 1.296.756A2.73 2.73 0 0 1 12 21.75Zm8.675-3.425a.751.751 0 0 0-.089-.793c-.019-.023-1.841-2.343-1.841-5.032V8.995A6.753 6.753 0 0 0 12 2.25a6.753 6.753 0 0 0-6.745 6.745V12.5c0 2.689-1.822 5.009-1.841 5.032A.751.751 0 0 0 4 18.75h16a.75.75 0 0 0 .675-.425ZM6.755 12.5V8.995A5.251 5.251 0 0 1 12 3.75a5.251 5.251 0 0 1 5.245 5.245V12.5c0 1.936.75 3.658 1.368 4.75H5.386c.619-1.092 1.369-2.814 1.369-4.75Z"/></svg>