<svg xmlns="http://www.w3.org/2000/svg" width="24" height="24" fill="none"><path fill="currentColor" d="M20.5 9.25A2.252 2.252 0 0 0 22.75 7a2.252 2.252 0 0 0-2.25-2.25c-.976 0-1.801.629-2.112 1.5H14.73c-.097-1.254-.91-2-2.231-2h-1c-1.321 0-2.133.746-2.231 2H5.61a2.247 2.247 0 0 0-2.112-1.5A2.252 2.252 0 0 0 1.248 7a2.252 2.252 0 0 0 2.25 2.25c.976 0 1.801-.629 2.112-1.5h1.594c-1.748 1.36-2.764 3.608-2.913 6.516-1.279.082-2.042.898-2.042 2.234v1c0 1.409.841 2.25 2.25 2.25h1c1.409 0 2.25-.841 2.25-2.25v-1c0-1.313-.738-2.123-1.977-2.229.118-2.077.812-4.947 3.572-6.053.247.967 1.009 1.532 2.155 1.532h1c1.147 0 1.908-.564 2.155-1.532 2.76 1.106 3.454 3.976 3.572 6.053-1.24.105-1.977.916-1.977 2.229v1c0 1.409.841 2.25 2.25 2.25h1c1.409 0 2.25-.841 2.25-2.25v-1c0-1.336-.763-2.152-2.042-2.234-.149-2.908-1.165-5.156-2.913-6.516h1.594a2.248 2.248 0 0 0 2.112 1.5M6.25 16.5v1c0 .589-.161.75-.75.75h-1c-.589 0-.75-.161-.75-.75v-1c0-.589.161-.75.75-.75h1c.589 0 .75.161.75.75m14 0v1c0 .589-.161.75-.75.75h-1c-.589 0-.75-.161-.75-.75v-1c0-.589.161-.75.75-.75h1c.589 0 .75.161.75.75m.25-10.25a.75.75 0 1 1 0 1.5.75.75 0 0 1 0-1.5m-17 1.5a.75.75 0 1 1 0-1.5.75.75 0 0 1 0 1.5m9.75-.25c0 .589-.161.75-.75.75h-1c-.589 0-.75-.161-.75-.75v-1c0-.589.161-.75.75-.75h1c.589 0 .75.161.75.75z"/></svg>