<svg xmlns="http://www.w3.org/2000/svg" width="24" height="24" fill="none"><path fill="currentColor" d="M12 1.25C6.072 1.25 1.25 6.072 1.25 12S6.072 22.75 12 22.75 22.75 17.928 22.75 12 17.928 1.25 12 1.25Zm0 20c-5.101 0-9.25-4.149-9.25-9.25S6.899 2.75 12 2.75s9.25 4.149 9.25 9.25-4.149 9.25-9.25 9.25Zm2.922-9.505c.338-.437.547-.979.547-1.575 0-1.25-.886-2.294-2.059-2.529V7a.75.75 0 0 0-1.5 0v.59h-.591V7a.75.75 0 0 0-1.5 0v.59H8.765a.75.75 0 0 0 0 1.5h.531v5.82h-.531a.75.75 0 0 0 0 1.5h1.054V17a.75.75 0 0 0 1.5 0v-.59h.591V17a.75.75 0 0 0 1.5 0v-.59h.017c1.411 0 2.558-1.157 2.558-2.58 0-.859-.422-1.615-1.063-2.085Zm-.953-1.575a1.07 1.07 0 0 1-1.058 1.08h-2.115V9.09h2.115a1.07 1.07 0 0 1 1.058 1.08Zm-.542 4.74h-2.631v-2.16h2.632a1.07 1.07 0 0 1 1.058 1.08 1.07 1.07 0 0 1-1.059 1.08Z"/></svg>