<svg xmlns="http://www.w3.org/2000/svg" width="24" height="24" fill="none"><path fill="currentColor" d="M19.82 9.21h-1.09c-.17 0-.34-.17-.34-.34 0-3.59-2.92-6.61-6.39-6.61H8.64c-3.52 0-6.39 2.86-6.39 6.39v6.73c0 3.52 2.86 6.39 6.39 6.39h6.73c3.52 0 6.39-2.86 6.39-6.39v-4.23c0-1.08-.85-1.93-1.93-1.93zm.43 6.16c0 2.69-2.19 4.89-4.89 4.89H8.63c-2.69 0-4.89-2.19-4.89-4.89V8.64c0-2.69 2.19-4.89 4.89-4.89h3.36c2.65 0 4.89 2.34 4.89 5.11 0 1 .84 1.84 1.84 1.84h1.09c.26 0 .43.17.43.43v4.23zM7.46 8.91c0-.59.5-1.09 1.09-1.09h4.04c.59 0 1.09.5 1.09 1.09 0 .59-.5 1.09-1.09 1.09H8.55c-.59 0-1.09-.5-1.09-1.09m9 6.59c0 .59-.5 1.09-1.09 1.09H8.56c-.59 0-1.09-.5-1.09-1.09 0-.59.5-1.09 1.09-1.09h6.81c.59 0 1.09.5 1.09 1.09"/></svg>