<svg xmlns="http://www.w3.org/2000/svg" width="24" height="24" fill="none"><path fill="currentColor" d="M17.625 2.25H6.375c-2.66 0-4.125 1.465-4.125 4.125v11.25c0 2.66 1.465 4.125 4.125 4.125h11.25c2.66 0 4.125-1.465 4.125-4.125V6.375c0-2.66-1.465-4.125-4.125-4.125m2.625 15.375c0 1.84-.785 2.625-2.625 2.625H6.375c-1.84 0-2.625-.785-2.625-2.625V6.375c0-1.84.785-2.625 2.625-2.625h11.25c1.84 0 2.625.785 2.625 2.625zm-5.195-8.208h-1.053l.763-1.767a1.359 1.359 0 0 0-1.25-1.9h-2.737c-.698 0-1.299.447-1.517 1.104l-1.607 4.105a1.364 1.364 0 0 0 1.292 1.791h1.089l-1.546 4.507a.75.75 0 0 0 1.239.773l6.289-6.29c.391-.391.507-.973.295-1.483a1.356 1.356 0 0 0-1.257-.84m-4.096 5.26.71-2.069a1.027 1.027 0 0 0-.969-1.359H9.149l1.521-3.886c.039-.114.085-.114.107-.114h2.526l-.966 2.236c-.137.318-.104.68.086.969.19.289.511.462.856.462h1.438z"/></svg>