<svg xmlns="http://www.w3.org/2000/svg" width="24" height="24" fill="none"><path fill="currentColor" d="M12 1.25C6.072 1.25 1.25 6.072 1.25 12S6.072 22.75 12 22.75 22.75 17.928 22.75 12 17.928 1.25 12 1.25m0 20c-5.101 0-9.25-4.149-9.25-9.25S6.899 2.75 12 2.75s9.25 4.149 9.25 9.25-4.149 9.25-9.25 9.25m4.278-10.611h-2.306V6.5a.749.749 0 0 0-1.307-.502l-5.5 6.111a.75.75 0 0 0 .558 1.252h2.306V17.5a.749.749 0 0 0 1.308.502l5.5-6.111a.75.75 0 0 0-.559-1.252m-4.75 4.907v-2.935a.75.75 0 0 0-.75-.75H9.406l3.066-3.407v2.935c0 .415.336.75.75.75h1.372z"/></svg>