<svg xmlns="http://www.w3.org/2000/svg" width="24" height="24" fill="none"><path fill="currentColor" d="M12 1.25C6.072 1.25 1.25 6.072 1.25 12S6.072 22.75 12 22.75 22.75 17.928 22.75 12 17.928 1.25 12 1.25m0 20c-5.101 0-9.25-4.149-9.25-9.25S6.899 2.75 12 2.75s9.25 4.149 9.25 9.25-4.149 9.25-9.25 9.25m3.054-11.833h-1.052l.762-1.766a1.358 1.358 0 0 0-1.25-1.901h-2.737c-.698 0-1.299.447-1.517 1.104l-1.607 4.105c-.138.414-.068.873.187 1.226.255.354.668.565 1.104.565h1.089l-1.547 4.507a.75.75 0 0 0 1.239.773l6.289-6.29c.391-.391.507-.973.295-1.483a1.35 1.35 0 0 0-1.255-.84m-4.095 5.26.71-2.069a1.026 1.026 0 0 0-.968-1.359H9.15l1.521-3.886c.038-.114.085-.114.107-.114h2.526l-.964 2.235c-.137.318-.106.68.084.969.19.29.511.463.857.463h1.438z"/></svg>