<svg xmlns="http://www.w3.org/2000/svg" width="24" height="24" fill="none"><path fill="currentColor" d="M17.625 2.25H6.375c-2.66 0-4.125 1.465-4.125 4.125v11.25c0 2.66 1.465 4.125 4.125 4.125h11.25c2.66 0 4.125-1.465 4.125-4.125V6.375c0-2.66-1.465-4.125-4.125-4.125m2.625 15.375c0 1.84-.785 2.625-2.625 2.625H6.375c-1.84 0-2.625-.785-2.625-2.625V6.375c0-1.84.785-2.625 2.625-2.625h11.25c1.84 0 2.625.785 2.625 2.625zm-3.973-6.986h-2.305V6.5a.749.749 0 0 0-1.307-.502l-5.5 6.111a.751.751 0 0 0 .558 1.252h2.305V17.5a.749.749 0 0 0 1.308.502l5.5-6.111a.751.751 0 0 0-.559-1.252m-4.75 4.907v-2.935a.75.75 0 0 0-.75-.75H9.406l3.066-3.407v2.935c0 .415.336.75.75.75h1.371z"/></svg>