<svg xmlns="http://www.w3.org/2000/svg" width="24" height="24" fill="none"><path fill="currentColor" d="M19.216 8.755a1.722 1.722 0 0 1 .025 2.484l-10.3 10.29a.75.75 0 0 1-1.24-.774l.74-2.15a.75.75 0 0 1 1.385-.08l8.354-8.346a.228.228 0 0 0 .005-.335.75.75 0 1 1 1.031-1.089M21.53 3.53l-18 18a.748.748 0 0 1-1.06 0 .75.75 0 0 1 0-1.061l7.72-7.72H8a1.731 1.731 0 0 1-1.412-.72 1.77 1.77 0 0 1-.252-1.581l2.626-6.693c.292-.912 1.079-1.506 2.038-1.506h4.48a1.756 1.756 0 0 1 1.611 2.443l-.884 2.04 4.263-4.263a.75.75 0 1 1 1.06 1.061m-10.028 7.908 2.472-2.472a1.183 1.183 0 0 1 .018-.892l1.721-3.973a.254.254 0 0 0-.025-.24.24.24 0 0 0-.207-.112H11c-.382 0-.551.277-.626.51l-2.626 6.694c-.021.068.023.153.053.193a.244.244 0 0 0 .199.103h2.87c.227.001.443.072.632.189"/></svg>