<svg xmlns="http://www.w3.org/2000/svg" width="24" height="24" fill="none"><path fill="currentColor" d="M7.413 21.75a.75.75 0 0 1-.708-.994l2.749-8.007H7.003a1.754 1.754 0 0 1-1.421-.728 1.754 1.754 0 0 1-.24-1.576l2.621-6.694c.303-.913 1.089-1.502 2.038-1.502h4.479c.591 0 1.137.295 1.462.788.325.494.379 1.113.145 1.655l-1.535 3.557h2.447c.71 0 1.345.424 1.617 1.08a1.745 1.745 0 0 1-.379 1.907L7.945 21.529a.75.75 0 0 1-.532.221M10 3.75c-.398 0-.564.321-.628.513l-2.621 6.695c-.022.069.02.15.047.188a.246.246 0 0 0 .204.104h2.871c.387 0 .752.188.977.502.225.314.284.721.159 1.087l-1.832 5.338 7.999-8a.237.237 0 0 0 .054-.272.24.24 0 0 0-.231-.154h-2.903a1.198 1.198 0 0 1-1.102-1.675L14.71 4.1a.245.245 0 0 0-.021-.237.243.243 0 0 0-.208-.113zm-.127 9h.01z"/></svg>