<svg xmlns="http://www.w3.org/2000/svg" width="24" height="24" fill="none"><path fill="currentColor" d="M20.706 15.435c.56 1.03.479 2.228-.222 3.134a2.955 2.955 0 0 1-2.355 1.181l-.079-.001a2.954 2.954 0 0 1-2.347-1.274 3.1 3.1 0 0 1-.454-1.06.544.544 0 0 0-.43-.459L12 16.414l-2.819.542a.527.527 0 0 0-.422.421 3.142 3.142 0 0 1-.461 1.096 2.958 2.958 0 0 1-2.347 1.276c-.944.029-1.838-.405-2.437-1.18-.702-.909-.78-2.11-.223-3.134a2.9 2.9 0 0 1-1.037-2.07 2.953 2.953 0 0 1 1.032-2.42 2.914 2.914 0 0 1 2.62-.597 2.98 2.98 0 0 1 1.706 1.217c.145.222.367.332.586.29l2.64-.586a.75.75 0 1 1 .325 1.465l-2.662.59c-.833.158-1.668-.21-2.14-.933a1.466 1.466 0 0 0-.854-.597 1.4 1.4 0 0 0-1.243.29 1.448 1.448 0 0 0-.512 1.193c.027.447.252.846.617 1.094.55.385.687 1.127.313 1.66-.355.531-.352 1.142.02 1.621.307.4.745.597 1.21.599a1.447 1.447 0 0 0 1.148-.625c.104-.15.182-.337.228-.54.134-.784.784-1.442 1.609-1.6l2.961-.571a.71.71 0 0 1 .283 0l2.961.57a2.033 2.033 0 0 1 1.617 1.638 1.446 1.446 0 0 0 1.37 1.127 1.49 1.49 0 0 0 1.207-.597c.372-.48.376-1.091.012-1.634-.364-.521-.228-1.264.313-1.642a1.42 1.42 0 0 0 .626-1.1 1.452 1.452 0 0 0-.518-1.2 1.409 1.409 0 0 0-1.242-.282 1.47 1.47 0 0 0-.854.603c-.467.717-1.293 1.085-2.113.93l-2.684-.595a.75.75 0 0 1 .325-1.465l2.661.59c.195.04.418-.07.56-.287.401-.601.99-1.02 1.706-1.222a2.906 2.906 0 0 1 2.618.59 2.959 2.959 0 0 1 1.038 2.426 2.896 2.896 0 0 1-1.038 2.07M12 7.75a.75.75 0 0 0 .75-.75V4a.75.75 0 0 0-1.5 0v3c0 .414.336.75.75.75m3 1a.744.744 0 0 0 .53-.22l2-2a.75.75 0 1 0-1.061-1.061l-2 2A.75.75 0 0 0 15 8.75m-6.53-.22a.748.748 0 0 0 1.06 0 .75.75 0 0 0 0-1.061l-2-2A.75.75 0 1 0 6.47 6.53z"/></svg>