<svg xmlns="http://www.w3.org/2000/svg" width="24" height="24" fill="none"><path fill="currentColor" d="M8.501 21.75c-.71 0-1.397-.228-1.97-.665a3.22 3.22 0 0 1-1.272-2.346c-1.326-.09-2.423-.917-2.832-2.16-.342-1.037-.182-2.124.438-2.982.868-1.2 2.544-1.664 3.905-1.09a.736.736 0 0 0 .816-.154l4.764-4.764c.214-.214.267-.544.138-.862a3.343 3.343 0 0 1-.054-2.325 3.202 3.202 0 0 1 2.165-2.03 3.26 3.26 0 0 1 4.141 2.887c1.325.09 2.422.918 2.832 2.163.342 1.037.182 2.124-.438 2.982-.868 1.2-2.545 1.664-3.905 1.09a.74.74 0 0 0-.816.154l-4.764 4.764c-.214.214-.267.544-.138.862.296.732.314 1.558.054 2.325a3.198 3.198 0 0 1-2.166 2.03c-.298.08-.6.12-.898.12Zm-2.998-4.503c.332 0 .645.129.879.363.237.237.368.554.368.892 0 .549.252 1.057.69 1.391.444.339.998.44 1.564.288a1.71 1.71 0 0 0 1.141-1.064c.187-.548.09-1-.024-1.28-.354-.873-.17-1.849.468-2.486l4.764-4.763a2.232 2.232 0 0 1 2.461-.475c.73.306 1.637.059 2.105-.588.341-.47.422-1.05.23-1.633-.236-.714-.852-1.14-1.647-1.141-.688 0-1.25-.563-1.252-1.255a1.743 1.743 0 0 0-.692-1.39 1.76 1.76 0 0 0-1.562-.286 1.686 1.686 0 0 0-1.141 1.065c-.187.548-.09.998.024 1.279.354.873.17 1.849-.468 2.486l-4.764 4.763a2.235 2.235 0 0 1-2.46.475 1.793 1.793 0 0 0-2.106.588c-.34.47-.422 1.05-.23 1.633.235.712.852 1.138 1.65 1.138h.002Zm-.001.75h.01-.01Z"/></svg>