<svg xmlns="http://www.w3.org/2000/svg" width="24" height="24" fill="none"><path fill="currentColor" d="m21.036 4.182-.002-.001c-1.701-.807-3.588-1.09-5.609-.843A4.746 4.746 0 0 0 12 5.512a4.751 4.751 0 0 0-3.426-2.174c-2.023-.247-3.907.036-5.608.843A1.264 1.264 0 0 0 2.25 5.32v13.005c0 .394.18.755.494.992.313.237.727.314 1.106.205 2.91-.826 5.365-.476 7.733 1.101.01.007.022.009.032.015.011.006.019.016.031.022.011.006.024.003.035.009.1.048.208.08.318.08.11 0 .217-.032.318-.08.01-.005.024-.003.035-.009.011-.006.02-.015.03-.022.01-.006.022-.008.032-.015 2.365-1.577 4.822-1.927 7.733-1.101a1.27 1.27 0 0 0 1.106-.205c.314-.237.494-.6.494-.992V5.32a1.257 1.257 0 0 0-.711-1.138M6.734 17.594c-.961 0-1.954.134-2.984.402V5.471c1.419-.642 2.938-.854 4.641-.644a3.26 3.26 0 0 1 2.859 3.232v10.63a9.783 9.783 0 0 0-4.516-1.095m13.516.402c-2.726-.709-5.193-.483-7.5.694V8.059a3.259 3.259 0 0 1 2.858-3.232c.422-.052.833-.078 1.234-.078 1.215 0 2.34.239 3.407.722v12.525z"/></svg>