<svg xmlns="http://www.w3.org/2000/svg" width="24" height="24" fill="none"><path fill="currentColor" d="M18.5 2.25H7C4.582 2.25 3.25 3.582 3.25 6v12c0 2.243 1.507 3.75 3.75 3.75h11.5c1.24 0 2.25-1.009 2.25-2.25v-15c0-1.241-1.01-2.25-2.25-2.25M7 3.75h11.5a.75.75 0 0 1 .75.75v9a.75.75 0 0 1-.75.75H7c-.881 0-1.643.239-2.25.658V6c0-1.577.673-2.25 2.25-2.25m11.5 16.5H7c-1.409 0-2.25-.841-2.25-2.25s.841-2.25 2.25-2.25h11.5c.264 0 .514-.054.75-.138V19.5a.75.75 0 0 1-.75.75M9.25 7a.75.75 0 0 1 .75-.75h4a.75.75 0 0 1 0 1.5h-4A.75.75 0 0 1 9.25 7"/></svg>