<svg xmlns="http://www.w3.org/2000/svg" width="24" height="24" fill="none"><path fill="currentColor" d="m21.036 4.182-.002-.001a9.482 9.482 0 0 0-2.232-.715c-.063-.028-.134-.036-.204-.046a10.643 10.643 0 0 0-3.173-.081A4.748 4.748 0 0 0 12 5.513a4.75 4.75 0 0 0-3.425-2.174c-2.021-.247-3.907.036-5.609.843l-.002.001a1.265 1.265 0 0 0-.714 1.138v13.005c0 .394.18.755.493.992s.728.312 1.107.206c2.908-.826 5.366-.476 7.733 1.101.01.007.022.009.032.015.011.006.019.016.031.022.011.006.024.003.035.009.1.048.208.08.318.08.11 0 .217-.032.318-.08.01-.005.024-.003.035-.009.011-.006.02-.016.031-.022.01-.006.022-.009.032-.015 2.366-1.577 4.825-1.927 7.733-1.102.38.108.794.032 1.107-.205.313-.236.493-.598.493-.992V5.321a1.26 1.26 0 0 0-.712-1.139Zm-3.286.614v3.91l-.377-.216a.752.752 0 0 0-.746 0l-.377.216V4.787c.197-.012.4-.038.593-.038.308 0 .61.016.907.047ZM6.733 17.593c-.961 0-1.954.135-2.983.402V5.47c1.42-.643 2.94-.853 4.642-.644a3.26 3.26 0 0 1 2.858 3.233v10.63a9.788 9.788 0 0 0-4.517-1.096Zm13.517.403c-2.726-.71-5.195-.482-7.5.695V8.06a3.25 3.25 0 0 1 2-2.99V10a.75.75 0 0 0 1.123.651L17 10.005l1.127.646A.75.75 0 0 0 19.25 10V5.104c.339.102.673.219 1 .367v12.525Z"/></svg>