<svg xmlns="http://www.w3.org/2000/svg" width="24" height="24" fill="none"><path fill="currentColor" d="M17.43 1.25h-6.86c-2.11 0-3.32 1.21-3.32 3.32v.68h-.679c-2.142 0-3.321 1.18-3.321 3.321V22a.75.75 0 0 0 1.122.651L10 19.435l5.628 3.216A.75.75 0 0 0 16.75 22v-4.996l2.877 1.647A.752.752 0 0 0 20.75 18V4.57c-.001-2.11-1.211-3.32-3.321-3.32Zm-2.18 19.457-4.878-2.787a.749.749 0 0 0-.744 0L4.75 20.708V8.572c0-1.293.527-1.821 1.821-1.821h6.857c1.294 0 1.821.528 1.821 1.821zm4-4-2.5-1.432V8.571c0-2.142-1.18-3.321-3.321-3.321H8.75v-.68c0-1.292.527-1.82 1.82-1.82h6.859c1.293 0 1.82.527 1.82 1.82zM10 12.55c1.186 0 2.15-.964 2.15-2.15S11.185 8.25 10 8.25s-2.15.964-2.15 2.15.964 2.15 2.15 2.15m0-2.8a.651.651 0 0 1 0 1.3.651.651 0 0 1 0-1.3m3.27 5.996V16a.75.75 0 0 1-1.5 0v-.254c0-.545-.381-1.096-1.23-1.096H9.462c-.85 0-1.23.55-1.23 1.096V16a.75.75 0 0 1-1.5 0v-.254c0-1.48 1.174-2.596 2.73-2.596h1.078c1.556 0 2.73 1.116 2.73 2.596"/></svg>