<svg xmlns="http://www.w3.org/2000/svg" width="24" height="24" fill="none"><path fill="currentColor" d="M17.43 1.25h-6.86c-2.11 0-3.32 1.21-3.32 3.32v.68h-.679c-2.142 0-3.321 1.18-3.321 3.321V22a.75.75 0 0 0 1.122.651L10 19.435l5.628 3.216A.75.75 0 0 0 16.75 22v-4.996l2.877 1.647A.752.752 0 0 0 20.75 18V4.57c-.001-2.11-1.211-3.32-3.321-3.32Zm-2.18 19.457-4.878-2.787a.749.749 0 0 0-.744 0L4.75 20.708V8.572c0-1.293.527-1.821 1.821-1.821h6.857c1.294 0 1.821.528 1.821 1.821zm4-4-2.5-1.432V8.571c0-2.142-1.18-3.321-3.321-3.321H8.75v-.68c0-1.292.527-1.82 1.82-1.82h6.859c1.293 0 1.82.527 1.82 1.82zm-6.203-5.957-1.417-.205-.61-1.231A1.13 1.13 0 0 0 10 8.682c-.436 0-.826.242-1.02.632l-.61 1.231-1.417.205a1.104 1.104 0 0 0-.899.759c-.131.406-.021.842.284 1.137l1.022.993-.232 1.349c-.074.429.1.855.451 1.112.352.257.812.292 1.197.088l1.224-.64 1.225.641a1.136 1.136 0 0 0 1.647-1.199l-.232-1.351 1.02-.992a1.1 1.1 0 0 0 .286-1.139 1.106 1.106 0 0 0-.899-.758m-1.602 1.957c-.26.254-.38.621-.319.984l.143.829-.753-.394a1.112 1.112 0 0 0-1.03 0l-.754.394.144-.833a1.116 1.116 0 0 0-.322-.98l-.603-.585.833-.121c.363-.051.678-.278.84-.607l.377-.76.376.758c.163.33.478.557.838.608l.836.121z"/></svg>