<svg xmlns="http://www.w3.org/2000/svg" width="24" height="24" fill="none"><path fill="currentColor" d="m21.036 4.182-.002-.001c-1.702-.807-3.589-1.09-5.609-.843A4.746 4.746 0 0 0 12 5.512a4.751 4.751 0 0 0-3.425-2.174c-2.023-.247-3.908.036-5.609.843A1.264 1.264 0 0 0 2.25 5.32v13.005c0 .394.18.755.493.992.312.237.728.312 1.107.206 2.908-.826 5.367-.476 7.733 1.101.01.007.022.009.032.015.011.006.019.016.031.022.011.006.024.003.035.009.1.048.208.08.318.08.11 0 .217-.032.318-.08.01-.005.024-.003.035-.009.011-.006.02-.015.03-.022.01-.006.022-.008.032-.015 2.366-1.578 4.824-1.928 7.733-1.102.38.108.794.032 1.107-.205.313-.236.493-.598.493-.992V5.32a1.257 1.257 0 0 0-.711-1.138ZM6.733 17.593c-.961 0-1.954.135-2.983.402V5.47c1.42-.643 2.943-.854 4.642-.644a3.26 3.26 0 0 1 2.858 3.232v10.63a9.8 9.8 0 0 0-4.517-1.095Zm13.517.403c-2.728-.709-5.194-.482-7.5.695V8.06a3.26 3.26 0 0 1 2.858-3.232c.422-.052.833-.078 1.234-.078 1.215 0 2.34.239 3.407.722v12.524h.001ZM15 8.25h3a.75.75 0 0 1 0 1.5h-3a.75.75 0 0 1 0-1.5ZM17.75 12a.75.75 0 0 1-.75.75h-2a.75.75 0 0 1 0-1.5h2a.75.75 0 0 1 .75.75Z"/></svg>