<svg xmlns="http://www.w3.org/2000/svg" width="24" height="24" fill="none"><path fill="currentColor" d="M16 2.25H8C5.582 2.25 4.25 3.582 4.25 6v15a.747.747 0 0 0 .75.75.749.749 0 0 0 .372-.099L12 17.863l6.628 3.787a.75.75 0 0 0 1.122-.651v-15c0-2.417-1.332-3.749-3.75-3.749m2.25 17.457-5.878-3.358a.749.749 0 0 0-.744 0L5.75 19.708V6c0-1.577.673-2.25 2.25-2.25h8c1.577 0 2.25.673 2.25 2.25zM15.271 8.44l-1.56-.222-.668-1.328a1.162 1.162 0 0 0-1.044-.641c-.444 0-.845.245-1.044.641l-.67 1.328-1.558.222c-.437.062-.79.36-.924.777a1.12 1.12 0 0 0 .296 1.161l1.117 1.065-.253 1.448c-.077.435.098.868.455 1.13.359.266.833.303 1.23.098l1.35-.694 1.35.694a1.163 1.163 0 0 0 1.231-.097 1.15 1.15 0 0 0 .454-1.13l-.253-1.449 1.118-1.066c.315-.301.43-.746.295-1.16a1.122 1.122 0 0 0-.922-.777m-1.668 2.055a1.131 1.131 0 0 0-.332 1.01l.17.974-.915-.47a1.145 1.145 0 0 0-1.049-.002l-.917.472.171-.976a1.134 1.134 0 0 0-.334-1.01l-.708-.675.994-.142c.368-.052.688-.281.858-.614L12 8.151l.46.915c.17.33.489.558.857.61l.994.142z"/></svg>