<svg xmlns="http://www.w3.org/2000/svg" width="24" height="24" fill="none"><path fill="currentColor" d="M21.383 9.615a1.245 1.245 0 0 0-.883-.365h-.002c-1.979.004-3.918.059-5.897.68A4.765 4.765 0 0 0 12 11.934 4.762 4.762 0 0 0 9.399 9.93c-1.98-.621-3.92-.676-5.896-.68H3.5a1.246 1.246 0 0 0-1.25 1.251v8a1.25 1.25 0 0 0 1.239 1.25c4.133.018 6.817.617 7.98 1.779.007.007.016.009.023.016.064.06.136.112.22.147a.76.76 0 0 0 .573 0 .738.738 0 0 0 .221-.147c.007-.007.017-.009.023-.016 1.163-1.163 3.848-1.761 7.981-1.779a1.25 1.25 0 0 0 1.238-1.25v-8a1.239 1.239 0 0 0-.365-.886M3.75 10.751c1.771.008 3.502.078 5.2.61a3.257 3.257 0 0 1 2.3 3.113v5.079c-2.085-1.088-5.134-1.279-7.5-1.301zm16.5 7.501c-2.366.021-5.415.213-7.5 1.301v-5.079c0-1.43.924-2.681 2.3-3.113 1.698-.533 3.43-.602 5.2-.61zM12 8.75a3.254 3.254 0 0 0 3.25-3.25A3.254 3.254 0 0 0 12 2.25 3.254 3.254 0 0 0 8.75 5.5 3.254 3.254 0 0 0 12 8.75m0-5c.965 0 1.75.785 1.75 1.75S12.965 7.25 12 7.25s-1.75-.785-1.75-1.75.785-1.75 1.75-1.75"/></svg>