<svg xmlns="http://www.w3.org/2000/svg" width="24" height="24" fill="none"><path fill="currentColor" d="m22.679 18.611-.516-2.426v-.002L20.1 6.477v-.006l-.516-2.425c-.146-.685-.455-1.186-.92-1.488-.467-.302-1.048-.383-1.735-.236l-1.941.413c-.625.133-1.091.417-1.394.811-.305-.824-1.04-1.295-2.092-1.295h-2c-.621 0-1.123.172-1.5.475-.377-.303-.88-.475-1.5-.475h-2c-1.409 0-2.25.841-2.25 2.25v15c0 1.409.841 2.25 2.25 2.25h2c.621 0 1.123-.172 1.5-.475.377.303.879.475 1.5.475h2c1.409 0 2.25-.841 2.25-2.25V7.691l2.091 9.834v.002l.001.002.516 2.425c.146.685.455 1.186.921 1.488.315.205.684.307 1.102.307.2 0 .411-.023.633-.071l1.941-.413c.686-.146 1.187-.456 1.488-.921.3-.465.38-1.049.234-1.733M3.75 7.75h3.5v8.5h-3.5zm5 0h3.5v8.5h-3.5zm.75-4h2c.589 0 .75.161.75.75v1.75h-3.5V4.5c0-.589.161-.75.75-.75m-5 0h2c.589 0 .75.161.75.75v1.75h-3.5V4.5c0-.589.161-.75.75-.75m2 16.5h-2c-.589 0-.75-.161-.75-.75v-1.75h3.5v1.75c0 .589-.161.75-.75.75m5 0h-2c-.589 0-.75-.161-.75-.75v-1.75h3.5v1.75c0 .589-.161.75-.75.75m3.899-12.012 3.39-.72 1.751 8.243-3.388.72L15.4 8.238Zm-.1-4.037 1.941-.413c.097-.021.212-.038.32-.038.108 0 .21.017.284.065.149.097.23.348.271.542l.36 1.694-3.39.72-.359-1.694c-.119-.567.003-.756.572-.876Zm5.886 15.327c-.097.149-.348.229-.541.271-.001 0 0 0 0 0l-1.943.413c-.193.041-.456.07-.604-.027-.15-.097-.23-.348-.271-.542l-.36-1.694 3.388-.72.36 1.694c.04.194.068.455-.029.605"/></svg>