<svg xmlns="http://www.w3.org/2000/svg" width="24" height="24" fill="none"><path fill="currentColor" d="M16 2.25H8C5.582 2.25 4.25 3.582 4.25 6v15a.747.747 0 0 0 .75.75.749.749 0 0 0 .372-.099L12 17.863l6.628 3.787a.75.75 0 0 0 1.122-.651v-15c0-2.417-1.332-3.749-3.75-3.749m2.25 17.457-5.878-3.358a.749.749 0 0 0-.744 0L5.75 19.708V6c0-1.577.673-2.25 2.25-2.25h8c1.577 0 2.25.673 2.25 2.25zM12 10.55c1.323 0 2.4-1.077 2.4-2.4s-1.077-2.4-2.4-2.4a2.403 2.403 0 0 0-2.4 2.4c0 1.323 1.077 2.4 2.4 2.4m0-3.3c.496 0 .9.404.9.9s-.404.9-.9.9a.901.901 0 0 1-.9-.9c0-.496.404-.9.9-.9m3.75 6.947v.303a.75.75 0 0 1-1.5 0v-.303c0-.72-.497-1.447-1.608-1.447H11.36c-1.111 0-1.608.727-1.608 1.447v.303a.75.75 0 0 1-1.5 0v-.303c0-1.464 1.067-2.947 3.108-2.947h1.283c2.041 0 3.108 1.482 3.108 2.947Z"/></svg>