<svg xmlns="http://www.w3.org/2000/svg" width="24" height="24" fill="none"><path fill="currentColor" d="M16 2.25H8C5.582 2.25 4.25 3.582 4.25 6v15a.747.747 0 0 0 .75.75.749.749 0 0 0 .372-.099L12 17.863l6.628 3.787a.75.75 0 0 0 1.122-.651v-15c0-2.417-1.332-3.749-3.75-3.749m2.25 17.457-5.878-3.358a.749.749 0 0 0-.744 0L5.75 19.708V6c0-1.577.673-2.25 2.25-2.25h8c1.577 0 2.25.673 2.25 2.25zM13.551 6.25h-.013A2.25 2.25 0 0 0 12 6.838c-.371-.334-.849-.577-1.551-.588-.84.004-1.545.324-2.038.926-.582.712-.795 1.741-.58 2.824.524 2.663 3.727 4.124 3.862 4.185a.762.762 0 0 0 .614 0c.136-.06 3.338-1.522 3.862-4.185.214-1.083.003-2.111-.579-2.823-.492-.603-1.197-.923-2.039-.927m1.147 3.459c-.297 1.504-1.993 2.567-2.698 2.95-.705-.383-2.401-1.446-2.698-2.95-.125-.632-.023-1.224.271-1.583.206-.251.495-.374.885-.376h.004c.579 0 .808.576.829.633.102.301.384.5.702.504h.01a.757.757 0 0 0 .705-.496c.024-.066.253-.642.832-.642h.004c.39.002.68.125.886.376.292.36.392.952.268 1.584"/></svg>