<svg xmlns="http://www.w3.org/2000/svg" width="24" height="24" fill="none"><path fill="currentColor" d="M21.74 12.22c.06-.5-.09-1-.43-1.37-.33-.38-.81-.6-1.32-.6H4.01a1.773 1.773 0 0 0-1.75 1.97c.13 1.06.45 2.09.92 3.03 0 .03.02.05.03.08a9.762 9.762 0 0 0 3.83 4.1c.09.05.15.14.15.23v.35c0 .96.79 1.75 1.75 1.75h6.12c.96 0 1.75-.79 1.75-1.75v-.35c0-.09.06-.17.15-.23a9.825 9.825 0 0 0 3.83-4.1l.03-.06c.47-.95.79-1.98.92-3.04v-.01Zm-17.92-.38s.09-.09.19-.09h15.98c.1 0 .17.06.19.09.03.03.07.1.06.19-.1.77-.32 1.51-.62 2.22H4.37c-.3-.7-.52-1.45-.62-2.22a.24.24 0 0 1 .06-.19h.01Zm12.39 6.29c-.56.33-.9.9-.9 1.52V20c0 .14-.11.25-.25.25H8.94c-.14 0-.25-.11-.25-.25v-.35c0-.63-.33-1.2-.9-1.52-1.03-.6-1.9-1.42-2.58-2.38h13.57c-.68.96-1.55 1.78-2.58 2.38h.01ZM11.17 6.38c-.75-.76-.75-2 0-2.75l.15-.15c.29-.29.77-.29 1.06 0 .29.29.3.77 0 1.06l-.15.15c-.18.18-.18.46 0 .64l.3.3c.75.76.75 2 0 2.75l-.15.15c-.15.15-.34.22-.53.22s-.38-.07-.53-.22a.745.745 0 0 1 0-1.06l.15-.15c.18-.18.18-.46 0-.64l-.3-.3Zm5 0c-.75-.76-.75-2 0-2.75l.15-.15c.29-.29.77-.29 1.06 0 .29.29.3.77 0 1.06l-.15.15c-.18.18-.18.46 0 .64l.3.3c.75.76.75 2 0 2.75l-.15.15c-.15.15-.34.22-.53.22s-.38-.07-.53-.22a.745.745 0 0 1 0-1.06l.15-.15c.18-.18.18-.46 0-.64l-.3-.3Zm-10 0c-.75-.76-.75-2 0-2.75l.15-.15c.29-.29.77-.29 1.06 0 .29.29.3.77 0 1.06l-.15.15c-.18.18-.18.46 0 .64l.3.3c.75.76.75 2 0 2.75l-.15.15c-.15.15-.34.22-.53.22s-.38-.07-.53-.22a.745.745 0 0 1 0-1.06l.15-.15c.18-.18.18-.46 0-.64l-.3-.3Z"/></svg>