<svg xmlns="http://www.w3.org/2000/svg" width="24" height="24" fill="none"><path fill="currentColor" d="M19.99 10.25H4.01a1.773 1.773 0 0 0-1.75 1.97c.13 1.06.45 2.09.92 3.03 0 .03.02.05.03.08a9.762 9.762 0 0 0 3.83 4.1c.09.05.15.14.15.23v.35c0 .96.79 1.75 1.75 1.75h6.12c.96 0 1.75-.79 1.75-1.75v-.35c0-.09.06-.17.15-.23a9.825 9.825 0 0 0 3.83-4.1l.03-.06c.47-.95.79-1.98.92-3.04.06-.5-.09-1-.43-1.37-.33-.38-.81-.6-1.32-.6v-.01ZM3.81 11.84s.09-.09.19-.09h15.98c.1 0 .17.06.19.09.03.03.07.1.06.19-.1.77-.32 1.51-.62 2.22H4.36c-.3-.7-.52-1.45-.62-2.22a.24.24 0 0 1 .06-.19h.01Zm12.39 6.29c-.56.33-.9.9-.9 1.52V20c0 .14-.11.25-.25.25H8.93c-.14 0-.25-.11-.25-.25v-.35c0-.63-.33-1.2-.9-1.52-1.03-.6-1.9-1.42-2.58-2.38h13.57c-.68.96-1.55 1.78-2.58 2.38h.01ZM4.97 8.51l1.71.21c.2.02.4.04.59.04.87 0 1.61-.25 2.16-.74.36-.32.75-.87.91-1.76H21c.41 0 .75-.34.75-.75s-.34-.75-.75-.75H10.34c-.15-.89-.55-1.44-.91-1.76-.67-.6-1.62-.84-2.75-.71l-1.71.21c-1.55.19-2.73 1.48-2.73 3.01 0 1.53 1.17 2.82 2.73 3.01v-.01Zm.18-4.53 1.71-.21c.68-.08 1.24.04 1.58.34.32.28.48.75.48 1.39 0 .64-.16 1.1-.48 1.39-.34.3-.9.42-1.58.34l-1.71-.21c-.8-.1-1.41-.75-1.41-1.52s.61-1.42 1.41-1.52Z"/></svg>