<svg xmlns="http://www.w3.org/2000/svg" width="24" height="24" fill="none"><path fill="currentColor" d="M11.75 20.119v-8.733c.264-.053.524-.132.774-.241l6.655-2.957c.035.158.071.316.071.482v2.329a.75.75 0 0 0 1.5 0V8.67c0-.637-.17-1.244-.462-1.782l-.003-.012c-.004-.01-.013-.016-.018-.025a3.737 3.737 0 0 0-1.743-1.605l-5.997-2.668a3.732 3.732 0 0 0-3.052-.001l-6 2.669a3.741 3.741 0 0 0-1.743 1.605c-.005.01-.014.015-.018.025-.002.004 0 .008-.003.012A3.731 3.731 0 0 0 1.25 8.67v6.657c0 1.479.874 2.823 2.226 3.424l5.997 2.667a3.674 3.674 0 0 0 2.782.111.75.75 0 0 0-.504-1.41ZM10.088 3.947a2.23 2.23 0 0 1 1.827.001l6 2.669c.168.075.315.179.457.289l-2.728 1.212-7.255-3.415 1.699-.756Zm-3.51 1.561 7.254 3.415-1.912.85a2.309 2.309 0 0 1-1.835.002L3.628 6.906c.141-.11.289-.214.457-.289l2.493-1.109ZM4.085 17.381a2.25 2.25 0 0 1-1.335-2.054V8.67c0-.166.036-.324.071-.482l6.66 2.959c.249.108.507.187.77.239v8.72c-.055-.02-.11-.032-.165-.056l-6.001-2.669ZM20 16.999a.75.75 0 0 1-.75.75h-2.5a.75.75 0 0 1 0-1.5h2.5a.75.75 0 0 1 .75.75Zm-2-4.75a4.756 4.756 0 0 0-4.75 4.75 4.756 4.756 0 0 0 4.75 4.75 4.756 4.756 0 0 0 4.75-4.75 4.756 4.756 0 0 0-4.75-4.75Zm0 8a3.254 3.254 0 0 1-3.25-3.25 3.254 3.254 0 0 1 3.25-3.25 3.254 3.254 0 0 1 3.25 3.25 3.254 3.254 0 0 1-3.25 3.25Z"/></svg>