<svg xmlns="http://www.w3.org/2000/svg" width="24" height="24" fill="none"><path fill="currentColor" d="m12.693 19.703-.781.35c-.052.024-.108.034-.162.053v-8.72c.264-.053.524-.131.774-.24l6.655-2.956c.035.157.071.316.071.481V12a.75.75 0 0 0 1.5 0V8.671c0-.637-.17-1.244-.462-1.782l-.002-.011c-.004-.009-.012-.014-.016-.023a3.732 3.732 0 0 0-1.745-1.608l-5.997-2.668a3.732 3.732 0 0 0-3.052-.001l-6 2.669a3.74 3.74 0 0 0-1.745 1.609c-.004.009-.012.014-.016.023l-.002.011a3.734 3.734 0 0 0-.462 1.782v6.658c0 1.479.874 2.824 2.226 3.425l5.997 2.668a3.728 3.728 0 0 0 3.053 0l.78-.35a.75.75 0 0 0 .378-.991c-.17-.379-.615-.548-.992-.379M10.088 3.947a2.23 2.23 0 0 1 1.827.001l6 2.669c.168.075.316.179.458.289l-2.729 1.212-7.257-3.415zM6.576 5.509l7.256 3.414-1.911.849a2.304 2.304 0 0 1-1.835.002L3.628 6.906a2.23 2.23 0 0 1 .458-.289zM4.085 17.383a2.25 2.25 0 0 1-1.335-2.054V8.671c0-.166.036-.324.071-.481l6.66 2.958c.249.108.507.187.77.239v8.72c-.055-.02-.112-.03-.165-.054zm18.445 3.083-1.55-1.549a3.642 3.642 0 0 0 .602-2.003 3.67 3.67 0 0 0-3.666-3.666 3.67 3.67 0 0 0-3.667 3.666 3.67 3.67 0 0 0 3.667 3.666c.74 0 1.426-.224 2.003-.602l1.55 1.549a.747.747 0 0 0 1.06-.001.748.748 0 0 0 .001-1.06m-6.78-3.552a2.17 2.17 0 0 1 2.167-2.166c1.194 0 2.166.972 2.166 2.166a2.169 2.169 0 0 1-2.166 2.166 2.17 2.17 0 0 1-2.167-2.166"/></svg>