<svg xmlns="http://www.w3.org/2000/svg" width="24" height="24" fill="none"><path fill="currentColor" d="M20.125 11.25h-2.556c.119-.327.181-.703.181-1.125v-6.25c0-1.668-.957-2.625-2.625-2.625h-6.25c-1.668 0-2.625.957-2.625 2.625v6.25c0 .422.062.798.181 1.125H3.875c-1.668 0-2.625.957-2.625 2.625v6.25c0 1.668.957 2.625 2.625 2.625h6.25c.799 0 1.429-.225 1.875-.637.446.412 1.076.637 1.875.637h6.25c1.668 0 2.625-.957 2.625-2.625v-6.25c0-1.668-.957-2.625-2.625-2.625m-3.875 1.5h1.5v1.849l-.334-.223a.75.75 0 0 0-.832 0l-.334.223zm-5-10h1.5v1.849l-.334-.223a.75.75 0 0 0-.832 0l-.334.223zm-3.5 1.125c0-.831.294-1.125 1.125-1.125h.875V6a.748.748 0 0 0 1.166.624L12 5.901l1.084.723A.75.75 0 0 0 14.25 6V2.75h.875c.831 0 1.125.294 1.125 1.125v6.25c0 .831-.294 1.125-1.125 1.125h-6.25c-.831 0-1.125-.294-1.125-1.125zm-1.5 8.875h1.5v1.849l-.334-.223a.75.75 0 0 0-.832 0l-.334.223zm3.875 8.5h-6.25c-.831 0-1.125-.294-1.125-1.125v-6.25c0-.831.294-1.125 1.125-1.125h.875V16a.748.748 0 0 0 1.166.624L7 15.901l1.084.723A.75.75 0 0 0 9.25 16v-3.25h.875c.831 0 1.125.294 1.125 1.125v6.25c0 .831-.294 1.125-1.125 1.125m11.125-1.125c0 .831-.294 1.125-1.125 1.125h-6.25c-.831 0-1.125-.294-1.125-1.125v-6.25c0-.831.294-1.125 1.125-1.125h.875V16a.748.748 0 0 0 1.166.624L17 15.901l1.084.723A.75.75 0 0 0 19.25 16v-3.25h.875c.831 0 1.125.294 1.125 1.125z"/></svg>