<svg xmlns="http://www.w3.org/2000/svg" width="24" height="24" fill="none"><path fill="currentColor" d="M16 2.25h-6C7.93 2.25 6.25 3.93 6.25 6v.38c-.23-.08-.49-.13-.75-.13-1.24 0-2.25 1.01-2.25 2.25v3.6c0 1.26.62 2.42 1.67 3.12l1 .66c.21.14.33.37.33.62v2.99c0 1.24 1.01 2.25 2.25 2.25h9c1.24 0 2.25-1.01 2.25-2.25v-3.44c0-.12.03-.23.08-.34l.52-1.05c.26-.52.4-1.1.4-1.68v-6c0-2.62-2.13-4.75-4.75-4.75v.02ZM5.75 13.97c-.63-.42-1-1.12-1-1.87V8.5c0-.41.34-.75.75-.75s.75.34.75.75V12c0 .41.34.75.75.75s.75-.34.75-.75V6c0-1.24 1.01-2.25 2.25-2.25h6c1.79 0 3.25 1.46 3.25 3.25v6c0 .35-.08.7-.24 1.01l-.52 1.05c-.16.31-.24.66-.24 1.01v.19H7.72c-.08-.65-.42-1.24-.97-1.61l-1-.66v-.02Zm11.75 6.28h-9c-.41 0-.75-.34-.75-.75v-1.75h10.5v1.75c0 .41-.34.75-.75.75Z"/></svg>