<svg xmlns="http://www.w3.org/2000/svg" width="24" height="24" fill="none"><path fill="currentColor" d="M21.75 12.005a3.75 3.75 0 0 0-2.013-3.346c.01-.11.013-.222.013-.336 0-2.221-1.554-3.276-2.262-3.642C17.072 3.69 15.971 2.25 14 2.25c-.773 0-1.49.363-2 .917-.51-.553-1.227-.917-2-.917-1.972 0-3.072 1.44-3.488 2.43-.708.367-2.262 1.422-2.262 3.643 0 .115.004.227.013.336a3.75 3.75 0 0 0-2.013 3.346c0 .515.224 1.161.388 1.566a4.338 4.338 0 0 0-.388 1.816 4.374 4.374 0 0 0 3.373 4.256C6.231 21.006 7.415 21.75 9 21.75c1.289 0 2.339-.536 3-1.413.661.877 1.711 1.413 3 1.413 1.585 0 2.769-.744 3.377-2.107a4.374 4.374 0 0 0 3.373-4.256c0-.812-.214-1.44-.388-1.816.164-.404.388-1.051.388-1.566M9 20.25c-1.091 0-1.783-.493-2.118-1.506a.749.749 0 0 0-.62-.509 2.869 2.869 0 0 1-2.512-2.848c0-.827.338-1.356.338-1.356a.754.754 0 0 0 .062-.743c-.161-.344-.399-.99-.399-1.283 0-.986.646-1.877 1.573-2.166a.75.75 0 0 0 .499-.917 2.264 2.264 0 0 1-.072-.6c0-1.751 1.556-2.364 1.617-2.387a.757.757 0 0 0 .462-.489c.021-.069.54-1.697 2.171-1.697.578 0 1.25.546 1.25 1.25v3.963a5.036 5.036 0 0 0-.915-.634.748.748 0 0 0-1.003.333.752.752 0 0 0 .329 1.007c.017.008 1.589.831 1.589 2.331v1.963a5.035 5.035 0 0 0-.915-.634.749.749 0 0 0-.674 1.34c.017.008 1.589.831 1.589 2.331v1C11.25 19.088 10.659 20.25 9 20.25m10.907-6.226c.004.005.343.535.343 1.363a2.87 2.87 0 0 1-2.512 2.848.75.75 0 0 0-.62.509c-.335 1.013-1.027 1.506-2.118 1.506-1.659 0-2.25-1.162-2.25-2.25v-1c0-1.491 1.555-2.313 1.588-2.331a.75.75 0 0 0-.673-1.34c-.04.02-.447.23-.915.634V12c0-1.491 1.555-2.313 1.588-2.331a.75.75 0 0 0-.673-1.34c-.04.02-.447.23-.915.634V5c0-.704.672-1.25 1.25-1.25 1.631 0 2.15 1.628 2.17 1.693.066.225.24.408.458.492.066.025 1.622.637 1.622 2.389 0 .225-.024.427-.072.6a.75.75 0 0 0 .499.917c.927.29 1.573 1.18 1.573 2.166 0 .293-.238.939-.399 1.283a.765.765 0 0 0 .056.734"/></svg>