<svg xmlns="http://www.w3.org/2000/svg" width="24" height="24" fill="none"><path fill="currentColor" d="M18 5.25h-1.25V4c0-.965-.785-1.75-1.75-1.75H9c-.965 0-1.75.785-1.75 1.75v1.25H6C3.582 5.25 2.25 6.582 2.25 9v9c0 2.418 1.332 3.75 3.75 3.75h12c2.418 0 3.75-1.332 3.75-3.75V9c0-2.418-1.332-3.75-3.75-3.75M8.75 4A.25.25 0 0 1 9 3.75h6a.25.25 0 0 1 .25.25v1.25h-6.5zm11.5 14c0 1.577-.673 2.25-2.25 2.25H6c-1.577 0-2.25-.673-2.25-2.25V9c0-1.577.673-2.25 2.25-2.25h12c1.577 0 2.25.673 2.25 2.25zM12 9.75a3.754 3.754 0 0 0-3.75 3.75A3.754 3.754 0 0 0 12 17.25a3.754 3.754 0 0 0 3.75-3.75A3.754 3.754 0 0 0 12 9.75m0 6a2.252 2.252 0 0 1-2.25-2.25A2.252 2.252 0 0 1 12 11.25a2.252 2.252 0 0 1 2.25 2.25A2.252 2.252 0 0 1 12 15.75M7 13.5a1 1 0 1 1-2 0 1 1 0 0 1 2 0m12 0a1 1 0 1 1-2 0 1 1 0 0 1 2 0"/></svg>