<svg xmlns="http://www.w3.org/2000/svg" width="24" height="24" fill="none"><path fill="currentColor" d="M18 5.25h-1.25V4c0-.965-.785-1.75-1.75-1.75H9c-.965 0-1.75.785-1.75 1.75v1.25H6C3.582 5.25 2.25 6.582 2.25 9v9c0 2.418 1.332 3.75 3.75 3.75h9a.75.75 0 0 0 0-1.5H6c-1.577 0-2.25-.673-2.25-2.25v-4.62c.95.411 2.473.962 4.591 1.395.691.14 1.409-.165 1.821-.782.446-.666 1.133-1.063 1.838-1.063.705 0 1.392.397 1.837 1.063.346.517.904.816 1.483.816.112 0 .225-.011.337-.034 2.119-.433 3.642-.984 4.592-1.395V15a.75.75 0 0 0 1.5 0V9C21.75 6.582 20.418 5.25 18 5.25M8.75 4A.25.25 0 0 1 9 3.75h6a.25.25 0 0 1 .25.25v1.25h-6.5zm11.054 7.939c-.865.386-2.339.936-4.446 1.366-.106.021-.214-.058-.274-.146-.725-1.083-1.877-1.729-3.084-1.729s-2.359.646-3.084 1.73c-.059.088-.166.168-.274.145-2.106-.43-3.581-.98-4.446-1.366a.744.744 0 0 1-.446-.687V9c0-1.577.673-2.25 2.25-2.25h12c1.577 0 2.25.673 2.25 2.25v2.253a.742.742 0 0 1-.446.686M12.02 14a1 1 0 0 1 0 2 1.005 1.005 0 0 1-1.005-1c0-.552.442-1 .995-1zm9.51 4.53-.97.97.97.97a.75.75 0 0 1-1.06 1.061l-.97-.97-.97.97a.748.748 0 0 1-1.06 0 .75.75 0 0 1 0-1.061l.97-.97-.97-.97a.75.75 0 1 1 1.061-1.061l.97.97.97-.97a.75.75 0 1 1 1.059 1.061"/></svg>