<svg xmlns="http://www.w3.org/2000/svg" width="24" height="24" fill="none"><path fill="currentColor" d="M19.137 10.212V4.5c0-1.409-.841-2.25-2.25-2.25h-9.92c-1.43 0-2.25.82-2.25 2.25v5.812a1.229 1.229 0 0 0-.466.95v.658c0 1.153.728 2.192 1.846 2.596l3.324 1.027a.746.746 0 0 1 .489.788l-.297 2.685a2.464 2.464 0 0 0 4.283 1.914c.467-.521.69-1.219.613-1.914l-.298-2.694c-.038-.343.161-.666.448-.773l3.301-1.04a2.761 2.761 0 0 0 1.791-2.578v-.669c-.001-.451-.254-.83-.614-1.05M6.966 3.75h7.285V6a.75.75 0 0 0 1.5 0V3.75h1.135c.589 0 .75.161.75.75v5.512H6.215V4.5c.001-.589.162-.75.751-.75m11.284 8.181c0 .52-.327.991-.778 1.159l-3.3 1.04a2.248 2.248 0 0 0-1.453 2.357l.298 2.694a.948.948 0 0 1-.24.749c-.371.413-1.065.414-1.435 0a.952.952 0 0 1-.24-.749l.297-2.685c.114-1.035-.489-2.007-1.502-2.374l-3.325-1.027a1.254 1.254 0 0 1-.823-1.175v-.408h12.5z"/></svg>