<svg xmlns="http://www.w3.org/2000/svg" width="24" height="24" fill="none"><path fill="currentColor" d="M12.25 8a.75.75 0 0 1-.75.75h-1a.75.75 0 0 1 0-1.5h1a.75.75 0 0 1 .75.75M7.5 7.25h-1a.75.75 0 0 0 0 1.5h1a.75.75 0 0 0 0-1.5m4 3h-1a.75.75 0 0 0 0 1.5h1a.75.75 0 0 0 0-1.5m-4 0h-1a.75.75 0 0 0 0 1.5h1a.75.75 0 0 0 0-1.5M22.75 21a.75.75 0 0 1-.75.75H2a.75.75 0 0 1 0-1.5h.25V6c0-2.418 1.332-3.75 3.75-3.75h6c2.418 0 3.75 1.332 3.75 3.75v14.25h3v-2.617a2.745 2.745 0 0 1-2-2.633v-3a2.752 2.752 0 0 1 2.75-2.75A2.752 2.752 0 0 1 22.25 12v3a2.745 2.745 0 0 1-2 2.633v2.617H22a.75.75 0 0 1 .75.75m-3.25-4.75c.689 0 1.25-.561 1.25-1.25v-3c0-.689-.561-1.25-1.25-1.25s-1.25.561-1.25 1.25v3c0 .689.561 1.25 1.25 1.25m-9.25.75c0-.689-.561-1.25-1.25-1.25s-1.25.561-1.25 1.25v3.25h2.5zm4 3.25V6c0-1.577-.673-2.25-2.25-2.25H6c-1.577 0-2.25.673-2.25 2.25v14.25h2.5V17A2.752 2.752 0 0 1 9 14.25 2.752 2.752 0 0 1 11.75 17v3.25z"/></svg>