<svg xmlns="http://www.w3.org/2000/svg" width="24" height="24" fill="none"><path fill="currentColor" d="M18 11.25a8.45 8.45 0 0 0-1.25.1V6.81c0-1.046-.735-1.97-1.741-2.191L5.011 2.31a2.227 2.227 0 0 0-1.907.428A2.24 2.24 0 0 0 2.25 4.5V19c0 .116.003.232.012.278.094 1.47.99 2.367 2.404 2.455.103.014.218.017.334.017h11a.729.729 0 0 0 .447-.164A7.791 7.791 0 0 0 18 21.75c2.619 0 4.75-1.233 4.75-2.75v-5c0-1.568-2.042-2.75-4.75-2.75Zm3.25 5.25c0 .498-1.296 1.25-3.25 1.25s-3.25-.752-3.25-1.25v-.47c.838.448 1.964.72 3.25.72s2.412-.273 3.25-.72v.47Zm0-2.5c0 .498-1.296 1.25-3.25 1.25s-3.25-.752-3.25-1.25 1.296-1.25 3.25-1.25 3.25.752 3.25 1.25ZM4.817 20.242c-.726-.046-1.013-.333-1.064-1.115-.005-.039-.003-.083-.003-.127V4.5c0-.229.104-.442.286-.586a.748.748 0 0 1 .635-.143l10.007 2.311a.743.743 0 0 1 .572.728v4.924c-1.224.487-2 1.302-2 2.266v5c0 .452.208.873.543 1.25H12.25V17a2.752 2.752 0 0 0-2.75-2.75A2.752 2.752 0 0 0 6.75 17v3.25H5c-.046 0-.09.002-.183-.008Zm5.933.008h-2.5V17c0-.689.561-1.25 1.25-1.25s1.25.561 1.25 1.25v3.25Zm7.25 0c-1.988 0-3.25-.879-3.25-1.25v-.47c.838.448 1.964.72 3.25.72s2.412-.273 3.25-.72V19c0 .371-1.262 1.25-3.25 1.25ZM10.25 9a.75.75 0 0 1 .75-.75h1a.75.75 0 0 1 0 1.5h-1a.75.75 0 0 1-.75-.75Zm-4 0A.75.75 0 0 1 7 8.25h1a.75.75 0 0 1 0 1.5H7A.75.75 0 0 1 6.25 9Zm4 3a.75.75 0 0 1 .75-.75h1a.75.75 0 0 1 0 1.5h-1a.75.75 0 0 1-.75-.75Zm-4 0a.75.75 0 0 1 .75-.75h1a.75.75 0 0 1 0 1.5H7a.75.75 0 0 1-.75-.75Z"/></svg>