<svg xmlns="http://www.w3.org/2000/svg" width="24" height="24" fill="none"><path fill="currentColor" d="M22 20.25h-.25V11c0-1.748-1.002-2.75-2.75-2.75h-.25V6c0-2.418-1.332-3.75-3.75-3.75H9C6.582 2.25 5.25 3.582 5.25 6v2.25H5c-1.748 0-2.75 1.002-2.75 2.75v9.25H2a.75.75 0 0 0 0 1.5h20a.75.75 0 0 0 0-1.5M6.75 6c0-1.577.673-2.25 2.25-2.25h6c1.577 0 2.25.673 2.25 2.25v14.25h-2.5V18A2.752 2.752 0 0 0 12 15.25 2.752 2.752 0 0 0 9.25 18v2.25h-2.5zm6.5 14.25h-2.5V18c0-.689.561-1.25 1.25-1.25s1.25.561 1.25 1.25zM3.75 11c0-.911.339-1.25 1.25-1.25h.25v10.5h-1.5zm15 9.25V9.75H19c.911 0 1.25.339 1.25 1.25v9.25zM8.75 7a.75.75 0 0 1 .75-.75h1a.75.75 0 0 1 0 1.5h-1A.75.75 0 0 1 8.75 7m4 0a.75.75 0 0 1 .75-.75h1a.75.75 0 0 1 0 1.5h-1a.75.75 0 0 1-.75-.75m-4 3a.75.75 0 0 1 .75-.75h1a.75.75 0 0 1 0 1.5h-1a.75.75 0 0 1-.75-.75m4 0a.75.75 0 0 1 .75-.75h1a.75.75 0 0 1 0 1.5h-1a.75.75 0 0 1-.75-.75m-4 3a.75.75 0 0 1 .75-.75h1a.75.75 0 0 1 0 1.5h-1a.75.75 0 0 1-.75-.75m4 0a.75.75 0 0 1 .75-.75h1a.75.75 0 0 1 0 1.5h-1a.75.75 0 0 1-.75-.75"/></svg>