<svg xmlns="http://www.w3.org/2000/svg" width="24" height="24" fill="none"><path fill="currentColor" d="M20 16.25H4c-.69 0-1.25.56-1.25 1.25v.5c0 2.42 1.33 3.75 3.75 3.75h11c2.42 0 3.75-1.33 3.75-3.75v-.5c0-.69-.56-1.25-1.25-1.25M19.75 18c0 1.58-.67 2.25-2.25 2.25h-11c-1.58 0-2.25-.67-2.25-2.25v-.25h15.5zM4 11.75h16c.69 0 1.25-.56 1.25-1.25V10c0-4.71-3.63-7.75-9.25-7.75S2.75 5.29 2.75 10v.5c0 .69.56 1.25 1.25 1.25M4.25 10c0-3.85 2.97-6.25 7.75-6.25 4.78 0 7.75 2.4 7.75 6.25v.25H4.25zm17.5 4.72c0 .41-.34.75-.75.75-1.05 0-1.61-.54-2.02-.93-.37-.35-.55-.51-.98-.51-.43 0-.61.16-.98.51-.41.39-.97.93-2.02.93s-1.61-.54-2.02-.93c-.37-.35-.55-.51-.98-.51-.43 0-.61.16-.98.51-.41.39-.97.93-2.02.93s-1.61-.54-2.02-.93c-.37-.35-.55-.51-.98-.51-.43 0-.61.16-.98.51-.41.39-.97.93-2.02.93-.41 0-.75-.34-.75-.75s.34-.75.75-.75.61-.16.98-.51c.41-.39.97-.93 2.02-.93s1.61.54 2.02.93c.37.35.55.51.98.51.43 0 .61-.16.98-.51.41-.39.97-.93 2.02-.93s1.61.54 2.02.93c.37.35.55.51.98.51.43 0 .61-.16.98-.51.41-.39.97-.93 2.02-.93s1.61.54 2.02.93c.37.35.55.51.98.51.43 0 .75.34.75.75M8.53 6.47a.75.75 0 1 1-1.06 0c.27-.28.78-.28 1.06 0m4-1a.75.75 0 1 1-1.059 1.06.75.75 0 0 1 1.059-1.06m4 1a.75.75 0 1 1-1.06 1.06.633.633 0 0 1-.16-.24.75.75 0 0 1 1.22-.82"/></svg>