<svg xmlns="http://www.w3.org/2000/svg" width="24" height="24" fill="none"><path fill="currentColor" d="M20 16.25H4c-.69 0-1.25.56-1.25 1.25v.5c0 2.42 1.33 3.75 3.75 3.75h11c2.42 0 3.75-1.33 3.75-3.75v-.5c0-.69-.56-1.25-1.25-1.25M19.75 18c0 1.58-.67 2.25-2.25 2.25h-11c-1.58 0-2.25-.67-2.25-2.25v-.25h15.5zM4 11.75h16c.69 0 1.25-.56 1.25-1.25V10c0-4.71-3.63-7.75-9.25-7.75S2.75 5.29 2.75 10v.5c0 .69.56 1.25 1.25 1.25M4.25 10c0-3.85 2.97-6.25 7.75-6.25 4.78 0 7.75 2.4 7.75 6.25v.25H4.25zm17.5 4c0 .41-.34.75-.75.75H3c-.41 0-.75-.34-.75-.75s.34-.75.75-.75h18c.41 0 .75.34.75.75M8.69 6.71a.75.75 0 1 1-1.379.58.75.75 0 0 1 1.379-.58m4-1a.717.717 0 0 1 0 .58.75.75 0 1 1 0-.58m4 1a.75.75 0 1 1-1.38 0c.03-.09.09-.17.16-.24.07-.07.15-.12.24-.16a.73.73 0 0 1 .58 0c.09.04.17.09.24.16.07.07.12.15.16.24"/></svg>