<svg xmlns="http://www.w3.org/2000/svg" width="24" height="24" fill="none"><path fill="currentColor" d="M21 17.25h-.25V10c0-2.42-1.33-3.75-3.75-3.75h-.25V4c0-.41-.34-.75-.75-.75s-.75.34-.75.75v2.25h-2.5V4c0-.41-.34-.75-.75-.75s-.75.34-.75.75v2.25h-2.5V4c0-.41-.34-.75-.75-.75s-.75.34-.75.75v2.25H7c-2.42 0-3.75 1.33-3.75 3.75v7.25H3c-.41 0-.75.34-.75.75v1.5c0 1.24 1.01 2.25 2.25 2.25h15c1.24 0 2.25-1.01 2.25-2.25V18c0-.41-.34-.75-.75-.75M7 7.75h10c1.58 0 2.25.67 2.25 2.25v1.15c-.74.3-1.38.98-1.84 1.6-.54-.82-1.44-1.75-2.74-1.75-1.3 0-2.12.85-2.66 1.64-.55-.79-1.42-1.64-2.66-1.64-1.24 0-2.2.93-2.74 1.75-.46-.62-1.11-1.3-1.84-1.6V10c0-1.58.67-2.25 2.25-2.25zm-2.25 5.17c.46.43.95 1.12 1.25 1.68.14.26.42.42.72.39.3-.02.55-.22.65-.49 0-.02.76-2 1.97-2s1.95 1.98 1.96 2a.755.755 0 0 0 1.42 0c.18-.52.93-2 1.96-2 1.21 0 1.96 1.98 1.97 2 .1.28.36.47.65.49.31.03.58-.13.72-.39.3-.56.79-1.24 1.25-1.68v4.33H4.77v-4.33zm15.5 6.58c0 .41-.34.75-.75.75h-15c-.41 0-.75-.34-.75-.75v-.75h16.5z"/></svg>