<svg xmlns="http://www.w3.org/2000/svg" width="24" height="24" fill="none"><path fill="currentColor" d="M18 2.25H6C3.582 2.25 2.25 3.582 2.25 6v12c0 2.418 1.332 3.75 3.75 3.75h12c2.418 0 3.75-1.332 3.75-3.75V6c0-2.418-1.332-3.75-3.75-3.75M20.25 6v5.25h-7.5v-7.5H18c1.577 0 2.25.673 2.25 2.25M6 3.75h5.25v7.5h-7.5V6c0-1.577.673-2.25 2.25-2.25M3.75 18v-5.25h7.5v7.5H6c-1.577 0-2.25-.673-2.25-2.25M18 20.25h-5.25v-7.5h7.5V18c0 1.577-.673 2.25-2.25 2.25m.75-5A.75.75 0 0 1 18 16h-3a.75.75 0 0 1 0-1.5h3a.75.75 0 0 1 .75.75M5.25 7.5A.75.75 0 0 1 6 6.75h3a.75.75 0 0 1 0 1.5H6a.75.75 0 0 1-.75-.75m9 0a.75.75 0 0 1 .75-.75h.75V6a.75.75 0 0 1 1.5 0v.75H18a.75.75 0 0 1 0 1.5h-.75V9a.75.75 0 0 1-1.5 0v-.75H15a.75.75 0 0 1-.75-.75m-4.97 9.72a.75.75 0 0 1-1.06 1.061l-.72-.72-.72.72a.748.748 0 0 1-1.06 0 .75.75 0 0 1 0-1.061l.72-.72-.72-.72a.75.75 0 1 1 1.061-1.061l.72.72.72-.72a.75.75 0 1 1 1.061 1.061l-.72.72zm9.47.53a.75.75 0 0 1-.75.75h-3a.75.75 0 0 1 0-1.5h3a.75.75 0 0 1 .75.75"/></svg>