<svg xmlns="http://www.w3.org/2000/svg" width="24" height="24" fill="none"><path fill="currentColor" d="M18 3.75h-1.25V3a.75.75 0 0 0-1.5 0v.75h-6.5V3a.75.75 0 0 0-1.5 0v.75H6c-2.418 0-3.75 1.332-3.75 3.75V18c0 2.418 1.332 3.75 3.75 3.75h12c2.418 0 3.75-1.332 3.75-3.75V7.5c0-2.418-1.332-3.75-3.75-3.75M6 5.25h1.25V6a.75.75 0 0 0 1.5 0v-.75h6.5V6a.75.75 0 0 0 1.5 0v-.75H18c1.577 0 2.25.673 2.25 2.25v.75H3.75V7.5c0-1.577.673-2.25 2.25-2.25m12 15H6c-1.577 0-2.25-.673-2.25-2.25V9.75h16.5V18c0 1.577-.673 2.25-2.25 2.25m-2.892-9.285a1.57 1.57 0 0 0-1.12-.465c-.425 0-.823.166-1.122.466l-5.147 5.171a.747.747 0 0 0-.219.529v2.083c0 .414.336.75.75.75h2.083c.198 0 .39-.079.53-.218l5.17-5.148c.3-.299.467-.697.467-1.121 0-.424-.164-.82-.464-1.12zM10.023 18H9v-1.024l3.31-3.325 1.04 1.039zm4.953-4.93c-.012.012-.23.231-.564.562l-1.044-1.044.561-.563c.057-.057.118 0 .118 0l.93.928s.055.06 0 .117Z"/></svg>