<svg xmlns="http://www.w3.org/2000/svg" width="24" height="24" fill="none"><path fill="currentColor" d="M18 3.75h-1.25V3a.75.75 0 0 0-1.5 0v.75h-6.5V3a.75.75 0 0 0-1.5 0v.75H6c-2.418 0-3.75 1.332-3.75 3.75V18c0 2.418 1.332 3.75 3.75 3.75h12c2.418 0 3.75-1.332 3.75-3.75V7.5c0-2.418-1.332-3.75-3.75-3.75ZM6 5.25h1.25V6a.75.75 0 0 0 1.5 0v-.75h6.5V6a.75.75 0 0 0 1.5 0v-.75H18c1.577 0 2.25.673 2.25 2.25v.75H3.75V7.5c0-1.577.673-2.25 2.25-2.25Zm12 15H6c-1.577 0-2.25-.673-2.25-2.25V9.75h16.5V18c0 1.577-.673 2.25-2.25 2.25Zm-2.729-7.06-1.56-.222-.668-1.328a1.162 1.162 0 0 0-1.044-.641c-.444 0-.845.245-1.044.64l-.67 1.329-1.558.222c-.437.062-.79.36-.924.777-.134.414-.02.858.296 1.16l1.117 1.066-.253 1.448c-.077.435.098.868.455 1.13.359.265.833.303 1.23.098l1.35-.694 1.35.694a1.163 1.163 0 0 0 1.231-.097 1.15 1.15 0 0 0 .454-1.13l-.253-1.449 1.118-1.066c.315-.301.43-.746.295-1.16a1.122 1.122 0 0 0-.922-.777Zm-1.668 2.055a1.13 1.13 0 0 0-.332 1.01l.17.974-.915-.47a1.145 1.145 0 0 0-1.049-.002l-.917.472.171-.976a1.134 1.134 0 0 0-.334-1.01l-.708-.675.994-.142c.368-.052.688-.281.858-.614l.459-.911.46.915c.17.33.489.558.857.61l.994.142-.708.677Z"/></svg>