<svg xmlns="http://www.w3.org/2000/svg" width="24" height="24" fill="none"><path fill="currentColor" d="M15.333 7.917h-.57l-.194-.583a1.581 1.581 0 0 0-1.502-1.083h-2.133c-.683 0-1.286.435-1.5 1.082l-.196.584h-.57c-1.536 0-2.417.881-2.417 2.417v5c0 1.536.881 2.417 2.417 2.417h6.666c1.536 0 2.417-.881 2.417-2.417v-5c-.001-1.537-.882-2.417-2.418-2.417m.917 7.416c0 .694-.223.917-.917.917H8.667c-.694 0-.917-.223-.917-.917v-5c0-.694.223-.917.917-.917h1.11a.75.75 0 0 0 .711-.513l.445-1.154 2.212.058.366 1.096a.75.75 0 0 0 .71.513h1.111c.694 0 .917.223.917.917zM12 10.417a2.42 2.42 0 0 0-2.417 2.417A2.42 2.42 0 0 0 12 15.251a2.42 2.42 0 0 0 2.417-2.417A2.42 2.42 0 0 0 12 10.417m0 3.333a.918.918 0 1 1 .001-1.835A.918.918 0 0 1 12 13.75m0-12.5C6.072 1.25 1.25 6.072 1.25 12S6.072 22.75 12 22.75 22.75 17.928 22.75 12 17.928 1.25 12 1.25m0 20c-5.101 0-9.25-4.149-9.25-9.25S6.899 2.75 12 2.75s9.25 4.149 9.25 9.25-4.149 9.25-9.25 9.25"/></svg>