<svg xmlns="http://www.w3.org/2000/svg" width="24" height="24" fill="none"><path fill="currentColor" d="M20.44 6.11c-.14-.05-.23-.16-.23-.3 0-1-.83-1.81-1.84-1.81-.14 0-.27-.09-.32-.23l-.1-.28c-.22-.65-.78-1.11-1.45-1.22-.68-.11-1.37.17-1.77.73-.69.93-1 1.92-.96 3-.56-.17-1.15-.26-1.77-.26a6.252 6.252 0 0 0-5.99 8.03c-.89.02-1.83.26-2.79.77-.66.35-1.03 1.03-.97 1.77.06.73.54 1.33 1.3 1.58.14.05.23.16.23.3 0 1 .83 1.81 1.84 1.81.14 0 .27.09.32.23l.1.28a1.835 1.835 0 0 0 1.74 1.24c.58 0 1.14-.27 1.49-.75.69-.93 1-1.92.96-3 .56.17 1.15.26 1.77.26 3.45 0 6.25-2.8 6.25-6.25 0-.61-.09-1.2-.26-1.76.89-.02 1.83-.28 2.78-.79.66-.35 1.03-1.03.97-1.77-.06-.73-.54-1.33-1.3-1.58ZM9.75 16.16V7.85c.46-.25.96-.43 1.5-.52v9.35a4.77 4.77 0 0 1-1.5-.52Zm3-8.83c.54.09 1.04.27 1.5.52v8.31c-.46.25-.96.43-1.5.52V7.33Zm-4.5 1.79v5.76c-.62-.8-1-1.79-1-2.88 0-1.09.38-2.08 1-2.88Zm-.19 10.99c-.11.15-.27.15-.33.14a.322.322 0 0 1-.27-.23l-.1-.28c-.24-.74-.94-1.24-1.73-1.24-.18 0-.34-.14-.34-.31 0-.78-.5-1.47-1.31-1.74-.18-.06-.22-.19-.22-.26 0-.06 0-.22.18-.31 1.02-.54 1.95-.71 2.79-.55.49.77 1.13 1.42 1.89 1.92.26 1.09.1 1.98-.55 2.86h-.01Zm7.69-5.23V9.12c.62.8 1 1.79 1 2.88 0 1.09-.38 2.08-1 2.88Zm4.32-6.75c-1.02.54-1.95.71-2.79.55a6.408 6.408 0 0 0-1.89-1.92c-.26-1.09-.1-1.98.55-2.86.11-.15.27-.15.33-.14.07.01.21.05.27.23l.1.28c.24.74.94 1.24 1.73 1.24.18 0 .34.14.34.31 0 .78.5 1.47 1.31 1.74.18.06.22.19.22.26 0 .06 0 .22-.18.31h.01Z"/></svg>