<svg xmlns="http://www.w3.org/2000/svg" width="24" height="24" fill="none"><path fill="currentColor" d="M18.32 11.49a6.187 6.187 0 0 0 1.27-5.36V6.1a6.186 6.186 0 0 0-1.68-3.02 6.23 6.23 0 0 0-4.44-1.83c-1.68 0-3.25.65-4.43 1.83l-.51.51c-.51.51-.78 1.18-.78 1.89s.28 1.39.78 1.89c1.01 1.01 2.76 1.02 3.79 0 .16-.16.37-.25.62-.25.15 0 .38.04.59.24.2.19.24.45.24.58 0 .29-.11.58-.31.78l-9.41 9.4a2.7 2.7 0 0 0-.8 1.92c0 .73.28 1.41.79 1.92s1.22.79 1.92.79 1.39-.26 1.92-.79l6.92-6.91.04-.04 3.07-3.07c.13-.13.24-.26.36-.39l.06-.06zm-4.35 2.26h-3.43l2-2h3.43zm-3.5 3.5H7.04l2-2h3.43zm3.57-7 .47-.47c.43-.43.69-1.02.73-1.64l2.99-.85c0 .08.02.15.02.23 0 1-.32 1.94-.88 2.74h-3.32zm3.88-4.44-3.03.87c-.1-.15-.21-.3-.34-.42-.1-.09-.2-.16-.31-.24l.32-3.13c.86.2 1.65.62 2.28 1.25.48.48.84 1.05 1.08 1.67m-6.68.5c-.44.44-1.22.44-1.66 0-.22-.22-.34-.52-.34-.83 0-.31.12-.61.34-.83l.51-.51c.8-.8 1.85-1.26 2.97-1.35l-.29 2.84c-.59.04-1.13.27-1.53.68M6.81 20.89a1.213 1.213 0 0 1-1.71-1.72l.43-.43h3.43z"/></svg>