<svg xmlns="http://www.w3.org/2000/svg" width="24" height="24" fill="none"><path fill="currentColor" d="M17.625 2.25H6.375c-2.66 0-4.125 1.465-4.125 4.125v11.25c0 2.66 1.465 4.125 4.125 4.125h11.25c2.66 0 4.125-1.465 4.125-4.125V6.375c0-2.66-1.465-4.125-4.125-4.125Zm2.625 15.375c0 1.84-.785 2.625-2.625 2.625H6.375c-1.84 0-2.625-.785-2.625-2.625V6.375c0-1.84.785-2.625 2.625-2.625h11.25c1.84 0 2.625.785 2.625 2.625v11.25ZM15.1 9.083H8.901c-.649 0-1.223.365-1.496.953a1.625 1.625 0 0 0 .233 1.749l2.92 3.463a1.886 1.886 0 0 0 2.882 0l2.92-3.462a1.625 1.625 0 0 0 .234-1.749 1.633 1.633 0 0 0-1.496-.954Zm.115 1.735-2.92 3.462a.384.384 0 0 1-.295.136.383.383 0 0 1-.295-.136l-2.92-3.462c-.014-.017-.058-.069-.021-.15a.14.14 0 0 1 .137-.085h6.197c.064 0 .11.029.137.085.037.082-.006.133-.02.15Z"/></svg>