<svg xmlns="http://www.w3.org/2000/svg" width="24" height="24" fill="none"><path fill="currentColor" d="M12 1.25C6.072 1.25 1.25 6.072 1.25 12S6.072 22.75 12 22.75 22.75 17.928 22.75 12 17.928 1.25 12 1.25m0 20c-5.101 0-9.25-4.149-9.25-9.25S6.899 2.75 12 2.75s9.25 4.149 9.25 9.25-4.149 9.25-9.25 9.25m1.44-12.498c-.718-.85-2.163-.85-2.882 0l-2.92 3.462a1.625 1.625 0 0 0-.234 1.749c.273.588.847.954 1.497.954h6.197c.65 0 1.224-.365 1.497-.954a1.625 1.625 0 0 0-.234-1.748zm1.795 4.58c-.026.056-.072.084-.137.084H8.9a.142.142 0 0 1-.137-.085.129.129 0 0 1 .02-.15l2.921-3.461A.384.384 0 0 1 12 9.584c.067 0 .195.018.295.136l2.92 3.463a.128.128 0 0 1 .02.148Z"/></svg>