<svg xmlns="http://www.w3.org/2000/svg" width="24" height="24" fill="none"><path fill="currentColor" d="M12 1.25C6.072 1.25 1.25 6.072 1.25 12S6.072 22.75 12 22.75 22.75 17.928 22.75 12 17.928 1.25 12 1.25m0 20c-5.101 0-9.25-4.149-9.25-9.25S6.899 2.75 12 2.75s9.25 4.149 9.25 9.25-4.149 9.25-9.25 9.25m1.964-13.846a1.628 1.628 0 0 0-1.749.234l-3.462 2.919a1.88 1.88 0 0 0-.67 1.442c0 .558.244 1.083.67 1.44l3.462 2.921a1.632 1.632 0 0 0 1.75.235c.587-.273.952-.847.952-1.497V8.9c0-.65-.365-1.223-.953-1.497Zm-.547 7.695a.14.14 0 0 1-.085.137c-.084.04-.133-.006-.15-.02L9.72 12.294a.383.383 0 0 1 0-.589l3.462-2.92c.013-.01.042-.035.088-.035.018 0 .039.004.062.015.057.026.085.072.085.137z"/></svg>