<svg xmlns="http://www.w3.org/2000/svg" width="24" height="24" fill="none"><path fill="currentColor" d="M17.625 2.25H6.375c-2.66 0-4.125 1.465-4.125 4.125v11.25c0 2.66 1.465 4.125 4.125 4.125h11.25c2.66 0 4.125-1.465 4.125-4.125V6.375c0-2.66-1.465-4.125-4.125-4.125m2.625 15.375c0 1.84-.785 2.625-2.625 2.625H6.375c-1.84 0-2.625-.785-2.625-2.625V6.375c0-1.84.785-2.625 2.625-2.625h11.25c1.84 0 2.625.785 2.625 2.625zm-6.81-8.873c-.718-.85-2.163-.85-2.882 0l-2.92 3.462a1.625 1.625 0 0 0-.234 1.749c.273.588.847.954 1.497.954h6.197c.65 0 1.224-.365 1.497-.954a1.625 1.625 0 0 0-.234-1.748l-2.92-3.463Zm1.795 4.58c-.026.056-.072.084-.137.084H8.9a.142.142 0 0 1-.137-.085.129.129 0 0 1 .02-.15l2.921-3.461A.384.384 0 0 1 12 9.584c.067 0 .195.018.295.136l2.92 3.463a.128.128 0 0 1 .02.148Z"/></svg>