<svg xmlns="http://www.w3.org/2000/svg" width="24" height="24" fill="none"><path fill="currentColor" d="M21.53 8.19c-.88-.88-2.67-1.63-4.25-1.47.16-1.58-.59-3.37-1.47-4.25a.754.754 0 0 0-1.06 0c-.89.89-1.66 2.73-1.46 4.33-1.61-.33-3.36.12-4.62 1.37-.08.08-.14.15-.22.23 0 0-.02.01-.03.02-.01.01-.01.02-.02.03-2.13 2.16-3.65 4.28-4.69 6.64 0 .01 0 .02-.01.03-.63 1.42-1.09 2.92-1.41 4.56-.11.57.07 1.15.48 1.56a1.727 1.727 0 0 0 1.55.48c3-.58 5.52-1.64 7.92-3.32.03-.02.07-.04.1-.06v-.01a25.98 25.98 0 0 0 3.49-2.99 5.096 5.096 0 0 0 1.37-4.62c.17.02.34.04.52.04 1.46 0 3.01-.7 3.81-1.5.29-.29.29-.77 0-1.06v-.01ZM15.28 4.3c.36.69.63 1.62.5 2.4-.07.41-.23.72-.5.95-.27-.23-.43-.55-.5-.95-.13-.78.14-1.71.5-2.4Zm-.52 9.98c-.97.98-1.93 1.81-2.89 2.54l-2.34-2.34a.754.754 0 0 0-1.06 0c-.29.29-.29.77 0 1.06l2.15 2.15c-2 1.27-4.1 2.08-6.59 2.56-.1.02-.17-.03-.21-.06a.23.23 0 0 1-.06-.21c.23-1.16.53-2.23.9-3.25l.81.81c.15.15.34.22.53.22s.38-.07.53-.22c.29-.29.29-.77 0-1.06l-1.24-1.24c.87-1.82 2.06-3.49 3.67-5.21l1.5 1.5c.15.15.34.22.53.22s.38-.07.53-.22c.29-.29.29-.77 0-1.06l-1.49-1.49c.65-.51 1.43-.79 2.22-.79.91 0 1.82.35 2.51 1.04 1.38 1.38 1.38 3.65 0 5.05Zm2.53-5.06c-.41-.07-.72-.23-.95-.5.23-.27.55-.43.95-.5.78-.13 1.71.14 2.41.5-.69.36-1.63.63-2.4.5h-.01Z"/></svg>