<svg xmlns="http://www.w3.org/2000/svg" width="24" height="24" fill="none"><path fill="currentColor" d="M21 20.25h-1.315l-.876-9.635A2.744 2.744 0 0 0 20.75 8V3.5c0-.689-.561-1.25-1.25-1.25h-2c-.689 0-1.25.561-1.25 1.25V5a.75.75 0 0 1-1.5 0V3.5c0-.689-.561-1.25-1.25-1.25h-3c-.689 0-1.25.561-1.25 1.25V5a.75.75 0 0 1-1.5 0V3.5c0-.689-.561-1.25-1.25-1.25h-2c-.689 0-1.25.561-1.25 1.25V8c0 1.233.821 2.267 1.941 2.615l-.876 9.635H3a.75.75 0 0 0 0 1.5h7a.75.75 0 0 0 .75-.75v-4c0-.689.561-1.25 1.25-1.25s1.25.561 1.25 1.25v4c0 .414.336.75.75.75h7a.75.75 0 0 0 0-1.5ZM4.75 8V3.75h1.5V5c0 1.241 1.01 2.25 2.25 2.25S10.75 6.241 10.75 5V3.75h2.5V5c0 1.241 1.01 2.25 2.25 2.25S17.75 6.241 17.75 5V3.75h1.5V8c0 .689-.561 1.25-1.25 1.25H6c-.689 0-1.25-.561-1.25-1.25ZM12 14.25A2.752 2.752 0 0 0 9.25 17v3.25H5.821l.863-9.5h10.63l.864 9.5h-3.429V17A2.75 2.75 0 0 0 12 14.25Z"/></svg>