<svg xmlns="http://www.w3.org/2000/svg" width="24" height="24" fill="none"><path fill="currentColor" d="M21.75 20a.75.75 0 0 1-.75.75H4.5c-1.409 0-2.25-.841-2.25-2.25V4a.75.75 0 0 1 1.5 0v14.5c0 .589.161.75.75.75H21a.75.75 0 0 1 .75.75ZM9.145 6.205a2.007 2.007 0 0 0 2.836 0l1.15-1.15a.512.512 0 0 1 .714 0L16.19 7.4H15a.75.75 0 0 0 0 1.5h3a.75.75 0 0 0 .75-.75V5a.75.75 0 0 0-1.5 0v1.339l-2.345-2.345a2.005 2.005 0 0 0-2.835 0l-1.15 1.15a.514.514 0 0 1-.715 0L8.53 3.47a.75.75 0 0 0-1.061 1.06l1.676 1.675ZM12.25 12v4a.75.75 0 0 0 1.5 0v-4a.75.75 0 0 0-1.5 0ZM8 16.75a.75.75 0 0 0 .75-.75v-6a.75.75 0 0 0-1.5 0v6c0 .414.336.75.75.75Zm10-3.5a.75.75 0 0 0-.75.75v2a.75.75 0 0 0 1.5 0v-2a.75.75 0 0 0-.75-.75Z"/></svg>