<svg xmlns="http://www.w3.org/2000/svg" width="24" height="24" fill="none"><path fill="currentColor" d="M21.75 20a.75.75 0 0 1-.75.75H4.5c-1.409 0-2.25-.841-2.25-2.25V4a.75.75 0 0 1 1.5 0v14.5c0 .589.161.75.75.75H21a.75.75 0 0 1 .75.75Zm-9.5-8v4a.75.75 0 0 0 1.5 0v-4a.75.75 0 0 0-1.5 0ZM18 9.25a.75.75 0 0 0-.75.75v6a.75.75 0 0 0 1.5 0v-6a.75.75 0 0 0-.75-.75Zm-10 7.5a.75.75 0 0 0 .75-.75v-2a.75.75 0 0 0-1.5 0v2c0 .414.336.75.75.75ZM8 8.9a.744.744 0 0 0 .53-.22l1.675-1.675a.524.524 0 0 1 .715 0l1.15 1.15a2.005 2.005 0 0 0 2.835 0L17.25 5.81V7a.75.75 0 0 0 1.5 0V4a.75.75 0 0 0-.463-.693.75.75 0 0 0-.287-.058h-3a.75.75 0 0 0 0 1.5h1.189l-2.345 2.345a.512.512 0 0 1-.714 0l-1.15-1.15a2.007 2.007 0 0 0-2.836 0L7.469 7.619A.75.75 0 0 0 8 8.9Z"/></svg>