<svg xmlns="http://www.w3.org/2000/svg" width="24" height="24" fill="none"><path fill="currentColor" d="M21.75 20a.75.75 0 0 1-.75.75H4.5c-1.409 0-2.25-.841-2.25-2.25V4a.75.75 0 0 1 1.5 0v14.5c0 .589.161.75.75.75H21a.75.75 0 0 1 .75.75M7 16.75a.75.75 0 0 0 .75-.75v-3a.75.75 0 0 0-1.5 0v3c0 .414.336.75.75.75m4 0a.75.75 0 0 0 .75-.75V9a.75.75 0 0 0-1.5 0v7c0 .414.336.75.75.75m4 0a.75.75 0 0 0 .75-.75v-5a.75.75 0 0 0-1.5 0v5c0 .414.336.75.75.75m4 0a.75.75 0 0 0 .75-.75V5a.75.75 0 0 0-1.5 0v11c0 .414.336.75.75.75"/></svg>