<svg xmlns="http://www.w3.org/2000/svg" width="24" height="24" fill="none"><path fill="currentColor" d="M21.75 21a.75.75 0 0 1-.75.75H3a.75.75 0 0 1 0-1.5h18a.75.75 0 0 1 .75.75m-12.5-4.5v-12c0-1.409.841-2.25 2.25-2.25h1c1.409 0 2.25.841 2.25 2.25v12c0 1.409-.841 2.25-2.25 2.25h-1c-1.409 0-2.25-.841-2.25-2.25m1.5 0c0 .589.161.75.75.75h1c.589 0 .75-.161.75-.75v-12c0-.589-.161-.75-.75-.75h-1c-.589 0-.75.161-.75.75zm11-8v8c0 1.409-.841 2.25-2.25 2.25h-1c-1.409 0-2.25-.841-2.25-2.25v-8c0-1.409.841-2.25 2.25-2.25h1c1.409 0 2.25.841 2.25 2.25m-1.5 0c0-.589-.161-.75-.75-.75h-1c-.589 0-.75.161-.75.75v8c0 .589.161.75.75.75h1c.589 0 .75-.161.75-.75zm-18 8v-5c0-1.409.841-2.25 2.25-2.25h1c1.409 0 2.25.841 2.25 2.25v5c0 1.409-.841 2.25-2.25 2.25h-1c-1.409 0-2.25-.841-2.25-2.25m1.5 0c0 .589.161.75.75.75h1c.589 0 .75-.161.75-.75v-5c0-.589-.161-.75-.75-.75h-1c-.589 0-.75.161-.75.75z"/></svg>