<svg xmlns="http://www.w3.org/2000/svg" width="24" height="24" fill="none"><path fill="currentColor" d="M21.733 9.769c-.542-3.875-3.627-6.96-7.502-7.501A1.751 1.751 0 0 0 12.249 4v6.008c0 .96.781 1.742 1.742 1.742H20a1.751 1.751 0 0 0 1.733-1.982Zm-1.544.393a.248.248 0 0 1-.189.088h-6.008a.242.242 0 0 1-.242-.242V4c0-.1.055-.162.088-.19a.233.233 0 0 1 .185-.058h.001a7.337 7.337 0 0 1 6.223 6.224.228.228 0 0 1-.058.186m-2.145 2.495h-5.951a.75.75 0 0 1-.75-.75V5.956c0-.515-.229-.998-.628-1.325a1.668 1.668 0 0 0-1.388-.35A8.884 8.884 0 0 0 3.705 8.08c-1.305 1.977-1.752 4.369-1.259 6.734.695 3.335 3.403 6.043 6.739 6.739a9.21 9.21 0 0 0 1.881.196c1.725 0 3.4-.496 4.853-1.455a8.882 8.882 0 0 0 3.798-5.621 1.663 1.663 0 0 0-.348-1.388 1.708 1.708 0 0 0-1.325-.628m-2.951 6.386c-1.641 1.084-3.632 1.455-5.601 1.042-2.761-.576-5.002-2.817-5.577-5.577-.411-1.971-.041-3.96 1.042-5.602a7.37 7.37 0 0 1 4.665-3.153.165.165 0 0 1 .141.039.211.211 0 0 1 .079.164v5.95c0 1.242 1.01 2.25 2.25 2.25h5.951c.09 0 .145.056.164.08a.17.17 0 0 1 .038.143 7.365 7.365 0 0 1-3.152 4.664"/></svg>