<svg xmlns="http://www.w3.org/2000/svg" width="24" height="24" fill="none"><path fill="currentColor" d="M12.751 20.998a.75.75 0 0 1-.75.75c-1.4 0-2.809-.311-4.075-.9-.248-.118-.557-.127-.875-.025l-2.489.836a1.745 1.745 0 0 1-1.794-.425 1.743 1.743 0 0 1-.427-1.792l.84-2.501c.099-.307.09-.615-.025-.858A9.74 9.74 0 0 1 2.254 12c0-5.375 4.373-9.749 9.748-9.749 5.376 0 9.749 4.373 9.749 9.749 0 .371-.02.73-.065 1.09a.75.75 0 1 1-1.488-.181c.036-.3.054-.6.054-.909 0-4.548-3.7-8.249-8.25-8.249-4.547 0-8.247 3.7-8.247 8.249a8.23 8.23 0 0 0 .76 3.444c.276.581.312 1.28.095 1.963l-.844 2.511a.242.242 0 0 0 .064.256.243.243 0 0 0 .257.064l2.498-.839c.694-.221 1.395-.187 1.98.094a8.218 8.218 0 0 0 3.438.757.746.746 0 0 1 .748.748m7.719-3.862-2.803 2.803-1.137-1.136a.75.75 0 1 0-1.061 1.061l1.667 1.667a.748.748 0 0 0 1.06 0l3.333-3.333a.75.75 0 0 0-1.059-1.062M12.02 11h-.01a.996.996 0 0 0-.995 1c0 .552.453 1 1.005 1a1 1 0 1 0 0-2m4 2a1 1 0 1 0 0-2h-.01a.996.996 0 0 0-.995 1c0 .552.453 1 1.005 1m-8.01-2a.996.996 0 0 0-.995 1c0 .552.453 1 1.005 1a1 1 0 1 0 0-2z"/></svg>