<svg xmlns="http://www.w3.org/2000/svg" width="24" height="24" fill="none"><path fill="currentColor" d="M4.005 21.749c-.457 0-.9-.18-1.237-.516a1.743 1.743 0 0 1-.427-1.792l.84-2.501c.099-.307.09-.615-.025-.858a9.74 9.74 0 0 1-.902-4.083c0-5.375 4.373-9.749 9.748-9.749 5.376 0 9.749 4.373 9.749 9.749s-4.373 9.749-9.749 9.749a9.727 9.727 0 0 1-4.075-.9c-.249-.119-.558-.127-.875-.026l-2.489.836a1.781 1.781 0 0 1-.558.091M12 3.75c-4.548 0-8.248 3.7-8.248 8.249a8.23 8.23 0 0 0 .76 3.444c.276.581.312 1.28.095 1.963l-.844 2.511a.242.242 0 0 0 .064.256.244.244 0 0 0 .257.064l2.498-.839c.694-.221 1.395-.187 1.982.094a8.21 8.21 0 0 0 3.436.757c4.549 0 8.249-3.7 8.249-8.249S16.549 3.75 12 3.75m.734 13h-1.527a.902.902 0 0 1-.903-.899.577.577 0 0 0-.302-.5.66.66 0 0 0-.643-.001.902.902 0 0 1-1.22-.324l-.765-1.282a.903.903 0 0 1-.096-.687.908.908 0 0 1 .428-.552c.19-.107.307-.3.306-.504a.582.582 0 0 0-.304-.502.894.894 0 0 1-.333-1.24l.764-1.283a.909.909 0 0 1 1.22-.323.657.657 0 0 0 .643-.002.58.58 0 0 0 .303-.5c0-.496.405-.899.904-.899h1.524c.499 0 .904.404.904.899a.58.58 0 0 0 .303.5.66.66 0 0 0 .644.001l.134-.074a.75.75 0 0 1 1.01.271l.916 1.538a.748.748 0 0 1-.276 1.037l-.133.075a.584.584 0 0 0-.304.503c0 .205.116.397.304.503a.89.89 0 0 1 .428.548.888.888 0 0 1-.091.685l-.769 1.29a.912.912 0 0 1-1.22.323.657.657 0 0 0-.643.002.58.58 0 0 0-.303.5.901.901 0 0 1-.903.897m-1.02-1.5h.515c.154-.502.5-.938.976-1.206a2.172 2.172 0 0 1 1.566-.217l.237-.398a2.068 2.068 0 0 1-.577-1.427 2.069 2.069 0 0 1 .577-1.431l-.236-.398a2.167 2.167 0 0 1-1.567-.217 2.097 2.097 0 0 1-.976-1.206h-.515c-.154.502-.5.938-.976 1.206-.478.27-1.04.341-1.566.217l-.237.398c.365.381.577.889.578 1.424a2.064 2.064 0 0 1-.578 1.435l.237.397a2.165 2.165 0 0 1 1.566.217c.476.268.822.704.976 1.206m3.6-1.211.004.002zm-6.69-4.08.004.002zM13.02 12a1 1 0 0 0-1-1h-.01a.996.996 0 0 0-.995 1c0 .552.453 1 1.005 1a1 1 0 0 0 1-1"/></svg>