<svg xmlns="http://www.w3.org/2000/svg" width="24" height="24" fill="none"><path fill="currentColor" d="M12.001 2.25c-5.375 0-9.748 4.373-9.748 9.749 0 1.4.311 2.809.902 4.083.115.243.124.551.026.858l-.84 2.501a1.743 1.743 0 0 0 .426 1.792 1.745 1.745 0 0 0 1.794.425l2.49-.836c.317-.101.626-.093.874.026a9.73 9.73 0 0 0 4.075.9c5.376 0 9.749-4.373 9.749-9.749S17.377 2.25 12.001 2.25m0 17.998a8.214 8.214 0 0 1-3.436-.757c-.589-.281-1.288-.315-1.982-.094l-2.498.839a.244.244 0 0 1-.257-.064.242.242 0 0 1-.064-.256l.844-2.511c.217-.683.182-1.382-.095-1.963a8.227 8.227 0 0 1-.76-3.444c0-4.548 3.7-8.249 8.248-8.249 4.549 0 8.249 3.7 8.249 8.249s-3.7 8.25-8.249 8.25M12 7.25A4.756 4.756 0 0 0 7.25 12 4.756 4.756 0 0 0 12 16.75 4.756 4.756 0 0 0 16.75 12 4.756 4.756 0 0 0 12 7.25m0 8A3.254 3.254 0 0 1 8.75 12 3.254 3.254 0 0 1 12 8.75 3.254 3.254 0 0 1 15.25 12 3.254 3.254 0 0 1 12 15.25m1.53-2.78a.75.75 0 0 1-1.06 1.061l-1-1a.749.749 0 0 1-.22-.53v-1.5a.75.75 0 0 1 1.5 0v1.189z"/></svg>