<svg xmlns="http://www.w3.org/2000/svg" width="24" height="24" fill="none"><path fill="currentColor" d="M21.022 17.798c-.047-.146-.084-.363.007-.561a7.71 7.71 0 0 0 .72-3.237c0-3.059-1.854-5.847-4.636-7.07-1.191-2.75-3.93-4.68-7.112-4.68-4.272 0-7.75 3.476-7.75 7.749 0 1.113.248 2.233.72 3.246a.762.762 0 0 1 .013.543l-.654 1.946a1.52 1.52 0 0 0 .372 1.564 1.524 1.524 0 0 0 1.566.371l1.933-.65c.207-.066.402-.062.56.012.05.023.105.039.155.062 1.222 2.792 4.018 4.656 7.085 4.656a7.709 7.709 0 0 0 3.232-.718c.202-.093.42-.056.56-.011l1.944.651a1.527 1.527 0 0 0 1.563-.374c.411-.412.554-1.01.37-1.567zM6.487 15.474c-.247 0-.501.04-.754.121l-1.981.615.657-1.956c.182-.571.15-1.159-.082-1.648a6.236 6.236 0 0 1-.575-2.608A6.256 6.256 0 0 1 10 3.749a6.256 6.256 0 0 1 6.249 6.249A6.256 6.256 0 0 1 10 16.247a6.232 6.232 0 0 1-2.601-.572 2.115 2.115 0 0 0-.912-.201m13.112 2.794.609 1.98-1.946-.652a2.278 2.278 0 0 0-1.658.073 6.215 6.215 0 0 1-2.604.58 6.19 6.19 0 0 1-5.05-2.583c.349.048.7.081 1.05.081 4.273 0 7.75-3.476 7.75-7.749 0-.35-.031-.692-.077-1.03 1.579 1.158 2.577 3.021 2.577 5.031 0 .889-.2 1.789-.582 2.608-.23.502-.255 1.09-.069 1.661M6.249 8.5A.75.75 0 0 1 7 7.75h6a.75.75 0 0 1 0 1.5H7a.75.75 0 0 1-.75-.75ZM10 12.25H7a.75.75 0 0 1 0-1.5h3a.75.75 0 0 1 0 1.5"/></svg>