<svg xmlns="http://www.w3.org/2000/svg" width="24" height="24" fill="none"><path fill="currentColor" d="M12.001 2.25c-5.375 0-9.748 4.373-9.748 9.749 0 1.4.311 2.809.902 4.083.115.243.124.551.026.858l-.84 2.501a1.743 1.743 0 0 0 .426 1.792 1.745 1.745 0 0 0 1.794.425l2.49-.836c.316-.101.626-.093.874.026a9.73 9.73 0 0 0 4.075.9c5.376 0 9.749-4.373 9.749-9.749S17.377 2.25 12.001 2.25m0 17.998a8.214 8.214 0 0 1-3.436-.757c-.589-.281-1.288-.315-1.982-.094l-2.498.839a.244.244 0 0 1-.257-.064.242.242 0 0 1-.064-.256l.844-2.511c.217-.683.182-1.382-.095-1.963a8.227 8.227 0 0 1-.76-3.444c0-4.548 3.7-8.249 8.248-8.249 4.549 0 8.249 3.7 8.249 8.249s-3.7 8.25-8.249 8.25m3.684-11.7c-1.76-.447-2.582-.83-3.336-1.216a.754.754 0 0 0-.68-.002c-.762.384-1.593.771-3.376 1.282a.75.75 0 0 0-.543.721v2.222c0 2.8 2.071 4.499 4.01 5.155a.76.76 0 0 0 .48 0c1.938-.656 4.01-2.355 4.01-5.155v-2.28a.75.75 0 0 0-.565-.727m-.935 3.008c0 2.296-1.958 3.323-2.75 3.644-.792-.321-2.75-1.348-2.75-3.644V9.894c1.209-.368 1.988-.685 2.755-1.056.755.367 1.549.684 2.745 1.015z"/></svg>