<svg xmlns="http://www.w3.org/2000/svg" width="24" height="24" fill="none"><path fill="currentColor" d="M4.005 21.749c-.457 0-.9-.18-1.237-.516a1.743 1.743 0 0 1-.427-1.792l.84-2.501c.099-.307.09-.615-.025-.858a9.74 9.74 0 0 1-.902-4.083c0-5.375 4.373-9.749 9.748-9.749.37 0 .73.022 1.09.065a.75.75 0 0 1-.18 1.489 7.413 7.413 0 0 0-.91-.055c-4.548 0-8.248 3.7-8.248 8.249a8.23 8.23 0 0 0 .76 3.444c.276.581.312 1.28.095 1.963l-.844 2.511a.242.242 0 0 0 .064.256.243.243 0 0 0 .257.064l2.498-.839c.694-.221 1.394-.187 1.982.094a8.21 8.21 0 0 0 3.436.757c4.549 0 8.249-3.7 8.249-8.249 0-.309-.018-.609-.054-.91a.75.75 0 1 1 1.488-.181c.044.36.065.719.065 1.09 0 5.375-4.373 9.749-9.749 9.749a9.727 9.727 0 0 1-4.075-.9c-.248-.119-.557-.127-.875-.026l-2.489.836a1.744 1.744 0 0 1-.557.092M21.75 5A2.753 2.753 0 0 0 19 2.25 2.753 2.753 0 0 0 16.25 5 2.753 2.753 0 0 0 19 7.75 2.753 2.753 0 0 0 21.75 5m-1.5 0c0 .689-.561 1.25-1.25 1.25S17.75 5.689 17.75 5s.561-1.25 1.25-1.25 1.25.561 1.25 1.25m-7.23 7a1 1 0 0 0-1-1h-.01a.996.996 0 0 0-.995 1c0 .552.453 1 1.005 1a1 1 0 0 0 1-1m4 0a1 1 0 0 0-1-1h-.01a.996.996 0 0 0-.995 1c0 .552.453 1 1.005 1a1 1 0 0 0 1-1m-8 0a1 1 0 0 0-1-1h-.01a.996.996 0 0 0-.995 1c0 .552.453 1 1.005 1a1 1 0 0 0 1-1"/></svg>