<svg xmlns="http://www.w3.org/2000/svg" width="24" height="24" fill="none"><path fill="currentColor" d="M16.03 9.136a.75.75 0 0 1 0 1.061l-4.667 4.667a.748.748 0 0 1-1.06 0L7.97 12.531a.75.75 0 1 1 1.061-1.061l1.803 1.803 4.136-4.136a.75.75 0 0 1 1.06-.001Zm5.72-2.761v11.25c0 2.66-1.465 4.125-4.125 4.125H6.375c-2.66 0-4.125-1.465-4.125-4.125V6.375c0-2.66 1.465-4.125 4.125-4.125h11.25c2.66 0 4.125 1.465 4.125 4.125Zm-1.5 0c0-1.84-.785-2.625-2.625-2.625H6.375c-1.84 0-2.625.785-2.625 2.625v11.25c0 1.84.785 2.625 2.625 2.625h11.25c1.84 0 2.625-.785 2.625-2.625V6.375Z"/></svg>