<svg xmlns="http://www.w3.org/2000/svg" width="24" height="24" fill="none"><path fill="currentColor" d="M17.5 21.75H6.25c-2.66 0-4.125-1.465-4.125-4.125V6.375c0-2.66 1.465-4.125 4.125-4.125H17.5c2.66 0 4.125 1.465 4.125 4.125v11.25c0 2.66-1.465 4.125-4.125 4.125m-11.25-18c-1.84 0-2.625.785-2.625 2.625v11.25c0 1.84.785 2.625 2.625 2.625H17.5c1.84 0 2.625-.785 2.625-2.625V6.375c0-1.84-.785-2.625-2.625-2.625zm9.375 15h-7.5c-1.906 0-3-1.093-3-3v-7.5c0-1.907 1.094-3 3-3h7.5c1.906 0 3 1.093 3 3v7.5c0 1.907-1.094 3-3 3m-7.5-12c-1.079 0-1.5.42-1.5 1.5v7.5c0 1.08.421 1.5 1.5 1.5h7.5c1.079 0 1.5-.42 1.5-1.5v-7.5c0-1.08-.421-1.5-1.5-1.5z"/></svg>