<svg xmlns="http://www.w3.org/2000/svg" width="24" height="24" fill="none"><path fill="currentColor" d="M18.02 15c0 .55-.45 1-1 1s-1-.45-1-1 .44-1 1-1c.55 0 1 .45 1 1m-5 1.25c-.41 0-.75.34-.75.75s.34.75.75.75.75-.34.75-.75-.33-.75-.75-.75m-5-1.5c-.69 0-1.25.56-1.25 1.25s.57 1.25 1.25 1.25 1.25-.56 1.25-1.25-.56-1.25-1.25-1.25M21.75 12v6c0 1.52-1.23 2.75-2.75 2.75H5c-1.52 0-2.75-1.23-2.75-2.75v-5.22c0-.73.36-1.42.95-1.84l10.36-7.31c.56-.39 1.25-.49 1.86-.26a9.738 9.738 0 0 1 6.33 8.59zm-16.39-.75h14.79a8.225 8.225 0 0 0-5.26-6.47.401.401 0 0 0-.15-.03c-.11 0-.22.04-.32.11zM20.25 18v-5.25H3.76V18c0 .69.56 1.25 1.25 1.25h14c.69 0 1.25-.56 1.25-1.25z"/></svg>