<svg xmlns="http://www.w3.org/2000/svg" width="24" height="24" fill="none"><path fill="currentColor" d="M20 4a5.93 5.93 0 0 0-5.6-1.59 5.95 5.95 0 0 0-4.3 3.93l-1.22 3.67a3.69 3.69 0 0 0-.1 2L6.19 14.6c-.11.1-.25.13-.35.09-1-.48-2.4-.13-3.09.83-.49.67-.62 1.53-.35 2.35.31.92 1.09 1.55 2.06 1.68.09.66.44 1.26.98 1.67a2.56 2.56 0 0 0 2.25.42c.79-.22 1.45-.83 1.7-1.6.21-.6.2-1.23-.03-1.83-.05-.12-.06-.29.04-.4l2.61-2.6A3.598 3.598 0 0 0 14 15.1l3.67-1.22a5.95 5.95 0 0 0 3.93-4.3c.48-2.03-.12-4.12-1.59-5.6zM8.32 16.78c-.51.52-.65 1.31-.37 2 .1.26.1.52 0 .79-.1.3-.36.55-.67.63-.46.13-.79-.05-.95-.17-.26-.2-.41-.5-.41-.83 0-.62-.5-1.12-1.11-1.12-.48 0-.86-.25-1-.67-.16-.49.02-.84.14-1 .29-.39.78-.57 1.27-.34.68.28 1.47.13 2.01-.39l2.21-2.21c.1.14.22.27.34.39l.37.37c.13.13.27.23.41.33l-2.23 2.23zm11.81-7.52a4.45 4.45 0 0 1-2.94 3.22l-3.67 1.22c-.82.27-1.7.06-2.3-.54l-.37-.37a2.23 2.23 0 0 1-.54-2.3l1.22-3.67a4.45 4.45 0 0 1 3.22-2.94c.35-.08.7-.12 1.04-.12 1.17 0 2.3.46 3.15 1.31a4.441 4.441 0 0 1 1.19 4.2z"/></svg>