<svg xmlns="http://www.w3.org/2000/svg" width="24" height="24" fill="none"><path fill="currentColor" d="M3.13 20.87a.975.975 0 0 1-.7-.3.995.995 0 0 1-.28-.9.7.7 0 0 1 .061-.19c.02-.06.06-.12.09-.17.04-.05.08-.1.13-.15.37-.37 1.04-.37 1.41 0 .18.18.29.44.29.71 0 .13-.021.26-.07.38-.05.12-.13.23-.22.32-.192.19-.442.3-.711.3Zm3.595-.25a.752.752 0 0 0 .642-.845 4.799 4.799 0 0 0-1.38-2.762 4.798 4.798 0 0 0-2.762-1.379.758.758 0 0 0-.845.64.75.75 0 0 0 .642.846 3.32 3.32 0 0 1 1.904.954c.526.526.855 1.185.954 1.905a.75.75 0 0 0 .845.641Zm3.332.128a.749.749 0 0 0 .691-.804 8.346 8.346 0 0 0-2.423-5.269 8.345 8.345 0 0 0-5.269-2.423.75.75 0 1 0-.114 1.496 6.85 6.85 0 0 1 4.32 1.988 6.842 6.842 0 0 1 1.988 4.32.75.75 0 0 0 .747.694c.022 0 .04 0 .06-.002ZM21.75 17V8c0-2.418-1.332-3.75-3.75-3.75H6C3.582 4.25 2.25 5.582 2.25 8v1a.75.75 0 0 0 1.5 0V8c0-1.577.673-2.25 2.25-2.25h12c1.577 0 2.25.673 2.25 2.25v9c0 1.577-.673 2.25-2.25 2.25h-4a.75.75 0 0 0 0 1.5h4c2.418 0 3.75-1.332 3.75-3.75Z"/></svg>