<svg xmlns="http://www.w3.org/2000/svg" width="24" height="24" fill="none"><path fill="currentColor" d="M18 20.75H6c-2.418 0-3.75-1.332-3.75-3.75V7c0-2.418 1.332-3.75 3.75-3.75h12c2.418 0 3.75 1.332 3.75 3.75v10c0 2.418-1.332 3.75-3.75 3.75Zm-12-16c-1.577 0-2.25.673-2.25 2.25v10c0 1.577.673 2.25 2.25 2.25h12c1.577 0 2.25-.673 2.25-2.25V7c0-1.577-.673-2.25-2.25-2.25H6Zm11.75 8h-1.5a1.001 1.001 0 0 1-2 0v-1.5a1.001 1.001 0 0 1 2 0h1.5c0-1.378-1.121-2.5-2.5-2.5a2.503 2.503 0 0 0-2.5 2.5v1.5c0 1.378 1.121 2.5 2.5 2.5s2.5-1.122 2.5-2.5Zm-6.5 0h-1.5a1.001 1.001 0 0 1-2 0v-1.5a1.001 1.001 0 0 1 2 0h1.5c0-1.378-1.121-2.5-2.5-2.5a2.503 2.503 0 0 0-2.5 2.5v1.5c0 1.378 1.121 2.5 2.5 2.5s2.5-1.122 2.5-2.5Z"/></svg>