<svg xmlns="http://www.w3.org/2000/svg" width="24" height="24" fill="none"><path fill="currentColor" d="M22.75 13A5.756 5.756 0 0 1 17 18.75h-4a.75.75 0 0 1 0-1.5h4A4.254 4.254 0 0 0 21.25 13 4.254 4.254 0 0 0 17 8.75a4.44 4.44 0 0 0-.831.077.745.745 0 0 1-.776-.343 6.015 6.015 0 0 0-1.104-1.306A5.706 5.706 0 0 0 10.5 5.75a5.717 5.717 0 0 0-4.838 2.654.75.75 0 1 1-1.264-.807A7.21 7.21 0 0 1 10.5 4.251c1.771 0 3.472.642 4.787 1.809.42.376.79.785 1.104 1.222A5.754 5.754 0 0 1 22.75 13Zm-15.627.719-1.747.873a2.104 2.104 0 0 1 0 .814l1.747.873a2.07 2.07 0 0 1 1.544-.697c1.148 0 2.083.935 2.083 2.083a2.085 2.085 0 0 1-2.083 2.083 2.085 2.085 0 0 1-2.082-2.061l-2.026-1.013a2.064 2.064 0 0 1-1.226.407 2.086 2.086 0 0 1-2.083-2.083c0-1.148.935-2.083 2.083-2.083.46 0 .881.154 1.226.407l2.026-1.013a2.085 2.085 0 0 1 2.082-2.061c1.148 0 2.083.935 2.083 2.083a2.085 2.085 0 0 1-2.083 2.083 2.056 2.056 0 0 1-1.544-.695Zm.96-1.386a.584.584 0 1 0 1.168-.002.584.584 0 0 0-1.168.002Zm-4.75 3.25A.584.584 0 0 0 3.917 15a.584.584 0 0 0-1.167 0c0 .321.262.583.583.583Zm4.75 2.084a.584.584 0 1 0 1.168-.002.584.584 0 0 0-1.168.002Z"/></svg>