<svg xmlns="http://www.w3.org/2000/svg" width="24" height="24" fill="none"><path fill="currentColor" d="M15.97 8.25c-.205 0-.407.01-.607.031a7.24 7.24 0 0 0-5.892-3.03c-3.998 0-7.25 3.252-7.25 7.25s3.252 7.25 7.25 7.25h6.5a5.756 5.756 0 0 0 5.75-5.75A5.758 5.758 0 0 0 15.97 8.25m0 10h-6.5a5.756 5.756 0 0 1-5.75-5.75 5.756 5.756 0 0 1 5.75-5.75 5.737 5.737 0 0 1 4.892 2.734.746.746 0 0 0 .777.344c.276-.052.549-.077.831-.077a4.254 4.254 0 0 1 4.25 4.25 4.254 4.254 0 0 1-4.25 4.249m-1.22-4.75a.75.75 0 0 1-.75.75h-1.25v1.25a.75.75 0 0 1-1.5 0v-1.25H10a.75.75 0 0 1 0-1.5h1.25V11.5a.75.75 0 0 1 1.5 0v1.25H14a.75.75 0 0 1 .75.75"/></svg>