<svg xmlns="http://www.w3.org/2000/svg" width="24" height="24" fill="none"><path fill="currentColor" d="M21.75 11a5.762 5.762 0 0 1-4.602 5.635.75.75 0 0 1-.296-1.47A4.255 4.255 0 0 0 20.25 11 4.254 4.254 0 0 0 16 6.75a4.44 4.44 0 0 0-.831.077.747.747 0 0 1-.776-.343 6.015 6.015 0 0 0-1.104-1.306A5.706 5.706 0 0 0 9.5 3.75 5.756 5.756 0 0 0 3.75 9.5a5.737 5.737 0 0 0 3.54 5.308.75.75 0 0 1-.58 1.384A7.232 7.232 0 0 1 2.25 9.5c0-3.998 3.252-7.25 7.25-7.25 1.771 0 3.472.642 4.787 1.809.42.376.79.785 1.104 1.222A5.756 5.756 0 0 1 21.75 11m-9.219-.53a.749.749 0 0 0-.817-.162.75.75 0 0 0-.244.162l-2 2a.75.75 0 1 0 1.061 1.061l.72-.72V21a.75.75 0 0 0 1.5 0v-8.189l.72.72a.748.748 0 0 0 1.06 0 .75.75 0 0 0 0-1.061z"/></svg>