<svg xmlns="http://www.w3.org/2000/svg" width="24" height="24" fill="none"><path fill="currentColor" d="M12 1.25C6.072 1.25 1.25 6.073 1.25 12S6.072 22.75 12 22.75 22.75 17.927 22.75 12 17.928 1.25 12 1.25m0 20c-5.101 0-9.25-4.149-9.25-9.25S6.899 2.75 12 2.75s9.25 4.149 9.25 9.25-4.149 9.25-9.25 9.25M9.752 10.308 8.061 12l1.692 1.692a.75.75 0 0 1-1.06 1.061l-2.222-2.222a.75.75 0 0 1 0-1.061l2.222-2.222a.75.75 0 1 1 1.059 1.06m7.778 1.162a.75.75 0 0 1 0 1.061l-2.222 2.222a.748.748 0 0 1-1.06 0 .75.75 0 0 1 0-1.061L15.94 12l-1.692-1.692a.75.75 0 1 1 1.061-1.061zm-3.802-3.288-2 8a.75.75 0 1 1-1.455-.364l2-8a.748.748 0 0 1 .91-.546.751.751 0 0 1 .545.91"/></svg>