<svg xmlns="http://www.w3.org/2000/svg" width="24" height="24" fill="none"><path fill="currentColor" d="M17.625 2.25H6.375c-2.66 0-4.125 1.465-4.125 4.125v11.25c0 2.66 1.465 4.125 4.125 4.125h11.25c2.66 0 4.125-1.465 4.125-4.125V6.375c0-2.66-1.465-4.125-4.125-4.125Zm2.625 15.375c0 1.84-.785 2.625-2.625 2.625H6.375c-1.84 0-2.625-.785-2.625-2.625V6.375c0-1.84.785-2.625 2.625-2.625h11.25c1.84 0 2.625.785 2.625 2.625v11.25ZM9.752 10.308 8.061 12l1.692 1.692a.75.75 0 0 1-1.06 1.061l-2.222-2.222a.75.75 0 0 1 0-1.061l2.222-2.222a.75.75 0 1 1 1.059 1.06Zm7.778 1.162a.75.75 0 0 1 0 1.061l-2.222 2.222a.748.748 0 0 1-1.06 0 .75.75 0 0 1 0-1.061L15.94 12l-1.692-1.692a.75.75 0 1 1 1.061-1.061l2.221 2.223Zm-3.802-3.288-2 8a.75.75 0 1 1-1.455-.364l2-8a.748.748 0 0 1 .91-.546.751.751 0 0 1 .545.91Z"/></svg>