<svg xmlns="http://www.w3.org/2000/svg" width="24" height="24" fill="none"><path fill="currentColor" d="m19.62 4.5-.01-.01c-.01-.02-.03-.03-.04-.05-3.39-3.39-9.54-2.75-13.71 1.42-4.17 4.17-4.8 10.32-1.42 13.71 1.47 1.47 3.45 2.18 5.56 2.18 2.78 0 5.78-1.23 8.15-3.59 4.15-4.15 4.79-10.25 1.47-13.65V4.5ZM6.92 6.92C9 4.84 11.62 3.75 14 3.75c1.66 0 3.2.53 4.37 1.62.15.62.05 1.26-.33 1.93-.95 1.7-3.45 3.3-6.2 3.98-3.2.79-6.01 2.63-7.16 4.7-.15.26-.26.52-.35.79-1.29-2.9-.34-6.92 2.6-9.85h-.01Zm10.17 10.17c-3.52 3.52-8.59 4.19-11.43 1.55-.15-.62-.05-1.27.32-1.93.94-1.69 3.44-3.29 6.21-3.97 3.18-.79 5.99-2.63 7.15-4.7.15-.26.26-.52.35-.79 1.28 2.9.32 6.91-2.61 9.84h.01Z"/></svg>