<svg xmlns="http://www.w3.org/2000/svg" width="24" height="24" fill="none"><path fill="currentColor" d="M12 4.25c-5.467 0-9.75 2.306-9.75 5.25v5c0 3.238 3.736 5.25 9.75 5.25 6.014 0 9.75-2.012 9.75-5.25v-5c0-2.944-4.283-5.25-9.75-5.25Zm0 1.5c4.862 0 8.25 1.976 8.25 3.75s-3.388 3.75-8.25 3.75-8.25-1.976-8.25-3.75S7.138 5.75 12 5.75Zm-.75 8.98v3.507c-1.187-.04-2.402-.178-3.5-.437v-3.564c1.068.273 2.246.445 3.5.494Zm1.5 0a16.836 16.836 0 0 0 3.5-.494V17.8c-1.098.258-2.313.396-3.5.437V14.73Zm-9-.23v-2.174c.656.562 1.504 1.047 2.5 1.434v3.571c-1.478-.595-2.5-1.507-2.5-2.831Zm14 2.831V13.76c.996-.387 1.844-.872 2.5-1.434V14.5c0 1.324-1.022 2.236-2.5 2.831Z"/></svg>