<svg xmlns="http://www.w3.org/2000/svg" width="24" height="24" fill="none"><path fill="currentColor" d="M3.001 11.8a.75.75 0 0 1-.747-.831 9.638 9.638 0 0 1 5.355-7.642.75.75 0 0 1 1.081.674v3.05a.75.75 0 0 1-1.5 0v-1.74a8.136 8.136 0 0 0-3.444 5.821.751.751 0 0 1-.745.668Zm18.08.405a.752.752 0 0 0-.826.664 8.137 8.137 0 0 1-3.445 5.822V16.95a.75.75 0 0 0-1.5 0V20a.75.75 0 0 0 1.081.673 9.631 9.631 0 0 0 5.354-7.642.749.749 0 0 0-.664-.826ZM11.25 7A4.756 4.756 0 0 1 16 2.25 4.756 4.756 0 0 1 20.75 7 4.756 4.756 0 0 1 16 11.75 4.756 4.756 0 0 1 11.25 7Zm1.5 0A3.254 3.254 0 0 0 16 10.25 3.254 3.254 0 0 0 19.25 7 3.254 3.254 0 0 0 16 3.75 3.254 3.254 0 0 0 12.75 7Zm0 10A4.756 4.756 0 0 1 8 21.75 4.756 4.756 0 0 1 3.25 17 4.756 4.756 0 0 1 8 12.25 4.756 4.756 0 0 1 12.75 17Zm-1.5 0A3.254 3.254 0 0 0 8 13.75 3.254 3.254 0 0 0 4.75 17 3.254 3.254 0 0 0 8 20.25 3.254 3.254 0 0 0 11.25 17Z"/></svg>