<svg xmlns="http://www.w3.org/2000/svg" width="24" height="24" fill="none"><path fill="currentColor" d="M12.75 20.003a.75.75 0 0 1-.75.75c-1.187 0-2.325-.161-3.394-.479-1.364 1.187-3.242 1.477-4.75 1.477a11.7 11.7 0 0 1-.423-.007 1.207 1.207 0 0 1-1.109-.815 1.221 1.221 0 0 1 .36-1.347c.932-.752 1.305-1.584 1.455-2.155-1.237-1.479-1.89-3.346-1.89-5.425 0-5.153 4.01-8.751 9.75-8.751 5.272 0 9.165 3.081 9.686 7.667.042.338.064.706.064 1.084a.75.75 0 0 1-1.5 0c0-.308-.018-.617-.054-.907C19.763 7.297 16.47 4.75 12 4.75c-4.857 0-8.25 2.982-8.25 7.251 0 1.836.605 3.462 1.751 4.702a.749.749 0 0 1 .19.625c-.168 1.071-.696 2.084-1.508 2.915 1.16-.042 2.72-.309 3.68-1.333a.749.749 0 0 1 .792-.196c1.035.358 2.16.54 3.345.54a.75.75 0 0 1 .751.75ZM21 16.75h-1.75V15a.75.75 0 0 0-1.5 0v1.75H16a.75.75 0 0 0 0 1.5h1.75V20a.75.75 0 0 0 1.5 0v-1.75H21a.75.75 0 0 0 0-1.5M8 9.25a.75.75 0 0 0 0 1.5h8a.75.75 0 0 0 0-1.5zm5 4H8a.75.75 0 0 0 0 1.5h5a.75.75 0 0 0 0-1.5"/></svg>