<svg xmlns="http://www.w3.org/2000/svg" width="24" height="24" fill="none"><path fill="currentColor" d="M3.857 21.75c-.145 0-.286-.002-.424-.007a1.207 1.207 0 0 1-1.109-.815 1.221 1.221 0 0 1 .36-1.347c.932-.752 1.305-1.584 1.455-2.155-1.237-1.479-1.89-3.346-1.89-5.425 0-5.153 4.01-8.751 9.75-8.751s9.75 3.599 9.75 8.751c0 5.152-4.01 8.751-9.75 8.751-1.187 0-2.325-.161-3.394-.48-1.363 1.188-3.241 1.478-4.748 1.478Zm-.379-1.507h.006-.006ZM12 4.75c-4.857 0-8.25 2.982-8.25 7.251 0 1.836.605 3.462 1.751 4.702a.749.749 0 0 1 .19.625c-.168 1.071-.696 2.084-1.508 2.915 1.16-.042 2.72-.309 3.68-1.333a.748.748 0 0 1 .792-.196c1.035.358 2.16.54 3.345.54 4.857 0 8.25-2.983 8.25-7.252 0-4.27-3.393-7.252-8.25-7.252Zm0 12a.733.733 0 0 1-.24-.04c-1.938-.656-4.01-2.355-4.01-5.155V9.333a.75.75 0 0 1 .543-.72c1.783-.513 2.614-.9 3.376-1.284a.758.758 0 0 1 .68.002c.754.386 1.576.769 3.336 1.216a.749.749 0 0 1 .565.727v2.28c0 2.8-2.071 4.499-4.01 5.155a.708.708 0 0 1-.24.041ZM9.25 9.894v1.662c0 2.296 1.958 3.323 2.75 3.644.792-.321 2.75-1.348 2.75-3.644V9.853c-1.196-.331-1.99-.647-2.745-1.015-.767.37-1.546.688-2.755 1.056Z"/></svg>