<svg xmlns="http://www.w3.org/2000/svg" width="24" height="24" fill="none"><path fill="currentColor" d="M6.417 8a.75.75 0 0 1 .75-.75h6.666a.75.75 0 0 1 0 1.5H7.167a.75.75 0 0 1-.75-.75m5.666 3.333a.75.75 0 0 0-.75-.75H7.167a.75.75 0 0 0 0 1.5h4.166a.75.75 0 0 0 .75-.75m9.601 9.695a1.072 1.072 0 0 1-1.015.716 8.946 8.946 0 0 1-.332.006c-1.07 0-2.415-.207-3.437-1.04a8.7 8.7 0 0 1-2.401.323c-3.298 0-5.91-1.678-6.84-4.299-1.155.948-2.699 1.185-3.944 1.185-.122 0-.241-.002-.357-.006a1.13 1.13 0 0 1-1.039-.763 1.142 1.142 0 0 1 .338-1.259c.72-.581 1.025-1.217 1.155-1.671C2.79 12.973 2.25 11.408 2.25 9.669c0-4.37 3.393-7.419 8.249-7.419 4.641 0 7.937 2.789 8.222 6.847 1.924 1.155 3.028 3.094 3.028 5.405 0 1.511-.463 2.873-1.344 3.964.116.375.375.883.945 1.345.365.304.493.779.334 1.217M6.96 15.343a.75.75 0 0 1 .793-.196 8.414 8.414 0 0 0 2.746.442c3.975 0 6.75-2.434 6.75-5.919 0-3.485-2.775-5.919-6.75-5.919-3.974 0-6.749 2.434-6.749 5.919 0 1.499.493 2.825 1.426 3.834a.749.749 0 0 1 .19.625 4.562 4.562 0 0 1-1.079 2.269c.898-.07 1.984-.318 2.673-1.055m11.888 3.037a.755.755 0 0 1 .19-.626c.792-.855 1.211-1.979 1.211-3.25 0-1.487-.564-2.736-1.6-3.626-.57 3.711-3.756 6.212-8.15 6.212-.362 0-.712-.036-1.062-.072.931 1.554 2.785 2.517 5.062 2.517a6.98 6.98 0 0 0 2.339-.377.751.751 0 0 1 .797.193c.523.556 1.315.781 2.02.861a4.013 4.013 0 0 1-.807-1.832m1.792 1.865-.023.001z"/></svg>