<svg xmlns="http://www.w3.org/2000/svg" width="24" height="24" fill="none"><path fill="currentColor" d="M3.857 21.75c-.145 0-.286-.002-.424-.007a1.207 1.207 0 0 1-1.109-.815 1.221 1.221 0 0 1 .36-1.347c.932-.752 1.305-1.584 1.455-2.155-1.237-1.479-1.89-3.346-1.89-5.425 0-5.153 4.01-8.751 9.75-8.751s9.75 3.599 9.75 8.751c0 5.152-4.01 8.751-9.75 8.751-1.187 0-2.325-.161-3.394-.48-1.363 1.188-3.241 1.478-4.748 1.478m-.379-1.507h.006zM12 4.75c-4.857 0-8.25 2.982-8.25 7.251 0 1.836.605 3.462 1.751 4.702a.749.749 0 0 1 .19.625c-.168 1.071-.696 2.084-1.508 2.915 1.16-.042 2.72-.309 3.68-1.333a.748.748 0 0 1 .792-.196c1.035.358 2.16.54 3.345.54 4.857 0 8.25-2.983 8.25-7.252 0-4.27-3.393-7.252-8.25-7.252m2.292 12a1.25 1.25 0 0 1-.583-.144L12 15.715l-1.708.89a1.247 1.247 0 0 1-1.324-.1 1.244 1.244 0 0 1-.496-1.225l.324-1.876-1.424-1.377a1.208 1.208 0 0 1-.312-1.25c.145-.447.522-.766.988-.833l1.975-.285.852-1.713a1.25 1.25 0 0 1 1.126-.696c.481 0 .913.267 1.126.697l.852 1.712 1.975.285c.466.067.844.387.988.833a1.21 1.21 0 0 1-.312 1.25l-1.424 1.377.325 1.878c.081.473-.11.942-.497 1.225a1.261 1.261 0 0 1-.742.243m-2.163-1.102c-.001 0-.001 0 0 0m-.13-1.468c.195 0 .391.046.57.14l1.396.729-.266-1.536a1.218 1.218 0 0 1 .355-1.084l1.118-1.082-1.554-.224a1.223 1.223 0 0 1-.92-.664l-.7-1.408-.699 1.407c-.18.36-.525.609-.923.666l-1.552.224 1.12 1.082c.29.28.422.686.353 1.083l-.266 1.536 1.399-.73c.18-.093.375-.139.569-.139m3.738-2.752h.01z"/></svg>