<svg xmlns="http://www.w3.org/2000/svg" width="24" height="24" fill="none"><path fill="currentColor" d="M3.857 21.75c-.145 0-.286-.002-.424-.007a1.207 1.207 0 0 1-1.109-.815 1.221 1.221 0 0 1 .36-1.347c.932-.752 1.305-1.584 1.455-2.155-1.237-1.479-1.89-3.346-1.89-5.425 0-5.153 4.01-8.751 9.75-8.751.363 0 .716.011 1.068.043a.75.75 0 0 1 .68.815.758.758 0 0 1-.816.679 10.237 10.237 0 0 0-.932-.037c-4.857 0-8.25 2.982-8.25 7.251 0 1.836.605 3.462 1.751 4.702a.749.749 0 0 1 .19.625c-.168 1.071-.696 2.084-1.508 2.915 1.16-.042 2.72-.309 3.68-1.333a.748.748 0 0 1 .792-.196c1.035.358 2.16.54 3.345.54 4.857 0 8.25-2.983 8.25-7.252a.75.75 0 0 1 1.5 0c0 5.153-4.01 8.751-9.75 8.751-1.187 0-2.325-.161-3.394-.479-1.363 1.186-3.241 1.476-4.748 1.476m-.379-1.507h.006zM19 8.75A2.752 2.752 0 0 1 16.25 6 2.752 2.752 0 0 1 19 3.25 2.752 2.752 0 0 1 21.75 6 2.752 2.752 0 0 1 19 8.75m0-4c-.689 0-1.25.561-1.25 1.25s.561 1.25 1.25 1.25 1.25-.561 1.25-1.25-.561-1.25-1.25-1.25"/></svg>