<svg xmlns="http://www.w3.org/2000/svg" width="24" height="24" fill="none"><path fill="currentColor" d="M12 3.25c-5.74 0-9.75 3.599-9.75 8.751 0 2.079.652 3.946 1.89 5.425-.15.57-.523 1.403-1.455 2.155a1.22 1.22 0 0 0-.36 1.347c.17.483.61.803 1.11.815.137.005.278.007.423.007 1.507 0 3.385-.29 4.749-1.477a11.87 11.87 0 0 0 3.394.479c5.74 0 9.75-3.599 9.75-8.751 0-5.152-4.011-8.751-9.751-8.751m0 16.003c-1.185 0-2.31-.181-3.345-.539a.748.748 0 0 0-.792.196c-.96 1.024-2.52 1.292-3.68 1.333.812-.83 1.34-1.844 1.508-2.915a.752.752 0 0 0-.19-.625c-1.146-1.24-1.751-2.866-1.751-4.702 0-4.27 3.393-7.251 8.25-7.251s8.25 2.982 8.25 7.251-3.393 7.252-8.25 7.252m2.5-8.382V9.75c0-1.378-1.121-2.5-2.5-2.5a2.503 2.503 0 0 0-2.5 2.5v1.121c-.793.258-1.25.931-1.25 1.915v1.929c0 1.274.76 2.036 2.036 2.036h3.428c1.275 0 2.036-.761 2.036-2.036v-1.929c0-.984-.457-1.657-1.25-1.915M12 8.75c.552 0 1 .449 1 1v1h-2v-1c0-.551.448-1 1-1m2.25 5.964c0 .44-.095.536-.536.536h-3.428c-.441 0-.536-.095-.536-.536v-1.929c0-.44.095-.536.536-.536h3.428c.441 0 .536.095.536.536z"/></svg>