<svg xmlns="http://www.w3.org/2000/svg" width="24" height="24" fill="none"><path fill="currentColor" d="M12 1.25C6.072 1.25 1.25 6.072 1.25 12S6.072 22.75 12 22.75 22.75 17.928 22.75 12 17.928 1.25 12 1.25m0 20c-5.101 0-9.25-4.149-9.25-9.25S6.899 2.75 12 2.75s9.25 4.149 9.25 9.25-4.149 9.25-9.25 9.25m3.355-14.878-4.853 1.889a3.883 3.883 0 0 0-2.198 2.189l-1.929 4.898a1.732 1.732 0 0 0 .398 1.891 1.735 1.735 0 0 0 1.893.38l4.879-1.975a3.894 3.894 0 0 0 2.143-2.151l1.934-4.833a1.734 1.734 0 0 0-.382-1.888 1.733 1.733 0 0 0-1.885-.4m.874 1.731-1.934 4.834a2.38 2.38 0 0 1-1.312 1.317l-4.879 1.975a.24.24 0 0 1-.275-.055.243.243 0 0 1-.058-.275L9.7 11a2.384 2.384 0 0 1 1.347-1.342L15.9 7.77a.24.24 0 0 1 .274.058.244.244 0 0 1 .055.275M12.92 11.62c.05.12.08.25.08.38 0 .26-.11.52-.29.71-.19.18-.45.29-.71.29-.26 0-.52-.11-.71-.29l-.12-.15a.758.758 0 0 1-.09-.18.635.635 0 0 1-.06-.18c-.01-.07-.02-.14-.02-.2 0-.26.11-.52.29-.71.28-.27.72-.37 1.09-.21.12.05.23.12.33.21.09.1.16.21.21.33"/></svg>