<svg xmlns="http://www.w3.org/2000/svg" width="24" height="24" fill="none"><path fill="currentColor" d="M21 8.75h-3.5c-1.409 0-2.25-.841-2.25-2.25V3a.75.75 0 0 1 1.5 0v3.5c0 .589.161.75.75.75H21a.75.75 0 0 1 0 1.5ZM8.75 6.5V3a.75.75 0 0 0-1.5 0v3.5c0 .589-.161.75-.75.75H3a.75.75 0 0 0 0 1.5h3.5c1.409 0 2.25-.841 2.25-2.25Zm0 14.5v-3.5c0-1.409-.841-2.25-2.25-2.25H3a.75.75 0 0 0 0 1.5h3.5c.589 0 .75.161.75.75V21a.75.75 0 0 0 1.5 0Zm8 0v-3.5c0-.589.161-.75.75-.75H21a.75.75 0 0 0 0-1.5h-3.5c-1.409 0-2.25.841-2.25 2.25V21a.75.75 0 0 0 1.5 0Z"/></svg>