<svg xmlns="http://www.w3.org/2000/svg" width="24" height="24" fill="none"><path fill="currentColor" d="M12 1.25C6.072 1.25 1.25 6.073 1.25 12S6.072 22.75 12 22.75 22.75 17.927 22.75 12 17.928 1.25 12 1.25Zm0 20c-5.101 0-9.25-4.149-9.25-9.25S6.899 2.75 12 2.75s9.25 4.149 9.25 9.25-4.149 9.25-9.25 9.25Zm-.649-16.638C7.557 4.942 4.584 8.187 4.584 12c0 3.813 2.973 7.059 6.767 7.388a1.28 1.28 0 0 0 .971-.333c.272-.25.429-.604.429-.973V5.917c0-.369-.156-.723-.429-.973a1.28 1.28 0 0 0-.971-.332ZM11.25 17.87c-2.916-.371-5.167-2.905-5.167-5.87 0-2.964 2.251-5.499 5.167-5.87v11.74Z"/></svg>