<svg xmlns="http://www.w3.org/2000/svg" width="24" height="24" fill="none"><path fill="currentColor" d="M12 22.75C6.072 22.75 1.25 17.928 1.25 12S6.072 1.25 12 1.25 22.75 6.072 22.75 12 17.928 22.75 12 22.75m0-20c-5.101 0-9.25 4.149-9.25 9.25s4.149 9.25 9.25 9.25 9.25-4.149 9.25-9.25S17.101 2.75 12 2.75m3.617 11.677a.75.75 0 0 0-1.234-.853 2.73 2.73 0 0 1-2.243 1.177 2.752 2.752 0 0 1-2.75-2.75 2.752 2.752 0 0 1 2.75-2.75c.895 0 1.733.44 2.243 1.177a.749.749 0 1 0 1.234-.853 4.232 4.232 0 0 0-3.478-1.823 4.255 4.255 0 0 0-4.25 4.25 4.255 4.255 0 0 0 4.25 4.25 4.241 4.241 0 0 0 3.478-1.825"/></svg>