<svg xmlns="http://www.w3.org/2000/svg" width="24" height="24" fill="none"><path fill="currentColor" d="M18 20.75H6c-2.418 0-3.75-1.332-3.75-3.75v-3.75H3c.689 0 1.25-.561 1.25-1.25S3.689 10.75 3 10.75h-.75V7c0-2.418 1.332-3.75 3.75-3.75h12c2.418 0 3.75 1.332 3.75 3.75v3.75H21c-.689 0-1.25.561-1.25 1.25s.561 1.25 1.25 1.25h.75V17c0 2.418-1.332 3.75-3.75 3.75ZM3.75 14.646V17c0 1.577.673 2.25 2.25 2.25h12c1.577 0 2.25-.673 2.25-2.25v-2.354a2.754 2.754 0 0 1-2-2.646c0-1.257.847-2.319 2-2.646V7c0-1.577-.673-2.25-2.25-2.25H6c-1.577 0-2.25.673-2.25 2.25v2.354c1.153.327 2 1.389 2 2.646a2.754 2.754 0 0 1-2 2.646Zm6.28.384 5-5a.75.75 0 1 0-1.061-1.061l-5 5a.75.75 0 1 0 1.061 1.061Zm.47-5.53c0-.552-.446-1-.998-1h-.01a.996.996 0 0 0-.993 1c0 .552.452 1 1.002 1a.999.999 0 0 0 .999-1Zm5 5c0-.552-.446-1-.998-1h-.01a.996.996 0 0 0-.993 1c0 .552.452 1 1.002 1a.999.999 0 0 0 .999-1Z"/></svg>