<svg xmlns="http://www.w3.org/2000/svg" width="24" height="24" fill="none"><path fill="currentColor" d="M21 14.25h-1.25v-4.5H21a.75.75 0 0 0 0-1.5h-1.25V8c0-2.418-1.332-3.75-3.75-3.75h-.25V3a.75.75 0 0 0-1.5 0v1.25h-4.5V3a.75.75 0 0 0-1.5 0v1.25H8C5.582 4.25 4.25 5.582 4.25 8v.25H3a.75.75 0 0 0 0 1.5h1.25v4.5H3a.75.75 0 0 0 0 1.5h1.25V16c0 2.418 1.332 3.75 3.75 3.75h.25V21a.75.75 0 0 0 1.5 0v-1.25h4.5V21a.75.75 0 0 0 1.5 0v-1.25H16c2.418 0 3.75-1.332 3.75-3.75v-.25H21a.75.75 0 0 0 0-1.5M18.25 16c0 1.577-.673 2.25-2.25 2.25H8c-1.577 0-2.25-.673-2.25-2.25V8c0-1.577.673-2.25 2.25-2.25h8c1.577 0 2.25.673 2.25 2.25zM14 7.75h-4c-1.409 0-2.25.841-2.25 2.25v4c0 1.409.841 2.25 2.25 2.25h4c1.409 0 2.25-.841 2.25-2.25v-4c0-1.409-.841-2.25-2.25-2.25m.75 6.25c0 .589-.161.75-.75.75h-4c-.589 0-.75-.161-.75-.75v-4c0-.589.161-.75.75-.75h4c.589 0 .75.161.75.75z"/></svg>