<svg xmlns="http://www.w3.org/2000/svg" width="24" height="24" fill="none"><path fill="currentColor" d="M3.001 11.855a.75.75 0 0 1-.747-.831 9.638 9.638 0 0 1 5.355-7.642.75.75 0 0 1 1.081.674v3.05a.75.75 0 0 1-1.5 0V5.365a8.136 8.136 0 0 0-3.444 5.822.75.75 0 0 1-.745.668m18.081.405a.75.75 0 0 0-.827.664 8.14 8.14 0 0 1-3.444 5.823v-1.741a.75.75 0 0 0-1.5 0v3.05a.75.75 0 0 0 1.081.673 9.633 9.633 0 0 0 5.355-7.642.752.752 0 0 0-.665-.827M10.25 8.5v-4c0-1.409.841-2.25 2.25-2.25h6c1.409 0 2.25.841 2.25 2.25v4c0 1.409-.841 2.25-2.25 2.25h-6c-1.409 0-2.25-.841-2.25-2.25m9 0V6.25h-7.5V8.5c0 .589.161.75.75.75h6c.589 0 .75-.161.75-.75m-7.5-4v.25h7.5V4.5c0-.589-.161-.75-.75-.75h-6c-.589 0-.75.161-.75.75m2.75 2.75H13a.75.75 0 0 0 0 1.5h1.5a.75.75 0 0 0 0-1.5m-.75 8.25v4c0 1.409-.841 2.25-2.25 2.25h-6c-1.409 0-2.25-.841-2.25-2.25v-4c0-1.409.841-2.25 2.25-2.25h6c1.409 0 2.25.841 2.25 2.25m-9 0v.25h7.5v-.25c0-.589-.161-.75-.75-.75h-6c-.589 0-.75.161-.75.75m7.5 4v-2.25h-7.5v2.25c0 .589.161.75.75.75h6c.589 0 .75-.161.75-.75M7.5 18.25H6a.75.75 0 0 0 0 1.5h1.5a.75.75 0 0 0 0-1.5"/></svg>