<svg xmlns="http://www.w3.org/2000/svg" width="24" height="24" fill="none"><path fill="currentColor" d="M11 17.25H5c-1.577 0-2.25-.673-2.25-2.25V9.75h16.5V10a.75.75 0 0 0 1.5 0V7c0-2.418-1.332-3.75-3.75-3.75H5C2.582 3.25 1.25 4.582 1.25 7v8c0 2.418 1.332 3.75 3.75 3.75h6a.75.75 0 0 0 0-1.5ZM5 4.75h12c1.577 0 2.25.673 2.25 2.25v1.25H2.75V7c0-1.577.673-2.25 2.25-2.25Zm4 8.5a.75.75 0 0 1 0 1.5H6a.75.75 0 0 1 0-1.5h3Zm13.27.47-.99-.99c-.31-.31-.721-.48-1.159-.48h-.002a1.63 1.63 0 0 0-1.16.482l-5.491 5.516a.75.75 0 0 0-.218.529V21c0 .414.336.75.75.75h2.222a.753.753 0 0 0 .529-.218l5.516-5.491c.311-.309.482-.721.482-1.16 0-.439-.169-.851-.479-1.161Zm-2.149.03c-.009-.002.064.006.099.041l.99.99a.136.136 0 0 1 .041.099.133.133 0 0 1-.041.098l-.637.634-1.184-1.184.634-.637a.133.133 0 0 1 .098-.041Zm-4.208 6.5H14.75v-1.163l3.58-3.597 1.179 1.179-3.596 3.581Z"/></svg>