<svg xmlns="http://www.w3.org/2000/svg" width="24" height="24" fill="none"><path fill="currentColor" d="M13 17.25H5c-1.577 0-2.25-.673-2.25-2.25V9.75h16.5V10a.75.75 0 0 0 1.5 0V7c0-2.418-1.332-3.75-3.75-3.75H5C2.582 3.25 1.25 4.582 1.25 7v8c0 2.418 1.332 3.75 3.75 3.75h8a.75.75 0 0 0 0-1.5M5 4.75h12c1.577 0 2.25.673 2.25 2.25v1.25H2.75V7c0-1.577.673-2.25 2.25-2.25m4 8.5a.75.75 0 0 1 0 1.5H6a.75.75 0 0 1 0-1.5zm13.693 5.463a.749.749 0 0 1-.163.817l-1 1a.748.748 0 0 1-1.237-.78H17.5a2.252 2.252 0 0 1-2.25-2.25V17a.75.75 0 0 1 1.5 0v.5c0 .414.336.75.75.75H22a.75.75 0 0 1 .693.463M22.75 16v.5a.75.75 0 0 1-1.5 0V16a.75.75 0 0 0-.75-.75H16a.75.75 0 0 1-.53-1.28l1-1a.75.75 0 0 1 1.238.78H20.5A2.252 2.252 0 0 1 22.75 16"/></svg>