<svg xmlns="http://www.w3.org/2000/svg" width="24" height="24" fill="none"><path fill="currentColor" d="M21.41 13.25a11.239 11.239 0 0 0-2.59-10.32c-.62-.67-1.55-.87-2.37-.5-.84.37-1.33 1.21-1.25 2.13.03.31.05.62.05.93 0 1.23-.23 2.4-.65 3.48-.75-.03-1.5.24-2.06.8l-2.75 2.75c-.56.56-.83 1.3-.8 2.05-1.39.54-2.93.75-4.41.62-.94-.09-1.76.4-2.14 1.25-.37.83-.17 1.76.5 2.37 2.08 1.89 4.76 2.92 7.56 2.92.91 0 1.83-.12 2.75-.35.31.17.64.29 1 .33.11.01.21.02.32.02.73 0 1.42-.28 1.94-.81l4.44-4.44c.6-.6.88-1.42.79-2.25-.04-.36-.16-.69-.33-.99v.01ZM16.7 4.43c-.04-.42.27-.59.36-.63.11-.05.4-.14.66.14a9.767 9.767 0 0 1 2.54 6.56c0 .5-.05 1-.13 1.51l-4.1-2.56c.48-1.25.73-2.57.73-3.95 0-.36-.02-.71-.05-1.07h-.01ZM3.95 17.72a.551.551 0 0 1-.14-.66c.04-.09.2-.4.63-.36 1.67.15 3.41-.08 5.01-.69l2.57 4.11c-2.9.44-5.9-.43-8.07-2.4Zm15.94-2.28-4.44 4.44c-.27.27-.65.4-1.03.36a1.22 1.22 0 0 1-.92-.58l-2.82-4.52c-.31-.5-.24-1.13.18-1.55l2.75-2.75c.24-.24.56-.37.88-.37.23 0 .46.06.66.19l4.52 2.82a1.247 1.247 0 0 1 .22 1.94v.02Z"/></svg>