<svg xmlns="http://www.w3.org/2000/svg" width="24" height="24" fill="none"><path fill="currentColor" d="M21.004 6.95a1.726 1.726 0 0 0-1.905-.064l-2.493 1.508a.234.234 0 0 1-.317-.071l-2.84-4.294A1.733 1.733 0 0 0 12 3.25c-.585 0-1.126.291-1.449.779L7.714 8.32a.237.237 0 0 1-.322.072l-2.49-1.506a1.726 1.726 0 0 0-1.905.064 1.73 1.73 0 0 0-.708 1.787l1.624 7.264-.554 3.292a1.253 1.253 0 0 0 1.233 1.458h14.817a1.248 1.248 0 0 0 1.233-1.458l-.554-3.292 1.624-7.264.004-.018a1.725 1.725 0 0 0-.712-1.769M4.887 19.25l.421-2.5h13.385l.421 2.5zm13.832-4H5.282L3.756 8.428a.233.233 0 0 1 .101-.249.235.235 0 0 1 .269-.009l2.489 1.506a1.734 1.734 0 0 0 2.35-.528l2.837-4.291c.123-.186.273-.186.396 0l2.839 4.293a1.73 1.73 0 0 0 2.345.528l2.493-1.508a.235.235 0 0 1 .269.009c.048.034.125.11.102.243z"/></svg>