<svg xmlns="http://www.w3.org/2000/svg" width="24" height="24" fill="none"><path fill="currentColor" d="M14.5 6.75c1.24 0 2.25-1.01 2.25-2.25s-1.01-2.25-2.25-2.25-2.25 1.01-2.25 2.25 1.01 2.25 2.25 2.25m0-3c.41 0 .75.34.75.75s-.34.75-.75.75-.75-.34-.75-.75.34-.75.75-.75M10 11.06c-.17.17-.25.41-.21.65.04.24.19.44.4.55l1.31.65a2.22 2.22 0 0 1 1.24 2.01v3.07c0 .41-.34.75-.75.75s-.75-.34-.75-.75v-3.07c0-.29-.16-.54-.41-.67l-1.31-.65a2.22 2.22 0 0 1-1.21-1.65c-.12-.72.11-1.43.63-1.95l1.47-1.47c.88-.88 2.3-.88 3.18 0l1.5 1.5c.14.14.33.22.53.22H17c.41 0 .75.34.75.75s-.34.75-.75.75h-1.38c-.59 0-1.17-.24-1.59-.66l-1.5-1.5a.754.754 0 0 0-1.06 0zm8 3.19c-2.07 0-3.75 1.68-3.75 3.75 0 2.07 1.68 3.75 3.75 3.75 2.07 0 3.75-1.68 3.75-3.75 0-2.07-1.68-3.75-3.75-3.75m0 6c-1.24 0-2.25-1.01-2.25-2.25s1.01-2.25 2.25-2.25 2.25 1.01 2.25 2.25-1.01 2.25-2.25 2.25m-12-6c-2.07 0-3.75 1.68-3.75 3.75 0 2.07 1.68 3.75 3.75 3.75 2.07 0 3.75-1.68 3.75-3.75 0-2.07-1.68-3.75-3.75-3.75m0 6c-1.24 0-2.25-1.01-2.25-2.25S4.76 15.75 6 15.75 8.25 16.76 8.25 18 7.24 20.25 6 20.25"/></svg>