<svg xmlns="http://www.w3.org/2000/svg" width="24" height="24" fill="none"><path fill="currentColor" d="M12 2.25C7.094 2.25 3.25 4.336 3.25 7v10c0 2.575 4.007 4.75 8.75 4.75s8.75-2.175 8.75-4.75V7c0-2.664-3.844-4.75-8.75-4.75M19.25 12c0 1.537-2.978 3.25-7.25 3.25S4.75 13.537 4.75 12V9.692c1.561 1.25 4.199 2.058 7.25 2.058s5.689-.808 7.25-2.058zM12 3.75c4.272 0 7.25 1.713 7.25 3.25s-2.978 3.25-7.25 3.25S4.75 8.537 4.75 7 7.728 3.75 12 3.75m0 16.5c-4.358 0-7.25-1.956-7.25-3.25v-2.308c1.561 1.25 4.199 2.058 7.25 2.058s5.689-.808 7.25-2.058V17c0 1.294-2.892 3.25-7.25 3.25"/></svg>