<svg xmlns="http://www.w3.org/2000/svg" width="24" height="24" fill="none"><path fill="currentColor" d="M18 5.25H9c-.593 0-1.173.24-1.591.659l-4.5 4.5c-.425.425-.659.99-.659 1.591s.234 1.166.659 1.591l4.5 4.5c.418.419.998.659 1.591.659h9c2.418 0 3.75-1.332 3.75-3.75V9c0-2.418-1.332-3.75-3.75-3.75M20.25 15c0 1.577-.673 2.25-2.25 2.25H9a.753.753 0 0 1-.53-.22l-4.5-4.5a.744.744 0 0 1 0-1.06l4.5-4.5A.758.758 0 0 1 9 6.751h9c1.577 0 2.25.673 2.25 2.25zm-3.72-4.47L15.06 12l1.47 1.47a.75.75 0 0 1-1.06 1.061L14 13.061l-1.47 1.47a.748.748 0 0 1-1.06 0 .75.75 0 0 1 0-1.061L12.94 12l-1.47-1.47a.75.75 0 1 1 1.061-1.061l1.47 1.47 1.47-1.47a.75.75 0 1 1 1.059 1.061"/></svg>