<svg xmlns="http://www.w3.org/2000/svg" width="24" height="24" fill="none"><path fill="currentColor" d="M12.914 11.417a.751.751 0 0 1 .865-1.226l.241.17-.379-2.147a.75.75 0 1 1 1.476-.261l.382 2.165.188-.267a.75.75 0 1 1 1.227.864l-1.227 1.739-.011.01a.75.75 0 0 1-.236.204c-.035.02-.071.028-.108.042-.043.017-.081.042-.128.051a.734.734 0 0 1-.131.012l-.01-.002a.728.728 0 0 1-.23-.041c-.031-.01-.057-.028-.086-.042-.035-.017-.072-.029-.105-.052zm-4.08-2.199c-.22-1.245-.068-2.219.462-2.977.531-.759 1.396-1.234 2.641-1.454l3.634-.641c1.245-.22 2.217-.068 2.977.462.759.531 1.233 1.395 1.453 2.64l.641 3.634c.22 1.245.068 2.219-.463 2.978-.53.758-1.394 1.234-2.64 1.453l-3.634.641a5.825 5.825 0 0 1-1.012.095c-1.873 0-3.047-1.09-3.418-3.197zm1.477-.26.641 3.634c.291 1.646 1.044 2.175 2.693 1.886l3.634-.641c.833-.147 1.38-.421 1.671-.837.291-.416.361-1.023.215-1.856l-.64-3.634c-.148-.833-.422-1.38-.838-1.671-.275-.193-.635-.289-1.089-.289-.23 0-.486.024-.768.074l-3.634.641c-.833.147-1.38.421-1.671.837-.291.415-.361 1.023-.214 1.856m11.427 7.692a.75.75 0 0 1-.608.869l-10.416 1.833A2.744 2.744 0 0 1 8 21.75 2.752 2.752 0 0 1 5.25 19c0-1.24.83-2.279 1.96-2.621L5.172 4.78a1.258 1.258 0 0 0-1.453-1.012l-.594.101a.75.75 0 1 1-.25-1.479l.59-.1a2.763 2.763 0 0 1 3.184 2.229l2.08 11.84a2.75 2.75 0 0 1 1.77 1.507L20.87 16.04a.75.75 0 0 1 .868.61M9.25 19c0-.689-.561-1.25-1.25-1.25s-1.25.561-1.25 1.25.561 1.25 1.25 1.25 1.25-.561 1.25-1.25"/></svg>