<svg xmlns="http://www.w3.org/2000/svg" width="24" height="24" fill="none"><path fill="currentColor" d="M9.475 12.852c.371 2.107 1.545 3.197 3.418 3.197.317 0 .655-.031 1.012-.095l3.634-.641c1.246-.219 2.109-.695 2.64-1.453.531-.759.683-1.732.463-2.978l-.641-3.634c-.22-1.245-.694-2.108-1.453-2.64-.759-.531-1.732-.682-2.977-.462l-3.634.641c-1.245.219-2.109.695-2.641 1.454-.53.758-.682 1.732-.462 2.977zm1.05-5.75c.291-.416.838-.69 1.671-.837l3.634-.641c.281-.05.537-.074.768-.074.454 0 .813.096 1.089.289.416.292.69.838.837 1.671l.641 3.634c.146.833.076 1.44-.215 1.856-.291.416-.838.689-1.67.837l-3.635.641c-1.65.289-2.402-.239-2.693-1.886l-.64-3.634c-.148-.833-.078-1.441.213-1.856m10.345 8.94-10.371 1.826a2.75 2.75 0 0 0-1.77-1.507l-2.08-11.84a2.76 2.76 0 0 0-3.184-2.229l-.59.1a.75.75 0 1 0 .25 1.479l.594-.101a1.258 1.258 0 0 1 1.453 1.012L7.21 16.381a2.745 2.745 0 0 0-1.96 2.621A2.752 2.752 0 0 0 8 21.752a2.744 2.744 0 0 0 2.714-2.398l10.416-1.833a.75.75 0 0 0 .608-.869.747.747 0 0 0-.868-.61M8 20.25c-.689 0-1.25-.561-1.25-1.25s.561-1.25 1.25-1.25 1.25.561 1.25 1.25-.561 1.25-1.25 1.25"/></svg>