<svg xmlns="http://www.w3.org/2000/svg" width="24" height="24" fill="none"><path fill="currentColor" d="M12.74 10.432a.751.751 0 0 1-.181-1.045l1.227-1.74c.018-.025.044-.039.064-.061.045-.05.089-.102.146-.139a.75.75 0 0 1 .842.023l1.722 1.213a.751.751 0 0 1-.865 1.226l-.241-.17.379 2.148a.75.75 0 1 1-1.476.261l-.382-2.165-.188.267a.749.749 0 0 1-.614.317.744.744 0 0 1-.433-.135ZM8.834 9.218c-.22-1.245-.068-2.219.462-2.977.531-.759 1.396-1.234 2.641-1.454l3.634-.641c2.462-.435 3.996.639 4.43 3.103l.641 3.634c.22 1.245.068 2.219-.463 2.978-.53.758-1.395 1.233-2.64 1.453l-3.634.641a5.825 5.825 0 0 1-1.012.095c-1.873 0-3.047-1.09-3.418-3.197l-.641-3.635Zm1.477-.26.641 3.634c.291 1.646 1.044 2.175 2.693 1.886l3.634-.641c.833-.147 1.38-.42 1.671-.836.291-.416.361-1.023.215-1.856l-.64-3.634c-.242-1.364-.801-1.962-1.922-1.962-.232 0-.489.026-.772.076l-3.634.641c-.833.147-1.38.421-1.671.837-.292.414-.362 1.022-.215 1.855Zm11.427 7.692a.75.75 0 0 1-.608.869l-10.416 1.833A2.744 2.744 0 0 1 8 21.75 2.752 2.752 0 0 1 5.25 19c0-1.24.83-2.279 1.96-2.621L5.172 4.78a1.257 1.257 0 0 0-1.453-1.012l-.594.101a.75.75 0 1 1-.25-1.479l.59-.1a2.765 2.765 0 0 1 3.184 2.229l2.08 11.84a2.75 2.75 0 0 1 1.77 1.507L20.87 16.04a.75.75 0 0 1 .868.61ZM9.25 19c0-.689-.561-1.25-1.25-1.25s-1.25.561-1.25 1.25.561 1.25 1.25 1.25 1.25-.561 1.25-1.25Z"/></svg>