<svg xmlns="http://www.w3.org/2000/svg" width="24" height="24" fill="none"><path fill="currentColor" d="M18 2.25H6C3.582 2.25 2.25 3.582 2.25 6v8c0 2.418 1.332 3.75 3.75 3.75h3.25v2.5H7.5a.75.75 0 0 0 0 1.5h9a.75.75 0 0 0 0-1.5h-1.75v-2.5H18c2.418 0 3.75-1.332 3.75-3.75V6c0-2.418-1.332-3.75-3.75-3.75m-4.75 18h-2.5v-2.5h2.5zm7-6.25c0 1.577-.673 2.25-2.25 2.25H6c-1.577 0-2.25-.673-2.25-2.25V6c0-1.577.673-2.25 2.25-2.25h12c1.577 0 2.25.673 2.25 2.25zm-9.72-5.47L9.06 10l1.47 1.47a.75.75 0 0 1-1.06 1.061l-2-2a.75.75 0 0 1 0-1.061l2-2a.75.75 0 1 1 1.06 1.06m6 .94a.75.75 0 0 1 0 1.061l-2 2a.748.748 0 0 1-1.06 0 .75.75 0 0 1 0-1.061L14.94 10l-1.47-1.47a.75.75 0 0 1 1.061-1.061z"/></svg>