<svg xmlns="http://www.w3.org/2000/svg" width="24" height="24" fill="none"><path fill="currentColor" d="M20.75 9.314V5c0-2.418-1.332-3.75-3.75-3.75H5C2.582 1.25 1.25 2.582 1.25 5v8c0 2.418 1.332 3.75 3.75 3.75h3.25v2.5H6.5a.75.75 0 0 0 0 1.5h5.816c.238 1.278 1.157 2 2.612 2h5.143c1.702 0 2.679-.98 2.679-2.692v-8.116c0-1.467-.722-2.392-2-2.628M5 2.75h12c1.577 0 2.25.673 2.25 2.25v4.25h-4.321c-1.456 0-2.375.722-2.612 2H2.75V5c0-1.577.673-2.25 2.25-2.25M2.75 13v-.25h9.5v2.5H5c-1.577 0-2.25-.673-2.25-2.25m7 3.75h2.5v2.5h-2.5zm11.5 3.308c0 .88-.309 1.192-1.179 1.192h-5.143c-.87 0-1.179-.312-1.179-1.192v-8.116c0-.88.309-1.192 1.179-1.192h5.143c.87 0 1.179.312 1.179 1.192zM18.5 19.5a1 1 0 1 1-2 0 1 1 0 0 1 2 0"/></svg>