<svg xmlns="http://www.w3.org/2000/svg" width="24" height="24" fill="none"><path fill="currentColor" d="M17.75 6.6V3c0-.41-.34-.75-.76-.75h-3.15c-.2 0-.38.08-.52.21l-.34.33c-.05.05-.1.12-.14.18l-1.5 2.82-.11.06H5.99c-.41 0-.75.34-.75.75v4.5c0 .41.34.75.75.75H8.1l-2.78 5.21a.73.73 0 0 0-.09.35V21a.75.75 0 0 0 .75.75h3.16c.2 0 .38-.08.52-.21l.34-.33c.06-.05.1-.12.14-.18l1.51-2.82.1-.06h5.24c.41 0 .75-.34.75-.75v-4.49c0-.41-.34-.75-.75-.75h-2.11l2.77-5.2a.73.73 0 0 0 .09-.35zm-1.5-.19-3.12 5.85c-.16.29-.1.66.14.89l.29.29c.14.14.33.21.53.21h2.16v2.99h-4.69c-.13 0-.26.03-.37.1l-.46.26c-.12.07-.22.17-.29.3l-1.55 2.91-2.14.04V17.6l3.12-5.85c.16-.29.1-.65-.14-.89l-.3-.3a.75.75 0 0 0-.53-.22H6.75v-3h4.69c.13 0 .26-.03.37-.1l.47-.27c.12-.07.22-.17.29-.3l1.55-2.91 2.13-.03z"/></svg>