<svg xmlns="http://www.w3.org/2000/svg" width="24" height="24" fill="none"><path fill="currentColor" d="M12 22.75a4.037 4.037 0 0 1-2.874-1.19L2.44 14.873a4.072 4.072 0 0 1 0-5.749L9.126 2.44A4.037 4.037 0 0 1 12 1.249a4.04 4.04 0 0 1 2.874 1.19l6.686 6.686a4.072 4.072 0 0 1 0 5.749l-6.686 6.685A4.037 4.037 0 0 1 12 22.75m0-20c-.686 0-1.329.267-1.813.751l-6.686 6.685a2.57 2.57 0 0 0 0 3.628l6.686 6.685c.969.97 2.658.97 3.627 0l6.686-6.685a2.57 2.57 0 0 0 0-3.628l-6.686-6.685A2.55 2.55 0 0 0 12 2.75m.75 9.75v-4a.75.75 0 0 0-1.5 0v4a.75.75 0 0 0 1.5 0m.27 3a1 1 0 0 0-1-1h-.01a.996.996 0 0 0-.995 1c0 .552.453 1 1.005 1a1 1 0 0 0 1-1"/></svg>