<svg xmlns="http://www.w3.org/2000/svg" width="24" height="24" fill="none"><path fill="currentColor" d="M10.48 13.17c0 1.1-.8 2-1.8 2s-1.8-.9-1.8-2 .79-2 1.8-2 1.82.9 1.8 2m4.84-2c-1.01 0-1.8.9-1.8 2s.81 2 1.8 2 1.8-.9 1.8-2c.02-1.1-.8-2-1.8-2m7.33 6.4a.72.72 0 0 1-.31.53 17.675 17.675 0 0 1-5.29 2.62.753.753 0 0 1-.82-.27c-.44-.6-.83-1.21-1.14-1.83-2.04.51-4.15.51-6.2 0-.33.66-.72 1.28-1.15 1.84-.19.25-.51.36-.82.26-1.9-.58-3.63-1.43-5.29-2.62a.739.739 0 0 1-.31-.54c-.4-4.25.61-8.09 3.11-11.73.08-.11.18-.2.31-.26a17.02 17.02 0 0 1 4.32-1.32c.32-.05.63.1.78.38.12.22.23.42.32.61 1.22-.13 2.45-.13 3.68 0 .1-.21.22-.43.33-.62.16-.27.46-.41.77-.36 1.48.25 2.93.69 4.32 1.32.12.06.23.14.31.26 2.48 3.57 3.52 7.52 3.09 11.73zM18.44 6.86c-1.04-.46-2.13-.8-3.23-1.02-.09.18-.17.35-.22.5-.13.32-.46.52-.8.47-1.46-.21-2.94-.21-4.38 0A.748.748 0 0 1 9 6.34c-.05-.13-.13-.3-.23-.5-1.11.22-2.19.57-3.22 1.02-2.14 3.19-3.04 6.53-2.76 10.22 1.29.88 2.62 1.56 4.06 2.04.11-.16.21-.31.31-.48-.34-.16-.68-.34-1.02-.54a.78.78 0 0 1-.37-.6c-.01-.25.09-.49.29-.64l.11-.08c.09-.07.19-.14.27-.21.22-.19.53-.23.8-.11 3.08 1.39 6.45 1.39 9.5 0 .26-.12.58-.08.8.11.11.1.24.19.36.28a.743.743 0 0 1-.06 1.25c-.33.2-.67.38-1.03.54.1.16.2.32.31.48 1.46-.49 2.79-1.16 4.06-2.04.3-3.7-.6-7.05-2.74-10.22"/></svg>