<svg xmlns="http://www.w3.org/2000/svg" width="24" height="24" fill="none"><path fill="currentColor" d="M17.625 2.25H6.375c-2.66 0-4.125 1.465-4.125 4.125v11.25c0 2.66 1.465 4.125 4.125 4.125h11.25c2.66 0 4.125-1.465 4.125-4.125V6.375c0-2.66-1.465-4.125-4.125-4.125Zm2.625 15.375c0 1.84-.785 2.625-2.625 2.625H6.375c-1.84 0-2.625-.785-2.625-2.625V6.375c0-1.84.785-2.625 2.625-2.625h11.25c1.84 0 2.625.785 2.625 2.625v11.25ZM15.958 7H9.939c-1.478 0-1.937.767-2.214 1.595l-1.056 3.167c-.283.852-.212 1.636.2 2.208.284.394.864.863 2.015.863h1.31v.958c0 .782.39 1.508 1.04 1.941a1.582 1.582 0 0 0 1.368.19 1.59 1.59 0 0 0 1.009-.982l1.043-3.163h1.304c.851 0 1.542-.691 1.542-1.542V8.54c0-.849-.691-1.54-1.542-1.54Zm-2.559 5.793-1.212 3.678-.121.014a.832.832 0 0 1-.371-.693v-1.708a.75.75 0 0 0-.75-.75H8.884c-.402 0-.687-.085-.798-.241-.117-.163-.115-.491.007-.856L9.148 9.07c.162-.483.19-.57.791-.57l3.811.026v3.854a.74.74 0 0 0-.351.413ZM16 12.236l-.75.017V8.536l.75.005v3.695Z"/></svg>