<svg xmlns="http://www.w3.org/2000/svg" width="24" height="24" fill="none"><path fill="currentColor" d="M18.7 21.131a.75.75 0 1 1-1.476-.262c.009-.053.065-.472-.01-1.119h-8.6a.75.75 0 0 1 0-1.5h8.24a7.959 7.959 0 0 0-.749-1.53H12a.75.75 0 0 1 0-1.5h2.931c-.804-.858-1.87-1.735-3.314-2.571-6.876-3.98-6.331-9.501-6.305-9.734a.741.741 0 0 1 .83-.66.75.75 0 0 1 .661.826c-.006.057-.041.498.057 1.169H15a.75.75 0 0 1 0 1.5H7.248c.171.468.397.971.717 1.5H12a.75.75 0 0 1 0 1.5H9.09c.72.801 1.673 1.607 2.91 2.369 5.583-3.437 5.218-7.848 5.198-8.038a.752.752 0 0 1 .666-.824.756.756 0 0 1 .825.659c.025.221.498 5.18-5.288 9.087 6.099 4.07 5.337 8.913 5.299 9.128m-8.928-6.604a.75.75 0 1 0-1.004-1.113C4.65 17.13 5.27 20.97 5.298 21.13a.747.747 0 0 0 .862.607.75.75 0 0 0 .615-.862c-.019-.13-.473-3.217 2.997-6.348"/></svg>