<svg xmlns="http://www.w3.org/2000/svg" width="24" height="24" fill="none"><path fill="currentColor" d="M13.75 12a.75.75 0 0 1-.75.75H7a.75.75 0 0 1 0-1.5h6a.75.75 0 0 1 .75.75M7 8.75h3a.75.75 0 0 0 0-1.5H7a.75.75 0 0 0 0 1.5m6 6.5H7a.75.75 0 0 0 0 1.5h6a.75.75 0 0 0 0-1.5m8.75-3.75V19A2.752 2.752 0 0 1 19 21.75H6c-2.418 0-3.75-1.332-3.75-3.75V6c0-2.418 1.332-3.75 3.75-3.75h8c2.418 0 3.75 1.332 3.75 3.75v3.25h1.75c1.24 0 2.25 1.009 2.25 2.25m-5.199 8.75A2.736 2.736 0 0 1 16.25 19V6c0-1.577-.673-2.25-2.25-2.25H6c-1.577 0-2.25.673-2.25 2.25v12c0 1.577.673 2.25 2.25 2.25zm3.699-8.75a.75.75 0 0 0-.75-.75h-1.75V19c0 .689.561 1.25 1.25 1.25s1.25-.561 1.25-1.25z"/></svg>