<svg xmlns="http://www.w3.org/2000/svg" width="24" height="24" fill="none"><path fill="currentColor" d="M21.65 9.265a.75.75 0 0 0-.585.885A9.28 9.28 0 0 1 21.25 12c0 5.101-4.149 9.25-9.25 9.25S2.75 17.101 2.75 12 6.899 2.75 12 2.75c.947 0 1.88.143 2.774.425a.75.75 0 0 0 .451-1.431 10.715 10.715 0 0 0-3.226-.495c-5.928 0-10.75 4.822-10.75 10.75s4.822 10.75 10.75 10.75 10.75-4.822 10.75-10.75c0-.725-.072-1.448-.215-2.15a.749.749 0 0 0-.884-.584M18.53 4.53l.72-.72V7a.75.75 0 0 0 1.5 0V3.811l.72.72a.748.748 0 0 0 1.06 0 .75.75 0 0 0 0-1.061l-2-2a.749.749 0 0 0-.817-.162.749.749 0 0 0-.244.162l-2 2a.75.75 0 1 0 1.061 1.06m-6.552 13.22a.75.75 0 0 0 .75-.75v-.398a2.605 2.605 0 0 0 2.245-2.585 2.623 2.623 0 0 0-1.986-2.544l-1.608-.399a1.121 1.121 0 0 1 .271-2.211h.7c.572 0 1.051.43 1.116 1a.75.75 0 1 0 1.491-.167 2.617 2.617 0 0 0-2.229-2.298V7a.75.75 0 0 0-1.5 0v.404a2.62 2.62 0 0 0-2.2 2.579c0 .587.197 1.161.552 1.609.356.459.864.791 1.434.935l1.608.399c.501.127.851.575.851 1.089 0 .298-.117.579-.33.792-.213.213-.494.33-.792.33h-.7c-.572 0-1.051-.43-1.116-1a.746.746 0 0 0-.829-.662.75.75 0 0 0-.662.829 2.617 2.617 0 0 0 2.184 2.293V17c0 .414.335.75.75.75"/></svg>