<svg xmlns="http://www.w3.org/2000/svg" width="24" height="24" fill="none"><path fill="currentColor" d="M19.75 6.5v11a2.252 2.252 0 0 1-2.25 2.25H16a.75.75 0 0 1 0-1.5h1.5a.75.75 0 0 0 .75-.75v-11a.75.75 0 0 0-.75-.75H16a.75.75 0 0 1 0-1.5h1.5a2.252 2.252 0 0 1 2.25 2.25Zm-5.842-3.755A2.24 2.24 0 0 1 14.75 4.5v15a2.24 2.24 0 0 1-.842 1.755 2.237 2.237 0 0 1-1.895.441l-6-1.333a2.237 2.237 0 0 1-1.762-2.197V5.834c0-1.063.725-1.966 1.762-2.197l6-1.333a2.24 2.24 0 0 1 1.895.441ZM13.25 4.5a.747.747 0 0 0-.913-.732l-6 1.333a.745.745 0 0 0-.587.732v12.332c0 .354.242.655.587.732l6 1.333a.747.747 0 0 0 .913-.732V4.5ZM10.52 11h-.01a.996.996 0 0 0-.995 1c0 .552.453 1 1.005 1a1 1 0 0 0 0-2Z"/></svg>