<svg xmlns="http://www.w3.org/2000/svg" width="24" height="24" fill="none"><path fill="currentColor" d="M8 21.75A2.752 2.752 0 0 1 5.25 19 2.752 2.752 0 0 1 8 16.25 2.752 2.752 0 0 1 10.75 19 2.752 2.752 0 0 1 8 21.75Zm0-4c-.689 0-1.25.561-1.25 1.25s.561 1.25 1.25 1.25 1.25-.561 1.25-1.25-.561-1.25-1.25-1.25Zm0-3A2.752 2.752 0 0 1 5.25 12 2.752 2.752 0 0 1 8 9.25 2.752 2.752 0 0 1 10.75 12 2.752 2.752 0 0 1 8 14.75Zm0-4c-.689 0-1.25.561-1.25 1.25s.561 1.25 1.25 1.25 1.25-.561 1.25-1.25-.561-1.25-1.25-1.25Zm0-3A2.752 2.752 0 0 1 5.25 5 2.752 2.752 0 0 1 8 2.25 2.752 2.752 0 0 1 10.75 5 2.752 2.752 0 0 1 8 7.75Zm0-4c-.689 0-1.25.561-1.25 1.25S7.311 6.25 8 6.25 9.25 5.689 9.25 5 8.689 3.75 8 3.75Zm8 18A2.752 2.752 0 0 1 13.25 19 2.752 2.752 0 0 1 16 16.25 2.752 2.752 0 0 1 18.75 19 2.752 2.752 0 0 1 16 21.75Zm0-4c-.689 0-1.25.561-1.25 1.25s.561 1.25 1.25 1.25 1.25-.561 1.25-1.25-.561-1.25-1.25-1.25Zm0-3A2.752 2.752 0 0 1 13.25 12 2.752 2.752 0 0 1 16 9.25 2.752 2.752 0 0 1 18.75 12 2.752 2.752 0 0 1 16 14.75Zm0-4c-.689 0-1.25.561-1.25 1.25s.561 1.25 1.25 1.25 1.25-.561 1.25-1.25-.561-1.25-1.25-1.25Zm0-3A2.752 2.752 0 0 1 13.25 5 2.752 2.752 0 0 1 16 2.25 2.752 2.752 0 0 1 18.75 5 2.752 2.752 0 0 1 16 7.75Zm0-4c-.689 0-1.25.561-1.25 1.25s.561 1.25 1.25 1.25 1.25-.561 1.25-1.25-.561-1.25-1.25-1.25Z"/></svg>