<svg xmlns="http://www.w3.org/2000/svg" width="24" height="24" fill="none"><path fill="currentColor" d="M5 10.75A2.752 2.752 0 0 1 2.25 8 2.752 2.752 0 0 1 5 5.25 2.752 2.752 0 0 1 7.75 8 2.752 2.752 0 0 1 5 10.75Zm0-4c-.689 0-1.25.561-1.25 1.25S4.311 9.25 5 9.25 6.25 8.689 6.25 8 5.689 6.75 5 6.75Zm7 4A2.752 2.752 0 0 1 9.25 8 2.752 2.752 0 0 1 12 5.25 2.752 2.752 0 0 1 14.75 8 2.752 2.752 0 0 1 12 10.75Zm0-4c-.689 0-1.25.561-1.25 1.25s.561 1.25 1.25 1.25 1.25-.561 1.25-1.25-.561-1.25-1.25-1.25Zm7 4A2.752 2.752 0 0 1 16.25 8 2.752 2.752 0 0 1 19 5.25 2.752 2.752 0 0 1 21.75 8 2.752 2.752 0 0 1 19 10.75Zm0-4c-.689 0-1.25.561-1.25 1.25s.561 1.25 1.25 1.25 1.25-.561 1.25-1.25-.561-1.25-1.25-1.25Zm-14 12A2.752 2.752 0 0 1 2.25 16 2.752 2.752 0 0 1 5 13.25 2.752 2.752 0 0 1 7.75 16 2.752 2.752 0 0 1 5 18.75Zm0-4c-.689 0-1.25.561-1.25 1.25s.561 1.25 1.25 1.25 1.25-.561 1.25-1.25-.561-1.25-1.25-1.25Zm7 4A2.752 2.752 0 0 1 9.25 16 2.752 2.752 0 0 1 12 13.25 2.752 2.752 0 0 1 14.75 16 2.752 2.752 0 0 1 12 18.75Zm0-4c-.689 0-1.25.561-1.25 1.25s.561 1.25 1.25 1.25 1.25-.561 1.25-1.25-.561-1.25-1.25-1.25Zm7 4A2.752 2.752 0 0 1 16.25 16 2.752 2.752 0 0 1 19 13.25 2.752 2.752 0 0 1 21.75 16 2.752 2.752 0 0 1 19 18.75Zm0-4c-.689 0-1.25.561-1.25 1.25s.561 1.25 1.25 1.25 1.25-.561 1.25-1.25-.561-1.25-1.25-1.25Z"/></svg>