<svg xmlns="http://www.w3.org/2000/svg" width="24" height="24" fill="none"><path fill="currentColor" d="M19.79 4.6A10.782 10.782 0 0 0 12 1.25c-1.44 0-2.82.28-4.11.82h-.01a10.714 10.714 0 0 0-6.55 8.68v.01c-.05.38-.08.78-.08 1.22 0 2.92 1.15 5.65 3.23 7.67A10.69 10.69 0 0 0 12 22.73c1.5 0 2.94-.3 4.28-.89 3.69-1.61 6.15-5.09 6.42-9.07a10.704 10.704 0 0 0-2.93-8.18l.02.01Zm-5.07 6.91c-.25-.62-.52-1.25-.83-1.87 1.94-.91 3.71-2.07 5.28-3.47 1.28 1.57 2 3.51 2.06 5.54-2.12-.54-4.36-.61-6.52-.2h.01Zm3.42-6.42a20.44 20.44 0 0 1-4.94 3.23A28.141 28.141 0 0 0 9.48 3.1 9.19 9.19 0 0 1 12 2.74c2.26 0 4.45.85 6.14 2.35ZM7.99 3.69c1.49 1.58 2.77 3.33 3.82 5.22-2.8 1.06-5.73 1.5-8.86 1.27a9.188 9.188 0 0 1 5.03-6.49h.01Zm-5.23 7.98c.59.05 1.17.08 1.74.08 2.76 0 5.45-.52 8.01-1.51.27.54.51 1.09.74 1.64-3.39.98-6.35 3.13-8.34 6.06a9.13 9.13 0 0 1-2.16-5.93v-.33l.01-.01Zm3.23 7.34a13.77 13.77 0 0 1 7.78-5.73 25.74 25.74 0 0 1 1.42 7.38c-1.01.38-2.08.58-3.2.58-2.23 0-4.33-.8-6.01-2.24l.01.01Zm10.66.97c-.16-2.41-.64-4.77-1.41-7.04 1.97-.33 3.99-.22 5.9.31a9.145 9.145 0 0 1-4.49 6.73Z"/></svg>