<svg xmlns="http://www.w3.org/2000/svg" width="24" height="24" fill="none"><path fill="currentColor" d="M18.698 9.66c.698 1.479 1.052 2.939 1.052 4.34 0 4.273-3.477 7.75-7.75 7.75a7.687 7.687 0 0 1-4.265-1.275.75.75 0 0 1 .83-1.25A6.257 6.257 0 0 0 18.251 14c0-1.178-.306-2.423-.908-3.7a.749.749 0 1 1 1.355-.64Zm2.832-6.13-18 18a.748.748 0 0 1-1.06 0 .75.75 0 0 1 0-1.061l2.749-2.75a7.697 7.697 0 0 1-.969-3.72c0-6.313 7.016-11.397 7.314-11.61a.75.75 0 0 1 .871 0c.097.069 2.206 1.595 4.132 3.983l3.903-3.903a.75.75 0 1 1 1.06 1.061ZM6.321 16.618l9.181-9.181A22.648 22.648 0 0 0 12 3.945C10.516 5.13 5.749 9.301 5.749 14c.001.917.198 1.807.572 2.618Z"/></svg>