<svg xmlns="http://www.w3.org/2000/svg" width="24" height="24" fill="none"><path fill="currentColor" d="M21.75 9.3V7.5c0-1.41-.84-2.25-2.25-2.25h-2c-1.41 0-2.25.84-2.25 2.25v1.75h-6.5V7.5c0-1.41-.84-2.25-2.25-2.25h-2c-1.41 0-2.25.84-2.25 2.25v1.8c-.57.12-1 .62-1 1.27v2.86c0 .65.43 1.15 1 1.27v1.8c0 1.41.84 2.25 2.25 2.25h2c1.41 0 2.25-.84 2.25-2.25v-1.75h6.5v1.75c0 1.41.84 2.25 2.25 2.25h2c1.41 0 2.25-.84 2.25-2.25v-1.8c.57-.12 1-.62 1-1.27v-2.86c0-.65-.43-1.15-1-1.27Zm-14.5 7.2c0 .59-.16.75-.75.75h-2c-.59 0-.75-.16-.75-.75v-9c0-.59.16-.75.75-.75h2c.59 0 .75.16.75.75v9Zm1.5-3.25v-2.5h6.5v2.5h-6.5Zm11.5 3.25c0 .59-.16.75-.75.75h-2c-.59 0-.75-.16-.75-.75v-9c0-.59.16-.75.75-.75h2c.59 0 .75.16.75.75v9Z"/></svg>