<svg xmlns="http://www.w3.org/2000/svg" width="24" height="24" fill="none"><path fill="currentColor" d="M19.75 15v3c0 2.418-1.332 3.75-3.75 3.75H6c-2.418 0-3.75-1.332-3.75-3.75V8c0-2.418 1.332-3.75 3.75-3.75h3a.75.75 0 0 1 0 1.5H6c-1.577 0-2.25.673-2.25 2.25v10c0 1.577.673 2.25 2.25 2.25h10c1.577 0 2.25-.673 2.25-2.25v-3a.75.75 0 0 1 1.5 0m2-8.944a2.18 2.18 0 0 1-.646 1.552l-8.963 8.923a.751.751 0 0 1-.529.219H8a.75.75 0 0 1-.75-.75v-3.611c0-.198.078-.389.219-.529l8.923-8.964a2.178 2.178 0 0 1 1.552-.646h.003a2.18 2.18 0 0 1 1.552.643l1.609 1.609c.414.415.643.967.642 1.554m-4.133 2.907-2.58-2.58-6.287 6.316v2.552h2.552zm2.633-2.909a.691.691 0 0 0-.203-.492l-1.609-1.609a.69.69 0 0 0-.491-.203h-.001a.69.69 0 0 0-.491.204l-1.359 1.365 2.585 2.585 1.365-1.359a.692.692 0 0 0 .204-.491"/></svg>