<svg xmlns="http://www.w3.org/2000/svg" width="24" height="24" fill="none"><path fill="currentColor" d="M21.59 6.9c-.54-2.18-2.3-3.94-4.47-4.5-1.49-.38-3.1-.06-4.42.86-1.38.97-3.06 1.5-5.15 1.62-1.24.07-2.4.54-3.26 1.32-1.72 1.54-2.43 3.98-1.81 6.22.38 1.37 1.38 2.58 2.75 3.32 1.48.8 2.54 1.74 3.08 2.73 1.11 2.04 3.05 3.27 5.07 3.27.22 0 .44-.01.65-.04 1.23-.16 2.37-.68 3.29-1.5 1.06-.95 1.68-2.36 1.74-3.97.06-1.67.66-3.34 1.76-4.98.87-1.29 1.15-2.87.78-4.36zm-2.03 3.52c-1.26 1.87-1.94 3.81-2.02 5.76-.05 1.2-.49 2.23-1.24 2.9a4.72 4.72 0 0 1-2.49 1.14c-1.64.22-3.28-.75-4.21-2.46-.68-1.26-1.92-2.38-3.68-3.33-1.01-.55-1.74-1.42-2.01-2.4-.46-1.69.07-3.54 1.37-4.7.62-.55 1.45-.89 2.35-.94 2.37-.14 4.31-.76 5.92-1.89.95-.66 2.14-.9 3.19-.63 1.65.42 2.98 1.75 3.39 3.4.26 1.06.05 2.24-.57 3.16zm-8.07-3.17a4.26 4.26 0 0 0-4.25 4.25 4.26 4.26 0 0 0 4.25 4.25 4.26 4.26 0 0 0 4.25-4.25 4.26 4.26 0 0 0-4.25-4.25m0 7c-1.52 0-2.75-1.23-2.75-2.75s1.23-2.75 2.75-2.75 2.75 1.23 2.75 2.75-1.23 2.75-2.75 2.75"/></svg>