<svg xmlns="http://www.w3.org/2000/svg" width="24" height="24" fill="none"><path fill="currentColor" d="M12 19.75H5c-2.418 0-3.75-1.332-3.75-3.75V7c0-2.418 1.332-3.75 3.75-3.75h12c2.418 0 3.75 1.332 3.75 3.75v4a.75.75 0 0 1-1.5 0V7c0-1.577-.673-2.25-2.25-2.25H5c-1.577 0-2.25.673-2.25 2.25v9c0 1.577.673 2.25 2.25 2.25h7a.75.75 0 0 1 0 1.5Zm.03-7.571 4.91-3.572a.75.75 0 1 0-.882-1.213l-4.912 3.572a.248.248 0 0 1-.293 0L5.941 7.394a.75.75 0 0 0-.883 1.213L9.97 12.18a1.747 1.747 0 0 0 2.06-.001Zm6.777 9.506c.136-.061 3.338-1.521 3.862-4.185.214-1.083.003-2.112-.579-2.823-.492-.602-1.197-.922-2.039-.926h-.013a2.25 2.25 0 0 0-1.538.588 2.195 2.195 0 0 0-1.551-.588c-.84.004-1.545.324-2.038.926-.582.712-.795 1.741-.58 2.823.524 2.663 3.727 4.124 3.862 4.185a.746.746 0 0 0 .614 0Zm-1.017-5.802c.102.301.384.5.702.505a.809.809 0 0 0 .715-.496c.024-.066.253-.642.832-.642h.004c.391.002.681.125.886.376.293.359.394.951.27 1.583-.297 1.504-1.993 2.567-2.698 2.95-.705-.383-2.401-1.446-2.698-2.949-.125-.632-.023-1.224.271-1.583.206-.251.495-.375.885-.376h.004c.577-.001.806.575.827.632Z"/></svg>