<svg xmlns="http://www.w3.org/2000/svg" width="24" height="24" fill="none"><path fill="currentColor" d="M18.33 3.25H7.67c-2.067 0-3.25 1.079-3.392 3.028C2.33 6.419 1.25 7.6 1.25 9.667v7.666c0 2.204 1.214 3.417 3.417 3.417h10.666c2.066 0 3.248-1.079 3.389-3.028 1.949-.142 3.028-1.325 3.028-3.392V6.67c0-2.205-1.215-3.42-3.42-3.42Zm-1.08 14.083c0 1.361-.556 1.917-1.917 1.917H4.667c-1.361 0-1.917-.556-1.917-1.917V9.667c0-1.361.556-1.917 1.917-1.917h10.666c1.361 0 1.917.556 1.917 1.917v7.666Zm3-3.003c0 1.213-.444 1.784-1.5 1.896v-6.56c0-2.204-1.214-3.417-3.417-3.417h-9.56c.113-1.057.684-1.5 1.896-1.5h10.66c1.363 0 1.92.556 1.92 1.92v7.661h.001Zm-4.51-4.038a.75.75 0 0 1-.165 1.048l-4.585 3.334a1.678 1.678 0 0 1-1.98 0L4.425 11.34a.75.75 0 1 1 .883-1.213l4.585 3.334c.064.047.15.047.215 0l4.585-3.334a.748.748 0 0 1 1.047.165Z"/></svg>