<svg xmlns="http://www.w3.org/2000/svg" width="24" height="24" fill="none"><path fill="currentColor" d="M13 19.75H5c-2.418 0-3.75-1.332-3.75-3.75V7c0-2.418 1.332-3.75 3.75-3.75h12c2.418 0 3.75 1.332 3.75 3.75v4a.75.75 0 0 1-1.5 0V7c0-1.577-.673-2.25-2.25-2.25H5c-1.577 0-2.25.673-2.25 2.25v9c0 1.577.673 2.25 2.25 2.25h8a.75.75 0 0 1 0 1.5m-.97-7.571 4.91-3.572a.75.75 0 1 0-.882-1.213l-4.912 3.572a.248.248 0 0 1-.293 0L5.941 7.394a.75.75 0 0 0-.883 1.213L9.97 12.18a1.747 1.747 0 0 0 2.06-.001m7.215 9.53c1.694-.586 3.505-2.101 3.505-4.598v-1.995a.75.75 0 0 0-.562-.726c-1.498-.388-2.195-.72-2.835-1.055a.747.747 0 0 0-.69-.002c-.646.333-1.353.668-2.874 1.114a.751.751 0 0 0-.539.72v1.944c0 2.497 1.81 4.012 3.505 4.598a.733.733 0 0 0 .49 0m-.241-6.869c.62.305 1.28.572 2.246.849v1.422c0 1.913-1.563 2.791-2.25 3.085-.687-.293-2.25-1.172-2.25-3.085v-1.388a15.102 15.102 0 0 0 2.254-.883"/></svg>