<svg xmlns="http://www.w3.org/2000/svg" width="24" height="24" fill="none"><path fill="currentColor" d="M20 8.75A2.753 2.753 0 0 1 17.25 6 2.753 2.753 0 0 1 20 3.25 2.753 2.753 0 0 1 22.75 6 2.753 2.753 0 0 1 20 8.75m0-4c-.689 0-1.25.561-1.25 1.25s.561 1.25 1.25 1.25 1.25-.561 1.25-1.25-.561-1.25-1.25-1.25M21.75 17v-5a.75.75 0 0 0-1.5 0v5c0 1.577-.673 2.25-2.25 2.25H6c-1.577 0-2.25-.673-2.25-2.25V8c0-1.577.673-2.25 2.25-2.25h8a.75.75 0 0 0 0-1.5H6C3.582 4.25 2.25 5.582 2.25 8v9c0 2.418 1.332 3.75 3.75 3.75h12c2.418 0 3.75-1.332 3.75-3.75m-8.656-2.914 4.375-3.5a.75.75 0 1 0-.938-1.171l-4.375 3.5a.25.25 0 0 1-.312 0l-4.375-3.5a.751.751 0 0 0-.938 1.171l4.375 3.5a1.745 1.745 0 0 0 2.188 0"/></svg>