<svg xmlns="http://www.w3.org/2000/svg" width="24" height="24" fill="none"><path fill="currentColor" d="M12 19.75H5c-2.418 0-3.75-1.332-3.75-3.75V7c0-2.418 1.332-3.75 3.75-3.75h12c2.418 0 3.75 1.332 3.75 3.75v4a.75.75 0 0 1-1.5 0V7c0-1.577-.673-2.25-2.25-2.25H5c-1.577 0-2.25.673-2.25 2.25v9c0 1.577.673 2.25 2.25 2.25h7a.75.75 0 0 1 0 1.5m.03-7.571 4.91-3.572a.75.75 0 1 0-.882-1.213l-4.912 3.572a.248.248 0 0 1-.293 0L5.941 7.394a.75.75 0 0 0-.883 1.213L9.97 12.18a1.747 1.747 0 0 0 2.06-.001m7.997 8.69c0-.144.083-.28.22-.356a.477.477 0 0 1 .47 0 .88.88 0 0 0 1.192-.317l.666-1.119a1.01 1.01 0 0 0 .098-.676.88.88 0 0 0-.42-.542l-.012-.006a.417.417 0 0 1-.208-.351.42.42 0 0 1 .218-.36l.116-.065a.75.75 0 0 0 .277-1.037l-.802-1.346a.751.751 0 0 0-1.01-.271l-.117.065a.482.482 0 0 1-.471-.001.412.412 0 0 1-.218-.356.883.883 0 0 0-.885-.881h-1.334a.884.884 0 0 0-.885.881.413.413 0 0 1-.217.356.487.487 0 0 1-.472.001.888.888 0 0 0-1.192.317l-.672 1.127a1.012 1.012 0 0 0-.09.673.882.882 0 0 0 .419.538.42.42 0 0 1 .219.357.42.42 0 0 1-.222.361.883.883 0 0 0-.418.542c-.052.194-.008.498.095.671l.67 1.125c.245.41.769.55 1.192.315a.48.48 0 0 1 .469 0h.001a.412.412 0 0 1 .217.356c0 .486.396.881.885.881h1.336a.885.885 0 0 0 .885-.882m-2.585-1.663a1.985 1.985 0 0 0-1.37-.214l-.137-.229c.308-.346.484-.796.483-1.269a1.908 1.908 0 0 0-.484-1.256l.138-.231c.463.094.952.022 1.371-.213.416-.235.724-.609.875-1.044h.314c.151.434.46.809.875 1.043.42.237.908.308 1.372.214l.137.23a1.907 1.907 0 0 0-.483 1.266c.001.469.178.915.483 1.259l-.138.23a1.99 1.99 0 0 0-1.37.214c-.416.235-.725.61-.876 1.044h-.314a1.929 1.929 0 0 0-.876-1.044m4.008-.002-.002-.001zm-6.016-3.371.003.002zm.068-.037.003.002zm.832-.228-.004.007zM19.52 17.5a1 1 0 0 0-1-1h-.01a.996.996 0 0 0-.995 1c0 .552.453 1 1.005 1a1 1 0 0 0 1-1"/></svg>