<svg xmlns="http://www.w3.org/2000/svg" width="24" height="24" fill="none"><path fill="currentColor" d="M12.75 19a.75.75 0 0 1-.75.75H5c-2.418 0-3.75-1.332-3.75-3.75V7c0-2.418 1.332-3.75 3.75-3.75h12c2.418 0 3.75 1.332 3.75 3.75v4a.75.75 0 0 1-1.5 0V7c0-1.577-.673-2.25-2.25-2.25H5c-1.577 0-2.25.673-2.25 2.25v9c0 1.577.673 2.25 2.25 2.25h7a.75.75 0 0 1 .75.75Zm3.31-11.606-4.913 3.572a.25.25 0 0 1-.293 0L5.942 7.394a.75.75 0 0 0-.883 1.213l4.912 3.572a1.748 1.748 0 0 0 2.058 0l4.912-3.572a.75.75 0 0 0-.882-1.213ZM22.75 17.5a4.254 4.254 0 0 1-4.25 4.25 4.254 4.254 0 0 1-4.25-4.25 4.254 4.254 0 0 1 4.25-4.25 4.254 4.254 0 0 1 4.25 4.25Zm-7 0c0 .485.137.935.359 1.331l3.722-3.723a2.718 2.718 0 0 0-1.331-.358 2.752 2.752 0 0 0-2.75 2.75Zm5.5 0a2.71 2.71 0 0 0-.359-1.331l-3.722 3.723c.396.221.845.358 1.331.358a2.752 2.752 0 0 0 2.75-2.75Z"/></svg>