<svg xmlns="http://www.w3.org/2000/svg" width="24" height="24" fill="none"><path fill="currentColor" d="M11.75 19a.75.75 0 0 1-.75.75H5c-2.418 0-3.75-1.332-3.75-3.75V7c0-2.418 1.332-3.75 3.75-3.75h12c2.418 0 3.75 1.332 3.75 3.75v4a.75.75 0 0 1-1.5 0V7c0-1.577-.673-2.25-2.25-2.25H5c-1.577 0-2.25.673-2.25 2.25v9c0 1.577.673 2.25 2.25 2.25h6a.75.75 0 0 1 .75.75m5.356-11.441a.75.75 0 0 0-1.048-.165l-4.912 3.572a.25.25 0 0 1-.293 0L5.941 7.394a.75.75 0 0 0-.883 1.213l4.912 3.572a1.748 1.748 0 0 0 2.058 0l4.912-3.572a.748.748 0 0 0 .166-1.048m5.357 11.359c-.63 1.058-2.045 2.832-4.463 2.832s-3.834-1.774-4.463-2.832a2.037 2.037 0 0 1 0-2.086C14.167 15.774 15.582 14 18 14s3.834 1.774 4.463 2.832a2.037 2.037 0 0 1 0 2.086M21.174 17.6c-.466-.785-1.498-2.1-3.174-2.1s-2.708 1.315-3.174 2.099a.536.536 0 0 0 0 .552c.466.785 1.498 2.1 3.174 2.1s2.708-1.315 3.174-2.099v-.001a.539.539 0 0 0 0-.551m-3.154-.973h-.01c-.689 0-1.243.559-1.243 1.248s.564 1.248 1.252 1.248a1.248 1.248 0 0 0 .001-2.496"/></svg>