<svg xmlns="http://www.w3.org/2000/svg" width="24" height="24" fill="none"><path fill="currentColor" d="M14.75 19a.75.75 0 0 1-.75.75H5c-2.418 0-3.75-1.332-3.75-3.75V7c0-2.418 1.332-3.75 3.75-3.75h12c2.418 0 3.75 1.332 3.75 3.75v4a.75.75 0 0 1-1.5 0V7c0-1.577-.673-2.25-2.25-2.25H5c-1.577 0-2.25.673-2.25 2.25v9c0 1.577.673 2.25 2.25 2.25h9a.75.75 0 0 1 .75.75m1.31-11.606-4.913 3.572a.25.25 0 0 1-.293 0L5.942 7.394a.75.75 0 0 0-.883 1.213l4.912 3.572a1.748 1.748 0 0 0 2.058 0l4.912-3.572a.75.75 0 0 0-.882-1.213Zm6.69 10.731v1.75c0 1.156-.719 1.875-1.875 1.875h-2.75c-1.156 0-1.875-.719-1.875-1.875v-1.75c0-.825.371-1.421 1-1.698V15.5c0-1.241 1.01-2.25 2.25-2.25s2.25 1.009 2.25 2.25v.927c.629.277 1 .873 1 1.698m-4-2.625v.75h1.5v-.75a.75.75 0 0 0-1.5 0m2.5 2.625c0-.279-.037-.35-.239-.367L21 17.76c-.007 0-.013-.004-.021-.004-.034-.002-.061-.006-.104-.006h-2.75c-.044 0-.07.004-.104.006-.007 0-.013.004-.021.004l-.011-.002c-.202.017-.239.088-.239.367v1.75c0 .336.038.375.375.375h2.75c.337 0 .375-.039.375-.375z"/></svg>