<svg xmlns="http://www.w3.org/2000/svg" width="24" height="24" fill="none"><path fill="currentColor" d="M11.75 19a.75.75 0 0 1-.75.75H5c-2.418 0-3.75-1.332-3.75-3.75V7c0-2.418 1.332-3.75 3.75-3.75h12c2.418 0 3.75 1.332 3.75 3.75v3a.75.75 0 0 1-1.5 0V7c0-1.577-.673-2.25-2.25-2.25H5c-1.577 0-2.25.673-2.25 2.25v9c0 1.577.673 2.25 2.25 2.25h6a.75.75 0 0 1 .75.75m5.356-11.441a.75.75 0 0 0-1.048-.165l-4.912 3.572a.25.25 0 0 1-.293 0L5.941 7.394a.75.75 0 0 0-.883 1.213l4.912 3.572a1.748 1.748 0 0 0 2.058 0l4.912-3.572a.748.748 0 0 0 .166-1.048m5.644 7.323c-.001.438-.172.85-.482 1.159l-5.516 5.49a.751.751 0 0 1-.53.219H14a.75.75 0 0 1-.75-.75v-2.222c0-.198.078-.389.219-.529l5.491-5.517c.309-.311.72-.482 1.159-.482h.002c.438 0 .85.17 1.158.48l.99.991c.311.31.481.722.481 1.161m-2.728-1.091-.633.636 1.184 1.184.636-.633a.133.133 0 0 0 .041-.098.136.136 0 0 0-.041-.099l-.99-.991a.133.133 0 0 0-.098-.041.14.14 0 0 0-.099.042m-.512 2.878-1.179-1.179-3.581 3.598v1.163h1.163z"/></svg>