<svg xmlns="http://www.w3.org/2000/svg" width="24" height="24" fill="none"><path fill="currentColor" d="M18.748 13.056a.748.748 0 0 0-.033-.252c-.007-.024-.017-.045-.026-.069-.011-.028-.017-.058-.032-.085l-5.281-9.587a1.57 1.57 0 0 0-2.75 0L5.345 12.65c-.015.027-.021.057-.032.085-.009.023-.019.045-.026.069a.747.747 0 0 0-.033.252l.001.01c.001.012.006.022.007.034a.752.752 0 0 0 .059.212c.004.008.003.017.007.025.002.003.001.007.003.011.002.003.005.005.007.01.004.007.012.013.017.021.012.021.018.043.032.063l5.327 7.636a1.57 1.57 0 0 0 2.576 0l5.327-7.637c.011-.016.016-.033.025-.05.009-.016.022-.028.031-.044.002-.003.001-.007.003-.01.004-.009.003-.018.007-.026a.762.762 0 0 0 .059-.212c.001-.012.007-.022.007-.034-.002-.003-.001-.006-.001-.009Zm-6.81-9.269h.124l4.119 7.477-3.845-1.923a.754.754 0 0 0-.671 0L7.82 11.264l4.118-7.477Zm4.107 9.086L12 14.221l-4.045-1.348L12 10.85l4.045 2.023Zm-3.987 7.347h-.115L7.91 14.44l3.853 1.284a.74.74 0 0 0 .474 0l3.853-1.284-4.032 5.78Z"/></svg>