<svg xmlns="http://www.w3.org/2000/svg" width="24" height="24" fill="none"><path fill="currentColor" d="M12 1.25C6.072 1.25 1.25 6.072 1.25 12S6.072 22.75 12 22.75 22.75 17.928 22.75 12 17.928 1.25 12 1.25Zm0 20c-5.101 0-9.25-4.149-9.25-9.25S6.899 2.75 12 2.75s9.25 4.149 9.25 9.25-4.149 9.25-9.25 9.25Zm4.715-8.785c-.003-.009 0-.019-.003-.028-.005-.014-.016-.024-.022-.038-.012-.029-.018-.059-.033-.087L13.136 5.92a1.296 1.296 0 0 0-2.272 0l-3.521 6.392c-.015.028-.022.058-.033.086-.006.014-.017.024-.022.038-.003.009-.001.019-.003.028a.743.743 0 0 0-.032.26c.001.012.005.023.007.036a.735.735 0 0 0 .093.279c.012.02.018.043.032.063l3.551 5.091a1.297 1.297 0 0 0 2.128 0l3.551-5.09c.014-.02.02-.044.032-.064.012-.022.023-.042.033-.065a.767.767 0 0 0 .06-.214c.001-.012.006-.023.007-.036a.744.744 0 0 0-.032-.259ZM12 6.968l2.909 5.28-2.909.969-2.909-.969L12 6.968Zm0 10.131-2.091-2.997 1.853.618a.74.74 0 0 0 .474 0l1.853-.618L12 17.1Z"/></svg>