<svg xmlns="http://www.w3.org/2000/svg" width="24" height="24" fill="none"><path fill="currentColor" d="M19.696 19.14a.75.75 0 0 1-.416.976 8.742 8.742 0 0 1-3.28.634c-3.863 0-7.144-2.52-8.301-6H5a.75.75 0 0 1 0-1.5h2.35a8.723 8.723 0 0 1-.1-1.25c0-.426.041-.841.1-1.25H5a.75.75 0 0 1 0-1.5h2.699c1.156-3.48 4.437-6 8.301-6 1.142 0 2.247.218 3.286.646a.75.75 0 0 1-.572 1.386A7.067 7.067 0 0 0 16 4.749c-3.024 0-5.619 1.863-6.705 4.5H15a.75.75 0 0 1 0 1.5H8.866a7.254 7.254 0 0 0-.116 1.25c0 .427.044.843.116 1.25H15a.75.75 0 0 1 0 1.5H9.295c1.086 2.637 3.681 4.5 6.705 4.5a7.25 7.25 0 0 0 2.72-.526.752.752 0 0 1 .976.417"/></svg>