<svg xmlns="http://www.w3.org/2000/svg" width="24" height="24" fill="none"><path fill="currentColor" d="M17.625 2.25H6.375c-2.66 0-4.125 1.465-4.125 4.125v11.25c0 2.66 1.465 4.125 4.125 4.125h11.25c2.66 0 4.125-1.465 4.125-4.125V6.375c0-2.66-1.465-4.125-4.125-4.125Zm2.625 15.375c0 1.84-.785 2.625-2.625 2.625H6.375c-1.84 0-2.625-.785-2.625-2.625V6.375c0-1.84.785-2.625 2.625-2.625h11.25c1.84 0 2.625.785 2.625 2.625v11.25Zm-3.67-7.954a.75.75 0 1 1-1.061 1.06l-1.42-1.418v5.389a.75.75 0 0 1-1.5 0v-7.2a.75.75 0 0 1 1.28-.53L16.58 9.67Zm-5.18-.369v7.2a.75.75 0 0 1-1.28.53l-2.7-2.7a.75.75 0 1 1 1.061-1.061l1.42 1.42V9.3a.75.75 0 1 1 1.499.001Z"/></svg>