<svg xmlns="http://www.w3.org/2000/svg" width="24" height="24" fill="none"><path fill="currentColor" d="M21 8.75a.75.75 0 0 1-.75-.75V4.5c0-.589-.161-.75-.75-.75H16a.75.75 0 0 1 0-1.5h3.5c1.409 0 2.25.841 2.25 2.25V8a.75.75 0 0 1-.75.75ZM3.75 8V4.5c0-.589.161-.75.75-.75H8a.75.75 0 0 0 0-1.5H4.5c-1.409 0-2.25.841-2.25 2.25V8a.75.75 0 0 0 1.5 0Zm5 13a.75.75 0 0 0-.75-.75H4.5c-.589 0-.75-.161-.75-.75V16a.75.75 0 0 0-1.5 0v3.5c0 1.409.841 2.25 2.25 2.25H8a.75.75 0 0 0 .75-.75Zm13-1.5V16a.75.75 0 0 0-1.5 0v3.5c0 .589-.161.75-.75.75H16a.75.75 0 0 0 0 1.5h3.5c1.409 0 2.25-.841 2.25-2.25Z"/></svg>