<svg xmlns="http://www.w3.org/2000/svg" width="24" height="24" fill="none"><path fill="currentColor" d="M16.45 13.4c.33.25.39.72.14 1.05-.25.33-.54.63-.85.9V18c0 .41-.34.75-.75.75s-.75-.34-.75-.75v-1.72c-.16.07-.33.13-.5.19V17c0 .41-.34.75-.75.75s-.75-.34-.75-.75v-.26c-.08 0-.17.01-.25.01-1.79 0-3.51-.86-4.59-2.3a.75.75 0 0 1 1.2-.9c.8 1.06 2.07 1.7 3.39 1.7 1.32 0 2.58-.62 3.4-1.7.25-.33.72-.39 1.05-.14l.01-.01Zm6.3-1.4c0 5.93-4.82 10.75-10.75 10.75S1.25 17.93 1.25 12 6.07 1.25 12 1.25 22.75 6.07 22.75 12Zm-1.5 0c0-5.1-4.15-9.25-9.25-9.25S2.75 6.9 2.75 12 6.9 21.25 12 21.25s9.25-4.15 9.25-9.25Zm-5.84-3.75c-.96 0-1.81.6-2.12 1.51-.13.39.07.82.46.95.39.14.82-.07.95-.46a.747.747 0 0 1 1.4 0 .76.76 0 0 0 .96.47c.39-.14.6-.56.46-.95-.31-.9-1.16-1.51-2.12-1.51l.01-.01Zm-7.52 1.99a.747.747 0 0 1 1.4 0 .76.76 0 0 0 .96.47c.39-.14.6-.56.46-.95-.31-.9-1.16-1.51-2.12-1.51-.96 0-1.81.6-2.12 1.51-.13.39.07.82.46.95.39.14.82-.07.95-.46l.01-.01Z"/></svg>