<svg xmlns="http://www.w3.org/2000/svg" width="24" height="24" fill="none"><path fill="currentColor" d="M16.71 10.04c.13.39-.07.82-.46.95a.748.748 0 0 1-.95-.46c-.12-.36-.75-.36-.88 0a.76.76 0 0 1-.71.51.753.753 0 0 1-.71-.99 1.972 1.972 0 0 1 3.72 0zm-8 .49c.12-.36.75-.36.88 0 .11.31.4.51.71.51a.753.753 0 0 0 .71-.99 1.972 1.972 0 0 0-3.72 0c-.13.39.07.82.46.95.39.14.82-.07.95-.46zm13.37 5.05a2.2 2.2 0 0 1-1.32.64c-1.62 3.37-4.99 5.53-8.76 5.53-3.77 0-7.14-2.16-8.76-5.53-.49-.06-.96-.28-1.32-.64-.43-.43-.67-1-.67-1.6 0-.6.25-1.19.71-1.64.09-.09.19-.16.3-.23V12c0-5.38 4.37-9.75 9.75-9.75s9.75 4.37 9.75 9.75v.11c.1.07.21.15.3.23.45.45.7 1.04.71 1.64 0 .6-.23 1.16-.67 1.6zM2.75 13.99c0 .19.08.38.23.53.15.15.33.23.53.23.21 0 .41-.09.59-.27.29-.29.48-.99.58-1.65-.48.07-.96.19-1.31.36 0 0-.02 0-.03.01-.13.06-.24.13-.31.21a.85.85 0 0 0-.27.59zm16.51 1.88c-.15-.09-.29-.2-.41-.33-.98-.98-1.08-3.11-1.1-3.52 0-.21.07-.4.22-.55.15-.15.34-.23.55-.22.22 0 .94.04 1.7.22-.27-4.3-3.85-7.72-8.22-7.72-4.37 0-7.95 3.42-8.22 7.72.77-.18 1.48-.22 1.7-.22.21-.01.4.07.55.22.15.15.22.34.22.55-.01.42-.12 2.54-1.1 3.52-.13.13-.27.24-.41.33 1.43 2.67 4.19 4.38 7.26 4.38 3.07 0 5.83-1.7 7.26-4.38m1.99-1.88c0-.21-.09-.41-.27-.59-.08-.08-.19-.15-.31-.21 0 0-.02 0-.03-.01-.35-.17-.84-.29-1.31-.36.1.67.29 1.37.58 1.65.17.17.38.27.59.27.19 0 .38-.08.53-.23.15-.15.23-.34.23-.53zm-5.69-.46c.32.27.46.7.36 1.11A3.996 3.996 0 0 1 12 17.75c-1.89 0-3.5-1.28-3.92-3.11-.09-.41.04-.83.36-1.11.33-.29.8-.37 1.21-.2 1.58.63 3.11.63 4.68 0 .41-.16.88-.09 1.21.2zm-1.35 1.44c-1.46.44-2.94.44-4.4 0 .44.78 1.26 1.28 2.2 1.28.94 0 1.77-.5 2.2-1.28"/></svg>