<svg xmlns="http://www.w3.org/2000/svg" width="24" height="24" fill="none"><path fill="currentColor" d="M15.48 18.75c-.16 0-.33-.03-.48-.09-2.02-.81-3.97-.81-5.99 0-.45.18-.96.1-1.33-.22-.35-.3-.5-.76-.4-1.2A4.817 4.817 0 0 1 12 13.49c2.27 0 4.21 1.54 4.72 3.75.1.44-.05.9-.4 1.2-.24.2-.54.31-.84.31M12 14.98c-1.4 0-2.62.85-3.11 2.11 2.07-.72 4.16-.72 6.22 0A3.322 3.322 0 0 0 12 14.98m4.67-3.65c.19-.37.04-.82-.34-1.01l-.66-.33.66-.33c.37-.19.52-.64.34-1.01a.763.763 0 0 0-1.01-.34l-2 1a.77.77 0 0 0-.42.67c0 .28.16.54.42.67l2 1a.742.742 0 0 0 1-.33zm-8.33.34 2-1a.76.76 0 0 0 .41-.67c0-.28-.16-.54-.42-.67l-2-1a.763.763 0 0 0-1.01.34c-.19.37-.04.82.34 1.01l.66.33-.66.33a.75.75 0 0 0 .67 1.34zM12 22.75C6.07 22.75 1.25 17.93 1.25 12S6.07 1.25 12 1.25 22.75 6.07 22.75 12 17.93 22.75 12 22.75m0-20C6.9 2.75 2.75 6.9 2.75 12S6.9 21.25 12 21.25s9.25-4.15 9.25-9.25S17.1 2.75 12 2.75"/></svg>