<svg xmlns="http://www.w3.org/2000/svg" width="24" height="24" fill="none"><path fill="currentColor" d="M12 22.75C6.07 22.75 1.25 17.93 1.25 12S6.07 1.25 12 1.25 22.75 6.07 22.75 12 17.93 22.75 12 22.75Zm0-20C6.9 2.75 2.75 6.9 2.75 12S6.9 21.25 12 21.25s9.25-4.15 9.25-9.25S17.1 2.75 12 2.75Zm-2.8 9.46h-.06c-.1 0-2.5-.21-3.48-1.85-.42-.69-.52-1.45-.3-2.1.19-.54.61-.96 1.18-1.17.39-.14.74-.12 1.06-.03.18-.28.44-.52.83-.66.58-.21 1.16-.16 1.66.13.58.35.99 1 1.12 1.8.3 1.89-1.4 3.58-1.48 3.66a.74.74 0 0 1-.53.21v.01ZM7.1 8.49h-.04c-.2.07-.26.18-.29.26-.07.21 0 .53.17.83.39.65 1.36.96 1.96 1.08.39-.48.93-1.33.81-2.09-.05-.34-.21-.63-.4-.74-.07-.04-.18-.08-.39-.01-.13.05-.14.36-.14.42a.77.77 0 0 1-.5.75.75.75 0 0 1-.85-.26c-.03-.03-.2-.23-.33-.23v-.01Zm7.69 3.72c-.2 0-.38-.08-.53-.21-.07-.07-1.78-1.77-1.48-3.66.12-.8.53-1.45 1.12-1.8.49-.29 1.08-.34 1.66-.13.39.14.65.37.84.63.31-.08.66-.09 1.05.05.57.21.99.63 1.18 1.17.23.64.12 1.41-.3 2.1-.99 1.64-3.39 1.85-3.49 1.85h-.06.01Zm.07-4.44c-.09 0-.15.03-.19.05-.19.11-.35.41-.4.74-.12.76.42 1.62.81 2.09.61-.11 1.58-.42 1.97-1.08.18-.29.24-.62.17-.83-.03-.08-.08-.18-.29-.26-.17-.06-.33.1-.36.14-.21.24-.55.33-.84.21a.747.747 0 0 1-.48-.71c0-.03-.01-.26-.18-.32a.544.544 0 0 0-.2-.04l-.01.01ZM12 18.74c-2.27 0-4.21-1.54-4.72-3.75-.1-.44.05-.9.4-1.2.37-.31.88-.4 1.33-.22 2.01.81 3.97.81 5.99 0 .45-.18.96-.1 1.33.22.35.3.5.76.4 1.2a4.817 4.817 0 0 1-4.72 3.75H12Zm-3.11-3.61A3.322 3.322 0 0 0 12 17.24c1.4 0 2.62-.85 3.11-2.11-2.07.72-4.16.72-6.22 0Z"/></svg>