<svg xmlns="http://www.w3.org/2000/svg" width="24" height="24" fill="none"><path fill="currentColor" d="M20 7.75c-1.42 0-2.5-1.1-2.5-2.57 0-1.59 1.76-3.49 1.96-3.7.28-.3.8-.3 1.09 0 .2.21 1.96 2.11 1.96 3.7 0 1.46-1.08 2.57-2.5 2.57zm0-4.59c-.51.67-1 1.5-1 2.02 0 .63.41 1.07 1 1.07.59 0 1-.44 1-1.07 0-.52-.49-1.35-1-2.02M22.75 12c0-.85-.1-1.67-.29-2.46A.75.75 0 1 0 21 9.9c.17.67.25 1.37.25 2.1 0 5.1-4.15 9.25-9.25 9.25S2.75 17.1 2.75 12 6.9 2.75 12 2.75c.91 0 1.82.13 2.68.4.4.12.82-.1.94-.5a.75.75 0 0 0-.5-.94c-1.01-.31-2.06-.46-3.12-.46C6.07 1.25 1.25 6.07 1.25 12S6.07 22.75 12 22.75 22.75 17.93 22.75 12M12 18.75c-2.27 0-4.21-1.54-4.72-3.75-.1-.44.05-.9.4-1.2.37-.31.87-.4 1.32-.22 2.02.81 3.97.81 5.99 0 .45-.18.96-.1 1.32.22.35.3.5.76.4 1.2a4.817 4.817 0 0 1-4.72 3.75zm-3.11-3.61A3.322 3.322 0 0 0 12 17.25c1.4 0 2.62-.85 3.11-2.11-2.07.72-4.16.72-6.22 0m8.18-4.93c.39-.14.6-.56.46-.95-.31-.9-1.16-1.51-2.12-1.51-.96 0-1.81.6-2.12 1.51-.13.39.07.82.46.95.4.14.82-.07.95-.46a.747.747 0 0 1 1.4 0 .76.76 0 0 0 .96.47zm-6.82 0c.39-.14.6-.56.46-.95-.31-.9-1.16-1.51-2.12-1.51-.96 0-1.81.6-2.12 1.51-.13.39.07.82.46.95.4.14.82-.07.95-.46a.747.747 0 0 1 1.4 0 .76.76 0 0 0 .96.47z"/></svg>