<svg xmlns="http://www.w3.org/2000/svg" width="24" height="24" fill="none"><path fill="currentColor" d="M12 1.25C6.07 1.25 1.25 6.07 1.25 12S6.07 22.75 12 22.75 22.75 17.93 22.75 12 17.93 1.25 12 1.25m0 20c-5.1 0-9.25-4.15-9.25-9.25S6.9 2.75 12 2.75 21.25 6.9 21.25 12 17.1 21.25 12 21.25M17.75 11c0 1.01-.53 1.75-1.25 1.75s-1.25-.74-1.25-1.75c0-.09 0-.17.02-.25H14c-.41 0-.75-.34-.75-.75s.34-.75.75-.75h2.5c.72 0 1.25.74 1.25 1.75m-9.48-.25H7c-.41 0-.75-.34-.75-.75s.34-.75.75-.75h2.5c.72 0 1.25.74 1.25 1.75s-.53 1.75-1.25 1.75-1.25-.74-1.25-1.75c0-.09 0-.17.02-.25m7.16 4.65a.75.75 0 0 1-.9 1.2c-1.48-1.12-3.63-1.11-5.1 0a.76.76 0 0 1-.45.15.75.75 0 0 1-.45-1.35c1.99-1.5 4.89-1.51 6.9 0"/></svg>