<svg xmlns="http://www.w3.org/2000/svg" width="24" height="24" fill="none"><path fill="currentColor" d="M15.58 6.74H17c.41 0 .75-.34.75-.75V3.22c0-.37-.26-.68-.62-.74-.05 0-1.37-.23-2.65-.23-3.09 0-5.01 1.97-5.01 5.13v1.73H8c-.41 0-.75.34-.75.75v3.26c0 .41.34.75.75.75h1.47v7.12c0 .41.34.75.75.75h3.52c.41 0 .75-.34.75-.75v-7.12h1.88c.37 0 .69-.27.74-.64l.5-3.26a.754.754 0 0 0-.17-.6.765.765 0 0 0-.57-.26h-2.38V7.75c0-.71.33-1.01 1.09-1.01Zm-1.84 3.87h2.25l-.27 1.76h-1.98c-.41 0-.75.34-.75.75v7.12h-2.02v-7.12c0-.41-.34-.75-.75-.75H8.75v-1.76h1.47c.41 0 .75-.34.75-.75V7.38c0-2.31 1.28-3.63 3.51-3.63.64 0 1.31.06 1.77.12v1.37h-.67c-1.6 0-2.59.96-2.59 2.51v2.11c0 .41.34.75.75.75Z"/></svg>