<svg xmlns="http://www.w3.org/2000/svg" width="24" height="24" fill="none"><path fill="currentColor" d="M9.73 12.25c-.16 0-.33-.04-.48-.12l-.8-.42-.8.42c-.35.18-.77.15-1.09-.08-.32-.23-.48-.62-.41-1.01l.15-.89-.67-.65c-.28-.27-.38-.67-.26-1.04s.43-.63.82-.69l.94-.14.4-.81c.35-.71 1.5-.71 1.85 0l.4.81.94.14c.39.06.7.32.82.69.12.37.02.77-.26 1.04l-.67.65.15.89c.07.39-.09.78-.41 1.01-.18.13-.39.2-.61.2zM7.37 9.11l.15.14c.24.23.35.57.29.9l-.04.21.19-.1c.29-.15.65-.15.94 0l.19.1-.04-.21c-.06-.33.05-.67.29-.9l.15-.14-.21-.03a1.01 1.01 0 0 1-.76-.55l-.1-.2-.1.19c-.15.3-.44.51-.76.55l-.21.03zm9.59 3.14c-.16 0-.33-.04-.48-.12l-.8-.42-.8.42c-.35.18-.77.15-1.09-.08-.32-.23-.48-.62-.41-1.01l.15-.88-.67-.65c-.28-.27-.38-.67-.26-1.04s.43-.63.82-.69l.94-.14.4-.81c.35-.71 1.5-.71 1.85 0l.4.81.94.14c.39.06.7.32.82.69.12.37.02.77-.26 1.04l-.67.65.15.89c.07.39-.09.78-.41 1.01-.18.13-.39.2-.61.2zM14.6 9.11l.15.15c.24.23.35.57.29.9l-.04.21.19-.1c.29-.15.65-.15.94 0l.19.1-.04-.21c-.06-.33.05-.67.3-.9l.14-.14-.21-.03a1.01 1.01 0 0 1-.76-.55l-.1-.2-.1.19c-.15.3-.44.51-.76.55l-.21.03zm-2.61 13.64C6.06 22.75 1.24 17.93 1.24 12S6.06 1.25 11.99 1.25 22.74 6.07 22.74 12s-4.82 10.75-10.75 10.75m0-20c-5.1 0-9.25 4.15-9.25 9.25s4.15 9.25 9.25 9.25 9.25-4.15 9.25-9.25-4.15-9.25-9.25-9.25m.06 16c-2.27 0-4.21-1.54-4.72-3.75-.1-.44.05-.9.4-1.2.37-.31.88-.4 1.33-.22 2.01.81 3.97.81 5.99 0 .45-.18.96-.1 1.33.22.35.3.5.76.4 1.2a4.817 4.817 0 0 1-4.72 3.75zm-3.11-3.61a3.322 3.322 0 0 0 3.11 2.11c1.4 0 2.62-.85 3.11-2.11-2.07.72-4.16.72-6.22 0"/></svg>