<svg xmlns="http://www.w3.org/2000/svg" width="24" height="24" fill="none"><path fill="currentColor" d="M12 22.75C6.07 22.75 1.25 17.93 1.25 12S6.07 1.25 12 1.25 22.75 6.07 22.75 12 17.93 22.75 12 22.75m0-20C6.9 2.75 2.75 6.9 2.75 12S6.9 21.25 12 21.25s9.25-4.15 9.25-9.25S17.1 2.75 12 2.75M10.25 10c0-1.01-.53-1.75-1.25-1.75S7.75 8.99 7.75 10s.53 1.75 1.25 1.75 1.25-.74 1.25-1.75m6.35 5.45a.749.749 0 1 0-1.19-.91 4.243 4.243 0 0 1-3.4 1.7c-1.34 0-2.59-.64-3.39-1.7a.75.75 0 0 0-1.2.9c1.08 1.44 2.8 2.3 4.59 2.3s3.49-.84 4.6-2.3zm-.35-4.39c.39-.13.6-.56.46-.95a1.81 1.81 0 0 0-3.42 0c-.13.39.07.82.46.95.39.14.82-.07.95-.46.03-.1.14-.21.29-.21.15 0 .26.11.29.2.11.31.4.51.71.51.08 0 .16-.01.24-.04z"/></svg>