<svg xmlns="http://www.w3.org/2000/svg" width="24" height="24" fill="none"><path fill="currentColor" d="M12 1.25C6.07 1.25 1.25 6.07 1.25 12a10.7 10.7 0 0 0 9.07 10.62c.22.04.44-.03.6-.17.17-.14.26-.35.26-.57V15c0-.41-.34-.75-.75-.75H8.76v-1.5h1.67c.41 0 .75-.34.75-.75V9.8c0-2.52 1.65-3.05 3.03-3.05.53 0 1.08.05 1.49.1v.96h-.51c-1.47 0-2.38.89-2.38 2.31V12c0 .41.34.75.75.75h2.02l-.23 1.5h-1.79c-.41 0-.75.34-.75.75v6.88a.742.742 0 0 0 .75.75h.12c5.26-.82 9.07-5.29 9.07-10.62 0-5.93-4.82-10.75-10.75-10.75zm2.31 19.71v-5.21H16c.37 0 .69-.27.74-.64l.45-3a.754.754 0 0 0-.17-.6.765.765 0 0 0-.57-.26h-2.14v-1.13c0-.58.25-.81.88-.81h1.26c.41 0 .75-.34.75-.75V6.19c0-.37-.26-.68-.62-.74-.05 0-1.22-.21-2.36-.21-2.79 0-4.53 1.74-4.53 4.55v1.45H8.02c-.41 0-.75.34-.75.75v3c0 .41.34.75.75.75h1.67v5.21a9.198 9.198 0 0 1-6.94-8.96c0-5.1 4.15-9.25 9.25-9.25s9.25 4.15 9.25 9.25c0 4.29-2.87 7.92-6.94 8.96z"/></svg>