<svg xmlns="http://www.w3.org/2000/svg" width="24" height="24" fill="none"><path fill="currentColor" d="M13.75 12.21a.744.744 0 0 1-.46-.95c.31-.9 1.16-1.51 2.12-1.51.96 0 1.81.6 2.12 1.51a.748.748 0 0 1-.71.99c-.31 0-.6-.19-.71-.51a.747.747 0 0 0-1.4 0 .74.74 0 0 1-.95.46zm-3.05-.95c-.31-.9-1.16-1.51-2.12-1.51-.96 0-1.81.6-2.12 1.51-.13.39.07.82.46.95.4.14.82-.07.95-.46a.747.747 0 0 1 1.4 0 .76.76 0 0 0 .96.47c.39-.14.6-.56.46-.95zm-.96 5.24c0-1.24 1.01-2.25 2.25-2.25s2.25 1.01 2.25 2.25-1.01 2.25-2.25 2.25-2.25-1.01-2.25-2.25m1.5 0c0 .41.34.75.75.75s.75-.34.75-.75-.34-.75-.75-.75-.75.34-.75.75m10.3-7.51c-.4.1-.65.5-.55.91.17.67.25 1.37.25 2.1 0 5.1-4.15 9.25-9.25 9.25S2.74 17.1 2.74 12s4.15-9.25 9.25-9.25c.91 0 1.82.13 2.68.4.4.12.82-.1.94-.5a.75.75 0 0 0-.5-.94c-1.01-.31-2.06-.46-3.12-.46C6.06 1.25 1.24 6.07 1.24 12s4.82 10.75 10.75 10.75S22.74 17.93 22.74 12c0-.85-.1-1.67-.29-2.46-.1-.4-.51-.65-.91-.55m-2.35-6.24h.99l-1.52 1.52a.751.751 0 0 0 .53 1.28h2.8c.41 0 .75-.34.75-.75s-.34-.75-.75-.75H21l1.52-1.52a.751.751 0 0 0-.53-1.28h-2.8c-.41 0-.75.34-.75.75s.34.75.75.75m-4.95 2.52c0 .41.34.75.75.75h.52l-1.05 1.05a.751.751 0 0 0 .53 1.28h2.33c.41 0 .75-.34.75-.75s-.34-.75-.75-.75h-.52l1.05-1.05a.751.751 0 0 0-.53-1.28h-2.33c-.41 0-.75.34-.75.75"/></svg>