<svg xmlns="http://www.w3.org/2000/svg" width="24" height="24" fill="none"><path fill="currentColor" d="M12 2.25c-5.56 0-9.75 4.08-9.75 9.48 0 2.75 1.09 5.24 3.07 6.99l.05 1.6c.03.79.68 1.42 1.47 1.42h.04c.19 0 .37-.05.55-.12l1.77-.79c.9.25 1.85.37 2.8.37 5.56 0 9.75-4.08 9.75-9.48S17.56 2.24 12 2.24v.01Zm0 17.46c-.82 0-1.63-.11-2.41-.32-.33-.09-.68-.06-.98.08l-1.74.81-.05-1.59c0-.4-.19-.79-.49-1.06-1.66-1.49-2.58-3.58-2.58-5.9 0-4.55 3.55-7.98 8.25-7.98s8.25 3.43 8.25 7.98c0 4.55-3.55 7.98-8.25 7.98Zm5.43-10.04-2.66 4.27c-.4.64-1.24.84-1.87.43l-.09-.06-2.11-1.61a.526.526 0 0 0-.65 0L7.2 14.9c-.38.29-.88-.17-.62-.58l2.66-4.28c.4-.64 1.24-.84 1.87-.43l.09.06 2.11 1.61c.19.15.46.15.65 0l2.85-2.2c.38-.29.88.17.62.58v.01Z"/></svg>