<svg xmlns="http://www.w3.org/2000/svg" width="24" height="24" fill="none"><path fill="currentColor" d="M21 5.25a.75.75 0 0 0-.75.75v3.498l-4.642-3.666a2.668 2.668 0 0 0-2.834-.31 2.69 2.69 0 0 0-1.524 2.44v1.535L6.608 5.831a2.668 2.668 0 0 0-2.834-.31 2.69 2.69 0 0 0-1.524 2.44v8.074c0 1.05.584 1.985 1.524 2.441a2.67 2.67 0 0 0 2.834-.311l4.642-3.666v1.535c0 1.05.584 1.985 1.524 2.441a2.67 2.67 0 0 0 2.834-.311l4.642-3.666V18a.75.75 0 0 0 1.5 0V6a.75.75 0 0 0-.75-.75m-10.21 7.704-5.111 4.037a1.16 1.16 0 0 1-1.25.138 1.186 1.186 0 0 1-.679-1.09V7.964c0-.478.254-.885.679-1.091a1.19 1.19 0 0 1 .521-.122c.258 0 .512.088.729.259l5.111 4.036c.292.231.46.579.46.954s-.168.722-.46.953Zm9 0-5.111 4.037a1.16 1.16 0 0 1-1.25.138 1.186 1.186 0 0 1-.679-1.09V7.964c0-.478.254-.885.679-1.091a1.19 1.19 0 0 1 .521-.122c.258 0 .512.088.729.259l5.111 4.036c.292.231.46.579.46.954s-.168.722-.46.953Z"/></svg>