<svg xmlns="http://www.w3.org/2000/svg" width="24" height="24" fill="none"><path fill="currentColor" d="M17.23 9c.92-.68 1.52-1.77 1.52-3 0-2.07-1.68-3.75-3.75-3.75H9C6.93 2.25 5.25 3.93 5.25 6c0 1.23.6 2.32 1.52 3-.92.68-1.52 1.77-1.52 3s.6 2.32 1.52 3c-.92.68-1.52 1.77-1.52 3 0 2.07 1.68 3.75 3.75 3.75 2.07 0 3.75-1.68 3.75-3.75v-3.02c.63.48 1.4.77 2.25.77 2.07 0 3.75-1.68 3.75-3.75 0-1.23-.6-2.32-1.52-3m.02-3c0 1.24-1.01 2.25-2.25 2.25h-2.25v-4.5H15c1.24 0 2.25 1.01 2.25 2.25M6.75 6c0-1.24 1.01-2.25 2.25-2.25h2.25v4.5H9C7.76 8.25 6.75 7.24 6.75 6m0 6c0-1.24 1.01-2.25 2.25-2.25h2.25v4.5H9c-1.24 0-2.25-1.01-2.25-2.25m4.5 6c0 1.24-1.01 2.25-2.25 2.25S6.75 19.24 6.75 18 7.76 15.75 9 15.75h2.25zM15 14.25c-1.24 0-2.25-1.01-2.25-2.25S13.76 9.75 15 9.75s2.25 1.01 2.25 2.25-1.01 2.25-2.25 2.25"/></svg>