<svg xmlns="http://www.w3.org/2000/svg" width="24" height="24" fill="none"><path fill="currentColor" d="M12 20.25H6c-1.577 0-2.25-.673-2.25-2.25V6c0-1.577.673-2.25 2.25-2.25h5.25V6c0 2.418 1.332 3.75 3.75 3.75h2.25V12a.75.75 0 0 0 1.5 0V9a.747.747 0 0 0-.22-.53l-6-6a.749.749 0 0 0-.53-.22H6C3.582 2.25 2.25 3.582 2.25 6v12c0 2.418 1.332 3.75 3.75 3.75h6a.75.75 0 0 0 0-1.5ZM12.75 6V4.811l3.439 3.439H15c-1.577 0-2.25-.673-2.25-2.25Zm-5 6a.75.75 0 1 1-1.5 0 .75.75 0 0 1 1.5 0Zm0 4a.75.75 0 1 1-1.5 0 .75.75 0 0 1 1.5 0ZM14 12.75H9.5a.75.75 0 0 1 0-1.5H14a.75.75 0 0 1 0 1.5Zm-4.5 4a.75.75 0 0 1 0-1.5H11a.75.75 0 0 1 0 1.5H9.5Zm9-2.5a4.254 4.254 0 0 0-4.25 4.25 4.254 4.254 0 0 0 4.25 4.25 4.254 4.254 0 0 0 4.25-4.25 4.254 4.254 0 0 0-4.25-4.25Zm0 1.5c.485 0 .935.137 1.331.358l-3.722 3.723a2.722 2.722 0 0 1-.359-1.331 2.753 2.753 0 0 1 2.75-2.75Zm0 5.5a2.72 2.72 0 0 1-1.331-.358l3.722-3.723c.221.396.359.846.359 1.331a2.753 2.753 0 0 1-2.75 2.75Z"/></svg>