<svg xmlns="http://www.w3.org/2000/svg" width="24" height="24" fill="none"><path fill="currentColor" d="m20.53 8.47-6-6a.749.749 0 0 0-.53-.22H8C5.582 2.25 4.25 3.582 4.25 6v12c0 2.418 1.332 3.75 3.75 3.75h9c2.418 0 3.75-1.332 3.75-3.75V9a.747.747 0 0 0-.22-.53m-5.78-3.659 3.439 3.439H17c-1.577 0-2.25-.673-2.25-2.25zM17 20.25H8c-1.577 0-2.25-.673-2.25-2.25V6c0-1.577.673-2.25 2.25-2.25h5.25V6c0 2.418 1.332 3.75 3.75 3.75h2.25V18c0 1.577-.673 2.25-2.25 2.25m-1.157-8.557a.751.751 0 0 0-1.011-.271l-.116.064a.482.482 0 0 1-.47-.001.412.412 0 0 1-.219-.355.884.884 0 0 0-.885-.881h-1.334a.885.885 0 0 0-.885.881c0 .145-.083.28-.217.356a.481.481 0 0 1-.472 0 .889.889 0 0 0-1.192.317l-.672 1.126a1.012 1.012 0 0 0-.09.673.882.882 0 0 0 .419.538.418.418 0 0 1 .218.358.413.413 0 0 1-.221.359.886.886 0 0 0-.418.542c-.052.194-.008.498.095.671l.67 1.125a.883.883 0 0 0 1.192.315.48.48 0 0 1 .47 0 .413.413 0 0 1 .217.356c0 .486.396.881.885.881h1.336a.884.884 0 0 0 .884-.881c0-.144.083-.28.22-.356a.482.482 0 0 1 .47 0 .882.882 0 0 0 1.192-.317l.666-1.119c.105-.174.15-.479.098-.675a.882.882 0 0 0-.42-.543l-.012-.006a.417.417 0 0 1-.208-.351.42.42 0 0 1 .218-.36l.116-.065a.75.75 0 0 0 .277-1.038zm-.826 4.07-.138.23a2.002 2.002 0 0 0-1.37.213c-.416.235-.725.61-.876 1.044h-.314a1.929 1.929 0 0 0-.876-1.044 1.99 1.99 0 0 0-1.37-.214l-.137-.229c.308-.347.484-.796.482-1.268a1.903 1.903 0 0 0-.483-1.257l.138-.231c.463.094.952.022 1.371-.213.416-.235.724-.609.875-1.044h.314c.151.434.46.809.875 1.043.42.237.908.309 1.372.214l.137.23a1.907 1.907 0 0 0-.483 1.266c0 .469.177.915.483 1.26M13.52 14.5a1 1 0 0 1-1 1 1.005 1.005 0 0 1-1.005-1c0-.552.443-1 .995-1h.01a1 1 0 0 1 1 1"/></svg>