<svg xmlns="http://www.w3.org/2000/svg" width="24" height="24" fill="none"><path fill="currentColor" d="m20.53 7.47-5-5a.749.749 0 0 0-.53-.22h-4.6c-2.002 0-3.15 1.148-3.15 3.15v.85H6.4c-2.002 0-3.15 1.148-3.15 3.15v10.2c0 2.001 1.148 3.15 3.15 3.15h7.2c2.001 0 3.149-1.148 3.149-3.15v-.85h.85c2.002 0 3.15-1.148 3.15-3.15V8a.742.742 0 0 0-.219-.53Zm-4.78-2.659 2.439 2.439H17.5c-1.26 0-1.75-.491-1.75-1.75v-.689Zm-.5 14.789c0 1.187-.463 1.65-1.65 1.65H6.4c-1.187 0-1.649-.463-1.649-1.65V9.4c0-1.187.463-1.65 1.65-1.65h.85v7.85c0 2.001 1.148 3.15 3.15 3.15h4.85v.85h-.001Zm2.35-2.35h-7.2c-1.187 0-1.649-.463-1.649-1.65V5.4c0-1.187.463-1.65 1.65-1.65h3.85V5.5c0 2.096 1.154 3.25 3.25 3.25h1.75v6.85c-.001 1.187-.464 1.65-1.65 1.65Z"/></svg>