<svg xmlns="http://www.w3.org/2000/svg" width="24" height="24" fill="none"><path fill="currentColor" d="m20.53 8.47-6-6a.749.749 0 0 0-.53-.22H8C5.582 2.25 4.25 3.582 4.25 6v12c0 2.418 1.332 3.75 3.75 3.75h9c2.418 0 3.75-1.332 3.75-3.75V9a.747.747 0 0 0-.22-.53Zm-5.78-3.659 3.439 3.439H17c-1.577 0-2.25-.673-2.25-2.25V4.811ZM17 20.25H8c-1.577 0-2.25-.673-2.25-2.25V6c0-1.577.673-2.25 2.25-2.25h5.25V6c0 2.418 1.332 3.75 3.75 3.75h2.25V18c0 1.577-.673 2.25-2.25 2.25Zm-1.22-10.02c-.31-.31-.722-.48-1.159-.48h-.002c-.438 0-.851.172-1.159.482l-5.491 5.517a.745.745 0 0 0-.219.529V18.5c0 .414.336.75.75.75h2.223a.75.75 0 0 0 .529-.219l5.516-5.49c.311-.31.481-.721.482-1.159 0-.438-.17-.851-.48-1.161l-.99-.991Zm-1.159 1.02c.026 0 .064.007.098.041l.99.991a.136.136 0 0 1 .041.099.134.134 0 0 1-.041.098l-.636.633-1.184-1.184.633-.636a.137.137 0 0 1 .1-.042Zm-4.208 6.5H9.25v-1.163l3.581-3.598 1.179 1.179-3.597 3.582Z"/></svg>