<svg xmlns="http://www.w3.org/2000/svg" width="24" height="24" fill="none"><path fill="currentColor" d="m20.53 8.47-6-6a.749.749 0 0 0-.53-.22H8C5.582 2.25 4.25 3.582 4.25 6v12c0 2.418 1.332 3.75 3.75 3.75h9c2.418 0 3.75-1.332 3.75-3.75V9a.747.747 0 0 0-.22-.53m-5.78-3.659 3.439 3.439H17c-1.577 0-2.25-.673-2.25-2.25zM17 20.25H8c-1.577 0-2.25-.673-2.25-2.25V6c0-1.577.673-2.25 2.25-2.25h5.25V6c0 2.418 1.332 3.75 3.75 3.75h2.25V18c0 1.577-.673 2.25-2.25 2.25m-4.5-10a4.254 4.254 0 0 0-4.25 4.25 4.254 4.254 0 0 0 4.25 4.25 4.254 4.254 0 0 0 4.25-4.25 4.254 4.254 0 0 0-4.25-4.25m0 1.5c.485 0 .935.137 1.331.358l-3.723 3.723A2.72 2.72 0 0 1 9.75 14.5a2.752 2.752 0 0 1 2.75-2.75m0 5.5a2.72 2.72 0 0 1-1.331-.358l3.723-3.723c.221.396.358.846.358 1.331a2.752 2.752 0 0 1-2.75 2.75"/></svg>