<svg xmlns="http://www.w3.org/2000/svg" width="24" height="24" fill="none"><path fill="currentColor" d="M21.695 17.717a1.129 1.129 0 0 0-.924-.777l-1.56-.222-.668-1.328c-.199-.395-.6-.64-1.044-.64-.444 0-.845.245-1.044.64l-.67 1.328-1.558.222c-.437.062-.79.36-.924.777-.134.415-.02.859.296 1.16l1.117 1.066-.253 1.448a1.15 1.15 0 0 0 .454 1.13c.361.265.834.304 1.23.098l1.351-.694 1.351.695a1.166 1.166 0 0 0 1.23-.098c.356-.262.531-.695.454-1.129l-.253-1.449 1.117-1.066c.318-.302.432-.747.298-1.161Zm-2.592 1.278a1.131 1.131 0 0 0-.332 1.01l.17.974-.916-.471a1.153 1.153 0 0 0-1.047-.001l-.917.471.17-.975a1.131 1.131 0 0 0-.333-1.009l-.708-.676.994-.142c.368-.052.688-.28.858-.614l.459-.911.46.914c.17.33.49.558.857.61l.994.142-.709.678ZM11 20.25H6c-1.577 0-2.25-.673-2.25-2.25V6c0-1.577.673-2.25 2.25-2.25h5.25V6c0 2.418 1.332 3.75 3.75 3.75h2.25V12a.75.75 0 0 0 1.5 0V9a.747.747 0 0 0-.22-.53l-6-6a.749.749 0 0 0-.53-.22H6C3.582 2.25 2.25 3.582 2.25 6v12c0 2.418 1.332 3.75 3.75 3.75h5a.75.75 0 0 0 0-1.5ZM12.75 6V4.811l3.439 3.439H15c-1.577 0-2.25-.673-2.25-2.25ZM14 11.25a.75.75 0 0 1 0 1.5H7a.75.75 0 0 1 0-1.5h7ZM11.75 16a.75.75 0 0 1-.75.75H7a.75.75 0 0 1 0-1.5h4a.75.75 0 0 1 .75.75Z"/></svg>