<svg xmlns="http://www.w3.org/2000/svg" width="24" height="24" fill="none"><path fill="currentColor" d="M21.188 15.39c-1.498-.388-2.195-.72-2.835-1.055a.747.747 0 0 0-.69-.002c-.646.333-1.353.668-2.874 1.114a.751.751 0 0 0-.539.72v1.944c0 2.497 1.81 4.012 3.505 4.598a.733.733 0 0 0 .49 0c1.694-.586 3.505-2.101 3.505-4.598v-1.995a.75.75 0 0 0-.562-.726Zm-.938 2.721c0 1.913-1.563 2.791-2.25 3.085-.687-.293-2.25-1.172-2.25-3.085v-1.388a15.102 15.102 0 0 0 2.254-.883c.62.305 1.28.572 2.246.849v1.422ZM13 20.25H6c-1.577 0-2.25-.673-2.25-2.25V6c0-1.577.673-2.25 2.25-2.25h5.25V6c0 2.418 1.332 3.75 3.75 3.75h2.25V12a.75.75 0 0 0 1.5 0V9a.747.747 0 0 0-.22-.53l-6-6a.749.749 0 0 0-.53-.22H6C3.582 2.25 2.25 3.582 2.25 6v12c0 2.418 1.332 3.75 3.75 3.75h7a.75.75 0 0 0 0-1.5ZM12.75 6V4.811l3.439 3.439H15c-1.577 0-2.25-.673-2.25-2.25ZM14 12.75H7a.75.75 0 0 1 0-1.5h7a.75.75 0 0 1 0 1.5Zm-7 4a.75.75 0 0 1 0-1.5h4a.75.75 0 0 1 0 1.5H7Z"/></svg>