<svg xmlns="http://www.w3.org/2000/svg" width="24" height="24" fill="none"><path fill="currentColor" d="M17.625 2.25H6.375c-2.66 0-4.125 1.465-4.125 4.125v11.25c0 2.66 1.465 4.125 4.125 4.125h11.25c2.66 0 4.125-1.465 4.125-4.125V6.375c0-2.66-1.465-4.125-4.125-4.125m-.875 6.5h3.5v2.5h-3.5zm-1.5 2.5h-6.5v-7.5h6.5zm-8 0h-3.5v-2.5h3.5zm-3.5 1.5h3.5v2.5h-3.5zm5 0h6.5v7.5h-6.5zm8 0h3.5v2.5h-3.5zm3.5-6.375v.875h-3.5v-3.5h.875c1.84 0 2.625.785 2.625 2.625M6.375 3.75h.875v3.5h-3.5v-.875c0-1.84.785-2.625 2.625-2.625M3.75 17.625v-.875h3.5v3.5h-.875c-1.84 0-2.625-.785-2.625-2.625m13.875 2.625h-.875v-3.5h3.5v.875c0 1.84-.785 2.625-2.625 2.625"/></svg>