<svg xmlns="http://www.w3.org/2000/svg" width="24" height="24" fill="none"><path fill="currentColor" d="m19.475 8.965.615-.615c.426-.425.66-.99.66-1.591v-2.26c0-1.241-1.01-2.25-2.25-2.25h-13a2.253 2.253 0 0 0-2.25 2.25v2.26c0 .6.234 1.165.66 1.59l5.119 5.12c.143.142.221.33.221.53v4a.75.75 0 0 0 .3.6l4 3a.753.753 0 0 0 .785.071.749.749 0 0 0 .415-.671v-3.843a4.69 4.69 0 0 0 2.25.593 4.756 4.756 0 0 0 4.75-4.75c0-1.708-.916-3.197-2.275-4.034m-8.725 8.66V14c0-.6-.234-1.165-.66-1.59L4.971 7.29a.741.741 0 0 1-.221-.53V4.5a.75.75 0 0 1 .75-.75h13a.75.75 0 0 1 .75.75v2.26a.745.745 0 0 1-.22.53l-1.062 1.061A4.756 4.756 0 0 0 12.249 13c0 1.088.382 2.08 1 2.881V19.5zM17 16.25A3.254 3.254 0 0 1 13.75 13 3.254 3.254 0 0 1 17 9.75 3.254 3.254 0 0 1 20.25 13 3.254 3.254 0 0 1 17 16.25m1.78-4.614a.75.75 0 0 1 0 1.061l-1.667 1.667a.752.752 0 0 1-1.06-.001l-.833-.833a.75.75 0 1 1 1.061-1.061l.303.303 1.137-1.136a.75.75 0 0 1 1.059 0"/></svg>