<svg xmlns="http://www.w3.org/2000/svg" width="24" height="24" fill="none"><path fill="currentColor" d="M19 13a.75.75 0 0 1-.75.75h-2.5a.75.75 0 0 1 0-1.5h2.5A.75.75 0 0 1 19 13m2.75 0A4.756 4.756 0 0 1 17 17.75a4.69 4.69 0 0 1-2.25-.593V21a.749.749 0 0 1-1.2.6l-4-3a.753.753 0 0 1-.3-.6v-4a.745.745 0 0 0-.221-.53L3.91 8.35a2.231 2.231 0 0 1-.66-1.59V4.5c0-1.241 1.01-2.25 2.25-2.25h13c1.24 0 2.25 1.009 2.25 2.25v2.26c0 .6-.234 1.165-.66 1.591l-.615.615c1.359.836 2.275 2.325 2.275 4.034m-8.5 6.5v-3.619a4.7 4.7 0 0 1-1-2.881 4.756 4.756 0 0 1 5.719-4.649L19.03 7.29a.741.741 0 0 0 .221-.53V4.5a.75.75 0 0 0-.75-.75h-13a.75.75 0 0 0-.75.75v2.26c0 .199.078.387.221.53l5.119 5.12c.426.425.66.99.66 1.59v3.625zm7-6.5A3.254 3.254 0 0 0 17 9.75 3.254 3.254 0 0 0 13.75 13 3.254 3.254 0 0 0 17 16.25 3.254 3.254 0 0 0 20.25 13"/></svg>