<svg xmlns="http://www.w3.org/2000/svg" width="24" height="24" fill="none"><path fill="currentColor" d="M17.999 20.75a.75.75 0 0 1-.614-1.179c.598-.855.864-1.957.864-3.57v-6a6.127 6.127 0 0 0-1.148-3.602.75.75 0 1 1 1.217-.876A7.612 7.612 0 0 1 19.75 10v6c0 1.94-.351 3.307-1.136 4.43a.75.75 0 0 1-.615.319ZM5.75 16v-6a6.257 6.257 0 0 1 6.91-6.215.757.757 0 0 0 .834-.654.75.75 0 0 0-.654-.835A6.944 6.944 0 0 0 12 2.25c-4.273 0-7.75 3.477-7.75 7.75v6a.75.75 0 1 0 1.5 0m6.667 5.624c2.243-1.499 3.333-3.538 3.333-6.233V10c0-1-.391-1.94-1.1-2.65a3.799 3.799 0 0 0-2.562-1.1.76.76 0 0 0-.769.731.751.751 0 0 0 .731.769 2.277 2.277 0 0 1 1.538.66c.426.426.66.99.66 1.59v5.39c0 2.186-.848 3.77-2.667 4.986a.751.751 0 1 0 .836 1.248m-3.853-4.197A5.77 5.77 0 0 0 9.75 13.93V10c0-.234.031-.454.092-.633a.749.749 0 0 0-.476-.948.748.748 0 0 0-.948.475 3.52 3.52 0 0 0-.168 1.107v3.93c0 .93-.311 1.848-.875 2.583a.75.75 0 1 0 1.189.913M12.75 15v-4a.75.75 0 0 0-1.5 0v4a.75.75 0 0 0 1.5 0"/></svg>