<svg xmlns="http://www.w3.org/2000/svg" width="24" height="24" fill="none"><path fill="currentColor" d="M12 21.75c-4.273 0-7.75-3.477-7.75-7.75 0-2.321.664-3.975 2.22-5.53.299-.299.636-.598.986-.908C8.83 6.344 10.25 5.085 10.25 3.001a.748.748 0 0 1 1.166-.624c.06.04 5.398 3.698 3.161 10.001a4.259 4.259 0 0 0 1.224-1.422c.298-.576.449-1.234.449-1.955a.75.75 0 0 1 1.285-.526c1.408 1.43 2.215 3.445 2.215 5.526 0 4.272-3.477 7.749-7.75 7.749m-.438-17.278c-.503 1.9-1.925 3.16-3.112 4.212-.326.289-.641.567-.92.846-1.265 1.265-1.78 2.56-1.78 4.47A6.257 6.257 0 0 0 12 20.25 6.257 6.257 0 0 0 18.25 14a6.554 6.554 0 0 0-.791-3.129 5.436 5.436 0 0 1-.326.774c-1.23 2.379-3.84 3.055-3.951 3.083a.749.749 0 0 1-.834-1.1c2.627-4.597.588-7.74-.786-9.156"/></svg>