<svg xmlns="http://www.w3.org/2000/svg" width="24" height="24" fill="none"><path fill="currentColor" d="M18.77 12a.749.749 0 1 1-1.5 0 .749.749 0 1 1 1.5 0m2.52 1.38c-1.53 2.01-3.53 3.38-5.77 4 0 0-.01 0-.02.01-.04.01-.08.01-.12.02-.59.15-1.2.27-1.81.32l-3.73 1.94c-.11.06-.23.08-.35.08a.755.755 0 0 1-.75-.82l.21-2.16c-.83-.4-1.85-1-2.75-1.85l-2.55 1.41c-.36.21-.81.15-1.11-.14a.945.945 0 0 1-.2-1.12L3.88 12 2.34 8.93a.945.945 0 0 1 .2-1.12c.31-.29.76-.34 1.12-.13l2.54 1.4c.91-.85 1.93-1.45 2.75-1.85l-.21-2.16c-.03-.27.1-.54.33-.69.23-.15.52-.17.77-.04l3.73 1.94c.63.05 1.24.16 1.84.32.03 0 .06 0 .09.01 0 0 .01 0 .02.01 2.23.62 4.24 1.98 5.77 4 .62.81.62 1.95 0 2.76m-7.02 2.75c-.86-2.74-.86-5.51 0-8.26-.33-.05-.65-.1-.94-.11a.61.61 0 0 1-.3-.08l-2.64-1.37.13 1.31c.03.32-.15.63-.45.76-.8.35-1.97.96-2.93 1.9-.4.39-.99.47-1.47.21L4.5 9.84l.91 1.82c.11.21.11.46 0 .67l-.91 1.82 1.17-.65a1.258 1.258 0 0 1 1.48.21c.97.94 2.13 1.56 2.93 1.9.3.13.48.44.45.76l-.13 1.31 2.64-1.37c.09-.05.2-.08.3-.08.29-.02.61-.06.94-.11zm5.83-4.6c-1.38-1.82-2.94-2.79-4.37-3.29-.8 2.5-.8 5.03 0 7.53 1.43-.5 2.99-1.47 4.37-3.29.21-.28.21-.67 0-.95"/></svg>