<svg xmlns="http://www.w3.org/2000/svg" width="24" height="24" fill="none"><path fill="currentColor" d="M15.647 8.166a.739.739 0 0 1-.397-.654V3.75H16a.75.75 0 0 0 0-1.5H8a.75.75 0 0 0 0 1.5h.75v3.762a.74.74 0 0 1-.398.655A7.712 7.712 0 0 0 4.25 15c0 2.143.854 4.134 2.401 5.607l.149.145c.656.638 1.107.999 2.759.999h4.88c1.652 0 2.104-.361 2.76-.999l.148-.144A7.667 7.667 0 0 0 19.749 15a7.707 7.707 0 0 0-4.102-6.835ZM9.054 9.492a2.237 2.237 0 0 0 1.196-1.98V3.75h3.5v3.762c0 .831.458 1.59 1.195 1.98a6.202 6.202 0 0 1 3.229 4.569c-.798.397-2.991 1.191-5.84-.232-2.712-1.357-4.98-1.034-6.333-.578a6.202 6.202 0 0 1 3.053-3.76Zm7.259 10.029-.16.155c-.454.441-.591.574-1.713.574H9.559c-1.122 0-1.259-.133-1.713-.574l-.16-.155A6.183 6.183 0 0 1 5.748 15l.002-.023c.725-.38 2.966-1.278 5.913.194 1.455.728 2.782.972 3.909.972 1.092 0 1.99-.23 2.639-.472a6.16 6.16 0 0 1-1.899 3.85Z"/></svg>