<svg xmlns="http://www.w3.org/2000/svg" width="24" height="24" fill="none"><path fill="currentColor" d="m20.25 16.865-4.152-6.53a2.256 2.256 0 0 1-.351-1.208V3.75H16a.75.75 0 0 0 0-1.5H8a.75.75 0 0 0 0 1.5h.253v5.377c0 .429-.121.846-.351 1.208L3.75 16.866a3.136 3.136 0 0 0-.104 3.235 3.135 3.135 0 0 0 2.786 1.649h11.135a3.137 3.137 0 0 0 2.786-1.648 3.14 3.14 0 0 0-.103-3.237M9.168 11.139a3.742 3.742 0 0 0 .585-2.012V3.75h4.494v5.377c0 .714.202 1.41.585 2.012l1.024 1.611H8.143zm9.87 8.24a1.654 1.654 0 0 1-1.47.871H6.431a1.66 1.66 0 0 1-1.472-.871 1.653 1.653 0 0 1 .055-1.708l2.174-3.42h9.62l2.174 3.42c.334.524.355 1.163.055 1.709Z"/></svg>