<svg xmlns="http://www.w3.org/2000/svg" width="24" height="24" fill="none"><path fill="currentColor" d="M21.091 6.03 17.97 2.909c-.419-.42-1-.659-1.591-.659H6C3.582 2.25 2.25 3.582 2.25 6v12c0 2.418 1.332 3.75 3.75 3.75h12c2.418 0 3.75-1.332 3.75-3.75V7.621c0-.592-.24-1.172-.659-1.591M16.25 20.25h-8.5V14.5c0-.589.161-.75.75-.75h7c.589 0 .75.161.75.75zm4-2.25c0 1.577-.673 2.25-2.25 2.25h-.25V14.5c0-1.409-.841-2.25-2.25-2.25h-7c-1.409 0-2.25.841-2.25 2.25v5.75H6c-1.577 0-2.25-.673-2.25-2.25V6c0-1.577.673-2.25 2.25-2.25h10.379c.197 0 .39.08.53.22l3.121 3.121c.14.14.22.333.22.53zm-5-10a.75.75 0 0 1-.75.75h-5a.75.75 0 0 1 0-1.5h5a.75.75 0 0 1 .75.75"/></svg>