<svg xmlns="http://www.w3.org/2000/svg" width="24" height="24" fill="none"><path fill="currentColor" d="M18 6.25h-4.689l-2.78-2.78a.749.749 0 0 0-.53-.22h-4c-2.418 0-3.75 1.332-3.75 3.75v10c0 2.418 1.332 3.75 3.75 3.75h12c2.418 0 3.75-1.332 3.75-3.75v-7C21.75 7.582 20.418 6.25 18 6.25ZM20.25 17c0 1.577-.673 2.25-2.25 2.25H6c-1.577 0-2.25-.673-2.25-2.25V7c0-1.577.673-2.25 2.25-2.25h3.689l2.78 2.78c.141.141.331.22.53.22h5c1.577 0 2.25.673 2.25 2.25v7h.001ZM12 9.25a4.254 4.254 0 0 0-4.25 4.25A4.254 4.254 0 0 0 12 17.75a4.254 4.254 0 0 0 4.25-4.25A4.254 4.254 0 0 0 12 9.25Zm0 1.5c.485 0 .935.137 1.331.358L9.61 14.831a2.722 2.722 0 0 1-.36-1.331A2.753 2.753 0 0 1 12 10.75Zm0 5.5a2.72 2.72 0 0 1-1.331-.358l3.722-3.723c.221.396.359.846.359 1.331A2.753 2.753 0 0 1 12 16.25Z"/></svg>