<svg xmlns="http://www.w3.org/2000/svg" width="24" height="24" fill="none"><path fill="currentColor" d="M18 6.25h-4.689l-2.78-2.78a.749.749 0 0 0-.53-.22h-4c-2.418 0-3.75 1.332-3.75 3.75v10c0 2.418 1.332 3.75 3.75 3.75h12c2.418 0 3.75-1.332 3.75-3.75v-7C21.75 7.582 20.418 6.25 18 6.25M20.25 17c0 1.577-.673 2.25-2.25 2.25H6c-1.577 0-2.25-.673-2.25-2.25V7c0-1.577.673-2.25 2.25-2.25h3.689l2.78 2.78c.141.141.331.22.53.22h5c1.577 0 2.25.673 2.25 2.25v7zm-6.251-2.062a3.645 3.645 0 0 0 .603-2.003 3.671 3.671 0 0 0-3.667-3.667 3.67 3.67 0 0 0-3.666 3.667 3.671 3.671 0 0 0 3.666 3.667c.74 0 1.427-.224 2.004-.603l1.55 1.55a.748.748 0 0 0 1.06 0 .75.75 0 0 0 0-1.061zm-5.23-2.003a2.17 2.17 0 0 1 2.166-2.167 2.17 2.17 0 0 1 2.167 2.167 2.17 2.17 0 0 1-2.167 2.167 2.168 2.168 0 0 1-2.166-2.167"/></svg>