<svg xmlns="http://www.w3.org/2000/svg" width="24" height="24" fill="none"><path fill="currentColor" d="M18 20.75H6c-2.418 0-3.75-1.332-3.75-3.75V7c0-2.418 1.332-3.75 3.75-3.75h4c.199 0 .39.079.53.22l2.78 2.78H18c2.418 0 3.75 1.332 3.75 3.75v7c0 2.418-1.332 3.75-3.75 3.75m-12-16c-1.577 0-2.25.673-2.25 2.25v10c0 1.577.673 2.25 2.25 2.25h12c1.577 0 2.25-.673 2.25-2.25v-7c0-1.577-.673-2.25-2.25-2.25h-5a.747.747 0 0 1-.53-.22L9.69 4.75zm6 13a.76.76 0 0 1-.245-.041c-1.694-.586-3.505-2.101-3.505-4.598v-1.944a.75.75 0 0 1 .54-.72c1.52-.446 2.227-.781 2.873-1.114a.75.75 0 0 1 .69.002c.64.334 1.337.667 2.835 1.055.33.086.562.384.562.726v1.995c0 2.497-1.81 4.012-3.505 4.598a.76.76 0 0 1-.245.041m-2.25-6.027v1.388c0 1.913 1.563 2.791 2.25 3.085.687-.293 2.25-1.172 2.25-3.085v-1.422a12.716 12.716 0 0 1-2.246-.849c-.63.308-1.276.576-2.254.883"/></svg>