<svg xmlns="http://www.w3.org/2000/svg" width="24" height="24" fill="none"><path fill="currentColor" d="M15.343 10.693a.75.75 0 0 0-1.011-.271l-.116.065a.482.482 0 0 1-.47-.001.412.412 0 0 1-.219-.356.883.883 0 0 0-.885-.881h-1.334a.884.884 0 0 0-.885.881.413.413 0 0 1-.217.356.487.487 0 0 1-.472.001.888.888 0 0 0-1.192.317l-.672 1.127a1.012 1.012 0 0 0-.091.673.882.882 0 0 0 .42.538.42.42 0 0 1 .219.357.42.42 0 0 1-.222.361.883.883 0 0 0-.418.542c-.052.194-.008.498.095.671l.67 1.125c.246.41.77.549 1.192.315a.48.48 0 0 1 .47 0 .412.412 0 0 1 .217.356c0 .486.396.881.885.881h1.336a.884.884 0 0 0 .884-.881c0-.144.083-.28.218-.356a.484.484 0 0 1 .471-.001.882.882 0 0 0 1.193-.317l.666-1.119a1.01 1.01 0 0 0 .098-.676.88.88 0 0 0-.42-.542l-.012-.006a.417.417 0 0 1-.208-.351.42.42 0 0 1 .218-.36l.116-.065a.75.75 0 0 0 .277-1.037l-.801-1.346Zm-.826 4.069-.138.23a1.99 1.99 0 0 0-1.37.213c-.416.235-.725.61-.876 1.044h-.314a1.929 1.929 0 0 0-.876-1.044 1.992 1.992 0 0 0-1.37-.214l-.137-.229c.308-.346.484-.796.483-1.269a1.908 1.908 0 0 0-.484-1.256l.138-.231c.463.094.952.022 1.371-.213.416-.235.724-.609.875-1.044h.314c.151.434.459.809.876 1.043.419.237.91.307 1.37.214l.138.23a1.907 1.907 0 0 0-.483 1.266c0 .47.177.916.483 1.26ZM13.02 13.5a1 1 0 0 1-1 1 1.005 1.005 0 0 1-1.005-1c0-.552.443-1 .995-1h.01a1 1 0 0 1 1 1ZM18 6.25h-4.689l-2.78-2.78a.749.749 0 0 0-.53-.22h-4c-2.418 0-3.75 1.332-3.75 3.75v10c0 2.418 1.332 3.75 3.75 3.75h12c2.418 0 3.75-1.332 3.75-3.75v-7C21.75 7.582 20.418 6.25 18 6.25ZM20.25 17c0 1.577-.673 2.25-2.25 2.25H6c-1.577 0-2.25-.673-2.25-2.25V7c0-1.577.673-2.25 2.25-2.25h3.689l2.78 2.78c.141.141.331.22.53.22h5c1.577 0 2.25.673 2.25 2.25v7h.001Z"/></svg>