<svg xmlns="http://www.w3.org/2000/svg" width="24" height="24" fill="none"><path fill="currentColor" d="M20.53 18.52c1.39-1.81 2.22-4.07 2.22-6.52 0-5.93-4.82-10.75-10.75-10.75-3.51 0-6.63 1.7-8.59 4.32-.02.02-.03.04-.04.05C2.05 7.41 1.25 9.61 1.25 12c0 2.39.83 4.71 2.22 6.52l.01.01c1.29 1.68 3.07 2.98 5.13 3.66l.09.03c1.04.34 2.15.52 3.3.52s2.26-.19 3.3-.52c.03 0 .06-.02.09-.03 2.06-.69 3.83-1.98 5.13-3.66l.01-.01ZM3.77 7.81l.65 1.71-1.57 1.19c.15-1.03.46-2.01.92-2.91v.01Zm1.69 2.81 1.92.64 1.15 4.6-.93 1.39H4.4a9.188 9.188 0 0 1-1.61-4.6l2.68-2.03h-.01Zm1.96 8.13.38 1.48c-.77-.39-1.48-.89-2.1-1.48h1.72Zm2.5-3.5L8.86 11 12 8.9l3.14 2.1-1.06 4.25H9.92Zm6.66 3.5h1.72c-.63.59-1.33 1.09-2.1 1.48l.38-1.48Zm-.18-1.5-.93-1.39 1.15-4.61 1.9-.63 2.69 2.04c-.12 1.7-.69 3.27-1.61 4.59h-3.2Zm4.75-6.53-1.58-1.2.66-1.73c.46.9.78 1.89.93 2.93h-.01Zm-1.94-4.49-1.13 2.95-1.98.66-3.36-2.24V5.71l2.93-2.19a9.36 9.36 0 0 1 3.54 2.71Zm-5.29-3.27L11.99 4.4l-1.93-1.44a9.43 9.43 0 0 1 1.93-.21c.66 0 1.31.07 1.93.21Zm-5.61.56 2.93 2.19V7.6L7.88 9.84l-1.99-.66-1.12-2.94a9.34 9.34 0 0 1 3.55-2.72h-.01Zm1.2 17.38-.71-2.76.92-1.39h4.54l.92 1.39-.71 2.76c-.79.22-1.62.35-2.48.35-.86 0-1.69-.13-2.48-.35Z"/></svg>