<svg xmlns="http://www.w3.org/2000/svg" width="24" height="24" fill="none"><path fill="currentColor" d="M21.5 13.44a.772.772 0 0 0-.58-.19l-4.85.49-1.25-3.34 4.3-.39c.39-.03.74-.25.95-.58.21-.33.25-.72.12-1.08-1.44-3.98-5.39-6.46-9.61-6.06-4.5.43-8.08 4.17-8.32 8.69-.16 2.85.98 5.57 3.11 7.45.23.2.53.31.84.31h1.87c.9 0 1.71.5 2.11 1.3.21.42.64.69 1.11.69h2.95c.41 0 .8-.2 1.03-.55.23-.34.28-.78.13-1.17l-1.43-3.58 1.09-.11 1.49 3.97a3.765 3.765 0 0 0 3.51 2.43h.92c.41 0 .75-.34.75-.75v-7c0-.21-.09-.41-.25-.56zm-10.04 5.8a3.842 3.842 0 0 0-3.38-1.99H6.3a7.745 7.745 0 0 1-2.54-6.19c.21-3.78 3.2-6.91 6.97-7.28a7.775 7.775 0 0 1 7.93 4.76l-5.73.52c-.71.07-1.34.45-1.71 1.07a2.23 2.23 0 0 0-.17 2.01l2.84 7.1zM13.41 14l-.97-2.42a.724.724 0 0 1 .06-.67c.13-.2.33-.33.57-.35l.21-.02 1.26 3.35-1.12.11zm6.84.82v1.49l-3.09.31-.54-1.43 3.63-.36zm-.17 5.42c-.93 0-1.78-.59-2.11-1.46l-.27-.71 2.54-.25v2.42h-.17zm-10.06-5.25c0 .55-.45 1-1 1s-1-.45-1-1 .44-1 .99-1h.01c.55 0 1 .45 1 1"/></svg>