<svg xmlns="http://www.w3.org/2000/svg" width="24" height="24" fill="none"><path fill="currentColor" d="M12.75 3v4c0 2.09-1.51 3.82-3.5 4.17V21c0 .41-.34.75-.75.75s-.75-.34-.75-.75v-9.83c-1.99-.36-3.5-2.09-3.5-4.17V3c0-.41.34-.75.75-.75s.75.34.75.75v4c0 1.52 1.23 2.75 2.75 2.75S11.25 8.52 11.25 7V3c0-.41.34-.75.75-.75s.75.34.75.75ZM9.5 8.25c.41 0 .75-.34.75-.75V3c0-.41-.34-.75-.75-.75s-.75.34-.75.75v4.5c0 .41.34.75.75.75Zm-2 0c.41 0 .75-.34.75-.75V3c0-.41-.34-.75-.75-.75s-.75.34-.75.75v4.5c0 .41.34.75.75.75ZM19.75 3v18c0 .41-.34.75-.75.75s-.75-.34-.75-.75v-5.25H15c-.69 0-1.25-.56-1.25-1.25V9c0-6.67 5.2-6.75 5.25-6.75.41 0 .75.34.75.75Zm-1.5.86c-1.11.29-3 1.35-3 5.14v5.25h3V3.86Z"/></svg>