<svg xmlns="http://www.w3.org/2000/svg" width="24" height="24" fill="none"><path fill="currentColor" d="M21.53 20.47c.29.29.29.77 0 1.06-.15.15-.34.22-.53.22s-.38-.07-.53-.22L15 16.06l-2.12 2.12c-.23.23-.54.36-.88.36-.34 0-.65-.13-.88-.36l-1.15-1.15a.754.754 0 0 1 0-1.06c.29-.29.77-.29 1.06 0l.97.97 2.45-2.45s.01-.02.02-.03c.29-.29.76-.3 1.06 0l6.01 6.01zM6.97 14.03c.15.15.34.22.53.22s.38-.07.53-.22c.29-.29.29-.77 0-1.06l-.67-.67C5.94 10.89 4.75 8 4.75 6v-.19l3.73 3.73c.15.15.34.22.53.22s.38-.07.53-.22c.29-.29.29-.77 0-1.06L4.53 3.47a.776.776 0 0 0-.24-.16.707.707 0 0 0-.57 0c-.18.08-.33.22-.41.41-.04.09-.06.19-.06.29v2c0 2.42 1.34 5.65 3.05 7.36l.67.67zm8.53-1.25c1.1 0 2.2-.42 3.03-1.25l3-3c.29-.29.29-.77 0-1.06a.754.754 0 0 0-1.06 0l-3 3a2.782 2.782 0 0 1-3.94 0 2.782 2.782 0 0 1 0-3.94l3-3c.29-.29.29-.77 0-1.06a.754.754 0 0 0-1.06 0l-3 3c-1.49 1.49-1.64 3.81-.48 5.48l-9.52 9.52c-.29.29-.29.77 0 1.06.15.15.34.22.53.22s.38-.07.53-.22l9.52-9.52c.73.51 1.59.78 2.45.78zm-1.15-4.62c.15.15.34.22.53.22s.38-.07.53-.22l2.87-2.88c.29-.29.29-.77 0-1.06a.754.754 0 0 0-1.06 0L14.35 7.1c-.29.29-.29.77 0 1.06m1.5 1.5c.15.15.34.22.53.22s.38-.07.53-.22l2.87-2.88c.29-.29.29-.77 0-1.06a.754.754 0 0 0-1.06 0L15.85 8.6c-.29.29-.29.77 0 1.06"/></svg>