<svg xmlns="http://www.w3.org/2000/svg" width="24" height="24" fill="none"><path fill="currentColor" d="M10.75 13a.75.75 0 0 1-.75.75H8.75V15a.75.75 0 0 1-1.5 0v-1.25H6a.75.75 0 0 1 0-1.5h1.25V11a.75.75 0 0 1 1.5 0v1.25H10a.75.75 0 0 1 .75.75m11 0v4c0 2.36-1.288 4.75-3.75 4.75h-.259a3.995 3.995 0 0 1-3.331-1.782A2.997 2.997 0 0 0 12 18.75a2.993 2.993 0 0 0-2.407 1.203 3.994 3.994 0 0 1-3.34 1.797H6c-2.462 0-3.75-2.39-3.75-4.75v-4c0-4.227 2.149-6.75 5.75-6.75h3.25V6c0-1.241 1.01-2.25 2.25-2.25h1a.75.75 0 0 0 .75-.75.75.75 0 0 1 1.5 0c0 1.241-1.01 2.25-2.25 2.25h-1a.75.75 0 0 0-.75.75v.25H16c3.601 0 5.75 2.523 5.75 6.75m-1.5 0c0-3.386-1.51-5.25-4.25-5.25H8c-2.74 0-4.25 1.864-4.25 5.25v4c0 1.565.704 3.25 2.25 3.25h.253a2.5 2.5 0 0 0 2.087-1.121c.047-.073 1.253-1.879 3.66-1.879 2.408 0 3.613 1.816 3.663 1.894a2.498 2.498 0 0 0 2.078 1.106H18c1.546 0 2.25-1.685 2.25-3.25zm-5.5.25a1 1 0 1 0 0 2 1 1 0 0 0 0-2m2.5-2.499a1 1 0 1 0 0 2 1 1 0 0 0 0-2"/></svg>