<svg xmlns="http://www.w3.org/2000/svg" width="24" height="24" fill="none"><path fill="currentColor" d="M12 2.25c-5.38 0-9.75 4.37-9.75 9.75s4.37 9.75 9.75 9.75 9.75-4.37 9.75-9.75S17.38 2.25 12 2.25m2.23 17.69v-2.3c0-.84-.29-1.39-.61-1.67 2-.22 4.11-.98 4.11-4.44 0-.98-.35-1.78-.93-2.41.1-.23.41-1.15-.08-2.39 0 0-.76-.24-2.48.93-.72-.2-1.49-.3-2.25-.31-.77.01-1.54.11-2.25.31-1.72-1.17-2.48-.93-2.48-.93-.49 1.24-.18 2.16-.09 2.39-.57.63-.92 1.43-.92 2.41 0 3.45 2.1 4.22 4.1 4.45-.26.22-.49.62-.57 1.2-.52.23-1.82.63-2.62-.75 0 0-.48-.86-1.38-.92 0 0-.88-.01-.06.54 0 0 .59.28 1 1.32 0 0 .52 1.61 3.03 1.06v1.51c-3.47-.98-6.02-4.16-6.02-7.94 0-4.55 3.7-8.25 8.25-8.25s8.25 3.7 8.25 8.25c0 3.78-2.55 6.96-6.02 7.94z"/></svg>