<svg xmlns="http://www.w3.org/2000/svg" width="24" height="24" fill="none"><path fill="currentColor" d="M12 1.25C6.072 1.25 1.25 6.073 1.25 12S6.072 22.75 12 22.75 22.75 17.927 22.75 12 17.928 1.25 12 1.25ZM21.25 12c0 .034-.005.067-.005.101a2.57 2.57 0 0 0-1.245.69c-.152-.121-.5-.482-1.063-1.521-.622-1.147-.375-1.68-.001-2.487a7.4 7.4 0 0 0 .344-.832c.147-.435.123-1.013.018-1.616A9.204 9.204 0 0 1 21.25 12Zm-18.5 0c0-.49.049-.967.123-1.436.873 2.508 2.832 3.502 3.924 4.053.184.093.402.203.522.278.048.267.04.455.024.782-.015.327-.034.735-.004 1.37.06 1.235 1.064 1.76 1.798 2.143.44.23.857.447 1.07.762.107.153.206.633.171 1.146C6.05 20.329 2.75 16.547 2.75 12Zm9.118 9.243c.063-.815-.087-1.66-.424-2.141-.419-.619-1.052-.95-1.611-1.241-.744-.389-.979-.562-.994-.885-.027-.568-.009-.934.004-1.227.02-.422.037-.787-.093-1.346-.127-.545-.634-.801-1.276-1.125-1.361-.686-3.619-1.834-3.535-5.799C5.526 4.66 8.542 2.75 12.001 2.75c.393 0 .778.033 1.159.081a1.357 1.357 0 0 1-.627.463c-2.067.677-2.089 2.515-2.104 3.732-.012 1.021-.078 1.207-.227 1.242-.125-.009-.477-.199-.686-.313-.537-.292-1.091-.594-1.668-.454-.476.112-1.055.554-1.24 1.182-.092.312-.157.93.442 1.551.362.375.375.522.403.815.021.224.051.53.215.906.631 1.394 2.524 1.179 3.244 1.095 1.118-.14 1.32-.146 1.881.438.228.237.361.539.501.859.267.606.631 1.436 1.758 1.566.88.109 1.444.386 1.613.613.041.055.051.093.04.157-.053.314-.447.689-.904 1.124-.758.72-1.762 1.686-2.125 3.285-.544.1-1.103.16-1.676.16-.045-.002-.088-.008-.132-.009Zm3.571-.663c.35-.687.876-1.195 1.395-1.688.625-.594 1.214-1.154 1.351-1.962.079-.469-.03-.92-.316-1.303-.628-.843-1.918-1.117-2.637-1.206-.236-.027-.299-.08-.563-.68-.169-.385-.38-.865-.793-1.294-1.099-1.144-2.005-1.031-3.141-.888-1.372.156-1.645-.106-1.695-.216-.064-.146-.075-.262-.091-.437-.048-.507-.147-1.02-.818-1.715-.056-.058-.079-.098-.082-.088.016-.043.105-.126.087-.137.121.011.461.196.664.306.533.29 1.085.588 1.664.469 1.438-.296 1.454-1.684 1.466-2.698.017-1.378.123-2.014 1.071-2.324.69-.226 1.381-.806 1.692-1.567a9.188 9.188 0 0 1 2.265 1.051c.491.754 1.089 2.716.9 3.278-.076.234-.179.453-.281.671-.418.901-.938 2.023.043 3.833.847 1.561 1.527 2.263 2.275 2.349.041.005.088.008.141.008.267 0 .664-.086 1.029-.492a9.285 9.285 0 0 1-5.626 6.73Z"/></svg>