<svg xmlns="http://www.w3.org/2000/svg" width="24" height="24" fill="none"><path fill="currentColor" d="M22.08 10.21a.752.752 0 0 0-.74-.63h-9.38c-.41 0-.75.34-.75.75v3.76c0 .41.34.75.75.75h4.35c-.3.64-.77 1.19-1.39 1.61-.83.56-1.83.84-2.96.84-2.2 0-4.16-1.45-4.88-3.63-.18-.52-.27-1.08-.27-1.66 0-.58.09-1.12.28-1.67.72-2.17 2.68-3.62 4.88-3.62 1.29 0 2.4.43 3.3 1.29.29.28.76.28 1.05-.01l2.84-2.85c.14-.14.22-.34.22-.54s-.09-.4-.24-.53c-1.95-1.84-4.43-2.81-7.17-2.81-4.07 0-7.73 2.27-9.56 5.93-.76 1.52-1.15 3.14-1.15 4.82 0 1.68.39 3.31 1.15 4.82 1.83 3.66 5.5 5.93 9.56 5.93 2.79 0 5.24-.91 7.09-2.62 2.06-1.91 3.19-4.72 3.19-7.9 0-.66-.05-1.32-.17-2.01zm-4.05 8.81c-1.57 1.46-3.67 2.22-6.07 2.22-3.5 0-6.64-1.96-8.22-5.1-.66-1.3-.99-2.7-.99-4.15 0-1.45.33-2.84.99-4.15 1.58-3.15 4.72-5.1 8.22-5.1 2.08 0 3.99.65 5.56 1.9l-1.78 1.79c-1.07-.81-2.36-1.23-3.78-1.23-2.84 0-5.38 1.87-6.3 4.65-.23.71-.35 1.43-.35 2.14 0 .71.12 1.47.35 2.14.92 2.78 3.45 4.65 6.3 4.65 1.41 0 2.73-.38 3.8-1.1a5.446 5.446 0 0 0 2.31-3.46.732.732 0 0 0-.16-.62.746.746 0 0 0-.58-.27h-4.62v-2.26h7.98c.04.39.06.76.06 1.14 0 2.76-.96 5.17-2.71 6.8z"/></svg>