<svg xmlns="http://www.w3.org/2000/svg" width="24" height="24" fill="none"><path fill="currentColor" d="M20.21 9.6 7.64 2.7c-.42-.27-.96-.42-1.53-.42-1.27 0-2.4.81-2.73 1.95 0 .01 0 .03-.01.04 0 .02-.02.05-.02.07-.06.25-.07.52-.07.71v14.02c0 .24 0 .48.08.71 0 .01 0 .02.01.03v.02c.38 1.15 1.49 1.95 2.73 1.95.55 0 1.05-.14 1.43-.39l12.71-6.93c.93-.48 1.52-1.44 1.52-2.49-.07-1-.67-1.91-1.56-2.38l.01.01ZM6.11 3.78c.28 0 .54.07.76.2l7.9 4.34-2.78 2.65-7.02-6.64c.24-.33.68-.55 1.14-.55ZM4.77 17.85V6.21l6.13 5.8-6.13 5.84Zm2 2.26c-.18.12-.4.18-.66.18-.45 0-.87-.22-1.12-.57L12 13.04l2.83 2.68-8.05 4.39h-.01Zm12.77-6.96-3.33 1.82-3.13-2.96 3.06-2.92 3.34 1.84h.01c.43.23.74.68.77 1.11 0 .44-.29.88-.73 1.11h.01Z"/></svg>