<svg xmlns="http://www.w3.org/2000/svg" width="24" height="24" fill="none"><path fill="currentColor" d="M21.75 9.696a2.755 2.755 0 0 0-1.454-2.45l-6.472-3.531a3.796 3.796 0 0 0-3.648 0l-6.472 3.53A2.755 2.755 0 0 0 2.25 9.697c0 1.037.544 1.953 1.454 2.45l1.546.843v3.71c0 .956.49 1.834 1.311 2.351 1.805 1.135 3.622 1.703 5.439 1.703 1.817 0 3.635-.567 5.439-1.703A2.77 2.77 0 0 0 18.75 16.7v-3.71l1.5-.818V16a.75.75 0 0 0 1.5 0v-6c0-.042-.018-.08-.024-.12.004-.063.024-.12.024-.184Zm-4.5 7.003c0 .43-.233.845-.609 1.081-3.122 1.963-6.157 1.964-9.28 0a1.293 1.293 0 0 1-.61-1.081v-2.892l3.426 1.869a3.798 3.798 0 0 0 3.648 0l3.426-1.869v2.892h-.001Zm2.327-5.87-6.472 3.532a2.297 2.297 0 0 1-2.211 0L4.422 10.83a1.272 1.272 0 0 1-.673-1.133c0-.48.251-.903.673-1.133l6.472-3.531a2.314 2.314 0 0 1 1.105-.283c.379 0 .76.095 1.105.283l6.472 3.53c.422.23.673.654.673 1.134 0 .48-.25.903-.672 1.133Z"/></svg>