<svg xmlns="http://www.w3.org/2000/svg" width="24" height="24" fill="none"><path fill="currentColor" d="M18.5 20.75h-3c-1.409 0-2.25-.841-2.25-2.25v-13c0-1.409.841-2.25 2.25-2.25h3c1.409 0 2.25.841 2.25 2.25v13c0 1.409-.841 2.25-2.25 2.25Zm-3-16c-.589 0-.75.161-.75.75v13c0 .589.161.75.75.75h3c.589 0 .75-.161.75-.75v-13c0-.589-.161-.75-.75-.75h-3Zm-7 16h-3c-1.409 0-2.25-.841-2.25-2.25v-3c0-1.409.841-2.25 2.25-2.25h3c1.409 0 2.25.841 2.25 2.25v3c0 1.409-.841 2.25-2.25 2.25Zm-3-6c-.589 0-.75.161-.75.75v3c0 .589.161.75.75.75h3c.589 0 .75-.161.75-.75v-3c0-.589-.161-.75-.75-.75h-3Zm3-4h-3c-1.409 0-2.25-.841-2.25-2.25v-3c0-1.409.841-2.25 2.25-2.25h3c1.409 0 2.25.841 2.25 2.25v3c0 1.409-.841 2.25-2.25 2.25Zm-3-6c-.589 0-.75.161-.75.75v3c0 .589.161.75.75.75h3c.589 0 .75-.161.75-.75v-3c0-.589-.161-.75-.75-.75h-3Z"/></svg>