<svg xmlns="http://www.w3.org/2000/svg" width="24" height="24" fill="none"><path fill="currentColor" d="M7 10.75A3.755 3.755 0 0 1 3.25 7 3.755 3.755 0 0 1 7 3.25 3.755 3.755 0 0 1 10.75 7 3.755 3.755 0 0 1 7 10.75Zm0-6A2.253 2.253 0 0 0 4.75 7c0 1.241 1.01 2.25 2.25 2.25S9.25 8.241 9.25 7 8.24 4.75 7 4.75Zm10 6A3.755 3.755 0 0 1 13.25 7 3.755 3.755 0 0 1 17 3.25 3.755 3.755 0 0 1 20.75 7 3.755 3.755 0 0 1 17 10.75Zm0-6A2.253 2.253 0 0 0 14.75 7c0 1.241 1.01 2.25 2.25 2.25S19.25 8.241 19.25 7 18.24 4.75 17 4.75Zm-10 16A3.755 3.755 0 0 1 3.25 17 3.755 3.755 0 0 1 7 13.25 3.755 3.755 0 0 1 10.75 17 3.755 3.755 0 0 1 7 20.75Zm0-6A2.253 2.253 0 0 0 4.75 17c0 1.241 1.01 2.25 2.25 2.25S9.25 18.241 9.25 17 8.24 14.75 7 14.75Zm10 6A3.755 3.755 0 0 1 13.25 17 3.755 3.755 0 0 1 17 13.25 3.755 3.755 0 0 1 20.75 17 3.755 3.755 0 0 1 17 20.75Zm0-6A2.253 2.253 0 0 0 14.75 17c0 1.241 1.01 2.25 2.25 2.25s2.25-1.009 2.25-2.25-1.01-2.25-2.25-2.25Z"/></svg>