<svg xmlns="http://www.w3.org/2000/svg" width="24" height="24" fill="none"><path fill="currentColor" d="M8.5 12.75h-3c-1.409 0-2.25-.841-2.25-2.25v-5c0-1.409.841-2.25 2.25-2.25h3c1.409 0 2.25.841 2.25 2.25v5c0 1.409-.841 2.25-2.25 2.25Zm-3-8c-.589 0-.75.161-.75.75v5c0 .589.161.75.75.75h3c.589 0 .75-.161.75-.75v-5c0-.589-.161-.75-.75-.75h-3Zm3 16h-3c-1.409 0-2.25-.841-2.25-2.25v-1c0-1.409.841-2.25 2.25-2.25h3c1.409 0 2.25.841 2.25 2.25v1c0 1.409-.841 2.25-2.25 2.25Zm-3-4c-.589 0-.75.161-.75.75v1c0 .589.161.75.75.75h3c.589 0 .75-.161.75-.75v-1c0-.589-.161-.75-.75-.75h-3Zm13 4h-3c-1.409 0-2.25-.841-2.25-2.25v-5c0-1.409.841-2.25 2.25-2.25h3c1.409 0 2.25.841 2.25 2.25v5c0 1.409-.841 2.25-2.25 2.25Zm-3-8c-.589 0-.75.161-.75.75v5c0 .589.161.75.75.75h3c.589 0 .75-.161.75-.75v-5c0-.589-.161-.75-.75-.75h-3Zm3-4h-3c-1.409 0-2.25-.841-2.25-2.25v-1c0-1.409.841-2.25 2.25-2.25h3c1.409 0 2.25.841 2.25 2.25v1c0 1.409-.841 2.25-2.25 2.25Zm-3-4c-.589 0-.75.161-.75.75v1c0 .589.161.75.75.75h3c.589 0 .75-.161.75-.75v-1c0-.589-.161-.75-.75-.75h-3Z"/></svg>