<svg xmlns="http://www.w3.org/2000/svg" width="24" height="24" fill="none"><path fill="currentColor" d="M5.5 7.75h-1c-1.409 0-2.25-.841-2.25-2.25v-1c0-1.409.841-2.25 2.25-2.25h1c1.409 0 2.25.841 2.25 2.25v1c0 1.409-.841 2.25-2.25 2.25Zm-1-4c-.589 0-.75.161-.75.75v1c0 .589.161.75.75.75h1c.589 0 .75-.161.75-.75v-1c0-.589-.161-.75-.75-.75h-1Zm8 4h-1c-1.409 0-2.25-.841-2.25-2.25v-1c0-1.409.841-2.25 2.25-2.25h1c1.409 0 2.25.841 2.25 2.25v1c0 1.409-.841 2.25-2.25 2.25Zm-1-4c-.589 0-.75.161-.75.75v1c0 .589.161.75.75.75h1c.589 0 .75-.161.75-.75v-1c0-.589-.161-.75-.75-.75h-1Zm8 4h-1c-1.409 0-2.25-.841-2.25-2.25v-1c0-1.409.841-2.25 2.25-2.25h1c1.409 0 2.25.841 2.25 2.25v1c0 1.409-.841 2.25-2.25 2.25Zm-1-4c-.589 0-.75.161-.75.75v1c0 .589.161.75.75.75h1c.589 0 .75-.161.75-.75v-1c0-.589-.161-.75-.75-.75h-1Zm-13 11h-1c-1.409 0-2.25-.841-2.25-2.25v-1c0-1.409.841-2.25 2.25-2.25h1c1.409 0 2.25.841 2.25 2.25v1c0 1.409-.841 2.25-2.25 2.25Zm-1-4c-.589 0-.75.161-.75.75v1c0 .589.161.75.75.75h1c.589 0 .75-.161.75-.75v-1c0-.589-.161-.75-.75-.75h-1Zm8 4h-1c-1.409 0-2.25-.841-2.25-2.25v-1c0-1.409.841-2.25 2.25-2.25h1c1.409 0 2.25.841 2.25 2.25v1c0 1.409-.841 2.25-2.25 2.25Zm-1-4c-.589 0-.75.161-.75.75v1c0 .589.161.75.75.75h1c.589 0 .75-.161.75-.75v-1c0-.589-.161-.75-.75-.75h-1Zm8 4h-1c-1.409 0-2.25-.841-2.25-2.25v-1c0-1.409.841-2.25 2.25-2.25h1c1.409 0 2.25.841 2.25 2.25v1c0 1.409-.841 2.25-2.25 2.25Zm-1-4c-.589 0-.75.161-.75.75v1c0 .589.161.75.75.75h1c.589 0 .75-.161.75-.75v-1c0-.589-.161-.75-.75-.75h-1Zm-13 11h-1c-1.409 0-2.25-.841-2.25-2.25v-1c0-1.409.841-2.25 2.25-2.25h1c1.409 0 2.25.841 2.25 2.25v1c0 1.409-.841 2.25-2.25 2.25Zm-1-4c-.589 0-.75.161-.75.75v1c0 .589.161.75.75.75h1c.589 0 .75-.161.75-.75v-1c0-.589-.161-.75-.75-.75h-1Zm8 4h-1c-1.409 0-2.25-.841-2.25-2.25v-1c0-1.409.841-2.25 2.25-2.25h1c1.409 0 2.25.841 2.25 2.25v1c0 1.409-.841 2.25-2.25 2.25Zm-1-4c-.589 0-.75.161-.75.75v1c0 .589.161.75.75.75h1c.589 0 .75-.161.75-.75v-1c0-.589-.161-.75-.75-.75h-1Zm8 4h-1c-1.409 0-2.25-.841-2.25-2.25v-1c0-1.409.841-2.25 2.25-2.25h1c1.409 0 2.25.841 2.25 2.25v1c0 1.409-.841 2.25-2.25 2.25Zm-1-4c-.589 0-.75.161-.75.75v1c0 .589.161.75.75.75h1c.589 0 .75-.161.75-.75v-1c0-.589-.161-.75-.75-.75h-1Z"/></svg>