<svg xmlns="http://www.w3.org/2000/svg" width="24" height="24" fill="none"><path fill="currentColor" d="M20.692 14.543a2.06 2.06 0 0 0-2.1.027l-1.97 1.182A2.254 2.254 0 0 0 14.5 14.25H9c-.641 0-1.224.23-1.692.599A1.74 1.74 0 0 0 6 14.25H4c-.965 0-1.75.785-1.75 1.75v4c0 .965.785 1.75 1.75 1.75h2c.522 0 .987-.235 1.308-.599A2.723 2.723 0 0 0 9 21.75h5.597c1.074 0 2.128-.37 2.968-1.041l3.403-2.723c.497-.398.782-.992.782-1.628 0-.761-.396-1.44-1.058-1.815ZM6.25 20a.25.25 0 0 1-.25.25H4a.25.25 0 0 1-.25-.25v-4a.25.25 0 0 1 .25-.25h2a.25.25 0 0 1 .25.25v4Zm13.78-3.185-3.403 2.722a3.263 3.263 0 0 1-2.031.712H9c-.689 0-1.25-.561-1.25-1.25v-2c0-.689.561-1.25 1.25-1.25h5.5a.75.75 0 0 1 0 1.5H11a.75.75 0 0 0 0 1.5h3.5c.843 0 1.58-.466 1.965-1.154l2.899-1.739a.574.574 0 0 1 .589-.008.577.577 0 0 1 .297.51.58.58 0 0 1-.22.457ZM9.763 7.18a2.436 2.436 0 0 1 1.467-3.885V3a.75.75 0 0 1 1.5 0v.289a2.433 2.433 0 0 1 2.005 2.127.75.75 0 0 1-1.49.168.937.937 0 0 0-.93-.834h-.63a.936.936 0 0 0-.226 1.842l1.447.36a2.437 2.437 0 0 1 1.844 2.362c0 .649-.254 1.26-.715 1.721-.36.36-.814.589-1.305.674V12a.75.75 0 0 1-1.5 0v-.292a2.435 2.435 0 0 1-1.965-2.124.75.75 0 0 1 1.49-.168.937.937 0 0 0 .93.834h.63a.927.927 0 0 0 .659-.275.928.928 0 0 0 .276-.66.938.938 0 0 0-.709-.908l-1.447-.359a2.46 2.46 0 0 1-1.331-.867Z"/></svg>