<svg xmlns="http://www.w3.org/2000/svg" width="24" height="24" fill="none"><path fill="currentColor" d="M20.692 15.543a2.06 2.06 0 0 0-2.1.027l-1.97 1.182A2.254 2.254 0 0 0 14.5 15.25H9c-.641 0-1.224.23-1.692.599A1.74 1.74 0 0 0 6 15.25H4c-.965 0-1.75.785-1.75 1.75v4c0 .965.785 1.75 1.75 1.75h2c.522 0 .987-.235 1.308-.599A2.723 2.723 0 0 0 9 22.75h5.597c1.074 0 2.128-.37 2.968-1.041l3.403-2.723c.497-.398.782-.992.782-1.628 0-.761-.396-1.44-1.058-1.815M6.25 21a.25.25 0 0 1-.25.25H4a.25.25 0 0 1-.25-.25v-4a.25.25 0 0 1 .25-.25h2a.25.25 0 0 1 .25.25zm13.78-3.185-3.403 2.722a3.263 3.263 0 0 1-2.031.712H9c-.689 0-1.25-.561-1.25-1.25v-2c0-.689.561-1.25 1.25-1.25h5.5a.75.75 0 0 1 0 1.5H11a.75.75 0 0 0 0 1.5h3.5c.843 0 1.58-.466 1.965-1.154l2.899-1.739a.574.574 0 0 1 .589-.008.577.577 0 0 1 .297.51.58.58 0 0 1-.22.457M12 13.75a6.257 6.257 0 0 0 6.25-6.25A6.257 6.257 0 0 0 12 1.25 6.257 6.257 0 0 0 5.75 7.5 6.257 6.257 0 0 0 12 13.75m0-11a4.756 4.756 0 0 1 4.75 4.75A4.756 4.756 0 0 1 12 12.25 4.756 4.756 0 0 1 7.25 7.5 4.756 4.756 0 0 1 12 2.75m-1.833 4.594a2.084 2.084 0 0 1-.417-1.255c0-.948.632-1.74 1.485-1.979V4a.75.75 0 0 1 1.5 0v.1a2.038 2.038 0 0 1 1.503 1.764.75.75 0 1 1-1.492.162c-.031-.284-.25-.498-.511-.498h-.473c-.283 0-.514.251-.514.561 0 .13.04.255.113.352a.513.513 0 0 0 .283.194l1.085.28a2.053 2.053 0 0 1 1.519 1.998c0 .543-.206 1.057-.581 1.446a1.997 1.997 0 0 1-.934.543v.1a.75.75 0 0 1-1.5 0v-.108A2.04 2.04 0 0 1 9.76 9.139a.75.75 0 1 1 1.492-.162c.031.284.25.498.511.498h.473a.5.5 0 0 0 .354-.156.58.58 0 0 0 .16-.404.553.553 0 0 0-.396-.546l-1.085-.28a2.04 2.04 0 0 1-1.102-.745"/></svg>