<svg xmlns="http://www.w3.org/2000/svg" width="24" height="24" fill="none"><path fill="currentColor" d="M20.692 15.543a2.063 2.063 0 0 0-2.101.027l-1.97 1.182a2.254 2.254 0 0 0-2.122-1.502h-5.5c-.641 0-1.224.23-1.692.599a1.74 1.74 0 0 0-1.308-.599h-2c-.965 0-1.75.785-1.75 1.75v4c0 .965.785 1.75 1.75 1.75h2c.522 0 .987-.235 1.308-.599a2.723 2.723 0 0 0 1.692.599h5.597a4.77 4.77 0 0 0 2.968-1.041l3.403-2.723c.497-.398.782-.992.782-1.628a2.062 2.062 0 0 0-1.057-1.815M6.25 21a.25.25 0 0 1-.25.25H4a.25.25 0 0 1-.25-.25v-4a.25.25 0 0 1 .25-.25h2a.25.25 0 0 1 .25.25zm13.78-3.185-3.403 2.723a3.26 3.26 0 0 1-2.03.712H9c-.689 0-1.25-.561-1.25-1.25v-2c0-.689.561-1.25 1.25-1.25h5.5a.75.75 0 0 1 0 1.5H11a.75.75 0 0 0 0 1.5h3.5c.843 0 1.579-.466 1.965-1.154l2.898-1.739a.57.57 0 0 1 .59-.007c.089.05.297.201.297.509a.58.58 0 0 1-.22.456M12.005 6.25c1.379 0 2.5-1.122 2.5-2.5s-1.121-2.5-2.5-2.5a2.503 2.503 0 0 0-2.5 2.5c0 1.378 1.121 2.5 2.5 2.5m0-3.5a1.001 1.001 0 0 1 0 2 1.001 1.001 0 0 1 0-2m-2.004 10h3.998c1.409 0 2.251-.838 2.251-2.241 0-1.623-1.005-3.259-3.25-3.259h-2c-2.245 0-3.25 1.637-3.25 3.259 0 1.403.842 2.241 2.251 2.241m.999-4h2c1.522 0 1.75 1.102 1.75 1.759 0 .575-.168.741-.751.741h-3.998c-.583 0-.751-.166-.751-.741 0-.657.228-1.759 1.75-1.759"/></svg>