<svg xmlns="http://www.w3.org/2000/svg" width="24" height="24" fill="none"><path fill="currentColor" d="m21.642 13.333-1.455-8.004c-.331-1.813-1.848-3.079-3.69-3.079H7.505c-1.843 0-3.36 1.266-3.69 3.08L2.36 13.332a6.775 6.775 0 0 0-.108 1.208V18c0 2.418 1.332 3.75 3.75 3.75h12c2.418 0 3.75-1.332 3.75-3.75v-3.459a6.976 6.976 0 0 0-.11-1.208ZM5.29 5.598C5.491 4.493 6.38 3.75 7.504 3.75h8.992c1.123 0 2.013.743 2.214 1.848l1.288 7.083c-.549-.275-1.209-.43-1.998-.43H6c-.789 0-1.448.156-1.998.43L5.29 5.598ZM20.25 18c0 1.577-.673 2.25-2.25 2.25H6c-1.577 0-2.25-.673-2.25-2.25v-2c0-1.577.673-2.25 2.25-2.25h12c1.577 0 2.25.673 2.25 2.25v2ZM15 17a1 1 0 1 1-2 0 1 1 0 0 1 2 0Zm3 0a1 1 0 1 1-2 0 1 1 0 0 1 2 0Z"/></svg>