<svg xmlns="http://www.w3.org/2000/svg" width="24" height="24" fill="none"><path fill="currentColor" d="M17.06 5.27A5.723 5.723 0 0 0 12 2.25c-2.14 0-4.07 1.17-5.06 3.02A4.254 4.254 0 0 0 2.25 9.5c0 1.88 1.25 3.52 3 4.06v5.94c0 1.24 1.01 2.25 2.25 2.25h9c1.24 0 2.25-1.01 2.25-2.25v-5.94c1.75-.54 3-2.18 3-4.06 0-2.49-2.15-4.49-4.69-4.23m-.56 14.98h-9c-.41 0-.75-.34-.75-.75v-2.75h10.5v2.75c0 .41-.34.75-.75.75m1.39-8.03c-.37.05-.64.37-.64.74v2.29h-1.86l.35-2.13c.07-.41-.21-.8-.62-.86-.4-.07-.79.21-.86.62l-.4 2.37h-1.11V12c0-.41-.34-.75-.75-.75s-.75.34-.75.75v3.25h-1.11l-.4-2.37a.76.76 0 0 0-.86-.62c-.41.07-.68.45-.62.86l.35 2.13H6.75v-2.29c0-.37-.27-.69-.64-.74A2.764 2.764 0 0 1 3.75 9.5a2.748 2.748 0 0 1 3.44-2.66c.36.09.74-.1.88-.44a4.22 4.22 0 0 1 3.94-2.64c1.74 0 3.28 1.04 3.94 2.64.14.35.51.54.88.44a2.748 2.748 0 1 1 1.08 5.38z"/></svg>