<svg xmlns="http://www.w3.org/2000/svg" width="24" height="24" fill="none"><path fill="currentColor" d="M20.717 14.079a9.896 9.896 0 0 0 .85-2.466c.478-2.467 0-4.868-1.277-6.424-1.033-1.26-2.522-1.93-4.307-1.939h-.019c-2.036 0-3.277 1.159-3.964 2.144-.688-.986-1.928-2.144-3.966-2.144h-.019c-1.78.009-3.268.68-4.303 1.94-1.278 1.557-1.757 3.958-1.28 6.422 1.229 6.357 8.93 9.922 9.257 10.071a.751.751 0 0 0 .62.001c.034-.016.752-.342 1.774-.964A4.704 4.704 0 0 0 17 21.75 4.756 4.756 0 0 0 21.75 17a4.7 4.7 0 0 0-1.033-2.921Zm-8.715 6.087c-1.404-.715-7.145-3.912-8.097-8.838-.393-2.031-.031-3.969.967-5.185.753-.917 1.813-1.385 3.15-1.392h.012c2.378 0 3.22 2.379 3.254 2.477a.75.75 0 0 0 .709.511H12c.32 0 .605-.205.71-.509.034-.101.877-2.48 3.253-2.48h.012c1.34.007 2.402.475 3.154 1.391.997 1.214 1.357 3.153.964 5.185-.111.567-.311 1.125-.549 1.677A4.71 4.71 0 0 0 17 12.25 4.756 4.756 0 0 0 12.25 17c0 .96.29 1.851.782 2.599-.433.253-.796.448-1.031.567ZM17 20.25A3.254 3.254 0 0 1 13.75 17 3.254 3.254 0 0 1 17 13.75 3.254 3.254 0 0 1 20.25 17 3.254 3.254 0 0 1 17 20.25Zm1.78-4.614a.75.75 0 0 1 0 1.061l-1.667 1.667a.752.752 0 0 1-1.06-.001l-.833-.833a.75.75 0 1 1 1.061-1.061l.303.303 1.137-1.136a.75.75 0 0 1 1.059 0Z"/></svg>