<svg xmlns="http://www.w3.org/2000/svg" width="24" height="24" fill="none"><path fill="currentColor" d="M21.339 7.128c.458 1.341.535 2.892.226 4.486-1.229 6.356-8.928 9.921-9.255 10.07a.751.751 0 0 1-.623-.001c-.061-.028-1.503-.693-3.259-1.929a.75.75 0 0 1 .863-1.227 22.7 22.7 0 0 0 2.708 1.638c1.406-.716 7.141-3.913 8.093-8.837.261-1.338.2-2.622-.173-3.715a.75.75 0 1 1 1.42-.485Zm.191-3.598-18 18a.748.748 0 0 1-1.06 0 .75.75 0 0 1 0-1.061l3.142-3.142c-1.716-1.784-2.788-3.703-3.179-5.715-.477-2.464.002-4.865 1.28-6.423 1.035-1.26 2.522-1.931 4.302-1.94h.02c2.037 0 3.277 1.159 3.965 2.144.687-.985 1.928-2.144 3.964-2.144h.02c1.112.009 2.088.28 2.927.78l1.56-1.56a.75.75 0 1 1 1.06 1.061ZM6.671 16.268l11.13-11.13a4.417 4.417 0 0 0-1.828-.388h-.012c-2.374 0-3.217 2.379-3.251 2.48a.753.753 0 0 1-.71.509h-.004a.75.75 0 0 1-.709-.511c-.033-.098-.876-2.477-3.254-2.477h-.012c-1.337.007-2.396.475-3.149 1.392-.998 1.217-1.359 3.155-.967 5.186.334 1.713 1.266 3.372 2.766 4.939Z"/></svg>