<svg xmlns="http://www.w3.org/2000/svg" width="24" height="24" fill="none"><path fill="currentColor" d="M19 17a.75.75 0 0 1-.75.75h-2.5a.75.75 0 0 1 0-1.5h2.5A.75.75 0 0 1 19 17m2.75 0A4.756 4.756 0 0 1 17 21.75a4.7 4.7 0 0 1-2.917-1.03c-1.022.622-1.74.948-1.774.964a.756.756 0 0 1-.62-.001c-.327-.149-8.027-3.713-9.257-10.071-.477-2.464.002-4.865 1.28-6.422 1.035-1.26 2.522-1.931 4.303-1.94h.019c2.038 0 3.278 1.159 3.966 2.144.687-.985 1.928-2.144 3.964-2.144h.019c1.784.009 3.273.679 4.307 1.939 1.277 1.556 1.755 3.957 1.277 6.424a9.882 9.882 0 0 1-.85 2.466A4.7 4.7 0 0 1 21.75 17m-8.718 2.599A4.72 4.72 0 0 1 12.25 17 4.756 4.756 0 0 1 17 12.25c.938 0 1.807.282 2.544.753.239-.552.438-1.111.549-1.677.394-2.031.033-3.97-.964-5.185-.752-.916-1.813-1.384-3.154-1.391h-.012c-2.376 0-3.22 2.379-3.253 2.48a.753.753 0 0 1-.71.509h-.004a.75.75 0 0 1-.709-.511c-.033-.098-.876-2.477-3.254-2.477H8.02c-1.337.007-2.397.475-3.15 1.392-.998 1.217-1.359 3.155-.967 5.185.952 4.926 6.692 8.123 8.097 8.838.236-.119.599-.314 1.031-.567ZM20.25 17A3.254 3.254 0 0 0 17 13.75 3.254 3.254 0 0 0 13.75 17 3.254 3.254 0 0 0 17 20.25 3.254 3.254 0 0 0 20.25 17"/></svg>