<svg xmlns="http://www.w3.org/2000/svg" width="24" height="24" fill="none"><path fill="currentColor" d="M12 21.75a.75.75 0 0 1-.311-.067c-.327-.149-8.023-3.718-9.257-10.074-.477-2.46.002-4.858 1.28-6.416C4.748 3.931 6.236 3.26 8.017 3.251h.025c2.032 0 3.271 1.157 3.957 2.142.686-.984 1.925-2.142 3.957-2.142h.025c1.782.009 3.27.68 4.307 1.942 1.277 1.557 1.755 3.956 1.277 6.417-1.232 6.356-8.93 9.925-9.256 10.074a.749.749 0 0 1-.309.066Zm-3.958-17h-.017c-1.338.006-2.398.476-3.152 1.394-.999 1.217-1.36 3.153-.968 5.179.957 4.935 6.688 8.126 8.094 8.842 1.406-.717 7.14-3.917 8.095-8.842.394-2.027.033-3.963-.964-5.179-.754-.918-1.814-1.387-3.155-1.393h-.017c-2.395 0-3.238 2.451-3.246 2.475a.75.75 0 0 1-1.424 0c-.033-.099-.875-2.476-3.246-2.476Zm5.582 11.166 1.777-2.666H17a.75.75 0 0 0 0-1.5h-2a.749.749 0 0 0-.624.334l-1.149 1.724-1.515-4.545a.751.751 0 0 0-1.336-.179L8.599 11.75H7a.75.75 0 0 0 0 1.5h2a.749.749 0 0 0 .624-.334l1.149-1.724 1.515 4.545a.751.751 0 0 0 1.336.179Z"/></svg>