<svg xmlns="http://www.w3.org/2000/svg" width="24" height="24" fill="none"><path fill="currentColor" d="M12 22.75C6.072 22.75 1.25 17.927 1.25 12S6.072 1.25 12 1.25 22.75 6.073 22.75 12 17.928 22.75 12 22.75Zm0-20c-5.101 0-9.25 4.149-9.25 9.25s4.149 9.25 9.25 9.25 9.25-4.149 9.25-9.25S17.101 2.75 12 2.75Zm0 15a.75.75 0 0 1-.311-.067c-.18-.082-4.414-2.046-5.101-5.587-.272-1.403.008-2.782.751-3.688.617-.752 1.499-1.153 2.55-1.158h.016A2.76 2.76 0 0 1 12 8.175a2.756 2.756 0 0 1 2.095-.925h.016c1.052.005 1.934.405 2.55 1.156.754.918 1.027 2.263.751 3.689-.687 3.542-4.921 5.506-5.101 5.587a.736.736 0 0 1-.311.068Zm-2.096-9h-.007c-.599.003-1.068.208-1.398.609-.462.564-.626 1.48-.438 2.45.447 2.307 3.033 3.869 3.938 4.351.903-.484 3.494-2.053 3.939-4.35.188-.972.024-1.888-.438-2.452-.329-.4-.799-.605-1.398-.608h-.007c-.996 0-1.37 1.031-1.386 1.075a.754.754 0 0 1-.709.504h-.006a.75.75 0 0 1-.707-.51c-.013-.038-.387-1.069-1.383-1.069Zm6.771 3.202h.01-.01Z"/></svg>