<svg xmlns="http://www.w3.org/2000/svg" width="24" height="24" fill="none"><path fill="currentColor" d="M12 22.75a2.398 2.398 0 0 1-1.934-.967l-1.499-2a.925.925 0 0 0-.734-.366h-1.5c-2.633 0-4.083-1.45-4.083-4.083v-10c0-2.633 1.45-4.083 4.083-4.083h11.334c2.633 0 4.083 1.45 4.083 4.083v10c0 2.633-1.45 4.083-4.083 4.083h-1.5a.921.921 0 0 0-.734.367l-1.5 1.999A2.394 2.394 0 0 1 12 22.75Zm-5.667-20c-1.811 0-2.583.772-2.583 2.583v10c0 1.811.772 2.583 2.583 2.583h1.5c.756 0 1.479.361 1.934.966l1.5 2.001c.35.466 1.118.466 1.466 0l1.501-2a2.433 2.433 0 0 1 1.934-.967h1.5c1.811 0 2.583-.773 2.583-2.583v-10c0-1.811-.772-2.583-2.583-2.583H6.333Zm5.678 13.5a.75.75 0 0 1-.311-.067c-.18-.082-4.414-2.046-5.101-5.587-.276-1.425-.002-2.77.752-3.688.617-.752 1.498-1.152 2.549-1.157h.016a2.76 2.76 0 0 1 2.095.925 2.757 2.757 0 0 1 2.095-.925h.016c1.052.005 1.935.405 2.551 1.157.754.918 1.027 2.263.75 3.688-.687 3.541-4.921 5.505-5.101 5.587a.75.75 0 0 1-.311.067Zm-2.096-9h-.007c-.599.003-1.068.208-1.397.608-.463.564-.627 1.48-.438 2.451.447 2.307 3.033 3.869 3.938 4.35.903-.484 3.494-2.053 3.939-4.35.188-.971.025-1.887-.437-2.451-.33-.401-.8-.605-1.399-.608h-.007c-.996 0-1.37 1.031-1.386 1.075a.723.723 0 0 1-.715.504.75.75 0 0 1-.707-.51c-.014-.038-.388-1.069-1.384-1.069Z"/></svg>