<svg xmlns="http://www.w3.org/2000/svg" width="24" height="24" fill="none"><path fill="currentColor" d="M17.625 21.75H6.375c-2.66 0-4.125-1.465-4.125-4.125V6.375c0-2.66 1.465-4.125 4.125-4.125h11.25c2.66 0 4.125 1.465 4.125 4.125v11.25c0 2.66-1.465 4.125-4.125 4.125m-11.25-18c-1.84 0-2.625.785-2.625 2.625v11.25c0 1.84.785 2.625 2.625 2.625h11.25c1.84 0 2.625-.785 2.625-2.625V6.375c0-1.84-.785-2.625-2.625-2.625zm5.625 14a.75.75 0 0 1-.311-.067c-.18-.082-4.414-2.046-5.101-5.587-.272-1.403.008-2.782.751-3.688.617-.752 1.499-1.153 2.55-1.158h.016A2.76 2.76 0 0 1 12 8.175a2.756 2.756 0 0 1 2.095-.925h.016c1.052.005 1.934.405 2.55 1.156.754.918 1.027 2.263.751 3.689-.687 3.542-4.921 5.506-5.101 5.587a.736.736 0 0 1-.311.068m-2.096-9h-.007c-.599.003-1.068.208-1.398.609-.462.564-.626 1.48-.438 2.45.447 2.307 3.033 3.869 3.938 4.351.903-.484 3.494-2.053 3.939-4.35.188-.972.024-1.888-.438-2.452-.329-.4-.799-.605-1.398-.608h-.007c-.996 0-1.37 1.031-1.386 1.075a.79.79 0 0 1-.715.504.75.75 0 0 1-.707-.51c-.013-.038-.387-1.069-1.383-1.069m6.771 3.202h.01z"/></svg>