<svg xmlns="http://www.w3.org/2000/svg" width="24" height="24" fill="none"><path fill="currentColor" d="M19.5 16.25h-3c-1.41 0-2.25.84-2.25 2.25v1c0 1.41.84 2.25 2.25 2.25h3c1.41 0 2.25-.84 2.25-2.25v-1c0-1.41-.84-2.25-2.25-2.25m.75 3.25c0 .59-.16.75-.75.75h-3c-.59 0-.75-.16-.75-.75v-1c0-.59.16-.75.75-.75h3c.59 0 .75.16.75.75zM18.27 2.3a.746.746 0 0 0-.97.43l-3.54 9.09c-.34.87-1.16 1.43-2.1 1.43H4.49c-1.24 0-2.25 1.01-2.25 2.25v4c0 1.24 1.01 2.25 2.25 2.25h4.45c1.54 0 2.94-.96 3.49-2.39l6.26-16.09a.746.746 0 0 0-.43-.97zM3.75 19.5v-4c0-.41.34-.75.75-.75h1.75v5.5H4.5c-.41 0-.75-.34-.75-.75m7.29-.68a2.26 2.26 0 0 1-2.09 1.43h-1.2v-5.5h3.92c.35 0 .69-.05 1.01-.14z"/></svg>