<svg xmlns="http://www.w3.org/2000/svg" width="24" height="24" fill="none"><path fill="currentColor" d="m21.477 9.085-7.412-6.096a3.26 3.26 0 0 0-4.129 0L2.524 9.084a.751.751 0 0 0 .953 1.16l.773-.637V18c0 2.418 1.332 3.75 3.75 3.75h8c2.418 0 3.75-1.332 3.75-3.75V9.607l.773.636a.749.749 0 0 0 1.056-.102.75.75 0 0 0-.102-1.056M18.25 18c0 1.577-.673 2.25-2.25 2.25H8c-1.577 0-2.25-.673-2.25-2.25V8.374l5.139-4.225a1.755 1.755 0 0 1 2.223 0l5.139 4.226zm-6.356-5.077 1.271 1.269 2.306-2.235a.75.75 0 1 1 1.06 1.061l-2.234 2.235a1.54 1.54 0 0 1-1.095.454h-.001c-.413 0-.802-.161-1.095-.453l-1.271-1.269-2.304 2.232a.748.748 0 0 1-1.06 0 .75.75 0 0 1 0-1.06l2.232-2.233a1.553 1.553 0 0 1 2.191 0Z"/></svg>