<svg xmlns="http://www.w3.org/2000/svg" width="24" height="24" fill="none"><path fill="currentColor" d="m20.208 8.141-6.12-5.131a3.244 3.244 0 0 0-4.176 0l-6.12 5.131c-.956.793-1.542 1.387-1.542 3.509V18c0 2.418 1.332 3.75 3.75 3.75h12c2.418 0 3.75-1.332 3.75-3.75v-6.35c0-2.122-.586-2.716-1.542-3.509M20.25 18c0 1.577-.673 2.25-2.25 2.25H6c-1.577 0-2.25-.673-2.25-2.25v-6.35c0-1.526.252-1.735.999-2.355l6.126-5.136a1.75 1.75 0 0 1 2.25 0l6.126 5.136c.747.62.999.829.999 2.355zm-4.298-6.556-1.975-.285-.852-1.712a1.249 1.249 0 0 0-1.126-.697 1.25 1.25 0 0 0-1.126.696l-.852 1.713-1.975.285a1.213 1.213 0 0 0-.988.833 1.21 1.21 0 0 0 .312 1.25l1.424 1.377-.324 1.876c-.082.472.108.941.496 1.225.389.284.896.323 1.324.1l1.708-.89 1.709.891a1.25 1.25 0 0 0 1.323-.099c.388-.283.578-.751.497-1.225l-.325-1.878 1.424-1.377c.337-.326.457-.805.312-1.25a1.207 1.207 0 0 0-.986-.833m-1.896 2.485a1.217 1.217 0 0 0-.355 1.084l.266 1.536-1.397-.729a1.22 1.22 0 0 0-1.134-.001l-1.399.729.266-1.536a1.219 1.219 0 0 0-.354-1.083L8.83 12.847l1.552-.224c.397-.057.742-.305.923-.666l.699-1.407.7 1.408c.18.359.524.607.92.664l1.554.224z"/></svg>