<svg xmlns="http://www.w3.org/2000/svg" width="24" height="24" fill="none"><path fill="currentColor" d="M17.053 21.75H6.948a3.25 3.25 0 0 1-3.198-2.667L2.295 11.1a2.753 2.753 0 0 1 .96-2.617l6.68-5.493a3.26 3.26 0 0 1 4.131 0l6.682 5.493a2.753 2.753 0 0 1 .96 2.617l-1.456 7.983a3.254 3.254 0 0 1-3.2 2.667ZM12 3.75c-.396 0-.79.133-1.112.398L4.206 9.64a1.248 1.248 0 0 0-.436 1.19l1.455 7.982a1.75 1.75 0 0 0 1.722 1.436h10.105a1.75 1.75 0 0 0 1.722-1.436l1.455-7.983a1.25 1.25 0 0 0-.436-1.189l-6.682-5.493a1.747 1.747 0 0 0-1.11-.397Zm7.513 15.198h.01-.01ZM12 18.25a.756.756 0 0 1-.309-.066c-.153-.07-3.764-1.732-4.353-4.746-.238-1.219-.002-2.375.65-3.169.541-.662 1.315-1.014 2.238-1.018.797.007 1.36.314 1.772.716.41-.399.989-.716 1.758-.716h.014c.924.004 1.698.356 2.24 1.017.65.794.888 1.949.65 3.17-.59 3.014-4.2 4.677-4.354 4.746a.733.733 0 0 1-.306.066Zm-1.76-7.5h-.005c-.468.002-.834.16-1.087.468-.361.441-.487 1.164-.337 1.931.355 1.818 2.4 3.083 3.188 3.51.788-.426 2.833-1.691 3.188-3.51.15-.769.024-1.491-.337-1.932-.253-.308-.618-.465-1.088-.468-.705-.025-1.025.73-1.055.814a.756.756 0 0 1-.708.5h-.008a.747.747 0 0 1-.704-.508c-.025-.075-.309-.805-1.047-.805Zm5.685 2.543h.01-.01Z"/></svg>