<svg xmlns="http://www.w3.org/2000/svg" width="24" height="24" fill="none"><path fill="currentColor" d="M17.053 21.75H6.948a3.25 3.25 0 0 1-3.198-2.667L2.295 11.1a2.753 2.753 0 0 1 .96-2.617l6.68-5.493a3.26 3.26 0 0 1 4.131 0l6.682 5.493a2.753 2.753 0 0 1 .96 2.617l-1.456 7.983a3.254 3.254 0 0 1-3.2 2.667ZM12 3.75c-.396 0-.79.133-1.112.398L4.206 9.64a1.248 1.248 0 0 0-.436 1.19l1.455 7.982a1.75 1.75 0 0 0 1.722 1.436h10.105a1.75 1.75 0 0 0 1.722-1.436l1.455-7.983a1.25 1.25 0 0 0-.436-1.189l-6.682-5.493a1.747 1.747 0 0 0-1.11-.397Zm7.513 15.198h.01zm-10.983-3.4 2.304-2.231 1.271 1.268c.293.292.682.453 1.096.453.414 0 .804-.162 1.095-.454l2.235-2.235a.75.75 0 0 0-1.061-1.061l-2.306 2.234-1.271-1.268a1.55 1.55 0 0 0-2.19.001L7.47 14.487a.75.75 0 0 0 1.06 1.062Z"/></svg>