<svg xmlns="http://www.w3.org/2000/svg" width="24" height="24" fill="none"><path fill="currentColor" d="M20.747 8.483 14.065 2.99a3.26 3.26 0 0 0-4.131 0L3.252 8.483a2.753 2.753 0 0 0-.959 2.617l1.455 7.983a3.25 3.25 0 0 0 3.198 2.667h10.105a3.25 3.25 0 0 0 3.198-2.667l1.455-7.983a2.748 2.748 0 0 0-.957-2.617m-.518 2.348-1.455 7.983a1.75 1.75 0 0 1-1.722 1.436H6.947a1.75 1.75 0 0 1-1.722-1.436L3.77 10.832a1.248 1.248 0 0 1 .436-1.19l6.682-5.493A1.747 1.747 0 0 1 12 3.752c.395 0 .79.133 1.112.398l6.682 5.493c.35.287.517.742.435 1.188m-3.479 1.688v2.5a.75.75 0 0 1-.75.75h-2.5a.75.75 0 0 1 0-1.5h.689l-1.558-1.558-1.096 1.179c-.543.543-1.493.545-2.039 0L7.47 11.863a.75.75 0 1 1 1.061-1.061l2.027 2.027 1.096-1.179c.545-.545 1.494-.544 2.039 0l1.558 1.558v-.689a.75.75 0 0 1 1.5 0Z"/></svg>