<svg xmlns="http://www.w3.org/2000/svg" width="24" height="24" fill="none"><path fill="currentColor" d="m21.477 9.085-7.412-6.096a3.26 3.26 0 0 0-4.129 0L2.524 9.084a.751.751 0 0 0 .953 1.16l.773-.637V18c0 2.418 1.332 3.75 3.75 3.75h8c2.418 0 3.75-1.332 3.75-3.75V9.607l.773.636a.749.749 0 0 0 1.056-.102.75.75 0 0 0-.102-1.056M18.25 18c0 1.577-.673 2.25-2.25 2.25H8c-1.577 0-2.25-.673-2.25-2.25V8.374l5.139-4.225a1.755 1.755 0 0 1 2.223 0l5.139 4.226zM12 8.75a1.25 1.25 0 0 0-1.126.696l-.852 1.713-1.975.285a1.213 1.213 0 0 0-.988.833 1.21 1.21 0 0 0 .312 1.25l1.424 1.377-.324 1.876c-.082.472.108.94.496 1.225.389.284.896.323 1.324.1l1.708-.89 1.709.891a1.25 1.25 0 0 0 1.323-.099c.388-.283.578-.751.497-1.225l-.325-1.878 1.424-1.377c.337-.326.457-.805.312-1.25a1.212 1.212 0 0 0-.988-.833l-1.975-.285-.852-1.712A1.244 1.244 0 0 0 12 8.75m1.62 3.873 1.554.224-1.118 1.082a1.217 1.217 0 0 0-.355 1.084l.266 1.536-1.397-.729a1.221 1.221 0 0 0-1.134 0l-1.4.728.267-1.536a1.219 1.219 0 0 0-.354-1.083l-1.12-1.082 1.553-.224c.397-.057.742-.305.923-.666l.699-1.407.7 1.408c.176.36.52.61.916.665"/></svg>