<svg xmlns="http://www.w3.org/2000/svg" width="24" height="24" fill="none"><path fill="currentColor" d="M20.747 8.483 14.065 2.99a3.26 3.26 0 0 0-4.131 0L3.252 8.483a2.753 2.753 0 0 0-.959 2.617l1.455 7.983a3.25 3.25 0 0 0 3.198 2.667h10.105a3.25 3.25 0 0 0 3.198-2.667l1.455-7.983a2.748 2.748 0 0 0-.957-2.617Zm-.518 2.348-1.455 7.983a1.75 1.75 0 0 1-1.722 1.436H6.947a1.75 1.75 0 0 1-1.722-1.436L3.77 10.832a1.248 1.248 0 0 1 .436-1.19l6.682-5.493A1.747 1.747 0 0 1 12 3.752c.395 0 .79.133 1.112.398l6.682 5.493c.35.287.517.742.435 1.188ZM14.5 14.613c0 .597-.23 1.16-.65 1.584a2.194 2.194 0 0 1-1.1.609V17a.75.75 0 0 1-1.5 0v-.195a2.236 2.236 0 0 1-1.736-1.945.75.75 0 1 1 1.49-.165c.042.38.352.666.721.666h.551a.708.708 0 0 0 .506-.216.751.751 0 0 0 .219-.532.747.747 0 0 0-.552-.727l-1.267-.319a2.245 2.245 0 0 1-1.682-2.18c0-1.075.751-1.973 1.75-2.194V9a.75.75 0 0 1 1.5 0v.195a2.236 2.236 0 0 1 1.736 1.945.749.749 0 0 1-.663.828.759.759 0 0 1-.827-.663.735.735 0 0 0-.72-.666h-.552a.738.738 0 0 0-.725.748.75.75 0 0 0 .551.727l1.267.319a2.244 2.244 0 0 1 1.683 2.18Z"/></svg>