<svg xmlns="http://www.w3.org/2000/svg" width="24" height="24" fill="none"><path fill="currentColor" d="m21.477 9.085-7.412-6.096a3.26 3.26 0 0 0-4.129 0L2.524 9.084a.751.751 0 0 0 .953 1.16l.773-.637V18c0 2.418 1.332 3.75 3.75 3.75h8c2.418 0 3.75-1.332 3.75-3.75V9.607l.773.636a.749.749 0 0 0 1.056-.102.75.75 0 0 0-.102-1.056ZM18.25 18c0 1.577-.673 2.25-2.25 2.25H8c-1.577 0-2.25-.673-2.25-2.25V8.374l5.139-4.225a1.755 1.755 0 0 1 2.223 0l5.139 4.226V18h-.001Zm-5.5-8.305a2.236 2.236 0 0 1 1.736 1.945.75.75 0 0 1-.663.828.758.758 0 0 1-.827-.663.735.735 0 0 0-.721-.666h-.551a.738.738 0 0 0-.725.748.749.749 0 0 0 .551.727l1.267.32a2.245 2.245 0 0 1 1.682 2.18c0 .596-.23 1.16-.65 1.583a2.194 2.194 0 0 1-1.1.609v.193a.75.75 0 0 1-1.5 0v-.195a2.236 2.236 0 0 1-1.736-1.945.749.749 0 1 1 1.49-.165c.042.38.352.666.72.666h.552a.708.708 0 0 0 .506-.216.751.751 0 0 0 .219-.532.747.747 0 0 0-.552-.727l-1.267-.319a2.244 2.244 0 0 1-1.682-2.18c0-1.075.751-1.973 1.75-2.194V9.5a.75.75 0 0 1 1.5 0v.196Z"/></svg>