<svg xmlns="http://www.w3.org/2000/svg" width="24" height="24" fill="none"><path fill="currentColor" d="m20.208 8.141-6.12-5.131a3.244 3.244 0 0 0-4.176 0l-6.12 5.131c-.956.793-1.542 1.387-1.542 3.509V18c0 2.418 1.332 3.75 3.75 3.75h12c2.418 0 3.75-1.332 3.75-3.75v-6.35c0-2.122-.586-2.716-1.542-3.509M20.25 18c0 1.577-.673 2.25-2.25 2.25H6c-1.577 0-2.25-.673-2.25-2.25v-6.35c0-1.526.252-1.735.999-2.355l6.126-5.136a1.75 1.75 0 0 1 2.25 0l6.126 5.136c.747.62.999.829.999 2.355zm-5.75-3.387c0 .597-.23 1.16-.65 1.584a2.194 2.194 0 0 1-1.1.609V17a.75.75 0 0 1-1.5 0v-.195a2.236 2.236 0 0 1-1.736-1.945.749.749 0 1 1 1.49-.165c.042.38.352.666.721.666h.551a.708.708 0 0 0 .506-.216.751.751 0 0 0 .219-.532.747.747 0 0 0-.552-.727l-1.267-.319a2.245 2.245 0 0 1-1.682-2.18c0-1.075.751-1.973 1.75-2.194V9a.75.75 0 0 1 1.5 0v.195a2.236 2.236 0 0 1 1.736 1.945.75.75 0 0 1-.663.828.76.76 0 0 1-.827-.663.735.735 0 0 0-.721-.666h-.551a.738.738 0 0 0-.725.748.75.75 0 0 0 .551.727l1.267.319a2.244 2.244 0 0 1 1.683 2.18"/></svg>