<svg xmlns="http://www.w3.org/2000/svg" width="24" height="24" fill="none"><path fill="currentColor" d="M18 21.75H6c-2.418 0-3.75-1.332-3.75-3.75v-6.35c0-2.123.586-2.716 1.542-3.509l6.12-5.131a3.244 3.244 0 0 1 4.176 0l6.12 5.131c.956.793 1.542 1.387 1.542 3.509V18c0 2.418-1.332 3.75-3.75 3.75m-6-18a1.75 1.75 0 0 0-1.125.41L4.749 9.296c-.747.62-.999.829-.999 2.355v6.35c0 1.577.673 2.25 2.25 2.25h12c1.577 0 2.25-.673 2.25-2.25v-6.35c0-1.526-.252-1.735-.999-2.355L13.125 4.16A1.745 1.745 0 0 0 12 3.75m0 9.3a2.403 2.403 0 0 1-2.4-2.4c0-1.323 1.077-2.4 2.4-2.4s2.4 1.077 2.4 2.4-1.077 2.4-2.4 2.4m0-3.3c-.496 0-.9.404-.9.9s.404.9.9.9.9-.404.9-.9-.404-.9-.9-.9m3 8a.75.75 0 0 1-.75-.75v-.303c0-.72-.497-1.447-1.608-1.447h-1.283c-1.111 0-1.608.727-1.608 1.447V17a.75.75 0 0 1-1.5 0v-.303c0-1.464 1.067-2.947 3.108-2.947h1.283c2.041 0 3.108 1.482 3.108 2.947V17a.75.75 0 0 1-.75.75"/></svg>