<svg xmlns="http://www.w3.org/2000/svg" width="24" height="24" fill="none"><path fill="currentColor" d="m21.477 9.085-7.412-6.096a3.26 3.26 0 0 0-4.129 0L2.524 9.084a.751.751 0 0 0 .953 1.16l.773-.637V18c0 2.418 1.332 3.75 3.75 3.75h8c2.418 0 3.75-1.332 3.75-3.75V9.607l.773.636a.749.749 0 0 0 1.056-.102.75.75 0 0 0-.102-1.056M18.25 18c0 1.577-.673 2.25-2.25 2.25H8c-1.577 0-2.25-.673-2.25-2.25V8.374l5.139-4.225a1.755 1.755 0 0 1 2.223 0l5.139 4.226zM13 16.512a1 1 0 1 1-2 0 1 1 0 0 1 2 0m1.704-2.848a.751.751 0 0 1-.455 1.347.748.748 0 0 1-.453-.153c-1.029-.782-2.562-.782-3.592 0a.75.75 0 1 1-.908-1.195c1.557-1.182 3.85-1.182 5.408.001M12 9.75c1.833 0 3.604.656 4.989 1.848a.75.75 0 0 1-.978 1.137A6.146 6.146 0 0 0 12 11.25a6.148 6.148 0 0 0-4.011 1.485.75.75 0 0 1-.979-1.137A7.653 7.653 0 0 1 12 9.75"/></svg>