<svg xmlns="http://www.w3.org/2000/svg" width="24" height="24" fill="none"><path fill="currentColor" d="M20.747 8.483 14.065 2.99a3.26 3.26 0 0 0-4.131 0L3.252 8.483a2.753 2.753 0 0 0-.959 2.617l1.455 7.983a3.25 3.25 0 0 0 3.198 2.667h10.105a3.25 3.25 0 0 0 3.198-2.667l1.455-7.983a2.748 2.748 0 0 0-.957-2.617m-.518 2.348-1.455 7.983a1.75 1.75 0 0 1-1.722 1.436H6.947a1.75 1.75 0 0 1-1.722-1.436L3.77 10.832a1.248 1.248 0 0 1 .436-1.19l6.682-5.493A1.747 1.747 0 0 1 12 3.752c.395 0 .79.133 1.112.398l6.682 5.493c.35.287.517.742.435 1.188m-3.537.214a.75.75 0 0 1 .058.287v2.5a.75.75 0 0 1-1.5 0v-.69L13.691 14.7c-.543.544-1.493.544-2.038 0l-1.179-1.179-1.944 2.027a.748.748 0 0 1-1.06 0 .75.75 0 0 1 0-1.061l2.027-2.027c.544-.544 1.495-.544 2.04 0l1.177 1.178 1.513-1.558H13.5a.75.75 0 0 1 0-1.5H16a.75.75 0 0 1 .692.465"/></svg>