<svg xmlns="http://www.w3.org/2000/svg" width="24" height="24" fill="none"><path fill="currentColor" d="m21.477 9.085-7.412-6.096a3.26 3.26 0 0 0-4.129 0L2.524 9.084a.751.751 0 0 0 .953 1.16l.773-.637V18c0 2.418 1.332 3.75 3.75 3.75h8c2.418 0 3.75-1.332 3.75-3.75V9.607l.773.636a.749.749 0 0 0 1.056-.102.75.75 0 0 0-.102-1.056M18.25 18c0 1.577-.673 2.25-2.25 2.25H8c-1.577 0-2.25-.673-2.25-2.25V8.374l5.139-4.225a1.755 1.755 0 0 1 2.223 0l5.139 4.226zm-4.558-5.682 1.558 1.558v-.689a.75.75 0 0 1 1.5 0v2.5a.751.751 0 0 1-.75.75h-2.5a.75.75 0 0 1 0-1.5h.689L12.63 13.38l-1.096 1.18c-.543.542-1.493.544-2.04 0L7.47 12.53a.75.75 0 0 1 1.06-1.06l2.027 2.027 1.096-1.179c.544-.545 1.493-.545 2.038 0Z"/></svg>