<svg xmlns="http://www.w3.org/2000/svg" width="24" height="24" fill="none"><path fill="currentColor" d="M18 21.75H6c-2.418 0-3.75-1.332-3.75-3.75v-6.35c0-2.123.586-2.716 1.542-3.509l6.12-5.131a3.244 3.244 0 0 1 4.176 0l6.12 5.131c.956.793 1.542 1.387 1.542 3.509V18c0 2.418-1.332 3.75-3.75 3.75Zm-6-18a1.75 1.75 0 0 0-1.125.41L4.749 9.296c-.747.62-.999.829-.999 2.355v6.35c0 1.577.673 2.25 2.25 2.25h12c1.577 0 2.25-.673 2.25-2.25v-6.35c0-1.526-.252-1.735-.999-2.355L13.125 4.16A1.745 1.745 0 0 0 12 3.75ZM8.53 16.53l2.304-2.232 1.271 1.269a1.55 1.55 0 0 0 2.189 0l2.235-2.236a.75.75 0 0 0-1.061-1.061l-2.306 2.235-1.271-1.269a1.553 1.553 0 0 0-2.191.001L7.468 15.47a.75.75 0 1 0 1.062 1.06Z"/></svg>