<svg xmlns="http://www.w3.org/2000/svg" width="24" height="24" fill="none"><path fill="currentColor" d="m20.208 8.141-6.12-5.131a3.244 3.244 0 0 0-4.176 0l-6.12 5.131c-.956.793-1.542 1.387-1.542 3.509V18c0 2.418 1.332 3.75 3.75 3.75h12c2.418 0 3.75-1.332 3.75-3.75v-6.35c0-2.122-.586-2.716-1.542-3.509M20.25 18c0 1.577-.673 2.25-2.25 2.25H6c-1.577 0-2.25-.673-2.25-2.25v-6.35c0-1.526.252-1.735.999-2.355l6.126-5.136a1.75 1.75 0 0 1 2.25 0l6.126 5.136c.747.62.999.829.999 2.355zm-5.546-4.336a.751.751 0 0 1-.455 1.347.748.748 0 0 1-.453-.153c-1.029-.782-2.562-.782-3.592 0a.75.75 0 0 1-.908-1.195c1.557-1.182 3.851-1.182 5.408.001m2.285-2.066a.75.75 0 0 1-.978 1.137A6.146 6.146 0 0 0 12 11.25a6.148 6.148 0 0 0-4.011 1.485.75.75 0 0 1-.979-1.137 7.648 7.648 0 0 1 4.989-1.848 7.65 7.65 0 0 1 4.99 1.848M13 16.5a1 1 0 1 1-2 0 1 1 0 0 1 2 0"/></svg>