<svg xmlns="http://www.w3.org/2000/svg" width="24" height="24" fill="none"><path fill="currentColor" d="m21.477 9.085-7.412-6.096a3.26 3.26 0 0 0-4.129 0L2.524 9.084a.751.751 0 0 0 .953 1.16l.773-.637V18c0 2.418 1.332 3.75 3.75 3.75h8c2.418 0 3.75-1.332 3.75-3.75V9.607l.773.636a.749.749 0 0 0 1.056-.102.75.75 0 0 0-.102-1.056ZM18.25 18c0 1.577-.673 2.25-2.25 2.25H8c-1.577 0-2.25-.673-2.25-2.25V8.374l5.139-4.225a1.755 1.755 0 0 1 2.223 0l5.139 4.226V18h-.001Zm-10.5-5.083a3.671 3.671 0 0 0 3.667 3.667c.74 0 1.427-.224 2.003-.603l1.549 1.55a.748.748 0 0 0 1.06 0 .75.75 0 0 0 0-1.062l-1.55-1.55a3.645 3.645 0 0 0 .602-2.004 3.672 3.672 0 0 0-3.666-3.667 3.674 3.674 0 0 0-3.665 3.67Zm5.833 0a2.17 2.17 0 0 1-2.166 2.167 2.17 2.17 0 0 1-2.167-2.167 2.17 2.17 0 0 1 2.167-2.167 2.17 2.17 0 0 1 2.166 2.167Z"/></svg>