<svg xmlns="http://www.w3.org/2000/svg" width="24" height="24" fill="none"><path fill="currentColor" d="m21.477 9.085-7.412-6.096a3.26 3.26 0 0 0-4.129 0L2.524 9.084a.751.751 0 0 0 .953 1.16l.773-.637V18c0 2.418 1.332 3.75 3.75 3.75h8c2.418 0 3.75-1.332 3.75-3.75V9.607l.773.636a.749.749 0 0 0 1.056-.102.75.75 0 0 0-.102-1.056M13.75 20.25h-3.5V16.5c0-.965.785-1.75 1.75-1.75s1.75.785 1.75 1.75zm4.5-2.25c0 1.577-.673 2.25-2.25 2.25h-.75V16.5A3.254 3.254 0 0 0 12 13.25a3.254 3.254 0 0 0-3.25 3.25v3.75H8c-1.577 0-2.25-.673-2.25-2.25V8.374l5.139-4.225a1.755 1.755 0 0 1 2.223 0l5.139 4.226z"/></svg>