<svg xmlns="http://www.w3.org/2000/svg" width="24" height="24" fill="none"><path fill="currentColor" d="M18 21.75H6c-2.418 0-3.75-1.332-3.75-3.75v-6.35c0-2.123.586-2.716 1.542-3.509l6.12-5.131a3.244 3.244 0 0 1 4.176 0l6.12 5.131c.956.793 1.542 1.387 1.542 3.509V18c0 2.418-1.332 3.75-3.75 3.75m-6-18a1.75 1.75 0 0 0-1.125.41L4.749 9.296c-.747.62-.999.829-.999 2.355v6.35c0 1.577.673 2.25 2.25 2.25h12c1.577 0 2.25-.673 2.25-2.25v-6.35c0-1.526-.252-1.735-.999-2.355L13.125 4.16A1.745 1.745 0 0 0 12 3.75m0 14.5a.733.733 0 0 1-.24-.04c-1.938-.656-4.01-2.355-4.01-5.155v-2.222a.75.75 0 0 1 .543-.72c1.783-.513 2.614-.9 3.376-1.284a.757.757 0 0 1 .68.002c.754.386 1.576.769 3.336 1.216a.749.749 0 0 1 .565.727v2.28c0 2.8-2.071 4.499-4.01 5.155a.708.708 0 0 1-.24.041m-2.75-6.856v1.662c0 2.296 1.958 3.323 2.75 3.644.792-.321 2.75-1.348 2.75-3.644v-1.703c-1.196-.331-1.99-.647-2.745-1.015-.767.37-1.546.688-2.755 1.056"/></svg>