<svg xmlns="http://www.w3.org/2000/svg" width="24" height="24" fill="none"><path fill="currentColor" d="M9.75 11V7a.75.75 0 0 1 1.5 0v1.25h1.5V7a.75.75 0 0 1 1.5 0v4a.75.75 0 0 1-1.5 0V9.75h-1.5V11a.75.75 0 0 1-1.5 0Zm13 10a.75.75 0 0 1-.75.75H2a.75.75 0 0 1 0-1.5h.25V11c0-1.748 1.002-2.75 2.75-2.75h.25V6c0-2.418 1.332-3.75 3.75-3.75h6c2.418 0 3.75 1.332 3.75 3.75v2.25H19c1.748 0 2.75 1.002 2.75 2.75v9.25H22a.75.75 0 0 1 .75.75Zm-16-.75h2.5V17A2.752 2.752 0 0 1 12 14.25 2.752 2.752 0 0 1 14.75 17v3.25h2.5V6c0-1.577-.673-2.25-2.25-2.25H9c-1.577 0-2.25.673-2.25 2.25v14.25Zm6.5-3.25c0-.689-.561-1.25-1.25-1.25s-1.25.561-1.25 1.25v3.25h2.5V17Zm-9.5 3.25h1.5V9.75H5c-.911 0-1.25.339-1.25 1.25v9.25Zm16.5 0V11c0-.911-.339-1.25-1.25-1.25h-.25v10.5h1.5Z"/></svg>