<svg xmlns="http://www.w3.org/2000/svg" width="24" height="24" fill="none"><path fill="currentColor" d="M8.14 16.73c-.39.07-.62.11-.95.44-.15.15-.34.22-.53.22s-.38-.07-.53-.22a.754.754 0 0 1 0-1.06c.67-.67 1.3-.78 1.76-.86.39-.07.62-.11.95-.44.33-.33.37-.56.44-.95.08-.46.19-1.09.86-1.76.67-.67 1.3-.78 1.76-.85.39-.07.62-.11.95-.44.33-.33.37-.56.44-.95.08-.46.19-1.09.85-1.76.66-.67 1.3-.78 1.76-.85.38-.07.62-.11.95-.44.29-.29.77-.29 1.06 0 .29.29.29.77 0 1.06-.67.67-1.3.78-1.76.85-.38.07-.62.11-.95.44-.33.33-.37.56-.44.95-.08.46-.19 1.09-.85 1.76-.67.67-1.3.77-1.76.85-.38.07-.62.11-.95.44-.33.33-.37.56-.44.95-.08.46-.19 1.09-.86 1.76-.67.67-1.3.78-1.76.86m12.8-7.6a2.722 2.722 0 0 1 0 3.83l-8 8c-.51.51-1.2.8-1.92.8-.73 0-1.4-.29-1.91-.8l-.25-.25a3.92 3.92 0 0 1-5.43-.13 3.947 3.947 0 0 1-.13-5.44l-.25-.25c-.51-.5-.79-1.18-.8-1.91 0-.73.28-1.42.8-1.93l7.99-7.99a2.722 2.722 0 0 1 3.83 0l.25.25c1.5-1.38 4.01-1.36 5.46.1 1.5 1.51 1.52 3.92.1 5.47l.25.25zM3.75 12.98c0 .32.13.62.35.85l.24.24 9.71-9.71-.24-.24c-.47-.46-1.24-.47-1.72 0L4.1 12.11c-.23.23-.36.54-.36.87zm4.2 6.54.39-.39L19.1 8.37l.41-.41c.95-.95.95-2.5 0-3.45a2.43 2.43 0 0 0-1.74-.73c-.65 0-1.27.25-1.73.72l-.42.42L4.86 15.67v.01h-.01l-.38.38c-.95.95-.95 2.5 0 3.46.94.94 2.54.93 3.47 0zm11.92-9.34-.23-.23-9.71 9.71.24.24a1.197 1.197 0 0 0 1.71 0l7.99-7.99c.47-.47.47-1.24 0-1.72z"/></svg>