<svg xmlns="http://www.w3.org/2000/svg" width="24" height="24" fill="none"><path fill="currentColor" d="M16.74 7.26V7c0-2.62-2.13-4.75-4.75-4.75S7.24 4.38 7.24 7v.26a3.252 3.252 0 0 0-3.01 3.24c0 1.71 1.46 3.25 3.25 3.25h.01l3.17 7.14c.23.53.74.86 1.32.86.58 0 1.08-.33 1.32-.86l3.17-7.14h.01c1.79 0 3.25-1.46 3.25-3.25s-1.33-3.12-3.01-3.24h.02ZM12 20.16l-2.85-6.41h5.69l-2.85 6.41H12Zm4.5-7.91h-9c-.96 0-1.75-.79-1.75-1.75s.79-1.75 1.75-1.75c.15 0 .3.02.44.06a.75.75 0 0 0 .93-.93A3.256 3.256 0 0 1 12 3.75a3.256 3.256 0 0 1 3.13 4.13.75.75 0 0 0 .93.93c.14-.04.29-.06.44-.06.96 0 1.75.79 1.75 1.75s-.79 1.75-1.75 1.75Z"/></svg>