<svg xmlns="http://www.w3.org/2000/svg" width="24" height="24" fill="none"><path fill="currentColor" d="M9.006 12.05a2.402 2.402 0 0 1-2.399-2.4c0-1.323 1.076-2.4 2.399-2.4s2.4 1.077 2.4 2.4-1.077 2.4-2.4 2.4Zm0-3.3a.9.9 0 1 0 .003 1.801.9.9 0 0 0-.003-1.801Zm2.994 8a.75.75 0 0 1-.75-.75v-.303c0-.72-.497-1.447-1.608-1.447H8.359c-1.111 0-1.608.727-1.608 1.447V16a.75.75 0 0 1-1.5 0v-.303c0-1.464 1.067-2.947 3.108-2.947h1.283c2.041 0 3.108 1.482 3.108 2.947V16a.75.75 0 0 1-.75.75Zm6 3.5H6c-2.418 0-3.75-1.332-3.75-3.75v-9c0-2.418 1.332-3.75 3.75-3.75h12c2.418 0 3.75 1.332 3.75 3.75v9c0 2.418-1.332 3.75-3.75 3.75Zm-12-15c-1.577 0-2.25.673-2.25 2.25v9c0 1.577.673 2.25 2.25 2.25h12c1.577 0 2.25-.673 2.25-2.25v-9c0-1.577-.673-2.25-2.25-2.25H6Zm12.75 4.688a.75.75 0 0 0-.75-.75h-4a.75.75 0 0 0 0 1.5h4a.75.75 0 0 0 .75-.75ZM18.7 14a.75.75 0 0 0-.75-.75h-3a.75.75 0 0 0 0 1.5h3a.75.75 0 0 0 .75-.75Z"/></svg>