<svg xmlns="http://www.w3.org/2000/svg" width="24" height="24" fill="none"><path fill="currentColor" d="M18 3.25H6C3.582 3.25 2.25 4.582 2.25 7v10c0 2.418 1.332 3.75 3.75 3.75h12c2.418 0 3.75-1.332 3.75-3.75V7c0-2.418-1.332-3.75-3.75-3.75M6 4.75h12c1.577 0 2.25.673 2.25 2.25v6.189l-4.01-4.01c-.66-.66-1.82-.66-2.48 0L9 13.94l-.76-.76c-.66-.66-1.82-.66-2.48 0l-2.01 2.01V7c0-1.577.673-2.25 2.25-2.25m12 14.5H6c-1.472 0-2.148-.596-2.233-1.957L6.82 14.24c.127-.126.232-.126.359 0l.939.939c.467.468 1.296.467 1.761 0l4.94-4.94c.127-.126.232-.126.359 0l5.07 5.07V17c.002 1.577-.671 2.25-2.248 2.25M6.75 9a1.25 1.25 0 1 1 2.5 0 1.25 1.25 0 0 1-2.5 0"/></svg>