<svg xmlns="http://www.w3.org/2000/svg" width="24" height="24" fill="none"><path fill="currentColor" d="M21 10.25a.75.75 0 0 0-.75.75v2.189l-4.01-4.01c-.66-.66-1.82-.66-2.48 0L9 13.94l-.76-.76c-.66-.66-1.82-.66-2.48 0l-2.01 2.01V7c0-1.577.673-2.25 2.25-2.25h7a.75.75 0 0 0 0-1.5H6C3.582 3.25 2.25 4.582 2.25 7v10c0 2.418 1.332 3.75 3.75 3.75h12c2.418 0 3.75-1.332 3.75-3.75v-6a.75.75 0 0 0-.75-.75m-3 9H6c-1.472 0-2.148-.596-2.233-1.957L6.82 14.24c.127-.126.232-.126.359 0l.939.939c.467.468 1.296.467 1.761 0l4.94-4.94c.127-.126.232-.126.359 0l5.07 5.07V17c.002 1.577-.671 2.25-2.248 2.25M8 7.75a1.25 1.25 0 1 1 0 2.5 1.25 1.25 0 0 1 0-2.5m8.47-1.886a.75.75 0 0 1 1.061-1.061l.803.803 2.137-2.136a.75.75 0 0 1 1.061 1.061l-2.667 2.667a.748.748 0 0 1-1.06 0z"/></svg>