<svg xmlns="http://www.w3.org/2000/svg" width="24" height="24" fill="none"><path fill="currentColor" d="m21.689 13.009.002-.009c0-.009-.005-.016-.005-.025a3.211 3.211 0 0 0-.043-.213c-.008-.024-.012-.048-.022-.071a3.766 3.766 0 0 0-.173-.553l-1.979-4.616c-.501-1.169-.974-2.273-3.447-2.273a.75.75 0 0 0 0 1.5c1.484 0 1.62.316 2.068 1.364l1.773 4.136h-2.818c-1.25 0-2.409.705-3.102 1.887A2.259 2.259 0 0 1 12 15.249a2.258 2.258 0 0 1-1.943-1.114c-.692-1.181-1.852-1.886-3.102-1.886H4.137L5.91 8.113c.449-1.048.584-1.364 2.068-1.364a.75.75 0 0 0 0-1.5c-2.474 0-2.946 1.104-3.447 2.273l-1.979 4.615c-.077.18-.126.367-.174.555-.01.02-.012.042-.02.063a4.08 4.08 0 0 0-.045.22c0 .008-.005.015-.005.023l.001.008c-.033.2-.061.402-.061.608V18c0 2.418 1.332 3.75 3.75 3.75h12c2.418 0 3.75-1.332 3.75-3.75v-4.384a3.507 3.507 0 0 0-.059-.607ZM18 20.25H6c-1.577 0-2.25-.673-2.25-2.25v-4.25h3.205c.712 0 1.387.428 1.807 1.144A3.762 3.762 0 0 0 12 16.75a3.764 3.764 0 0 0 3.238-1.855c.42-.717 1.095-1.145 1.807-1.145h3.205V18c0 1.577-.673 2.25-2.25 2.25ZM9.47 4.53a.75.75 0 0 1 0-1.061l2-2a.75.75 0 0 1 .817-.162.749.749 0 0 1 .244.162l2 2a.75.75 0 0 1-1.06 1.061l-.72-.72V10a.75.75 0 0 1-1.5 0V3.811l-.72.72A.751.751 0 0 1 9.47 4.53Z"/></svg>