<svg xmlns="http://www.w3.org/2000/svg" width="24" height="24" fill="none"><path fill="currentColor" d="m21.558 12.301-2.162-6.487C18.869 4.232 17.568 3.25 16 3.25H8c-1.567 0-2.868.982-3.396 2.564L2.444 12.3a3.732 3.732 0 0 0-.194 1.187V18c0 2.418 1.332 3.75 3.75 3.75h12c2.418 0 3.75-1.332 3.75-3.75v-4.513c0-.405-.065-.805-.192-1.186M6.028 6.288C6.348 5.325 7.086 4.75 8 4.75h8c.914 0 1.65.575 1.972 1.538l1.988 5.962h-2.914c-1.25 0-2.409.705-3.102 1.887a2.259 2.259 0 0 1-1.943 1.113 2.257 2.257 0 0 1-1.943-1.114c-.692-1.181-1.852-1.886-3.102-1.886H4.042zM18 20.25H6c-1.577 0-2.25-.673-2.25-2.25v-4.25h3.205c.712 0 1.387.428 1.807 1.144A3.762 3.762 0 0 0 12 16.75a3.764 3.764 0 0 0 3.238-1.855c.42-.717 1.095-1.145 1.807-1.145h3.205V18c0 1.577-.673 2.25-2.25 2.25"/></svg>