<svg width="24" height="24" viewBox="0 0 24 24" fill="none" xmlns="http://www.w3.org/2000/svg">
<path d="M21.69 8.25002C21.63 6.98002 21.38 5.35003 20.02 3.99003C18.66 2.63003 17.03 2.38003 15.76 2.32003C14.25 2.24003 9.76 2.23003 8.26 2.32003C6.99001 2.38003 5.36 2.62003 4 3.99003C2.64 5.35003 2.38998 6.98002 2.32998 8.25002C2.23998 9.76002 2.23998 14.25 2.32998 15.75C2.38998 17.02 2.63 18.65 4 20.02C5.37 21.38 7 21.63 8.26 21.69C9.02001 21.73 10.52 21.75 12.02 21.75C13.52 21.75 15.01 21.73 15.76 21.69C17.03 21.63 18.66 21.39 20.03 20.02C21.39 18.66 21.64 17.03 21.7 15.76C21.79 14.25 21.79 9.77002 21.7 8.26002L21.69 8.25002ZM20.19 15.67C20.11 17.18 19.75 18.16 18.95 18.95C18.16 19.74 17.18 20.11 15.67 20.18C14.2 20.26 9.81 20.26 8.32 20.18C6.82 20.1 5.84 19.73 5.04 18.94C4.25 18.15 3.87999 17.17 3.80999 15.66C3.72999 14.22 3.72999 9.76002 3.80999 8.31002C3.88999 6.80002 4.25 5.82002 5.04 5.03002C5.83 4.24002 6.82 3.87003 8.32 3.80003C9.06 3.76003 10.52 3.74003 11.99 3.74003C13.46 3.74003 14.93 3.76003 15.67 3.80003C17.18 3.88003 18.16 4.24002 18.95 5.04002C19.74 5.83002 20.11 6.81003 20.18 8.32003C20.26 9.80003 20.26 14.19 20.18 15.67H20.19ZM12 7.25002C9.38 7.25002 7.25 9.38002 7.25 12C7.25 14.62 9.38 16.75 12 16.75C14.62 16.75 16.75 14.62 16.75 12C16.75 9.38002 14.62 7.25002 12 7.25002ZM12 15.25C10.21 15.25 8.75 13.79 8.75 12C8.75 10.21 10.21 8.75002 12 8.75002C13.79 8.75002 15.25 10.21 15.25 12C15.25 13.79 13.79 15.25 12 15.25ZM18.52 6.50002C18.52 7.05002 18.07 7.50002 17.52 7.50002C16.97 7.50002 16.52 7.05002 16.52 6.50002C16.52 5.95002 16.96 5.50002 17.52 5.50002C18.07 5.50002 18.52 5.95002 18.52 6.50002Z" fill="currentColor"/>
</svg>
