<svg xmlns="http://www.w3.org/2000/svg" width="24" height="24" fill="none"><path fill="currentColor" d="M21.69 8.25c-.06-1.27-.31-2.9-1.67-4.26-1.36-1.36-2.99-1.61-4.26-1.67-1.51-.08-6-.09-7.5 0-1.27.06-2.9.3-4.26 1.67-1.36 1.36-1.61 2.99-1.67 4.26-.09 1.51-.09 6 0 7.5.06 1.27.3 2.9 1.67 4.27 1.37 1.36 3 1.61 4.26 1.67.76.04 2.26.06 3.76.06s2.99-.02 3.74-.06c1.27-.06 2.9-.3 4.27-1.67 1.36-1.36 1.61-2.99 1.67-4.26.09-1.51.09-5.99 0-7.5zm-1.5 7.42c-.08 1.51-.44 2.49-1.24 3.28-.79.79-1.77 1.16-3.28 1.23-1.47.08-5.86.08-7.35 0-1.5-.08-2.48-.45-3.28-1.24-.79-.79-1.16-1.77-1.23-3.28-.08-1.44-.08-5.9 0-7.35.08-1.51.44-2.49 1.23-3.28.79-.79 1.78-1.16 3.28-1.23.74-.04 2.2-.06 3.67-.06 1.47 0 2.94.02 3.68.06 1.51.08 2.49.44 3.28 1.24.79.79 1.16 1.77 1.23 3.28.08 1.48.08 5.87 0 7.35zM12 7.25c-2.62 0-4.75 2.13-4.75 4.75s2.13 4.75 4.75 4.75 4.75-2.13 4.75-4.75S14.62 7.25 12 7.25m0 8c-1.79 0-3.25-1.46-3.25-3.25S10.21 8.75 12 8.75s3.25 1.46 3.25 3.25-1.46 3.25-3.25 3.25m6.52-8.75c0 .55-.45 1-1 1s-1-.45-1-1 .44-1 1-1c.55 0 1 .45 1 1"/></svg>