<svg xmlns="http://www.w3.org/2000/svg" width="24" height="24" fill="none"><path fill="currentColor" d="M19 2.25c-1.52 0-2.75 1.23-2.75 2.75v8c0 .41.34.75.75.75h1.25v2.75c0 1.52-1.23 2.75-2.75 2.75s-2.75-1.23-2.75-2.75v-9A4.26 4.26 0 0 0 8.5 3.25 4.26 4.26 0 0 0 4.25 7.5v2.75H3c-.41 0-.75.34-.75.75v8c0 1.52 1.23 2.75 2.75 2.75S7.75 20.52 7.75 19v-8c0-.41-.34-.75-.75-.75H5.75V7.5c0-1.52 1.23-2.75 2.75-2.75s2.75 1.23 2.75 2.75v9a4.26 4.26 0 0 0 4.25 4.25 4.26 4.26 0 0 0 4.25-4.25v-2.75H21c.41 0 .75-.34.75-.75V5c0-1.52-1.23-2.75-2.75-2.75m-14 18c-.69 0-1.25-.56-1.25-1.25v-4.25h2.5V19c0 .69-.56 1.25-1.25 1.25m1.25-7h-2.5v-1.5h2.5zM19 3.75c.69 0 1.25.56 1.25 1.25v4.25h-2.5V5c0-.69.56-1.25 1.25-1.25m-1.25 8.5v-1.5h2.5v1.5z"/></svg>