<svg xmlns="http://www.w3.org/2000/svg" width="24" height="24" fill="none"><path fill="currentColor" d="m19.87 4.725-7.001-2.334a2.745 2.745 0 0 0-1.739 0l-7 2.333a2.747 2.747 0 0 0-1.88 2.609v9.333c0 1.186.756 2.234 1.88 2.609l7.001 2.334a2.743 2.743 0 0 0 1.739 0l7-2.333a2.747 2.747 0 0 0 1.88-2.609V7.334a2.745 2.745 0 0 0-1.88-2.609M4.604 6.147l6.999-2.333a1.263 1.263 0 0 1 .792-.001l7 2.333c.511.17.854.647.854 1.186V9.35l-7.381-2.46a2.745 2.745 0 0 0-1.739 0l-7.38 2.46V7.332a1.252 1.252 0 0 1 .855-1.185m14.792 11.706-6.999 2.333c-.26.087-.534.086-.792 0l-7-2.333a1.248 1.248 0 0 1-.854-1.186v-2.288l1.31-.439a.752.752 0 0 0 .48-.95.762.762 0 0 0-.95-.47l-.84.28v-1.868l7.854-2.618c.26-.087.534-.086.792 0l7.854 2.618v1.864l-.91-.307a.753.753 0 0 0-.48 1.43l1.391.46v2.287a1.255 1.255 0 0 1-.856 1.187M15.03 11.29c.09.18.1.38.039.57-.13.38-.56.6-.949.48l-1.73-.58c-.21-.07-.46-.09-.689-.03 0 0-.021.01-.03.01-.021.01-.04.01-.061.02l-1.8.6c-.08.02-.16.04-.24.04a.752.752 0 0 1-.71-.52.752.752 0 0 1 .471-.95l1.8-.59c.05-.02.09-.03.14-.05.5-.14 1.08-.13 1.6.05l1.721.57h.01c.188.07.337.2.428.38M7.472 12.6a.75.75 0 1 1-1.5 0 .75.75 0 0 1 1.5 0m9.536-.343a.75.75 0 1 1-1.5 0 .75.75 0 0 1 1.5 0"/></svg>