<svg xmlns="http://www.w3.org/2000/svg" width="24" height="24" fill="none"><path fill="currentColor" d="M13.5 6.75a3.755 3.755 0 0 0-3.696 4.385L6.97 13.969a.75.75 0 0 0-.22.53v2c0 .414.336.75.75.75h2a.75.75 0 0 0 .75-.75v-.75H11c.199 0 .39-.079.53-.22l1.335-1.334A3.755 3.755 0 0 0 17.25 10.5a3.754 3.754 0 0 0-3.75-3.75m0 6c-.223 0-.44-.033-.649-.097a.747.747 0 0 0-.75.187l-1.411 1.41H9.5a.75.75 0 0 0-.75.75v.75h-.5v-.939l2.91-2.91a.752.752 0 0 0 .187-.752A2.253 2.253 0 0 1 13.5 8.25c1.24 0 2.25 1.009 2.25 2.25a2.253 2.253 0 0 1-2.25 2.25M14.77 10a.75.75 0 0 1-.75.75.755.755 0 0 1-.755-.75c0-.414.331-.75.745-.75h.01a.75.75 0 0 1 .75.75m2.855-7.75H6.375c-2.66 0-4.125 1.465-4.125 4.125v11.25c0 2.66 1.465 4.125 4.125 4.125h11.25c2.66 0 4.125-1.465 4.125-4.125V6.375c0-2.66-1.465-4.125-4.125-4.125m2.625 15.375c0 1.84-.785 2.625-2.625 2.625H6.375c-1.84 0-2.625-.785-2.625-2.625V6.375c0-1.84.785-2.625 2.625-2.625h11.25c1.84 0 2.625.785 2.625 2.625z"/></svg>