<svg xmlns="http://www.w3.org/2000/svg" width="24" height="24" fill="none"><path fill="currentColor" d="M15 2.25a6.758 6.758 0 0 0-6.577 8.267L2.47 16.47a.75.75 0 0 0-.22.53v4c0 .414.336.75.75.75h4a.75.75 0 0 0 .75-.75v-2.25H10c.199 0 .39-.079.53-.22l2.953-2.953A6.758 6.758 0 0 0 21.75 9 6.758 6.758 0 0 0 15 2.25m0 12a5.118 5.118 0 0 1-1.519-.227.745.745 0 0 0-.752.187l-3.04 3.04H7a.75.75 0 0 0-.75.75v2.25h-2.5v-2.939l6.04-6.04a.751.751 0 0 0 .187-.751 5.15 5.15 0 0 1-.227-1.519A5.256 5.256 0 0 1 15 3.751a5.256 5.256 0 0 1 5.25 5.25A5.255 5.255 0 0 1 15 14.25M17.27 8c0 .69-.56 1.25-1.25 1.25-.689 0-1.255-.56-1.255-1.25s.555-1.25 1.245-1.25h.01c.69 0 1.25.56 1.25 1.25"/></svg>