<svg xmlns="http://www.w3.org/2000/svg" width="24" height="24" fill="none"><path fill="currentColor" d="M17.625 2.25H6.375c-2.66 0-4.125 1.465-4.125 4.125v11.25c0 2.66 1.465 4.125 4.125 4.125h11.25c2.66 0 4.125-1.465 4.125-4.125V6.375c0-2.66-1.465-4.125-4.125-4.125Zm2.625 15.375c0 1.84-.785 2.625-2.625 2.625H6.375c-1.84 0-2.625-.785-2.625-2.625V6.375c0-1.84.785-2.625 2.625-2.625h11.25c1.84 0 2.625.785 2.625 2.625v11.25ZM12 8.25a2.253 2.253 0 0 0-2.25 2.25c0 .976.629 1.801 1.5 2.112V16a.75.75 0 0 0 1.5 0v-3.388a2.247 2.247 0 0 0 1.5-2.112c0-1.241-1.01-2.25-2.25-2.25Zm0 3a.75.75 0 0 1 0-1.5.75.75 0 0 1 0 1.5Z"/></svg>