<svg xmlns="http://www.w3.org/2000/svg" width="24" height="24" fill="none"><path fill="currentColor" d="M12.5 1.25a2.253 2.253 0 0 0-2.25 2.25c0 1.241 1.01 2.25 2.25 2.25s2.25-1.009 2.25-2.25-1.01-2.25-2.25-2.25Zm0 3a.75.75 0 0 1 0-1.5.75.75 0 0 1 0 1.5Zm6 1.5c1.24 0 2.25-1.009 2.25-2.25s-1.01-2.25-2.25-2.25a2.253 2.253 0 0 0-2.25 2.25c0 1.241 1.01 2.25 2.25 2.25Zm0-3a.75.75 0 0 1 0 1.5.75.75 0 0 1 0-1.5Zm-12-1.5A2.253 2.253 0 0 0 4.25 3.5c0 1.241 1.01 2.25 2.25 2.25S8.75 4.741 8.75 3.5 7.74 1.25 6.5 1.25Zm0 3a.75.75 0 0 1 0-1.5.75.75 0 0 1 0 1.5Zm6 2.667a2.253 2.253 0 0 0-2.25 2.25c0 1.241 1.01 2.25 2.25 2.25s2.25-1.009 2.25-2.25-1.01-2.25-2.25-2.25Zm0 3a.75.75 0 0 1 0-1.5.75.75 0 0 1 0 1.5Zm6-3a2.253 2.253 0 0 0-2.25 2.25c0 1.241 1.01 2.25 2.25 2.25s2.25-1.009 2.25-2.25-1.01-2.25-2.25-2.25Zm0 3a.75.75 0 0 1 0-1.5.75.75 0 0 1 0 1.5Zm-12-3a2.253 2.253 0 0 0-2.25 2.25c0 1.241 1.01 2.25 2.25 2.25s2.25-1.009 2.25-2.25-1.01-2.25-2.25-2.25Zm0 3a.75.75 0 0 1 0-1.5.75.75 0 0 1 0 1.5Zm6 2.666a2.253 2.253 0 0 0-2.25 2.25c0 1.241 1.01 2.25 2.25 2.25s2.25-1.009 2.25-2.25-1.01-2.25-2.25-2.25Zm0 3a.75.75 0 0 1 0-1.5.75.75 0 0 1 0 1.5Zm6-3a2.253 2.253 0 0 0-2.25 2.25c0 1.241 1.01 2.25 2.25 2.25s2.25-1.009 2.25-2.25-1.01-2.25-2.25-2.25Zm0 3a.75.75 0 0 1 0-1.5.75.75 0 0 1 0 1.5Zm-12-3a2.253 2.253 0 0 0-2.25 2.25c0 1.241 1.01 2.25 2.25 2.25s2.25-1.009 2.25-2.25-1.01-2.25-2.25-2.25Zm0 3a.75.75 0 0 1 0-1.5.75.75 0 0 1 0 1.5Zm6 2.667a2.253 2.253 0 0 0-2.25 2.25c0 1.241 1.01 2.25 2.25 2.25s2.25-1.009 2.25-2.25-1.01-2.25-2.25-2.25Zm0 3a.75.75 0 0 1 0-1.5.75.75 0 0 1 0 1.5Z"/></svg>