<svg xmlns="http://www.w3.org/2000/svg" width="24" height="24" fill="none"><path fill="currentColor" d="M19.58 12c-.72-1.17-2.41-4.34-2.5-8.62-.01-.63-.52-1.13-1.14-1.13H8.07c-.63 0-1.13.49-1.14 1.13-.09 4.28-1.78 7.46-2.5 8.63-.22.35-.23.8-.02 1.16.2.36.59.59 1.01.59h5.85v6.5H9.52c-.41 0-.75.34-.75.75s.34.75.75.75h5c.41 0 .75-.34.75-.75s-.34-.75-.75-.75h-1.75v-6.5h2v2.25c0 .41.34.75.75.75s.75-.34.75-.75v-2.25h2.35c.42 0 .8-.23 1.01-.59.2-.36.19-.8-.03-1.16zM8.41 3.75h7.17c.09 2.13.54 3.99 1.06 5.5H7.35c.53-1.51.98-3.37 1.06-5.5m-2.4 8.5c.22-.4.48-.91.75-1.5h10.48c.26.59.52 1.1.75 1.5z"/></svg>