<svg xmlns="http://www.w3.org/2000/svg" width="24" height="24" fill="none"><path fill="currentColor" d="M21 15.25h-.25V7c0-2.418-1.332-3.75-3.75-3.75H7C4.582 3.25 3.25 4.582 3.25 7v8.25H3a.75.75 0 0 0-.75.75v1c0 1.748 1.002 2.75 2.75 2.75h14c1.748 0 2.75-1.002 2.75-2.75v-1a.75.75 0 0 0-.75-.75M4.75 7c0-1.577.673-2.25 2.25-2.25h10c1.577 0 2.25.673 2.25 2.25v8.25H4.75zm15.5 10c0 .923-.327 1.25-1.25 1.25H5c-.923 0-1.25-.327-1.25-1.25v-.25h16.5zm-9.72-8.47L9.06 10l1.47 1.47a.75.75 0 0 1-1.06 1.061l-2-2a.75.75 0 0 1 0-1.061l2-2a.75.75 0 1 1 1.06 1.06m6 .94a.75.75 0 0 1 0 1.061l-2 2a.748.748 0 0 1-1.06 0 .75.75 0 0 1 0-1.061L14.94 10l-1.47-1.47a.75.75 0 0 1 1.061-1.061z"/></svg>