<svg xmlns="http://www.w3.org/2000/svg" width="24" height="24" fill="none"><path fill="currentColor" d="M15.817 18.579c-1.371.986-2.856 1.318-4.234 1.318-1.517 0-2.898-.402-3.864-.778-.505 1.217-.687 2.015-.692 2.036a.75.75 0 0 1-1.467-.309c.057-.271 1.467-6.697 8.149-11.713a.75.75 0 0 1 .901 1.2 21.405 21.405 0 0 0-6.258 7.422c1.574.599 4.324 1.235 6.59-.394 4.749-3.416 3.244-10.261 2.379-13.04a6.657 6.657 0 0 1-2.595 1.677 33.13 33.13 0 0 1-2.361.69c-1.221.323-2.275.601-3.321 1.162-3.685 1.986-3.692 6.065-2.797 8.323a.75.75 0 0 1-1.395.553C3.76 13.97 3.785 8.98 8.333 6.53c1.203-.645 2.391-.959 3.648-1.292.72-.19 1.465-.387 2.254-.658 1.416-.493 2.231-1.505 2.516-1.917a.928.928 0 0 1 .896-.407.932.932 0 0 1 .773.635c.669 1.804 3.72 11.141-2.603 15.688"/></svg>