<svg xmlns="http://www.w3.org/2000/svg" width="24" height="24" fill="none"><path fill="currentColor" d="M19.3 2.99c-.34-.44-.86-.71-1.41-.74a1.95 1.95 0 0 0-1.52.57l-1.5 1.5L2.83 16.36c-.4.4-.61.95-.57 1.52.03.56.3 1.07.74 1.41 2.06 1.61 4.53 2.45 7.11 2.45.66 0 1.33-.06 2.01-.17 4.78-.8 8.67-4.7 9.47-9.47.55-3.29-.26-6.53-2.28-9.12zM5.96 15.36l3.42-3.42v4.84a6.733 6.733 0 0 1-3.42-1.41zm4.92-3.42 3.42 3.42c-.96.77-2.13 1.28-3.42 1.42zm4.48 2.36-3.42-3.42h4.84a6.619 6.619 0 0 1-1.42 3.42m-3.42-4.92 3.42-3.42c.79.99 1.27 2.17 1.41 3.42zm8.17 2.49c-.7 4.15-4.08 7.54-8.24 8.24-2.86.48-5.69-.22-7.95-1.99a.48.48 0 0 1-.17-.32c0-.14.04-.27.14-.36l1-1A8.194 8.194 0 0 0 16.43 4.9l1-1a.47.47 0 0 1 .33-.14h.03c.08 0 .22.03.32.17 1.76 2.26 2.47 5.08 1.99 7.95z"/></svg>