<svg xmlns="http://www.w3.org/2000/svg" width="24" height="24" fill="none"><path fill="currentColor" d="M12 1.25C6.072 1.25 1.25 6.073 1.25 12S6.072 22.75 12 22.75 22.75 17.927 22.75 12 17.928 1.25 12 1.25Zm7.043 16.732-2.892-2.892A5.144 5.144 0 0 0 17.195 12a5.144 5.144 0 0 0-1.044-3.09l2.892-2.892A9.204 9.204 0 0 1 21.25 12a9.204 9.204 0 0 1-2.207 5.982ZM8.306 12A3.698 3.698 0 0 1 12 8.306 3.698 3.698 0 0 1 15.694 12 3.698 3.698 0 0 1 12 15.694 3.698 3.698 0 0 1 8.306 12Zm9.676-7.042L15.09 7.85A5.143 5.143 0 0 0 12 6.807 5.15 5.15 0 0 0 8.91 7.85L6.018 4.958A9.201 9.201 0 0 1 12 2.75a9.2 9.2 0 0 1 5.982 2.208ZM4.957 6.018 7.849 8.91A5.144 5.144 0 0 0 6.805 12c0 1.161.397 2.224 1.044 3.09l-2.892 2.892A9.204 9.204 0 0 1 2.75 12c0-2.281.834-4.368 2.207-5.982Zm1.061 13.024L8.91 16.15A5.143 5.143 0 0 0 12 17.193a5.15 5.15 0 0 0 3.09-1.043l2.892 2.892A9.201 9.201 0 0 1 12 21.25a9.2 9.2 0 0 1-5.982-2.208Z"/></svg>