<svg xmlns="http://www.w3.org/2000/svg" width="24" height="24" fill="none"><path fill="currentColor" d="M12.75 9.419a.75.75 0 0 1-.75.75 2.515 2.515 0 0 0-2.53 2.334.75.75 0 0 1-.747.692c-.02 0-.039 0-.06-.002a.75.75 0 0 1-.689-.806C8.136 10.302 9.905 8.669 12 8.669a.75.75 0 0 1 .75.75m8 11.08V22a.75.75 0 0 1-.75.75H4a.75.75 0 0 1-.75-.75v-1.5c0-.885.518-1.644 1.262-2.011v-4.788c0-5.055 3.01-8.451 7.488-8.451 4.478 0 7.488 3.396 7.488 8.45v4.789a2.243 2.243 0 0 1 1.262 2.01M6.012 18.25h11.977V13.7c0-4.221-2.351-6.95-5.988-6.95-3.637 0-5.988 2.729-5.988 6.95v4.55zm13.238 2.249a.75.75 0 0 0-.749-.749H5.5a.75.75 0 0 0-.75.75v.75h14.5zM12 4.25a.75.75 0 0 0 .75-.75V2a.75.75 0 0 0-1.5 0v1.5c0 .414.336.75.75.75m6.5 2a.744.744 0 0 0 .53-.22l1.5-1.5a.75.75 0 1 0-1.061-1.061l-1.5 1.5A.75.75 0 0 0 18.5 6.25M4.97 6.03a.748.748 0 0 0 1.06 0 .75.75 0 0 0 0-1.061l-1.5-1.5A.75.75 0 1 0 3.469 4.53z"/></svg>