<svg xmlns="http://www.w3.org/2000/svg" width="24" height="24" fill="none"><path fill="currentColor" d="M12.75 6.761a.75.75 0 0 1-.75.75 2.842 2.842 0 0 0-2.858 2.637.75.75 0 0 1-1.496-.117A4.333 4.333 0 0 1 12 6.011a.75.75 0 0 1 .75.75Zm9 12.738V21a.75.75 0 0 1-.75.75H3a.75.75 0 0 1-.75-.75v-1.5c0-1.009.672-1.854 1.588-2.139v-5.89c0-5.515 3.28-9.221 8.162-9.221 4.882 0 8.162 3.706 8.162 9.22v5.891A2.243 2.243 0 0 1 21.75 19.5ZM5.338 17.25h13.324v-5.78c0-4.69-2.615-7.72-6.662-7.72s-6.662 3.031-6.662 7.72v5.78Zm14.912 2.249a.75.75 0 0 0-.749-.749H4.5a.75.75 0 0 0-.75.75v.75h16.5v-.751Z"/></svg>