<svg xmlns="http://www.w3.org/2000/svg" width="24" height="24" fill="none"><path fill="currentColor" d="M11.713 2.253A7.156 7.156 0 0 0 6.447 4.3 7.193 7.193 0 0 0 4.25 9.5c0 1.755.743 3.477 2.271 5.263.742.868 1.229 1.515 1.229 2.56V18c0 2.243 1.508 3.75 3.751 3.75s3.75-1.507 3.75-3.75v-.683c0-1.058.491-1.708 1.185-2.513 1.165-1.352 2.352-3.047 2.313-5.373-.063-3.848-3.22-7.069-7.036-7.178ZM11.5 20.25c-1.409 0-2.25-.84-2.25-2.25v-.25h4.501V18c0 1.41-.842 2.25-2.251 2.25Zm3.8-6.425c-.614.711-1.179 1.441-1.423 2.425H12.25v-2.939l1.78-1.78a.75.75 0 1 0-1.061-1.06l-1.47 1.469-1.47-1.47a.75.75 0 0 0-1.061 1.061l1.78 1.78v2.94h-1.63c-.243-.97-.808-1.703-1.458-2.463-1.287-1.503-1.912-2.906-1.912-4.288 0-1.567.619-3.032 1.743-4.124a5.706 5.706 0 0 1 4.177-1.624c3.025.087 5.528 2.645 5.58 5.703.031 1.823-.968 3.232-1.949 4.37Z"/></svg>