<svg xmlns="http://www.w3.org/2000/svg" width="24" height="24" fill="none"><path fill="currentColor" d="M21.176 9.608c-.446-.62-1.377-1.358-3.272-1.358h-3.156V5.763a3.745 3.745 0 0 0-1.669-3.12 2.324 2.324 0 0 0-2.013-.28 2.33 2.33 0 0 0-1.481 1.432L7.457 10.25H4.501a2.253 2.253 0 0 0-2.25 2.25v7c0 1.241 1.01 2.25 2.25 2.25h11.404c2.496 0 3.107-1.213 3.558-2.564l1.999-6c.467-1.404.365-2.675-.286-3.578ZM3.75 19.5v-7a.75.75 0 0 1 .75-.75h2v8.5h-2a.75.75 0 0 1-.75-.75Zm16.287-6.789-1.999 6c-.355 1.067-.578 1.539-2.134 1.539H8v-8.5c.324 0 .61-.208.711-.515l2.287-6.941a.833.833 0 0 1 .527-.503.83.83 0 0 1 .721.1c.627.418 1 1.118 1 1.872V9c0 .414.337.75.75.75h3.907c.696 0 1.618.127 2.056.735.356.494.386 1.306.078 2.226Z"/></svg>