<svg xmlns="http://www.w3.org/2000/svg" width="24" height="24" fill="none"><path fill="currentColor" d="M17.625 2.25H6.375c-2.66 0-4.125 1.465-4.125 4.125v11.25c0 2.66 1.465 4.125 4.125 4.125h11.25c2.66 0 4.125-1.465 4.125-4.125V6.375c0-2.66-1.465-4.125-4.125-4.125m2.625 15.375c0 1.84-.785 2.625-2.625 2.625H6.375c-1.84 0-2.625-.785-2.625-2.625V6.375c0-1.84.785-2.625 2.625-2.625h11.25c1.84 0 2.625.785 2.625 2.625zm-1.73-7.292a1.5 1.5 0 0 1-1.5 1.5c-.139 0-.271-.025-.399-.061l-1.495 1.495c.035.128.06.26.06.399a1.504 1.504 0 0 1-3.005 0c0-.129.021-.253.052-.373l-1.512-1.511c-.119.03-.241.051-.368.051-.139 0-.271-.025-.399-.06l-1.495 1.494c.035.128.06.26.06.399a1.504 1.504 0 0 1-3.005 0c0-.829.667-1.5 1.495-1.5h.01c.128 0 .25.021.369.051L8.9 10.705a1.472 1.472 0 0 1-.052-.372c0-.829.667-1.5 1.495-1.5h.01a1.5 1.5 0 0 1 1.5 1.5c0 .139-.025.27-.06.399l1.492 1.492c.125-.034.255-.058.391-.058h.01c.128 0 .25.021.369.051l1.512-1.512a1.479 1.479 0 0 1-.052-.372c0-.829.667-1.5 1.495-1.5h.01a1.5 1.5 0 0 1 1.5 1.5"/></svg>