<svg xmlns="http://www.w3.org/2000/svg" width="24" height="24" fill="none"><path fill="currentColor" d="M17.625 2.25H6.375c-2.66 0-4.125 1.465-4.125 4.125v11.25c0 2.66 1.465 4.125 4.125 4.125h11.25c2.66 0 4.125-1.465 4.125-4.125V6.375c0-2.66-1.465-4.125-4.125-4.125m2.625 15.375c0 1.84-.785 2.625-2.625 2.625H6.375c-1.84 0-2.625-.785-2.625-2.625V6.375c0-1.84.785-2.625 2.625-2.625h11.25c1.84 0 2.625.785 2.625 2.625zm-2.5-6.2v2.879a.751.751 0 0 1-.75.75h-2.88a.75.75 0 0 1 0-1.5h1.07l-2.268-2.267a.117.117 0 0 0-.162 0l-1.474 1.474c-.629.63-1.654.63-2.283 0l-2.534-2.534A.75.75 0 0 1 7.53 9.166l2.534 2.534c.038.038.124.039.162 0l1.474-1.474c.61-.609 1.674-.608 2.283 0l2.268 2.268v-1.07a.75.75 0 0 1 1.499 0Z"/></svg>