<svg xmlns="http://www.w3.org/2000/svg" width="24" height="24" fill="none"><path fill="currentColor" d="M17.75 11.424v2.88a.751.751 0 0 1-.75.75h-2.88a.75.75 0 0 1 0-1.5h1.07l-2.268-2.267a.117.117 0 0 0-.162 0l-1.474 1.474a1.616 1.616 0 0 1-2.283 0l-2.534-2.534A.75.75 0 0 1 7.53 9.166l2.534 2.534c.038.038.124.039.162 0l1.474-1.474c.61-.61 1.674-.608 2.283 0l2.268 2.268v-1.07a.75.75 0 0 1 1.499 0m5 .576c0 5.928-4.822 10.75-10.75 10.75S1.25 17.928 1.25 12 6.072 1.25 12 1.25 22.75 6.072 22.75 12m-1.5 0c0-5.101-4.149-9.25-9.25-9.25S2.75 6.899 2.75 12s4.149 9.25 9.25 9.25 9.25-4.149 9.25-9.25"/></svg>