<svg width="16" height="16" viewBox="0 0 16 16" fill="none" xmlns="http://www.w3.org/2000/svg">
<path d="M8.94269 7.99998L12.4714 4.47129C12.732 4.21129 12.732 3.78867 12.4714 3.52867C12.2107 3.268 11.7894 3.268 11.5287 3.52867L8.00002 7.05731L4.47136 3.52867C4.21069 3.268 3.78936 3.268 3.52869 3.52867C3.26802 3.78867 3.26802 4.21129 3.52869 4.47129L7.05736 7.99998L3.52869 11.5287C3.26802 11.7887 3.26802 12.2113 3.52869 12.4713C3.65869 12.6013 3.82936 12.6666 4.00002 12.6666C4.17069 12.6666 4.34136 12.6013 4.47136 12.4713L8.00002 8.94265L11.5287 12.4713C11.6587 12.6013 11.8294 12.6666 12 12.6666C12.1707 12.6666 12.3414 12.6013 12.4714 12.4713C12.732 12.2113 12.732 11.7887 12.4714 11.5287L8.94269 7.99998Z" fill="currentColor"/>
</svg>
