<svg xmlns="http://www.w3.org/2000/svg" width="24" height="24" fill="none"><path fill="currentColor" d="M17.625 2.25H6.375c-2.66 0-4.125 1.465-4.125 4.125v11.25c0 2.66 1.465 4.125 4.125 4.125h11.25c2.66 0 4.125-1.465 4.125-4.125V6.375c0-2.66-1.465-4.125-4.125-4.125m2.625 15.375c0 1.84-.785 2.625-2.625 2.625H6.375c-1.84 0-2.625-.785-2.625-2.625V6.375c0-1.84.785-2.625 2.625-2.625h11.25c1.84 0 2.625.785 2.625 2.625zm-2.558-8.216a.75.75 0 0 1 .058.287v2.88a.75.75 0 0 1-1.5 0v-1.07l-2.268 2.268c-.609.609-1.673.61-2.283 0L10.225 12.3c-.038-.038-.124-.038-.162 0l-2.534 2.534a.748.748 0 0 1-1.06 0 .75.75 0 0 1 0-1.061l2.534-2.534a1.616 1.616 0 0 1 2.283 0l1.474 1.474a.115.115 0 0 0 .162 0l2.268-2.268h-1.07a.75.75 0 0 1 0-1.5H17a.75.75 0 0 1 .692.464"/></svg>