<svg xmlns="http://www.w3.org/2000/svg" width="24" height="24" fill="none"><path fill="currentColor" d="M17.692 9.41a.75.75 0 0 1 .058.286v2.88a.75.75 0 0 1-1.5 0v-1.07l-2.268 2.268c-.609.609-1.673.61-2.283 0L10.225 12.3c-.038-.038-.124-.038-.162 0l-2.534 2.534a.748.748 0 0 1-1.06 0 .75.75 0 0 1 0-1.061l2.534-2.534a1.616 1.616 0 0 1 2.283 0l1.474 1.474a.115.115 0 0 0 .162 0l2.268-2.268h-1.07a.75.75 0 0 1 0-1.5H17a.75.75 0 0 1 .692.464ZM22.75 12c0 5.928-4.822 10.75-10.75 10.75S1.25 17.928 1.25 12 6.072 1.25 12 1.25 22.75 6.072 22.75 12m-1.5 0c0-5.101-4.149-9.25-9.25-9.25S2.75 6.899 2.75 12s4.149 9.25 9.25 9.25 9.25-4.149 9.25-9.25"/></svg>