<svg width="16" height="16" viewBox="0 0 16 16" fill="none" xmlns="http://www.w3.org/2000/svg">
<path d="M7.99998 15.1667C4.04798 15.1667 0.833313 11.952 0.833313 8C0.833313 4.048 4.04798 0.833336 7.99998 0.833336C11.952 0.833336 15.1666 4.048 15.1666 8C15.1666 11.952 11.952 15.1667 7.99998 15.1667ZM7.99998 1.83334C4.59931 1.83334 1.83331 4.59934 1.83331 8C1.83331 11.4007 4.59931 14.1667 7.99998 14.1667C11.4006 14.1667 14.1666 11.4007 14.1666 8C14.1666 4.59934 11.4006 1.83334 7.99998 1.83334ZM8.47394 8.90935C8.48994 8.86135 8.58066 8.67937 9.06866 8.3527C9.85533 7.82537 10.2073 7.07197 10.0613 6.23063C9.91334 5.38063 9.22061 4.68269 8.37661 4.53402C7.75994 4.42469 7.13529 4.59063 6.66062 4.98796C6.18129 5.38996 5.90672 5.97993 5.90672 6.60726C5.90672 6.88326 6.13072 7.10726 6.40672 7.10726C6.68272 7.10726 6.90672 6.88326 6.90672 6.60726C6.90672 6.2766 7.05137 5.9654 7.30337 5.75407C7.55403 5.54407 7.87395 5.45807 8.20262 5.51807C8.63328 5.59407 9.00064 5.96537 9.07664 6.40137C9.10531 6.56604 9.19269 7.06599 8.51202 7.52132C7.96069 7.89132 7.64734 8.23066 7.52667 8.59066C7.43867 8.85266 7.57994 9.13596 7.84194 9.22396C7.89461 9.24196 7.94796 9.25 8.00063 9.25C8.20863 9.25 8.40327 9.11801 8.47394 8.90935ZM8.67999 11C8.67999 10.632 8.38199 10.3333 8.01333 10.3333H8.00665C7.63865 10.3333 7.34324 10.632 7.34324 11C7.34324 11.368 7.64533 11.6667 8.01333 11.6667C8.38133 11.6667 8.67999 11.368 8.67999 11Z" fill="currentColor"/>
</svg>
