<svg xmlns="http://www.w3.org/2000/svg" width="24" height="24" fill="none"><path fill="currentColor" d="M7.04 8.88H3.25c-.41 0-.75.34-.75.75V21c0 .41.34.75.75.75h3.79c.41 0 .75-.34.75-.75V9.63c0-.41-.34-.75-.75-.75Zm-.75 11.37H4v-9.87h2.29v9.87Zm-1-18c-.8-.02-1.54.26-2.12.81-.57.54-.9 1.28-.93 2.07-.02.79.26 1.54.81 2.12.54.57 1.28.9 2.07.93h.05c1.63 0 2.97-1.32 3-2.96a2.95 2.95 0 0 0-2.88-2.96v-.01Zm-.12 4.42h-.01c-.39-.01-.75-.17-1.01-.46-.27-.28-.41-.65-.4-1.04.01-.39.17-.75.46-1.02.28-.27.64-.4 1.04-.4.8.02 1.42.66 1.42 1.45-.01.82-.68 1.47-1.5 1.47Zm16.53 7.46c0-3.96-2.58-5.37-4.97-5.37-.96-.04-1.91.24-2.7.75a.752.752 0 0 0-.74-.63H9.63c-.41 0-.75.34-.75.75V21c0 .41.34.75.75.75h3.79c.41 0 .75-.34.75-.75v-6.14c-.03-.39.1-.76.36-1.05.25-.29.61-.47.94-.49.3 0 .99 0 .99 1.69V21c0 .41.34.75.75.75H21a.75.75 0 0 0 .75-.75l-.05-6.87Zm-3.74 6.12v-5.24c0-2.87-1.73-3.19-2.54-3.19-.79.05-1.5.41-2.02 1-.52.59-.77 1.35-.73 2.08v5.34h-2.29v-9.87h2.16v.89c0 .33.22.62.54.72.32.1.66-.03.84-.31.6-.92 1.66-1.46 2.78-1.43 1.05 0 3.49.38 3.49 3.88l.04 6.12h-2.28l.01.01Z"/></svg>