<svg xmlns="http://www.w3.org/2000/svg" width="24" height="24" fill="none"><path fill="currentColor" d="M16 17.75h-2a.75.75 0 0 1 0-1.5h2A4.254 4.254 0 0 0 20.25 12 4.254 4.254 0 0 0 16 7.75h-2a.75.75 0 0 1 0-1.5h2A5.756 5.756 0 0 1 21.75 12 5.756 5.756 0 0 1 16 17.75ZM10.75 17a.75.75 0 0 0-.75-.75H8A4.254 4.254 0 0 1 3.75 12 4.254 4.254 0 0 1 8 7.75h2a.75.75 0 0 0 0-1.5H8A5.756 5.756 0 0 0 2.25 12 5.756 5.756 0 0 0 8 17.75h2a.75.75 0 0 0 .75-.75Zm.28-12.47a.75.75 0 0 0 0-1.061l-1-1A.75.75 0 1 0 8.969 3.53l1 1a.748.748 0 0 0 1.061 0Zm3 0 1-1a.75.75 0 1 0-1.061-1.061l-1 1A.75.75 0 1 0 14.03 4.53Zm1 17a.75.75 0 0 0 0-1.061l-1-1a.75.75 0 1 0-1.061 1.061l1 1a.748.748 0 0 0 1.061 0Zm-5 0 1-1a.75.75 0 1 0-1.061-1.061l-1 1a.75.75 0 1 0 1.061 1.061Z"/></svg>