<svg xmlns="http://www.w3.org/2000/svg" width="24" height="24" fill="none"><path fill="currentColor" d="M9.25 5.5a.75.75 0 0 1 .75-.75h11a.75.75 0 0 1 0 1.5H10a.75.75 0 0 1-.75-.75ZM21 11.25H10a.75.75 0 0 0 0 1.5h11a.75.75 0 0 0 0-1.5Zm0 6.5H10a.75.75 0 0 0 0 1.5h11a.75.75 0 0 0 0-1.5ZM6.75 5.5A2.252 2.252 0 0 1 4.5 7.75 2.252 2.252 0 0 1 2.25 5.5 2.252 2.252 0 0 1 4.5 3.25 2.252 2.252 0 0 1 6.75 5.5Zm-1.5 0a.75.75 0 1 0-1.5 0 .75.75 0 0 0 1.5 0Zm1.5 6.5a2.252 2.252 0 0 1-2.25 2.25A2.252 2.252 0 0 1 2.25 12 2.252 2.252 0 0 1 4.5 9.75 2.252 2.252 0 0 1 6.75 12Zm-1.5 0a.75.75 0 1 0-1.5 0 .75.75 0 0 0 1.5 0Zm1.5 6.5a2.252 2.252 0 0 1-2.25 2.25 2.252 2.252 0 0 1-2.25-2.25 2.252 2.252 0 0 1 2.25-2.25 2.252 2.252 0 0 1 2.25 2.25Zm-1.5 0a.75.75 0 1 0-1.5 0 .75.75 0 0 0 1.5 0Z"/></svg>