<svg xmlns="http://www.w3.org/2000/svg" width="24" height="24" fill="none"><path fill="currentColor" d="m14.914 7.375-7.925 3.729c-.49.23-.778.73-.734 1.268.043.54.408.984.929 1.133l1.908.545c.418.12.739.44.858.858l.545 1.908a1.277 1.277 0 0 0 1.24.933c.498 0 .945-.282 1.161-.739l3.729-7.924a1.274 1.274 0 0 0-.254-1.458 1.273 1.273 0 0 0-1.457-.253m-3.133 8.483-.389-1.362a2.735 2.735 0 0 0-1.889-1.89l-1.362-.388 6.874-3.234zM12 1.25C6.072 1.25 1.25 6.072 1.25 12S6.072 22.75 12 22.75 22.75 17.928 22.75 12 17.928 1.25 12 1.25m0 20c-5.101 0-9.25-4.149-9.25-9.25S6.899 2.75 12 2.75s9.25 4.149 9.25 9.25-4.149 9.25-9.25 9.25"/></svg>