<svg xmlns="http://www.w3.org/2000/svg" width="24" height="24" fill="none"><path fill="currentColor" d="M12 2.25c-4.825 0-8.75 3.925-8.75 8.75 0 5.118 4.697 8.22 7.805 10.273l.529.351a.75.75 0 0 0 .832 0l.529-.351C16.053 19.22 20.75 16.118 20.75 11c0-4.825-3.925-8.75-8.75-8.75m.119 17.771-.119.08-.119-.08C8.871 18.033 4.75 15.311 4.75 11c0-3.998 3.252-7.25 7.25-7.25s7.25 3.252 7.25 7.25c0 4.311-4.122 7.034-7.131 9.021M12 7.125c-2.418 0-3.834 1.774-4.463 2.833a2.035 2.035 0 0 0 0 2.085c.629 1.058 2.045 2.833 4.463 2.833s3.834-1.774 4.463-2.833a2.035 2.035 0 0 0 0-2.085C15.834 8.899 14.418 7.125 12 7.125m3.174 4.15c-.466.785-1.499 2.1-3.174 2.1-1.675 0-2.708-1.315-3.174-2.1a.54.54 0 0 1 0-.55c.466-.785 1.499-2.1 3.174-2.1 1.675 0 2.708 1.315 3.174 2.1a.54.54 0 0 1 0 .55M13.27 11c0 .69-.56 1.25-1.25 1.25s-1.255-.56-1.255-1.25.555-1.25 1.245-1.25h.01c.69 0 1.25.56 1.25 1.25"/></svg>