<svg xmlns="http://www.w3.org/2000/svg" width="24" height="24" fill="none"><path fill="currentColor" d="M21.75 12a.75.75 0 0 1-.75.75h-1.288a7.76 7.76 0 0 1-6.962 6.962V21a.75.75 0 0 1-1.5 0v-1.287a7.762 7.762 0 0 1-2.049-.483.749.749 0 1 1 .539-1.399 6.257 6.257 0 0 0 8.09-8.09.75.75 0 0 1 1.399-.54c.255.663.416 1.35.483 2.05H21a.749.749 0 0 1 .75.749M3.53 21.53a.748.748 0 0 1-1.06 0 .75.75 0 0 1 0-1.061l3.545-3.545a7.68 7.68 0 0 1-1.729-4.174H3a.75.75 0 0 1 0-1.5h1.288a7.76 7.76 0 0 1 6.962-6.962V3a.75.75 0 0 1 1.5 0v1.287a7.672 7.672 0 0 1 4.174 1.73l3.545-3.546a.75.75 0 1 1 1.061 1.061zm6.825-8.946 2.229-2.229A1.765 1.765 0 0 0 12 10.25c-.965 0-1.75.785-1.75 1.75 0 .203.04.399.105.584m-3.27 3.271 2.153-2.153A3.236 3.236 0 0 1 8.75 12 3.254 3.254 0 0 1 12 8.75c.613 0 1.195.175 1.702.488l2.153-2.153A6.2 6.2 0 0 0 12 5.75 6.257 6.257 0 0 0 5.75 12a6.2 6.2 0 0 0 1.335 3.855"/></svg>