<svg xmlns="http://www.w3.org/2000/svg" width="24" height="24" fill="none"><path fill="currentColor" d="M12 2.25c-4.825 0-8.75 3.925-8.75 8.75 0 5.118 4.697 8.22 7.805 10.273l.529.351a.75.75 0 0 0 .832 0l.529-.351C16.053 19.22 20.75 16.118 20.75 11c0-4.825-3.925-8.75-8.75-8.75m.119 17.771-.119.08-.119-.08C8.871 18.033 4.75 15.311 4.75 11c0-3.998 3.252-7.25 7.25-7.25s7.25 3.252 7.25 7.25c0 4.311-4.122 7.034-7.131 9.021M13.55 7.25c-.692.02-1.18.254-1.55.588-.372-.334-.893-.57-1.551-.588-.841.004-1.546.324-2.039.927-.583.712-.794 1.741-.581 2.823.525 2.664 3.728 4.124 3.864 4.185a.758.758 0 0 0 .612 0c.136-.06 3.338-1.521 3.864-4.185.213-1.083.002-2.112-.581-2.824-.491-.602-1.196-.922-2.038-.926m1.148 3.459c-.297 1.503-1.993 2.567-2.698 2.95-.706-.383-2.402-1.446-2.698-2.95-.125-.631-.024-1.223.27-1.583.206-.251.495-.375.884-.376h.004c.58 0 .809.576.83.633.102.301.385.5.703.504a.729.729 0 0 0 .715-.496c.024-.066.252-.642.832-.642h.004c.39.002.68.125.885.376.293.36.394.952.269 1.584"/></svg>