<svg xmlns="http://www.w3.org/2000/svg" width="24" height="24" fill="none"><path fill="currentColor" d="M12 2.25c-4.825 0-8.75 3.925-8.75 8.75 0 5.118 4.697 8.22 7.805 10.273l.529.351a.75.75 0 0 0 .832 0l.529-.351C16.053 19.22 20.75 16.118 20.75 11c0-4.825-3.925-8.75-8.75-8.75Zm.119 17.771-.119.08-.119-.08C8.871 18.033 4.75 15.311 4.75 11c0-3.998 3.252-7.25 7.25-7.25s7.25 3.252 7.25 7.25c0 4.311-4.122 7.034-7.131 9.021ZM15.271 8.94l-1.558-.222-.669-1.328A1.16 1.16 0 0 0 12 6.749c-.445 0-.845.245-1.043.64l-.67 1.328-1.558.222c-.436.062-.791.36-.924.776a1.12 1.12 0 0 0 .296 1.161l1.117 1.065-.253 1.448c-.076.435.098.868.455 1.13.36.266.832.303 1.232.098l1.349-.694 1.35.694a1.163 1.163 0 0 0 1.232-.097c.357-.262.531-.695.455-1.13l-.254-1.45 1.118-1.065a1.12 1.12 0 0 0 .296-1.16 1.135 1.135 0 0 0-.927-.775Zm-1.668 2.055a1.131 1.131 0 0 0-.333 1.01l.171.974-.915-.47a1.15 1.15 0 0 0-1.05-.002l-.916.472.17-.976a1.13 1.13 0 0 0-.333-1.01l-.708-.675.994-.142c.371-.053.691-.283.857-.614L12 8.65l.459.91c.167.333.488.562.858.615l.994.14-.708.68Z"/></svg>