<svg xmlns="http://www.w3.org/2000/svg" width="24" height="24" fill="none"><path fill="currentColor" d="M12 21.75a.75.75 0 0 1-.416-.126l-.529-.351C7.947 19.22 3.25 16.118 3.25 11c0-4.825 3.925-8.75 8.75-8.75s8.75 3.925 8.75 8.75c0 5.118-4.697 8.22-7.805 10.273l-.529.351a.75.75 0 0 1-.416.126Zm0-18c-3.998 0-7.25 3.252-7.25 7.25 0 4.311 4.122 7.034 7.131 9.021l.119.08.119-.08c3.01-1.988 7.131-4.71 7.131-9.021 0-3.998-3.252-7.25-7.25-7.25Zm-.303 9.78 3.333-3.333a.75.75 0 1 0-1.061-1.061l-2.803 2.803-1.136-1.136a.75.75 0 1 0-1.061 1.061l1.667 1.667a.748.748 0 0 0 1.061-.001Z"/></svg>