<svg xmlns="http://www.w3.org/2000/svg" width="24" height="24" fill="none"><path fill="currentColor" d="M12 2.25c-4.825 0-8.75 3.925-8.75 8.75 0 5.118 4.697 8.22 7.805 10.273l.529.351a.75.75 0 0 0 .832 0l.529-.351C16.053 19.22 20.75 16.118 20.75 11c0-4.825-3.925-8.75-8.75-8.75Zm.119 17.771-.119.08-.119-.08C8.871 18.033 4.75 15.311 4.75 11c0-3.998 3.252-7.25 7.25-7.25s7.25 3.252 7.25 7.25c0 4.311-4.122 7.034-7.131 9.021ZM15.28 6.23c-.31-.31-.721-.48-1.159-.48h-.002a1.63 1.63 0 0 0-1.16.482l-5.491 5.516a.75.75 0 0 0-.218.53v2.221c0 .414.336.75.75.75h2.222a.753.753 0 0 0 .529-.218l5.516-5.491c.311-.309.482-.721.482-1.16 0-.44-.17-.851-.48-1.161l-.989-.989Zm-1.159 1.02c.002.005.064.006.099.041l.99.99a.136.136 0 0 1 .041.099.133.133 0 0 1-.041.098l-.636.633-1.184-1.184.633-.636a.133.133 0 0 1 .098-.041Zm-4.208 6.5H8.75v-1.163l3.581-3.597 1.179 1.179-3.597 3.581Z"/></svg>