<svg xmlns="http://www.w3.org/2000/svg" width="24" height="24" fill="none"><path fill="currentColor" d="M12.469 21.75a1.81 1.81 0 0 1-1.758-1.322l-1.09-3.816a3.232 3.232 0 0 0-2.232-2.232l-3.816-1.09a1.808 1.808 0 0 1-1.316-1.606 1.81 1.81 0 0 1 1.041-1.797l15.85-7.458a1.803 1.803 0 0 1 2.065.361c.551.55.692 1.361.361 2.065l-7.458 15.85a1.814 1.814 0 0 1-1.647 1.045m7.316-17.965-15.85 7.458a.309.309 0 0 0-.185.319.306.306 0 0 0 .233.285l3.816 1.09a4.719 4.719 0 0 1 3.262 3.262l1.09 3.816a.305.305 0 0 0 .285.233c.084.001.236-.008.319-.185l7.458-15.85a.306.306 0 0 0-.064-.366.304.304 0 0 0-.364-.062"/></svg>