<svg xmlns="http://www.w3.org/2000/svg" width="24" height="24" fill="none"><path fill="currentColor" d="M20.279 8.185c.312.904.471 1.851.471 2.815 0 5.118-4.697 8.22-7.805 10.273l-.529.351a.75.75 0 0 1-.829.002l-.306-.201c-.822-.54-1.753-1.152-2.695-1.868a.75.75 0 0 1 .907-1.195 43.794 43.794 0 0 0 2.505 1.738l.12-.08c3.01-1.988 7.131-4.71 7.131-9.021a7.1 7.1 0 0 0-.389-2.325.75.75 0 1 1 1.419-.489M21.53 3.53l-6.795 6.795a.153.153 0 0 1-.013.012l-3.37 3.37a.72.72 0 0 1-.039.04L3.529 21.53a.748.748 0 0 1-1.06 0 .75.75 0 0 1 0-1.061l3.367-3.367C4.103 15.192 3.249 13.191 3.249 11c0-4.825 3.925-8.75 8.75-8.75a8.7 8.7 0 0 1 6.148 2.542l2.322-2.322a.75.75 0 1 1 1.061 1.06M6.897 16.042l2.776-2.776A3.259 3.259 0 0 1 8.75 11 3.254 3.254 0 0 1 12 7.749a3.26 3.26 0 0 1 2.267.923l2.822-2.822A7.209 7.209 0 0 0 12 3.75c-3.998 0-7.25 3.252-7.25 7.25 0 1.781.708 3.437 2.147 5.043Zm6.31-6.31A1.752 1.752 0 0 0 10.25 11c0 .457.181.883.485 1.206l2.472-2.472Z"/></svg>