<svg xmlns="http://www.w3.org/2000/svg" width="24" height="24" fill="none"><path fill="currentColor" d="M12 8.75A3.254 3.254 0 0 0 8.75 12 3.254 3.254 0 0 0 12 15.25 3.254 3.254 0 0 0 15.25 12 3.254 3.254 0 0 0 12 8.75Zm0 5c-.965 0-1.75-.785-1.75-1.75s.785-1.75 1.75-1.75 1.75.785 1.75 1.75-.785 1.75-1.75 1.75Zm9-2.5h-1.288a7.76 7.76 0 0 0-6.962-6.962V3a.75.75 0 0 0-1.5 0v1.288a7.76 7.76 0 0 0-6.962 6.962H3a.75.75 0 0 0 0 1.5h1.288a7.76 7.76 0 0 0 6.962 6.962V21a.75.75 0 0 0 1.5 0v-1.288a7.76 7.76 0 0 0 6.962-6.962H21a.75.75 0 0 0 0-1.5Zm-9 7A6.257 6.257 0 0 1 5.75 12 6.257 6.257 0 0 1 12 5.75 6.257 6.257 0 0 1 18.25 12 6.257 6.257 0 0 1 12 18.25Z"/></svg>