<svg xmlns="http://www.w3.org/2000/svg" width="24" height="24" fill="none"><path fill="currentColor" d="M15.413 6.875 7.49 10.604c-.49.23-.779.728-.736 1.267.044.54.408.985.93 1.134l1.907.545c.419.12.739.44.859.858l.545 1.909a1.279 1.279 0 0 0 1.24.932c.498 0 .946-.282 1.161-.739l3.729-7.925a1.275 1.275 0 0 0-.255-1.458 1.275 1.275 0 0 0-1.457-.252m-3.132 8.484-.389-1.362a2.734 2.734 0 0 0-1.89-1.89l-1.36-.388 6.874-3.235zM17.625 2.25H6.375c-2.66 0-4.125 1.465-4.125 4.125v11.25c0 2.66 1.465 4.125 4.125 4.125h11.25c2.66 0 4.125-1.465 4.125-4.125V6.375c0-2.66-1.465-4.125-4.125-4.125m2.625 15.375c0 1.84-.785 2.625-2.625 2.625H6.375c-1.84 0-2.625-.785-2.625-2.625V6.375c0-1.84.785-2.625 2.625-2.625h11.25c1.84 0 2.625.785 2.625 2.625z"/></svg>