<svg xmlns="http://www.w3.org/2000/svg" width="24" height="24" fill="none"><path fill="currentColor" d="M12 2.25c-4.825 0-8.75 3.925-8.75 8.75 0 5.118 4.697 8.22 7.805 10.273l.529.351a.75.75 0 0 0 .832 0l.529-.351C16.053 19.22 20.75 16.118 20.75 11c0-4.825-3.925-8.75-8.75-8.75m.119 17.771-.119.08-.119-.08C8.871 18.033 4.75 15.311 4.75 11c0-3.998 3.252-7.25 7.25-7.25s7.25 3.252 7.25 7.25c0 4.311-4.122 7.034-7.131 9.021m2.465-11.616c.185 1.052-.255 1.992-1.24 2.646-.556.37-.631.557-.634.565a.77.77 0 0 1-.713.496.74.74 0 0 1-.707-.976c.202-.599.795-1.048 1.224-1.333.637-.423.644-.852.593-1.137a1.136 1.136 0 0 0-.896-.896 1.126 1.126 0 0 0-1.335 1.106.75.75 0 0 1-1.5 0c0-.777.342-1.511.938-2.011a2.637 2.637 0 0 1 2.157-.573 2.644 2.644 0 0 1 2.113 2.113M13.02 14a1 1 0 0 1-1 1 1.005 1.005 0 0 1-1.005-1c0-.552.442-1 .995-1h.01a1 1 0 0 1 1 1"/></svg>