<svg xmlns="http://www.w3.org/2000/svg" width="24" height="24" fill="none"><path fill="currentColor" d="M21.65 11.52c-.13-.31-.37-.54-.75-.7l-2.59-.74a6.349 6.349 0 0 1-4.37-4.36l-.74-2.58c-.12-.41-.43-.72-.84-.84-.32-.09-.65-.05-.93.11-.29.16-.49.42-.58.73l-.74 2.58a6.344 6.344 0 0 1-4.38 4.36l-2.59.74a1.222 1.222 0 0 0 0 2.35l2.59.74c2.1.59 3.78 2.26 4.37 4.36l.74 2.58c.15.52.63.89 1.17.89.54 0 1.02-.36 1.18-.89l.74-2.59c.59-2.1 2.27-3.77 4.38-4.37l2.66-.76c.31-.12.56-.37.68-.68.13-.31.12-.65 0-.95zm-3.75.95c-2.6.73-4.67 2.8-5.41 5.4l-.47 1.66-.48-1.66a7.879 7.879 0 0 0-5.41-5.4L4.47 12l1.66-.47c2.6-.73 4.67-2.8 5.41-5.4l.48-1.66.47 1.66c.74 2.6 2.81 4.67 5.41 5.4l1.66.47zm-9.51 5.77c.03.08 0 .16-.08.19l-.78.22c-.71.2-1.27.75-1.47 1.46l-.22.78s-.05.08-.1.1c-.08.02-.16-.02-.18-.1l-.22-.78a2.12 2.12 0 0 0-1.47-1.46l-.78-.22s-.08-.05-.1-.1c-.02-.08.02-.15.1-.18l.78-.22c.71-.2 1.27-.75 1.47-1.46l.22-.78s.05-.08.1-.1c.08-.02.16.02.18.1l.22.78c.2.71.76 1.26 1.47 1.46l.78.22s.06.04.08.08zm9.08-13.36s-.05-.03-.06-.06c-.01-.05.01-.1.06-.12l.52-.15c.47-.13.84-.5.98-.97l.15-.52s.03-.05.06-.06c.05-.01.1.01.12.06l.15.52c.13.47.5.84.98.97l.52.15s.04.03.05.05c.02.05 0 .11-.05.13l-.52.15c-.47.13-.84.5-.98.97l-.15.52s-.03.05-.06.06c-.05.01-.1-.01-.12-.06L18.97 6c-.13-.47-.5-.84-.98-.97z"/></svg>