<svg xmlns="http://www.w3.org/2000/svg" width="24" height="24" fill="none"><path fill="currentColor" d="M11.25 11.674V17a.75.75 0 0 0 1.5 0v-5.326c2.262-.363 4-2.312 4-4.674A4.756 4.756 0 0 0 12 2.25 4.756 4.756 0 0 0 7.25 7c0 2.362 1.738 4.312 4 4.674M12 3.75A3.254 3.254 0 0 1 15.25 7 3.254 3.254 0 0 1 12 10.25 3.254 3.254 0 0 1 8.75 7 3.254 3.254 0 0 1 12 3.75M19.75 18c0 2.138-3.332 3.75-7.75 3.75S4.25 20.138 4.25 18c0-1.359 1.291-2.515 3.54-3.17a.751.751 0 0 1 .42 1.44c-1.699.495-2.46 1.226-2.46 1.73 0 .917 2.435 2.25 6.25 2.25s6.25-1.333 6.25-2.25c0-.504-.761-1.235-2.46-1.73a.75.75 0 0 1 .42-1.44c2.249.655 3.54 1.811 3.54 3.17"/></svg>