<svg xmlns="http://www.w3.org/2000/svg" width="24" height="24" fill="none"><path fill="currentColor" d="M12 10.751a2.42 2.42 0 0 0 2.417-2.417A2.42 2.42 0 0 0 12 5.917a2.42 2.42 0 0 0-2.417 2.417A2.42 2.42 0 0 0 12 10.751m0-3.334a.918.918 0 0 1 0 1.834.918.918 0 0 1 0-1.834m8.964-.041c-.508-.316-1.162-.335-1.75-.046l-1.153.577c-.221-3.155-2.852-5.657-6.062-5.657-3.125 0-5.704 2.369-6.043 5.405L3.655 8.81a2.536 2.536 0 0 0-1.406 2.28v8.41c0 .613.31 1.17.828 1.494a1.749 1.749 0 0 0 1.709.08l3.403-1.712a.568.568 0 0 1 .249-.06.545.545 0 0 1 .249.034l6.091 2.277c.24.093.483.139.684.139.049 0 .095-.002.138-.008.283 0 .561-.066.867-.21l3.879-1.95a2.538 2.538 0 0 0 1.404-2.278V8.89c0-.652-.286-1.204-.786-1.515ZM12 3.75a4.59 4.59 0 0 1 4.583 4.584c0 .199-.018.391-.045.58v.001c-.341 2.387-2.728 3.991-4.538 5.188-1.954-1.291-4.583-3.056-4.583-5.769A4.59 4.59 0 0 1 12 3.75M4.119 19.731a.247.247 0 0 1-.249-.011.25.25 0 0 1-.12-.22v-8.41c0-.4.222-.76.579-.94l1.68-.842c.219 1.258.843 2.315 1.641 3.212v5.452c-.039.016-.077.023-.117.042L4.119 19.73Zm5.102-1.797c-.023-.009-.048-.011-.071-.019V13.92c.714.568 1.447 1.053 2.082 1.473l.352.233a.75.75 0 0 0 .832 0l.352-.233c.635-.419 1.368-.905 2.082-1.473v6.118zm11.029-.628c0 .399-.222.759-.578.938l-3.322 1.67V12.52c.725-.814 1.311-1.76 1.577-2.87l1.954-.977c.128-.063.238-.057.291-.024.07.044.078.184.078.242z"/></svg>