<svg xmlns="http://www.w3.org/2000/svg" width="24" height="24" fill="none"><path fill="currentColor" d="M20.92 3.009a1.74 1.74 0 0 0-1.703-.077L15.79 4.645a.608.608 0 0 1-.479.025L9.213 2.383a2.1 2.1 0 0 0-1.676.088L3.769 4.355a2.735 2.735 0 0 0-1.52 2.46v12.688c0 .61.31 1.167.83 1.488a1.74 1.74 0 0 0 1.703.077l3.427-1.713a.608.608 0 0 1 .479-.025l6.098 2.287c.237.089.487.133.737.133.022 0 .043-.007.065-.007l.013.002c.017 0 .031-.008.047-.01.281-.017.559-.079.815-.207l3.768-1.884a2.735 2.735 0 0 0 1.52-2.46V4.496a1.74 1.74 0 0 0-.831-1.487ZM4.112 19.726a.244.244 0 0 1-.243-.011.243.243 0 0 1-.119-.212V6.815c0-.477.265-.905.691-1.118L7.65 4.093v13.88c-.037.016-.076.022-.112.04l-3.426 1.713Zm5.102-1.801c-.021-.008-.043-.01-.064-.018V3.96l5.636 2.113c.021.008.043.01.064.017v13.947l-5.636-2.113Zm11.036-.74c0 .477-.265.905-.691 1.118l-3.209 1.604V6.029c.037-.016.076-.024.112-.042l3.426-1.713a.242.242 0 0 1 .243.01.244.244 0 0 1 .119.213v12.688Z"/></svg>