<svg xmlns="http://www.w3.org/2000/svg" width="24" height="24" fill="none"><path fill="currentColor" d="M16 1.25c-2.36 0-4.31 1.74-4.67 4H4a.76.76 0 0 0-.67.41c-.13.25-.1.56.07.79l5.85 7.8v4.53c-.24.34-.95 1.15-2.69 1.97-.45.21-.68.69-.57 1.18.11.48.53.82 1.02.82H13c.49 0 .92-.34 1.02-.82.11-.48-.13-.97-.57-1.18-1.74-.82-2.45-1.63-2.69-1.97v-4.53l3.04-4.05c.68.36 1.43.55 2.21.55 2.62 0 4.75-2.13 4.75-4.75s-2.13-4.75-4.75-4.75zm-1.5 5.5-4.5 6-4.5-6zm-3.23 14.5H8.73c.56-.37.97-.73 1.27-1.04.3.31.71.67 1.27 1.04m4.73-12c-.45 0-.89-.1-1.29-.28l1.89-2.52c.17-.23.2-.53.07-.79a.742.742 0 0 0-.67-.41h-3.15c.34-1.43 1.62-2.5 3.15-2.5 1.79 0 3.25 1.46 3.25 3.25S17.79 9.25 16 9.25"/></svg>