<svg xmlns="http://www.w3.org/2000/svg" width="24" height="24" fill="none"><path fill="currentColor" d="m9.08 13.69 1.21-1.94c.13-.21.3-.21.42 0l1.21 1.94c.41.66 1.13 1.06 1.91 1.06H17c.96 0 1.75-.79 1.75-1.75V9c0-2.42-1.33-3.75-3.75-3.75H6C3.58 5.25 2.25 6.58 2.25 9v4c0 .96.79 1.75 1.75 1.75h3.17c.78 0 1.49-.4 1.91-1.06m-1.91-.44H4c-.14 0-.25-.11-.25-.25V9c0-1.58.67-2.25 2.25-2.25h9c1.58 0 2.25.67 2.25 2.25v4c0 .14-.11.25-.25.25h-3.17c-.26 0-.5-.13-.64-.35l-1.21-1.94c-.32-.52-.88-.82-1.48-.82s-1.16.31-1.48.82L7.81 12.9c-.14.22-.38.35-.64.35M21.75 3v15c0 2.42-1.33 3.75-3.75 3.75h-4.5c-2.42 0-3.75-1.33-3.75-3.75v-.25H8.5c-.41 0-.75-.34-.75-.75s.34-.75.75-.75h4c.41 0 .75.34.75.75s-.34.75-.75.75h-1.25V18c0 1.58.67 2.25 2.25 2.25H18c1.58 0 2.25-.67 2.25-2.25V3c0-.41.34-.75.75-.75s.75.34.75.75"/></svg>