<svg xmlns="http://www.w3.org/2000/svg" width="24" height="24" fill="none"><path fill="currentColor" d="M20.5 7.25h-1.059a2.76 2.76 0 0 0-1.632-1.37c-.449-.198-3.778-1.63-5.81-1.63-2.032 0-5.36 1.433-5.81 1.63a2.76 2.76 0 0 0-1.632 1.37H3.498a2.253 2.253 0 0 0-2.25 2.25V13c0 2.582 2.073 4.679 4.641 4.739a7.715 7.715 0 0 0 3.056 2.385 7.75 7.75 0 0 0 3.053.624 7.761 7.761 0 0 0 3.054-.624 7.723 7.723 0 0 0 3.056-2.385c2.568-.06 4.641-2.157 4.641-4.739V9.5A2.251 2.251 0 0 0 20.5 7.25M2.75 13V9.5a.75.75 0 0 1 .75-.75h.75V13c0 1.07.232 2.096.636 3.041A3.247 3.247 0 0 1 2.75 13m11.713 5.745a6.276 6.276 0 0 1-4.925 0A6.241 6.241 0 0 1 5.75 13V8.509c0-.555.373-1.05.906-1.202a.917.917 0 0 0 .1-.036C7.704 6.848 10.493 5.75 12 5.75c1.507 0 4.296 1.098 5.244 1.521a.788.788 0 0 0 .1.036c.533.152.906.647.906 1.202V13a6.244 6.244 0 0 1-3.787 5.745M21.25 13a3.245 3.245 0 0 1-2.136 3.041A7.72 7.72 0 0 0 19.75 13V8.75h.75a.75.75 0 0 1 .75.75zm-4.5-1.5a.75.75 0 0 1-.75.75H8a.75.75 0 0 1 0-1.5h8a.75.75 0 0 1 .75.75m-1 3a.75.75 0 0 1-.75.75H9a.75.75 0 0 1 0-1.5h6a.75.75 0 0 1 .75.75"/></svg>