<svg xmlns="http://www.w3.org/2000/svg" width="24" height="24" fill="none"><path fill="currentColor" d="M19.25 8V5.811L13.061 12l6.189 6.189V16a.75.75 0 0 1 1.5 0v4a.751.751 0 0 1-.75.75h-4a.75.75 0 0 1 0-1.5h2.189L12 13.061 5.811 19.25H8a.75.75 0 0 1 0 1.5H4a.751.751 0 0 1-.75-.75v-4a.75.75 0 0 1 1.5 0v2.189L10.939 12 4.75 5.811V8a.75.75 0 0 1-1.5 0V4a.751.751 0 0 1 .751-.751h4a.75.75 0 0 1 0 1.5H5.812l6.189 6.189 6.189-6.189H16a.75.75 0 0 1 0-1.5h4a.751.751 0 0 1 .751.751v4a.75.75 0 0 1-1.501 0"/></svg>