<svg xmlns="http://www.w3.org/2000/svg" width="24" height="24" fill="none"><path fill="currentColor" d="M21.657 2.639A.75.75 0 0 0 21 2.25h-5a.75.75 0 0 0-.633.348l-2.97 4.672c-.132-.007-.263-.02-.397-.02s-.265.013-.397.02l-2.97-4.672A.75.75 0 0 0 8 2.25H3a.75.75 0 0 0-.633 1.152l4.09 6.436A7.212 7.212 0 0 0 4.75 14.5c0 3.998 3.252 7.25 7.25 7.25s7.25-3.252 7.25-7.25c0-1.775-.643-3.4-1.706-4.662l4.09-6.436a.75.75 0 0 0 .023-.763ZM7.588 3.75l2.408 3.788a7.203 7.203 0 0 0-2.435 1.243L4.366 3.75h3.222ZM12 20.25a5.756 5.756 0 0 1-5.75-5.75A5.756 5.756 0 0 1 12 8.75a5.756 5.756 0 0 1 5.75 5.75A5.756 5.756 0 0 1 12 20.25Zm4.439-11.469a7.222 7.222 0 0 0-2.435-1.243l2.408-3.788h3.223l-3.196 5.031Zm-1.618 4.046-1.278-.185-.55-1.109a1.1 1.1 0 0 0-.993-.616c-.425 0-.805.236-.992.615l-.55 1.11-1.279.185a1.075 1.075 0 0 0-.875.738c-.129.395-.023.821.275 1.111l.923.895-.21 1.215a1.1 1.1 0 0 0 .438 1.083c.343.25.789.285 1.168.087l1.103-.577 1.103.577a1.1 1.1 0 0 0 1.167-.086c.344-.25.511-.665.438-1.081l-.21-1.218.923-.896c.299-.29.404-.715.275-1.111a1.078 1.078 0 0 0-.876-.737Zm-3.173-.629s0 .001 0 0Zm1.649 2.449a1.078 1.078 0 0 0-.314.961l.112.65-.592-.31a1.09 1.09 0 0 0-1.006 0l-.592.31.112-.651a1.081 1.081 0 0 0-.313-.96l-.472-.457.654-.095c.353-.05.658-.271.817-.591l.296-.597.296.597c.16.319.465.54.816.59l.655.095-.469.458Z"/></svg>