<svg xmlns="http://www.w3.org/2000/svg" width="24" height="24" fill="none"><path fill="currentColor" d="M20.11 6.94c-.69 0-1.11.72-1.34 1.73-.59-1.36-1.54-2.23-2.66-2.23-1.33 0-2.42 1.22-2.94 3.05-.93-1.91-2.9-3.24-5.16-3.24-3.17 0-5.75 2.58-5.75 5.75s2.58 5.75 5.75 5.75c2.27 0 4.23-1.32 5.16-3.24.53 1.83 1.61 3.05 2.94 3.05 1.12 0 2.07-.87 2.66-2.23.24 1.01.65 1.73 1.34 1.73 1.36 0 1.64-2.75 1.64-5.06 0-2.31-.29-5.06-1.64-5.06M8 16.25A4.26 4.26 0 0 1 3.75 12 4.26 4.26 0 0 1 8 7.75 4.26 4.26 0 0 1 12.25 12 4.26 4.26 0 0 1 8 16.25m8.11-.19c-.84 0-1.79-1.74-1.79-4.06 0-2.32.94-4.06 1.79-4.06.85 0 1.79 1.74 1.79 4.06 0 2.32-.94 4.06-1.79 4.06m4-1.78c-.08-.6-.14-1.36-.14-2.28 0-.92.06-1.69.14-2.28.08.6.14 1.36.14 2.28 0 .92-.06 1.69-.14 2.28"/></svg>