<svg xmlns="http://www.w3.org/2000/svg" width="24" height="24" fill="none"><path fill="currentColor" d="M20.8 2.417a1.659 1.659 0 0 0-1.77.202l-1.033.824a8.276 8.276 0 0 1-5.152 1.808H7.5A5.255 5.255 0 0 0 2.251 10.5c0 2.728 2.098 4.95 4.761 5.2l2.265 4.53a2.735 2.735 0 0 0 2.46 1.52H13a.748.748 0 0 0 .74-.873l-.854-5.126a8.277 8.277 0 0 1 5.11 1.806l1.03.824a1.67 1.67 0 0 0 1.773.201c.586-.281.95-.86.95-1.51V3.927a1.661 1.661 0 0 0-.949-1.51M3.75 10.5a3.754 3.754 0 0 1 3.749-3.749h5.345c.815 0 1.623-.105 2.406-.305v8.108a9.729 9.729 0 0 0-2.406-.305H7.499A3.754 3.754 0 0 1 3.75 10.5m7.986 9.75c-.477 0-.905-.265-1.118-.691l-1.905-3.81h2.651l.75 4.501zm8.514-3.178a.164.164 0 0 1-.1.159.167.167 0 0 1-.187-.021l-1.03-.824a9.718 9.718 0 0 0-2.184-1.314V5.928a9.767 9.767 0 0 0 2.183-1.313l1.032-.825a.165.165 0 0 1 .186-.021c.045.022.1.067.1.159z"/></svg>