<svg xmlns="http://www.w3.org/2000/svg" width="24" height="24" fill="none"><path fill="currentColor" d="M14 9.75H8a.75.75 0 0 1 0-1.5h6a.75.75 0 0 1 0 1.5M16.75 12a.75.75 0 0 0-.75-.75H8a.75.75 0 0 0 0 1.5h8a.75.75 0 0 0 .75-.75m-4 3a.75.75 0 0 0-.75-.75H8a.75.75 0 0 0 0 1.5h4a.75.75 0 0 0 .75-.75m10-3c0-5.928-4.822-10.75-10.75-10.75S1.25 6.072 1.25 12 6.072 22.75 12 22.75 22.75 17.928 22.75 12m-1.5 0c0 5.101-4.149 9.25-9.25 9.25S2.75 17.101 2.75 12 6.899 2.75 12 2.75s9.25 4.149 9.25 9.25"/></svg>