<svg xmlns="http://www.w3.org/2000/svg" width="24" height="24" fill="none"><path fill="currentColor" d="M18 2.25H6C3.582 2.25 2.25 3.582 2.25 6v15a.75.75 0 0 0 1.28.53l2.78-2.78H18c2.418 0 3.75-1.332 3.75-3.75V6c0-2.418-1.332-3.75-3.75-3.75M20.25 15c0 1.577-.673 2.25-2.25 2.25H6a.747.747 0 0 0-.53.22l-1.72 1.72V6c0-1.577.673-2.25 2.25-2.25h12c1.577 0 2.25.673 2.25 2.25zm-5.22-6.47-1.97 1.97 1.97 1.97a.75.75 0 0 1-1.06 1.061L12 11.561l-1.97 1.97a.748.748 0 0 1-1.06 0 .75.75 0 0 1 0-1.061l1.97-1.97-1.97-1.97a.75.75 0 0 1 1.061-1.061l1.97 1.97 1.97-1.97A.75.75 0 1 1 15.03 8.53"/></svg>