<svg xmlns="http://www.w3.org/2000/svg" width="24" height="24" fill="none"><path fill="currentColor" d="M19 8.25h-1.25V5.333c0-1.959-1.124-3.083-3.083-3.083H5.333c-1.959 0-3.083 1.124-3.083 3.083V17a.75.75 0 0 0 1.28.53l2.113-2.114H8.25V17c0 1.748 1.002 2.75 2.75 2.75h7.689l1.78 1.78a.748.748 0 0 0 1.28-.53V11c.002-1.748-1-2.75-2.748-2.75ZM5.333 13.917a.747.747 0 0 0-.53.22L3.75 15.19V5.335c0-1.14.443-1.583 1.583-1.583h9.334c1.14 0 1.583.444 1.583 1.583v7c0 1.139-.443 1.583-1.583 1.583H5.333v-.001Zm14.917 5.272-.72-.72a.749.749 0 0 0-.53-.22h-8c-.911 0-1.25-.339-1.25-1.25v-1.583h4.917c1.959 0 3.083-1.124 3.083-3.083V9.75H19c.911 0 1.25.339 1.25 1.25v8.189ZM13.861 7.278a.75.75 0 0 1-.75.75H6.888a.75.75 0 0 1 0-1.5h6.223a.75.75 0 0 1 .75.75Zm-2.334 3.111a.75.75 0 0 1-.75.75h-3.89a.75.75 0 0 1 0-1.5h3.89a.75.75 0 0 1 .75.75Z"/></svg>