<svg xmlns="http://www.w3.org/2000/svg" width="24" height="24" fill="none"><path fill="currentColor" d="M3 21.75a.75.75 0 0 1-.75-.75V6c0-2.418 1.332-3.75 3.75-3.75h8a.75.75 0 0 1 0 1.5H6c-1.577 0-2.25.673-2.25 2.25v13.189l1.72-1.72a.749.749 0 0 1 .53-.22h12c1.577 0 2.25-.673 2.25-2.25v-5a.75.75 0 0 1 1.5 0v5c0 2.418-1.332 3.75-3.75 3.75H6.311l-2.78 2.78A.747.747 0 0 1 3 21.75M22.75 4A2.752 2.752 0 0 0 20 1.25 2.752 2.752 0 0 0 17.25 4 2.752 2.752 0 0 0 20 6.75 2.752 2.752 0 0 0 22.75 4m-1.5 0c0 .689-.561 1.25-1.25 1.25S18.75 4.689 18.75 4s.561-1.25 1.25-1.25 1.25.561 1.25 1.25m-5.5 5a.75.75 0 0 0-.75-.75H8a.75.75 0 0 0 0 1.5h7a.75.75 0 0 0 .75-.75m-2 4a.75.75 0 0 0-.75-.75H8a.75.75 0 0 0 0 1.5h5a.75.75 0 0 0 .75-.75"/></svg>