<svg xmlns="http://www.w3.org/2000/svg" width="24" height="24" fill="none"><path fill="currentColor" d="M18 2.25H6C3.582 2.25 2.25 3.582 2.25 6v15a.75.75 0 0 0 1.28.53l2.78-2.78H18c2.418 0 3.75-1.332 3.75-3.75V6c0-2.418-1.332-3.75-3.75-3.75M20.25 15c0 1.577-.673 2.25-2.25 2.25H6a.747.747 0 0 0-.53.22l-1.72 1.72V6c0-1.577.673-2.25 2.25-2.25h12c1.577 0 2.25.673 2.25 2.25zm-4.521-7.653a.75.75 0 0 0-1.011-.271l-.133.074a.66.66 0 0 1-.643 0 .579.579 0 0 1-.304-.5.902.902 0 0 0-.904-.899H11.21a.902.902 0 0 0-.904.899.58.58 0 0 1-.303.5.662.662 0 0 1-.644 0 .91.91 0 0 0-1.22.324l-.763 1.282a.903.903 0 0 0-.097.689.898.898 0 0 0 .429.551.58.58 0 0 1 .305.502.58.58 0 0 1-.305.504.908.908 0 0 0-.429.552.9.9 0 0 0 .096.688l.766 1.284a.899.899 0 0 0 1.22.323.66.66 0 0 1 .642.001.578.578 0 0 1 .302.5c0 .496.405.899.903.899h1.527a.902.902 0 0 0 .903-.899c0-.204.116-.395.303-.5a.66.66 0 0 1 .644 0 .91.91 0 0 0 1.219-.324l.769-1.29a.89.89 0 0 0-.337-1.233.58.58 0 0 1-.304-.502.58.58 0 0 1 .302-.502l.133-.074a.749.749 0 0 0 .278-1.038zm-.72 4.582-.237.398a2.163 2.163 0 0 0-1.566.216 2.096 2.096 0 0 0-.976 1.207h-.515a2.094 2.094 0 0 0-.976-1.207 2.159 2.159 0 0 0-1.566-.216l-.237-.398c.368-.383.58-.896.578-1.435a2.066 2.066 0 0 0-.578-1.423l.237-.398a2.178 2.178 0 0 0 1.567-.216c.475-.269.82-.705.975-1.207h.515c.154.502.5.938.976 1.207a2.17 2.17 0 0 0 1.566.216l.237.398a2.069 2.069 0 0 0-.577 1.431c0 .536.212 1.046.577 1.427M13.02 10.5a1 1 0 0 1-1 1 1.005 1.005 0 0 1-1.005-1c0-.552.443-1 .995-1h.01a1 1 0 0 1 1 1"/></svg>