<svg xmlns="http://www.w3.org/2000/svg" width="24" height="24" fill="none"><path fill="currentColor" d="M21.75 6v5a.75.75 0 0 1-1.5 0V6c0-1.577-.673-2.25-2.25-2.25H6c-1.577 0-2.25.673-2.25 2.25v13.189l1.72-1.72a.749.749 0 0 1 .53-.22h6a.75.75 0 0 1 0 1.5H6.311l-2.78 2.78a.748.748 0 0 1-1.28-.53v-15c0-2.418 1.332-3.75 3.75-3.75h12C20.418 2.25 21.75 3.582 21.75 6Zm-1.28 8.136-2.803 2.803-1.137-1.136a.75.75 0 1 0-1.061 1.061l1.667 1.667a.748.748 0 0 0 1.06 0l3.333-3.333a.75.75 0 0 0-1.059-1.062ZM12.01 9.5a.996.996 0 0 0-.995 1c0 .552.453 1 1.005 1a1 1 0 1 0 0-2h-.01Zm4.01 2a1 1 0 1 0 0-2h-.01a.996.996 0 0 0-.995 1c0 .552.453 1 1.005 1Zm-8.01-2a.996.996 0 0 0-.995 1c0 .552.453 1 1.005 1a1 1 0 1 0 0-2h-.01Z"/></svg>