<svg xmlns="http://www.w3.org/2000/svg" width="24" height="24" fill="none"><path fill="currentColor" d="M3 21.75a.75.75 0 0 1-.75-.75V6c0-2.418 1.332-3.75 3.75-3.75h12c2.418 0 3.75 1.332 3.75 3.75v9c0 2.418-1.332 3.75-3.75 3.75H6.311l-2.78 2.78a.75.75 0 0 1-.531.22m3-18c-1.577 0-2.25.673-2.25 2.25v13.189l1.72-1.72a.749.749 0 0 1 .53-.22h12c1.577 0 2.25-.673 2.25-2.25v-9c0-1.577-.673-2.25-2.25-2.25zm6 11.5a4.756 4.756 0 0 1-4.75-4.75A4.756 4.756 0 0 1 12 5.75a4.756 4.756 0 0 1 4.75 4.75A4.756 4.756 0 0 1 12 15.25m0-8a3.254 3.254 0 0 0-3.25 3.25A3.254 3.254 0 0 0 12 13.75a3.254 3.254 0 0 0 3.25-3.25A3.254 3.254 0 0 0 12 7.25m1.53 4.78a.75.75 0 0 0 0-1.061l-.78-.78V9a.75.75 0 0 0-1.5 0v1.5c0 .199.079.39.22.53l1 1a.748.748 0 0 0 1.06 0"/></svg>