<svg xmlns="http://www.w3.org/2000/svg" width="24" height="24" fill="none"><path fill="currentColor" d="M3 21.75a.75.75 0 0 1-.75-.75V6c0-2.418 1.332-3.75 3.75-3.75h12c2.418 0 3.75 1.332 3.75 3.75v9c0 2.418-1.332 3.75-3.75 3.75H6.311l-2.78 2.78a.75.75 0 0 1-.531.22m3-18c-1.577 0-2.25.673-2.25 2.25v13.189l1.72-1.72a.749.749 0 0 1 .53-.22h12c1.577 0 2.25-.673 2.25-2.25v-9c0-1.577-.673-2.25-2.25-2.25zm2.53 8.88 2.304-2.232 1.271 1.269c.292.292.681.452 1.094.452h.001c.414 0 .804-.162 1.095-.454L16.53 9.43a.75.75 0 0 0-1.061-1.061l-2.306 2.235-1.27-1.269a1.553 1.553 0 0 0-2.192.001l-2.232 2.232A.75.75 0 0 0 8.53 12.63"/></svg>