<svg xmlns="http://www.w3.org/2000/svg" width="24" height="24" fill="none"><path fill="currentColor" d="M3 21.75a.75.75 0 0 1-.75-.75V6c0-2.418 1.332-3.75 3.75-3.75h12c2.418 0 3.75 1.332 3.75 3.75v9c0 2.418-1.332 3.75-3.75 3.75H6.311l-2.78 2.78a.75.75 0 0 1-.531.22m3-18c-1.577 0-2.25.673-2.25 2.25v13.189l1.72-1.72a.749.749 0 0 1 .53-.22h12c1.577 0 2.25-.673 2.25-2.25v-9c0-1.577-.673-2.25-2.25-2.25zm6 11.5a.757.757 0 0 1-.31-.066c-.152-.069-3.763-1.732-4.352-4.746-.238-1.22-.002-2.375.65-3.17.541-.661 1.315-1.013 2.238-1.017h.014c.77 0 1.349.317 1.759.716.41-.399.99-.716 1.758-.716h.014c.924.004 1.698.356 2.239 1.016.651.794.889 1.95.65 3.171-.59 3.014-4.2 4.677-4.353 4.746a.74.74 0 0 1-.307.066m-1.76-7.5h-.005c-.469.002-.834.16-1.086.468-.362.441-.488 1.164-.338 1.932.355 1.818 2.4 3.083 3.188 3.51.788-.426 2.833-1.691 3.188-3.51.15-.769.024-1.492-.337-1.932-.253-.308-.618-.465-1.088-.467h-.005c-.736 0-1.021.73-1.05.814a.756.756 0 0 1-.708.5h-.008a.747.747 0 0 1-.704-.508c-.025-.077-.309-.807-1.047-.807m5.685 2.543h.01z"/></svg>