<svg xmlns="http://www.w3.org/2000/svg" width="24" height="24" fill="none"><path fill="currentColor" d="M21.75 6v4a.75.75 0 0 1-1.5 0V6c0-1.577-.673-2.25-2.25-2.25H6c-1.577 0-2.25.673-2.25 2.25v13.189l1.72-1.72a.749.749 0 0 1 .53-.22h7a.75.75 0 0 1 0 1.5H6.311l-2.78 2.78a.748.748 0 0 1-1.28-.53v-15c0-2.418 1.332-3.75 3.75-3.75h12C20.418 2.25 21.75 3.582 21.75 6m-.22 7.47a.75.75 0 0 0-1.061 0l-1.47 1.47-1.47-1.47a.75.75 0 0 0-1.061 1.061l1.47 1.47-1.47 1.47a.75.75 0 0 0 1.06 1.061l1.47-1.47 1.47 1.47a.748.748 0 0 0 1.06 0 .75.75 0 0 0 0-1.061L20.058 16l1.47-1.47a.748.748 0 0 0 .002-1.061Z"/></svg>