<svg xmlns="http://www.w3.org/2000/svg" width="24" height="24" fill="none"><path fill="currentColor" d="M18 2.25H6C3.582 2.25 2.25 3.582 2.25 6v15a.75.75 0 0 0 1.28.53l2.78-2.78H18c2.418 0 3.75-1.332 3.75-3.75V6c0-2.418-1.332-3.75-3.75-3.75M20.25 15c0 1.577-.673 2.25-2.25 2.25H6a.747.747 0 0 0-.53.22l-1.72 1.72V6c0-1.577.673-2.25 2.25-2.25h12c1.577 0 2.25.673 2.25 2.25zM14.5 9.371V8.25c0-1.378-1.121-2.5-2.5-2.5a2.503 2.503 0 0 0-2.5 2.5v1.121c-.793.258-1.25.931-1.25 1.915v1.929c0 1.274.76 2.036 2.036 2.036h3.428c1.275 0 2.036-.761 2.036-2.036v-1.929c0-.984-.457-1.657-1.25-1.915M12 7.25c.552 0 1 .449 1 1v1h-2v-1c0-.551.448-1 1-1m2.25 5.964c0 .44-.095.536-.536.536h-3.428c-.441 0-.536-.095-.536-.536v-1.929c0-.44.095-.536.536-.536h3.428c.441 0 .536.095.536.536z"/></svg>