<svg xmlns="http://www.w3.org/2000/svg" width="24" height="24" fill="none"><path fill="currentColor" d="M18 2.25H6C3.582 2.25 2.25 3.582 2.25 6v15a.75.75 0 0 0 1.28.53l2.78-2.78H18c2.418 0 3.75-1.332 3.75-3.75V6c0-2.418-1.332-3.75-3.75-3.75ZM20.25 15c0 1.577-.673 2.25-2.25 2.25H6a.747.747 0 0 0-.53.22l-1.72 1.72V6c0-1.577.673-2.25 2.25-2.25h12c1.577 0 2.25.673 2.25 2.25v9Zm-5.666-6.595c.185 1.052-.255 1.992-1.239 2.646-.556.37-.632.557-.635.565a.767.767 0 0 1-.713.496.724.724 0 0 1-.245-.043.739.739 0 0 1-.463-.934c.203-.6.796-1.048 1.226-1.333.636-.423.643-.852.593-1.137a1.126 1.126 0 0 0-2.232.21.75.75 0 0 1-1.5 0c0-.778.342-1.511.938-2.011.596-.5 1.38-.71 2.157-.573a2.647 2.647 0 0 1 2.113 2.114ZM13.02 14a1 1 0 0 1-1 1 1.005 1.005 0 0 1-1.005-1c0-.552.443-1 .995-1h.01a1 1 0 0 1 1 1Z"/></svg>