<svg xmlns="http://www.w3.org/2000/svg" width="24" height="24" fill="none"><path fill="currentColor" d="M18 2.25H6C3.582 2.25 2.25 3.582 2.25 6v15a.75.75 0 0 0 1.28.53l2.78-2.78H18c2.418 0 3.75-1.332 3.75-3.75V6c0-2.418-1.332-3.75-3.75-3.75M20.25 15c0 1.577-.673 2.25-2.25 2.25H6a.747.747 0 0 0-.53.22l-1.72 1.72V6c0-1.577.673-2.25 2.25-2.25h12c1.577 0 2.25.673 2.25 2.25zm-5.769-3.08a3.645 3.645 0 0 0 .602-2.004 3.672 3.672 0 0 0-3.666-3.667A3.671 3.671 0 0 0 7.75 9.916a3.671 3.671 0 0 0 3.667 3.667c.74 0 1.427-.224 2.003-.603l1.549 1.55a.748.748 0 0 0 1.06 0 .75.75 0 0 0 0-1.062zM9.25 9.917a2.17 2.17 0 0 1 2.167-2.167 2.17 2.17 0 0 1 2.166 2.167 2.17 2.17 0 0 1-2.166 2.167A2.17 2.17 0 0 1 9.25 9.917"/></svg>