<svg xmlns="http://www.w3.org/2000/svg" width="24" height="24" fill="none"><path fill="currentColor" d="M19.75 11c0 4.02-3.077 7.333-7 7.712V21a.75.75 0 0 1-1.5 0v-2.298c-.412-.04-.82-.1-1.214-.207a.75.75 0 0 1 .39-1.45 6.07 6.07 0 0 0 1.574.206 6.257 6.257 0 0 0 6.25-6.25.75.75 0 0 1 1.5-.001Zm-6.336 4.536a4.754 4.754 0 0 0 3.122-3.122.771.771 0 0 0 .034-.224v-.01a.746.746 0 0 0-.75-.745.754.754 0 0 0-.722.549 3.256 3.256 0 0 1-2.079 2.103.748.748 0 0 0-.584.733.754.754 0 0 0 .98.716ZM21.53 3.53l-18 18a.748.748 0 0 1-1.06 0 .75.75 0 0 1 0-1.061l4.021-4.021a7.696 7.696 0 0 1-2.241-5.449.75.75 0 0 1 1.5 0c0 1.655.641 3.211 1.801 4.388l1.07-1.069a4.733 4.733 0 0 1-1.371-3.32v-4c0-1.258.492-2.45 1.386-3.356A4.767 4.767 0 0 1 12 2.248c2.367 0 4.319 1.746 4.676 4.014l3.794-3.794a.75.75 0 1 1 1.06 1.062ZM9.686 13.253l5.564-5.564V7A3.254 3.254 0 0 0 12 3.75c-.861 0-1.68.34-2.304.954A3.263 3.263 0 0 0 8.75 7v4c0 .854.35 1.654.936 2.253Z"/></svg>