<svg xmlns="http://www.w3.org/2000/svg" width="24" height="24" fill="none"><path fill="currentColor" d="M19 20.25h-5.75v-.621c3.126-.588 5.5-3.334 5.5-6.63 0-1.808-.71-3.5-1.968-4.758l.996-.996c.491-.49.74-1.02.74-1.57 0-.362-.118-.712-.33-1.05a.745.745 0 0 0-.029-1.016l-1-1a.743.743 0 0 0-1.018-.028c-.86-.534-1.804-.405-2.617.409L8.758 7.756c-.615.615-.845 1.305-.69 1.976l-.741.74c-.711.712-.711 1.595 0 2.306l.664.665c.354.353.742.532 1.153.532.411 0 .8-.18 1.152-.533l.739-.74c.135.032.271.047.408.047.551 0 1.079-.25 1.569-.74l2.709-2.71a5.208 5.208 0 0 1 1.528 3.7 5.256 5.256 0 0 1-5.25 5.25 5.253 5.253 0 0 1-3.665-1.5H10a.75.75 0 0 0 0-1.5H5a.75.75 0 0 0 0 1.5h1.411a6.74 6.74 0 0 0 5.339 2.983v.517H6a.75.75 0 0 0 0 1.5h13a.75.75 0 0 0 0-1.5Zm-9.852-7.786a.655.655 0 0 1-.098-.083l-.664-.665c-.044-.044-.068-.076-.082-.087a.638.638 0 0 1 .082-.097l.505-.504.849.849-.505.505c-.044.044-.076.069-.087.082m2.804-1.514c-.387.387-.632.387-1.019 0L9.818 9.835c-.399-.4-.399-.62 0-1.02l4.766-4.764c.2-.2.354-.3.51-.3.156 0 .31.1.51.3l1.114 1.115c.193.194.301.375.301.51s-.107.315-.301.509z"/></svg>