<svg xmlns="http://www.w3.org/2000/svg" width="24" height="24" fill="none"><path fill="currentColor" d="M10.477 13.522a.75.75 0 0 1 0 1.06l-.993.993a.748.748 0 0 1-1.06-.001.75.75 0 0 1 0-1.061l.993-.992a.75.75 0 0 1 1.06 0Zm9.546-1.855-.15.151c-.01.01-.013.023-.022.032-.009.009-.022.013-.032.021l-.729.728c-1.11 1.111-2.24 1.647-3.499 1.647-.157 0-.321-.028-.482-.045l-7.875 6.813a2.999 2.999 0 0 1-1.97.73 3.008 3.008 0 0 1-2.13-.878 3.024 3.024 0 0 1-.149-4.102L9.79 8.9c-.154-1.46.358-2.738 1.612-3.992l.933-.933c2.301-2.3 5.392-2.3 7.69 0 1.159 1.159 1.756 2.52 1.726 3.934-.029 1.359-.626 2.657-1.727 3.758Zm-6.249-6.954 5.513 5.513c.603-.728.945-1.528.963-2.347.021-.996-.425-1.979-1.287-2.842-1.594-1.593-3.542-1.69-5.189-.324m-.007 8.667-3.146-3.147-6.5 7.514a1.52 1.52 0 0 0 .073 2.06c.56.558 1.463.59 2.059.074zm4.262-1.841.225-.225-5.569-5.569-.225.225c-1.143 1.143-1.275 2.05-1.186 2.797l3.957 3.957c.748.09 1.656-.041 2.798-1.185"/></svg>