<svg xmlns="http://www.w3.org/2000/svg" width="24" height="24" fill="none"><path fill="currentColor" d="M3.001 11.8a.75.75 0 0 1-.747-.831 9.638 9.638 0 0 1 5.355-7.642.75.75 0 0 1 1.081.674v3.05a.75.75 0 0 1-1.5 0v-1.74a8.136 8.136 0 0 0-3.444 5.821.751.751 0 0 1-.745.668m18.081.405a.749.749 0 0 0-.827.664 8.136 8.136 0 0 1-3.444 5.822V16.95a.75.75 0 0 0-1.5 0V20a.75.75 0 0 0 1.081.673 9.635 9.635 0 0 0 5.355-7.642.751.751 0 0 0-.665-.826M10.25 8.5v-4c0-1.409.841-2.25 2.25-2.25h6c1.409 0 2.25.841 2.25 2.25v4c0 1.409-.841 2.25-2.25 2.25h-6c-1.409 0-2.25-.841-2.25-2.25m1.5 0c0 .589.161.75.75.75h6c.589 0 .75-.161.75-.75v-4c0-.589-.161-.75-.75-.75h-6c-.589 0-.75.161-.75.75zm2 7v4c0 1.409-.841 2.25-2.25 2.25h-6c-1.409 0-2.25-.841-2.25-2.25v-4c0-1.409.841-2.25 2.25-2.25h6c1.409 0 2.25.841 2.25 2.25m-1.5 0c0-.589-.161-.75-.75-.75h-6c-.589 0-.75.161-.75.75v4c0 .589.161.75.75.75h6c.589 0 .75-.161.75-.75zm-3.75.645a1.25 1.25 0 1 0 0 2.5 1.25 1.25 0 0 0 0-2.5m7-8.518a1.25 1.25 0 1 0 0-2.501 1.25 1.25 0 0 0 0 2.5Z"/></svg>