<svg xmlns="http://www.w3.org/2000/svg" width="24" height="24" fill="none"><path fill="currentColor" d="M12 8.25A3.754 3.754 0 0 0 8.25 12 3.754 3.754 0 0 0 12 15.75 3.754 3.754 0 0 0 15.75 12 3.754 3.754 0 0 0 12 8.25m0 6A2.252 2.252 0 0 1 9.75 12 2.252 2.252 0 0 1 12 9.75 2.252 2.252 0 0 1 14.25 12 2.252 2.252 0 0 1 12 14.25m6-10H6C3.582 4.25 2.25 5.582 2.25 8v8c0 2.418 1.332 3.75 3.75 3.75h12c2.418 0 3.75-1.332 3.75-3.75V8c0-2.418-1.332-3.75-3.75-3.75M20.25 16c0 1.577-.673 2.25-2.25 2.25H6c-1.577 0-2.25-.673-2.25-2.25V8c0-1.577.673-2.25 2.25-2.25h12c1.577 0 2.25.673 2.25 2.25zM7 12a1 1 0 1 1-2 0 1 1 0 0 1 2 0m12 0a1 1 0 1 1-2 0 1 1 0 0 1 2 0"/></svg>