<svg xmlns="http://www.w3.org/2000/svg" width="24" height="24" fill="none"><path fill="currentColor" d="M21.75 7v5a.75.75 0 0 1-1.5 0V7c0-1.577-.673-2.25-2.25-2.25H6c-1.577 0-2.25.673-2.25 2.25v8c0 1.577.673 2.25 2.25 2.25h8a.75.75 0 0 1 0 1.5H6c-2.418 0-3.75-1.332-3.75-3.75V7c0-2.418 1.332-3.75 3.75-3.75h12c2.418 0 3.75 1.332 3.75 3.75M5 11a1 1 0 1 0 2 0 1 1 0 0 0-2 0m7-3.75A3.754 3.754 0 0 1 15.75 11 3.754 3.754 0 0 1 12 14.75 3.754 3.754 0 0 1 8.25 11 3.754 3.754 0 0 1 12 7.25m0 1.5A2.252 2.252 0 0 0 9.75 11 2.252 2.252 0 0 0 12 13.25 2.252 2.252 0 0 0 14.25 11 2.252 2.252 0 0 0 12 8.75m8.47 8.72-.72.72V15a.75.75 0 0 0-1.5 0v3.189l-.72-.72a.75.75 0 1 0-1.061 1.061l2 2a.749.749 0 0 0 1.06 0l2-2a.75.75 0 0 0-1.059-1.06"/></svg>