<svg xmlns="http://www.w3.org/2000/svg" width="24" height="24" fill="none"><path fill="currentColor" d="M13 17.5a1 1 0 1 1-2 0 1 1 0 0 1 2 0m-4-5.25c0-1.654 1.346-3 3-3s3 1.346 3 3-1.346 3-3 3-3-1.346-3-3m1.5 0c0 .827.673 1.5 1.5 1.5s1.5-.673 1.5-1.5-.673-1.5-1.5-1.5-1.5.673-1.5 1.5M18.25 7v11c0 2.418-1.332 3.75-3.75 3.75h-5c-2.418 0-3.75-1.332-3.75-3.75V7a.75.75 0 0 1 .75-.75h11a.75.75 0 0 1 .75.75m-1.5.75h-9.5V18c0 1.577.673 2.25 2.25 2.25h5c1.577 0 2.25-.673 2.25-2.25zm2.75-5.5h-15c-1.409 0-2.25.841-2.25 2.25v6c0 1.161.578 1.956 1.586 2.182a.751.751 0 0 0 .329-1.464c-.175-.039-.414-.093-.414-.718v-6c0-.589.161-.75.75-.75h15c.589 0 .75.161.75.75v6c0 .625-.239.679-.414.718a.75.75 0 0 0 .328 1.464c1.008-.226 1.586-1.021 1.586-2.182v-6c-.001-1.409-.842-2.25-2.251-2.25"/></svg>