<svg xmlns="http://www.w3.org/2000/svg" width="24" height="24" fill="none"><path fill="currentColor" d="M21.75 7v5a.75.75 0 0 1-1.5 0V7c0-1.577-.673-2.25-2.25-2.25H6c-1.577 0-2.25.673-2.25 2.25v8c0 1.577.673 2.25 2.25 2.25h8a.75.75 0 0 1 0 1.5H6c-2.418 0-3.75-1.332-3.75-3.75V7c0-2.418 1.332-3.75 3.75-3.75h12c2.418 0 3.75 1.332 3.75 3.75ZM5 11a1 1 0 1 0 2 0 1 1 0 0 0-2 0Zm7-3.75A3.754 3.754 0 0 1 15.75 11 3.754 3.754 0 0 1 12 14.75 3.754 3.754 0 0 1 8.25 11 3.754 3.754 0 0 1 12 7.25Zm0 1.5A2.252 2.252 0 0 0 9.75 11 2.252 2.252 0 0 0 12 13.25 2.252 2.252 0 0 0 14.25 11 2.252 2.252 0 0 0 12 8.75Zm7.531 5.72a.749.749 0 0 0-.817-.162.749.749 0 0 0-.244.162l-2 2a.75.75 0 1 0 1.061 1.061l.72-.72V20a.75.75 0 0 0 1.5 0v-3.189l.72.72a.748.748 0 0 0 1.06 0 .75.75 0 0 0 0-1.061l-2-2Z"/></svg>