<svg xmlns="http://www.w3.org/2000/svg" width="24" height="24" fill="none"><path fill="currentColor" d="M18 3.25H6C3.582 3.25 2.25 4.582 2.25 7v10c0 2.418 1.332 3.75 3.75 3.75h12c2.418 0 3.75-1.332 3.75-3.75V7c0-2.418-1.332-3.75-3.75-3.75M20.25 17c0 1.577-.673 2.25-2.25 2.25H6c-1.577 0-2.25-.673-2.25-2.25v-4.25H8a.749.749 0 0 0 .624-.334l1.149-1.724 1.515 4.545a.751.751 0 0 0 1.336.179l1.777-2.666H16a.75.75 0 0 0 0-1.5h-2a.749.749 0 0 0-.624.334l-1.149 1.724-1.515-4.545a.751.751 0 0 0-1.336-.179L7.599 11.25H3.75V7c0-1.577.673-2.25 2.25-2.25h12c1.577 0 2.25.673 2.25 2.25z"/></svg>