<svg xmlns="http://www.w3.org/2000/svg" width="24" height="24" fill="none"><path fill="currentColor" d="M21 9.25h-3.851l1.369-1.542c.147.027.303.041.465.042h.019c1.148 0 2.117-.635 2.532-1.66.44-1.088.204-2.26-.617-3.059-.821-.8-2.002-1.003-3.084-.532-.963.419-1.583 1.402-1.58 2.527L10.698 9.25H3a.75.75 0 0 0 0 1.5h.301c.253 3.595 1.884 6.303 4.61 7.6a5.57 5.57 0 0 0-.575 2.012c-.035.357.082.714.322.98.235.26.571.408.92.408h6.852c.35 0 .685-.149.92-.408.24-.265.357-.622.322-.979a5.563 5.563 0 0 0-.575-2.013c2.719-1.294 4.347-4.002 4.602-7.599H21a.75.75 0 0 0 0-1.501m-3.84-3.029a1.5 1.5 0 0 0 .59-1.22c-.001-.504.267-.946.682-1.127.519-.227 1.057-.141 1.438.231.381.371.482.902.272 1.422-.184.453-.609.722-1.14.722a.99.99 0 0 1-.218-.018c-.469-.084-.963.09-1.311.473L15.148 9.25h-1.974l3.985-3.028ZM8.86 20.25c.118-.761.384-1.243.557-1.5h5.17c.176.259.441.741.558 1.5H8.861Zm5.955-3H9.193c-2.607-.924-4.156-3.21-4.408-6.5h14.43c-.255 3.293-1.801 5.58-4.399 6.5Z"/></svg>