<svg xmlns="http://www.w3.org/2000/svg" width="24" height="24" fill="none"><path fill="currentColor" d="M20.75 13.5a4.26 4.26 0 0 0-4.25-4.25h-12c-.69 0-1.25.56-1.25 1.25V18c0 2.42 1.33 3.75 3.75 3.75h6c2.42 0 3.75-1.33 3.75-3.75v-.28c2.23-.13 4-1.97 4-4.22Zm-5.5 4.5c0 1.58-.67 2.25-2.25 2.25H7c-1.58 0-2.25-.67-2.25-2.25v-7.25h10.5V18Zm1.5-1.78v-5.45c1.4.13 2.5 1.29 2.5 2.72 0 1.43-1.1 2.6-2.5 2.72v.01ZM11.82 5.37c-.75-.76-.75-2 0-2.75l.15-.15c.29-.29.77-.29 1.06 0 .29.29.3.77 0 1.06l-.15.15c-.18.18-.18.46 0 .64l.3.3c.75.76.75 2 0 2.75l-.15.15c-.15.15-.34.22-.53.22s-.38-.07-.53-.22a.745.745 0 0 1 0-1.06l.15-.15c.18-.18.18-.46 0-.64l-.3-.3Zm-5 0c-.75-.76-.75-2 0-2.75l.15-.15c.29-.29.77-.29 1.06 0 .29.29.3.77 0 1.06l-.15.15c-.18.18-.18.46 0 .64l.3.3c.75.76.75 2 0 2.75l-.15.15c-.15.15-.34.22-.53.22s-.38-.07-.53-.22a.745.745 0 0 1 0-1.06l.15-.15c.18-.18.18-.46 0-.64l-.3-.3Z"/></svg>