<svg xmlns="http://www.w3.org/2000/svg" width="24" height="24" fill="none"><path fill="currentColor" d="M18.962 2.628c-.523-.397-1.24-.484-2.07-.251l-7.635 2.14c-1.294.362-2.007 1.3-2.007 2.642v8.612a3.22 3.22 0 0 0-1.75-.52 3.254 3.254 0 0 0-3.25 3.25 3.254 3.254 0 0 0 3.25 3.25 3.254 3.254 0 0 0 3.25-3.25V11.65l9.5-2.66v3.781a3.22 3.22 0 0 0-1.75-.52 3.254 3.254 0 0 0-3.25 3.25 3.254 3.254 0 0 0 3.25 3.25 3.252 3.252 0 0 0 3.248-3.233l.002-.008V4.541c0-.874-.265-1.517-.788-1.913M5.5 20.25c-.965 0-1.75-.785-1.75-1.75s.785-1.75 1.75-1.75 1.75.785 1.75 1.75-.785 1.75-1.75 1.75m3.25-10.159V7.158c0-.678.256-1.015.911-1.198l7.636-2.139c.341-.095.631-.094.759.002.124.093.194.354.194.715V7.43zm7.75 7.159c-.965 0-1.75-.785-1.75-1.75s.785-1.75 1.75-1.75 1.75.785 1.75 1.75-.785 1.75-1.75 1.75"/></svg>