<svg xmlns="http://www.w3.org/2000/svg" width="24" height="24" fill="none"><path fill="currentColor" d="M21.125 5.552c-.289-.22-.8-.434-1.602-.208l-3.093.869a2.103 2.103 0 0 0-1.514 2.007v4.815a3.05 3.05 0 0 0-1.584-.452 3.087 3.087 0 0 0-3.083 3.083c0 1.7 1.383 3.083 3.083 3.083 1.7 0 3.084-1.383 3.084-3.083V12c0-.333.182-.627.425-.698l3.625-1.013c.792-.219 1.283-.83 1.283-1.596V7.026c.001-.827-.339-1.258-.624-1.474M13.333 17.25c-.873 0-1.583-.71-1.583-1.583a1.585 1.585 0 0 1 3.167 0c0 .873-.711 1.583-1.584 1.583m6.917-8.557c0 .038 0 .1-.186.15L16.43 9.86a.075.075 0 0 0-.014.004V8.219c0-.264.174-.491.426-.564l3.087-.867c.179-.05.27-.04.279-.047a.72.72 0 0 1 .041.285v1.667zM2.25 7A.75.75 0 0 1 3 6.25h9a.75.75 0 0 1 0 1.5H3A.75.75 0 0 1 2.25 7M10 12.75H3a.75.75 0 0 1 0-1.5h7a.75.75 0 0 1 0 1.5M7.75 17a.75.75 0 0 1-.75.75H3a.75.75 0 0 1 0-1.5h4a.75.75 0 0 1 .75.75"/></svg>