<svg xmlns="http://www.w3.org/2000/svg" width="24" height="24" fill="none"><path fill="currentColor" d="M13.077 11.75H9.923c-1.032 0-1.673.641-1.673 1.673v2.154c0 1.032.641 1.673 1.673 1.673h3.154c1.032 0 1.673-.641 1.673-1.673v-2.154c0-1.032-.641-1.673-1.673-1.673m.173 3.827c0 .093-.012.143-.009.155a.54.54 0 0 1-.164.019H9.923c-.082 0-.131-.009-.148-.009h-.006a.552.552 0 0 1-.019-.165v-2.154c0-.093.012-.143.009-.155a.539.539 0 0 1 .164-.019h3.154c.096 0 .146.011.154.009a.553.553 0 0 1 .019.165zM19.75 13a.75.75 0 0 1-.75.75h-2a.75.75 0 0 1 0-1.5h2a.75.75 0 0 1 .75.75m0 3a.75.75 0 0 1-.75.75h-2a.75.75 0 0 1 0-1.5h2a.75.75 0 0 1 .75.75m0-7a.75.75 0 0 1-.75.75H9a.75.75 0 0 1 0-1.5h10a.75.75 0 0 1 .75.75M19 4.25H9C6.582 4.25 5.25 5.582 5.25 8v.25H4A2.753 2.753 0 0 0 1.25 11v7A2.753 2.753 0 0 0 4 20.75h15c2.418 0 3.75-1.332 3.75-3.75V8c0-2.418-1.332-3.75-3.75-3.75M5.25 18c0 .689-.561 1.25-1.25 1.25S2.75 18.689 2.75 18v-7c0-.689.561-1.25 1.25-1.25h1.25zm16-1c0 1.577-.673 2.25-2.25 2.25H6.449c.192-.375.301-.8.301-1.25V8c0-1.577.673-2.25 2.25-2.25h10c1.577 0 2.25.673 2.25 2.25z"/></svg>