<svg xmlns="http://www.w3.org/2000/svg" width="24" height="24" fill="none"><path fill="currentColor" d="M16.75 11a.75.75 0 0 1-.75.75H8a.75.75 0 0 1 0-1.5h8a.75.75 0 0 1 .75.75M13 14.25H8a.75.75 0 0 0 0 1.5h5a.75.75 0 0 0 0-1.5m8.75-7.424v11.848c0 2.628-1.448 4.076-4.078 4.076H6.328c-2.63 0-4.078-1.448-4.078-4.076V6.826c0-2.628 1.448-4.076 4.078-4.076h.478V2a.75.75 0 0 1 1.5 0v.75h2.944V2a.75.75 0 0 1 1.5 0v.75h2.944V2a.75.75 0 0 1 1.5 0v.75h.478c2.63 0 4.078 1.448 4.078 4.076m-1.5 0c0-1.806-.77-2.576-2.578-2.576h-.478V5a.75.75 0 0 1-1.5 0v-.75H12.75V5a.75.75 0 0 1-1.5 0v-.75H8.306V5a.75.75 0 0 1-1.5 0v-.75h-.478c-1.807 0-2.578.771-2.578 2.576v11.848c0 1.806.77 2.576 2.578 2.576h11.344c1.807 0 2.578-.771 2.578-2.576z"/></svg>