<svg xmlns="http://www.w3.org/2000/svg" width="24" height="24" fill="none"><path fill="currentColor" d="M17 2.25H7.5C5.082 2.25 3.75 3.582 3.75 6v1.25H3a.75.75 0 0 0 0 1.5h.75v6.5H3a.75.75 0 0 0 0 1.5h.75V18c0 2.418 1.332 3.75 3.75 3.75H17c2.418 0 3.75-1.332 3.75-3.75V6c0-2.418-1.332-3.75-3.75-3.75M19.25 18c0 1.577-.673 2.25-2.25 2.25H7.5c-1.577 0-2.25-.673-2.25-2.25v-1.25H6a.75.75 0 0 0 0-1.5h-.75v-6.5H6a.75.75 0 0 0 0-1.5h-.75V6c0-1.577.673-2.25 2.25-2.25H17c1.577 0 2.25.673 2.25 2.25zM15 6.25h-5c-1.079 0-1.75.67-1.75 1.75v3c0 1.08.671 1.75 1.75 1.75h5c1.079 0 1.75-.67 1.75-1.75V8c0-1.08-.671-1.75-1.75-1.75m.25 4.75c0 .156-.03.214-.027.217a.512.512 0 0 1-.223.033h-5c-.151 0-.211-.027-.216-.027h-.001c-.004-.009-.033-.067-.033-.223V8c0-.156.03-.214.027-.217A.513.513 0 0 1 10 7.75h5c.182 0 .217.028.217.027.004.009.033.067.033.223z"/></svg>