<svg xmlns="http://www.w3.org/2000/svg" width="24" height="24" fill="none"><path fill="currentColor" d="M17 21.75H7c-2.418 0-3.75-1.332-3.75-3.75V6c0-2.418 1.332-3.75 3.75-3.75h10c2.418 0 3.75 1.332 3.75 3.75v12c0 2.418-1.332 3.75-3.75 3.75m-10-18c-1.577 0-2.25.673-2.25 2.25v12c0 1.577.673 2.25 2.25 2.25h10c1.577 0 2.25-.673 2.25-2.25V6c0-1.577-.673-2.25-2.25-2.25zM16.75 12a.75.75 0 0 0-.75-.75H8a.75.75 0 0 0 0 1.5h8a.75.75 0 0 0 .75-.75m-3 4a.75.75 0 0 0-.75-.75H8a.75.75 0 0 0 0 1.5h5a.75.75 0 0 0 .75-.75m3-8a.75.75 0 0 0-.75-.75H8a.75.75 0 0 0 0 1.5h8a.75.75 0 0 0 .75-.75"/></svg>