<svg xmlns="http://www.w3.org/2000/svg" width="24" height="24" fill="none"><path fill="currentColor" d="M12 8.25A3.754 3.754 0 0 0 8.25 12 3.754 3.754 0 0 0 12 15.75 3.754 3.754 0 0 0 15.75 12 3.754 3.754 0 0 0 12 8.25Zm0 6A2.252 2.252 0 0 1 9.75 12 2.252 2.252 0 0 1 12 9.75 2.252 2.252 0 0 1 14.25 12 2.252 2.252 0 0 1 12 14.25Zm7.223-8.068-5.5-3.438a3.27 3.27 0 0 0-3.445 0l-5.5 3.438a3.23 3.23 0 0 0-1.527 2.756v6.124c0 1.128.571 2.158 1.527 2.756l5.5 3.438a3.25 3.25 0 0 0 1.723.49c.6 0 1.199-.164 1.723-.49l5.5-3.438a3.23 3.23 0 0 0 1.527-2.756V8.938a3.235 3.235 0 0 0-1.528-2.756Zm.027 8.88c0 .607-.308 1.162-.822 1.484l-5.5 3.438a1.761 1.761 0 0 1-1.855 0l-5.5-3.438a1.739 1.739 0 0 1-.822-1.484V8.938c0-.607.308-1.162.822-1.484l5.5-3.438c.282-.176.605-.264.928-.264.323 0 .646.088.928.264l5.5 3.438c.515.322.822.876.822 1.484v6.124h-.001Z"/></svg>