<svg xmlns="http://www.w3.org/2000/svg" width="24" height="24" fill="none"><path fill="currentColor" d="M15.379 21.75H8.62c-.592 0-1.172-.24-1.591-.659l-4.12-4.121c-.42-.419-.659-1-.659-1.591V8.62c0-.592.24-1.172.659-1.591l4.121-4.12c.419-.42 1-.659 1.591-.659h6.758c.592 0 1.172.24 1.591.659l4.121 4.121c.42.419.659 1 .659 1.591v6.758c0 .592-.24 1.172-.659 1.591l-4.121 4.121c-.419.42-1 .659-1.591.659Zm-6.758-18a.753.753 0 0 0-.53.22L3.97 8.091a.755.755 0 0 0-.22.53v6.758c0 .197.08.39.22.53l4.121 4.121c.14.14.333.22.53.22h6.758c.197 0 .39-.08.53-.22l4.121-4.121c.14-.14.22-.333.22-.53V8.62a.753.753 0 0 0-.22-.53l-4.121-4.12a.754.754 0 0 0-.53-.22H8.62ZM15.75 12a.75.75 0 0 0-.75-.75H9a.75.75 0 0 0 0 1.5h6a.75.75 0 0 0 .75-.75Z"/></svg>