<svg xmlns="http://www.w3.org/2000/svg" width="24" height="24" fill="none"><path fill="currentColor" d="m21.413 8.717-1.07-3.747c-.382-1.337-.777-2.72-3.605-2.72H7.263c-2.828 0-3.224 1.383-3.605 2.72l-1.07 3.747a8.729 8.729 0 0 0-.337 2.404V18c0 2.418 1.332 3.75 3.75 3.75h12c2.418 0 3.75-1.332 3.75-3.75v-6.88a8.76 8.76 0 0 0-.338-2.403Zm-2.512-3.335 1.07 3.747c.01.04.015.082.026.122H12.75v-5.5h3.987c1.698-.001 1.815.41 2.164 1.631Zm-13.802 0c.35-1.221.467-1.632 2.164-1.632h3.987v5.5H4.003c.011-.04.014-.082.026-.121L5.1 5.382ZM20.25 18c0 1.577-.673 2.25-2.25 2.25H6c-1.577 0-2.25-.673-2.25-2.25v-6.88c0-.124.019-.247.026-.37h16.448c.006.124.026.246.026.37V18Zm-6-1.088c0 .544-.206 1.057-.581 1.446a1.987 1.987 0 0 1-.934.543v.1a.75.75 0 0 1-1.5 0v-.108a2.043 2.043 0 0 1-1.474-1.755.75.75 0 0 1 1.492-.161c.03.284.25.498.51.498h.473a.493.493 0 0 0 .353-.155.58.58 0 0 0 .161-.405.553.553 0 0 0-.396-.546l-1.084-.279a2.018 2.018 0 0 1-1.104-.745 2.08 2.08 0 0 1-.415-1.253c0-.948.632-1.74 1.485-1.979V12a.75.75 0 0 1 1.5 0v.1a2.042 2.042 0 0 1 1.503 1.764.75.75 0 0 1-1.492.161c-.03-.283-.25-.497-.51-.497h-.473c-.283 0-.514.251-.514.561 0 .13.04.255.113.35a.507.507 0 0 0 .283.196l1.084.279a2.054 2.054 0 0 1 1.52 1.998Z"/></svg>