<svg xmlns="http://www.w3.org/2000/svg" width="24" height="24" fill="none"><path fill="currentColor" d="M22.556 9.629C21.59 4.852 17.014 1.25 11.91 1.25 6.032 1.25 1.25 6.073 1.25 12S6.072 22.75 12 22.75c1.161 0 1.987-.508 2.211-1.36.249-.947-.349-1.96-1.561-2.644-.314-.177-.482-.496-.409-.775.094-.358.673-.776 1.993-.776h2.225c.791 0 3.496-.153 5.117-2.127 1.1-1.34 1.43-3.169.98-5.439Zm-2.139 4.486c-1.204 1.466-3.333 1.58-3.958 1.58h-2.225c-2.733 0-3.327 1.451-3.444 1.895-.247.938.215 1.95 1.122 2.462.716.404.882.826.848.957-.026.1-.28.241-.761.241-5.101 0-9.25-4.149-9.25-9.25s4.109-9.25 9.16-9.25c4.404 0 8.349 3.085 9.175 7.174.359 1.805.134 3.215-.667 4.191ZM18.27 10c0 .69-.56 1.25-1.25 1.25s-1.255-.56-1.255-1.25.555-1.25 1.245-1.25h.01c.69 0 1.25.56 1.25 1.25Zm-7-3c0 .69-.56 1.25-1.25 1.25S8.765 7.69 8.765 7s.555-1.25 1.245-1.25h.01c.69 0 1.25.56 1.25 1.25Zm4 0c0 .69-.56 1.25-1.25 1.25S12.765 7.69 12.765 7s.555-1.25 1.245-1.25h.01c.69 0 1.25.56 1.25 1.25Zm-7 3c0 .69-.56 1.25-1.25 1.25S5.765 10.69 5.765 10 6.32 8.75 7.01 8.75h.01c.69 0 1.25.56 1.25 1.25Zm0 4c0 .69-.56 1.25-1.25 1.25S5.765 14.69 5.765 14s.555-1.25 1.245-1.25h.01c.69 0 1.25.56 1.25 1.25Z"/></svg>