<svg xmlns="http://www.w3.org/2000/svg" width="24" height="24" fill="none"><path fill="currentColor" d="M19.12 7.87v-.06l-.24-4.89c-.05-.93-.81-1.67-1.75-1.67H6.88c-.94 0-1.71.73-1.76 1.67l-.24 4.89v.06l-.63 13.04c-.02.48.15.95.48 1.3.33.35.79.55 1.27.55h2.17c.83 0 1.53-.57 1.71-1.38L12 11.74l2.12 9.64c.18.81.88 1.38 1.71 1.38H18c.48 0 .94-.2 1.27-.55.33-.35.51-.82.48-1.3zm-3.34-2.62h1.71l.1 1.99s-.05.01-.08.01c-.97 0-1.75-.79-1.75-1.75 0-.09.01-.17.03-.25zm-8.9-2.5h10.25c.13 0 .24.1.25.24l.04.76H6.59l.04-.76c0-.14.12-.24.26-.24zM8.25 5.5c0 .96-.79 1.75-1.75 1.75-.03 0-.05-.01-.08-.01l.1-1.99h1.71c.01.08.03.16.03.25zm9.93 15.67s-.09.08-.19.08h-2.17c-.12 0-.22-.08-.25-.2L12.92 8.97a.952.952 0 0 0-1.86 0L8.41 21.05c-.03.12-.13.2-.25.2H5.99a.26.26 0 0 1-.19-.08.226.226 0 0 1-.07-.19l.59-12.25c.05 0 .1.01.16.01 1.79 0 3.25-1.46 3.25-3.25 0-.09-.02-.17-.03-.25h4.55c0 .08-.03.16-.03.25 0 1.79 1.46 3.25 3.25 3.25.05 0 .1-.01.16-.01l.59 12.25c0 .1-.04.16-.07.19z"/></svg>