<svg xmlns="http://www.w3.org/2000/svg" width="24" height="24" fill="none"><path fill="currentColor" d="m19.339 2.506-6.565-1.158c-1.292-.227-2.357-.056-3.167.511-.81.567-1.335 1.509-1.562 2.801l-.108.614-3.28.577C2.065 6.312.89 7.994 1.35 10.587l1.544 8.753c.224 1.292.746 2.234 1.554 2.801.578.405 1.286.609 2.115.609.332 0 .685-.033 1.056-.099l6.57-1.157c1.868-.338 2.709-1.24 3.083-2.109.048.001.103.014.15.014 2 0 3.294-1.182 3.688-3.409l1.543-8.754c.455-2.593-.72-4.273-3.314-4.73m-5.413 17.512-6.568 1.156c-.888.156-1.577.07-2.048-.261-.47-.33-.785-.945-.938-1.832l-1.545-8.757c-.316-1.784.31-2.68 2.092-2.997l2.74-.482L6.5 13.414c-.457 2.594.719 4.274 3.312 4.731l5.85 1.031c-.278.329-.781.668-1.737.842Zm7.249-13.042-1.543 8.754c-.315 1.784-1.21 2.411-2.994 2.096l-6.565-1.158c-1.783-.314-2.41-1.209-2.096-2.993l1.544-8.754c.156-.886.475-1.503.946-1.833.32-.224.741-.337 1.257-.337.242 0 .506.025.79.075l6.565 1.158c1.783.313 2.41 1.208 2.096 2.992"/></svg>