<svg xmlns="http://www.w3.org/2000/svg" width="24" height="24" fill="none"><path fill="currentColor" d="M17.625 2.25H6.375c-2.66 0-4.125 1.465-4.125 4.125v11.25c0 2.66 1.465 4.125 4.125 4.125h11.25c2.66 0 4.125-1.465 4.125-4.125V6.375c0-2.66-1.465-4.125-4.125-4.125m2.625 15.375c0 1.84-.785 2.625-2.625 2.625H6.375c-1.84 0-2.625-.785-2.625-2.625V6.375c0-1.84.785-2.625 2.625-2.625h11.25c1.84 0 2.625.785 2.625 2.625zM13 7.25h-3a.75.75 0 0 0-.75.75v8a.75.75 0 0 0 1.5 0v-3.25H13A2.752 2.752 0 0 0 15.75 10 2.752 2.752 0 0 0 13 7.25m0 4h-2.25v-2.5H13c.689 0 1.25.561 1.25 1.25s-.561 1.25-1.25 1.25"/></svg>