<svg xmlns="http://www.w3.org/2000/svg" width="24" height="24" fill="none"><path fill="currentColor" d="M18 4.25H6C3.58 4.25 2.25 5.58 2.25 8v8c0 2.42 1.33 3.75 3.75 3.75h12c2.42 0 3.75-1.33 3.75-3.75V8c0-2.42-1.33-3.75-3.75-3.75M20.25 16c0 1.58-.67 2.25-2.25 2.25H6c-1.58 0-2.25-.67-2.25-2.25V8c0-1.58.67-2.25 2.25-2.25h12c1.58 0 2.25.67 2.25 2.25zM9.92 11h-.57s-.08.03-.09.07l-.02.13s-.44-.48-1.22-.16c-.44.18-.66.57-.75.85 0 0-.29.84.37 1.32 0 0 .61.45 1.29-.02v.07s0 .07.03.08c.01.01.02.01.03.01h.57s.08-.03.09-.07L10 11.1s-.01-.07-.05-.08c-.01-.01-.02-.01-.03-.01zm-.84 1.2c-.02.15-.09.29-.21.39a.703.703 0 0 1-.6.13.5.5 0 0 1-.35-.57c.02-.15.09-.29.22-.39.12-.1.27-.15.42-.15.07 0 .13.01.18.02.24.08.38.31.33.57zM18.1 11h-.58s-.08.03-.08.07l-.02.13s-.44-.48-1.22-.16c-.44.18-.66.57-.75.85 0 0-.29.84.37 1.32 0 0 .61.45 1.29-.02v.07s0 .07.03.08c.01.01.02.01.03.01h.57s.08-.03.09-.07l.35-2.18s-.01-.05-.02-.06c-.01-.02-.03-.03-.06-.03zm-.84 1.2c-.02.15-.09.29-.21.39a.703.703 0 0 1-.6.13.5.5 0 0 1-.35-.57c.02-.15.09-.29.21-.39.13-.09.28-.15.43-.15.06 0 .12.01.17.02a.5.5 0 0 1 .35.57M6.23 10H5.1s-.08.03-.09.08l-.5 3.17s.01.07.05.08c.01.01.02.01.03.01h.6s.08-.03.08-.07l.15-.93s.05-.08.09-.08h.54c.3 0 .6-.1.83-.3.24-.2.39-.47.44-.78.1-.62-.39-1.18-1.1-1.18zm-.24 1.56h-.44l.13-.84h.44c.36 0 .47.21.44.44-.03.23-.22.4-.57.4m6.84-.45-1.74 2.86s-.06.05-.09.05h-.7a.065.065 0 0 1-.02-.09l.56-.9-.62-1.92v-.03c0-.03.03-.06.07-.06h.62s.07.03.08.06l.35 1.14.68-1.15s.06-.05.1-.05h.67s.05.01.06.03c.01.02.01.05 0 .07zM14.42 10h-1.13s-.08.03-.09.08l-.5 3.17s.01.07.05.09h.62s.08-.03.09-.07l.15-.93s.05-.08.09-.08h.54c.3 0 .6-.1.83-.3.24-.2.39-.47.44-.78.1-.62-.39-1.18-1.1-1.18zm-.24 1.56h-.44l.13-.84h.44c.36 0 .47.21.44.44-.03.23-.22.4-.57.4m5.27-1.55s.07.05.07.09l-.51 3.18s-.04.07-.09.07h-.61c-.04 0-.07-.05-.07-.09l.51-3.18s.04-.08.09-.07z"/></svg>