<svg xmlns="http://www.w3.org/2000/svg" width="24" height="24" fill="none"><path fill="currentColor" d="M18.69 6.81c-.07-.05-.14-.08-.21-.12-.03-.36-.09-.72-.2-1.09-.08-.23-.19-.47-.31-.69-.87-1.63-2.67-2.65-4.7-2.65H7.71c-.63 0-1.16.45-1.26 1.07L4.27 16.8c-.01.07-.02.14-.02.19 0 .65.53 1.17 1.18 1.17h2.35l-.37 2.26c-.04.31.04.63.23.88s.46.41.77.44c.06 0 .12.02.17.02h2.78c.62 0 1.16-.46 1.26-1.07l.7-4.33h1.46c2.96 0 5.44-2.08 5.9-4.94.29-1.8-.48-3.57-2-4.6zM7.9 3.75h5.37c1.5 0 2.76.69 3.38 1.85.08.16.16.32.21.47.11.35.16.7.15 1.05v.02c0 .14-.02.29-.04.44-.02.1-.05.19-.07.29-.45 1.94-2.24 3.37-4.31 3.38h-2.58c-.18 0-.34.04-.5.11-.4.17-.7.52-.77.96l-.71 4.33H5.82l2.09-12.9zm11.31 7.42c-.34 2.13-2.2 3.68-4.42 3.68h-1.63c-.64 0-1.17.45-1.27 1.07l-.7 4.33H8.97l1.22-7.5h2.37c.36 0 .71-.03 1.05-.09.11-.02.22-.06.32-.08.23-.05.45-.1.67-.18.12-.04.24-.1.36-.15.19-.08.38-.16.55-.26.12-.07.23-.15.35-.22.16-.11.32-.21.48-.33.11-.09.21-.18.31-.28.14-.13.28-.26.4-.4l.27-.33c.12-.15.22-.3.33-.47.07-.12.14-.24.21-.37.09-.17.17-.35.24-.53.05-.13.1-.26.15-.4.02-.08.06-.15.08-.23.73.72 1.06 1.7.89 2.73z"/></svg>