<svg xmlns="http://www.w3.org/2000/svg" width="24" height="24" fill="none"><path fill="currentColor" d="m20.944 5.284-2.228-2.228a2.667 2.667 0 0 0-1.948-.806 2.73 2.73 0 0 0-1.945.81L2.469 15.471A.747.747 0 0 0 2.25 16v5c0 .414.336.75.75.75h5a.753.753 0 0 0 .529-.218L20.94 9.177a2.73 2.73 0 0 0 .811-1.945 2.728 2.728 0 0 0-.806-1.948ZM7.69 20.25H3.75v-3.94l8.993-9.034 3.982 3.981L7.69 20.25ZM19.882 8.114l-2.094 2.085-3.987-3.986 2.085-2.095c.236-.237.55-.367.885-.368h.001c.334 0 .648.13.885.366l2.228 2.228a1.247 1.247 0 0 1-.003 1.77Z"/></svg>