<svg xmlns="http://www.w3.org/2000/svg" width="24" height="24" fill="none"><path fill="currentColor" d="M8 16.75a.75.75 0 0 1-.53-1.281l8-8a.75.75 0 1 1 1.061 1.061l-8 8a.748.748 0 0 1-.531.22m8.75-2c0-1.103-.897-2-2-2s-2 .897-2 2 .897 2 2 2 2-.897 2-2m-1.5 0a.5.5 0 1 1-1 0 .5.5 0 0 1 1 0m-4-5.5c0-1.103-.897-2-2-2s-2 .897-2 2 .897 2 2 2 2-.897 2-2m-1.5 0a.5.5 0 1 1-1 0 .5.5 0 0 1 1 0m13 2.75c0-5.928-4.822-10.75-10.75-10.75S1.25 6.072 1.25 12 6.072 22.75 12 22.75 22.75 17.928 22.75 12m-1.5 0c0 5.101-4.149 9.25-9.25 9.25S2.75 17.101 2.75 12 6.899 2.75 12 2.75s9.25 4.149 9.25 9.25"/></svg>