<svg xmlns="http://www.w3.org/2000/svg" width="24" height="24" fill="none"><path fill="currentColor" d="M4 20.75a.75.75 0 0 1-.53-1.281l16-16a.75.75 0 1 1 1.061 1.061l-16 16a.748.748 0 0 1-.531.22m16.75-3.25a3.254 3.254 0 0 0-3.25-3.25 3.254 3.254 0 0 0-3.25 3.25 3.254 3.254 0 0 0 3.25 3.25 3.254 3.254 0 0 0 3.25-3.25m-1.5 0c0 .965-.785 1.75-1.75 1.75s-1.75-.785-1.75-1.75.785-1.75 1.75-1.75 1.75.785 1.75 1.75m-9.5-11A3.254 3.254 0 0 0 6.5 3.25 3.254 3.254 0 0 0 3.25 6.5 3.254 3.254 0 0 0 6.5 9.75 3.254 3.254 0 0 0 9.75 6.5m-1.5 0c0 .965-.785 1.75-1.75 1.75S4.75 7.465 4.75 6.5s.785-1.75 1.75-1.75 1.75.785 1.75 1.75"/></svg>