<svg xmlns="http://www.w3.org/2000/svg" width="24" height="24" fill="none"><path fill="currentColor" d="M8 15.25a.75.75 0 0 1-.53-1.281l8-8a.75.75 0 1 1 1.061 1.061l-8 8a.748.748 0 0 1-.531.22m8.75-2c0-1.103-.897-2-2-2s-2 .897-2 2 .897 2 2 2 2-.897 2-2m-1.5 0a.5.5 0 1 1-1 0 .5.5 0 0 1 1 0m-4-5.5c0-1.103-.897-2-2-2s-2 .897-2 2 .897 2 2 2 2-.897 2-2m-1.5 0a.5.5 0 1 1-1 0 .5.5 0 0 1 1 0m4.184 14.034 1.5-2a.922.922 0 0 1 .733-.367h1.5c2.633 0 4.083-1.45 4.083-4.083v-10c0-2.633-1.45-4.083-4.083-4.083H6.334c-2.633 0-4.083 1.45-4.083 4.083v10c0 2.633 1.45 4.083 4.083 4.083h1.5a.92.92 0 0 1 .733.367l1.5 2c.46.614 1.166.966 1.933.966a2.4 2.4 0 0 0 1.934-.966M17.667 2.75c1.811 0 2.583.772 2.583 2.583v10c0 1.811-.772 2.583-2.583 2.583h-1.5c-.757 0-1.479.362-1.933.967l-1.5 2c-.351.466-1.118.466-1.467 0l-1.5-2a2.428 2.428 0 0 0-1.933-.967h-1.5c-1.811 0-2.583-.772-2.583-2.583v-10c0-1.811.772-2.583 2.583-2.583z"/></svg>