<svg xmlns="http://www.w3.org/2000/svg" width="24" height="24" fill="none"><path fill="currentColor" d="m8.184 16.876 2.386-2.386.002-.001.001-.002L21.53 3.53a.75.75 0 1 0-1.061-1.061L10.059 12.88a10.616 10.616 0 0 1-1.575-2.376l1.133-.75c1.245-.835 1.621-2.486.857-3.755L8.912 3.354A2.26 2.26 0 0 0 6.52 2.295a5.37 5.37 0 0 0-3.492 2.441 5.135 5.135 0 0 0-.592 4.093 18.24 18.24 0 0 0 4.17 7.504L2.47 20.469a.75.75 0 0 0 1.06 1.061l4.64-4.64a.209.209 0 0 0 .015-.014ZM3.881 8.432a3.657 3.657 0 0 1 .425-2.91A3.86 3.86 0 0 1 6.83 3.765a.747.747 0 0 1 .793.357l1.563 2.645a1.292 1.292 0 0 1-.401 1.738l-1.66 1.1a.75.75 0 0 0-.278.915 12.232 12.232 0 0 0 2.156 3.417l-1.337 1.337A16.762 16.762 0 0 1 3.88 8.432Zm17.869 8.6c0 .152-.016.303-.046.451a5.337 5.337 0 0 1-2.421 3.483 5.188 5.188 0 0 1-2.734.787c-.459 0-.921-.062-1.378-.187a17.959 17.959 0 0 1-5.793-2.777.75.75 0 1 1 .883-1.213 16.453 16.453 0 0 0 5.309 2.544 3.67 3.67 0 0 0 2.925-.43 3.834 3.834 0 0 0 1.74-2.504.74.74 0 0 0 .016-.154.78.78 0 0 0-.377-.643l-2.637-1.573a1.302 1.302 0 0 0-1.746.397l-1.118 1.667a.747.747 0 0 1-.908.276 11.927 11.927 0 0 1-1.568-.789.75.75 0 1 1 .767-1.288c.271.161.543.308.815.441l.768-1.145a2.802 2.802 0 0 1 3.761-.845l2.646 1.579a2.284 2.284 0 0 1 1.096 1.923Z"/></svg>