<svg xmlns="http://www.w3.org/2000/svg" width="24" height="24" fill="none"><path fill="currentColor" d="m20.651 15.106-2.643-1.576a2.801 2.801 0 0 0-3.763.847l-.762 1.137a10.927 10.927 0 0 1-4.996-5.009l1.131-.752a2.8 2.8 0 0 0 .86-3.759L8.913 3.355a2.258 2.258 0 0 0-2.396-1.057A5.345 5.345 0 0 0 3.03 4.725a5.155 5.155 0 0 0-.596 4.109c1.693 6.161 6.575 11.039 12.74 12.731a5.19 5.19 0 0 0 1.376.187 5.18 5.18 0 0 0 2.73-.784 5.34 5.34 0 0 0 2.425-3.487 2.251 2.251 0 0 0-1.055-2.375Zm-.416 2.08a3.84 3.84 0 0 1-1.743 2.505c-.888.548-1.925.7-2.92.427-5.658-1.552-10.138-6.029-11.69-11.682a3.663 3.663 0 0 1 .426-2.924A3.848 3.848 0 0 1 6.83 3.765a.748.748 0 0 1 .793.354l1.563 2.639a1.3 1.3 0 0 1-.398 1.745l-1.66 1.105a.75.75 0 0 0-.278.913 12.412 12.412 0 0 0 6.614 6.629.752.752 0 0 0 .912-.274l1.115-1.665a1.302 1.302 0 0 1 1.75-.394l2.642 1.576a.753.753 0 0 1 .352.793ZM15.47 7.47 16.94 6l-1.47-1.47a.75.75 0 1 1 1.061-1.061l1.47 1.47 1.47-1.47a.75.75 0 1 1 1.061 1.061L19.062 6l1.47 1.47a.75.75 0 0 1-1.06 1.061l-1.47-1.47-1.47 1.47a.748.748 0 0 1-1.06 0 .748.748 0 0 1-.002-1.061Z"/></svg>