<svg xmlns="http://www.w3.org/2000/svg" width="24" height="24" fill="none"><path fill="currentColor" d="M20.145 16.75c-.175 0-.352-.021-.526-.065l-2.728-.7a2.637 2.637 0 0 1-1.93-3.077l.118-.579a10.68 10.68 0 0 0-6.13-.002l.115.59a2.636 2.636 0 0 1-1.94 3.062l-2.742.694A2.145 2.145 0 0 1 2.09 15.8c-.787-1.181-1.035-2.7-.684-4.171.333-1.393 1.181-2.563 2.326-3.209a16.833 16.833 0 0 1 4.103-1.648 16.718 16.718 0 0 1 12.427 1.661c1.15.651 2.002 1.829 2.336 3.232.349 1.463.104 2.969-.673 4.133a2.13 2.13 0 0 1-1.779.952Zm-8.128-6.372c1.423 0 2.842.249 4.19.747.346.128.548.49.475.853l-.249 1.228c-.12.593.245 1.176.83 1.326l2.725.699a.624.624 0 0 0 .682-.257c.553-.827.72-1.903.469-2.962-.238-.999-.827-1.827-1.615-2.273A15.226 15.226 0 0 0 8.207 8.226 15.325 15.325 0 0 0 4.47 9.727c-.783.442-1.367 1.262-1.604 2.251-.252 1.051-.076 2.167.47 2.986a.633.633 0 0 0 .683.254l2.74-.693c.584-.148.951-.728.835-1.32l-.242-1.238a.753.753 0 0 1 .48-.849 12.226 12.226 0 0 1 4.185-.74Z"/></svg>