<svg xmlns="http://www.w3.org/2000/svg" width="24" height="24" fill="none"><path fill="currentColor" d="M22.612 15.7c-.317-1.417-1.156-2.604-2.301-3.255-5.102-2.901-11.215-2.947-16.355-.124a5.234 5.234 0 0 0-2.557 3.339 5.22 5.22 0 0 0 .739 4.142 2.128 2.128 0 0 0 2.297.881l2.724-.697a2.631 2.631 0 0 0 1.926-3.069l-.233-1.161a9.964 9.964 0 0 1 6.341-.008l-.232 1.176a2.625 2.625 0 0 0 1.931 3.058l2.739.693c.849.214 1.743-.103 2.226-.788.816-1.162 1.091-2.688.755-4.187Zm-1.983 3.323c-.126.178-.384.259-.632.197l-2.739-.693a1.127 1.127 0 0 1-.827-1.312l.356-1.801a.75.75 0 0 0-.451-.84 11.448 11.448 0 0 0-8.631.01.75.75 0 0 0-.45.842l.359 1.787a1.131 1.131 0 0 1-.826 1.321l-2.724.697a.633.633 0 0 1-.688-.274 3.668 3.668 0 0 1-.521-2.941 3.723 3.723 0 0 1 1.822-2.379 15.224 15.224 0 0 1 7.345-1.899c2.596 0 5.19.671 7.546 2.011.778.443 1.354 1.273 1.579 2.279.242 1.071.047 2.191-.518 2.995ZM6.249 7V4a.75.75 0 0 1 .465-.693.75.75 0 0 1 .287-.058h3a.75.75 0 0 1 0 1.5H8.812l2.306 2.306a1.252 1.252 0 0 0 1.768 0l3.586-3.586a.75.75 0 1 1 1.06 1.061l-3.585 3.586a2.74 2.74 0 0 1-1.944.804 2.74 2.74 0 0 1-1.944-.804L7.753 5.81V7A.75.75 0 0 1 6.25 7Z"/></svg>