<svg xmlns="http://www.w3.org/2000/svg" width="24" height="24" fill="none"><path fill="currentColor" d="M16.552 21.752c-.459 0-.92-.062-1.377-.187C9.011 19.873 4.13 14.995 2.436 8.834a5.15 5.15 0 0 1 .596-4.109 5.342 5.342 0 0 1 3.487-2.427 2.259 2.259 0 0 1 2.396 1.057l1.563 2.639a2.8 2.8 0 0 1-.859 3.759l-1.13.752a10.926 10.926 0 0 0 4.995 5.009l.762-1.137a2.8 2.8 0 0 1 3.763-.847l2.643 1.576a2.254 2.254 0 0 1 1.055 2.375 5.34 5.34 0 0 1-2.426 3.487 5.182 5.182 0 0 1-2.729.784ZM6.978 3.75a.726.726 0 0 0-.147.015 3.843 3.843 0 0 0-2.52 1.747c-.55.89-.7 1.929-.427 2.924 1.553 5.654 6.032 10.13 11.688 11.682a3.663 3.663 0 0 0 2.921-.427 3.838 3.838 0 0 0 1.743-2.505.752.752 0 0 0-.352-.792l-2.643-1.576a1.301 1.301 0 0 0-1.749.394l-1.115 1.665a.751.751 0 0 1-.912.274 12.412 12.412 0 0 1-6.614-6.629.751.751 0 0 1 .277-.913l1.661-1.105a1.3 1.3 0 0 0 .398-1.745L7.624 4.12a.75.75 0 0 0-.646-.37Zm7.891 11.044h.01-.01Zm4.881-5.409a.75.75 0 0 0-.75-.75h-1.913c.399-.406.881-.892 1.422-1.434 1.158-1.162 1.298-2.779.323-3.761-.626-.632-1.469-.912-2.32-.768-.834.142-1.54.664-1.89 1.396a.75.75 0 0 0 1.355.645c.137-.287.438-.503.786-.562.257-.044.641-.02 1.004.345.381.385.246 1.077-.32 1.646a364.64 364.64 0 0 0-2.686 2.72.747.747 0 0 0-.152.815.75.75 0 0 0 .69.458H19a.75.75 0 0 0 .751-.75Z"/></svg>