<svg xmlns="http://www.w3.org/2000/svg" width="24" height="24" fill="none"><path fill="currentColor" d="M21.75 7.978a5.69 5.69 0 0 0-1.678-4.05 5.69 5.69 0 0 0-4.05-1.678c-1.53 0-2.969.596-4.05 1.678l-8.045 8.045a5.69 5.69 0 0 0-1.678 4.05 5.69 5.69 0 0 0 1.678 4.05 5.688 5.688 0 0 0 4.05 1.678c1.53 0 2.969-.596 4.05-1.678l4.011-4.011c.01-.009.022-.012.032-.021.01-.009.012-.022.02-.032l3.982-3.98a5.692 5.692 0 0 0 1.678-4.051M10.967 19.012a4.202 4.202 0 0 1-2.989 1.238c-1.129 0-2.19-.44-2.989-1.238a4.198 4.198 0 0 1-1.238-2.99c0-1.128.439-2.19 1.238-2.988l3.507-3.507 5.979 5.978zm4.568-4.568L9.556 8.466l3.477-3.477a4.202 4.202 0 0 1 2.989-1.238c1.129 0 2.19.44 2.989 1.238a4.198 4.198 0 0 1 1.238 2.989c0 1.129-.439 2.19-1.238 2.989zm-7.411-2.176a.75.75 0 0 1 0 1.061l-.76.76a3.106 3.106 0 0 0-.895 2.506.75.75 0 1 1-1.492.147 4.592 4.592 0 0 1 1.326-3.714l.76-.76a.75.75 0 0 1 1.061 0"/></svg>