<svg xmlns="http://www.w3.org/2000/svg" width="24" height="24" fill="none"><path fill="currentColor" d="M19 16.25c-1.52 0-2.75 1.23-2.75 2.75s1.23 2.75 2.75 2.75 2.75-1.23 2.75-2.75-1.23-2.75-2.75-2.75Zm0 4a1.25 1.25 0 1 1 0-2.5 1.25 1.25 0 0 1 0 2.5Zm-4.82-3.45c1.09-.09 2.02-.47 3.49-1.94l.98-.97c1.43-1.43 2.15-3.13 2.1-4.93-.05-1.67-.8-3.31-2.1-4.62-1.3-1.3-2.94-2.05-4.62-2.1-1.81-.05-3.5.67-4.93 2.1l-.96.97C6.67 6.78 6.29 7.71 6.2 8.79v.05c-.02.3-.03.61-.03.95v.28c0 .6.08 1.21.25 1.81.22.78.03 1.58-.49 2.1L2.6 17.31a1.22 1.22 0 0 0 0 1.73l1.34 1.34c.24.24.55.36.86.36.31 0 .63-.12.86-.36l3.33-3.33c.52-.52 1.32-.71 2.1-.49.6.16 1.2.25 1.81.25h.28c.34 0 .65 0 .95-.03h.04l.01.02ZM9.21 6.39l.96-.97c1.13-1.13 2.46-1.7 3.82-1.66 1.29.04 2.57.63 3.6 1.66 1.03 1.03 1.62 2.31 1.66 3.6.04 1.37-.53 2.69-1.66 3.82l-.98.97c-.97.97-1.57 1.33-2.2 1.46L7.74 8.6c.13-.63.49-1.22 1.46-2.2l.01-.01Zm-1.27 9.62-3.13 3.13-.94-.94L7 15.07c.9-.9 1.24-2.27.87-3.56a4.66 4.66 0 0 1-.15-.83l4.61 4.61c-.28-.03-.55-.08-.83-.15-1.3-.36-2.66-.03-3.56.87Z"/></svg>