<svg xmlns="http://www.w3.org/2000/svg" width="24" height="24" fill="none"><path fill="currentColor" d="M20.99 3.01c-.68-.68-1.68-.93-2.6-.64L4.29 6.76c-.78.24-1.42.8-1.77 1.54-.35.75-.37 1.62-.04 2.39 1.02 2.42 2.48 4.6 4.36 6.48 1.88 1.88 4.05 3.34 6.48 4.35a2.98 2.98 0 0 0 2.39-.04c.74-.34 1.3-.99 1.54-1.77l4.39-14.1c.29-.92.04-1.92-.64-2.6zm-5.92 17.1c-.37.17-.79.18-1.17.02-2.24-.94-4.26-2.3-6-4.03a18.603 18.603 0 0 1-4.03-5.99c-.16-.38-.15-.81.02-1.18.17-.36.47-.63.85-.74l.27-.08c.82 2.54 2.24 4.86 4.14 6.76 1.9 1.9 4.22 3.31 6.76 4.14l-.08.26c-.12.38-.38.68-.75.85zM20.2 5.16l-3.86 12.4a15.41 15.41 0 0 1-6.14-3.77 15.389 15.389 0 0 1-3.76-6.14l12.4-3.86a1.092 1.092 0 0 1 1.37 1.37zm-7.93 3.83a1.25 1.25 0 1 1-2.5 0 1.25 1.25 0 0 1 2.5 0m3.75 4c0 .55-.45 1-1 1s-1-.45-1-1 .44-1 1-1c.55 0 1 .45 1 1m.75-5a.749.749 0 1 1-1.5 0 .749.749 0 1 1 1.5 0"/></svg>