<svg xmlns="http://www.w3.org/2000/svg" width="24" height="24" fill="none"><path fill="currentColor" d="M5.28 11.57v6.93c0 .41-.34.75-.75.75s-.75-.34-.75-.75v-6.93a3.27 3.27 0 0 1-2.53-3.18V5.5c0-.41.34-.75.75-.75s.75.34.75.75v2.89c0 .71.42 1.32 1.03 1.61V5.51c0-.41.34-.75.75-.75s.75.34.75.75V10c.61-.28 1.03-.89 1.03-1.61V5.5c0-.41.34-.75.75-.75s.75.34.75.75v2.89a3.27 3.27 0 0 1-2.53 3.18M22.75 5v14c0 .41-.34.75-.75.75s-.75-.34-.75-.75v-4.25h-2.36c-.63 0-1.14-.51-1.14-1.14V9.67c0-5.35 4.21-5.42 4.25-5.42.41 0 .75.34.75.75m-1.5.9c-.82.3-2 1.17-2 3.77v3.58h2zm-4.13 9.67A6.225 6.225 0 0 1 12 18.25c-2.04 0-3.96-1-5.11-2.67a.742.742 0 0 0-1.04-.19c-.34.23-.43.7-.19 1.04a7.698 7.698 0 0 0 6.35 3.33 7.72 7.72 0 0 0 6.36-3.32c.24-.34.15-.81-.19-1.04a.742.742 0 0 0-1.04.19zm-7.8-9.22c.83-.4 1.73-.61 2.67-.61 1.64 0 3.19.63 4.36 1.78.15.14.34.22.53.22s.39-.07.53-.22c.29-.3.29-.77 0-1.06a7.682 7.682 0 0 0-5.42-2.22c-1.17 0-2.29.25-3.33.75-.37.18-.53.63-.35 1 .18.37.63.53 1 .35zm2.67 1.39a4.26 4.26 0 0 1 4.25 4.25 4.26 4.26 0 0 1-4.25 4.25 4.26 4.26 0 0 1-4.25-4.25 4.26 4.26 0 0 1 4.25-4.25m0 1.5c-1.52 0-2.75 1.23-2.75 2.75s1.23 2.75 2.75 2.75 2.75-1.23 2.75-2.75-1.23-2.75-2.75-2.75"/></svg>