<svg xmlns="http://www.w3.org/2000/svg" width="24" height="24" fill="none"><path fill="currentColor" d="M17.625 21.75H6.375c-2.66 0-4.125-1.465-4.125-4.125V6.375c0-2.66 1.465-4.125 4.125-4.125h11.25c2.66 0 4.125 1.465 4.125 4.125v11.25c0 2.66-1.465 4.125-4.125 4.125m-11.25-18c-1.84 0-2.625.785-2.625 2.625v11.25c0 1.84.785 2.625 2.625 2.625h11.25c1.84 0 2.625-.785 2.625-2.625V6.375c0-1.84-.785-2.625-2.625-2.625zm3.908 13.002c-.35 0-.7-.09-1.023-.271a2.058 2.058 0 0 1-1.065-1.817V9.336c0-.764.398-1.443 1.065-1.817a2.064 2.064 0 0 1 2.113.041l4.48 2.74c.596.366.953 1.001.953 1.701 0 .7-.357 1.335-.954 1.7l-4.479 2.74a2.086 2.086 0 0 1-1.09.311m.002-8.002a.6.6 0 0 0-.292.078.57.57 0 0 0-.299.508v5.328a.57.57 0 0 0 .299.508c.091.051.33.153.597-.011l4.479-2.74a.486.486 0 0 0 .237-.421.484.484 0 0 0-.237-.42L10.59 8.84a.566.566 0 0 0-.305-.09"/></svg>