<svg xmlns="http://www.w3.org/2000/svg" width="24" height="24" fill="none"><path fill="currentColor" d="M4.99 18.747a2.88 2.88 0 0 1-1.422-.375 2.712 2.712 0 0 1-1.397-2.375V8.005A2.71 2.71 0 0 1 3.568 5.63a2.88 2.88 0 0 1 2.887.025l6.928 4.11a2.584 2.584 0 0 1 0 4.472l-6.928 4.11c-.45.266-.957.4-1.465.4Zm0-11.997c-.232 0-.466.061-.68.183-.406.231-.64.622-.64 1.072v7.992c0 .45.233.84.64 1.072.436.248.951.243 1.379-.012l6.928-4.11a1.083 1.083 0 0 0 0-1.892l-6.928-4.11a1.348 1.348 0 0 0-.699-.195ZM17.671 17.5v-11a.75.75 0 0 0-1.5 0v11a.75.75 0 0 0 1.5 0Zm4 0v-11a.75.75 0 0 0-1.5 0v11a.75.75 0 0 0 1.5 0Z"/></svg>