<svg xmlns="http://www.w3.org/2000/svg" width="24" height="24" fill="none"><path fill="currentColor" d="M14.75 11a.75.75 0 0 1-.75.75h-4a.75.75 0 0 1 0-1.5h4a.75.75 0 0 1 .75.75m5-3.25v3.593c0 1.25-.507 2.474-1.392 3.358l-3.389 3.39a.755.755 0 0 0-.22.53V21a.75.75 0 0 1-.75.75h-4a.75.75 0 0 1-.75-.75v-2.379a.753.753 0 0 0-.22-.53l-3.39-3.39a4.778 4.778 0 0 1-1.391-3.357V7.751c0-.827.673-1.5 1.5-1.5h2V3a.75.75 0 0 1 1.5 0v3.25h5.5V3a.75.75 0 0 1 1.5 0v3.25h2c.829 0 1.502.673 1.502 1.5m-1.5 0H5.75v3.593c0 .855.347 1.693.952 2.298l3.39 3.389c.418.419.658 1 .658 1.591v1.629h2.5v-1.629c0-.592.24-1.172.659-1.591l3.39-3.389a3.273 3.273 0 0 0 .951-2.298z"/></svg>