<svg xmlns="http://www.w3.org/2000/svg" width="24" height="24" fill="none"><path fill="currentColor" d="M17.625 21.75H6.375c-2.66 0-4.125-1.465-4.125-4.125V6.375c0-2.66 1.465-4.125 4.125-4.125h11.25c2.66 0 4.125 1.465 4.125 4.125v11.25c0 2.66-1.465 4.125-4.125 4.125m-11.25-18c-1.84 0-2.625.785-2.625 2.625v11.25c0 1.84.785 2.625 2.625 2.625h11.25c1.84 0 2.625-.785 2.625-2.625V6.375c0-1.84-.785-2.625-2.625-2.625zM8.75 16v-5a.75.75 0 0 0-1.5 0v5a.75.75 0 0 0 1.5 0m4 0V8a.75.75 0 0 0-1.5 0v8a.75.75 0 0 0 1.5 0m4 0v-3a.75.75 0 0 0-1.5 0v3a.75.75 0 0 0 1.5 0"/></svg>