<svg xmlns="http://www.w3.org/2000/svg" width="24" height="24" fill="none"><path fill="currentColor" d="M12 2.25C8.83 2.25 6.25 4.83 6.25 8v6.5c0 1.24 1.01 2.25 2.25 2.25h2.75V21c0 .41.34.75.75.75s.75-.34.75-.75v-4.25h2.75c1.24 0 2.25-1.01 2.25-2.25V8c0-3.17-2.58-5.75-5.75-5.75Zm4.25 12.25c0 .41-.34.75-.75.75h-7c-.41 0-.75-.34-.75-.75V8A4.26 4.26 0 0 1 12 3.75 4.26 4.26 0 0 1 16.25 8v6.5Zm-2-7.5v6c0 .41-.34.75-.75.75s-.75-.34-.75-.75V7c0-.41.34-.75.75-.75s.75.34.75.75Zm-3 0v6c0 .41-.34.75-.75.75s-.75-.34-.75-.75V7c0-.41.34-.75.75-.75s.75.34.75.75Z"/></svg>