<svg xmlns="http://www.w3.org/2000/svg" width="24" height="24" fill="none"><path fill="currentColor" d="M17.625 21.75H6.375c-2.66 0-4.125-1.465-4.125-4.125V6.375c0-2.66 1.465-4.125 4.125-4.125h11.25c2.66 0 4.125 1.465 4.125 4.125v11.25c0 2.66-1.465 4.125-4.125 4.125m-11.25-18c-1.84 0-2.625.785-2.625 2.625v11.25c0 1.84.785 2.625 2.625 2.625h11.25c1.84 0 2.625-.785 2.625-2.625V6.375c0-1.84-.785-2.625-2.625-2.625zM12 12.194a.75.75 0 0 1-.75-.75V7a.75.75 0 0 1 1.5 0v4.444a.75.75 0 0 1-.75.75m0 5.556a5.2 5.2 0 0 1-5.194-5.194c0-1.384.542-2.688 1.526-3.673a.751.751 0 0 1 1.061 1.061 3.673 3.673 0 0 0-1.087 2.612A3.698 3.698 0 0 0 12 16.25a3.698 3.698 0 0 0 3.694-3.694c0-.983-.386-1.91-1.087-2.612a.75.75 0 1 1 1.061-1.06 5.165 5.165 0 0 1 1.526 3.672A5.2 5.2 0 0 1 12 17.75"/></svg>