<svg xmlns="http://www.w3.org/2000/svg" width="24" height="24" fill="none"><path fill="currentColor" d="M12 1.25C6.072 1.25 1.25 6.072 1.25 12S6.072 22.75 12 22.75 22.75 17.928 22.75 12 17.928 1.25 12 1.25m0 20c-5.101 0-9.25-4.149-9.25-9.25S6.899 2.75 12 2.75s9.25 4.149 9.25 9.25-4.149 9.25-9.25 9.25m-.75-10.306V6.5a.75.75 0 0 1 1.5 0v4.444a.75.75 0 0 1-1.5 0m4.418-2.56a5.165 5.165 0 0 1 1.526 3.672A5.2 5.2 0 0 1 12 17.25a5.2 5.2 0 0 1-5.194-5.194c0-1.384.542-2.688 1.526-3.673a.75.75 0 1 1 1.061 1.061 3.673 3.673 0 0 0-1.087 2.612A3.698 3.698 0 0 0 12 15.75a3.698 3.698 0 0 0 3.694-3.694c0-.983-.386-1.91-1.087-2.612a.75.75 0 1 1 1.061-1.06"/></svg>