<svg xmlns="http://www.w3.org/2000/svg" width="24" height="24" fill="none"><path fill="currentColor" d="M21 2.25H3a.75.75 0 0 0 0 1.5h.75V13c0 2.418 1.332 3.75 3.75 3.75h3.75v1.849l-2.666 1.777a.75.75 0 1 0 .832 1.248L12 19.901l2.584 1.723a.748.748 0 0 0 1.041-.208.75.75 0 0 0-.208-1.04l-2.666-1.777V16.75h3.75c2.418 0 3.75-1.332 3.75-3.75V3.75H21a.75.75 0 0 0 0-1.5M18.75 13c0 1.577-.673 2.25-2.25 2.25h-9c-1.577 0-2.25-.673-2.25-2.25V3.75h13.5zM7.25 8A.75.75 0 0 1 8 7.25h8a.75.75 0 0 1 0 1.5H8A.75.75 0 0 1 7.25 8m0 3a.75.75 0 0 1 .75-.75h4a.75.75 0 0 1 0 1.5H8a.75.75 0 0 1-.75-.75"/></svg>