<svg xmlns="http://www.w3.org/2000/svg" width="24" height="24" fill="none"><path fill="currentColor" d="M21 2.25H3a.75.75 0 0 0 0 1.5h.75V13c0 2.418 1.332 3.75 3.75 3.75h3.75v1.849l-2.666 1.777a.75.75 0 1 0 .832 1.248L12 19.901l2.584 1.723a.748.748 0 0 0 1.041-.208.75.75 0 0 0-.208-1.04l-2.666-1.777V16.75h3.75c2.418 0 3.75-1.332 3.75-3.75V3.75H21a.75.75 0 0 0 0-1.5M18.75 13c0 1.577-.673 2.25-2.25 2.25h-9c-1.577 0-2.25-.673-2.25-2.25V3.75h13.5zm-11-3.31c0-1.388.69-2.656 1.847-3.393a.75.75 0 0 1 .806 1.266A2.502 2.502 0 0 0 9.25 9.69a2.558 2.558 0 0 0 2.55 2.56 2.53 2.53 0 0 0 2.131-1.158.75.75 0 0 1 1.259.815 4.024 4.024 0 0 1-3.39 1.842 4.058 4.058 0 0 1-4.05-4.06Zm4.893.501h2.274a1.332 1.332 0 0 0 1.306-1.601 4.236 4.236 0 0 0-3.311-3.314h-.001a1.328 1.328 0 0 0-1.109.275 1.33 1.33 0 0 0-.491 1.034v2.272a1.335 1.335 0 0 0 1.332 1.334m.169-3.396a2.742 2.742 0 0 1 1.894 1.896h-1.894z"/></svg>