<svg xmlns="http://www.w3.org/2000/svg" width="24" height="24" fill="none"><path fill="currentColor" d="M21 2.25H3a.75.75 0 0 0 0 1.5h.75V13c0 2.418 1.332 3.75 3.75 3.75h3.75v1.849l-2.666 1.777a.75.75 0 1 0 .832 1.248L12 19.901l2.584 1.723a.748.748 0 0 0 1.041-.208.75.75 0 0 0-.208-1.04l-2.666-1.777V16.75h3.75c2.418 0 3.75-1.332 3.75-3.75V3.75H21a.75.75 0 0 0 0-1.5ZM18.75 13c0 1.577-.673 2.25-2.25 2.25h-9c-1.577 0-2.25-.673-2.25-2.25V3.75h13.5V13ZM8 14.25h2.222a.753.753 0 0 0 .529-.218l5.516-5.491c.311-.309.482-.721.482-1.16 0-.439-.17-.851-.48-1.161l-.99-.99c-.31-.31-.721-.48-1.159-.48h-.002a1.63 1.63 0 0 0-1.16.482l-5.491 5.516a.75.75 0 0 0-.218.529v2.222A.752.752 0 0 0 8 14.25Zm6.121-8c-.005-.009.064.006.099.041l.99.99a.136.136 0 0 1 .041.099.133.133 0 0 1-.041.098l-.636.633-1.184-1.184.633-.636a.133.133 0 0 1 .098-.041ZM8.75 11.587l3.581-3.597 1.179 1.179-3.597 3.581H8.75v-1.163Z"/></svg>