<svg xmlns="http://www.w3.org/2000/svg" width="24" height="24" fill="none"><path fill="currentColor" d="M21 2.25H3a.75.75 0 0 0 0 1.5h.75V13c0 2.418 1.332 3.75 3.75 3.75h3.75v1.849l-2.666 1.777a.75.75 0 1 0 .832 1.248L12 19.901l2.584 1.723a.748.748 0 0 0 1.041-.208.75.75 0 0 0-.208-1.04l-2.666-1.777V16.75h3.75c2.418 0 3.75-1.332 3.75-3.75V3.75H21a.75.75 0 0 0 0-1.5M18.75 13c0 1.577-.673 2.25-2.25 2.25h-9c-1.577 0-2.25-.673-2.25-2.25V3.75h13.5zm-6.744-3.45c1.323 0 2.4-1.077 2.4-2.4s-1.077-2.4-2.4-2.4a2.403 2.403 0 0 0-2.4 2.4c0 1.323 1.077 2.4 2.4 2.4m0-3.3c.496 0 .9.404.9.9s-.404.9-.9.9a.9.9 0 0 1 0-1.8M8.25 13.5v-.303c0-1.464 1.067-2.947 3.108-2.947h1.284c2.041 0 3.108 1.482 3.108 2.947v.303a.75.75 0 0 1-1.5 0v-.303c0-.72-.497-1.447-1.608-1.447h-1.284c-1.111 0-1.608.727-1.608 1.447v.303a.75.75 0 0 1-1.5 0"/></svg>