<svg xmlns="http://www.w3.org/2000/svg" width="24" height="24" fill="none"><path fill="currentColor" d="M21 2.25H3a.75.75 0 0 0 0 1.5h.75V13c0 2.418 1.332 3.75 3.75 3.75h3.75v1.849l-2.666 1.777a.75.75 0 1 0 .832 1.248L12 19.901l2.584 1.723a.748.748 0 0 0 1.041-.208.75.75 0 0 0-.208-1.04l-2.666-1.777V16.75h3.75c2.418 0 3.75-1.332 3.75-3.75V3.75H21a.75.75 0 0 0 0-1.5M18.75 13c0 1.577-.673 2.25-2.25 2.25h-9c-1.577 0-2.25-.673-2.25-2.25V3.75h13.5zm-8.789-1.557c.142.475.593.807 1.096.807h1.878c.51 0 .95-.324 1.096-.806.092-.304.204-.488.255-.534a3.439 3.439 0 0 0 1.07-3.077c-.223-1.443-1.399-2.594-2.86-2.798a3.42 3.42 0 0 0-2.725.798 3.397 3.397 0 0 0-1.167 2.564c0 .956.402 1.867 1.084 2.48.056.055.18.257.273.566m.793-4.478c.42-.366.967-.523 1.533-.445.798.112 1.465.76 1.586 1.542.103.666-.116 1.3-.596 1.738-.281.255-.471.624-.594.95h-1.375c-.114-.3-.304-.685-.598-.969a1.861 1.861 0 0 1-.607-1.384c.001-.55.238-1.073.651-1.432m2.996 6.285A.75.75 0 0 1 13 14h-2a.75.75 0 0 1 0-1.5h2a.75.75 0 0 1 .75.75"/></svg>