<svg xmlns="http://www.w3.org/2000/svg" width="24" height="24" fill="none"><path fill="currentColor" d="M21 2.25H3a.75.75 0 0 0 0 1.5h.75V13c0 2.418 1.332 3.75 3.75 3.75h3.75v1.849l-2.666 1.777a.75.75 0 1 0 .832 1.248L12 19.901l2.584 1.723a.748.748 0 0 0 1.041-.208.75.75 0 0 0-.208-1.04l-2.666-1.777V16.75h3.75c2.418 0 3.75-1.332 3.75-3.75V3.75H21a.75.75 0 0 0 0-1.5M18.75 13c0 1.577-.673 2.25-2.25 2.25h-9c-1.577 0-2.25-.673-2.25-2.25V3.75h13.5zM7.47 11.63a.75.75 0 0 1 0-1.061l2.232-2.232a1.552 1.552 0 0 1 2.191 0l1.271 1.268L15.47 7.37a.75.75 0 1 1 1.061 1.061l-2.235 2.235a1.55 1.55 0 0 1-2.19.002l-1.271-1.269-2.303 2.232a.748.748 0 0 1-1.062-.001"/></svg>