<svg xmlns="http://www.w3.org/2000/svg" width="24" height="24" fill="none"><path fill="currentColor" d="M18 6.25h-.25V5a.747.747 0 0 0-.22-.53l-2-2a.749.749 0 0 0-.53-.22H8c-.965 0-1.75.785-1.75 1.75v2.25H6c-2.418 0-3.75 1.332-3.75 3.75v5.5c0 1.241 1.01 2.25 2.25 2.25h1.75V20c0 .965.785 1.75 1.75 1.75h8c.965 0 1.75-.785 1.75-1.75v-2.25h1.75c1.24 0 2.25-1.009 2.25-2.25V10c0-2.418-1.332-3.75-3.75-3.75M7.75 4A.25.25 0 0 1 8 3.75h6.689l1.561 1.561v.939h-8.5zm8.5 16a.25.25 0 0 1-.25.25H8a.25.25 0 0 1-.25-.25v-4.25h8.5zm4-4.5a.75.75 0 0 1-.75.75h-1.75V15a.75.75 0 0 0-.75-.75H7a.75.75 0 0 0-.75.75v1.25H4.5a.75.75 0 0 1-.75-.75V10c0-1.577.673-2.25 2.25-2.25h12c1.577 0 2.25.673 2.25 2.25zM18 11a1 1 0 1 1-2 0 1 1 0 0 1 2 0"/></svg>