<svg xmlns="http://www.w3.org/2000/svg" width="24" height="24" fill="none"><path fill="currentColor" d="M19.5 4.25h-5c-1.24 0-2.25 1.01-2.25 2.25v5c0 1.24 1.01 2.25 2.25 2.25h1.29l-2.1 4.19c-.19.39-.17.84.06 1.22s.63.59 1.06.59h2.57c.67 0 1.27-.37 1.57-.97l2.57-5.13c.16-.31.24-.66.24-1.01V6.49c0-1.24-1.01-2.25-2.25-2.25zm.75 8.4c0 .12-.03.23-.08.34l-2.57 5.13a.24.24 0 0 1-.22.14h-2.17l2.46-4.91c.12-.23.1-.51-.03-.73a.764.764 0 0 0-.64-.36h-2.5c-.41 0-.75-.34-.75-.75v-5c0-.41.34-.75.75-.75h5c.41 0 .75.34.75.75v6.15zM9.5 4.25h-5c-1.24 0-2.25 1.01-2.25 2.25v5c0 1.24 1.01 2.25 2.25 2.25h1.29l-2.1 4.19c-.19.39-.17.84.06 1.22s.63.59 1.06.59h2.57c.67 0 1.27-.37 1.57-.97l2.57-5.13c.16-.31.24-.66.24-1.01V6.49c0-1.24-1.01-2.25-2.25-2.25zm.75 8.4c0 .12-.03.23-.08.34L7.6 18.12a.24.24 0 0 1-.22.14H5.21l2.46-4.91c.12-.23.1-.51-.03-.73a.764.764 0 0 0-.64-.36H4.5c-.41 0-.75-.34-.75-.75v-5c0-.41.34-.75.75-.75h5c.41 0 .75.34.75.75v6.15z"/></svg>