<svg xmlns="http://www.w3.org/2000/svg" width="24" height="24" fill="none"><path fill="currentColor" d="M21.75 12c0 5.376-4.374 9.75-9.75 9.75S2.25 17.376 2.25 12c0-2.357.835-4.576 2.354-6.336L3.47 4.53a.75.75 0 1 1 1.061-1.061L6.172 5.11l.001.001.001.001 5.445 5.445c.125-.034.255-.058.391-.058h.01a1.5 1.5 0 1 1 0 3 1.504 1.504 0 0 1-1.505-1.5c0-.129.021-.253.052-.373L8.16 9.22a4.738 4.738 0 0 0-.91 2.779 4.756 4.756 0 0 0 8.117 3.361A4.758 4.758 0 0 0 12 7.25a.75.75 0 0 1 0-1.5 6.257 6.257 0 0 1 4.427 10.67A6.257 6.257 0 0 1 5.75 12c0-1.412.471-2.755 1.332-3.857L5.664 6.724A8.15 8.15 0 0 0 3.749 12c0 4.549 3.701 8.25 8.25 8.25 4.549 0 8.25-3.701 8.25-8.25 0-4.549-3.701-8.25-8.25-8.25a.75.75 0 0 1 0-1.5c5.377 0 9.751 4.374 9.751 9.75Z"/></svg>