<svg xmlns="http://www.w3.org/2000/svg" width="24" height="24" fill="none"><path fill="currentColor" d="M18 6.25h-6.378l4.616-1.54a.751.751 0 0 0 .475-.948.748.748 0 0 0-.95-.474L6.88 6.25H6c-2.418 0-3.75 1.332-3.75 3.75v7c0 2.418 1.332 3.75 3.75 3.75h12c2.418 0 3.75-1.332 3.75-3.75v-7c0-2.417-1.332-3.749-3.75-3.749ZM20.25 17c0 1.577-.673 2.25-2.25 2.25H6c-1.577 0-2.25-.673-2.25-2.25v-7c0-1.577.673-2.25 2.25-2.25h12c1.577 0 2.25.673 2.25 2.25v7ZM8.5 10.25a3.254 3.254 0 0 0-3.25 3.25 3.254 3.254 0 0 0 3.25 3.25 3.254 3.254 0 0 0 3.25-3.25 3.254 3.254 0 0 0-3.25-3.25Zm0 5c-.965 0-1.75-.785-1.75-1.75s.785-1.75 1.75-1.75 1.75.785 1.75 1.75-.785 1.75-1.75 1.75ZM18.75 12a.75.75 0 0 1-.75.75h-4a.75.75 0 0 1 0-1.5h4a.75.75 0 0 1 .75.75Zm0 3a.75.75 0 0 1-.75.75h-4a.75.75 0 0 1 0-1.5h4a.75.75 0 0 1 .75.75Z"/></svg>