<svg xmlns="http://www.w3.org/2000/svg" width="24" height="24" fill="none"><path fill="currentColor" d="M19.5 15.25h-3c-.275 0-.521.041-.75.103V12.5c0-1.409-.841-2.25-2.25-2.25h-3c-1.409 0-2.25.841-2.25 2.25v.853a2.831 2.831 0 0 0-.75-.103h-3c-1.409 0-2.25.841-2.25 2.25V21c0 .414.336.75.75.75h18a.75.75 0 0 0 .75-.75v-3.5c0-1.409-.841-2.25-2.25-2.25m-15.75.25c0-.589.161-.75.75-.75h3c.589 0 .75.161.75.75v4.75h-4.5zm6 0v-3c0-.589.161-.75.75-.75h3c.589 0 .75.161.75.75v7.75h-4.5zm10.5 4.75h-4.5V17.5c0-.589.161-.75.75-.75h3c.589 0 .75.161.75.75zM9.501 6.904 9.292 8.12c-.072.417.096.832.438 1.082a1.1 1.1 0 0 0 1.167.086L12 8.711l1.104.578a1.111 1.111 0 0 0 1.166-.086 1.1 1.1 0 0 0 .439-1.082l-.21-1.218.922-.895c.298-.29.404-.715.276-1.111a1.076 1.076 0 0 0-.875-.738l-1.279-.185-.55-1.11A1.1 1.1 0 0 0 12 2.248a1.1 1.1 0 0 0-.993.616l-.55 1.11-1.278.185c-.412.06-.748.342-.876.738-.128.396-.022.821.276 1.111zm1.386-1.475c.353-.05.658-.271.817-.591L12 4.241l.296.598c.159.319.464.54.816.59l.655.095-.471.457c-.258.25-.375.611-.313.961l.112.65-.593-.31a1.075 1.075 0 0 0-1.005 0l-.592.31.111-.647a1.083 1.083 0 0 0-.312-.964l-.471-.458z"/></svg>