<svg xmlns="http://www.w3.org/2000/svg" width="24" height="24" fill="none"><path fill="currentColor" d="M19.782 3.813a1.739 1.739 0 0 0-1.832.165l-1.358 1.019a.755.755 0 0 1-.981-.069l-2.02-2.02a2.254 2.254 0 0 0-3.182 0L8.39 4.927a.753.753 0 0 1-.98.07l-1.36-1.02a1.74 1.74 0 0 0-1.832-.165 1.74 1.74 0 0 0-.968 1.565V18.62c0 .667.371 1.267.968 1.565a1.741 1.741 0 0 0 1.832-.165l1.358-1.019a.755.755 0 0 1 .981.069l2.02 2.019a2.24 2.24 0 0 0 1.591.658c.576 0 1.152-.219 1.59-.658l2.021-2.019a.754.754 0 0 1 .98-.07l1.359 1.02c.534.4 1.237.463 1.832.165a1.74 1.74 0 0 0 .968-1.565V5.377a1.74 1.74 0 0 0-.968-1.564Zm-.532 14.808a.241.241 0 0 1-.138.224.238.238 0 0 1-.262-.024l-1.36-1.02a2.262 2.262 0 0 0-2.94.209l-2.02 2.019a.77.77 0 0 1-1.061 0l-2.02-2.02a2.254 2.254 0 0 0-1.594-.655c-.474 0-.948.147-1.348.446l-1.359 1.02a.24.24 0 0 1-.262.024.241.241 0 0 1-.138-.224V5.377c0-.135.087-.198.138-.224a.238.238 0 0 1 .262.024l1.36 1.02a2.262 2.262 0 0 0 2.94-.209l2.02-2.019a.752.752 0 0 1 1.061 0l2.02 2.02a2.263 2.263 0 0 0 2.941.209l1.359-1.02a.238.238 0 0 1 .262-.024.241.241 0 0 1 .138.224v13.243h.001ZM16.75 10a.75.75 0 0 1-.75.75h-5a.75.75 0 0 1 0-1.5h5a.75.75 0 0 1 .75.75Zm0 4a.75.75 0 0 1-.75.75h-5a.75.75 0 0 1 0-1.5h5a.75.75 0 0 1 .75.75Zm-8-4a.75.75 0 1 1-1.5 0 .75.75 0 0 1 1.5 0Zm0 4a.75.75 0 1 1-1.5 0 .75.75 0 0 1 1.5 0Z"/></svg>