<svg xmlns="http://www.w3.org/2000/svg" width="24" height="24" fill="none"><path fill="currentColor" d="M17 2.25H7C4.582 2.25 3.25 3.582 3.25 6v12.621c0 .667.371 1.267.968 1.565a1.741 1.741 0 0 0 1.832-.165l1.358-1.019a.755.755 0 0 1 .981.069l2.02 2.019a2.24 2.24 0 0 0 1.591.658c.576 0 1.152-.219 1.59-.658l2.021-2.019a.754.754 0 0 1 .98-.07l1.359 1.02a1.74 1.74 0 0 0 1.832.165 1.74 1.74 0 0 0 .968-1.565V6c0-2.418-1.332-3.75-3.75-3.75m2.25 16.371a.241.241 0 0 1-.138.224.238.238 0 0 1-.262-.024l-1.36-1.02a2.262 2.262 0 0 0-2.94.209l-2.02 2.019a.77.77 0 0 1-1.061 0l-2.02-2.02a2.254 2.254 0 0 0-1.594-.655c-.474 0-.948.147-1.348.446l-1.359 1.02a.24.24 0 0 1-.262.024.241.241 0 0 1-.138-.224V6c0-1.577.673-2.25 2.25-2.25h10c1.577 0 2.25.673 2.25 2.25v12.621zM15.03 9.03l-5 5a.748.748 0 0 1-1.06 0 .75.75 0 0 1 0-1.061l5-5a.75.75 0 1 1 1.06 1.061M8.515 8.5c0-.552.443-1 .995-1h.01a1 1 0 1 1 0 2 1.005 1.005 0 0 1-1.005-1m7.005 5a1 1 0 0 1-1 1 1.005 1.005 0 0 1-1.005-1c0-.552.443-1 .995-1h.01a1 1 0 0 1 1 1"/></svg>