<svg xmlns="http://www.w3.org/2000/svg" width="24" height="24" fill="none"><path fill="currentColor" d="M12 21.749a2.242 2.242 0 0 1-1.59-.658l-2.021-2.019a.756.756 0 0 0-.981-.069L6.05 20.022c-.534.4-1.237.463-1.832.165a1.74 1.74 0 0 1-.968-1.565V6c0-2.418 1.332-3.75 3.75-3.75h10c2.418 0 3.75 1.332 3.75 3.75v12.621a1.74 1.74 0 0 1-.968 1.565 1.741 1.741 0 0 1-1.832-.165l-1.36-1.02a.753.753 0 0 0-.979.07l-2.02 2.019a2.24 2.24 0 0 1-1.591.659m-4.144-4.393c.581 0 1.16.222 1.594.655l2.02 2.02a.77.77 0 0 0 1.061 0l2.02-2.019a2.261 2.261 0 0 1 2.94-.209l1.36 1.02a.24.24 0 0 0 .262.024.241.241 0 0 0 .138-.224V6c0-1.577-.673-2.25-2.25-2.25h-10c-1.577 0-2.25.673-2.25 2.25v12.621c0 .135.087.198.138.224a.238.238 0 0 0 .262-.024l1.359-1.02a2.243 2.243 0 0 1 1.346-.445M12 15.722a.756.756 0 0 1-.309-.066c-.153-.069-3.764-1.732-4.353-4.746-.238-1.219-.002-2.375.65-3.17.541-.661 1.315-1.013 2.238-1.018h.014c.77 0 1.349.317 1.759.716.413-.402 1.028-.695 1.771-.716.924.004 1.698.356 2.24 1.017.65.794.888 1.95.65 3.171-.59 3.014-4.2 4.677-4.354 4.746a.732.732 0 0 1-.306.066m-1.76-7.5h-.005c-.469.002-.834.16-1.086.468-.362.441-.488 1.163-.338 1.931.355 1.818 2.4 3.083 3.188 3.51.788-.426 2.833-1.691 3.188-3.509.15-.769.024-1.492-.337-1.932-.253-.308-.618-.465-1.088-.468h-.005c-.736 0-1.021.73-1.05.814a.756.756 0 0 1-.708.5h-.008a.747.747 0 0 1-.704-.508c-.025-.075-.309-.806-1.047-.806m5.685 2.544h.01z"/></svg>