<svg xmlns="http://www.w3.org/2000/svg" width="24" height="24" fill="none"><path fill="currentColor" d="M18.93 9.47c-.46.02-.91.15-1.3.38-1.44-.88-3.06-1.4-4.67-1.53l.69-3.03 1.86.37c.16 1 1.02 1.78 2.07 1.78a2.1 2.1 0 1 0 0-4.2c-.74 0-1.38.38-1.76.96l-2.59-.52c-.4-.08-.79.17-.88.57l-.92 4.03c-1.8.05-3.54.56-5.08 1.49-.44-.26-.93-.39-1.47-.37-.73.02-1.4.33-1.9.86a2.72 2.72 0 0 0 .12 3.85c.09.08.18.16.28.23v.17c0 3.44 3.87 6.24 8.63 6.24 4.76 0 8.63-2.8 8.63-6.18 0-.08.01-.16.01-.25.68-.52 1.1-1.35 1.08-2.23-.06-1.5-1.35-2.67-2.82-2.62zm-1.35-4.72c.33 0 .6.27.6.6 0 .33-.27.6-.6.6-.33 0-.6-.27-.6-.6 0-.33.27-.6.6-.6m1.99 8.5c-.27.14-.44.43-.41.73.01.16.01.32 0 .54 0 2.61-3.2 4.74-7.13 4.74-3.93 0-7.13-2.12-7.13-4.8-.01-.16-.01-.32 0-.48a.764.764 0 0 0-.43-.74c-.12-.06-.23-.13-.33-.22-.49-.46-.51-1.24-.05-1.73.22-.24.53-.37.85-.38h.04c.31 0 .61.12.84.33.26.24.64.27.93.07a8.785 8.785 0 0 1 4.85-1.53h.78c1.65.04 3.38.61 4.86 1.61.29.2.69.17.94-.08a1.224 1.224 0 0 1 2.07.82c0 .47-.26.91-.68 1.11zM8.84 14.83a1.35 1.35 0 1 1 .001-2.701 1.35 1.35 0 0 1-.001 2.701m6.51 1.89c.15.15.14.39 0 .53 0 0-1.34.99-3.34.99-1.2.05-2.38-.32-3.34-1.04a.354.354 0 0 1 .05-.51c.13-.11.33-.11.46 0 .81.6 1.66.85 2.81.85 1.15 0 2-.24 2.82-.82.15-.15.39-.14.53 0zm1.1-3.24a1.35 1.35 0 0 1-2.7 0c0-.74.61-1.35 1.35-1.35.74 0 1.35.61 1.35 1.35"/></svg>