<svg xmlns="http://www.w3.org/2000/svg" width="24" height="24" fill="none"><path fill="currentColor" d="M19.98 15.54a5.715 5.715 0 0 0-1.63-3.25l-2.6-2.6V4.64c0-1.56-.83-2.39-2.39-2.39H6.64c-1.56 0-2.39.83-2.39 2.39v10.72c0 1.54.8 2.36 2.32 2.39 1.24 2.11 1.95 2.83 2.9 3.79.15.15.34.22.53.22s.38-.07.53-.22c.29-.29.29-.77 0-1.06-.8-.8-1.35-1.36-2.21-2.72h5.04c.61 0 1.06-.13 1.39-.33l.61.98a.747.747 0 1 0 1.27-.79l-4.34-6.94a.805.805 0 0 1 .12-1.02c.32-.32.84-.32 1.17 0l3.71 3.71c.65.65 1.07 1.5 1.2 2.4l.76 5.35c.05.37.37.64.74.64h.11c.41-.06.7-.44.64-.85l-.76-5.35v-.02Zm-8.62-6.96c-.77.77-.9 1.95-.33 2.88l2.93 4.69c-.11.06-.29.1-.6.1H6.64c-.72 0-.89-.17-.89-.89V4.64c0-.72.17-.89.89-.89h6.72c.72 0 .89.17.89.89v3.64c-.89-.55-2.14-.45-2.89.31v-.01Z"/></svg>