<svg xmlns="http://www.w3.org/2000/svg" width="24" height="24" fill="none"><path fill="currentColor" d="M17.625 2.25H6.375c-2.66 0-4.125 1.465-4.125 4.125v11.25c0 2.66 1.465 4.125 4.125 4.125h11.25c2.66 0 4.125-1.465 4.125-4.125V6.375c0-2.66-1.465-4.125-4.125-4.125m2.625 15.375c0 1.84-.785 2.625-2.625 2.625H6.375c-1.84 0-2.625-.785-2.625-2.625V6.375c0-1.84.785-2.625 2.625-2.625h11.25c1.84 0 2.625.785 2.625 2.625zM15.75 10A2.752 2.752 0 0 0 13 7.25H9a.75.75 0 0 0-.75.75v8a.75.75 0 0 0 1.5 0v-3.25h2.786l1.793 3.585a.75.75 0 0 0 1.342-.67l-1.573-3.146A2.753 2.753 0 0 0 15.75 10M13 11.25H9.75v-2.5H13c.689 0 1.25.561 1.25 1.25s-.561 1.25-1.25 1.25"/></svg>