<svg xmlns="http://www.w3.org/2000/svg" width="24" height="24" fill="none"><path fill="currentColor" d="M3.75 12.5c0 .754.175 1.48.519 2.16a.75.75 0 1 1-1.338.68 6.32 6.32 0 0 1-.681-2.84c0-3.68 2.57-6.25 6.25-6.25h6.689l-.72-.72a.75.75 0 0 1 1.061-1.06l2 2a.748.748 0 0 1 .162.817.75.75 0 0 1-.162.244l-2 2a.748.748 0 0 1-1.06 0 .75.75 0 0 1 0-1.061l.72-.72H8.5c-3.281 0-4.75 2.386-4.75 4.75Zm17.319-2.84a.75.75 0 1 0-1.338.678c.344.681.519 1.408.519 2.162 0 2.364-1.469 4.75-4.75 4.75H8.811l.72-.72a.75.75 0 0 0-1.061-1.06l-2 2a.75.75 0 0 0 0 1.061l2 2a.748.748 0 0 0 1.06 0 .75.75 0 0 0 0-1.061l-.72-.72h6.69c3.68 0 6.25-2.57 6.25-6.25a6.29 6.29 0 0 0-.68-2.838Z"/></svg>