<svg xmlns="http://www.w3.org/2000/svg" width="24" height="24" fill="none"><path fill="currentColor" d="M12.75 10.5v3a.75.75 0 0 1-1.5 0v-3a.75.75 0 0 1 1.5 0Zm8.283 9.035a3.236 3.236 0 0 1-2.534 1.215H5.501c-.99 0-1.914-.443-2.534-1.215a3.235 3.235 0 0 1-.639-2.737L4.675 6.19c.395-1.786 1.748-2.94 3.448-2.94h7.755c1.7 0 3.053 1.154 3.448 2.94l2.347 10.608a3.238 3.238 0 0 1-.64 2.737Zm-.825-2.413L17.861 6.514c-.244-1.105-.985-1.764-1.983-1.764h-3.127V7a.75.75 0 0 1-1.5 0V4.75H8.124c-.998 0-1.739.659-1.983 1.764L3.794 17.122c-.115.521.01 1.058.344 1.474a1.74 1.74 0 0 0 1.364.654h5.749V17a.75.75 0 0 1 1.5 0v2.25H18.5a1.74 1.74 0 0 0 1.364-.654c.333-.416.459-.953.344-1.474Z"/></svg>