<svg xmlns="http://www.w3.org/2000/svg" width="24" height="24" fill="none"><path fill="currentColor" d="M15.25 5.78a3 3 0 0 0-3 2.99 3 3 0 0 0 6 0 3 3 0 0 0-3-2.99Zm0 4.49c-.83 0-1.5-.67-1.5-1.49s.67-1.49 1.5-1.49 1.5.67 1.5 1.49-.67 1.49-1.5 1.49Zm6.18-7.2a.737.737 0 0 0-.55-.54c-.24-.06-6.02-1.41-9.79 2.36-.51.51-.94 1.01-1.34 1.49l-2.09.45a5.743 5.743 0 0 0-4.4 3.52l-.96 2.39c-.1.26-.06.55.12.76.14.17.35.26.57.26.05 0 .11 0 .16-.02l3.37-.75c-.05.17-.1.34-.16.52-.13.45-.02.93.31 1.25l2.52 2.52c.24.24.56.37.89.37.11 0 .22-.01.32-.04.21-.06.41-.11.61-.17l-.76 3.39c-.06.27.03.55.25.73.14.12.31.18.49.18.09 0 .19-.02.28-.05l2.39-.96c1.86-.74 3.22-2.42 3.53-4.35l.44-2.02c.5-.41 1.01-.85 1.55-1.39 3.77-3.78 2.31-9.66 2.25-9.91v.01Zm-17.2 8.91.43-1.07c.54-1.37 1.79-2.36 3.28-2.6l.55-.12c-.25.42-.46.84-.66 1.28l-.03.06c-.27.58-.51 1.19-.73 1.82l-2.84.63Zm5.93 4.15-2.31-2.31c.3-1.01.59-1.89.91-2.71l4.19 4.18c-.82.3-1.72.56-2.78.85l-.01-.01Zm5.56-.02a4.195 4.195 0 0 1-2.61 3.23l-1.07.43.63-2.81c.67-.21 1.29-.45 1.88-.7.01 0 .03-.01.04-.02.43-.19.84-.4 1.24-.63l-.11.5Zm-1.28-1.45L9.4 9.63c.63-1.23 1.45-2.38 2.75-3.68 2.61-2.61 6.58-2.26 7.92-2.05.24 1.35.67 5.4-1.95 8.02-1.3 1.3-2.42 2.12-3.68 2.74Z"/></svg>