<svg xmlns="http://www.w3.org/2000/svg" width="24" height="24" fill="none"><path fill="currentColor" d="M16.75 8.444v2.222a.75.75 0 0 1-.75.75h-2.223a.75.75 0 0 1 0-1.5h.706A3.245 3.245 0 0 0 12 8.749a3.254 3.254 0 0 0-3.25 3.25 3.254 3.254 0 0 0 3.25 3.25 3.23 3.23 0 0 0 2.91-1.806.75.75 0 1 1 1.344.667A4.724 4.724 0 0 1 12 16.75 4.756 4.756 0 0 1 7.25 12 4.756 4.756 0 0 1 12 7.249c1.235 0 2.388.483 3.25 1.293v-.098a.75.75 0 0 1 1.5 0m6 3.556c0 5.928-4.822 10.75-10.75 10.75S1.25 17.928 1.25 12 6.072 1.25 12 1.25 22.75 6.072 22.75 12m-1.5 0c0-5.101-4.149-9.25-9.25-9.25S2.75 6.899 2.75 12s4.149 9.25 9.25 9.25 9.25-4.149 9.25-9.25"/></svg>