<svg xmlns="http://www.w3.org/2000/svg" width="24" height="24" fill="none"><path fill="currentColor" d="M7.75 15A2.252 2.252 0 0 0 10 17.25h2a.75.75 0 0 1 0 1.5h-2A3.754 3.754 0 0 1 6.25 15 3.754 3.754 0 0 1 10 11.25h4A2.252 2.252 0 0 0 16.25 9 2.252 2.252 0 0 0 14 6.75h-2a.75.75 0 0 1 0-1.5h2A3.754 3.754 0 0 1 17.75 9 3.754 3.754 0 0 1 14 12.75h-4A2.252 2.252 0 0 0 7.75 15m-1.334-4.626a.75.75 0 0 1-.832 0l-.197-.13C4.214 9.469 2.25 8.172 2.25 6A3.754 3.754 0 0 1 6 2.25 3.754 3.754 0 0 1 9.75 6c0 2.171-1.964 3.469-3.137 4.244zM6 8.851C7.011 8.178 8.25 7.273 8.25 6A2.252 2.252 0 0 0 6 3.75 2.252 2.252 0 0 0 3.75 6c0 1.273 1.239 2.177 2.25 2.851M6.02 5h-.01a.996.996 0 0 0-.995 1c0 .552.453 1 1.005 1a1 1 0 0 0 0-2m15.73 12.25c0 2.171-1.964 3.469-3.137 4.244l-.197.13a.75.75 0 0 1-.832 0l-.197-.13c-1.173-.775-3.137-2.072-3.137-4.244A3.754 3.754 0 0 1 18 13.5a3.754 3.754 0 0 1 3.75 3.75m-1.5 0A2.252 2.252 0 0 0 18 15a2.252 2.252 0 0 0-2.25 2.25c0 1.273 1.239 2.177 2.25 2.851 1.011-.674 2.25-1.578 2.25-2.851m-2.23-1h-.01a.996.996 0 0 0-.995 1c0 .552.453 1 1.005 1a1 1 0 0 0 0-2"/></svg>