<svg xmlns="http://www.w3.org/2000/svg" width="24" height="24" fill="none"><path fill="currentColor" d="m15.53 9.53-.47.47.47.47c.29.29.29.77 0 1.06-.15.15-.34.22-.53.22s-.38-.07-.53-.22l-.47-.47-.94.94.97.97c.29.29.29.77 0 1.06-.15.15-.34.22-.53.22s-.38-.07-.53-.22l-.97-.97-.94.94.47.47c.29.29.29.77 0 1.06-.15.15-.34.22-.53.22s-.38-.07-.53-.22l-.47-.47-.47.47c-.15.15-.34.22-.53.22s-.38-.07-.53-.22a.754.754 0 0 1 0-1.06l.47-.47-.47-.47a.754.754 0 0 1 0-1.06c.29-.29.77-.29 1.06 0l.47.47.94-.94-.97-.97a.754.754 0 0 1 0-1.06c.29-.29.77-.29 1.06 0l.97.97.94-.94-.47-.47a.754.754 0 0 1 0-1.06c.29-.29.77-.29 1.06 0l.47.47.47-.47c.29-.29.77-.29 1.06 0 .29.29.29.77 0 1.06m5.87.43c-.55 3.24-1.77 5.85-3.68 7.75-2.68 2.68-6.7 4.03-11.97 4.03h-.32a3.224 3.224 0 0 1-3.17-3.17c-.02-1.51.09-2.92.29-4.23 0-.11.01-.21.06-.31.55-3.24 1.77-5.85 3.68-7.75 1.94-1.94 4.6-3.16 7.91-3.7.1-.04.21-.06.32-.06 1.26-.19 2.62-.28 4.07-.27 1.73.02 3.15 1.44 3.17 3.17.02 1.51-.09 2.92-.29 4.23 0 .11-.01.21-.06.31zm-3.15-6.21c-.75 0-1.47.04-2.16.1l4.05 4.16c.07-.82.12-1.67.11-2.57 0-.92-.77-1.68-1.69-1.69zM7.91 20.15l-4.05-4.16c-.07.82-.12 1.67-.11 2.57 0 .92.77 1.68 1.69 1.69.86 0 1.68-.03 2.47-.1M19.89 9.9l-5.66-5.82c-2.9.5-5.22 1.58-6.89 3.26-1.67 1.68-2.72 3.92-3.23 6.76l5.66 5.81c2.9-.5 5.22-1.58 6.89-3.25s2.72-3.92 3.23-6.76"/></svg>