<svg xmlns="http://www.w3.org/2000/svg" width="24" height="24" fill="none"><path fill="currentColor" d="M9.26 5.5a.749.749 0 1 1 1.5 0 .749.749 0 1 1-1.5 0m4.75.75a.749.749 0 1 0 .002-1.498.749.749 0 0 0-.002 1.498m-2 1a.749.749 0 1 0 .002-1.498.749.749 0 0 0-.002 1.498m6.53 11.5a2.757 2.757 0 0 1-2.74 3H8.18a2.757 2.757 0 0 1-2.74-3l.8-8.79V8c0-3.17 2.58-5.75 5.75-5.75S17.74 4.83 17.74 8v1.96zM7.74 8v1.25h8.5V8a4.26 4.26 0 0 0-4.25-4.25A4.26 4.26 0 0 0 7.74 8m9.3 10.89-.74-8.14H7.67l-.74 8.14a1.251 1.251 0 0 0 1.24 1.37h7.62c.36 0 .68-.14.92-.41.24-.26.35-.6.32-.96zm-7.05-6.64c-.41 0-.75.34-.75.75v5c0 .41.34.75.75.75s.75-.34.75-.75v-5c0-.41-.34-.75-.75-.75m4 0c-.41 0-.75.34-.75.75v5c0 .41.34.75.75.75s.75-.34.75-.75v-5c0-.41-.34-.75-.75-.75"/></svg>