<svg xmlns="http://www.w3.org/2000/svg" width="24" height="24" fill="none"><path fill="currentColor" d="M21.75 4.5V8a.75.75 0 0 1-1.5 0V4.5c0-.589-.161-.75-.75-.75H16a.75.75 0 0 1 0-1.5h3.5c1.409 0 2.25.841 2.25 2.25ZM3 8.75A.75.75 0 0 0 3.75 8V4.5c0-.589.161-.75.75-.75H8a.75.75 0 0 0 0-1.5H4.5c-1.409 0-2.25.841-2.25 2.25V8c0 .414.336.75.75.75Zm5 11.5H4.5c-.589 0-.75-.161-.75-.75V16a.75.75 0 0 0-1.5 0v3.5c0 1.409.841 2.25 2.25 2.25H8a.75.75 0 0 0 0-1.5Zm13-5a.75.75 0 0 0-.75.75v3.5c0 .589-.161.75-.75.75H16a.75.75 0 0 0 0 1.5h3.5c1.409 0 2.25-.841 2.25-2.25V16a.75.75 0 0 0-.75-.75Zm-8.75-5v-2.5c0-.911.589-1.5 1.5-1.5h2.5c.911 0 1.5.589 1.5 1.5v2.5c0 .911-.589 1.5-1.5 1.5h-2.5c-.911 0-1.5-.589-1.5-1.5Zm1.5 0h2.492l.008-2.492-2.492-.008-.008 2.5Zm-2-2.5v2.5c0 .911-.589 1.5-1.5 1.5h-2.5c-.911 0-1.5-.589-1.5-1.5v-2.5c0-.911.589-1.5 1.5-1.5h2.5c.911 0 1.5.589 1.5 1.5Zm-1.5.008L7.758 7.75l-.008 2.5h2.492l.008-2.492Zm6 9.992h-2.5c-.911 0-1.5-.589-1.5-1.5v-2.5c0-.911.589-1.5 1.5-1.5h2.5c.911 0 1.5.589 1.5 1.5v2.5c0 .911-.589 1.5-1.5 1.5Zm-.008-1.5.008-2.492-2.492-.008-.008 2.5h2.492Zm-4.492-2.5v2.5c0 .911-.589 1.5-1.5 1.5h-2.5c-.911 0-1.5-.589-1.5-1.5v-2.5c0-.911.589-1.5 1.5-1.5h2.5c.911 0 1.5.589 1.5 1.5Zm-1.5.008-2.492-.008-.008 2.5h2.492l.008-2.492Z"/></svg>