<svg xmlns="http://www.w3.org/2000/svg" width="24" height="24" fill="none"><path fill="currentColor" d="M15.5 21.75h-7c-2.418 0-3.75-1.332-3.75-3.75V7.621c0-.592.24-1.172.659-1.591L8.53 2.909c.419-.42 1-.659 1.591-.659H15.5c2.418 0 3.75 1.332 3.75 3.75v12c0 2.418-1.332 3.75-3.75 3.75Zm-5.379-18a.753.753 0 0 0-.53.22L6.47 7.091a.755.755 0 0 0-.22.53V18c0 1.577.673 2.25 2.25 2.25h7c1.577 0 2.25-.673 2.25-2.25V6c0-1.577-.673-2.25-2.25-2.25h-5.379ZM16.25 9.5V7a.75.75 0 0 0-1.5 0v2.5a.75.75 0 0 0 1.5 0Zm-3 0V7a.75.75 0 0 0-1.5 0v2.5a.75.75 0 0 0 1.5 0Zm-3 0V7a.75.75 0 0 0-1.5 0v2.5a.75.75 0 0 0 1.5 0Z"/></svg>