<svg xmlns="http://www.w3.org/2000/svg" width="24" height="24" fill="none"><path fill="currentColor" d="M21.75 9V6c0-2.418-1.332-3.75-3.75-3.75H6C3.582 2.25 2.25 3.582 2.25 6v3c0 1.366.44 2.372 1.245 3-.806.628-1.245 1.634-1.245 3v3c0 2.418 1.332 3.75 3.75 3.75h12c2.418 0 3.75-1.332 3.75-3.75v-3c0-1.366-.44-2.372-1.245-3 .806-.628 1.245-1.634 1.245-3m-1.5 6v3c0 1.577-.673 2.25-2.25 2.25H6c-1.577 0-2.25-.673-2.25-2.25v-3c0-1.577.673-2.25 2.25-2.25h12c1.577 0 2.25.673 2.25 2.25M6 11.25c-1.577 0-2.25-.673-2.25-2.25V6c0-1.577.673-2.25 2.25-2.25h12c1.577 0 2.25.673 2.25 2.25v3c0 1.577-.673 2.25-2.25 2.25zm9.5-3.738a1 1 0 1 1-2 0 1 1 0 0 1 2 0m3 0a1 1 0 1 1-2 0 1 1 0 0 1 2 0m-5 8.988a1 1 0 1 1 2 0 1 1 0 0 1-2 0m3 0a1 1 0 1 1 2 0 1 1 0 0 1-2 0"/></svg>