<svg xmlns="http://www.w3.org/2000/svg" width="24" height="24" fill="none"><path fill="currentColor" d="M21.147 4.265C16.22 3.28 14.514 2.42 12.355 1.33a.818.818 0 0 0-.702.014c-2.19 1.086-3.921 1.945-8.8 2.92A.75.75 0 0 0 2.248 5v5.889c0 8.234 7.924 11.293 9.513 11.823a.74.74 0 0 0 .474 0c1.59-.53 9.513-3.59 9.513-11.823V5a.747.747 0 0 0-.602-.735Zm-.897 6.624c0 6.865-6.418 9.66-8.25 10.317-1.832-.657-8.25-3.453-8.25-10.317V5.613c4.385-.916 6.188-1.747 8.265-2.774 1.953.981 3.812 1.848 8.235 2.774zM7.426 12.86c.121.271.39.445.686.445h2.027V17a.749.749 0 0 0 1.308.502l5-5.556a.752.752 0 0 0-.558-1.252h-2.027V7a.749.749 0 0 0-1.307-.502l-5 5.556a.748.748 0 0 0-.129.807Zm4.935-3.906v2.49c0 .414.336.75.75.75h1.094l-2.566 2.85v-2.49a.75.75 0 0 0-.75-.75H9.795z"/></svg>