<svg xmlns="http://www.w3.org/2000/svg" width="24" height="24" fill="none"><path fill="currentColor" d="M12 22.75a.741.741 0 0 1-.237-.039c-1.59-.53-9.513-3.589-9.513-11.823V5c0-.357.252-.666.603-.735 4.88-.976 6.61-1.834 8.801-2.92a.822.822 0 0 1 .702-.015c2.161 1.09 3.868 1.95 8.792 2.935A.75.75 0 0 1 21.75 5v5.889c0 8.234-7.924 11.293-9.513 11.823a.78.78 0 0 1-.238.038ZM3.75 5.612v5.276c0 6.865 6.418 9.66 8.25 10.317 1.832-.657 8.25-3.453 8.25-10.317V5.612c-4.421-.925-6.28-1.793-8.235-2.774-2.077 1.027-3.88 1.858-8.265 2.774m6.88 10.39c-.315 0-.631-.08-.921-.244a1.851 1.851 0 0 1-.959-1.635V9.627c0-.688.358-1.299.959-1.635a1.857 1.857 0 0 1 1.901.037l3.779 2.312c.538.33.86.903.86 1.534s-.321 1.205-.86 1.535l-3.779 2.312c-.304.186-.642.28-.98.28m.001-6.752a.392.392 0 0 0-.188.05.367.367 0 0 0-.192.327v4.496a.37.37 0 0 0 .192.327.376.376 0 0 0 .385-.007l3.779-2.312a.293.293 0 0 0 .144-.256.292.292 0 0 0-.144-.255l-3.78-2.312a.378.378 0 0 0-.196-.058"/></svg>