<svg xmlns="http://www.w3.org/2000/svg" width="24" height="24" fill="none"><path fill="currentColor" d="M12 22.75a.741.741 0 0 1-.237-.039c-1.59-.53-9.513-3.589-9.513-11.823V5c0-.357.252-.666.603-.735 4.88-.976 6.61-1.834 8.801-2.92a.822.822 0 0 1 .702-.015c2.159 1.09 3.865 1.949 8.792 2.935A.75.75 0 0 1 21.75 5v5.889c0 8.234-7.924 11.293-9.513 11.823a.78.78 0 0 1-.238.038ZM3.75 5.612v5.276c0 6.865 6.418 9.66 8.25 10.317 1.832-.657 8.25-3.453 8.25-10.317V5.612c-4.423-.926-6.282-1.793-8.235-2.774-2.077 1.027-3.88 1.858-8.265 2.774Zm8.256 6.438a2.403 2.403 0 0 1-2.4-2.4c0-1.323 1.077-2.4 2.4-2.4s2.4 1.077 2.4 2.4-1.077 2.4-2.4 2.4Zm0-3.3a.9.9 0 0 0 0 1.8.901.901 0 0 0 0-1.8Zm2.994 8a.75.75 0 0 1-.75-.75v-.303c0-.72-.497-1.447-1.608-1.447H11.36c-1.111 0-1.608.727-1.608 1.447V16a.75.75 0 0 1-1.5 0v-.303c0-1.464 1.067-2.947 3.108-2.947h1.283c2.041 0 3.108 1.482 3.108 2.947V16a.75.75 0 0 1-.75.75Z"/></svg>