<svg xmlns="http://www.w3.org/2000/svg" width="24" height="24" fill="none"><path fill="currentColor" d="M21.75 7v3.89c0 6.378-4.914 10.289-9.513 11.82a.741.741 0 0 1-.476 0 16.754 16.754 0 0 1-4.18-2.104.75.75 0 1 1 .857-1.23A15.28 15.28 0 0 0 12 21.208c1.832-.657 8.25-3.452 8.25-10.316V7a.75.75 0 0 1 1.5 0m-.22-3.47-18 18a.748.748 0 0 1-1.06 0 .75.75 0 0 1 0-1.061l2.382-2.382c-1.72-2.08-2.602-4.495-2.602-7.198V5c0-.357.252-.666.603-.735 4.877-.976 6.607-1.833 8.8-2.92.21-.103.494-.12.705-.014 1.857.938 3.359 1.687 6.76 2.491L20.47 2.47a.75.75 0 1 1 1.06 1.06M5.914 17.025 17.875 5.064c-2.783-.721-4.28-1.431-5.859-2.226-2.08 1.028-3.884 1.858-8.267 2.774v5.278c.001 2.294.733 4.353 2.165 6.135"/></svg>