<svg xmlns="http://www.w3.org/2000/svg" width="24" height="24" fill="none"><path fill="currentColor" d="M12 22.75a.741.741 0 0 1-.237-.039c-1.59-.53-9.513-3.589-9.513-11.823V5c0-.357.252-.666.603-.735 4.88-.976 6.61-1.834 8.801-2.92a.822.822 0 0 1 .702-.015c2.159 1.09 3.865 1.949 8.792 2.935A.75.75 0 0 1 21.75 5v5.889c0 8.234-7.924 11.293-9.513 11.823a.78.78 0 0 1-.238.038ZM3.75 5.612v5.276c0 6.865 6.418 9.66 8.25 10.317 1.832-.657 8.25-3.453 8.25-10.317V5.612c-4.423-.926-6.282-1.793-8.235-2.774-2.077 1.027-3.88 1.858-8.265 2.774ZM12 16.5a.757.757 0 0 1-.31-.066c-.152-.069-3.763-1.732-4.352-4.746-.238-1.219-.002-2.375.65-3.169.541-.662 1.315-1.014 2.238-1.018h.014c.77 0 1.349.317 1.759.716.41-.399.99-.716 1.758-.716h.014c.924.004 1.698.356 2.24 1.017.65.794.888 1.95.649 3.17-.59 3.014-4.2 4.677-4.353 4.746A.74.74 0 0 1 12 16.5ZM10.24 9h-.005c-.468.002-.834.16-1.087.468-.361.441-.487 1.164-.337 1.931.355 1.818 2.4 3.083 3.188 3.51.788-.426 2.833-1.691 3.188-3.51.15-.769.024-1.49-.337-1.932-.253-.308-.618-.465-1.088-.468h-.005c-.736 0-1.021.73-1.05.814a.756.756 0 0 1-.708.5h-.008a.747.747 0 0 1-.704-.508C11.262 9.73 10.978 9 10.24 9Zm5.685 2.543h.01-.01Z"/></svg>