<svg xmlns="http://www.w3.org/2000/svg" width="24" height="24" fill="none"><path fill="currentColor" d="M12 22.75a.741.741 0 0 1-.237-.039c-1.59-.53-9.513-3.589-9.513-11.823V5c0-.357.252-.666.603-.735 4.88-.976 6.61-1.834 8.801-2.92a.822.822 0 0 1 .702-.015c2.161 1.09 3.868 1.95 8.792 2.935A.75.75 0 0 1 21.75 5v5.889c0 8.234-7.924 11.293-9.513 11.823a.78.78 0 0 1-.238.038ZM3.75 5.612v5.276c0 6.865 6.418 9.66 8.25 10.317 1.832-.657 8.25-3.453 8.25-10.317V5.612c-4.421-.925-6.28-1.793-8.235-2.774-2.077 1.027-3.88 1.858-8.265 2.774Zm8.96 7.004c.008-.02.088-.2.634-.564.984-.654 1.425-1.593 1.24-2.646a2.647 2.647 0 0 0-2.114-2.114 2.633 2.633 0 0 0-2.157.573 2.622 2.622 0 0 0-.938 2.011.75.75 0 0 0 1.5 0A1.123 1.123 0 0 1 12.21 8.77c.442.078.819.455.897.896.05.286.043.714-.595 1.138-.429.286-1.02.735-1.224 1.333a.74.74 0 0 0 .708.976.77.77 0 0 0 .714-.497ZM13.02 15a1 1 0 0 0-1-1h-.01a.996.996 0 0 0-.995 1c0 .552.453 1 1.005 1a1 1 0 0 0 1-1Z"/></svg>