<svg xmlns="http://www.w3.org/2000/svg" width="24" height="24" fill="none"><path fill="currentColor" d="m20.6 3.9-4.33-1.58c-.31-.11-.67-.1-.97.05-.3.15-.53.4-.63.72-.31.92-1.02 2.01-2.66 2.01-1.64 0-2.35-1.09-2.66-2.01-.11-.32-.33-.57-.63-.71-.3-.15-.66-.16-.97-.05L3.42 3.91c-.69.25-1.15.91-1.15 1.64v3.13c0 .55.25 1.06.7 1.4.44.33 1 .44 1.53.29l1.27-.36v9.51c0 1.24 1.01 2.25 2.25 2.25h8c1.24 0 2.25-1.01 2.25-2.25v-9.51l1.27.36c.53.15 1.09.05 1.53-.29.44-.33.7-.84.7-1.4V5.55c0-.73-.46-1.39-1.15-1.64zm-.35 4.77c0 .11-.06.17-.1.2-.04.03-.12.07-.22.04l-2.23-.64a.774.774 0 0 0-.66.12c-.19.14-.3.36-.3.6v10.5c0 .41-.34.75-.75.75h-8c-.41 0-.75-.34-.75-.75V8.99c0-.24-.11-.46-.3-.6a.738.738 0 0 0-.45-.15c-.07 0-.14 0-.21.03l-2.23.64c-.1.03-.18-.01-.22-.04a.24.24 0 0 1-.1-.2V5.54c0-.1.07-.2.16-.24l4.1-1.49c.4 1 1.46 2.77 3.99 2.77 2.53 0 3.59-1.78 3.99-2.77l4.1 1.49c.1.04.16.13.16.24v3.13z"/></svg>