<svg xmlns="http://www.w3.org/2000/svg" width="24" height="24" fill="none"><path fill="currentColor" d="M21.75 9A2.752 2.752 0 0 0 19 6.25h-2.064l-2.162-3.634a.75.75 0 0 0-1.289.767l1.705 2.866H9.039l1.731-2.862a.75.75 0 0 0-1.283-.777L7.286 6.248H5a2.752 2.752 0 0 0-2.75 2.75c0 1.089.641 2.024 1.562 2.469l.69 6.904c.227 2.272 1.447 3.377 3.731 3.377h7.57c2.284 0 3.505-1.104 3.731-3.377l.692-6.925A2.738 2.738 0 0 0 21.75 9ZM5 7.75h14c.689 0 1.25.561 1.25 1.25s-.561 1.25-1.25 1.25H5c-.689 0-1.25-.561-1.25-1.25S4.311 7.75 5 7.75Zm13.043 10.474c-.129 1.283-.536 2.026-2.239 2.026h-7.57c-1.712 0-2.107-.712-2.239-2.026l-.647-6.474h13.343l-.648 6.474Zm-3.222-4.064-1.278-.185-.55-1.109A1.1 1.1 0 0 0 12 12.25c-.425 0-.805.236-.992.615l-.551 1.11-1.278.185c-.411.06-.747.342-.875.738-.129.395-.023.821.275 1.11l.923.896-.21 1.215c-.072.418.096.833.438 1.083.345.251.792.284 1.168.087L12 18.712l1.103.577a1.107 1.107 0 0 0 1.606-1.167l-.21-1.218.923-.896a1.082 1.082 0 0 0-.602-1.848Zm-1.524 1.82a1.078 1.078 0 0 0-.314.961l.112.65-.594-.311a1.09 1.09 0 0 0-1.004.001l-.592.31.112-.65a1.08 1.08 0 0 0-.313-.96l-.472-.458.655-.095c.353-.051.657-.271.816-.591l.296-.597.296.597c.159.319.464.54.816.59l.655.095-.469.458Z"/></svg>