<svg xmlns="http://www.w3.org/2000/svg" width="24" height="24" fill="none"><path fill="currentColor" d="M21.75 9A2.752 2.752 0 0 0 19 6.25h-2.043l-2.162-3.634a.75.75 0 0 0-1.289.767l1.705 2.866h-6.15l1.73-2.862a.75.75 0 0 0-1.283-.777L7.307 6.248H5a2.752 2.752 0 0 0-2.75 2.75c0 1.089.641 2.024 1.562 2.469l.69 6.904c.227 2.272 1.447 3.377 3.731 3.377h7.57c2.284 0 3.505-1.104 3.731-3.377l.692-6.925A2.738 2.738 0 0 0 21.75 9M5 7.75h14c.689 0 1.25.561 1.25 1.25s-.561 1.25-1.25 1.25H5c-.689 0-1.25-.561-1.25-1.25S4.311 7.75 5 7.75m13.043 10.474c-.129 1.283-.536 2.026-2.239 2.026h-7.57c-1.712 0-2.107-.712-2.239-2.026l-.647-6.474h13.343zm-4.713-5.807a1.947 1.947 0 0 0-1.33.475 1.932 1.932 0 0 0-1.33-.475c-.747.003-1.376.291-1.818.83-.527.643-.721 1.572-.531 2.551.459 2.369 3.25 3.664 3.369 3.718a.748.748 0 0 0 .622 0c.118-.054 2.91-1.349 3.369-3.718.19-.979-.003-1.909-.53-2.551-.444-.54-1.073-.827-1.821-.83m.877 3.095c-.239 1.236-1.587 2.126-2.207 2.476-.62-.35-1.968-1.24-2.207-2.476-.102-.522-.018-1.025.218-1.313.154-.188.373-.28.667-.281h.003c.419 0 .593.441.607.482a.751.751 0 0 0 1.424 0c.001-.005.179-.479.61-.482.295.001.514.093.668.281.236.286.319.79.217 1.313"/></svg>