<svg xmlns="http://www.w3.org/2000/svg" width="24" height="24" fill="none"><path fill="currentColor" d="M10.768 14.5v3a.75.75 0 0 1-1.5 0v-3a.75.75 0 0 1 1.5 0m3.25-.75a.75.75 0 0 0-.75.75v3a.75.75 0 0 0 1.5 0v-3a.75.75 0 0 0-.75-.75m6.21-2.302-.693 6.925c-.227 2.272-1.447 3.377-3.731 3.377h-7.57c-2.284 0-3.505-1.104-3.731-3.377l-.69-6.904A2.745 2.745 0 0 1 2.251 9a2.752 2.752 0 0 1 2.75-2.75h2.157l2.201-3.638a.75.75 0 1 1 1.283.777L8.911 6.251h6.151l-1.705-2.866a.75.75 0 1 1 1.289-.767l2.162 3.634H19a2.752 2.752 0 0 1 2.75 2.75 2.743 2.743 0 0 1-1.523 2.446ZM3.75 9c0 .689.561 1.25 1.25 1.25h14c.689 0 1.25-.561 1.25-1.25S19.689 7.75 19 7.75H5c-.689 0-1.25.561-1.25 1.25m14.94 2.75H5.347l.647 6.474c.132 1.314.527 2.026 2.239 2.026h7.57c1.703 0 2.11-.743 2.239-2.026z"/></svg>