<svg xmlns="http://www.w3.org/2000/svg" width="24" height="24" fill="none"><path fill="currentColor" d="M21.063 10.645c-.19-1.999-1.726-3.395-3.733-3.395h-.58V7A4.756 4.756 0 0 0 12 2.25 4.756 4.756 0 0 0 7.25 7v.25h-.58c-2.008 0-3.543 1.396-3.733 3.395l-.667 7c-.106 1.122.22 2.164.92 2.934.688.756 1.687 1.172 2.812 1.172h11.996c1.126 0 2.125-.417 2.812-1.172.7-.77 1.026-1.812.92-2.933zM8.75 7A3.254 3.254 0 0 1 12 3.75 3.254 3.254 0 0 1 15.25 7v.25h-6.5zM19.7 19.568c-.405.446-.994.682-1.702.682H6.002c-.708 0-1.297-.235-1.702-.682-.412-.453-.603-1.086-.536-1.782l.667-6.999C4.546 9.568 5.447 8.75 6.67 8.75h10.66c1.224 0 2.124.818 2.239 2.037l.667 7c.067.695-.124 1.328-.536 1.781M9.02 12a1 1 0 0 1-1 1 1.005 1.005 0 0 1-1.005-1c0-.552.443-1 .995-1h.01a1 1 0 0 1 1 1m8 0a1 1 0 0 1-1 1 1.005 1.005 0 0 1-1.005-1c0-.552.443-1 .995-1h.01a1 1 0 0 1 1 1"/></svg>