<svg xmlns="http://www.w3.org/2000/svg" width="24" height="24" fill="none"><path fill="currentColor" d="M10.27 21c0 .69-.56 1.25-1.25 1.25-.689 0-1.255-.56-1.255-1.25s.555-1.25 1.245-1.25h.01c.69 0 1.25.56 1.25 1.25m6.75-1.25h-.01c-.69 0-1.245.56-1.245 1.25s.565 1.25 1.255 1.25a1.25 1.25 0 0 0 0-2.5m4.685-11.258-1.014 6.166c-.263 1.446-.917 3.092-3.691 3.092H8.734a2.763 2.763 0 0 1-2.722-2.361L4.502 4.824a1.256 1.256 0 0 0-1.237-1.073H3a.75.75 0 0 1 0-1.5h.266a2.763 2.763 0 0 1 2.722 2.361l.092.639H19c.818 0 1.588.36 2.112.988a2.74 2.74 0 0 1 .593 2.253m-1.746-1.293a1.248 1.248 0 0 0-.96-.449H6.293l1.204 8.427a1.256 1.256 0 0 0 1.237 1.073H17c1.597 0 1.986-.596 2.213-1.847l1.014-6.167a1.253 1.253 0 0 0-.268-1.037m-3.31 1.548c.527.642.721 1.572.53 2.551-.459 2.369-3.25 3.664-3.369 3.718a.748.748 0 0 1-.622 0c-.119-.054-2.91-1.349-3.369-3.718-.189-.979.004-1.908.531-2.551.442-.54 1.071-.827 1.818-.83h.012c.557 0 .992.202 1.318.475a2.014 2.014 0 0 1 1.318-.475h.012c.75.003 1.379.29 1.821.83m-1.159.951c-.154-.188-.373-.28-.668-.281h-.003c-.435 0-.606.478-.607.482a.751.751 0 0 1-1.424 0c-.015-.041-.188-.482-.607-.482h-.003c-.294.001-.513.093-.667.281-.235.288-.319.791-.218 1.313.237 1.227 1.589 2.123 2.208 2.475.621-.35 1.967-1.24 2.206-2.474v-.001c.102-.522.019-1.026-.217-1.313"/></svg>