<svg xmlns="http://www.w3.org/2000/svg" width="24" height="24" fill="none"><path fill="currentColor" d="M21.75 9A2.752 2.752 0 0 0 19 6.25h-2.173l-2.163-3.634a.75.75 0 1 0-1.289.767l1.706 2.866h-6.15l1.73-2.862a.75.75 0 0 0-1.283-.777L7.177 6.248H5a2.752 2.752 0 0 0-2.75 2.75c0 1.089.641 2.024 1.562 2.469l.69 6.904c.227 2.272 1.447 3.377 3.731 3.377h7.57c2.284 0 3.505-1.104 3.731-3.377l.692-6.925A2.738 2.738 0 0 0 21.75 9M5 7.75h14c.689 0 1.25.561 1.25 1.25s-.561 1.25-1.25 1.25H5c-.689 0-1.25-.561-1.25-1.25S4.311 7.75 5 7.75m13.043 10.474c-.129 1.283-.536 2.026-2.239 2.026h-7.57c-1.712 0-2.107-.712-2.239-2.026l-.647-6.474h13.343zm-3.513-4.445a.75.75 0 0 1 0 1.061l-2.667 2.667a.749.749 0 0 1-1.06 0L9.47 16.174a.75.75 0 1 1 1.061-1.061l.803.803 2.137-2.136a.747.747 0 0 1 1.059-.001"/></svg>