<svg xmlns="http://www.w3.org/2000/svg" width="24" height="24" fill="none"><path fill="currentColor" d="M10.27 21c0 .69-.56 1.25-1.25 1.25-.689 0-1.255-.56-1.255-1.25s.555-1.25 1.245-1.25h.01c.69 0 1.25.56 1.25 1.25m6.75-1.25h-.01c-.69 0-1.245.56-1.245 1.25s.565 1.25 1.255 1.25a1.25 1.25 0 0 0 0-2.5m4.685-11.258-1.014 6.166c-.263 1.446-.917 3.092-3.691 3.092H8.734a2.763 2.763 0 0 1-2.722-2.361L4.502 4.824a1.256 1.256 0 0 0-1.237-1.073H3a.75.75 0 0 1 0-1.5h.266a2.763 2.763 0 0 1 2.722 2.361l.092.639H19c.818 0 1.588.36 2.112.988a2.74 2.74 0 0 1 .593 2.253m-1.746-1.293a1.248 1.248 0 0 0-.96-.449H6.293l1.204 8.427a1.256 1.256 0 0 0 1.237 1.073H17c1.597 0 1.986-.596 2.213-1.847l1.014-6.167a1.253 1.253 0 0 0-.268-1.037m-2.763 3.366c.129.395.023.821-.275 1.111l-.923.896.21 1.217c.072.416-.095.831-.438 1.081a1.1 1.1 0 0 1-1.167.086l-1.103-.577-1.103.577a1.106 1.106 0 0 1-1.606-1.17l.21-1.215-.923-.896a1.073 1.073 0 0 1-.275-1.111c.128-.396.464-.678.875-.738l1.278-.186.551-1.109a1.1 1.1 0 0 1 .992-.616 1.1 1.1 0 0 1 .993.617l.55 1.108 1.278.186c.412.061.748.343.876.739m-1.928.625-.655-.095a1.082 1.082 0 0 1-.816-.591l-.296-.597-.296.597c-.159.32-.465.541-.817.592l-.654.095.472.457c.257.249.374.608.313.96l-.112.651.592-.31a1.09 1.09 0 0 1 1.004-.001l.594.311-.112-.65a1.081 1.081 0 0 1 .314-.961z"/></svg>