<svg xmlns="http://www.w3.org/2000/svg" width="24" height="24" fill="none"><path fill="currentColor" d="M18.5 7.25h-2.25V6.5A4.254 4.254 0 0 0 12 2.25 4.254 4.254 0 0 0 7.75 6.5v.75H5.5A2.253 2.253 0 0 0 3.25 9.5V18c0 2.418 1.332 3.75 3.75 3.75h10c2.418 0 3.75-1.332 3.75-3.75V9.5c0-1.241-1.01-2.25-2.25-2.25ZM9.25 6.5A2.752 2.752 0 0 1 12 3.75a2.752 2.752 0 0 1 2.75 2.75v.75h-5.5V6.5Zm10 11.5c0 1.577-.673 2.25-2.25 2.25H7c-1.577 0-2.25-.673-2.25-2.25V9.5a.75.75 0 0 1 .75-.75h2.25V11a.75.75 0 0 0 1.5 0V8.75h5.5V11a.75.75 0 0 0 1.5 0V8.75h2.25a.75.75 0 0 1 .75.75V18Z"/></svg>