<svg xmlns="http://www.w3.org/2000/svg" width="24" height="24" fill="none"><path fill="currentColor" d="M21.692 17.287a.749.749 0 0 1-.162.244l-2 2a.748.748 0 0 1-1.06 0 .75.75 0 0 1 0-1.061l.72-.72h-1.748a3.73 3.73 0 0 1-2.928-1.408l-6.2-7.748a2.236 2.236 0 0 0-1.755-.845H3a.75.75 0 0 1 0-1.5h3.559a3.73 3.73 0 0 1 2.928 1.408l6.199 7.748a2.236 2.236 0 0 0 1.756.845h1.748l-.72-.72a.75.75 0 0 1 1.061-1.061l2 2a.749.749 0 0 1 .161.818ZM14 10.25c.22 0 .438-.096.586-.281l1.1-1.375a2.236 2.236 0 0 1 1.756-.844h1.748l-.72.72a.75.75 0 0 0 1.06 1.061l2-2a.749.749 0 0 0 .162-.817.75.75 0 0 0-.162-.244l-2-2a.75.75 0 1 0-1.061 1.061l.72.72h-1.748a3.732 3.732 0 0 0-2.928 1.407l-1.1 1.374A.75.75 0 0 0 14 10.25Zm-4.586 3.781-1.1 1.375a2.235 2.235 0 0 1-1.756.844H3a.75.75 0 0 0 0 1.5h3.559a3.732 3.732 0 0 0 2.928-1.407l1.1-1.374a.75.75 0 1 0-1.173-.938Z"/></svg>