<svg xmlns="http://www.w3.org/2000/svg" width="24" height="24" fill="none"><path fill="currentColor" d="m20.247 5.498-2.686-2a1.255 1.255 0 0 0-.747-.248H12.75V3a.75.75 0 0 0-1.5 0v.25H7.5c-1.409 0-2.25.841-2.25 2.25v2c0 1.409.841 2.25 2.25 2.25h3.75v1.5H7.186c-.267 0-.532.088-.746.248l-2.687 2A1.241 1.241 0 0 0 3.25 14.5c0 .398.184.764.503 1.002l2.686 2c.214.16.479.248.747.248h4.064v2.5H9a.75.75 0 0 0 0 1.5h6a.75.75 0 0 0 0-1.5h-2.25v-2.5h3.75c1.409 0 2.25-.841 2.25-2.25v-2c0-1.409-.841-2.25-2.25-2.25h-3.75v-1.5h4.064c.267 0 .532-.088.746-.248l2.687-2A1.24 1.24 0 0 0 20.75 6.5a1.24 1.24 0 0 0-.503-1.002M17.25 13.5v2c0 .589-.161.75-.75.75H7.27L4.919 14.5l2.351-1.75h9.23c.589 0 .75.161.75.75m-.52-5.25H7.5c-.589 0-.75-.161-.75-.75v-2c0-.589.161-.75.75-.75h9.23l2.351 1.75z"/></svg>