<svg xmlns="http://www.w3.org/2000/svg" width="24" height="24" fill="none"><path fill="currentColor" d="M15.54 16.29a.75.75 0 0 1-.533-1.278 4.26 4.26 0 0 0 1.243-3.013 4.26 4.26 0 0 0-1.243-3.013.75.75 0 1 1 1.067-1.055 5.753 5.753 0 0 1 1.677 4.067 5.751 5.751 0 0 1-1.677 4.067.742.742 0 0 1-.534.225m-6.553-.217a.75.75 0 0 0 .006-1.061 4.26 4.26 0 0 1-1.243-3.013 4.26 4.26 0 0 1 1.243-3.013.75.75 0 0 0-1.067-1.055 5.753 5.753 0 0 0-1.677 4.067 5.75 5.75 0 0 0 1.677 4.067.748.748 0 0 0 1.061.008m10.259 2.43A9.668 9.668 0 0 0 21.75 12c0-2.41-.889-4.72-2.504-6.503a.75.75 0 0 0-1.112 1.007 8.175 8.175 0 0 1 2.115 5.497c0 2.038-.751 3.99-2.115 5.497a.75.75 0 1 0 1.112 1.005m-13.434.053a.75.75 0 0 0 .053-1.06A8.175 8.175 0 0 1 3.75 12c0-2.038.751-3.99 2.115-5.497a.75.75 0 1 0-1.112-1.007 9.668 9.668 0 0 0-2.504 6.503c0 2.41.889 4.72 2.504 6.503a.745.745 0 0 0 .556.247c.18.002.36-.062.503-.192ZM14.25 12c0-1.24-1.01-2.25-2.25-2.25A2.253 2.253 0 0 0 9.75 12c0 1.241 1.01 2.25 2.25 2.25s2.25-1.009 2.25-2.25m-1.5 0a.75.75 0 0 1-1.5 0 .75.75 0 0 1 1.5 0"/></svg>