<svg xmlns="http://www.w3.org/2000/svg" width="24" height="24" fill="none"><path fill="currentColor" d="m20.237 7.763-2.854-2.854a2.235 2.235 0 0 0-1.591-.659h-4.043V3a.75.75 0 0 0-1.5 0v1.25H5.845c-1.65 0-2.596.946-2.596 2.596v4.308c0 1.65.946 2.596 2.596 2.596h4.404v6.5H8a.75.75 0 0 0 0 1.5h6a.75.75 0 0 0 0-1.5h-2.25v-6.5h4.043c.601 0 1.166-.234 1.591-.659l2.854-2.854a1.753 1.753 0 0 0-.001-2.474m-1.06 1.414-2.854 2.854a.744.744 0 0 1-.53.22H5.846c-.82 0-1.096-.276-1.096-1.096V6.847c0-.82.276-1.096 1.096-1.096h9.947c.2 0 .389.078.53.22l2.854 2.854a.25.25 0 0 1 0 .352"/></svg>