<svg xmlns="http://www.w3.org/2000/svg" width="24" height="24" fill="none"><path fill="currentColor" d="M19.091 7.03 14.97 2.909c-.419-.42-1-.659-1.591-.659H8C5.582 2.25 4.25 3.582 4.25 6v12c0 2.418 1.332 3.75 3.75 3.75h8c2.418 0 3.75-1.332 3.75-3.75V8.621c0-.592-.24-1.172-.659-1.591ZM18.25 18c0 1.577-.673 2.25-2.25 2.25H8c-1.577 0-2.25-.673-2.25-2.25V6c0-1.577.673-2.25 2.25-2.25h5.379c.197 0 .39.08.53.22l4.121 4.121c.14.14.22.333.22.53V18Zm-3.357-2a.75.75 0 0 1-.75.75h-3.7a.749.749 0 0 1-.538-1.273s1.085-1.115 2.685-2.72c.567-.569.702-1.26.32-1.646-.361-.365-.746-.392-1.003-.345-.349.06-.65.274-.786.562a.75.75 0 1 1-1.355-.645c.35-.732 1.055-1.254 1.89-1.396.852-.145 1.694.136 2.32.768.975.983.836 2.6-.323 3.762-.54.542-1.022 1.028-1.422 1.434h1.913a.749.749 0 0 1 .75.749Z"/></svg>