<svg xmlns="http://www.w3.org/2000/svg" width="24" height="24" fill="none"><path fill="currentColor" d="M19.091 7.03 14.97 2.909c-.419-.42-1-.659-1.591-.659H8C5.582 2.25 4.25 3.582 4.25 6v12c0 2.418 1.332 3.75 3.75 3.75h8c2.418 0 3.75-1.332 3.75-3.75V8.621c0-.592-.24-1.172-.659-1.591M18.25 18c0 1.577-.673 2.25-2.25 2.25H8c-1.577 0-2.25-.673-2.25-2.25V6c0-1.577.673-2.25 2.25-2.25h5.379c.197 0 .39.08.53.22l4.121 4.121c.14.14.22.333.22.53zM14.5 9.25h-5c-1.409 0-2.25.841-2.25 2.25v5c0 1.409.841 2.25 2.25 2.25h5c1.409 0 2.25-.841 2.25-2.25v-5c0-1.409-.841-2.25-2.25-2.25m.75 2.25v1.75h-2.5v-2.5h1.75c.589 0 .75.161.75.75m-6.5 5v-5c0-.589.161-.75.75-.75h1.75v6.5H9.5c-.589 0-.75-.161-.75-.75m5.75.75h-1.75v-2.5h2.5v1.75c0 .589-.161.75-.75.75"/></svg>