<svg xmlns="http://www.w3.org/2000/svg" width="24" height="24" fill="none"><path fill="currentColor" d="M16 21.75H8c-2.418 0-3.75-1.332-3.75-3.75V6c0-2.418 1.332-3.75 3.75-3.75h5.379c.592 0 1.172.24 1.591.659l4.121 4.121c.42.419.659 1 .659 1.591V18c0 2.418-1.332 3.75-3.75 3.75Zm-8-18c-1.577 0-2.25.673-2.25 2.25v12c0 1.577.673 2.25 2.25 2.25h8c1.577 0 2.25-.673 2.25-2.25V8.621a.753.753 0 0 0-.22-.53L13.909 3.97a.754.754 0 0 0-.53-.22H8ZM12.75 16v-6a.75.75 0 0 0-1.273-.537l-1.5 1.463A.75.75 0 1 0 11.024 12l.227-.22V16a.75.75 0 0 0 1.499 0Z"/></svg>