<svg xmlns="http://www.w3.org/2000/svg" width="24" height="24" fill="none"><path fill="currentColor" d="M20.86 13.59c.09-.54.14-1.07.14-1.58 0-4.96-4.04-9-9-9-.52 0-1.05.05-1.58.14-.87-.58-1.87-.89-2.92-.89-2.9 0-5.25 2.36-5.25 5.25 0 1.05.31 2.05.89 2.92A9.75 9.75 0 0 0 3 12.01c0 4.96 4.04 9 9 9 .52 0 1.05-.05 1.58-.14.87.58 1.87.89 2.92.89 2.9 0 5.25-2.36 5.25-5.25 0-1.05-.3-2.05-.89-2.92Zm-4.37 6.66c-.83 0-1.62-.27-2.28-.78a.755.755 0 0 0-.46-.16c-.05 0-.1 0-.16.02A7.503 7.503 0 0 1 4.49 12c0-.51.06-1.05.17-1.61.04-.21 0-.44-.14-.61-.51-.66-.78-1.45-.78-2.28a3.751 3.751 0 0 1 6.04-2.97c.17.13.4.19.62.14A7.503 7.503 0 0 1 19.5 12c0 .51-.06 1.05-.17 1.61-.04.21 0 .44.14.61.51.66.78 1.45.78 2.28 0 2.07-1.68 3.75-3.75 3.75h-.01Zm0-6.31c0 2.29-2.21 3.35-4.34 3.35-2.54 0-4.66-1.13-4.66-2.52 0-.62.35-1.18 1.14-1.18 1.21 0 1.32 1.74 3.41 1.74.99 0 1.64-.44 1.64-1.02 0-.72-.62-.84-1.63-1.08-2.42-.6-4.56-.85-4.56-3.38 0-2.29 2.27-3.14 4.22-3.14 2.13 0 4.29.85 4.29 2.14 0 .65-.44 1.23-1.17 1.23-1.1 0-1.13-1.3-2.9-1.3-.99 0-1.63.27-1.63.87 0 .77.81.84 2.67 1.28 1.6.36 3.51 1.04 3.51 3l.01.01Z"/></svg>