<svg xmlns="http://www.w3.org/2000/svg" width="24" height="24" fill="none"><path fill="currentColor" d="M7 15.25H3a.75.75 0 0 0 0 1.5h1.25V21a.75.75 0 0 0 1.5 0v-4.25H7a.75.75 0 0 0 0-1.5m-2-2.5a.75.75 0 0 0 .75-.75V3a.75.75 0 0 0-1.5 0v9c0 .414.336.75.75.75m7-1.5a.75.75 0 0 0-.75.75v9a.75.75 0 0 0 1.5 0v-9a.75.75 0 0 0-.75-.75m2-4h-1.25V3a.75.75 0 0 0-1.5 0v4.25H10a.75.75 0 0 0 0 1.5h4a.75.75 0 0 0 0-1.5m7 8h-4a.75.75 0 0 0 0 1.5h1.25V21a.75.75 0 0 0 1.5 0v-4.25H21a.75.75 0 0 0 0-1.5m-2-2.5a.75.75 0 0 0 .75-.75V3a.75.75 0 0 0-1.5 0v9c0 .414.336.75.75.75"/></svg>