<svg xmlns="http://www.w3.org/2000/svg" width="24" height="24" fill="none"><path fill="currentColor" d="M3 5.75h4.25V7a.75.75 0 0 0 1.5 0V3a.75.75 0 0 0-1.5 0v1.25H3a.75.75 0 0 0 0 1.5Zm9 0h9a.75.75 0 0 0 0-1.5h-9a.75.75 0 0 0 0 1.5Zm-9 7h9a.75.75 0 0 0 0-1.5H3a.75.75 0 0 0 0 1.5Zm18-1.5h-4.25V10a.75.75 0 0 0-1.5 0v4a.75.75 0 0 0 1.5 0v-1.25H21a.75.75 0 0 0 0-1.5Zm-13 5a.75.75 0 0 0-.75.75v1.25H3a.75.75 0 0 0 0 1.5h4.25V21a.75.75 0 0 0 1.5 0v-4a.75.75 0 0 0-.75-.75Zm13 2h-9a.75.75 0 0 0 0 1.5h9a.75.75 0 0 0 0-1.5Z"/></svg>