<svg xmlns="http://www.w3.org/2000/svg" width="24" height="24" fill="none"><path fill="currentColor" d="M17 2.25A3.754 3.754 0 0 0 13.25 6 3.754 3.754 0 0 0 17 9.75 3.754 3.754 0 0 0 20.75 6 3.754 3.754 0 0 0 17 2.25m0 6A2.252 2.252 0 0 1 14.75 6 2.252 2.252 0 0 1 17 3.75 2.252 2.252 0 0 1 19.25 6 2.252 2.252 0 0 1 17 8.25m-10 6A3.754 3.754 0 0 0 3.25 18 3.754 3.754 0 0 0 7 21.75 3.754 3.754 0 0 0 10.75 18 3.754 3.754 0 0 0 7 14.25m0 6A2.252 2.252 0 0 1 4.75 18 2.252 2.252 0 0 1 7 15.75 2.252 2.252 0 0 1 9.25 18 2.252 2.252 0 0 1 7 20.25m10-6a.75.75 0 0 0-.75.75v6a.75.75 0 0 0 1.5 0v-6a.75.75 0 0 0-.75-.75M7 9.75A.75.75 0 0 0 7.75 9V3a.75.75 0 0 0-1.5 0v6c0 .414.336.75.75.75"/></svg>