<svg xmlns="http://www.w3.org/2000/svg" width="24" height="24" fill="none"><path fill="currentColor" d="M21.7 16.49c-.16-.53-.69-.83-.79-.87a2.04 2.04 0 0 0-.15-.08c-.56-.27-1.06-.6-1.47-.96-.33-.3-.61-.61-.83-.94-.17-.25-.28-.47-.34-.64.17-.11.36-.24.54-.35.17-.11.31-.2.4-.26.39-.28.67-.57.85-.91.25-.48.29-1.03.09-1.54-.31-.83-1.15-1.3-2.16-1.13 0-.5 0-1.01-.04-1.43-.07-.75-.22-1.38-.48-1.94-.27-.6-.62-1.02-.86-1.28-.26-.29-.7-.72-1.36-1.1-1.83-1.05-4.33-1.06-6.19 0-.7.4-1.15.86-1.36 1.1-.26.3-.59.71-.85 1.28-.26.56-.41 1.2-.48 1.94-.03.38-.05.86-.04 1.42-.13-.02-.26-.03-.39-.03-.82 0-1.49.45-1.76 1.17-.2.52-.16 1.06.09 1.54.17.33.45.63.85.91.09.06.23.15.45.29.13.09.32.21.49.32-.07.17-.18.39-.35.64-.22.33-.5.65-.83.94-.42.37-.92.7-1.47.96-.05.02-.11.05-.13.07-.16.08-.68.38-.83.9-.18.63.12 1.31.77 1.73.54.35 1.16.53 1.58.64h.03c.1.42.32.75.64.98.44.3.93.32 1.41.34.39.01.87.03 1.4.21.21.07.42.2.7.37.68.42 1.61.99 3.17.99 1.56 0 2.49-.57 3.2-1 .26-.16.47-.29.67-.35.52-.17.98-.19 1.4-.21.48-.02.97-.04 1.41-.34.32-.22.53-.53.64-.97l.1-.03c.34-.09.8-.22 1.36-.53.92-.53 1.07-1.32.92-1.83zm-1.48.39s-.08.08-.17.13c-.39.22-.7.31-1.06.4l-.31.09c-.25.09-.43.21-.56.38-.15.21-.19.42-.22.58-.02.11-.04.14-.05.14-.08.06-.37.07-.64.08-.46.02-1.08.05-1.8.28-.36.12-.66.3-1.01.52-.62.38-1.25.77-2.39.77-1.14 0-1.77-.39-2.39-.77-.33-.2-.64-.39-1.01-.52-.74-.24-1.39-.27-1.82-.28-.25 0-.53-.02-.61-.07-.02-.01-.03-.05-.06-.17a1.18 1.18 0 0 0-.23-.57c-.13-.16-.32-.29-.58-.38-.08-.03-.18-.05-.28-.08-.32-.08-.78-.22-1.14-.45-.02-.01-.04-.03-.06-.04.02-.01.06-.03.07-.04a8.29 8.29 0 0 0 1.82-1.19c.43-.38.79-.8 1.08-1.23.35-.53.53-.99.62-1.3a1.088 1.088 0 0 0-.43-1.24c-.22-.16-.56-.38-.82-.55-.15-.1-.29-.19-.36-.24-.19-.13-.32-.26-.38-.37-.05-.1-.06-.2-.01-.31.07-.18.32-.23.55-.18.25.05.48.15.62.19.23.12.53.1.75-.03a.8.8 0 0 0 .37-.69c-.04-.97-.04-1.73 0-2.25.05-.57.16-1.05.35-1.45.18-.39.42-.69.62-.92.12-.13.44-.48.97-.78 1.4-.79 3.32-.79 4.7 0 .48.27.79.58.98.79.19.21.43.51.62.92.18.4.3.88.35 1.45.05.64.04 1.58 0 2.28 0 .26.15.52.37.66.2.12.47.15.68.06.2-.08.43-.17.67-.22.29-.06.49 0 .56.18.04.11.04.21-.01.31-.06.12-.19.24-.38.37-.08.05-.21.14-.43.28s-.55.36-.77.51c-.1.07-.28.23-.4.48-.09.23-.1.45-.02.75.07.24.24.72.62 1.29.29.44.65.85 1.08 1.24.52.46 1.13.86 1.82 1.19l.11-.01z"/></svg>