<svg xmlns="http://www.w3.org/2000/svg" width="24" height="24" fill="none"><path fill="currentColor" d="M19.75 7.367V7A2.753 2.753 0 0 0 17 4.25H7A2.753 2.753 0 0 0 4.25 7v.367a2.745 2.745 0 0 0-2 2.633v5c0 2.418 1.332 3.75 3.75 3.75h1.25V20a.75.75 0 0 0 1.5 0v-1.25h6.5V20a.75.75 0 0 0 1.5 0v-1.25H18c2.418 0 3.75-1.332 3.75-3.75v-5a2.745 2.745 0 0 0-2-2.633M7 5.75h10c.689 0 1.25.561 1.25 1.25v.367a2.745 2.745 0 0 0-2 2.633v3.25h-8.5V10a2.745 2.745 0 0 0-2-2.633V7c0-.689.561-1.25 1.25-1.25M20.25 15c0 1.577-.673 2.25-2.25 2.25H6c-1.577 0-2.25-.673-2.25-2.25v-5c0-.689.561-1.25 1.25-1.25s1.25.561 1.25 1.25v4c0 .414.336.75.75.75h10a.75.75 0 0 0 .75-.75v-4c0-.689.561-1.25 1.25-1.25s1.25.561 1.25 1.25z"/></svg>