<svg xmlns="http://www.w3.org/2000/svg" width="24" height="24" fill="none"><path fill="currentColor" d="M12 21.75a.75.75 0 0 1-.721-.544l-.779-2.727A7.207 7.207 0 0 0 5.521 13.5l-2.727-.779a.75.75 0 0 1 0-1.442l2.727-.779A7.207 7.207 0 0 0 10.5 5.521l.779-2.727a.75.75 0 0 1 1.442 0l.779 2.727a7.207 7.207 0 0 0 4.979 4.979l2.727.779a.75.75 0 0 1 0 1.442l-2.727.779a7.207 7.207 0 0 0-4.979 4.979l-.779 2.727a.75.75 0 0 1-.721.544M5.73 12l.203.058a8.701 8.701 0 0 1 6.01 6.01l.058.202.058-.202a8.701 8.701 0 0 1 6.01-6.01L18.27 12l-.203-.058a8.701 8.701 0 0 1-6.01-6.01L12 5.731l-.058.202a8.701 8.701 0 0 1-6.01 6.01z"/></svg>