<svg xmlns="http://www.w3.org/2000/svg" width="24" height="24" fill="none"><path fill="currentColor" d="M16 2.25H8C5.582 2.25 4.25 3.582 4.25 6v12c0 2.418 1.332 3.75 3.75 3.75h8c2.418 0 3.75-1.332 3.75-3.75V6c0-2.418-1.332-3.75-3.75-3.75M18.25 18c0 1.577-.673 2.25-2.25 2.25H8c-1.577 0-2.25-.673-2.25-2.25V6c0-1.577.673-2.25 2.25-2.25h8c1.577 0 2.25.673 2.25 2.25zM12 10.25a4.255 4.255 0 0 0-4.25 4.25A4.255 4.255 0 0 0 12 18.75a4.255 4.255 0 0 0 4.25-4.25A4.255 4.255 0 0 0 12 10.25m0 7a2.752 2.752 0 0 1-2.75-2.75A2.752 2.752 0 0 1 12 11.75a2.752 2.752 0 0 1 2.75 2.75A2.752 2.752 0 0 1 12 17.25M11 7a1 1 0 1 1 2 0 1 1 0 0 1-2 0m2.25 7.5a1.25 1.25 0 1 1-2.5 0 1.25 1.25 0 0 1 2.5 0"/></svg>