<svg xmlns="http://www.w3.org/2000/svg" width="24" height="24" fill="none"><path fill="currentColor" d="M18 4.25H6C3.58 4.25 2.25 5.58 2.25 8v8c0 2.42 1.33 3.75 3.75 3.75h12c2.42 0 3.75-1.33 3.75-3.75V8c0-2.42-1.33-3.75-3.75-3.75Zm2.25 10H19c-.14 0-.25-.11-.25-.25v-4c0-.14.11-.25.25-.25h1.25v4.5Zm-8.25-.5c-.96 0-1.75-.79-1.75-1.75s.79-1.75 1.75-1.75 1.75.79 1.75 1.75-.79 1.75-1.75 1.75Zm-8.25-4H5c.14 0 .25.11.25.25v4c0 .14-.11.25-.25.25H3.75v-4.5Zm0 6.25v-.25H5c.96 0 1.75-.79 1.75-1.75v-4c0-.96-.79-1.75-1.75-1.75H3.75V8c0-1.58.67-2.25 2.25-2.25h5.25v3.1c-1.43.34-2.5 1.62-2.5 3.15 0 1.53 1.07 2.81 2.5 3.15v3.1H6c-1.58 0-2.25-.67-2.25-2.25ZM18 18.25h-5.25v-3.1c1.43-.34 2.5-1.62 2.5-3.15 0-1.53-1.07-2.81-2.5-3.15v-3.1H18c1.58 0 2.25.67 2.25 2.25v.25H19c-.96 0-1.75.79-1.75 1.75v4c0 .96.79 1.75 1.75 1.75h1.25V16c0 1.58-.67 2.25-2.25 2.25Z"/></svg>