<svg xmlns="http://www.w3.org/2000/svg" width="24" height="24" fill="none"><path fill="currentColor" d="M18.073 18.75c-.238 0-.479-.057-.7-.174l-2.745-1.436-2.704 1.435a1.5 1.5 0 0 1-1.588-.117 1.497 1.497 0 0 1-.598-1.472l.523-3.035-2.275-2.18c-.4-.39-.543-.961-.37-1.492a1.447 1.447 0 0 1 1.177-.992l3.164-.458 1.339-2.741a1.498 1.498 0 0 1 1.352-.838c.577 0 1.095.321 1.351.838l1.371 2.765 3.132.434c.554.08 1.005.46 1.177.992.173.531.03 1.103-.37 1.492l-2.288 2.22.537 2.998a1.493 1.493 0 0 1-.599 1.471c-.265.192-.574.29-.886.29m-3.427-3.105c.232 0 .465.055.677.167l2.745 1.436-.514-3.042a1.451 1.451 0 0 1 .42-1.291l2.288-2.22-3.141-.381a1.454 1.454 0 0 1-1.098-.796l-1.37-2.763-.004-.006-1.382 2.771a1.457 1.457 0 0 1-1.097.795l-3.164.458 2.312 2.143c.344.334.502.816.421 1.29l-.523 3.037 2.754-1.43a1.44 1.44 0 0 1 .676-.168M7.75 17a.75.75 0 0 0-.75-.75H3a.75.75 0 0 0 0 1.5h4a.75.75 0 0 0 .75-.75m-2-5a.75.75 0 0 0-.75-.75H3a.75.75 0 0 0 0 1.5h2a.75.75 0 0 0 .75-.75m2-5A.75.75 0 0 0 7 6.25H3a.75.75 0 0 0 0 1.5h4A.75.75 0 0 0 7.75 7"/></svg>