<svg xmlns="http://www.w3.org/2000/svg" width="24" height="24" fill="none"><path fill="currentColor" d="M21.218 11.951a1.738 1.738 0 0 0 .445-1.793 1.74 1.74 0 0 0-1.415-1.193l-4.482-.648a.251.251 0 0 1-.189-.137l-1.942-3.917a1.813 1.813 0 0 0-1.634-1.013c-.698 0-1.324.388-1.634 1.013L8.424 8.181a.25.25 0 0 1-.188.136l-4.482.648a1.738 1.738 0 0 0-1.415 1.193 1.737 1.737 0 0 0 .445 1.793l3.241 3.146a.246.246 0 0 1 .071.22l-.741 4.301a1.808 1.808 0 0 0 .723 1.779 1.814 1.814 0 0 0 1.921.142l3.885-2.033a.247.247 0 0 1 .11-.027l.008.002.009-.002a.247.247 0 0 1 .109.027l3.888 2.035a1.807 1.807 0 0 0 1.919-.142c.563-.41.84-1.091.722-1.777l-.741-4.303a.249.249 0 0 1 .072-.221l3.238-3.147ZM7.302 20.209a.315.315 0 0 1-.343-.025.308.308 0 0 1-.127-.312l.741-4.301a1.747 1.747 0 0 0-.506-1.551l-3.24-3.145a.236.236 0 0 1-.063-.254.242.242 0 0 1 .203-.171l4.482-.648a1.746 1.746 0 0 0 1.318-.955l1.482-2.99v12.295c-.02.01-.043.013-.063.024l-3.884 2.033Zm9.125-4.638.741 4.304a.303.303 0 0 1-.126.31.31.31 0 0 1-.34.025l-3.889-2.035c-.02-.01-.043-.014-.063-.024V5.857l1.481 2.988c.255.516.748.874 1.32.956l4.481.648a.24.24 0 0 1 .203.171.238.238 0 0 1-.063.254l-3.239 3.144a1.752 1.752 0 0 0-.506 1.553Z"/></svg>