<svg xmlns="http://www.w3.org/2000/svg" width="24" height="24" fill="none"><path fill="currentColor" d="M15.775 21.75c-.25 0-.503-.06-.736-.182l-3.024-1.583-3.051 1.581a1.578 1.578 0 0 1-1.669-.123c-.49-.357-.73-.95-.628-1.547l.576-3.344-2.529-2.469a1.518 1.518 0 0 1-.389-1.566 1.519 1.519 0 0 1 1.235-1.041l3.486-.504L10.58 7.91c.27-.543.813-.88 1.42-.88s1.15.337 1.42.88l1.511 3.047 3.509.52a1.516 1.516 0 0 1 1.235 1.041 1.516 1.516 0 0 1-.389 1.566l-2.52 2.446.568 3.371a1.573 1.573 0 0 1-.627 1.546c-.277.2-.602.303-.93.303ZM12 18.481c.244 0 .488.058.71.175l3.024 1.583.121-.085-.577-3.347a1.532 1.532 0 0 1 .44-1.354l2.522-2.447-3.503-.55a1.528 1.528 0 0 1-1.152-.835l-1.51-3.046c-.008-.015-.023-.047-.076-.047l-1.587 3.094a1.53 1.53 0 0 1-1.151.834l-3.486.504 2.505 2.492c.361.352.525.857.441 1.353l-.576 3.346.123.086 3.021-1.581a1.53 1.53 0 0 1 .711-.175ZM6.75 9V3a.75.75 0 0 0-1.5 0v6a.75.75 0 0 0 1.5 0Zm6-4V3a.75.75 0 0 0-1.5 0v2a.75.75 0 0 0 1.5 0Zm6 4V3a.75.75 0 0 0-1.5 0v6a.75.75 0 0 0 1.5 0Z"/></svg>