<svg xmlns="http://www.w3.org/2000/svg" width="24" height="24" fill="none"><path fill="currentColor" d="M12.368 20.75a1.766 1.766 0 0 1-1.447-.752l-2.42-3.427a.202.202 0 0 0-.175-.089l-4.339.065H3.96a1.697 1.697 0 0 1-1.521-.931 1.704 1.704 0 0 1 .154-1.804l2.606-3.488a.213.213 0 0 0 .03-.197L3.888 6.145a1.77 1.77 0 0 1 .43-1.829 1.77 1.77 0 0 1 1.829-.429l3.98 1.343c.069.022.142.01.196-.032l3.487-2.606a1.7 1.7 0 0 1 1.803-.154 1.7 1.7 0 0 1 .933 1.548l-.065 4.341a.209.209 0 0 0 .089.175l3.429 2.421c.556.392.836 1.054.729 1.727a1.77 1.77 0 0 1-1.228 1.424l-4.026 1.26a.217.217 0 0 0-.141.142l-1.26 4.022a1.772 1.772 0 0 1-1.424 1.229 1.643 1.643 0 0 1-.28.023Zm-4.04-5.768c.558 0 1.078.269 1.399.724l2.418 3.427a.268.268 0 0 0 .271.114.273.273 0 0 0 .226-.195l1.259-4.023a1.719 1.719 0 0 1 1.125-1.125l4.026-1.26a.266.266 0 0 0 .193-.225.265.265 0 0 0-.113-.269l-3.429-2.421a1.71 1.71 0 0 1-.724-1.423l.065-4.34a.2.2 0 0 0-.114-.19.2.2 0 0 0-.223.02L11.22 6.402a1.713 1.713 0 0 1-1.572.251L5.666 5.31a.269.269 0 0 0-.29.068.269.269 0 0 0-.067.289L6.652 9.65a1.717 1.717 0 0 1-.251 1.572L3.794 14.71a.204.204 0 0 0-.02.224.264.264 0 0 0 .189.114l4.34-.065.026-.001ZM21.53 21.53a.75.75 0 0 0 0-1.061l-3-3a.75.75 0 0 0-1.061 1.061l3 3a.748.748 0 0 0 1.061 0"/></svg>