<svg xmlns="http://www.w3.org/2000/svg" width="24" height="24" fill="none"><path fill="currentColor" d="M17.625 21.75H6.375c-2.66 0-4.125-1.465-4.125-4.125V6.375c0-2.66 1.465-4.125 4.125-4.125h11.25c2.66 0 4.125 1.465 4.125 4.125v11.25c0 2.66-1.465 4.125-4.125 4.125m-11.25-18c-1.84 0-2.625.785-2.625 2.625v11.25c0 1.84.785 2.625 2.625 2.625h11.25c1.84 0 2.625-.785 2.625-2.625V6.375c0-1.84-.785-2.625-2.625-2.625zm8.321 13.75c-.214 0-.429-.052-.627-.156L12 16.255l-2.067 1.088c-.458.24-1 .201-1.417-.102a1.34 1.34 0 0 1-.536-1.32l.395-2.305-1.729-1.687a1.302 1.302 0 0 1-.331-1.342 1.3 1.3 0 0 1 1.056-.89l2.389-.348 1.034-2.098c.229-.464.69-.751 1.207-.751.517 0 .979.288 1.207.752l1.034 2.098 2.39.348c.495.072.899.413 1.055.89.155.477.028.992-.331 1.342l-1.729 1.687.396 2.307a1.34 1.34 0 0 1-.537 1.319c-.237.17-.512.257-.79.257M12 14.729c.209 0 .418.05.608.151l1.882.991-.359-2.099a1.308 1.308 0 0 1 .376-1.159l1.523-1.487-2.106-.306a1.304 1.304 0 0 1-.983-.717l-.94-1.907-.94 1.908c-.19.386-.558.654-.983.716l-2.106.306 1.523 1.487c.309.3.449.734.376 1.159l-.359 2.098 1.882-.991c.188-.1.397-.15.606-.15m4.415-3.547h.01zm-4.554-3.268c0 .001 0 .001 0 0 0 .001 0 .001 0 0"/></svg>