<svg xmlns="http://www.w3.org/2000/svg" width="24" height="24" fill="none"><path fill="currentColor" d="M14 2.25c-4.42 0-7.75 3.33-7.75 7.75 0 1.8-.91 2.59-1.96 3.5-.96.83-2.04 1.77-2.04 3.5 0 3.76 3.76 4.75 5.75 4.75 10.15 0 13.75-6.06 13.75-11.25S18.71 2.25 14 2.25m-6 18c-.17 0-4.25-.04-4.25-3.25 0-1 .55-1.53 1.53-2.37 1.1-.95 2.47-2.14 2.47-4.63 0-3.56 2.69-6.25 6.25-6.25 3.02 0 6.25 1.77 6.25 6.75 0 1.63-.59 9.75-12.25 9.75m6-15c-2.75 0-4.75 2-4.75 4.75s-.94 3.61-2.02 4.51l-.42.36c-.34.29-1.39 1.17-1.04 2.49.3 1.13 1.41 1.53 2.27 1.53 10.41 0 10.71-7.53 10.71-8.39 0-3.34-1.73-5.25-4.75-5.25M8.04 17.39s-.71 0-.82-.41c-.09-.34.15-.62.55-.96 0 0 .07-.06.08-.06l.34-.29c1.2-1 2.56-2.13 2.56-5.66 0-1.94 1.31-3.25 3.25-3.25 2.19 0 3.25 1.23 3.25 3.75 0 1.15-.44 6.89-9.21 6.89zM15.27 10a1.25 1.25 0 1 1-2.5 0 1.25 1.25 0 0 1 2.5 0"/></svg>