<svg xmlns="http://www.w3.org/2000/svg" width="24" height="24" fill="none"><path fill="currentColor" d="M17.857 3.587a3.304 3.304 0 0 0-3.514.385L7.528 9.354c-.323.255-.573.57-.778.91V4a.75.75 0 0 0-1.5 0v16a.75.75 0 0 0 1.5 0v-6.267c.206.34.456.656.778.911l6.815 5.383a3.314 3.314 0 0 0 3.514.386 3.341 3.341 0 0 0 1.893-3.03V6.618a3.342 3.342 0 0 0-1.893-3.031m.393 13.795c0 .734-.392 1.363-1.047 1.68a1.794 1.794 0 0 1-1.93-.212l-6.815-5.383a1.859 1.859 0 0 1-.708-1.468c0-.578.258-1.113.708-1.468l6.815-5.382a1.795 1.795 0 0 1 1.93-.212 1.828 1.828 0 0 1 1.047 1.68z"/></svg>