<svg xmlns="http://www.w3.org/2000/svg" width="24" height="24" fill="none"><path fill="currentColor" d="M18 3.25a.75.75 0 0 0-.75.75v6.266a3.348 3.348 0 0 0-.778-.911L9.657 3.973a3.306 3.306 0 0 0-3.514-.385 3.341 3.341 0 0 0-1.893 3.03v10.765c0 1.303.726 2.464 1.893 3.03.466.226.962.336 1.455.336.731 0 1.455-.245 2.059-.722l6.815-5.383c.323-.255.573-.57.778-.911V20a.75.75 0 0 0 1.5 0V4a.75.75 0 0 0-.75-.75Zm-2.458 10.217L8.727 18.85a1.795 1.795 0 0 1-1.93.212 1.828 1.828 0 0 1-1.047-1.68V6.617c0-.734.392-1.363 1.047-1.68.261-.126.533-.188.804-.188.398 0 .79.135 1.126.4l6.815 5.382c.45.355.708.891.708 1.468 0 .578-.258 1.113-.708 1.468Z"/></svg>