<svg xmlns="http://www.w3.org/2000/svg" width="24" height="24" fill="none"><path fill="currentColor" d="M21.75 10A2.752 2.752 0 0 0 19 7.25 2.752 2.752 0 0 0 16.25 10c0 1.255.849 2.304 2 2.633V15.5a4.756 4.756 0 0 1-4.75 4.75 4.756 4.756 0 0 1-4.75-4.75v-.814c3.014-.318 5-2.507 5-5.686V4.5c0-1.409-.841-2.25-2.25-2.25H11a.75.75 0 0 0 0 1.5h.5c.589 0 .75.161.75.75V9c0 2.582-1.668 4.25-4.25 4.25S3.75 11.582 3.75 9V4.5c0-.589.161-.75.75-.75H5a.75.75 0 0 0 0-1.5h-.5c-1.409 0-2.25.841-2.25 2.25V9c0 3.178 1.986 5.368 5 5.686v.814a6.257 6.257 0 0 0 6.25 6.25 6.257 6.257 0 0 0 6.25-6.25v-2.867a2.745 2.745 0 0 0 2-2.633ZM19 11.25c-.689 0-1.25-.561-1.25-1.25s.561-1.25 1.25-1.25 1.25.561 1.25 1.25-.561 1.25-1.25 1.25Z"/></svg>