<svg xmlns="http://www.w3.org/2000/svg" width="24" height="24" fill="none"><path fill="currentColor" d="M17.625 2.25H6.375c-2.66 0-4.125 1.465-4.125 4.125v11.25c0 2.66 1.465 4.125 4.125 4.125h6.478a4.094 4.094 0 0 0 2.916-1.208l4.773-4.773a4.096 4.096 0 0 0 1.208-2.917V6.375c0-2.66-1.465-4.125-4.125-4.125Zm-11.25 18c-1.84 0-2.625-.785-2.625-2.625V6.375c0-1.84.785-2.625 2.625-2.625h11.25c1.84 0 2.625.785 2.625 2.625v6.477c0 .223-.037.438-.09.648h-3.285a3.379 3.379 0 0 0-3.375 3.375v3.285c-.21.053-.425.09-.647.09H6.375ZM15 19.189v-2.314c0-1.034.841-1.875 1.875-1.875h2.314L15 19.189ZM7.25 9.5A.75.75 0 0 1 8 8.75h8a.75.75 0 0 1 0 1.5H8a.75.75 0 0 1-.75-.75Zm5.5 4.5a.75.75 0 0 1-.75.75H8a.75.75 0 0 1 0-1.5h4a.75.75 0 0 1 .75.75Z"/></svg>