<svg xmlns="http://www.w3.org/2000/svg" width="24" height="24" fill="none"><path fill="currentColor" d="M9.02 11.25a1.25 1.25 0 1 1 0-2.5 1.25 1.25 0 0 1 0 2.5Zm5.65 2.95a.748.748 0 0 0-1-.34c-1.02.51-2.27.52-3.34 0a.752.752 0 0 0-1 .35c-.18.37-.02.82.35 1 .73.35 1.51.53 2.31.53s1.62-.18 2.34-.54c.37-.18.52-.63.34-1.01v.01Zm-.9-3.55c.36.21.82.08 1.02-.28.09-.15.33-.15.42 0 .14.24.39.38.65.38.12 0 .25-.03.37-.1.36-.2.49-.66.28-1.02-.31-.54-.89-.88-1.51-.88s-1.21.34-1.51.88c-.2.36-.08.82.28 1.02ZM22.75 12v.51c0 1.8-.7 3.5-1.98 4.77l-3.48 3.48a6.736 6.736 0 0 1-4.77 1.98h-.51c-2.93 0-5.66-1.16-7.71-3.25-2.04-2.1-3.12-4.87-3.04-7.8C1.42 6.09 6.1 1.4 11.7 1.25c2.95-.08 5.7 1 7.8 3.04 2.1 2.04 3.25 4.78 3.25 7.71Zm-10.24 9.25c.6 0 1.18-.12 1.74-.31V19c0-2.62 2.13-4.75 4.75-4.75h1.94c.19-.55.31-1.13.31-1.74V12c0-2.52-1-4.87-2.8-6.63A9.193 9.193 0 0 0 12 2.75h-.26c-4.82.13-8.85 4.16-8.98 8.98-.07 2.52.86 4.91 2.62 6.71a9.163 9.163 0 0 0 6.63 2.8h.51l-.01.01Zm7.2-5.02c.15-.15.26-.32.39-.48H19c-1.79 0-3.25 1.46-3.25 3.25v1.1c.16-.13.33-.24.48-.39l3.48-3.48Z"/></svg>