<svg xmlns="http://www.w3.org/2000/svg" width="24" height="24" fill="none"><path fill="currentColor" d="M13.76 10a1.25 1.25 0 1 1 2.5 0 1.25 1.25 0 0 1-2.5 0m-3.5 0a1.25 1.25 0 0 0-2.5 0c0 .69.57 1.25 1.25 1.25s1.25-.56 1.25-1.25m4.4 4.2a.748.748 0 0 0-1-.34c-1.02.51-2.27.52-3.34 0a.752.752 0 0 0-1 .35c-.18.37-.02.82.35 1 .73.35 1.51.53 2.31.53s1.62-.18 2.34-.54c.37-.18.52-.63.34-1.01zm8.08-2.2v.51c0 1.8-.7 3.5-1.98 4.77l-3.48 3.48a6.736 6.736 0 0 1-4.77 1.98H12c-2.93 0-5.66-1.16-7.71-3.25-2.04-2.1-3.12-4.87-3.04-7.8.16-5.6 4.84-10.29 10.44-10.44 2.96-.08 5.7 1 7.8 3.04 2.1 2.04 3.25 4.78 3.25 7.71M12.5 21.25c.6 0 1.18-.12 1.74-.31V19c0-2.62 2.13-4.75 4.75-4.75h1.94c.19-.55.31-1.13.31-1.74V12c0-2.52-1-4.87-2.8-6.63a9.193 9.193 0 0 0-6.45-2.62h-.26c-4.82.13-8.85 4.16-8.98 8.98-.07 2.52.86 4.91 2.62 6.71a9.163 9.163 0 0 0 6.63 2.8h.51zm7.2-5.02c.15-.15.26-.32.39-.48h-1.1c-1.79 0-3.25 1.46-3.25 3.25v1.1c.16-.13.33-.24.48-.39z"/></svg>