<svg xmlns="http://www.w3.org/2000/svg" width="24" height="24" fill="none"><path fill="currentColor" d="M13.76 10a1.25 1.25 0 1 1 2.5 0 1.25 1.25 0 0 1-2.5 0m-3.5 0a1.25 1.25 0 0 0-2.5 0c0 .69.57 1.25 1.25 1.25s1.25-.56 1.25-1.25m4.4 4.2a.748.748 0 0 0-1-.34c-1.02.51-2.27.52-3.34 0a.752.752 0 0 0-1 .35c-.18.37-.02.82.35 1 .73.35 1.51.53 2.31.53s1.62-.18 2.34-.54c.37-.18.52-.63.34-1.01zm7.08-7.83v7.38c0 1-.39 1.94-1.1 2.65l-4.24 4.24c-.7.7-1.66 1.1-2.65 1.1H6.37c-2.78 0-4.12-1.35-4.12-4.12V6.37c0-2.78 1.35-4.12 4.12-4.12h11.25c2.78 0 4.12 1.35 4.12 4.12m-7.99 13.88c.17 0 .33-.02.49-.06V18.5a4.26 4.26 0 0 1 4.25-4.25h1.69c.04-.16.06-.32.06-.49V6.38c0-1.96-.66-2.62-2.62-2.62H6.37c-1.96 0-2.62.66-2.62 2.62v11.25c0 1.96.66 2.62 2.62 2.62zm5.43-4.5h-.69c-1.52 0-2.75 1.23-2.75 2.75v.69z"/></svg>