<svg xmlns="http://www.w3.org/2000/svg" width="24" height="24" fill="none"><path fill="currentColor" d="M12.185 1.25h-.37C5.99 1.25 1.252 5.989 1.252 11.815v.37c0 5.826 4.739 10.565 10.565 10.565a7.184 7.184 0 0 0 5.113-2.118l3.703-3.703a7.183 7.183 0 0 0 2.118-5.114c0-5.826-4.739-10.565-10.565-10.565ZM2.75 12.185v-.37c0-5 4.066-9.065 9.065-9.065h.37c4.998 0 9.064 4.066 9.064 9.065a5.68 5.68 0 0 1-.271 1.657h-2.312a5.2 5.2 0 0 0-5.194 5.194v2.313c-.533.161-1.084.271-1.657.271-5 0-9.065-4.066-9.065-9.065Zm13.118 7.386a5.756 5.756 0 0 1-.896.73v-1.635a3.698 3.698 0 0 1 3.694-3.694h1.635c-.211.319-.454.62-.73.896l-3.703 3.703Z"/></svg>