<svg xmlns="http://www.w3.org/2000/svg" width="24" height="24" fill="none"><path fill="currentColor" d="M7.361 9.5a.75.75 0 0 1 .75-.75H16a.75.75 0 0 1 0 1.5H8.111a.75.75 0 0 1-.75-.75ZM12 13.25H8a.75.75 0 0 0 0 1.5h4a.75.75 0 0 0 0-1.5Zm10.75-1.435a7.183 7.183 0 0 1-2.118 5.114l-3.703 3.703a7.186 7.186 0 0 1-5.113 2.118C5.99 22.75 1.25 18.011 1.25 12.185v-.37C1.251 5.989 5.99 1.25 11.816 1.25h.37c5.825 0 10.564 4.739 10.564 10.565ZM11.815 21.25c.573 0 1.124-.11 1.657-.271v-2.313a5.2 5.2 0 0 1 5.194-5.194h2.312c.161-.533.271-1.084.271-1.657 0-5-4.066-9.065-9.065-9.065h-.37c-4.998 0-9.064 4.066-9.064 9.065v.37c0 5 4.066 9.065 9.065 9.065Zm7.756-5.382c.277-.276.52-.577.731-.896h-1.635a3.698 3.698 0 0 0-3.694 3.694v1.635a5.85 5.85 0 0 0 .896-.73l3.702-3.703Z"/></svg>