<svg xmlns="http://www.w3.org/2000/svg" width="24" height="24" fill="none"><path fill="currentColor" d="M11.745 20.882a.751.751 0 0 1-.657.833 4.83 4.83 0 0 1-.588.035c-4.549 0-8.25-3.701-8.25-8.25 0-4.549 3.701-8.25 8.25-8.25 1.849 0 3.583.633 4.986 1.703l.984-.984a.75.75 0 1 1 1.061 1.061l-.943.943a8.132 8.132 0 0 1 1.68 2.779.75.75 0 0 1-1.416.496A6.735 6.735 0 0 0 10.5 6.75a6.758 6.758 0 0 0-6.75 6.75 6.758 6.758 0 0 0 6.75 6.75c.14 0 .272-.008.412-.024a.74.74 0 0 1 .833.656M9.75 10v3.5a.75.75 0 0 0 1.5 0V10a.75.75 0 0 0-1.5 0M8 3.75h5a.75.75 0 0 0 0-1.5H8a.75.75 0 0 0 0 1.5M22.75 17v2c0 2.418-1.332 3.75-3.75 3.75h-2c-2.418 0-3.75-1.332-3.75-3.75v-2c0-2.418 1.332-3.75 3.75-3.75h2c2.418 0 3.75 1.332 3.75 3.75m-1.5 0c0-1.577-.673-2.25-2.25-2.25h-2c-1.577 0-2.25.673-2.25 2.25v2c0 1.577.673 2.25 2.25 2.25h2c1.577 0 2.25-.673 2.25-2.25zm-2 .25h-2.5a.75.75 0 0 0 0 1.5h2.5a.75.75 0 0 0 0-1.5"/></svg>