<svg xmlns="http://www.w3.org/2000/svg" width="24" height="24" fill="none"><path fill="currentColor" d="M12 22.75C6.072 22.75 1.25 17.928 1.25 12S6.072 1.25 12 1.25 22.75 6.072 22.75 12 17.928 22.75 12 22.75m0-20c-5.101 0-9.25 4.149-9.25 9.25s4.149 9.25 9.25 9.25 9.25-4.149 9.25-9.25S17.101 2.75 12 2.75m2.188 13.5H9.813c-1.291 0-2.062-.771-2.062-2.062V9.813c0-1.292.771-2.062 2.062-2.062h4.375c1.291 0 2.062.771 2.062 2.062v4.375c0 1.291-.771 2.062-2.062 2.062m-4.376-7c-.463 0-.562.1-.562.562v4.375c0 .462.1.562.562.562h4.375c.463 0 .562-.1.562-.562V9.812c0-.462-.1-.562-.562-.562z"/></svg>