<svg xmlns="http://www.w3.org/2000/svg" width="24" height="24" fill="none"><path fill="currentColor" d="m17.598 7.963.933-.933a.75.75 0 0 0-1.061-1.061l-.978.978A8.197 8.197 0 0 0 11.5 5.25c-4.549 0-8.25 3.701-8.25 8.25 0 4.549 3.701 8.25 8.25 8.25 4.549 0 8.25-3.701 8.25-8.25 0-2.132-.82-4.071-2.152-5.537M11.5 20.25a6.758 6.758 0 0 1-6.75-6.75 6.758 6.758 0 0 1 6.75-6.75 6.758 6.758 0 0 1 6.75 6.75 6.758 6.758 0 0 1-6.75 6.75m2.45-5.85a.75.75 0 0 1-.9 1.2l-2-1.5a.753.753 0 0 1-.301-.6V10a.75.75 0 0 1 1.5 0v3.125zM8.25 3A.75.75 0 0 1 9 2.25h5a.75.75 0 0 1 0 1.5H9A.75.75 0 0 1 8.25 3"/></svg>