<svg xmlns="http://www.w3.org/2000/svg" width="24" height="24" fill="none"><path fill="currentColor" d="M18.66 4.25h-3.224c-.521-1.296-1.69-2-3.436-2H6C3.582 2.25 2.25 3.582 2.25 6v12c0 2.418 1.332 3.75 3.75 3.75h6c1.746 0 2.916-.704 3.436-2h3.224c1.964 0 3.09-1.126 3.09-3.09V7.34c0-1.964-1.126-3.09-3.09-3.09m-6.66 16H6c-1.577 0-2.25-.673-2.25-2.25V6c0-1.577.673-2.25 2.25-2.25h6c1.577 0 2.25.673 2.25 2.25v12c0 1.577-.673 2.25-2.25 2.25m8.25-3.59c0 1.144-.446 1.59-1.59 1.59h-2.928c.004-.085.018-.162.018-.25V6c0-.088-.015-.165-.018-.25h2.928c1.144 0 1.59.446 1.59 1.59z"/></svg>