<svg xmlns="http://www.w3.org/2000/svg" width="24" height="24" fill="none"><path fill="currentColor" d="M18 4.25H6C3.58 4.25 2.25 5.58 2.25 8v8c0 2.42 1.33 3.75 3.75 3.75h12c2.42 0 3.75-1.33 3.75-3.75V8c0-2.42-1.33-3.75-3.75-3.75M20.25 16c0 1.58-.67 2.25-2.25 2.25H6c-1.58 0-2.25-.67-2.25-2.25V8c0-1.58.67-2.25 2.25-2.25h12c1.58 0 2.25.67 2.25 2.25zm-11.5-5.6h.74v.83h-.73v1.37c0 .57.61.39.73.34v.79c-.13.07-.36.13-.68.13a.965.965 0 0 1-1-.94V9.78l.95-.2v.83zm2.79 0v.89c-.12-.04-.54-.1-.78.2v2.3h-.97V10.4h.87l.03.29c.23-.42.72-.33.85-.29M7.6 12.76c0 .7-.54 1.09-1.34 1.09-.36 0-.72-.07-1.05-.22v-.92c.32.18.73.31 1.05.31.22 0 .36-.06.36-.23 0-.46-1.47-.29-1.47-1.36 0-.68.53-1.09 1.32-1.09.32 0 .64.05.96.18v.91c-.3-.16-.63-.24-.96-.25-.2 0-.34.06-.34.21 0 .43 1.47.23 1.47 1.38zm4.17-2.36h.97v3.39h-.97zm0-1.1.97-.2v.79l-.97.21zm2.99 1.04c-.28 0-.55.11-.76.3l-.02-.24h-.88v4.5l.97-.2v-1.09c.14.1.35.24.68.24.69 0 1.32-.56 1.32-1.78 0-1.13-.64-1.74-1.32-1.74zM14.53 13c-.23 0-.36-.08-.46-.18v-1.44c.1-.11.23-.19.46-.19.35 0 .6.4.6.9s-.24.91-.6.91m3.22-2.66c-.92 0-1.48.78-1.48 1.76 0 1.17.66 1.75 1.6 1.75.37.02.75-.07 1.07-.26v-.78c-.26.14-.57.22-.95.22s-.71-.15-.75-.6h1.89c0-.05.01-.25.01-.35 0-.99-.48-1.76-1.4-1.76zm-.51 1.39c0-.43.27-.61.51-.61s.49.17.49.61z"/></svg>