<svg xmlns="http://www.w3.org/2000/svg" width="24" height="24" fill="none"><path fill="currentColor" d="M12 7.25A4.756 4.756 0 0 0 7.25 12 4.756 4.756 0 0 0 12 16.75 4.756 4.756 0 0 0 16.75 12 4.756 4.756 0 0 0 12 7.25Zm0 8A3.254 3.254 0 0 1 8.75 12 3.254 3.254 0 0 1 12 8.75 3.254 3.254 0 0 1 15.25 12 3.254 3.254 0 0 1 12 15.25ZM11.25 5V3a.75.75 0 0 1 1.5 0v2a.75.75 0 0 1-1.5 0Zm1.5 14v2a.75.75 0 0 1-1.5 0v-2a.75.75 0 0 1 1.5 0ZM5 12.75H3a.75.75 0 0 1 0-1.5h2a.75.75 0 0 1 0 1.5ZM21.75 12a.75.75 0 0 1-.75.75h-2a.75.75 0 0 1 0-1.5h2a.75.75 0 0 1 .75.75ZM5.106 6.166a.75.75 0 1 1 1.061-1.061l1.414 1.414a.75.75 0 0 1-1.06 1.061L5.106 6.166Zm13.788 11.668a.75.75 0 0 1-1.06 1.061l-1.414-1.414a.75.75 0 1 1 1.061-1.061l1.413 1.414ZM7.581 16.419a.75.75 0 0 1 0 1.061l-1.414 1.414a.748.748 0 0 1-1.06 0 .75.75 0 0 1 0-1.061l1.414-1.414a.749.749 0 0 1 1.06 0Zm8.838-8.838a.75.75 0 0 1 0-1.061l1.414-1.414a.75.75 0 1 1 1.061 1.061L17.48 7.581a.748.748 0 0 1-1.061 0Z"/></svg>