<svg xmlns="http://www.w3.org/2000/svg" width="24" height="24" fill="none"><path fill="currentColor" d="m21.53 6.692-1.055-1.055-3.167-3.166a.75.75 0 1 0-1.061 1.061l.525.525-2.105 2.106-.525-.525-.001-.001-.791-.791a.75.75 0 1 0-1.061 1.061l.261.261-6.081 6.081c-.028.028-.047.057-.074.085-.008.007-.018.01-.026.017-.016.015-.021.036-.035.052-.719.77-1.11 1.573-1.137 2.395-.024.74.245 1.463.781 2.164L2.469 20.47a.75.75 0 0 0 1.06 1.061l3.508-3.508c.677.518 1.375.785 2.073.785.895 0 1.79-.426 2.643-1.277l6.08-6.081.261.262a.748.748 0 0 0 1.06 0 .75.75 0 0 0 0-1.06l-.792-.793-.525-.525 2.106-2.106.525.525a.749.749 0 0 0 1.06 0 .75.75 0 0 0 .002-1.062Zm-10.838 9.777c-1.107 1.108-2.055 1.108-3.162 0-.568-.569-.849-1.115-.832-1.625.009-.267.106-.546.275-.831l1.006 1.007a.748.748 0 0 0 1.06 0 .75.75 0 0 0 0-1.061l-1.081-1.081 1.054-1.054 1.076 1.076a.749.749 0 1 0 1.06-1.06l-1.076-1.077 1.055-1.055 1.081 1.081a.748.748 0 0 0 1.06 0 .75.75 0 0 0 0-1.061l-1.081-1.081 1.422-1.422 2.635 2.635.001.001.001.001.524.524-6.078 6.083Zm6.086-8.197-1.05-1.05 2.106-2.106 1.051 1.05-2.107 2.106Z"/></svg>