<svg xmlns="http://www.w3.org/2000/svg" width="24" height="24" fill="none"><path fill="currentColor" d="M20.68 13.77c.55-.58 1.03-1.09 1.07-1.68.04-.77-.37-1.4-.72-1.96-.19-.3-.37-.58-.44-.81-.07-.24-.08-.56-.1-.9-.03-.71-.07-1.52-.62-2.09-.5-.54-1.2-.7-1.82-.84-.35-.08-.68-.15-.9-.28-.2-.12-.42-.38-.65-.65-.41-.49-.88-1.04-1.62-1.24-.66-.17-1.3.07-1.87.27-.37.13-.72.26-1 .26s-.63-.13-1-.26c-.57-.2-1.21-.43-1.89-.27-.72.2-1.19.75-1.6 1.24-.23.27-.45.53-.66.65-.21.13-.54.2-.89.28-.62.14-1.32.3-1.81.83-.56.58-.6 1.39-.63 2.1-.02.34-.03.67-.1.9-.07.24-.25.52-.45.82-.36.56-.77 1.19-.72 1.97.04.59.52 1.09 1.07 1.67.06.07.12.14.19.2-.55 1.65-.75 3.28-.81 4.39-.04.63.2 1.26.64 1.71.44.45 1.06.69 1.69.67 5.15-.19 8.8-.19 13.95 0h.08c.6 0 1.18-.24 1.61-.67.44-.45.68-1.08.64-1.71-.06-1.11-.26-2.74-.81-4.39.06-.07.13-.14.19-.2zM3.75 12c-.02-.28.24-.68.49-1.06.24-.37.49-.76.62-1.21.12-.41.14-.84.16-1.26.02-.44.04-.95.22-1.13.19-.2.62-.3 1.04-.39.45-.1.92-.21 1.33-.46.42-.25.73-.62 1.03-.97.28-.34.58-.68.84-.76.22-.05.61.09 1 .23.45.16.96.35 1.51.35s1.06-.18 1.51-.35c.38-.14.78-.28.98-.23.28.08.56.41.86.76.3.35.61.72 1.02.96.42.26.89.36 1.34.46.42.1.86.19 1.06.41.17.17.19.68.21 1.12.02.42.04.85.16 1.26.13.44.38.83.62 1.2.25.38.5.78.5 1-.04.1-.21.31-.4.51-1.26-2.54-3.57-4.77-7.86-4.77-4.29 0-6.61 2.23-7.86 4.77-.18-.2-.36-.39-.38-.44m15.84 7.02c-.15.15-.35.24-.56.22-5.19-.19-8.87-.19-14.05 0-.22 0-.41-.07-.56-.22a.768.768 0 0 1-.22-.58c.07-1.26.28-2.83.83-4.31.02-.03.02-.06.03-.1.97-2.57 2.95-4.87 6.94-4.87s5.98 2.31 6.95 4.88c.01.03.01.05.03.08.55 1.49.76 3.06.83 4.31.01.22-.06.42-.22.58zM8.02 16c0 .55-.45 1-1 1s-1-.45-1-1 .44-1 1-1c.55 0 1 .45 1 1m4 0c0 .55-.45 1-1 1s-1-.45-1-1 .44-1 1-1c.55 0 1 .45 1 1m-2-3c0 .55-.45 1-1 1s-1-.45-1-1 .44-1 1-1c.55 0 1 .45 1 1"/></svg>