<svg xmlns="http://www.w3.org/2000/svg" width="24" height="24" fill="none"><path fill="currentColor" d="m17.605 10.64-6.4-6.407a3.373 3.373 0 0 0-2.371-.983h-5.1A2.487 2.487 0 0 0 1.25 5.736v5.105c0 .895.349 1.738.981 2.372l6.401 6.407c.749.75 1.546 1.13 2.37 1.13.823 0 1.621-.38 2.369-1.13l4.233-4.237c1.529-1.529 1.529-3.214.001-4.743m-1.06 3.683-4.233 4.237c-.918.917-1.704.915-2.618 0l-6.4-6.407a1.843 1.843 0 0 1-.543-1.312V5.736c0-.544.441-.986.984-.986h5.1c.488 0 .965.198 1.31.543l6.4 6.407c.942.944.942 1.679 0 2.623m6.205-1.304c-.001.812-.389 1.607-1.151 2.364l-4.228 4.237c-.736.749-1.535 1.13-2.371 1.13a.75.75 0 0 1 0-1.5c.419 0 .857-.231 1.305-.686l4.234-4.244c.472-.468.71-.906.711-1.304.001-.401-.238-.844-.71-1.316l-6.4-6.41a1.804 1.804 0 0 0-1.178-.531.75.75 0 0 1-.7-.797c.026-.414.42-.722.796-.7a3.289 3.289 0 0 1 2.148.974l6.395 6.405c.764.763 1.151 1.564 1.149 2.378M6.5 7.5c0 .552-.446 1-.998 1-.55 0-1.002-.448-1.002-1s.442-1 .993-1h.01c.551 0 .997.448.997 1"/></svg>