<svg xmlns="http://www.w3.org/2000/svg" width="24" height="24" fill="none"><path fill="currentColor" d="M7.75 13A3.254 3.254 0 0 0 11 16.25a3.24 3.24 0 0 0 3.144-2.435.75.75 0 1 1 1.453.37A4.736 4.736 0 0 1 11 17.75 4.756 4.756 0 0 1 6.25 13a4.735 4.735 0 0 1 3.565-4.597.75.75 0 0 1 .369 1.454A3.236 3.236 0 0 0 7.75 13m11.135-1.285a.75.75 0 0 0-.66.83c.018.152.025.303.025.455 0 3.998-3.252 7.25-7.25 7.25S3.75 16.998 3.75 13 7.002 5.75 11 5.75c.152 0 .305.008.457.025a.744.744 0 0 0 .828-.663.75.75 0 0 0-.662-.83A5.654 5.654 0 0 0 11 4.25c-4.825 0-8.75 3.925-8.75 8.75s3.925 8.75 8.75 8.75 8.75-3.925 8.75-8.75c0-.208-.012-.417-.035-.625a.745.745 0 0 0-.83-.659ZM21.53 7.53l-2.561 2.561a2.266 2.266 0 0 1-1.591.659H14.31l-2.78 2.78a.748.748 0 0 1-1.06 0 .75.75 0 0 1 0-1.061l2.78-2.78V6.62c0-.592.24-1.172.659-1.591l2.561-2.561a.75.75 0 0 1 1.28.53v3.25H21a.75.75 0 0 1 .53 1.281Zm-6.78-.909v1.568l1.5-1.5V4.81l-1.28 1.28a.757.757 0 0 0-.22.531m4.439 1.129H17.31l-1.5 1.5h1.568c.197 0 .391-.08.53-.22z"/></svg>