<svg xmlns="http://www.w3.org/2000/svg" width="24" height="24" fill="none"><path fill="currentColor" d="M21.7 5.51c-.03-.14-.1-.57-.5-.9-.43-.35-.97-.37-1.13-.36-.74.01-1.58.29-6.46 2.33-1.6.67-4.86 2.08-9.67 4.19-.74.3-1.59.74-1.69 1.52-.14 1.13 1.01 1.49 1.94 1.79l.36.11c.72.24 2.04.63 2.79.65.71.02 1.44-.25 2.24-.8L12.6 12c-.13.12-.25.24-.35.33-.42.4-.72.68-.78.74-.12.13-.25.25-.37.37-.55.53-1.11 1.08-1.04 1.87.07.75.71 1.25 1.18 1.56.68.45 1.23.83 1.77 1.2.58.4 1.17.8 1.93 1.3.19.12.36.25.54.37.69.5 1.41 1.01 2.34 1.01.08 0 .15 0 .23-.01.64-.06 1.47-.51 1.8-2.32.53-2.85 1.63-9.31 1.89-12.04.03-.31 0-.68-.03-.86zm-1.46.72c-.25 2.66-1.36 9.18-1.87 11.92-.16.89-.42 1.09-.46 1.1-.45.03-.89-.25-1.56-.73-.19-.13-.38-.27-.58-.41-.75-.49-1.33-.89-1.9-1.29-.55-.38-1.1-.75-1.79-1.21-.42-.28-.5-.43-.52-.43.04-.14.37-.46.59-.67.13-.13.27-.26.41-.41.06-.07.34-.32.72-.68 3.92-3.66 3.96-3.83 4.03-4.16.06-.29.02-.73-.31-1.01-.38-.35-.86-.25-1.01-.21-.22.05-.35.08-7.25 4.76-.52.36-.95.56-1.36.53-.39 0-1.3-.23-2.36-.58l-.37-.12c-.22-.07-.48-.15-.69-.23.12-.07.3-.15.55-.25h.02c4.81-2.1 8.05-3.51 9.65-4.18 4.18-1.75 5.4-2.2 5.91-2.21l.12.01c.02.11.03.33.02.47z"/></svg>