<svg xmlns="http://www.w3.org/2000/svg" width="24" height="24" fill="none"><path fill="currentColor" d="m21.448 7.646-2.462-4.271a2.226 2.226 0 0 0-1.365-1.048 2.224 2.224 0 0 0-1.705.225L14.172 3.56c-.605.35-.976.944-1.081 1.585l-9.647 6.566a2.761 2.761 0 0 0-.825 3.644l.258.447a2.755 2.755 0 0 0 3.566 1.115l3.853-1.841-2.94 5.575a.75.75 0 1 0 1.327.7l3.319-6.296 3.344 6.297a.75.75 0 0 0 1.325-.703l-3.65-6.875 3.97-1.896c.065.024.125.054.193.072a2.231 2.231 0 0 0 1.705-.225l1.74-1.006c1.07-.621 1.438-2 .819-3.073m-12.206 6.27-1.804-3.11 5.977-4.068 2.343 4.064zm-3.447 1.647a1.248 1.248 0 0 1-1.618-.508l-.26-.451a1.255 1.255 0 0 1 .372-1.654l1.907-1.298 1.689 2.912zm14.08-6.143-1.74 1.005a.726.726 0 0 1-.566.075.743.743 0 0 1-.454-.348L14.65 5.877a.748.748 0 0 1 .272-1.02l1.744-1.007a.733.733 0 0 1 .566-.075.744.744 0 0 1 .454.348l2.462 4.271a.754.754 0 0 1-.274 1.026Z"/></svg>