<svg xmlns="http://www.w3.org/2000/svg" width="24" height="24" fill="none"><path fill="currentColor" d="M22.74 11.87v-.02c-.09-5.8-4.78-10.5-10.58-10.58h-.15c-5.93 0-10.75 4.82-10.75 10.75v.15c.09 5.8 4.78 10.5 10.58 10.58h.15c5.93 0 10.75-4.82 10.75-10.75v-.13Zm-1.53-.63c-.07 0-.14.01-.21.01-4.55 0-8.25-3.7-8.25-8.25 0-.07.01-.14.01-.21 4.49.37 8.08 3.96 8.45 8.45ZM2.79 12.77c.07 0 .14-.01.21-.01 4.55 0 8.25 3.7 8.25 8.25 0 .07-.01.14-.01.21-4.49-.37-8.08-3.96-8.45-8.45Zm9.95 8.45c0-.07.01-.14.01-.21 0-5.38-4.37-9.75-9.75-9.75-.07 0-.14.01-.21.01.36-4.51 3.96-8.12 8.48-8.48 0 .07-.01.14-.01.21 0 5.38 4.37 9.75 9.75 9.75.07 0 .14-.01.21-.01-.36 4.51-3.96 8.12-8.48 8.48Z"/></svg>