<svg xmlns="http://www.w3.org/2000/svg" width="24" height="24" fill="none"><path fill="currentColor" d="M20.665 3.334c-1.398-1.398-3.837-1.397-5.235 0L8.993 9.77a6.008 6.008 0 0 0-1.442 2.333l-.264.793a4.528 4.528 0 0 1-1.08 1.748l-3.305 3.304c-.421.42-.652.979-.652 1.575 0 .595.231 1.154.652 1.574.42.42.979.652 1.574.652.594 0 1.153-.231 1.574-.652l3.304-3.304a4.496 4.496 0 0 1 1.748-1.08l.794-.265a6.02 6.02 0 0 0 2.333-1.442l6.436-6.436a3.68 3.68 0 0 0 1.085-2.618c0-.988-.386-1.918-1.085-2.618ZM4.99 20.037a.741.741 0 0 1-1.027 0 .717.717 0 0 1-.213-.513.72.72 0 0 1 .213-.514l.993-.993 1.027 1.027-.993.993ZM19.604 7.51l-6.436 6.436a4.495 4.495 0 0 1-1.747 1.08l-.793.264a6.01 6.01 0 0 0-2.335 1.442l-1.25 1.25-1.027-1.027 1.251-1.25a6.017 6.017 0 0 0 1.442-2.334l.265-.794a4.485 4.485 0 0 1 1.079-1.747l6.437-6.436a2.188 2.188 0 0 1 1.558-.645c.588 0 1.141.23 1.557.645.416.416.646.969.646 1.558 0 .589-.23 1.142-.647 1.558Zm-4.074.96a.75.75 0 0 1 0 1.061l-2 2a.748.748 0 0 1-1.06 0 .75.75 0 0 1 0-1.061l2-2a.749.749 0 0 1 1.06 0ZM18 7a1 1 0 1 1-2 0 1 1 0 0 1 2 0Z"/></svg>