<svg xmlns="http://www.w3.org/2000/svg" width="24" height="24" fill="none"><path fill="currentColor" d="M20.53 6.78a.75.75 0 0 0-.53-.22c-.77 0-1.67-.24-2.2-.59a3.512 3.512 0 0 1-1.56-2.32c-.04-.21-.06-.43-.05-.64a.75.75 0 0 0-.75-.75h-3.09c-.41 0-.75.34-.75.75V15.3c0 .19-.03.38-.09.56-.15.48-.48.87-.92 1.1a1.87 1.87 0 0 1-2.53-.79c-.23-.44-.28-.95-.12-1.43.15-.48.48-.87.92-1.1.44-.23.95-.28 1.43-.13.23.07.48.03.67-.11.19-.14.31-.37.31-.6V9.64c0-.37-.28-.69-.65-.74-.29-.04-.59-.06-.89-.06-1.73 0-3.35.67-4.57 1.89a6.464 6.464 0 0 0-1.9 4.57c0 3.57 2.9 6.47 6.46 6.47s6.47-2.9 6.47-6.46v-4.99c1.15.53 2.49.83 3.8.83.42 0 .77-.33.77-.75V7.33c0-.2-.08-.39-.22-.53l-.01-.02ZM19.25 9.6c-1.24-.13-2.49-.56-3.38-1.2a.756.756 0 0 0-.78-.06.76.76 0 0 0-.41.67v6.28c0 2.74-2.23 4.96-4.97 4.96-2.74 0-4.96-2.23-4.96-4.97 0-1.33.52-2.57 1.46-3.51s2.18-1.45 3.51-1.45h.03v1.59c-.53-.02-1.1.12-1.6.38a3.36 3.36 0 0 0-1.66 1.98c-.27.86-.19 1.77.23 2.57.42.8 1.12 1.39 1.98 1.66.86.27 1.77.19 2.57-.23a3.36 3.36 0 0 0 1.66-1.98c.1-.33.16-.67.16-1.01V3.74h1.65c0 .06.02.11.03.17a5.074 5.074 0 0 0 2.22 3.31c.59.39 1.43.67 2.27.78v1.58l-.01.02Z"/></svg>