<svg xmlns="http://www.w3.org/2000/svg" width="24" height="24" fill="none"><path fill="currentColor" d="M12.75 8v3.689l1.78 1.78a.75.75 0 0 1-1.06 1.061l-2-2a.75.75 0 0 1-.22-.53V8a.75.75 0 0 1 1.5 0m-.724-5.75A9.68 9.68 0 0 0 4.75 5.544V3a.75.75 0 0 0-1.5 0v4c0 .414.336.75.75.75h4a.75.75 0 0 0 0-1.5H6.153a8.174 8.174 0 0 1 5.874-2.5c4.534 0 8.224 3.701 8.224 8.25 0 4.549-3.689 8.25-8.224 8.25a8.134 8.134 0 0 1-7.353-4.58.75.75 0 0 0-1.348.66 9.625 9.625 0 0 0 8.7 5.42c5.361 0 9.724-4.374 9.724-9.75s-4.362-9.75-9.724-9.75"/></svg>