<svg xmlns="http://www.w3.org/2000/svg" width="24" height="24" fill="none"><path fill="currentColor" d="M20.947 10.066A2.699 2.699 0 0 0 19 9.25h-8.142A4.737 4.737 0 0 0 7 7.25 4.756 4.756 0 0 0 2.25 12 4.756 4.756 0 0 0 7 16.75a4.737 4.737 0 0 0 3.858-2H19A2.752 2.752 0 0 0 21.75 12c0-.743-.29-1.435-.803-1.934ZM7 15.25A3.254 3.254 0 0 1 3.75 12 3.254 3.254 0 0 1 7 8.75 3.254 3.254 0 0 1 10.25 12 3.254 3.254 0 0 1 7 15.25Zm12-2h-7.438c.11-.401.188-.814.188-1.25a4.7 4.7 0 0 0-.188-1.25H19c.335 0 .645.129.887.377.234.228.363.538.363.873 0 .689-.561 1.25-1.25 1.25Z"/></svg>