<svg xmlns="http://www.w3.org/2000/svg" width="24" height="24" fill="none"><path fill="currentColor" d="M19 18.75H5c-2.418 0-3.75-1.332-3.75-3.75V9c0-2.418 1.332-3.75 3.75-3.75h14c2.418 0 3.75 1.332 3.75 3.75v6c0 2.418-1.332 3.75-3.75 3.75Zm-14-12c-1.577 0-2.25.673-2.25 2.25v6c0 1.577.673 2.25 2.25 2.25h14c1.577 0 2.25-.673 2.25-2.25V9c0-1.577-.673-2.25-2.25-2.25H5Zm4.5 9h-3c-1.409 0-2.25-.841-2.25-2.25v-3c0-1.409.841-2.25 2.25-2.25h3c1.409 0 2.25.841 2.25 2.25v3c0 1.409-.841 2.25-2.25 2.25Zm-3-6c-.589 0-.75.161-.75.75v3c0 .589.161.75.75.75h3c.589 0 .75-.161.75-.75v-3c0-.589-.161-.75-.75-.75h-3Z"/></svg>