<svg xmlns="http://www.w3.org/2000/svg" width="24" height="24" fill="none"><path fill="currentColor" d="M16 18.75H8A6.758 6.758 0 0 1 1.25 12 6.758 6.758 0 0 1 8 5.25h8A6.758 6.758 0 0 1 22.75 12 6.758 6.758 0 0 1 16 18.75m-8-12A5.256 5.256 0 0 0 2.75 12 5.256 5.256 0 0 0 8 17.25h8A5.256 5.256 0 0 0 21.25 12 5.256 5.256 0 0 0 16 6.75zm0 9A3.755 3.755 0 0 1 4.25 12 3.755 3.755 0 0 1 8 8.25 3.755 3.755 0 0 1 11.75 12 3.755 3.755 0 0 1 8 15.75m0-6A2.253 2.253 0 0 0 5.75 12c0 1.241 1.01 2.25 2.25 2.25s2.25-1.009 2.25-2.25S9.24 9.75 8 9.75"/></svg>