<svg xmlns="http://www.w3.org/2000/svg" width="24" height="24" fill="none"><path fill="currentColor" d="M21.271 6.284a.752.752 0 0 0-1.224-.251l-2.182 2.171a.74.74 0 0 1-1.042-.001l-1.025-1.025a.74.74 0 0 1-.001-1.043l2.171-2.181a.751.751 0 0 0-.251-1.224c-1.922-.777-4.063-.599-5.876.486A6.052 6.052 0 0 0 9.83 5.172l-.001.002-.082.135c-.812 1.343-1.126 2.85-.907 4.361a.72.72 0 0 1-.211.604l-5.323 5.323a3.581 3.581 0 0 0-1.056 2.55 3.58 3.58 0 0 0 1.056 2.549 3.581 3.581 0 0 0 2.55 1.056 3.58 3.58 0 0 0 2.549-1.056l5.323-5.323a.72.72 0 0 1 .604-.211c1.508.219 3.012-.091 4.349-.896a6.094 6.094 0 0 0 2.093-2.093c1.095-1.814 1.277-3.96.497-5.889m-1.784 5.117a4.572 4.572 0 0 1-1.58 1.578 5.04 5.04 0 0 1-3.359.697 2.215 2.215 0 0 0-1.88.635l-5.323 5.323c-.797.796-2.183.795-2.978 0a2.097 2.097 0 0 1-.617-1.489c0-.562.219-1.091.617-1.489l5.324-5.323a2.223 2.223 0 0 0 .634-1.879c-.168-1.162.076-2.327.71-3.376l.067-.11a4.554 4.554 0 0 1 1.51-1.465c1.274-.763 2.47-.838 3.388-.698l-1.267 1.272a2.243 2.243 0 0 0 .004 3.162l1.025 1.024a2.24 2.24 0 0 0 3.162.004l1.271-1.265a5.118 5.118 0 0 1-.708 3.399M6.02 17h-.01a.996.996 0 0 0-.995 1c0 .552.453 1 1.005 1a1 1 0 0 0 0-2"/></svg>