<svg xmlns="http://www.w3.org/2000/svg" width="24" height="24" fill="none"><path fill="currentColor" d="M15.445 21.75c-2.262 0-2.62-2.349-2.883-4.064-.096-.628-.295-1.936-.562-1.936-.267 0-.467 1.307-.562 1.936-.263 1.715-.621 4.064-2.883 4.064-1.709 0-2.164-1.994-2.646-4.106-.326-1.43-.695-3.05-1.437-4.25-1.519-2.456-1.636-5.862-.286-8.282C5.214 3.266 6.941 2.25 9.046 2.25c1.229 0 2.344.354 3.269 1.031.64-.67 1.55-1.031 2.638-1.031 2.105 0 3.832 1.016 4.86 2.862 1.35 2.42 1.232 5.826-.286 8.283-.741 1.2-1.11 2.82-1.437 4.25-.481 2.111-.936 4.105-2.645 4.105M12 14.25c1.556 0 1.815 1.705 2.046 3.209.295 1.93.566 2.791 1.399 2.791.513 0 .885-1.63 1.183-2.939.353-1.543.75-3.293 1.624-4.705 1.226-1.983 1.331-4.828.252-6.764-.532-.955-1.58-2.092-3.551-2.092-.685 0-1.198.187-1.558.57.417.51.694 1 .865 1.354a.75.75 0 1 1-1.352.65 5.379 5.379 0 0 0-.998-1.416l-.002-.002c-.756-.767-1.719-1.156-2.862-1.156-1.971 0-3.02 1.138-3.551 2.092-1.08 1.936-.974 4.78.252 6.763.873 1.412 1.27 3.162 1.624 4.705.298 1.31.67 2.939 1.183 2.939.833 0 1.104-.861 1.399-2.791.232-1.503.49-3.208 2.047-3.208"/></svg>