<svg xmlns="http://www.w3.org/2000/svg" width="24" height="24" fill="none"><path fill="currentColor" d="M21 5.25h-3.559c-.901 0-.939-.114-1.186-.854l-.202-.607a2.247 2.247 0 0 0-2.134-1.539h-3.838c-.97 0-1.828.618-2.134 1.539l-.202.607c-.247.741-.285.854-1.186.854H3a.75.75 0 0 0 0 1.5h1.298l.767 11.499c.148 2.225 1.512 3.501 3.742 3.501h6.387c2.229 0 3.593-1.276 3.742-3.501l.767-11.499H21a.75.75 0 0 0 0-1.5M9.37 4.263a.75.75 0 0 1 .711-.513h3.838c.323 0 .609.206.711.513l.202.607c.044.131.088.258.136.38H9.03c.048-.123.093-.25.137-.38zm8.068 13.886c-.095 1.433-.809 2.101-2.245 2.101H8.806c-1.436 0-2.149-.667-2.245-2.101L5.801 6.75h.757c.125 0 .229-.013.341-.021.034.005.065.021.1.021h10c.036 0 .066-.016.1-.021.112.008.216.021.341.021h.757zm-3.4-5.472a4.27 4.27 0 0 1 1.091 4 .749.749 0 1 1-1.457-.355 2.778 2.778 0 0 0-.71-2.601 2.61 2.61 0 0 0-1.824-.793l.244.245a.75.75 0 0 1-1.06 1.061l-1.351-1.351a.75.75 0 0 1 0-1.061l1.351-1.352a.75.75 0 0 1 1.061 0c.27.27.279.688.052.982a4.112 4.112 0 0 1 2.603 1.225"/></svg>