<svg xmlns="http://www.w3.org/2000/svg" width="24" height="24" fill="none"><path fill="currentColor" d="M14 16.75a.75.75 0 0 1-.75-.75v-2a.75.75 0 0 1 1.5 0v2a.75.75 0 0 1-.75.75m4.84-8.288a.749.749 0 0 0-.798.698l-.6 8.988c-.1 1.434-.815 2.102-2.252 2.102H8.81c-.486 0-.872-.073-1.182-.224a.749.749 0 1 0-.657 1.348c.519.253 1.12.376 1.839.376h6.38c2.228 0 3.594-1.275 3.749-3.5l.6-8.99a.75.75 0 0 0-.699-.798m2.69-4.932-3 3-8 8-7 7a.748.748 0 0 1-1.06 0 .75.75 0 0 1 0-1.061l2.571-2.571-.743-11.149H3a.75.75 0 0 1 0-1.5h3.56c.896 0 .929-.097 1.186-.85l.203-.607a2.23 2.23 0 0 1 2.131-1.543h3.84c.978 0 1.835.623 2.134 1.55l.198.593c.26.761.292.857 1.188.857h.25l2.78-2.78a.75.75 0 1 1 1.06 1.061M9.171 4.867c-.045.132-.091.26-.14.383h5.937a7.74 7.74 0 0 1-.134-.365l-.206-.617a.74.74 0 0 0-.708-.518h-3.84a.737.737 0 0 0-.706.51zM6.449 16.49l2.801-2.801V11a.75.75 0 0 1 1.5 0v1.189l5.439-5.439H7c-.035 0-.066-.016-.1-.02-.112.007-.215.02-.34.02h-.758z"/></svg>