<svg xmlns="http://www.w3.org/2000/svg" width="24" height="24" fill="none"><path fill="currentColor" d="m18.304 13.36-2.458-3.159a1.75 1.75 0 0 0 1.031-2.797l-3.489-4.475c-.672-.862-2.104-.862-2.776 0L7.123 7.404a1.751 1.751 0 0 0-.194 1.858c.244.499.698.83 1.225.939l-2.459 3.16a2.092 2.092 0 0 0-.229 2.216 2.083 2.083 0 0 0 1.882 1.174h3.902V21a.75.75 0 0 0 1.5 0v-4.25h3.902c.806 0 1.527-.45 1.882-1.174a2.09 2.09 0 0 0-.23-2.216M8.306 8.325l3.489-4.475a.255.255 0 0 1 .206-.101c.048 0 .137.013.206.101l3.489 4.475a.254.254 0 0 1 .029.278.25.25 0 0 1-.234.147H8.513a.249.249 0 0 1-.234-.147.249.249 0 0 1 .027-.278m8.881 6.591c-.049.1-.2.334-.535.334H7.348a.581.581 0 0 1-.535-.334.587.587 0 0 1 .066-.636l3.136-4.031h3.969l3.135 4.03a.59.59 0 0 1 .068.637"/></svg>