<svg xmlns="http://www.w3.org/2000/svg" width="24" height="24" fill="none"><path fill="currentColor" d="M12.75 14v3a.75.75 0 0 1-1.5 0v-3a.75.75 0 0 1 1.5 0M16 11.25a.75.75 0 0 0-.75.75v5a.75.75 0 0 0 1.5 0v-5a.75.75 0 0 0-.75-.75m-8 3.5a.75.75 0 0 0-.75.75V17a.75.75 0 0 0 1.5 0v-1.5a.75.75 0 0 0-.75-.75m8.287-8.442A.75.75 0 0 0 16 6.25h-2.2a.75.75 0 0 0 0 1.5h.39l-1.799 1.799-1.279-1.279a1.503 1.503 0 0 0-2.122 0L7.47 9.79a.75.75 0 0 0 1.06 1.061l1.52-1.52 1.279 1.279c.566.567 1.555.568 2.122 0l1.799-1.799v.39a.75.75 0 0 0 1.5 0v-2.2a.75.75 0 0 0-.463-.693M22.75 12c0 5.928-4.822 10.75-10.75 10.75S1.25 17.928 1.25 12 6.072 1.25 12 1.25 22.75 6.072 22.75 12m-1.5 0c0-5.101-4.149-9.25-9.25-9.25S2.75 6.899 2.75 12s4.149 9.25 9.25 9.25 9.25-4.149 9.25-9.25"/></svg>