<svg xmlns="http://www.w3.org/2000/svg" width="24" height="24" fill="none"><path fill="currentColor" d="M17.625 2.25H6.375c-2.66 0-4.125 1.465-4.125 4.125v11.25c0 2.66 1.465 4.125 4.125 4.125h11.25c2.66 0 4.125-1.465 4.125-4.125V6.375c0-2.66-1.465-4.125-4.125-4.125m2.625 15.375c0 1.84-.785 2.625-2.625 2.625H6.375c-1.84 0-2.625-.785-2.625-2.625V6.375c0-1.84.785-2.625 2.625-2.625h11.25c1.84 0 2.625.785 2.625 2.625zM12.75 14v3a.75.75 0 0 1-1.5 0v-3a.75.75 0 0 1 1.5 0m-4-2v5a.75.75 0 0 1-1.5 0v-5a.75.75 0 0 1 1.5 0m8 3.5V17a.75.75 0 0 1-1.5 0v-1.5a.75.75 0 0 1 1.5 0m0-7.38v2.2c0 .01-.005.018-.006.028a.738.738 0 0 1-.052.258.745.745 0 0 1-.144.218c-.007.008-.009.018-.017.025h-.001a.749.749 0 0 1-.531.22h-2.2a.75.75 0 0 1 0-1.5h.385l-1.799-1.793-1.287 1.273a1.502 1.502 0 0 1-2.115-.006L7.469 7.529A.75.75 0 1 1 8.53 6.468l1.514 1.514 1.287-1.273a1.503 1.503 0 0 1 2.113.004l1.806 1.799v-.394a.75.75 0 1 1 1.5.002"/></svg>