<svg xmlns="http://www.w3.org/2000/svg" width="24" height="24" fill="none"><path fill="currentColor" d="M12.75 14v3a.75.75 0 0 1-1.5 0v-3a.75.75 0 0 1 1.5 0M8 11.25a.75.75 0 0 0-.75.75v5a.75.75 0 0 0 1.5 0v-5a.75.75 0 0 0-.75-.75m8 3.5a.75.75 0 0 0-.75.75V17a.75.75 0 0 0 1.5 0v-1.5a.75.75 0 0 0-.75-.75m0-7.38a.75.75 0 0 0-.75.75v.394l-1.806-1.799a1.503 1.503 0 0 0-2.113-.004l-1.287 1.273L8.53 6.47a.75.75 0 1 0-1.061 1.061l1.514 1.514a1.503 1.503 0 0 0 2.115.006l1.287-1.273 1.799 1.793H13.8a.75.75 0 0 0 0 1.5H16a.75.75 0 0 0 .531-.22h.001c.007-.007.01-.018.017-.025a.745.745 0 0 0 .144-.218.742.742 0 0 0 .052-.258c0-.01.006-.018.006-.028v-2.2A.752.752 0 0 0 16 7.37M22.75 12c0 5.928-4.822 10.75-10.75 10.75S1.25 17.928 1.25 12 6.072 1.25 12 1.25 22.75 6.072 22.75 12m-1.5 0c0-5.101-4.149-9.25-9.25-9.25S2.75 6.899 2.75 12s4.149 9.25 9.25 9.25 9.25-4.149 9.25-9.25"/></svg>