<svg xmlns="http://www.w3.org/2000/svg" width="24" height="24" fill="none"><path fill="currentColor" d="M17.625 2.25H6.375c-2.66 0-4.125 1.465-4.125 4.125v11.25c0 2.66 1.465 4.125 4.125 4.125h11.25c2.66 0 4.125-1.465 4.125-4.125V6.375c0-2.66-1.465-4.125-4.125-4.125Zm2.625 15.375c0 1.84-.785 2.625-2.625 2.625H6.375c-1.84 0-2.625-.785-2.625-2.625V6.375c0-1.84.785-2.625 2.625-2.625h11.25c1.84 0 2.625.785 2.625 2.625v11.25ZM12.75 14v3a.75.75 0 0 1-1.5 0v-3a.75.75 0 0 1 1.5 0Zm4-2v5a.75.75 0 0 1-1.5 0v-5a.75.75 0 0 1 1.5 0Zm-8 3.5V17a.75.75 0 0 1-1.5 0v-1.5a.75.75 0 0 1 1.5 0Zm7.942-8.787A.75.75 0 0 1 16.75 7v2.2a.75.75 0 0 1-1.5 0v-.39l-1.799 1.799c-.566.567-1.556.566-2.122 0L10.05 9.33l-1.52 1.52a.748.748 0 0 1-1.06 0 .75.75 0 0 1 0-1.06l1.52-1.521a1.503 1.503 0 0 1 2.122 0l1.279 1.28 1.799-1.8h-.39a.75.75 0 0 1 0-1.5H16a.75.75 0 0 1 .692.464Z"/></svg>