<svg xmlns="http://www.w3.org/2000/svg" width="24" height="24" fill="none"><path fill="currentColor" d="M18.692 22.75H5.307a4.023 4.023 0 0 1-3.478-1.968 4.013 4.013 0 0 1-.098-3.984L8.337 4.443a4.09 4.09 0 0 1 3.661-2.192 4.09 4.09 0 0 1 3.66 2.192l6.607 12.355a4.008 4.008 0 0 1-.098 3.984 4.013 4.013 0 0 1-3.475 1.968M12 3.75c-.996 0-1.87.523-2.34 1.399L3.056 17.504a2.52 2.52 0 0 0 .062 2.505 2.535 2.535 0 0 0 2.191 1.24h13.385c.907 0 1.726-.463 2.191-1.24.464-.773.486-1.71.062-2.505L14.34 5.149A2.616 2.616 0 0 0 12 3.75"/></svg>