<svg xmlns="http://www.w3.org/2000/svg" width="24" height="24" fill="none"><path fill="currentColor" d="M17 16.71h-1.59c-.73 0-1.07-.17-1.07-1.12v-3.9h2.53c.41 0 .75-.34.75-.75V7.58c0-.41-.34-.75-.75-.75h-2.53V3c0-.41-.34-.75-.75-.75h-2.81c-.4 0-.72.31-.75.7-.09 1.34-.62 3.7-3.22 4.37a.75.75 0 0 0-.56.73v2.89c0 .41.34.75.75.75h1.52v4.59c0 3.43 2.05 5.47 5.48 5.47h3.01c.41 0 .75-.34.75-.75v-3.54c0-.41-.34-.75-.75-.75zm-.75 3.54h-2.26c-1.81 0-3.98-.69-3.98-3.97v-5.34c0-.41-.34-.75-.75-.75H7.74V8.6c2.04-.74 3.35-2.46 3.7-4.85h1.39v3.83c0 .41.34.75.75.75h2.53v1.86h-2.53c-.41 0-.75.34-.75.75v4.65c0 1.69.91 2.62 2.57 2.62h.84v2.04z"/></svg>