<svg xmlns="http://www.w3.org/2000/svg" width="24" height="24" fill="none"><path fill="currentColor" d="M18 6.25h-4.189l2.72-2.72a.75.75 0 0 0-1.061-1.061L12 5.939l-3.47-3.47A.75.75 0 0 0 7.469 3.53l2.72 2.72H6c-2.418 0-3.75 1.332-3.75 3.75v8c0 2.418 1.332 3.75 3.75 3.75h12c2.418 0 3.75-1.332 3.75-3.75v-8c0-2.418-1.332-3.75-3.75-3.75M20.25 18c0 1.577-.673 2.25-2.25 2.25H6c-1.577 0-2.25-.673-2.25-2.25v-8c0-1.577.673-2.25 2.25-2.25h12c1.577 0 2.25.673 2.25 2.25zM13.5 9.25h-6c-1.409 0-2.25.841-2.25 2.25v5c0 1.409.841 2.25 2.25 2.25h6c1.409 0 2.25-.841 2.25-2.25v-5c0-1.409-.841-2.25-2.25-2.25m.75 7.25c0 .589-.161.75-.75.75h-6c-.589 0-.75-.161-.75-.75v-5c0-.589.161-.75.75-.75h6c.589 0 .75.161.75.75zM19 11a1 1 0 1 1-2 0 1 1 0 0 1 2 0m0 3a1 1 0 1 1-2 0 1 1 0 0 1 2 0"/></svg>