<svg xmlns="http://www.w3.org/2000/svg" width="24" height="24" fill="none"><path fill="currentColor" d="M12 10.75A2.752 2.752 0 0 0 14.75 8 2.752 2.752 0 0 0 12 5.25 2.752 2.752 0 0 0 9.25 8 2.752 2.752 0 0 0 12 10.75Zm0-4A1.251 1.251 0 1 1 10.75 8c0-.689.561-1.25 1.25-1.25Zm10 14.5h-.25V12.5c0-1.409-.841-2.25-2.25-2.25h-.75V7.072l.836.554a.748.748 0 0 0 1.039-.21.75.75 0 0 0-.211-1.04l-7.166-4.748a2.242 2.242 0 0 0-2.494-.001L3.586 6.375a.75.75 0 1 0 .828 1.251l.836-.554v3.178H4.5c-1.409 0-2.25.841-2.25 2.25v8.75H2a.75.75 0 0 0 0 1.5h20a.75.75 0 0 0 0-1.5ZM3.75 12.5c0-.589.161-.75.75-.75h.75v9.5h-1.5V12.5Zm3-6.422 4.834-3.202a.75.75 0 0 1 .834.001l4.832 3.201V21.25h-2.5V19A2.752 2.752 0 0 0 12 16.25 2.752 2.752 0 0 0 9.25 19v2.25h-2.5V6.078Zm4 15.172V19c0-.689.561-1.25 1.25-1.25s1.25.561 1.25 1.25v2.25h-2.5Zm8 0v-9.5h.75c.589 0 .75.161.75.75v8.75h-1.5ZM15 12.75a.75.75 0 1 1 0 1.5.75.75 0 0 1 0-1.5Zm-2.25.75a.75.75 0 1 1-1.5 0 .75.75 0 0 1 1.5 0ZM9 14.25a.75.75 0 1 1 0-1.5.75.75 0 0 1 0 1.5Z"/></svg>