<svg xmlns="http://www.w3.org/2000/svg" width="24" height="24" fill="none"><path fill="currentColor" d="M16.75 7.27V4c0-.965-.785-1.75-1.75-1.75H9c-.965 0-1.75.785-1.75 1.75v3.27c-1.254.097-2 .91-2 2.23V18c0 2.418 1.332 3.75 3.75 3.75h6c2.418 0 3.75-1.332 3.75-3.75V9.5c0-1.321-.746-2.133-2-2.23M9 3.75h6a.25.25 0 0 1 .25.25v3.25h-6.5V4A.25.25 0 0 1 9 3.75M17.25 18c0 1.577-.673 2.25-2.25 2.25H9c-1.577 0-2.25-.673-2.25-2.25V9.5c0-.589.161-.75.75-.75h9c.589 0 .75.161.75.75zm-3-1a.75.75 0 0 1-.75.75h-3a.75.75 0 0 1 0-1.5h3a.75.75 0 0 1 .75.75M9.75 5.5a.75.75 0 1 1 1.5 0 .75.75 0 0 1-1.5 0m3 0a.75.75 0 1 1 1.5 0 .75.75 0 0 1-1.5 0"/></svg>