<svg xmlns="http://www.w3.org/2000/svg" width="24" height="24" fill="none"><path fill="currentColor" d="M11.009 10.75a4.255 4.255 0 0 0 4.25-4.25 4.255 4.255 0 0 0-4.25-4.25 4.255 4.255 0 0 0-4.25 4.25 4.255 4.255 0 0 0 4.25 4.25Zm0-7a2.752 2.752 0 0 1 2.75 2.75 2.752 2.752 0 0 1-2.75 2.75 2.752 2.752 0 0 1-2.75-2.75 2.752 2.752 0 0 1 2.75-2.75ZM4.75 18.02c0 1.563.673 2.23 2.25 2.23h7a.75.75 0 0 1 0 1.5H7c-2.418 0-3.75-1.325-3.75-3.73 0-2.662 1.506-5.77 5.75-5.77h4c2.715 0 4.104 1.275 4.791 2.345a.75.75 0 1 1-1.262.81c-.706-1.098-1.894-1.655-3.529-1.655H9c-3.943 0-4.25 3.269-4.25 4.27Zm15.78 2.45a.75.75 0 0 1-1.06 1.061l-.97-.97-.97.97a.748.748 0 0 1-1.06 0 .75.75 0 0 1 0-1.061l.97-.97-.97-.97a.75.75 0 1 1 1.061-1.061l.97.97.97-.97a.75.75 0 0 1 1.061 1.061l-.97.97.968.97Z"/></svg>