<svg xmlns="http://www.w3.org/2000/svg" width="24" height="24" fill="none"><path fill="currentColor" d="M21.062 21.025a2.334 2.334 0 0 1-1.261.681V22a.75.75 0 0 1-1.5 0v-.299c-.997-.204-1.778-1.046-1.896-2.12a.751.751 0 0 1 1.492-.162c.051.474.425.831.869.831h.607a.837.837 0 0 0 .607-.266.958.958 0 0 0 .268-.67c0-.431-.275-.805-.67-.908l-1.396-.36a2.38 2.38 0 0 1-1.3-.876 2.472 2.472 0 0 1-.492-1.485c0-1.179.822-2.164 1.909-2.387V13a.75.75 0 0 1 1.5 0v.291c1.016.189 1.816 1.04 1.935 2.128a.751.751 0 0 1-1.492.162c-.051-.474-.425-.831-.869-.831h-.607c-.482 0-.875.42-.875.935 0 .214.067.42.189.581a.87.87 0 0 0 .48.328l1.396.36c1.057.277 1.792 1.248 1.792 2.36a2.436 2.436 0 0 1-.686 1.711ZM5.759 6.5a4.255 4.255 0 0 1 4.25-4.25 4.255 4.255 0 0 1 4.25 4.25 4.255 4.255 0 0 1-4.25 4.25 4.255 4.255 0 0 1-4.25-4.25Zm1.5 0a2.752 2.752 0 0 0 2.75 2.75 2.752 2.752 0 0 0 2.75-2.75 2.752 2.752 0 0 0-2.75-2.75 2.752 2.752 0 0 0-2.75 2.75ZM14 20.25H6c-1.577 0-2.25-.667-2.25-2.23 0-1.001.307-4.27 4.25-4.27h4c.666 0 1.254.089 1.747.266a.75.75 0 0 0 .506-1.412c-.656-.235-1.414-.354-2.253-.354H8c-4.244 0-5.75 3.108-5.75 5.77 0 2.405 1.332 3.73 3.75 3.73h8a.75.75 0 0 0 0-1.5Z"/></svg>