<svg xmlns="http://www.w3.org/2000/svg" width="24" height="24" fill="none"><path fill="currentColor" d="M22.75 12c0-5.928-4.822-10.75-10.75-10.75S1.25 6.072 1.25 12c0 3.47 1.659 6.552 4.219 8.519l.014.01a10.683 10.683 0 0 0 6.518 2.221c2.452 0 4.707-.834 6.518-2.22.004-.005.01-.007.014-.011C21.091 18.552 22.75 15.47 22.75 12Zm-20 0c0-5.101 4.149-9.25 9.25-9.25s9.25 4.149 9.25 9.25a9.216 9.216 0 0 1-2.662 6.482c-.449-1.9-1.886-3.662-4.878-3.662h-3.42c-2.992 0-4.43 1.761-4.878 3.662A9.216 9.216 0 0 1 2.75 12Zm4.009 7.614c.058-1.026.527-3.294 3.531-3.294h3.42c3.004 0 3.473 2.268 3.531 3.294A9.19 9.19 0 0 1 12 21.25a9.198 9.198 0 0 1-5.241-1.636Zm5.25-5.864a3.755 3.755 0 0 0 3.75-3.75 3.755 3.755 0 0 0-3.75-3.75A3.755 3.755 0 0 0 8.258 10a3.754 3.754 0 0 0 3.75 3.75Zm0-6c1.24 0 2.25 1.009 2.25 2.25s-1.01 2.25-2.25 2.25A2.253 2.253 0 0 1 9.758 10c0-1.241 1.01-2.25 2.25-2.25Z"/></svg>