<svg xmlns="http://www.w3.org/2000/svg" width="24" height="24" fill="none"><path fill="currentColor" d="M16.08 10.389a.75.75 0 0 1 .931-.509c.091.027.198.04.329.04.871 0 1.58-.713 1.58-1.59 0-.717-.484-1.344-1.179-1.524a.75.75 0 1 1 .377-1.453 3.076 3.076 0 0 1 2.302 2.976 3.089 3.089 0 0 1-3.08 3.09c-.275 0-.521-.033-.751-.1a.749.749 0 0 1-.509-.93m2.817 1.542h-.027a.75.75 0 0 0-.027 1.5c2.233.08 2.407 1.994 2.407 2.579V18a.75.75 0 0 0 1.5 0v-1.99c0-1.818-1.009-3.977-3.853-4.079M6.67 11.42c.275 0 .521-.033.751-.1a.751.751 0 0 0-.422-1.44c-.091.027-.198.04-.329.04a1.587 1.587 0 0 1-.392-3.124.75.75 0 1 0-.375-1.452 3.087 3.087 0 0 0 .767 6.076m-.811 1.23a.741.741 0 0 0-.779-.719c-2.827.114-3.83 2.269-3.83 4.079V18a.75.75 0 0 0 1.5 0v-1.99c0-.747.233-2.494 2.391-2.58a.75.75 0 0 0 .718-.78M8.259 7a3.755 3.755 0 0 1 3.75-3.75A3.755 3.755 0 0 1 15.758 7a3.755 3.755 0 0 1-3.75 3.75A3.755 3.755 0 0 1 8.258 7Zm1.5 0c0 1.241 1.01 2.25 2.25 2.25s2.25-1.009 2.25-2.25-1.01-2.25-2.25-2.25A2.253 2.253 0 0 0 9.758 7Zm4.018 5.139h-3.555c-3.835 0-5.195 2.807-5.195 5.211V20a.75.75 0 0 0 1.5 0v-2.65c0-.871.267-3.711 3.695-3.711h3.555c3.429 0 3.695 2.84 3.695 3.711V20a.75.75 0 0 0 1.5 0v-2.65c.001-2.404-1.36-5.211-5.195-5.211"/></svg>