<svg xmlns="http://www.w3.org/2000/svg" width="24" height="24" fill="none"><path fill="currentColor" d="M11.009 10.75a4.255 4.255 0 0 0 4.25-4.25 4.255 4.255 0 0 0-4.25-4.25 4.255 4.255 0 0 0-4.25 4.25 4.255 4.255 0 0 0 4.25 4.25m0-7a2.752 2.752 0 0 1 2.75 2.75 2.752 2.752 0 0 1-2.75 2.75 2.752 2.752 0 0 1-2.75-2.75 2.752 2.752 0 0 1 2.75-2.75M4.75 18.02c0 1.563.673 2.23 2.25 2.23h7a.75.75 0 0 1 0 1.5H7c-2.418 0-3.75-1.325-3.75-3.73 0-2.662 1.506-5.77 5.75-5.77h4c3.568 0 4.894 2.189 5.365 3.495a.75.75 0 0 1-1.41.51c-.602-1.662-1.932-2.505-3.955-2.505H9c-3.943 0-4.25 3.269-4.25 4.27m17 .98a.75.75 0 0 1-.75.75h-4a.75.75 0 0 1 0-1.5h4a.75.75 0 0 1 .75.75"/></svg>