<svg xmlns="http://www.w3.org/2000/svg" width="24" height="24" fill="none"><path fill="currentColor" d="M9.009 10.75a4.255 4.255 0 0 0 4.25-4.25 4.255 4.255 0 0 0-4.25-4.25 4.255 4.255 0 0 0-4.25 4.25 4.255 4.255 0 0 0 4.25 4.25m0-7a2.752 2.752 0 0 1 2.75 2.75 2.752 2.752 0 0 1-2.75 2.75 2.752 2.752 0 0 1-2.75-2.75 2.752 2.752 0 0 1 2.75-2.75m7.741 14.269V21a.75.75 0 0 1-1.5 0v-2.981c0-1.001-.307-4.269-4.25-4.269H7c-3.943 0-4.25 3.267-4.25 4.269V21a.75.75 0 0 1-1.5 0v-2.981c0-2.661 1.506-5.769 5.75-5.769h4c4.244 0 5.75 3.107 5.75 5.769m-2.595-7.803a.75.75 0 1 1 1.049-1.072c.359.352.841.546 1.355.546a1.95 1.95 0 0 0 1.971-1.97c0-1.086-.884-1.97-1.971-1.97a1.79 1.79 0 0 0-.827.187.75.75 0 1 1-.686-1.334 3.28 3.28 0 0 1 1.513-.353 3.475 3.475 0 0 1 3.471 3.47 3.475 3.475 0 0 1-3.471 3.47 3.415 3.415 0 0 1-2.404-.974m8.595 6.464V19a.75.75 0 0 1-1.5 0v-2.32c0-.739-.227-3.15-3.14-3.15h-1.511a.75.75 0 0 1 0-1.5h1.511c3.425 0 4.64 2.505 4.64 4.65"/></svg>