<svg xmlns="http://www.w3.org/2000/svg" width="24" height="24" fill="none"><path fill="currentColor" d="M10.009 10.75a4.255 4.255 0 0 0 4.25-4.25 4.255 4.255 0 0 0-4.25-4.25 4.255 4.255 0 0 0-4.25 4.25 4.255 4.255 0 0 0 4.25 4.25m0-7a2.752 2.752 0 0 1 2.75 2.75 2.752 2.752 0 0 1-2.75 2.75 2.752 2.752 0 0 1-2.75-2.75 2.752 2.752 0 0 1 2.75-2.75m2.872 10.06a5.514 5.514 0 0 0-.881-.06H8c-3.943 0-4.25 3.269-4.25 4.27 0 1.563.673 2.23 2.25 2.23h5a.75.75 0 0 1 0 1.5H6c-2.418 0-3.75-1.325-3.75-3.73 0-2.662 1.506-5.77 5.75-5.77h4c.421 0 .787.026 1.119.08.409.065.688.45.621.859a.756.756 0 0 1-.859.621m9.352 3.688.133-.074a.748.748 0 0 0 .278-1.038l-.916-1.538a.75.75 0 0 0-1.011-.271l-.133.074a.662.662 0 0 1-.644 0 .58.58 0 0 1-.303-.5.902.902 0 0 0-.904-.899h-1.524a.902.902 0 0 0-.904.899.579.579 0 0 1-.303.5.66.66 0 0 1-.644 0 .91.91 0 0 0-1.219.324l-.763 1.281a.903.903 0 0 0-.099.687.904.904 0 0 0 .426.553l.02.011a.58.58 0 0 1 .289.493.581.581 0 0 1-.308.506.91.91 0 0 0-.426.551.891.891 0 0 0 .096.687l.766 1.283a.9.9 0 0 0 1.219.323.66.66 0 0 1 .643.001.578.578 0 0 1 .302.5c0 .496.405.899.903.899h1.527a.902.902 0 0 0 .903-.899c0-.204.116-.395.303-.5a.66.66 0 0 1 .644 0 .91.91 0 0 0 1.219-.324l.768-1.288a.892.892 0 0 0-.332-1.233l-.019-.01a.58.58 0 0 1-.289-.494.588.588 0 0 1 .302-.504m-1.224 1.931-.237.398a2.174 2.174 0 0 0-1.566.216 2.096 2.096 0 0 0-.976 1.207h-.515a2.094 2.094 0 0 0-.976-1.207 2.164 2.164 0 0 0-1.566-.216l-.237-.397c.368-.384.58-.896.578-1.435a2.07 2.07 0 0 0-.578-1.424l.237-.398a2.17 2.17 0 0 0 1.566-.216c.476-.268.821-.704.976-1.207h.515c.154.502.5.938.976 1.207.48.27 1.044.342 1.566.216l.237.398a2.069 2.069 0 0 0-.577 1.431c0 .536.212 1.045.577 1.427M19.02 18a1 1 0 0 1-1 1 1.005 1.005 0 0 1-1.005-1c0-.552.443-1 .995-1h.01a1 1 0 0 1 1 1"/></svg>