<svg xmlns="http://www.w3.org/2000/svg" width="24" height="24" fill="none"><path fill="currentColor" d="M21 8.75a.75.75 0 0 1-.75-.75V4.5c0-.589-.161-.75-.75-.75H16a.75.75 0 0 1 0-1.5h3.5c1.409 0 2.25.841 2.25 2.25V8a.75.75 0 0 1-.75.75M3.75 8V4.5c0-.589.161-.75.75-.75H8a.75.75 0 0 0 0-1.5H4.5c-1.409 0-2.25.841-2.25 2.25V8a.75.75 0 0 0 1.5 0m5 13a.75.75 0 0 0-.75-.75H4.5c-.589 0-.75-.161-.75-.75V16a.75.75 0 0 0-1.5 0v3.5c0 1.409.841 2.25 2.25 2.25H8a.75.75 0 0 0 .75-.75m13-1.5V16a.75.75 0 0 0-1.5 0v3.5c0 .589-.161.75-.75.75H16a.75.75 0 0 0 0 1.5h3.5c1.409 0 2.25-.841 2.25-2.25M15.09 8.333c0-1.7-1.384-3.083-3.084-3.083a3.086 3.086 0 0 0-3.083 3.083c0 1.7 1.383 3.083 3.083 3.083 1.7 0 3.084-1.382 3.084-3.083m-1.5 0a1.585 1.585 0 0 1-3.167 0 1.585 1.585 0 0 1 3.167 0m3.827 7.679c0-1.889-1.069-4.096-4.084-4.096h-2.666c-3.015 0-4.084 2.207-4.084 4.096 0 1.74 1.003 2.738 2.752 2.738h5.33c1.749 0 2.752-.998 2.752-2.738m-4.084-2.595c2.332 0 2.584 1.815 2.584 2.596 0 .914-.327 1.238-1.252 1.238h-5.33c-.925 0-1.252-.324-1.252-1.238 0-.78.252-2.596 2.584-2.596z"/></svg>