<svg xmlns="http://www.w3.org/2000/svg" width="24" height="24" fill="none"><path fill="currentColor" d="M10.009 10.75a4.255 4.255 0 0 0 4.25-4.25 4.255 4.255 0 0 0-4.25-4.25 4.255 4.255 0 0 0-4.25 4.25 4.255 4.255 0 0 0 4.25 4.25Zm0-7a2.752 2.752 0 0 1 2.75 2.75 2.752 2.752 0 0 1-2.75 2.75 2.752 2.752 0 0 1-2.75-2.75 2.752 2.752 0 0 1 2.75-2.75ZM3.75 18.02c0 1.563.673 2.23 2.25 2.23h4a.75.75 0 0 1 0 1.5H6c-2.418 0-3.75-1.325-3.75-3.73 0-2.662 1.506-5.77 5.75-5.77h4c.852 0 1.613.124 2.264.368a.75.75 0 1 1-.528 1.404c-.48-.181-1.065-.272-1.736-.272H8c-3.943 0-4.25 3.269-4.25 4.27Zm18.487-4.144-1.114-1.113a1.736 1.736 0 0 0-1.237-.513h-.002c-.469 0-.908.184-1.237.515l-6.178 6.206a.747.747 0 0 0-.219.529V22c0 .414.336.75.75.75h2.5c.198 0 .39-.079.53-.218l6.203-6.177c.333-.33.517-.77.517-1.239a1.739 1.739 0 0 0-.513-1.24ZM15.19 21.25h-1.44v-1.44l4.122-4.141 1.458 1.46-4.14 4.121Zm5.986-5.959-.782.779-1.463-1.464.779-.783a.247.247 0 0 1 .176-.073c.039 0 .113.01.177.073l1.114 1.114a.25.25 0 0 1-.001.354Z"/></svg>