<svg xmlns="http://www.w3.org/2000/svg" width="24" height="24" fill="none"><path fill="currentColor" d="M21.53 11.47a.75.75 0 0 1-1.06 1.061L19 11.061l-1.47 1.47a.748.748 0 0 1-1.06 0 .75.75 0 0 1 0-1.061L17.94 10l-1.47-1.47a.75.75 0 0 1 1.061-1.061l1.47 1.47 1.47-1.47a.75.75 0 0 1 1.061 1.061L20.062 10l1.468 1.47ZM5.759 6.5a4.255 4.255 0 0 1 4.25-4.25 4.255 4.255 0 0 1 4.25 4.25 4.255 4.255 0 0 1-4.25 4.25 4.255 4.255 0 0 1-4.25-4.25Zm1.5 0a2.752 2.752 0 0 0 2.75 2.75 2.752 2.752 0 0 0 2.75-2.75 2.752 2.752 0 0 0-2.75-2.75 2.752 2.752 0 0 0-2.75 2.75ZM12 12.25H8c-4.244 0-5.75 3.107-5.75 5.769V21a.75.75 0 0 0 1.5 0v-2.981c0-1.001.307-4.269 4.25-4.269h4c3.943 0 4.25 3.267 4.25 4.269V21a.75.75 0 0 0 1.5 0v-2.981c0-2.662-1.506-5.769-5.75-5.769Z"/></svg>