<svg xmlns="http://www.w3.org/2000/svg" width="24" height="24" fill="none"><path fill="currentColor" d="M10.009 10.75a4.255 4.255 0 0 0 4.25-4.25 4.255 4.255 0 0 0-4.25-4.25 4.255 4.255 0 0 0-4.25 4.25 4.255 4.255 0 0 0 4.25 4.25Zm0-7a2.752 2.752 0 0 1 2.75 2.75 2.752 2.752 0 0 1-2.75 2.75 2.752 2.752 0 0 1-2.75-2.75 2.752 2.752 0 0 1 2.75-2.75ZM3.75 18.02c0 1.563.673 2.23 2.25 2.23h4a.75.75 0 0 1 0 1.5H6c-2.418 0-3.75-1.325-3.75-3.73 0-2.662 1.506-5.77 5.75-5.77h4c.421 0 .787.026 1.119.08.409.065.688.45.621.859a.754.754 0 0 1-.859.621 5.514 5.514 0 0 0-.881-.06H8c-3.943 0-4.25 3.269-4.25 4.27Zm18.689-.643c-.697-1.167-2.267-3.127-4.939-3.127s-4.242 1.959-4.939 3.126a2.183 2.183 0 0 0 0 2.247c.697 1.167 2.267 3.127 4.939 3.127s4.242-1.959 4.939-3.127a2.182 2.182 0 0 0 0-2.246Zm-1.287 1.476c-.535.896-1.72 2.397-3.652 2.397-1.932 0-3.117-1.501-3.652-2.397a.685.685 0 0 1 0-.707c.535-.895 1.72-2.396 3.652-2.396 1.932 0 3.117 1.501 3.652 2.397a.683.683 0 0 1 0 .706ZM18.77 18.5c0 .69-.56 1.25-1.25 1.25-.689 0-1.255-.56-1.255-1.25s.555-1.25 1.245-1.25h.01c.69 0 1.25.56 1.25 1.25Z"/></svg>