<svg xmlns="http://www.w3.org/2000/svg" width="24" height="24" fill="none"><path fill="currentColor" d="M10.009 10.75a4.255 4.255 0 0 0 4.25-4.25 4.255 4.255 0 0 0-4.25-4.25 4.255 4.255 0 0 0-4.25 4.25 4.255 4.255 0 0 0 4.25 4.25m0-7a2.752 2.752 0 0 1 2.75 2.75 2.752 2.752 0 0 1-2.75 2.75 2.752 2.752 0 0 1-2.75-2.75 2.752 2.752 0 0 1 2.75-2.75M12 12.25H8c-4.244 0-5.75 3.107-5.75 5.769 0 2.406 1.333 3.731 3.753 3.731h7.994c2.42 0 3.753-1.325 3.753-3.731 0-2.662-1.506-5.769-5.75-5.769m1.997 8H6.003c-1.579 0-2.253-.667-2.253-2.231 0-1.001.307-4.269 4.25-4.269h4c3.943 0 4.25 3.267 4.25 4.269 0 1.564-.674 2.231-2.253 2.231m7.753-10.222a.75.75 0 0 1-.75.75h-1.75v1.75a.75.75 0 0 1-1.5 0v-1.75H16a.75.75 0 0 1 0-1.5h1.75v-1.75a.75.75 0 0 1 1.5 0v1.75H21a.75.75 0 0 1 .75.75"/></svg>