<svg xmlns="http://www.w3.org/2000/svg" width="24" height="24" fill="none"><path fill="currentColor" d="M9.009 10.75a4.255 4.255 0 0 0 4.25-4.25 4.255 4.255 0 0 0-4.25-4.25 4.255 4.255 0 0 0-4.25 4.25 4.255 4.255 0 0 0 4.25 4.25m0-7a2.752 2.752 0 0 1 2.75 2.75 2.752 2.752 0 0 1-2.75 2.75 2.752 2.752 0 0 1-2.75-2.75 2.752 2.752 0 0 1 2.75-2.75m7.741 14.27c0 2.405-1.332 3.73-3.75 3.73H6.89a.75.75 0 0 1 0-1.5H13c1.577 0 2.25-.667 2.25-2.23 0-.566-.116-2.496-1.608-3.534a.75.75 0 1 1 .857-1.232c1.409.982 2.251 2.763 2.251 4.766m2.732-9.548c.272.26.311.671.102.97a3.458 3.458 0 0 1-1.376 1.332.77.77 0 0 1-.375.1.743.743 0 0 1-.528-.218A.744.744 0 0 1 17.3 9.6a.862.862 0 0 1 .194-.145c.344-.179.616-.447.81-.797a.756.756 0 0 1 1.178-.186m3.268 8.208c0 1.951-1.126 3.07-3.09 3.07h-.68a.75.75 0 0 1 0-1.5h.68c1.145 0 1.59-.44 1.59-1.57 0-.739-.227-3.15-3.14-3.15h-1.511a.75.75 0 0 1 0-1.5h1.511c3.425 0 4.64 2.505 4.64 4.65M21.53 3.53a.75.75 0 0 0-1.061-1.061l-2.226 2.226c-.979-.531-2.237-.586-3.197-.092a.75.75 0 1 0 .686 1.334c.391-.2.896-.214 1.359-.089l-6.402 6.402H7c-4.244 0-5.75 3.108-5.75 5.77 0 1.184.321 2.093.942 2.728l-.722.722a.75.75 0 0 0 1.06 1.061l19-19ZM2.75 18.02c0-1.001.307-4.27 4.25-4.27h2.189l-5.94 5.94c-.269-.286-.499-.771-.499-1.67"/></svg>