<svg xmlns="http://www.w3.org/2000/svg" width="24" height="24" fill="none"><path fill="currentColor" d="M11.009 10.75a4.255 4.255 0 0 1-4.25-4.25 4.255 4.255 0 0 1 4.25-4.25 4.255 4.255 0 0 1 4.25 4.25 4.255 4.255 0 0 1-4.25 4.25m0-7a2.752 2.752 0 0 0-2.75 2.75 2.752 2.752 0 0 0 2.75 2.75 2.752 2.752 0 0 0 2.75-2.75 2.753 2.753 0 0 0-2.75-2.75M14.75 21a.75.75 0 0 0-.75-.75H7c-1.577 0-2.25-.667-2.25-2.23 0-1.001.307-4.27 4.25-4.27h4c1.636 0 2.823.557 3.53 1.655a.749.749 0 1 0 1.261-.81c-.688-1.07-2.076-2.345-4.791-2.345H9c-4.244 0-5.75 3.108-5.75 5.77 0 2.405 1.332 3.73 3.75 3.73h7a.75.75 0 0 0 .75-.75m4.113.197 2.667-2.667a.75.75 0 1 0-1.061-1.061l-2.137 2.136-.803-.803a.75.75 0 0 0-1.061 1.061l1.333 1.333a.748.748 0 0 0 1.062.001"/></svg>