<svg xmlns="http://www.w3.org/2000/svg" width="24" height="24" fill="none"><path fill="currentColor" d="M12 22.75a2.398 2.398 0 0 1-1.934-.967l-1.499-2a.923.923 0 0 0-.734-.367h-1.5c-2.633 0-4.083-1.45-4.083-4.083v-10C2.25 2.7 3.7 1.25 6.333 1.25h11.334c2.633 0 4.083 1.45 4.083 4.083v10c0 2.633-1.45 4.083-4.083 4.083h-1.5a.92.92 0 0 0-.734.368l-1.5 2A2.396 2.396 0 0 1 12 22.75Zm-5.667-20c-1.811 0-2.583.772-2.583 2.583v10c0 1.811.772 2.583 2.583 2.583h1.5c.756 0 1.479.361 1.934.966l1.5 2c.35.467 1.118.466 1.466 0l1.501-2a2.432 2.432 0 0 1 1.934-.967h1.5c1.811 0 2.583-.772 2.583-2.583v-10c0-1.811-.772-2.583-2.583-2.583H6.333v.001Zm5.667 7a2.503 2.503 0 0 1-2.5-2.5c0-1.378 1.121-2.5 2.5-2.5s2.5 1.122 2.5 2.5-1.121 2.5-2.5 2.5Zm0-3.5a1.001 1.001 0 0 0 0 2 1.001 1.001 0 0 0 0-2Zm1.994 10H9.997c-1.41 0-2.252-.838-2.252-2.241 0-1.623 1.005-3.259 3.25-3.259h2c2.245 0 3.25 1.637 3.25 3.259 0 1.403-.842 2.241-2.251 2.241Zm-2.999-4c-1.522 0-1.75 1.102-1.75 1.759 0 .575.169.741.752.741h3.997c.583 0 .751-.166.751-.741 0-.657-.228-1.759-1.75-1.759h-2Z"/></svg>