<svg xmlns="http://www.w3.org/2000/svg" width="24" height="24" fill="none"><path fill="currentColor" d="M10.009 10.75a4.255 4.255 0 0 1-4.25-4.25 4.255 4.255 0 0 1 4.25-4.25 4.255 4.255 0 0 1 4.25 4.25 4.255 4.255 0 0 1-4.25 4.25m0-7a2.752 2.752 0 0 0-2.75 2.75 2.752 2.752 0 0 0 2.75 2.75 2.752 2.752 0 0 0 2.75-2.75 2.753 2.753 0 0 0-2.75-2.75m1.991 18H6c-2.418 0-3.75-1.325-3.75-3.73 0-2.662 1.506-5.77 5.75-5.77h4c.421 0 .787.026 1.119.08.409.065.688.45.621.859a.753.753 0 0 1-.859.621 5.514 5.514 0 0 0-.881-.06H8c-3.943 0-4.25 3.269-4.25 4.27 0 1.563.673 2.23 2.25 2.23h6a.75.75 0 0 1 0 1.5m6.429 1a.759.759 0 0 1-.245-.041c-1.901-.657-3.934-2.356-3.934-5.153v-2.222c0-.333.22-.626.539-.72 1.744-.511 2.558-.897 3.304-1.281a.75.75 0 0 1 .69.002c.737.385 1.543.768 3.263 1.214.33.086.562.384.562.726v2.28c0 2.797-2.032 4.496-3.934 5.153a.734.734 0 0 1-.245.042m-2.679-6.859v1.665c0 2.29 1.897 3.316 2.679 3.642.781-.325 2.679-1.353 2.679-3.642V15.85c-1.166-.328-1.927-.637-2.674-1.01-.747.369-1.508.685-2.684 1.051"/></svg>