<svg xmlns="http://www.w3.org/2000/svg" width="24" height="24" fill="none"><path fill="currentColor" d="M16.5 22.75a.744.744 0 0 1-.53-.22l-2.5-2.5a.75.75 0 0 1 0-1.061l2.5-2.5a.75.75 0 1 1 1.061 1.061l-1.97 1.97 1.97 1.97a.75.75 0 0 1-.531 1.28Zm3.53-.22 2.5-2.5a.75.75 0 0 0 0-1.061l-2.5-2.5a.75.75 0 1 0-1.061 1.061l1.97 1.97-1.97 1.97a.75.75 0 1 0 1.061 1.06ZM14.259 6.5a4.255 4.255 0 0 0-4.25-4.25 4.255 4.255 0 0 0-4.25 4.25 4.255 4.255 0 0 0 4.25 4.25 4.255 4.255 0 0 0 4.25-4.25Zm-1.5 0a2.752 2.752 0 0 1-2.75 2.75 2.752 2.752 0 0 1-2.75-2.75 2.752 2.752 0 0 1 2.75-2.75 2.752 2.752 0 0 1 2.75 2.75ZM11.75 21a.75.75 0 0 0-.75-.75H6c-1.577 0-2.25-.667-2.25-2.23 0-1.001.307-4.27 4.25-4.27h4c1.159 0 2.099.281 2.791.835a.75.75 0 1 0 .938-1.171c-.966-.773-2.22-1.165-3.729-1.165H8c-4.244 0-5.75 3.108-5.75 5.77 0 2.405 1.332 3.73 3.75 3.73h5a.749.749 0 0 0 .75-.749Z"/></svg>