<svg xmlns="http://www.w3.org/2000/svg" width="24" height="24" fill="none"><path fill="currentColor" d="M3.001 11.855a.75.75 0 0 1-.746-.831A9.632 9.632 0 0 1 7.61 3.382a.75.75 0 0 1 1.081.674v3.05a.75.75 0 0 1-1.5 0V5.365a8.136 8.136 0 0 0-3.445 5.823.75.75 0 0 1-.745.667m13.39 8.874a9.633 9.633 0 0 0 5.354-7.642.749.749 0 1 0-1.49-.163 8.141 8.141 0 0 1-3.445 5.823v-1.741a.75.75 0 0 0-1.5 0v3.05a.75.75 0 0 0 1.08.673ZM15.504 6.25a2.503 2.503 0 0 1-2.5-2.5c0-1.378 1.121-2.5 2.5-2.5 1.38 0 2.5 1.122 2.5 2.5s-1.12 2.5-2.5 2.5m0-3.5a1.001 1.001 0 0 0 0 2 1.001 1.001 0 0 0 0-2m1.994 10H13.5c-1.409 0-2.251-.838-2.251-2.241 0-1.623 1.005-3.259 3.25-3.259h2c2.245 0 3.25 1.637 3.25 3.259 0 1.403-.842 2.241-2.25 2.241Zm-2.999-4c-1.522 0-1.75 1.102-1.75 1.759 0 .575.168.741.751.741h3.998c.583 0 .751-.166.751-.741 0-.657-.228-1.759-1.75-1.759zm-6.995 7.5a2.503 2.503 0 0 1-2.5-2.5c0-1.378 1.121-2.5 2.5-2.5 1.38 0 2.5 1.122 2.5 2.5s-1.121 2.5-2.5 2.5m0-3.5a1.001 1.001 0 0 0 0 2 1.001 1.001 0 0 0 0-2m1.994 10H5.501c-1.409 0-2.251-.838-2.251-2.241 0-1.623 1.005-3.259 3.25-3.259h2c2.245 0 3.25 1.637 3.25 3.259 0 1.403-.842 2.241-2.25 2.241Zm-2.999-4c-1.522 0-1.75 1.102-1.75 1.759 0 .575.168.741.751.741h3.998c.583 0 .751-.166.751-.741 0-.657-.228-1.759-1.75-1.759z"/></svg>