<svg xmlns="http://www.w3.org/2000/svg" width="24" height="24" fill="none"><path fill="currentColor" d="M17.625 2.25H6.375c-2.66 0-4.125 1.465-4.125 4.125v11.25c0 2.66 1.465 4.125 4.125 4.125h11.25c2.66 0 4.125-1.465 4.125-4.125V6.375c0-2.66-1.465-4.125-4.125-4.125Zm-.375 18H6.75v-.38c0-.833.255-3.55 3.54-3.55h3.42c3.285 0 3.54 2.717 3.54 3.55v.38Zm3-2.625c0 1.406-.463 2.192-1.5 2.486v-.241c0-2.33-1.32-5.05-5.04-5.05h-3.42c-3.72 0-5.04 2.721-5.04 5.05v.241c-1.037-.294-1.5-1.081-1.5-2.486V6.375c0-1.84.785-2.625 2.625-2.625h11.25c1.84 0 2.625.785 2.625 2.625v11.25ZM12.008 6.25A3.755 3.755 0 0 0 8.258 10a3.755 3.755 0 0 0 3.75 3.75 3.755 3.755 0 0 0 3.75-3.75 3.755 3.755 0 0 0-3.75-3.75Zm0 6A2.253 2.253 0 0 1 9.758 10c0-1.241 1.01-2.25 2.25-2.25s2.25 1.009 2.25 2.25-1.01 2.25-2.25 2.25Z"/></svg>