<svg xmlns="http://www.w3.org/2000/svg" width="24" height="24" fill="none"><path fill="currentColor" d="M12 1.25C6.072 1.25 1.25 6.072 1.25 12S6.072 22.75 12 22.75 22.75 17.928 22.75 12 17.928 1.25 12 1.25Zm0 20c-5.101 0-9.25-4.149-9.25-9.25S6.899 2.75 12 2.75s9.25 4.149 9.25 9.25-4.149 9.25-9.25 9.25Zm5.59-12.74a1.154 1.154 0 0 0-1.229.14l-.894.715c-.156-1.253-.995-1.965-2.368-1.965H8.15c-1.524 0-2.399.875-2.399 2.4v4.4c0 1.525.875 2.4 2.4 2.4h4.95c1.371 0 2.211-.713 2.367-1.966l.893.714a1.156 1.156 0 0 0 1.23.141c.407-.195.66-.597.66-1.048V9.557c0-.45-.253-.851-.66-1.047ZM14 14.2c0 .689-.21.9-.9.9H8.15c-.69 0-.899-.21-.899-.9V9.8c0-.689.21-.9.9-.9h4.95c.69 0 .899.21.899.9v4.4Zm2.75-.461-1.25-1V11.26l1.25-1v3.479Z"/></svg>