<svg xmlns="http://www.w3.org/2000/svg" width="24" height="24" fill="none"><path fill="currentColor" d="M21.9 6.208a1.49 1.49 0 0 0-1.588.18L17.75 8.44V8c0-2.418-1.332-3.75-3.75-3.75H5C2.582 4.25 1.25 5.582 1.25 8v8c0 2.418 1.332 3.75 3.75 3.75h9c2.418 0 3.75-1.332 3.75-3.75v-.439l2.563 2.051a1.49 1.49 0 0 0 1.587.18c.523-.252.85-.771.85-1.352V7.56c0-.582-.326-1.1-.85-1.353ZM16.25 16c0 1.577-.673 2.25-2.25 2.25H5c-1.577 0-2.25-.673-2.25-2.25V8c0-1.577.673-2.25 2.25-2.25h9c1.577 0 2.25.673 2.25 2.25zm5 .44-3.5-2.8v-3.28l3.5-2.8v8.879Zm-8.558-7.227a.75.75 0 0 1 .058.287v3a.75.75 0 0 1-1.5 0v-1.189l-3.72 3.72a.748.748 0 0 1-1.06 0 .75.75 0 0 1 0-1.061l3.72-3.72H9a.75.75 0 0 1 0-1.5h3a.751.751 0 0 1 .692.463"/></svg>