<svg xmlns="http://www.w3.org/2000/svg" width="24" height="24" fill="none"><path fill="currentColor" d="M17.625 2.25H6.375c-2.66 0-4.125 1.465-4.125 4.125v11.25c0 2.66 1.465 4.125 4.125 4.125h11.25c2.66 0 4.125-1.465 4.125-4.125V6.375c0-2.66-1.465-4.125-4.125-4.125Zm2.625 4.125V8.25h-4.5v-4.5h1.875c1.84 0 2.625.785 2.625 2.625ZM9.75 8.25v-4.5h4.5v4.5h-4.5Zm-3.375-4.5H8.25v4.5h-4.5V6.375c0-1.84.785-2.625 2.625-2.625Zm11.25 16.5H6.375c-1.84 0-2.625-.785-2.625-2.625V9.75h16.5v7.875c0 1.84-.785 2.625-2.625 2.625Zm-2.652-7.135-3.148-1.927a1.693 1.693 0 0 0-1.711-.033 1.667 1.667 0 0 0-.863 1.472v3.746c0 .619.322 1.169.863 1.472a1.69 1.69 0 0 0 1.711-.033l3.147-1.926c.487-.298.778-.816.778-1.386s-.291-1.088-.777-1.385Zm-.784 1.491-3.148 1.927a.184.184 0 0 1-.194.004.18.18 0 0 1-.097-.164v-3.746c0-.09.053-.14.097-.164a.19.19 0 0 1 .095-.026.19.19 0 0 1 .1.03l3.148 1.927h.001c.039.024.06.06.06.105a.121.121 0 0 1-.062.107Z"/></svg>