<svg xmlns="http://www.w3.org/2000/svg" width="24" height="24" fill="none"><path fill="currentColor" d="M22.75 7.56v8.88c0 .582-.326 1.101-.852 1.353a1.492 1.492 0 0 1-1.586-.177l-2.562-2.054V16c0 2.418-1.332 3.75-3.75 3.75H9a.75.75 0 0 1 0-1.5h5c1.577 0 2.25-.673 2.25-2.25v-5a.75.75 0 0 1 1.5 0v2.64l3.499 2.804.001-8.884a.76.76 0 0 1-.806-.694.75.75 0 0 1 .69-.804 1.51 1.51 0 0 1 1.14.4c.307.285.476.675.476 1.098m-1.22-4.03-18 18a.748.748 0 0 1-1.06 0 .75.75 0 0 1 0-1.061l.958-.958c-1.415-.481-2.177-1.685-2.177-3.512v-8c0-2.418 1.332-3.75 3.75-3.75h9c1.488 0 2.58.526 3.188 1.502l3.282-3.282A.75.75 0 1 1 21.53 3.53M4.707 18.233 16.072 6.868C15.867 6.29 15.38 5.75 14 5.75H5c-1.577 0-2.25.673-2.25 2.25v8c0 1.472.596 2.148 1.957 2.233"/></svg>