<svg xmlns="http://www.w3.org/2000/svg" width="24" height="24" fill="none"><path fill="currentColor" d="M20.76 5.24c-.58-.62-1.37-.96-2.36-.98-1.95-.07-4.54.73-5.81 4.89-.08.28 0 .58.22.78.22.19.53.25.8.13.36-.16.71-.23 1.04-.23.19 0 .34.03.39.09.06.07.11.27.07.64-.03.34-.25 1.04-1.1 2.39-.5.8-.83 1.16-1 1.33-.14-.24-.38-.8-.67-2.08-.13-.51-.37-1.88-.71-4.07-.52-3.29-2.35-3.61-3.4-3.51-.77.07-1.75.64-3.1 1.81-.86.78-1.73 1.56-2.62 2.34-.3.26-.34.71-.1 1.02l.85 1.09c.25.32.69.38 1.02.16.55-.39.85-.58 1.01-.66.15.15.53.66.98 2.31l1.47 5.4c.92 2.47 2.02 3.67 3.36 3.67 1.87 0 3.97-1.65 6.8-5.34 2.49-3.21 3.74-5.7 3.83-7.63.07-1.57-.26-2.75-.98-3.53l.01-.02Zm-4.03 10.25c-2.43 3.16-4.32 4.76-5.62 4.76-.59 0-1.33-1.01-1.94-2.63l-1.45-5.34c-.45-1.61-1.13-3.46-2.46-3.46-.21 0-.41.04-1.09.48.66-.59 1.31-1.17 1.95-1.75C7.56 6.3 8.17 6.13 8.37 6.11c.42-.04 1.4-.14 1.77 2.25.36 2.26.6 3.64.74 4.18.38 1.74.9 3.35 2.07 3.35.7 0 1.37-.62 2.33-2.14.83-1.31 1.26-2.31 1.33-3.05.08-.76-.07-1.36-.45-1.78-.38-.42-.95-.6-1.64-.59.84-1.78 2.11-2.61 3.85-2.57.58.02 1 .18 1.3.51.43.47.63 1.31.58 2.44-.07 1.59-1.25 3.87-3.52 6.79v-.01Z"/></svg>