<svg xmlns="http://www.w3.org/2000/svg" width="24" height="24" fill="none"><path fill="currentColor" d="M21 9.75a.75.75 0 0 0-.75.75v.75h-1.039a7.218 7.218 0 0 0-1.585-3.815l.739-.739.53.53a.748.748 0 0 0 1.06 0 .75.75 0 0 0 0-1.061l-2.121-2.122a.75.75 0 0 0-1.061 1.061l.531.531-.74.739a7.219 7.219 0 0 0-3.814-1.586V3.75h.75a.75.75 0 0 0 0-1.5h-3a.75.75 0 0 0 0 1.5h.75v1.04a7.208 7.208 0 0 0-3.815 1.585l-.739-.739.531-.531a.75.75 0 1 0-1.061-1.061L4.045 6.165a.75.75 0 0 0 1.06 1.061l.53-.53.739.74a7.215 7.215 0 0 0-1.585 3.814H3.75v-.75a.75.75 0 0 0-1.5 0v3a.75.75 0 0 0 1.5 0v-.75h1.039a7.218 7.218 0 0 0 1.585 3.815l-.739.739-.53-.53a.75.75 0 1 0-1.061 1.061l2.121 2.122a.748.748 0 0 0 1.06 0 .75.75 0 0 0 0-1.061l-.531-.531.739-.739a7.22 7.22 0 0 0 3.815 1.586v1.039h-.75a.75.75 0 0 0 0 1.5h3a.75.75 0 0 0 0-1.5h-.75v-1.04a7.208 7.208 0 0 0 3.815-1.585l.739.739-.531.531a.75.75 0 0 0 1.06 1.061l2.121-2.122a.75.75 0 0 0-1.061-1.061l-.53.53-.74-.74a7.214 7.214 0 0 0 1.586-3.814h1.039v.75a.75.75 0 0 0 1.5 0v-3A.744.744 0 0 0 21 9.75m-9 8A5.757 5.757 0 0 1 6.25 12c0-3.17 2.579-5.75 5.75-5.75s5.75 2.58 5.75 5.75-2.579 5.75-5.75 5.75M10.25 12a1.25 1.25 0 1 1-2.5 0 1.25 1.25 0 0 1 2.5 0M15 10a1 1 0 1 1-2 0 1 1 0 0 1 2 0m-1.25 4a.75.75 0 1 1-1.5 0 .75.75 0 0 1 1.5 0"/></svg>