<svg xmlns="http://www.w3.org/2000/svg" width="24" height="24" fill="none"><path fill="currentColor" d="M18 4.25H6C3.58 4.25 2.25 5.58 2.25 8v8c0 2.42 1.33 3.75 3.75 3.75h12c2.42 0 3.75-1.33 3.75-3.75V8c0-2.42-1.33-3.75-3.75-3.75ZM20.25 16c0 1.58-.67 2.25-2.25 2.25H6c-1.58 0-2.25-.67-2.25-2.25V8c0-1.58.67-2.25 2.25-2.25h12c1.58 0 2.25.67 2.25 2.25v8Zm-8.46-6.04-.66 4.07h-1.05l.66-4.07h1.05Zm-1.48 0-1.66 4.07H7.54l-.94-3.54c-.32-.19-.69-.34-1.11-.45l.02-.08h1.7c.23.01.42.08.48.34l.37 1.87.11.56L9.2 9.95h1.11v.01Zm4.48 2.74c0 .84-.73 1.39-1.83 1.39-.47 0-.93-.1-1.17-.22l.15-.91.14.07c.34.15.57.22.99.22.3 0 .63-.13.63-.4 0-.18-.14-.31-.55-.51-.4-.2-.93-.52-.92-1.11 0-.79.74-1.35 1.78-1.35.41 0 .74.09.94.17l-.14.88-.09-.04c-.19-.08-.44-.16-.78-.15-.41 0-.6.18-.61.35 0 .19.23.32.59.5.61.29.89.64.88 1.11h-.01Zm2.04-2.74c-.25 0-.44.07-.55.34l-1.56 3.73h1.11l.22-.61h1.35l.13.61h.97l-.85-4.07h-.82Zm-.48 2.63c.09-.23.42-1.14.42-1.14s.09-.24.14-.39l.07.35s.2.97.24 1.18h-.88.01Z"/></svg>