<svg xmlns="http://www.w3.org/2000/svg" width="24" height="24" fill="none"><path fill="currentColor" d="M21.72 17.8a9.638 9.638 0 0 0-3.95-5.5c1.6-1.3 2.76-3.11 3.24-5.13a.754.754 0 0 0-.73-.93h-2.92c-.33 0-.61.21-.71.52-.49 1.52-1.61 2.88-2.74 3.44V6.99c0-.41-.34-.75-.75-.75h-2.9c-.41 0-.75.34-.75.75v6.41c-1.3-.85-2.55-2.86-2.66-6.43a.752.752 0 0 0-.75-.73H3.01c-.2 0-.4.08-.54.23-.14.15-.22.34-.21.54.21 7.34 4.16 11.73 10.55 11.73h.36c.41 0 .75-.34.75-.75v-3.1c1.46.44 2.65 1.66 3.19 3.33.1.31.39.52.71.52h3.19c.23 0 .45-.11.6-.29.14-.19.19-.43.13-.65zm-3.39-.55c-.92-2.27-2.84-3.79-5.11-4.01a.772.772 0 0 0-.58.19c-.16.14-.25.34-.25.56v3.25c-5.1-.17-8.21-3.59-8.62-9.49h1.59c.36 4.76 2.62 7.01 4.69 7.53a.754.754 0 0 0 .93-.73v-6.8h1.4v3.46c0 .21.09.42.25.56.16.14.37.21.58.19 1.82-.19 3.74-1.96 4.65-4.21h1.38a7.94 7.94 0 0 1-3.27 3.98c-.23.14-.37.4-.36.67.01.27.17.52.42.64 1.78.89 3.16 2.39 3.9 4.21h-1.62z"/></svg>