<svg xmlns="http://www.w3.org/2000/svg" width="24" height="24" fill="none"><path fill="currentColor" d="M22.75 12c0-.72-.07-1.42-.21-2.1v-.01c-.4-2.02-1.38-3.84-2.75-5.28a.812.812 0 0 0-.09-.1A10.698 10.698 0 0 0 12 1.25c-3.02 0-5.67 1.22-7.62 3.18l-.01.01c-1 1.01-1.8 2.22-2.34 3.56-.01.02-.02.05-.03.07-.48 1.22-.75 2.54-.75 3.93 0 4.82 3.19 8.92 7.58 10.27h.04c.99.3 2.04.47 3.13.47.28 0 .55-.02.82-.04h.01c5.53-.43 9.91-5.06 9.91-10.71l.01.01Zm-10.72-.85a16.79 16.79 0 0 1-2.84-2.02c2.43-2.17 5.53-3.37 8.81-3.37.28 0 .56.02.83.04.9.99 1.6 2.17 2.01 3.49a17.685 17.685 0 0 0-8.81 1.88v-.02ZM4.82 6.18c1.58 2.6 3.77 4.74 6.42 6.24-.03 1.26-.21 2.51-.52 3.71-3.36-1.47-6.01-4.31-7.21-7.77.34-.79.79-1.52 1.32-2.18h-.01Zm12.29-1.89c-3.35.2-6.49 1.52-8.99 3.78-.85-.91-1.59-1.92-2.22-3.01a9.222 9.222 0 0 1 11.21-.77ZM2.75 12c0-.46.04-.91.11-1.35 1.57 3.08 4.2 5.55 7.41 6.91-.39 1.07-.9 2.11-1.52 3.08-3.5-1.32-6-4.69-6-8.65V12Zm7.5 9.08c.68-1.14 1.23-2.35 1.64-3.61 0-.02.02-.03.03-.05v-.05c.5-1.57.77-3.22.81-4.9 1.11-.56 2.28-.99 3.49-1.28.02.28.03.55.03.8 0 3.48-1.34 6.74-3.76 9.23-.16 0-.32.02-.49.02-.6 0-1.18-.06-1.75-.17v.01Zm4.56-.27c1.9-2.53 2.94-5.58 2.94-8.81 0-.34-.02-.7-.04-1.08.76-.11 1.52-.17 2.29-.17.41 0 .79.02 1.16.05.05.39.09.79.09 1.2 0 4.12-2.71 7.62-6.44 8.81Z"/></svg>