<svg xmlns="http://www.w3.org/2000/svg" width="24" height="24" fill="none"><path fill="currentColor" d="M17.75 11v8.33c0 .951-.535 1.791-1.397 2.191a2.411 2.411 0 0 1-2.586-.348l-3.645-3.091a.75.75 0 0 1 .418-1.372c.205 0 .421.094.562.243l3.633 3.075c.282.238.65.287.985.133a.896.896 0 0 0 .529-.83V11a.75.75 0 0 1 1.501 0Zm3.78-7.47-18 18a.748.748 0 0 1-1.06 0 .75.75 0 0 1 0-1.061l3.416-3.416a2.244 2.244 0 0 1-.635-1.554v-7c0-1.241 1.01-2.25 2.25-2.25h1.77c.294 0 .581-.105.81-.296l3.686-3.126a2.402 2.402 0 0 1 2.588-.35c.862.4 1.397 1.24 1.397 2.191v.52l2.72-2.72A.75.75 0 1 1 21.53 3.53Zm-5.28 1.14a.896.896 0 0 0-.529-.83.904.904 0 0 0-.987.133L11.046 7.1a2.774 2.774 0 0 1-1.775.648h-1.77a.75.75 0 0 0-.75.75v7c0 .191.076.36.196.494l9.304-9.304v-2.02h-.001Z"/></svg>