<svg xmlns="http://www.w3.org/2000/svg" width="24" height="24" fill="none"><path fill="currentColor" d="M13.75 15v4.33c0 .951-.535 1.791-1.397 2.191a2.411 2.411 0 0 1-2.586-.348l-1.543-1.312a.75.75 0 1 1 .973-1.142l1.54 1.31c.28.237.649.287.984.132a.896.896 0 0 0 .529-.83V15a.75.75 0 0 1 1.5 0m4.705-4.96a.75.75 0 1 0-1.434.44 5.221 5.221 0 0 1-1.313 5.23.75.75 0 0 0 1.06 1.061 6.712 6.712 0 0 0 1.687-6.731m2.981-3.181a.75.75 0 0 0-1.315.722c1.956 3.564 1.305 8.07-1.583 10.958a.75.75 0 0 0 1.06 1.061c3.357-3.357 4.113-8.596 1.838-12.741m.094-3.329-18 18a.748.748 0 0 1-1.06 0 .75.75 0 0 1 0-1.061l2.72-2.72H3.5a2.253 2.253 0 0 1-2.25-2.25v-7c0-1.241 1.01-2.25 2.25-2.25h1.77c.294 0 .581-.105.81-.296l3.686-3.126a2.403 2.403 0 0 1 2.588-.35c.862.4 1.397 1.24 1.397 2.191v4.52l6.72-6.72A.75.75 0 1 1 21.53 3.53m-9.28 1.14a.896.896 0 0 0-.53-.83.904.904 0 0 0-.986.133L7.046 7.1a2.774 2.774 0 0 1-1.775.648h-1.77a.75.75 0 0 0-.75.75v7c0 .414.337.75.75.75h1.77c.402 0 .793.1 1.153.267l5.827-5.827v-6.02h-.001Z"/></svg>