<svg xmlns="http://www.w3.org/2000/svg" width="24" height="24" fill="none"><path fill="currentColor" d="M12.348 2.478a2.394 2.394 0 0 0-2.581.349l-3.69 3.127a1.254 1.254 0 0 1-.81.296H3.5A2.253 2.253 0 0 0 1.25 8.5v7c0 1.24 1.01 2.25 2.25 2.25h1.767c.296 0 .583.104.808.295l3.691 3.127a2.401 2.401 0 0 0 2.582.35 2.397 2.397 0 0 0 1.402-2.197V4.672c0-.952-.537-1.794-1.402-2.194m-.098 16.849a.9.9 0 0 1-.533.835.898.898 0 0 1-.981-.133l-3.691-3.127a2.754 2.754 0 0 0-1.777-.652H3.5a.75.75 0 0 1-.75-.75V8.501a.75.75 0 0 1 .75-.75h1.767c.65 0 1.281-.23 1.777-.652l3.692-3.127a.896.896 0 0 1 .98-.133.9.9 0 0 1 .533.835zM22.75 12a.75.75 0 0 1-.75.75h-1.75v1.75a.75.75 0 0 1-1.5 0v-1.75H17a.75.75 0 0 1 0-1.5h1.75V9.5a.75.75 0 0 1 1.5 0v1.75H22a.75.75 0 0 1 .75.75"/></svg>