<svg xmlns="http://www.w3.org/2000/svg" width="24" height="24" fill="none"><path fill="currentColor" d="M15.323 21.751a2.403 2.403 0 0 1-1.558-.578l-3.691-3.127a1.25 1.25 0 0 0-.808-.296H7.499a2.253 2.253 0 0 1-2.25-2.25V8.501c0-1.24 1.01-2.25 2.25-2.25h1.767c.296 0 .583-.105.809-.296l3.691-3.127a2.394 2.394 0 0 1 2.581-.349 2.396 2.396 0 0 1 1.402 2.196v14.653c0 .954-.537 1.795-1.402 2.196a2.44 2.44 0 0 1-1.024.227m-7.823-14a.75.75 0 0 0-.75.75v6.998c0 .414.337.75.75.75h1.767c.65 0 1.28.231 1.777.652l3.691 3.127c.28.237.647.289.98.133a.9.9 0 0 0 .534-.835V4.673a.9.9 0 0 0-.533-.835.896.896 0 0 0-.98.133l-3.692 3.127a2.754 2.754 0 0 1-1.777.652H7.5Z"/></svg>