<svg xmlns="http://www.w3.org/2000/svg" width="24" height="24" fill="none"><path fill="currentColor" d="M11.323 21.751a2.403 2.403 0 0 1-1.558-.578l-3.691-3.127a1.25 1.25 0 0 0-.808-.296H3.499a2.253 2.253 0 0 1-2.25-2.25V8.501c0-1.24 1.01-2.25 2.25-2.25h1.767c.296 0 .583-.105.809-.296l3.691-3.127a2.394 2.394 0 0 1 2.581-.349 2.396 2.396 0 0 1 1.402 2.196v14.653c0 .954-.537 1.795-1.402 2.196a2.44 2.44 0 0 1-1.024.227Zm-7.823-14a.75.75 0 0 0-.75.75v6.998c0 .414.337.75.75.75h1.767c.65 0 1.28.231 1.777.652l3.691 3.127a.897.897 0 0 0 .98.133.9.9 0 0 0 .534-.835V4.673a.9.9 0 0 0-.533-.835.896.896 0 0 0-.98.133L7.044 7.098a2.754 2.754 0 0 1-1.777.652H3.5Zm13.267 9.02a6.687 6.687 0 0 0 1.983-4.77 6.687 6.687 0 0 0-1.983-4.772.75.75 0 1 0-1.059 1.063 5.202 5.202 0 0 1 1.542 3.71 5.202 5.202 0 0 1-1.542 3.708.75.75 0 1 0 1.059 1.061Zm2.83 2.83a10.666 10.666 0 0 0 3.153-7.6c0-2.874-1.12-5.574-3.153-7.602a.75.75 0 1 0-1.059 1.062 9.171 9.171 0 0 1 2.712 6.54 9.173 9.173 0 0 1-2.712 6.538.75.75 0 1 0 1.059 1.062Z"/></svg>