<svg xmlns="http://www.w3.org/2000/svg" width="24" height="24" fill="none"><path fill="currentColor" d="m20.59 6.619-7.254-4.023a2.737 2.737 0 0 0-2.671 0L3.409 6.619A2.25 2.25 0 0 0 2.25 8.586V19.5c0 1.241 1.01 2.25 2.25 2.25h15c1.24 0 2.25-1.009 2.25-2.25V8.586a2.25 2.25 0 0 0-1.16-1.967M7.25 15.75h9.5v1.5h-9.5zm9.5-1.5h-9.5v-.75c0-.589.161-.75.75-.75h8c.589 0 .75.161.75.75zm-9.5 4.5h9.5v1.5h-9.5zm13 .75a.75.75 0 0 1-.75.75h-1.25V13.5c0-1.409-.841-2.25-2.25-2.25H8c-1.409 0-2.25.841-2.25 2.25v6.75H4.5a.75.75 0 0 1-.75-.75V8.586a.75.75 0 0 1 .386-.656l7.257-4.023a1.25 1.25 0 0 1 1.215 0l7.256 4.023a.75.75 0 0 1 .386.656zm-6-11.5a.75.75 0 0 1-.75.75h-3a.75.75 0 0 1 0-1.5h3a.75.75 0 0 1 .75.75"/></svg>