<svg xmlns="http://www.w3.org/2000/svg" width="24" height="24" fill="none"><path fill="currentColor" d="M7.75 3a.75.75 0 0 1 .75-.75h6a.75.75 0 0 1 0 1.5h-6A.75.75 0 0 1 7.75 3Zm6.75 17.25h-6a.75.75 0 0 0 0 1.5h6a.75.75 0 0 0 0-1.5Zm5.25-8.5a.75.75 0 0 1-.75.75h-.25v3c0 2.418-1.332 3.75-3.75 3.75H8c-2.418 0-3.75-1.332-3.75-3.75v-7c0-2.418 1.332-3.75 3.75-3.75h7c2.418 0 3.75 1.332 3.75 3.75V11H19a.75.75 0 0 1 .75.75Zm-2.5-3.25c0-1.577-.673-2.25-2.25-2.25H8c-1.577 0-2.25.673-2.25 2.25v7c0 1.577.673 2.25 2.25 2.25h7c1.577 0 2.25-.673 2.25-2.25v-7Zm-5 3.125V8.5a.75.75 0 0 0-1.5 0V12a.75.75 0 0 0 .3.6l2 1.5a.748.748 0 0 0 1.05-.15.75.75 0 0 0-.15-1.05l-1.7-1.275Z"/></svg>