<svg xmlns="http://www.w3.org/2000/svg" width="24" height="24" fill="none"><path fill="currentColor" d="M7.75 3a.75.75 0 0 1 .75-.75h6a.75.75 0 0 1 0 1.5h-6A.75.75 0 0 1 7.75 3m12 9a.75.75 0 0 1-.75.75h-.29c-.375 3.646-3.465 6.5-7.21 6.5-3.998 0-7.25-3.252-7.25-7.25s3.252-7.25 7.25-7.25c3.745 0 6.834 2.854 7.21 6.5H19a.75.75 0 0 1 .75.75m-2.5 0c0-3.17-2.579-5.75-5.75-5.75A5.757 5.757 0 0 0 5.75 12c0 3.17 2.579 5.75 5.75 5.75s5.75-2.58 5.75-5.75m-2.75 8.25h-6a.75.75 0 0 0 0 1.5h6a.75.75 0 0 0 0-1.5m-2.25-8.625V8.5a.75.75 0 0 0-1.5 0V12a.75.75 0 0 0 .3.6l2 1.5a.748.748 0 0 0 1.05-.15.75.75 0 0 0-.15-1.05z"/></svg>