<svg xmlns="http://www.w3.org/2000/svg" width="24" height="24" fill="none"><path fill="currentColor" d="M8.914 18.75a1.24 1.24 0 0 1-1.21-.942l-1.239-4.873a.25.25 0 0 0-.242-.188H3a.75.75 0 0 1 0-1.5h3.223c.802 0 1.499.542 1.695 1.319l.954 3.751 1.963-11.036a1.238 1.238 0 0 1 1.197-1.03c.607-.03 1.115.38 1.251.966l1.982 8.526.788-1.542a1.743 1.743 0 0 1 1.56-.954H21a.75.75 0 0 1 0 1.5h-3.388a.249.249 0 0 0-.223.136l-1.1 2.152c-.24.472-.735.738-1.265.672a1.236 1.236 0 0 1-1.065-.958l-1.861-8.007-1.952 10.975a1.243 1.243 0 0 1-1.186 1.031c-.015.002-.03.002-.046.002Z"/></svg>