<svg xmlns="http://www.w3.org/2000/svg" width="24" height="24" fill="none"><path fill="currentColor" fill-rule="evenodd" d="M21.75 14.8c0-2.66-2.21-4.87-5.1-5.32-.61-3.03-3.59-5.23-7.14-5.23-4 0-7.26 2.84-7.26 6.34 0 1.79.87 3.49 2.39 4.7l-.29 1.16c-.01.05-.02.1-.02.16 0 .54.43.97.97.97.08 0 .16-.01.23-.04l.13-.04c.05-.02.1-.04.15-.07l1.37-.84h.04c.74.22 1.51.33 2.31.33h.37c.94 1.92 3.13 3.28 5.68 3.28.68 0 1.34-.1 1.89-.26l1.13.67c.05.03.1.05.15.07l.1.03c.08.03.16.04.24.04.51 0 .93-.42.93-.94 0-.05 0-.11-.02-.16l-.23-.89c1.26-1.02 1.98-2.46 1.98-3.97zm-12.34 0c0 .21.02.42.04.62-.63 0-1.26-.09-1.86-.27-.03 0-.07-.02-.1-.02l-.19-.03c-.29-.04-.58.04-.84.2l-.33.2.04-.2v-.12c0-.38-.18-.75-.48-.97-1.24-.92-1.95-2.24-1.95-3.62 0-2.67 2.58-4.84 5.76-4.84 2.63 0 4.92 1.55 5.56 3.66-3.16.23-5.66 2.55-5.66 5.38zm9.27 2.92c-.29.21-.46.55-.46.91v.02l-.05-.03c-.25-.15-.52-.22-.79-.18l-.25.05c-.5.15-1.03.22-1.56.22-2.58 0-4.67-1.75-4.67-3.91s2.1-3.91 4.67-3.91 4.67 1.75 4.67 3.91c0 1.11-.57 2.17-1.57 2.92zm-4.19-4.2c0 .4-.32.72-.72.72-.4 0-.72-.32-.72-.72 0-.4.32-.72.72-.72.4 0 .72.32.72.72m3.61 0c0 .4-.32.72-.72.72-.4 0-.72-.32-.72-.72 0-.4.32-.72.72-.72.4 0 .72.32.72.72M8.2 9.16a.87.87 0 1 1-1.741-.001.87.87 0 0 1 1.741.001m4.34 0a.87.87 0 1 1-1.741-.001.87.87 0 0 1 1.741.001" clip-rule="evenodd"/></svg>