<svg xmlns="http://www.w3.org/2000/svg" width="24" height="24" fill="none"><path fill="currentColor" d="M18 2.25H6C3.58 2.25 2.25 3.58 2.25 6v12c0 2.42 1.33 3.75 3.75 3.75h12c2.42 0 3.75-1.33 3.75-3.75V6c0-2.42-1.33-3.75-3.75-3.75ZM20.25 18c0 1.58-.67 2.25-2.25 2.25H6c-1.58 0-2.25-.67-2.25-2.25V6c0-1.58.67-2.25 2.25-2.25h12c1.58 0 2.25.67 2.25 2.25v12Zm-13.54-.71c.18.19.29.44.29.71 0 .13-.03.26-.08.38-.05.13-.12.24-.21.33-.19.18-.45.29-.71.29-.26 0-.52-.11-.71-.29-.18-.19-.29-.45-.29-.71 0-.06 0-.13.02-.2 0-.06.03-.12.06-.18.02-.06.05-.12.09-.18.03-.05.08-.1.12-.15.37-.37 1.04-.37 1.42 0Zm12 0c.18.19.29.45.29.71 0 .26-.11.52-.29.71-.1.09-.2.16-.33.21-.12.05-.25.08-.38.08-.26 0-.52-.11-.71-.29-.18-.19-.29-.45-.29-.71 0-.26.11-.52.29-.71.28-.28.73-.36 1.09-.21.13.05.23.12.33.21ZM16.86 6.48c-2.96-1.6-6.76-1.6-9.73 0-.78.42-1.1 1.37-.73 2.16l1.11 2.39c.2.44.65.72 1.13.72h6.7c.48 0 .93-.28 1.13-.72l1.11-2.39c.37-.79.05-1.74-.73-2.16h.01Zm-.63 1.53-1.04 2.24h-2.44V8.5c0-.41-.34-.75-.75-.75s-.75.34-.75.75v1.75H8.81L7.77 8.01c-.04-.08.02-.17.09-.21 2.53-1.37 5.77-1.37 8.3 0 .07.04.13.13.09.21h-.02Z"/></svg>