<svg xmlns="http://www.w3.org/2000/svg" width="24" height="24" fill="none"><path fill="currentColor" d="M12.75 5V3c0-.41.34-.75.75-.75s.75.34.75.75v2c0 .41-.34.75-.75.75s-.75-.34-.75-.75M16 6.5c.19 0 .38-.07.53-.22l1-1c.29-.29.29-.77 0-1.06a.755.755 0 0 0-1.06 0l-1 1c-.29.29-.29.77 0 1.06.15.15.34.22.53.22m-5.53-.22c.15.15.34.22.53.22s.38-.07.53-.22c.29-.29.29-.77 0-1.06l-1-1a.755.755 0 0 0-1.06 0c-.29.29-.29.77 0 1.06zm.47 6.78a2.732 2.732 0 0 1 0 3.88c-.54.54-1.24.8-1.94.8A2.75 2.75 0 0 1 6.25 15c0-.73.29-1.43.81-1.94a2.758 2.758 0 0 1 3.89 0zM10.25 15c0-.33-.13-.65-.37-.88-.24-.24-.56-.37-.88-.37-.32 0-.64.12-.88.37a1.234 1.234 0 0 0 0 1.76c.49.49 1.28.49 1.77 0 .24-.24.37-.55.37-.88zm11.5-5.5v3.12c0 .56-.37 1.05-.91 1.2l-5.1 1.46a6.758 6.758 0 0 1-1.97 4.49A6.66 6.66 0 0 1 9 21.75c-1.8 0-3.5-.7-4.77-1.98A6.678 6.678 0 0 1 2.25 15c0-1.28.36-2.49 1.02-3.55l-.36-.36c-.88-.88-.88-2.3 0-3.18.88-.88 2.3-.88 3.18 0l.71.71c.7-.24 1.44-.37 2.2-.37h2.64c.54 0 1.01.34 1.19.85l.21.65h.92l.21-.65c.17-.51.65-.85 1.19-.85h5.14c.69 0 1.25.56 1.25 1.25m-17.55.76.03-.03c.35-.35.73-.65 1.14-.92l-.34-.34c-.3-.3-.76-.3-1.06 0-.3.3-.3.76 0 1.06zm16.05-.51h-4.71l-.21.65c-.17.51-.65.85-1.19.85h-1.28c-.54 0-1.01-.34-1.19-.85l-.21-.65H9c-.72 0-1.42.15-2.06.42-.02 0-.04.02-.05.03-.59.26-1.13.62-1.59 1.09-1 .99-1.55 2.31-1.55 3.71s.55 2.72 1.54 3.71c.99 1 2.31 1.54 3.71 1.54s2.72-.55 3.71-1.54a5.21 5.21 0 0 0 1.53-3.95c-.02-.35.21-.66.54-.76l5.46-1.56V9.76z"/></svg>