<svg xmlns="http://www.w3.org/2000/svg" width="24" height="24" fill="none"><path fill="currentColor" d="m21.53 3.53-18 18a.748.748 0 0 1-1.06 0 .75.75 0 0 1 0-1.061l8.661-8.661a8.415 8.415 0 0 0-4.64 1.989.749.749 0 1 1-.98-1.136A9.932 9.932 0 0 1 12 10.259c.22 0 .431.02.645.034L14.86 8.08A12.803 12.803 0 0 0 12 7.749a12.729 12.729 0 0 0-8.5 3.249.746.746 0 0 1-1.06-.059.75.75 0 0 1 .06-1.059A14.224 14.224 0 0 1 12 6.249c1.384 0 2.753.211 4.083.607l4.387-4.387a.75.75 0 1 1 1.06 1.061ZM12 18a1 1 0 1 0 0 2 1 1 0 0 0 0-2Zm1.033-3.638a.75.75 0 0 0-.266 1.477 4.113 4.113 0 0 1 1.776.777.747.747 0 0 0 1.051-.138.75.75 0 0 0-.139-1.052 5.611 5.611 0 0 0-2.422-1.064Zm3.345-3.087a.75.75 0 1 0-.656 1.349 8.244 8.244 0 0 1 1.788 1.173.745.745 0 0 0 1.057-.077.75.75 0 0 0-.077-1.058 9.76 9.76 0 0 0-2.112-1.387Zm3.03-2.937a.75.75 0 1 0-.776 1.284c.653.396 1.283.86 1.871 1.38a.749.749 0 0 0 1.06-.065.751.751 0 0 0-.065-1.059 14.571 14.571 0 0 0-2.09-1.54Z"/></svg>