<svg xmlns="http://www.w3.org/2000/svg" width="24" height="24" fill="none"><path fill="currentColor" d="M15.453 15.421a.75.75 0 0 1-.906 1.195c-1.46-1.109-3.633-1.109-5.094 0a.75.75 0 1 1-.906-1.195c1.986-1.508 4.92-1.508 6.906 0M12 10.26a9.957 9.957 0 0 0-6.489 2.401.75.75 0 0 0 .98 1.138A8.453 8.453 0 0 1 12 11.761c2.026 0 3.982.724 5.511 2.038a.748.748 0 0 0 1.057-.08.75.75 0 0 0-.079-1.058A9.962 9.962 0 0 0 12 10.26m9.5-.376A14.22 14.22 0 0 0 12 6.25a14.22 14.22 0 0 0-9.5 3.634.75.75 0 1 0 1 1.117A12.726 12.726 0 0 1 12 7.75c3.141 0 6.16 1.155 8.5 3.251a.748.748 0 1 0 1-1.117M12 18a1 1 0 1 0 0 2 1 1 0 0 0 0-2"/></svg>