<svg xmlns="http://www.w3.org/2000/svg" width="24" height="24" fill="none"><path fill="currentColor" d="M12 1.25C6.07 1.25 1.25 6.07 1.25 12S6.07 22.75 12 22.75 22.75 17.93 22.75 12 17.93 1.25 12 1.25m0 1.5c2.21 0 4.24.78 5.83 2.08-.53.31-.86.91-.86 1.54 0 .82.47 1.53.99 2.36.38.66.82 1.52.82 2.77 0 .86-.33 1.86-.76 3.25l-1.01 3.35-3.63-10.81c.62-.03 1.16-.09 1.16-.09.55-.06.47-.85-.07-.83 0 0-1.62.14-2.66.14s-2.65-.14-2.65-.14c-.54-.02-.6.81-.06.84.35.04.71.07 1.05.08l1.57 4.29-2.2 6.59L5.85 7.29c.62-.02 1.16-.09 1.16-.09.55-.06.48-.85-.06-.83 0 0-1.31.11-2.34.13 1.69-2.26 4.38-3.74 7.41-3.74zM2.75 12c0-1.03.18-2.02.49-2.95L7.2 19.89C4.54 18.26 2.75 15.34 2.75 12m6.68 8.88 2.75-8 2.87 7.84c-.96.33-1.98.53-3.05.53-.89 0-1.75-.13-2.57-.37m8.05-1.45 2.64-7.62c.36-.85.57-1.75.67-2.66.29.9.45 1.85.45 2.85 0 3.05-1.49 5.74-3.76 7.43"/></svg>