<svg xmlns="http://www.w3.org/2000/svg" width="24" height="24" fill="none"><path fill="currentColor" d="M18.86 5.05a.83.83 0 0 0-.34-.2c-.39-.13-.87-.07-1.44.17.22-.14.38-.38.38-.65s-.16-.54-.39-.68c-1.59-.97-3.25-1.44-5.08-1.44s-3.49.47-5.08 1.43c-.23.15-.39.41-.39.69 0 .28.18.55.43.68-.63-.28-1.15-.34-1.57-.16 0 0-.05.02-.07.03a.8.8 0 0 0-.21.15 9.712 9.712 0 0 0-2.87 6.92c0 2.12.71 4.21 1.99 5.9.19.24.51.37.81.3.03.55.27.91.51 1.16a9.685 9.685 0 0 0 6.42 2.41c2.38 0 4.64-.85 6.46-2.45.21-.21.44-.58.47-1.14.29.08.63-.06.82-.3a9.737 9.737 0 0 0 1.99-5.9c0-2.63-1.03-5.08-2.89-6.92zm-4.91-1.07c-.82.27-1.53.62-1.95.85-.41-.22-1.13-.57-1.95-.85 1.24-.3 2.65-.3 3.89 0zM4.37 15.1c-.4-.98-.61-2.04-.61-3.11 0-2.14.8-4.15 2.27-5.69.24.05.99.31 2.52 1.74-.97 1.23-3.33 4.41-4.18 7.06m13.07 3.12a8.252 8.252 0 0 1-5.43 2.03c-2 0-3.95-.72-5.39-2-.05-.05-.05-.18-.04-.25.11-1.46 2.97-4.83 5.44-6.83 2.46 2 5.32 5.37 5.43 6.83v.21zm-4.89-8.53a.774.774 0 0 0-.53-.22h-.01c-.2 0-.38.08-.51.21-1.69 1.29-4.7 4.23-5.9 6.61.35-2 2.68-5.62 4.5-7.78a.75.75 0 0 0 .22-.53c0-.21-.1-.41-.25-.56-1.17-1.16-2.18-1.94-3-2.34.14.05.29.07.44.04 1.35-.3 3.71.94 4.08 1.18.24.15.61.15.85 0 .38-.24 2.73-1.48 4.08-1.18.13.03.26.02.39-.02-.82.4-1.81 1.17-2.95 2.29l-.03.03a.75.75 0 0 0 0 1.06c1.87 2.22 4.14 5.83 4.49 7.8-1.2-2.37-4.17-5.28-5.87-6.6zm7.1 5.39c-.85-2.65-3.21-5.83-4.17-7.06C17 6.6 17.76 6.34 17.99 6.28a8.145 8.145 0 0 1 2.28 5.68c0 1.07-.21 2.13-.61 3.11z"/></svg>