<svg xmlns="http://www.w3.org/2000/svg" width="24" height="24" fill="none"><path fill="currentColor" d="M22.31 7c-.3-1.12-1.18-2-2.3-2.3-1.61-.43-7.36-.44-8.01-.44-.65 0-6.4.01-8.01.44-1.12.3-2 1.18-2.3 2.3-.44 1.64-.44 4.88-.44 5.02 0 .14 0 3.38.44 5.02.29 1.1 1.18 1.97 2.3 2.27 1.61.43 7.36.44 8.01.44.65 0 6.4-.01 8.01-.44 1.12-.3 2.01-1.17 2.3-2.27.44-1.64.44-4.88.44-5.02 0-.14 0-3.38-.44-5.02Zm-1.45 9.65c-.16.59-.62 1.05-1.24 1.21-1.2.32-5.91.39-7.62.39s-6.42-.07-7.62-.39c-.62-.17-1.08-.62-1.24-1.21-.39-1.45-.39-4.6-.39-4.63 0-.03 0-3.18.39-4.63.16-.6.64-1.08 1.24-1.24 1.2-.32 5.91-.39 7.62-.39s6.42.07 7.62.39c.6.16 1.08.64 1.24 1.24.39 1.45.39 4.6.39 4.63 0 .03 0 3.18-.39 4.63ZM10 9l5 3-5 3V9Z"/></svg>