<svg xmlns="http://www.w3.org/2000/svg" width="24" height="24" fill="none"><path fill="currentColor" d="M22.535 9.85c.143.702.215 1.425.215 2.15 0 5.928-4.822 10.75-10.75 10.75S1.25 17.928 1.25 12 6.072 1.25 12 1.25c.725 0 1.448.072 2.15.215a.75.75 0 0 1-.3 1.47A9.28 9.28 0 0 0 12 2.75c-5.101 0-9.25 4.149-9.25 9.25s4.149 9.25 9.25 9.25 9.25-4.149 9.25-9.25c0-.625-.062-1.247-.185-1.85a.75.75 0 1 1 1.47-.3Zm-9.212 2.414-1.589-1.585a1.752 1.752 0 0 0-2.474.001l-2.791 2.79a.75.75 0 0 0 1.06 1.062l2.791-2.791a.25.25 0 0 1 .354 0l1.589 1.585a1.752 1.752 0 0 0 2.474-.001l2.793-2.793a.75.75 0 0 0-1.061-1.061l-2.793 2.793a.251.251 0 0 1-.353 0ZM17.25 4A2.752 2.752 0 0 1 20 1.25 2.752 2.752 0 0 1 22.75 4 2.752 2.752 0 0 1 20 6.75 2.752 2.752 0 0 1 17.25 4Zm1.5 0c0 .689.561 1.25 1.25 1.25s1.25-.561 1.25-1.25-.561-1.25-1.25-1.25-1.25.561-1.25 1.25Z"/></svg>