<svg xmlns="http://www.w3.org/2000/svg" width="24" height="24" fill="none"><path fill="currentColor" d="M21 14.25h-1.25v-4.5H21a.75.75 0 0 0 0-1.5h-1.25V6c0-2.418-1.332-3.75-3.75-3.75H6C3.582 2.25 2.25 3.582 2.25 6v12c0 2.418 1.332 3.75 3.75 3.75h10c2.418 0 3.75-1.332 3.75-3.75v-2.25H21a.75.75 0 0 0 0-1.5ZM18.25 18c0 1.577-.673 2.25-2.25 2.25H6c-1.577 0-2.25-.673-2.25-2.25V6c0-1.577.673-2.25 2.25-2.25h10c1.577 0 2.25.673 2.25 2.25v12ZM11 11.75A2.753 2.753 0 0 0 13.75 9 2.753 2.753 0 0 0 11 6.25 2.753 2.753 0 0 0 8.25 9 2.753 2.753 0 0 0 11 11.75Zm0-4c.689 0 1.25.561 1.25 1.25s-.561 1.25-1.25 1.25S9.75 9.689 9.75 9s.561-1.25 1.25-1.25Zm4.75 8.61V17a.75.75 0 0 1-1.5 0v-.64c0-1.05-.739-2.11-2.39-2.11h-1.72c-1.65 0-2.39 1.06-2.39 2.11V17a.75.75 0 0 1-1.5 0v-.64c0-1.794 1.336-3.61 3.89-3.61h1.721c2.554 0 3.89 1.816 3.89 3.61Z"/></svg>