<svg xmlns="http://www.w3.org/2000/svg" width="24" height="24" fill="none"><path fill="currentColor" d="M21.536 5.525a.749.749 0 0 1-1.06.011l-2-1.96a.751.751 0 0 1 1.05-1.072l2 1.96c.294.29.299.765.01 1.061ZM5.53 3.53a.75.75 0 1 0-1.061-1.061l-2 2a.75.75 0 0 0 1.06 1.061l2.001-2Zm11.566 15.54 1.395 1.401a.75.75 0 0 1-1.062 1.058l-1.657-1.665a8.678 8.678 0 0 1-3.812.886 8.681 8.681 0 0 1-3.812-.886l-1.657 1.665a.747.747 0 0 1-1.06.003.75.75 0 0 1-.002-1.061l1.395-1.402C4.639 17.477 3.21 14.905 3.21 12c0-4.825 3.925-8.75 8.75-8.75s8.75 3.925 8.75 8.75c0 2.905-1.429 5.477-3.614 7.07Zm-5.136.18c3.998 0 7.25-3.252 7.25-7.25s-3.252-7.25-7.25-7.25S4.71 8.002 4.71 12s3.252 7.25 7.25 7.25Zm2.54-8h-5a.75.75 0 0 0 0 1.5h5a.75.75 0 0 0 0-1.5Z"/></svg>