<svg xmlns="http://www.w3.org/2000/svg" width="24" height="24" fill="none"><path fill="currentColor" d="M17.25 12.75c0 1.654-1.346 3-3 3H9a.75.75 0 0 1 0-1.5h5.25c.827 0 1.5-.673 1.5-1.5s-.673-1.5-1.5-1.5H9.311l.22.22a.75.75 0 0 1-1.06 1.061l-1.5-1.5a.748.748 0 0 1-.162-.817.75.75 0 0 1 .162-.244l1.5-1.5a.75.75 0 1 1 1.061 1.061l-.22.22h4.939a3.002 3.002 0 0 1 2.999 2.999Zm5.5-.75c0 5.928-4.822 10.75-10.75 10.75S1.25 17.928 1.25 12 6.072 1.25 12 1.25 22.75 6.072 22.75 12Zm-1.5 0c0-5.101-4.149-9.25-9.25-9.25S2.75 6.899 2.75 12s4.149 9.25 9.25 9.25 9.25-4.149 9.25-9.25Z"/></svg>