<svg xmlns="http://www.w3.org/2000/svg" width="24" height="24" fill="none"><path fill="currentColor" d="M17.625 2.25H6.375c-2.66 0-4.125 1.465-4.125 4.125v11.25c0 2.66 1.465 4.125 4.125 4.125h11.25c2.66 0 4.125-1.465 4.125-4.125V6.375c0-2.66-1.465-4.125-4.125-4.125Zm2.625 15.375c0 1.84-.785 2.625-2.625 2.625H6.375c-1.84 0-2.625-.785-2.625-2.625V6.375c0-1.84.785-2.625 2.625-2.625h11.25c1.84 0 2.625.785 2.625 2.625v11.25Zm-3-5.625v1.5c0 1.241-1.01 2.25-2.25 2.25H9.311l.22.22a.75.75 0 0 1-1.06 1.061l-1.5-1.5a.748.748 0 0 1-.162-.817.749.749 0 0 1 .162-.244l1.5-1.5a.75.75 0 0 1 1.061 1.061l-.22.22H15a.75.75 0 0 0 .75-.75v-1.5a.75.75 0 0 1 1.5-.001Zm-.058-3.287a.749.749 0 0 1-.162.817l-1.5 1.5a.748.748 0 0 1-1.06 0 .75.75 0 0 1 0-1.061l.22-.22H9a.75.75 0 0 0-.75.75v1.5a.75.75 0 0 1-1.5 0v-1.5c0-1.241 1.01-2.25 2.25-2.25h5.689l-.22-.22a.75.75 0 0 1 1.061-1.061l1.5 1.5a.786.786 0 0 1 .162.245Z"/></svg>