<svg xmlns="http://www.w3.org/2000/svg" width="24" height="24" fill="none"><path fill="currentColor" d="M17.192 10.787a.748.748 0 0 1-.162.244l-1.5 1.5a.748.748 0 0 1-1.06 0 .75.75 0 0 1 0-1.061l.22-.22H9.75c-.827 0-1.5.673-1.5 1.5s.673 1.5 1.5 1.5H15a.75.75 0 0 1 0 1.5H9.75c-1.654 0-3-1.346-3-3s1.346-3 3-3h4.939l-.22-.22a.75.75 0 0 1 1.061-1.061l1.5 1.5a.749.749 0 0 1 .16.818ZM22.75 12c0 5.928-4.822 10.75-10.75 10.75S1.25 17.928 1.25 12 6.072 1.25 12 1.25 22.75 6.072 22.75 12Zm-1.5 0c0-5.101-4.149-9.25-9.25-9.25S2.75 6.899 2.75 12s4.149 9.25 9.25 9.25 9.25-4.149 9.25-9.25Z"/></svg>