<svg xmlns="http://www.w3.org/2000/svg" width="24" height="24" fill="none"><path fill="currentColor" d="M17.229 13.077a.75.75 0 1 1-1.46.346 3.793 3.793 0 0 0-3.71-2.923A3.816 3.816 0 0 0 9.031 12h.718a.75.75 0 0 1 0 1.5h-2.25a.75.75 0 0 1-.75-.75v-2.248a.75.75 0 0 1 1.5 0v.128A5.312 5.312 0 0 1 12.06 9a5.286 5.286 0 0 1 5.169 4.077ZM22.75 12c0 5.928-4.822 10.75-10.75 10.75S1.25 17.928 1.25 12 6.072 1.25 12 1.25 22.75 6.072 22.75 12Zm-1.5 0c0-5.101-4.149-9.25-9.25-9.25S2.75 6.899 2.75 12s4.149 9.25 9.25 9.25 9.25-4.149 9.25-9.25Z"/></svg>