<svg xmlns="http://www.w3.org/2000/svg" width="24" height="24" fill="none"><path fill="currentColor" d="M19.477 12c.662-1.021 1.206-2.04 1.592-3.022.997-2.531.895-4.577-.288-5.759-1.183-1.183-3.227-1.285-5.759-.289-.982.387-2.002.93-3.022 1.593-1.02-.662-2.04-1.206-3.022-1.593-2.528-.996-4.574-.895-5.759.289-1.183 1.182-1.285 3.228-.288 5.759.387.982.931 2.002 1.592 3.022-.662 1.021-1.206 2.04-1.592 3.022-.997 2.531-.895 4.577.288 5.759.645.644 1.544.968 2.64.968.915 0 1.967-.226 3.12-.68.981-.387 2.001-.931 3.021-1.593 1.021.662 2.04 1.206 3.022 1.593 1.152.454 2.204.68 3.12.68 1.094 0 1.994-.324 2.64-.968 1.182-1.183 1.284-3.228.287-5.759-.386-.982-.93-2.001-1.592-3.022Zm-3.905-7.674c.977-.385 1.85-.578 2.565-.578.687 0 1.229.177 1.583.531.724.724.707 2.236-.047 4.148a15.062 15.062 0 0 1-1.129 2.238 26.808 26.808 0 0 0-2.427-2.785 26.796 26.796 0 0 0-2.784-2.427c.76-.456 1.512-.84 2.24-1.127Zm-6.63 4.616c.986-.986 2.02-1.86 3.058-2.605a24.798 24.798 0 0 1 3.058 2.605c.986.986 1.861 2.02 2.606 3.058a24.807 24.807 0 0 1-2.606 3.058c-.986.986-2.02 1.86-3.058 2.605a24.798 24.798 0 0 1-3.058-2.605A24.807 24.807 0 0 1 6.336 12a24.894 24.894 0 0 1 2.606-3.058Zm-4.616-.514c-.754-1.913-.77-3.425-.047-4.148.354-.354.896-.531 1.583-.531.716 0 1.59.193 2.565.578.727.286 1.48.671 2.238 1.13a26.678 26.678 0 0 0-2.784 2.426 26.698 26.698 0 0 0-2.427 2.785 15.369 15.369 0 0 1-1.128-2.24Zm4.102 11.246c-1.912.753-3.425.77-4.148.047-.724-.724-.707-2.236.047-4.149.286-.727.671-1.479 1.13-2.238.716.949 1.53 1.888 2.426 2.785a26.66 26.66 0 0 0 2.784 2.426 15.23 15.23 0 0 1-2.239 1.129Zm11.293.047c-.724.724-2.235.707-4.148-.047a15.12 15.12 0 0 1-2.239-1.129 26.782 26.782 0 0 0 2.784-2.426 26.701 26.701 0 0 0 2.427-2.785c.458.759.843 1.511 1.13 2.238.753 1.913.769 3.426.046 4.149ZM10.765 12c0-.69.555-1.25 1.245-1.25h.01a1.25 1.25 0 0 1 0 2.5c-.69 0-1.255-.56-1.255-1.25Z"/></svg>