<svg xmlns="http://www.w3.org/2000/svg" width="24" height="24" fill="none"><path fill="currentColor" d="M21.75 8.35c0-.896-.424-1.774-1.26-2.61l-2.229-2.229c-1.685-1.684-3.537-1.682-5.22 0L3.51 13.042c-.836.836-1.26 1.714-1.26 2.609-.001.896.424 1.774 1.26 2.61l2.229 2.229c.836.836 1.714 1.26 2.61 1.26.896 0 1.774-.424 2.609-1.26l2.737-2.737c.01-.01.024-.013.035-.023.011-.01.013-.024.023-.034l3.943-3.943c.01-.009.024-.012.034-.022.01-.01.013-.023.022-.034l2.737-2.737c.837-.836 1.261-1.714 1.261-2.61Zm-8.556 7.784-5.328-5.328 2.94-2.939 5.327 5.328-2.939 2.94ZM9.898 19.43c-1.09 1.09-2.013 1.087-3.099 0L4.57 17.201c-.545-.544-.82-1.066-.82-1.549 0-.483.275-1.005.82-1.549l2.235-2.235 5.328 5.328-2.235 2.234Zm9.532-9.532-2.235 2.235-5.328-5.328 2.236-2.236c.55-.55 1.05-.825 1.55-.825.499 0 .999.275 1.549.825l2.229 2.23c.544.543.82 1.065.82 1.549s-.277 1.006-.82 1.55ZM15.5 7.25a.75.75 0 1 1-1.5 0 .75.75 0 0 1 1.5 0ZM8 14.8a.75.75 0 1 1-1.5 0 .75.75 0 0 1 1.5 0Zm-.5 2.45a.75.75 0 1 1-1.5 0 .75.75 0 0 1 1.5 0Zm2.5-.5a.75.75 0 1 1-1.5 0 .75.75 0 0 1 1.5 0Zm8-9.95a.75.75 0 1 1-1.5 0 .75.75 0 0 1 1.5 0Zm-.5 2.45a.75.75 0 1 1-1.5 0 .75.75 0 0 1 1.5 0Z"/></svg>