<svg xmlns="http://www.w3.org/2000/svg" width="24" height="24" fill="none"><path fill="currentColor" d="M22.72 11.14c-.42-5.28-4.56-9.42-9.85-9.86-.52-.04-1.08-.04-1.6-.01-.05 0-.1 0-.14.02-5.27.42-9.49 4.69-9.85 9.99a12.14 12.14 0 0 0 .01 1.58c.42 5.28 4.56 9.42 9.85 9.86.28.02.58.03.87.03.25 0 .49-.01.73-.02.05 0 .1 0 .14-.02 5.27-.42 9.49-4.69 9.85-9.99a12.14 12.14 0 0 0-.01-1.58Zm-9.98 10.07c0-.07.01-.14.01-.21 0-.8-.1-1.59-.29-2.36-.1-.4-.51-.65-.91-.55-.4.1-.65.51-.55.91.17.65.25 1.32.25 2 0 .07-.01.15-.01.22a9.21 9.21 0 0 1-8.45-8.44c.67-.01 1.33.02 1.98.16.4.09.8-.17.89-.57a.756.756 0 0 0-.57-.9c-.75-.16-1.53-.23-2.3-.21.36-4.5 3.98-8.12 8.48-8.47 0 .07-.01.14-.01.21 0 .8.1 1.59.29 2.36a.757.757 0 0 0 .91.55c.4-.1.65-.51.55-.91-.17-.65-.25-1.32-.25-2 0-.07.01-.15.01-.22a9.21 9.21 0 0 1 8.45 8.44c-.67.01-1.33-.02-1.98-.16a.75.75 0 0 0-.89.57c-.09.41.17.81.57.9.68.14 1.38.22 2.08.22.07 0 .15-.01.22-.01-.36 4.5-3.98 8.12-8.48 8.47Zm4.21-10.14c-.14.23-.39.36-.64.36-.13 0-.27-.04-.39-.11-.61-.38-1.19-.83-1.71-1.33l-.02-.02-.08-.08c-.48-.48-.9-1.01-1.27-1.57a.735.735 0 0 1 .22-1.03c.34-.23.81-.13 1.03.21.32.48.68.92 1.08 1.33l.08.08s.02.01.02.02c.44.42.92.79 1.43 1.11.36.21.47.68.25 1.03Zm-5.79 4.61c.23.34.13.81-.22 1.03-.12.09-.27.13-.41.13-.24 0-.48-.12-.62-.34a9.23 9.23 0 0 0-1.08-1.33l-.08-.08s-.02-.01-.02-.02c-.44-.42-.92-.79-1.43-1.11a.74.74 0 0 1-.25-1.03c.21-.35.68-.46 1.03-.25.61.38 1.19.83 1.71 1.33l.02.02.08.08c.48.48.9 1.01 1.27 1.57Z"/></svg>