<svg xmlns="http://www.w3.org/2000/svg" width="24" height="24" fill="none"><path fill="currentColor" d="M19.75 9.5v6c0 1.409-.841 2.25-2.25 2.25H13a.75.75 0 0 1 0-1.5h4.5c.589 0 .75-.161.75-.75v-6c0-.589-.161-.75-.75-.75H14a.75.75 0 0 1 0-1.5h3.5c1.409 0 2.25.841 2.25 2.25ZM8 16.25H4.5c-.589 0-.75-.161-.75-.75v-6c0-.589.161-.75.75-.75H9a.75.75 0 0 0 0-1.5H4.5c-1.409 0-2.25.841-2.25 2.25v6c0 1.409.841 2.25 2.25 2.25H8a.75.75 0 0 0 0-1.5Zm13-6a.75.75 0 0 0-.75.75v3a.75.75 0 0 0 1.5 0v-3a.75.75 0 0 0-.75-.75Zm-6.647 2.422-3.828 5.744a.75.75 0 0 1-1.352-.598l.867-3.468H8.728a1.3 1.3 0 0 1-1.08-2.022l3.828-5.744a.75.75 0 0 1 1.352.598l-.867 3.468h1.312a1.3 1.3 0 0 1 1.08 2.022Zm-1.455-.522h-1.546A1.024 1.024 0 0 1 10.333 11l-1.232 1.85h1.546A1.024 1.024 0 0 1 11.666 14l1.232-1.85Z"/></svg>