<svg xmlns="http://www.w3.org/2000/svg" width="24" height="24" fill="none"><path fill="currentColor" d="M21.75 17v-3c0-1.23-.35-2.17-1-2.81V6c0-2.42-1.33-3.75-3.75-3.75H7C4.58 2.25 3.25 3.58 3.25 6v5.19c-.65.64-1 1.58-1 2.81v7c0 .41.34.75.75.75s.75-.34.75-.75v-.75h16.5V21c0 .41.34.75.75.75s.75-.34.75-.75v-4Zm-17-11c0-1.58.67-2.25 2.25-2.25h10c1.58 0 2.25.67 2.25 2.25v4.41c-.16-.04-.32-.08-.5-.1V7.86c0-1.16-1.01-2.1-2.25-2.1h-3c-.58 0-1.1.21-1.5.55-.4-.34-.92-.55-1.5-.55h-3c-1.24 0-2.25.94-2.25 2.1v2.45c-.18.02-.34.06-.5.1V6Zm12.5 1.85v2.4h-4.5v-2.4c0-.33.34-.6.75-.6h3c.41 0 .75.27.75.6Zm-6 0v2.4h-4.5v-2.4c0-.33.34-.6.75-.6h3c.41 0 .75.27.75.6Zm-7.5 8.4V14c0-1.58.67-2.25 2.25-2.25h12c1.58 0 2.25.67 2.25 2.25v2.25H3.75Zm16.5 2.5H3.75v-1h16.5v1Z"/></svg>