<svg xmlns="http://www.w3.org/2000/svg" width="24" height="24" fill="none"><path fill="currentColor" d="M18 7.25h-6a.75.75 0 0 0-.75.75v6.25h-7.5V6a.75.75 0 0 0-1.5 0v12a.75.75 0 0 0 1.5 0v-2.25h16.5V18a.75.75 0 0 0 1.5 0v-7c0-2.418-1.332-3.75-3.75-3.75Zm-5.25 7v-5.5H18c1.577 0 2.25.673 2.25 2.25v3.25h-7.5Zm-5.25-1.5A2.753 2.753 0 0 0 10.25 10 2.753 2.753 0 0 0 7.5 7.25 2.753 2.753 0 0 0 4.75 10a2.753 2.753 0 0 0 2.75 2.75Zm0-4c.689 0 1.25.561 1.25 1.25s-.561 1.25-1.25 1.25-1.25-.561-1.25-1.25.561-1.25 1.25-1.25Z"/></svg>