<svg xmlns="http://www.w3.org/2000/svg" width="24" height="24" fill="none"><path fill="currentColor" d="M16.305 11.667A4.224 4.224 0 0 0 17.75 8.5c0-2.258-1.775-4.092-4-4.225V3a.75.75 0 0 0-1.5 0v1.25h-2.5V3a.75.75 0 0 0-1.5 0v1.25H6a.75.75 0 0 0 0 1.5h1.25v12.5H6a.75.75 0 0 0 0 1.5h2.25V21a.75.75 0 0 0 1.5 0v-1.25h2.5V21a.75.75 0 0 0 1.5 0v-1.25h.75a4.255 4.255 0 0 0 4.25-4.25c0-1.696-1.005-3.151-2.445-3.833ZM13.5 5.75a2.752 2.752 0 0 1 2.75 2.75 2.752 2.752 0 0 1-2.75 2.75H8.75v-5.5h4.75Zm1 12.5H8.75v-5.5h5.75a2.752 2.752 0 0 1 2.75 2.75 2.752 2.752 0 0 1-2.75 2.75Z"/></svg>