<svg xmlns="http://www.w3.org/2000/svg" width="24" height="24" fill="none"><path fill="currentColor" d="M21.53 2.47a.75.75 0 0 0-1.061 0l-5.72 5.72V3a.749.749 0 0 0-1.307-.502l-9 10A.75.75 0 0 0 5 13.75h4.189l-6.72 6.72a.75.75 0 0 0 1.06 1.061l7-7 4-4 7-7a.75.75 0 0 0 .001-1.061ZM10 12.25H6.684l6.566-7.296v4.735l-2.756 2.756A.74.74 0 0 0 10 12.25Zm9.685-1.555a.751.751 0 0 1-.127.807l-9 10A.75.75 0 0 1 9.25 21v-3a.75.75 0 0 1 1.5 0v1.046l6.566-7.296H17a.75.75 0 0 1 0-1.5h2a.75.75 0 0 1 .685.445Z"/></svg>