<svg xmlns="http://www.w3.org/2000/svg" width="24" height="24" fill="none"><path fill="currentColor" d="M17.43 1.25h-6.86c-2.11 0-3.32 1.21-3.32 3.32v.68h-.679c-2.142 0-3.321 1.18-3.321 3.321V22a.75.75 0 0 0 1.122.651L10 19.435l5.628 3.216A.75.75 0 0 0 16.75 22v-4.996l2.877 1.647A.752.752 0 0 0 20.75 18V4.57c-.001-2.11-1.211-3.32-3.321-3.32Zm-2.18 19.457-4.878-2.787a.749.749 0 0 0-.744 0L4.75 20.708V8.572c0-1.293.527-1.821 1.821-1.821h6.857c1.294 0 1.821.528 1.821 1.821v12.135h.001Zm4-4-2.5-1.432V8.571c0-2.142-1.18-3.321-3.321-3.321H8.75v-.68c0-1.292.527-1.82 1.82-1.82h6.859c1.293 0 1.82.527 1.82 1.82v12.137h.001Zm-7.81-8.026h-.013c-.608 0-1.08.23-1.428.534a2.121 2.121 0 0 0-1.428-.534h-.013c-.79.004-1.455.307-1.923.877-.56.682-.764 1.67-.562 2.711.491 2.535 3.487 3.925 3.614 3.983a.747.747 0 0 0 .622 0c.127-.058 3.122-1.448 3.614-3.982.202-1.042-.002-2.031-.56-2.712-.467-.571-1.132-.873-1.923-.877Zm1.012 3.302c-.27 1.383-1.787 2.37-2.452 2.741-.665-.372-2.185-1.358-2.452-2.741-.113-.584-.019-1.149.25-1.475.18-.219.431-.327.77-.328h.004c.497 0 .7.516.717.566a.75.75 0 0 0 .704.508h.01a.758.758 0 0 0 .707-.499c.021-.059.223-.575.72-.575h.004c.34.001.592.11.771.328.266.325.36.891.247 1.475Z"/></svg>