<svg xmlns="http://www.w3.org/2000/svg" width="24" height="24" fill="none"><path fill="currentColor" d="M16 2.25H8C5.582 2.25 4.25 3.582 4.25 6v15a.747.747 0 0 0 .75.75.749.749 0 0 0 .372-.099L12 17.863l6.628 3.787a.75.75 0 0 0 1.122-.651v-15c0-2.417-1.332-3.749-3.75-3.749Zm2.25 17.457-5.878-3.358a.749.749 0 0 0-.744 0L5.75 19.708V6c0-1.577.673-2.25 2.25-2.25h8c1.577 0 2.25.673 2.25 2.25v13.707ZM15.343 7.693a.75.75 0 0 0-1.011-.271l-.116.065a.482.482 0 0 1-.47-.001.414.414 0 0 1-.219-.356.883.883 0 0 0-.885-.881h-1.334a.884.884 0 0 0-.885.881.41.41 0 0 1-.217.356.484.484 0 0 1-.472.001.888.888 0 0 0-1.192.316L7.87 8.93a1.004 1.004 0 0 0-.091.672.89.89 0 0 0 .419.538.42.42 0 0 1 .22.357.418.418 0 0 1-.22.36.885.885 0 0 0-.42.54c-.052.195-.009.5.095.674l.67 1.125a.882.882 0 0 0 1.19.314.483.483 0 0 1 .471 0 .412.412 0 0 1 .218.356c0 .486.396.88.885.88h1.336a.884.884 0 0 0 .884-.88c0-.144.083-.28.218-.356a.482.482 0 0 1 .471-.001.882.882 0 0 0 1.193-.317l.667-1.12a1.02 1.02 0 0 0 .097-.675.884.884 0 0 0-.421-.542.416.416 0 0 1-.219-.357c0-.146.084-.284.219-.36l.116-.065a.745.745 0 0 0 .356-.46.757.757 0 0 0-.08-.577l-.801-1.343Zm-.826 4.069-.137.23a1.991 1.991 0 0 0-1.371.214 1.927 1.927 0 0 0-.876 1.043h-.314a1.93 1.93 0 0 0-.875-1.044 1.984 1.984 0 0 0-1.371-.213l-.137-.23c.308-.346.484-.796.483-1.27a1.903 1.903 0 0 0-.484-1.255l.138-.23c.464.093.952.022 1.371-.214.416-.234.724-.609.875-1.043h.314c.151.434.459.809.876 1.043.419.237.908.308 1.37.214l.138.23a1.907 1.907 0 0 0-.483 1.266c0 .47.177.914.483 1.259ZM13.02 10.5a1 1 0 0 1-1 1 1.005 1.005 0 0 1-1.005-1c0-.552.443-1 .995-1h.01a1 1 0 0 1 1 1Z"/></svg>