<svg xmlns="http://www.w3.org/2000/svg" width="24" height="24" fill="none"><path fill="currentColor" d="M17.43 1.25h-6.86c-2.11 0-3.32 1.21-3.32 3.32v.68h-.679c-2.142 0-3.321 1.18-3.321 3.321V22a.75.75 0 0 0 1.122.651L10 19.435l5.628 3.216A.75.75 0 0 0 16.75 22v-4.996l2.877 1.647A.752.752 0 0 0 20.75 18V4.57c-.001-2.11-1.211-3.32-3.321-3.32Zm-2.18 19.457-4.878-2.787a.749.749 0 0 0-.744 0L4.75 20.708V8.572c0-1.293.527-1.821 1.821-1.821h6.857c1.294 0 1.821.528 1.821 1.821v12.135h.001Zm4-4-2.5-1.432V8.571c0-2.142-1.18-3.321-3.321-3.321H8.75v-.68c0-1.292.527-1.82 1.82-1.82h6.859c1.293 0 1.82.527 1.82 1.82v12.137h.001Zm-5.907-7.014a.75.75 0 0 0-1.011-.271l-.116.065a.482.482 0 0 1-.47-.001.414.414 0 0 1-.219-.356.883.883 0 0 0-.885-.881H9.308a.884.884 0 0 0-.885.881.41.41 0 0 1-.217.356.484.484 0 0 1-.472.001.886.886 0 0 0-1.192.316L5.87 10.93a1.004 1.004 0 0 0-.091.672.89.89 0 0 0 .419.538.415.415 0 0 1 .219.358.415.415 0 0 1-.219.36.885.885 0 0 0-.42.539c-.052.195-.009.5.095.674l.67 1.125a.882.882 0 0 0 1.19.314.483.483 0 0 1 .471 0 .412.412 0 0 1 .218.356c0 .486.396.88.885.88h1.336a.884.884 0 0 0 .884-.88c0-.144.083-.28.22-.356a.48.48 0 0 1 .47 0 .882.882 0 0 0 1.192-.317l.667-1.12a1.02 1.02 0 0 0 .097-.675.884.884 0 0 0-.421-.542.416.416 0 0 1-.219-.357c0-.146.084-.284.219-.36l.116-.065a.745.745 0 0 0 .356-.46.757.757 0 0 0-.08-.577l-.801-1.344Zm-.826 4.069-.137.23a1.986 1.986 0 0 0-1.371.214 1.927 1.927 0 0 0-.876 1.043H9.82a1.93 1.93 0 0 0-.875-1.044 1.985 1.985 0 0 0-1.371-.213l-.137-.23c.308-.347.484-.796.482-1.268a1.905 1.905 0 0 0-.483-1.257l.138-.23c.465.093.953.022 1.371-.214.416-.234.724-.609.875-1.043h.314c.151.434.46.809.875 1.043.42.237.908.309 1.372.214l.137.23a1.907 1.907 0 0 0-.483 1.266c0 .47.177.914.483 1.259ZM11.02 12.5a1 1 0 0 1-1 1 1.005 1.005 0 0 1-1.005-1c0-.552.443-1 .995-1h.01a1 1 0 0 1 1 1Z"/></svg>