<svg xmlns="http://www.w3.org/2000/svg" width="24" height="24" fill="none"><path fill="currentColor" d="M14.77 14a.749.749 0 1 1-1.5 0 .749.749 0 1 1 1.5 0Zm-4.75-2.75c-.41 0-.75.34-.75.75s.34.75.75.75.75-.34.75-.75-.33-.75-.75-.75Zm6 6c-.41 0-.75.34-.75.75s.34.75.75.75.75-.34.75-.75-.33-.75-.75-.75Zm-7-1c-.41 0-.75.34-.75.75s.34.75.75.75.75-.34.75-.75-.33-.75-.75-.75ZM15.77 9a.749.749 0 1 0-1.498-.002A.749.749 0 0 0 15.77 9Zm-7-1a.749.749 0 1 0-1.498-.002A.749.749 0 0 0 8.77 8Zm12.98-1.18c0 .96-.38 1.87-1.06 2.55l-.94.94v9.19c0 1.24-1.01 2.25-2.25 2.25h-11c-1.24 0-2.25-1.01-2.25-2.25v-9.04a3.58 3.58 0 0 1-2-3.23v-.42c0-1.52.96-2.89 2.4-3.4C6.12 2.88 8.6 2.25 12 2.25c3.4 0 5.87.63 7.35 1.16 1.44.52 2.4 1.88 2.4 3.4v.01Zm-1.5 0c0-.89-.57-1.69-1.41-1.99-1.36-.49-3.66-1.08-6.84-1.08-3.18 0-5.48.58-6.84 1.08-.84.3-1.41 1.1-1.41 1.99v.42c0 .8.45 1.53 1.17 1.89l.42.21c.25.13.42.39.42.67v9.5c0 .41.34.75.75.75h11c.41 0 .75-.34.75-.75v-9.5c0-.2.08-.39.22-.53l1.16-1.16c.4-.4.62-.93.62-1.49l-.01-.01Z"/></svg>