<svg xmlns="http://www.w3.org/2000/svg" width="24" height="24" fill="none"><path fill="currentColor" d="M16.944 16.599c.319 0 .64-.122.884-.366l.714-.714a2.747 2.747 0 0 0 .608-2.966L18.053 9.81a.744.744 0 0 1 .228-.863l2.475-1.98a2.652 2.652 0 0 0 .219-3.941 2.652 2.652 0 0 0-3.941.219l-1.98 2.475a.753.753 0 0 1-.863.227L11.448 4.85a2.746 2.746 0 0 0-2.965.609l-.714.714c-.348.348-.436.85-.287 1.287l-4.571 4.571c-.425.425-.659.99-.659 1.591s.234 1.166.659 1.591l5.878 5.878c.425.426.99.66 1.592.66.601 0 1.166-.234 1.591-.659l4.571-4.571c.129.044.264.078.401.078ZM10.89 6.242l2.743 1.097a2.237 2.237 0 0 0 2.592-.683l1.98-2.475a1.146 1.146 0 0 1 2.043.78 1.137 1.137 0 0 1-.43.835l-2.475 1.98a2.236 2.236 0 0 0-.683 2.592l1.097 2.742a1.25 1.25 0 0 1-.276 1.348l-.484.485a.734.734 0 0 0-.255-.149L9.206 7.258a.739.739 0 0 0-.149-.254l.485-.485a1.25 1.25 0 0 1 1.348-.277Zm.019 13.788a.768.768 0 0 1-1.061 0l-3.909-3.909L7.53 14.53a.75.75 0 1 0-1.061-1.061L4.878 15.06l-.909-.909a.747.747 0 0 1 0-1.061l4.474-4.474 6.939 6.94-4.473 4.474ZM21.75 21a.75.75 0 0 1-.75.75h-5a.75.75 0 0 1 0-1.5h5a.75.75 0 0 1 .75.75Z"/></svg>