<svg xmlns="http://www.w3.org/2000/svg" width="24" height="24" fill="none"><path fill="currentColor" d="M18.75 15c0 .449-.046.888-.13 1.312A3.748 3.748 0 0 1 21.75 20a.75.75 0 0 1-1.5 0c0-1.189-.93-2.156-2.1-2.235-1.058 2.346-3.414 3.985-6.15 3.985a6.74 6.74 0 0 1-4.177-1.453.75.75 0 0 1 .934-1.175 5.13 5.13 0 0 0 2.493 1.066V16a.75.75 0 0 1 1.5 0v4.174c2.538-.368 4.5-2.536 4.5-5.174v-5a.75.75 0 0 1 1.5 0v2.25H21a.75.75 0 0 1 0 1.5h-2.25V15Zm2.78-11.47-18 18a.748.748 0 0 1-1.06 0 .75.75 0 0 1 0-1.061l3.184-3.184a6.713 6.713 0 0 1-.404-2.286v-1.25H3a.75.75 0 0 1 0-1.5h2.25V10c0-.129.019-.243.026-.365a3.713 3.713 0 0 1-2.669-2.453l-.318-.942a.751.751 0 0 1 1.422-.48l.32.95c.24.739.845 1.264 1.574 1.45.455-1.044 1.35-1.684 2.644-1.856V6A3.755 3.755 0 0 1 12 2.25 3.755 3.755 0 0 1 15.75 6v.32c.255.034.49.087.713.156l4.007-4.007a.75.75 0 0 1 1.06 1.061ZM9.75 6.25h4.5V6c0-1.241-1.01-2.25-2.25-2.25A2.253 2.253 0 0 0 9.75 6v.25Zm-2.888 9.828 8.313-8.313c-.062-.002-.11-.015-.175-.015H9c-1.577 0-2.25.673-2.25 2.25v5c0 .367.038.727.112 1.078Z"/></svg>