<svg xmlns="http://www.w3.org/2000/svg" width="24" height="24" fill="none"><path fill="currentColor" d="M18.62 16.312c.084-.425.13-.863.13-1.312v-1.25H21a.75.75 0 0 0 0-1.5h-2.25V10c0-.129-.019-.243-.026-.365a3.707 3.707 0 0 0 2.667-2.445l.32-.95a.751.751 0 0 0-1.422-.48l-.322.958c-.238.732-.843 1.256-1.573 1.442-.455-1.044-1.349-1.684-2.644-1.856V6A3.755 3.755 0 0 0 12 2.25 3.755 3.755 0 0 0 8.25 6v.304c-1.295.172-2.189.812-2.644 1.856-.729-.186-1.335-.711-1.574-1.45l-.32-.95a.75.75 0 0 0-1.422.48l.318.942a3.713 3.713 0 0 0 2.67 2.453c-.008.123-.027.236-.027.365v2.25H3a.75.75 0 0 0 0 1.5h2.25V15c0 .449.046.888.13 1.312A3.748 3.748 0 0 0 2.25 20a.75.75 0 0 0 1.5 0c0-1.189.93-2.156 2.1-2.235C6.907 20.11 9.263 21.75 12 21.75s5.092-1.64 6.15-3.985A2.246 2.246 0 0 1 20.25 20a.75.75 0 0 0 1.5 0 3.748 3.748 0 0 0-3.13-3.688ZM9.75 6c0-1.241 1.01-2.25 2.25-2.25S14.25 4.759 14.25 6v.25h-4.5V6Zm3 14.174V13a.75.75 0 0 0-1.5 0v7.174c-2.538-.368-4.5-2.536-4.5-5.174v-5c0-1.577.673-2.25 2.25-2.25h6c1.577 0 2.25.673 2.25 2.25v5c0 2.638-1.962 4.806-4.5 5.174Z"/></svg>