<svg xmlns="http://www.w3.org/2000/svg" width="24" height="24" fill="none"><path fill="currentColor" d="m20.001 9.146-3.251-.744V6.808a2.24 2.24 0 0 0-1.744-2.192l-10-2.308A2.235 2.235 0 0 0 3.1 2.74c-.54.43-.85 1.071-.85 1.761v14.5c0 1.748 1.002 2.75 2.75 2.75h14c1.748 0 2.75-1.002 2.75-2.75v-7.66a2.24 2.24 0 0 0-1.749-2.195ZM3.75 19V4.5a.748.748 0 0 1 .918-.73l10 2.308c.343.079.582.38.582.73V20.25h-3V17a2.752 2.752 0 0 0-2.75-2.75A2.752 2.752 0 0 0 6.75 17v3.25H5c-.923 0-1.25-.327-1.25-1.25Zm7 1.25h-2.5V17c0-.689.561-1.25 1.25-1.25s1.25.561 1.25 1.25v3.25Zm9.5-1.25c0 .923-.327 1.25-1.25 1.25h-2.25V9.941l2.917.667c.343.079.583.38.583.731V19Zm-10-10a.75.75 0 0 1 .75-.75h1a.75.75 0 0 1 0 1.5h-1a.75.75 0 0 1-.75-.75Zm-4 0A.75.75 0 0 1 7 8.25h1a.75.75 0 0 1 0 1.5H7A.75.75 0 0 1 6.25 9Zm4 3a.75.75 0 0 1 .75-.75h1a.75.75 0 0 1 0 1.5h-1a.75.75 0 0 1-.75-.75Zm-4 0a.75.75 0 0 1 .75-.75h1a.75.75 0 0 1 0 1.5H7a.75.75 0 0 1-.75-.75Z"/></svg>