<svg xmlns="http://www.w3.org/2000/svg" width="24" height="24" fill="none"><path fill="currentColor" d="M16 2.25H8C5.582 2.25 4.25 3.582 4.25 6v11c0 1.746.704 2.916 2 3.437V21a.75.75 0 0 0 1.5 0v-.268c.085.003.162.018.25.018h8c.088 0 .165-.015.25-.018V21a.75.75 0 0 0 1.5 0v-.563c1.296-.521 2-1.69 2-3.437V6c0-2.418-1.332-3.75-3.75-3.75Zm-8 1.5h8c1.577 0 2.25.673 2.25 2.25v7.25H5.75V6c0-1.577.673-2.25 2.25-2.25Zm8 15.5H8c-1.577 0-2.25-.673-2.25-2.25v-2.25h12.5V17c0 1.577-.673 2.25-2.25 2.25ZM10.25 6a.75.75 0 0 1 .75-.75h2a.75.75 0 0 1 0 1.5h-2a.75.75 0 0 1-.75-.75Zm5.77 11a1 1 0 0 1-1 1 1.005 1.005 0 0 1-1.005-1c0-.552.442-1 .995-1h.01a1 1 0 0 1 1 1Zm-6 0a1 1 0 0 1-1 1 1.005 1.005 0 0 1-1.005-1c0-.552.442-1 .995-1h.01a1 1 0 0 1 1 1Zm11.73-7v3a.75.75 0 0 1-1.5 0v-3a.75.75 0 0 1 1.5 0Zm-18 0v3a.75.75 0 0 1-1.5 0v-3a.75.75 0 0 1 1.5 0Z"/></svg>