<svg xmlns="http://www.w3.org/2000/svg" width="24" height="24" fill="none"><path fill="currentColor" d="M18 2.25H6C3.582 2.25 2.25 3.582 2.25 6v12c0 2.418 1.332 3.75 3.75 3.75h12c2.418 0 3.75-1.332 3.75-3.75V6c0-2.418-1.332-3.75-3.75-3.75ZM6 3.75h12c1.577 0 2.25.673 2.25 2.25v5.25H3.75V6c0-1.577.673-2.25 2.25-2.25Zm12 16.5H6c-1.577 0-2.25-.673-2.25-2.25v-5.25h16.5V18c0 1.577-.673 2.25-2.25 2.25ZM10.75 8a1.25 1.25 0 1 1 2.5 0 1.25 1.25 0 0 1-2.5 0Zm2.5 8a1.25 1.25 0 1 1-2.5 0 1.25 1.25 0 0 1 2.5 0Z"/></svg>