<svg xmlns="http://www.w3.org/2000/svg" width="24" height="24" fill="none"><path fill="currentColor" d="M18 3.75h-1.25V3a.75.75 0 0 0-1.5 0v.75h-6.5V3a.75.75 0 0 0-1.5 0v.75H6c-2.418 0-3.75 1.332-3.75 3.75V18c0 2.418 1.332 3.75 3.75 3.75h12c2.418 0 3.75-1.332 3.75-3.75V7.5c0-2.418-1.332-3.75-3.75-3.75ZM6 5.25h1.25V6a.75.75 0 0 0 1.5 0v-.75h6.5V6a.75.75 0 0 0 1.5 0v-.75H18c1.577 0 2.25.673 2.25 2.25v.75H3.75V7.5c0-1.577.673-2.25 2.25-2.25Zm12 15H6c-1.577 0-2.25-.673-2.25-2.25V9.75h16.5V18c0 1.577-.673 2.25-2.25 2.25ZM13.551 11h-.013a2.25 2.25 0 0 0-1.538.588A2.238 2.238 0 0 0 10.449 11c-.84.004-1.545.324-2.038.926-.582.712-.795 1.741-.58 2.824.524 2.663 3.727 4.124 3.862 4.185a.762.762 0 0 0 .614 0c.136-.06 3.338-1.522 3.862-4.185.214-1.083.003-2.111-.579-2.823-.492-.603-1.197-.923-2.039-.927Zm1.147 3.459c-.297 1.504-1.993 2.567-2.698 2.95-.705-.383-2.401-1.446-2.698-2.95-.125-.632-.023-1.224.271-1.583.206-.251.495-.374.885-.376h.004c.579 0 .808.576.829.633.102.301.384.5.702.504h.01c.313 0 .597-.2.705-.496.024-.066.253-.642.832-.642h.004c.39.002.68.125.886.376.292.36.392.952.268 1.584Z"/></svg>