<svg xmlns="http://www.w3.org/2000/svg" width="24" height="24" fill="none"><path fill="currentColor" d="M18 3.75h-1.25V3a.75.75 0 0 0-1.5 0v.75h-6.5V3a.75.75 0 0 0-1.5 0v.75H6c-2.418 0-3.75 1.332-3.75 3.75V18c0 2.418 1.332 3.75 3.75 3.75h12c2.418 0 3.75-1.332 3.75-3.75V7.5c0-2.418-1.332-3.75-3.75-3.75ZM6 5.25h1.25V6a.75.75 0 0 0 1.5 0v-.75h6.5V6a.75.75 0 0 0 1.5 0v-.75H18c1.577 0 2.25.673 2.25 2.25v.75H3.75V7.5c0-1.577.673-2.25 2.25-2.25Zm12 15H6c-1.577 0-2.25-.673-2.25-2.25V9.75h16.5V18c0 1.577-.673 2.25-2.25 2.25Zm-3.75-6.323V13c0-1.241-1.01-2.25-2.25-2.25A2.253 2.253 0 0 0 9.75 13v.927c-.629.277-1 .873-1 1.698v1.75c0 1.157.719 1.875 1.875 1.875h2.75c1.156 0 1.875-.718 1.875-1.875v-1.75c0-.825-.371-1.421-1-1.698ZM12 12.25a.75.75 0 0 1 .75.75v.75h-1.5V13a.75.75 0 0 1 .75-.75Zm1.75 5.125c0 .336-.038.375-.375.375h-2.75c-.337 0-.375-.039-.375-.375v-1.75c0-.28.037-.35.24-.367l.01.002c.007 0 .012-.004.019-.004.035-.002.062-.006.106-.006h2.75c.044 0 .072.004.106.006.007 0 .012.004.019.004l.01-.002c.202.017.24.088.24.367v1.75Z"/></svg>