<svg xmlns="http://www.w3.org/2000/svg" width="24" height="24" fill="none"><path fill="currentColor" d="M18 6.25h-1.46l-.486-1.46a2.249 2.249 0 0 0-2.135-1.54H10.08c-.97 0-1.828.62-2.135 1.54L7.46 6.25H6c-2.418 0-3.75 1.332-3.75 3.75v8c0 2.418 1.332 3.75 3.75 3.75h12c2.418 0 3.75-1.332 3.75-3.75v-8c0-2.418-1.332-3.75-3.75-3.75ZM20.25 18c0 1.577-.673 2.25-2.25 2.25H6c-1.577 0-2.25-.673-2.25-2.25v-8c0-1.577.673-2.25 2.25-2.25h2a.752.752 0 0 0 .712-.513l.658-1.975a.748.748 0 0 1 .711-.513h3.838c.323 0 .609.206.71.513l.66 1.974A.752.752 0 0 0 16 7.75h2c1.577 0 2.25.673 2.25 2.25v8ZM12 10.25A3.755 3.755 0 0 0 8.25 14 3.755 3.755 0 0 0 12 17.75 3.755 3.755 0 0 0 15.75 14 3.755 3.755 0 0 0 12 10.25Zm0 6A2.253 2.253 0 0 1 9.75 14c0-1.241 1.01-2.25 2.25-2.25s2.25 1.009 2.25 2.25-1.01 2.25-2.25 2.25Zm6.5-5.75a1 1 0 1 1-2 0 1 1 0 0 1 2 0Z"/></svg>