<svg xmlns="http://www.w3.org/2000/svg" width="24" height="24" fill="none"><path fill="currentColor" d="M21.341 6.995c.271.543.409 1.218.409 2.005v8c0 2.418-1.332 3.75-3.75 3.75H8a.75.75 0 0 1 0-1.5h10c1.577 0 2.25-.673 2.25-2.25V9c0-.552-.084-1.001-.251-1.335a.749.749 0 1 1 1.342-.67ZM14.25 13c0 1.241-1.01 2.25-2.25 2.25a.75.75 0 0 0 0 1.5A3.755 3.755 0 0 0 15.75 13a.75.75 0 0 0-1.5 0ZM3.53 21.53a.748.748 0 0 1-1.06 0 .75.75 0 0 1 0-1.061l.725-.725c-.519-.538-.945-1.385-.945-2.745v-8c0-2.418 1.332-3.75 3.75-3.75h1.46l.489-1.458a2.232 2.232 0 0 1 2.131-1.542h3.84c.977 0 1.834.623 2.134 1.55l.486 1.45h1.149l2.78-2.78A.75.75 0 1 1 21.53 3.53l-18 18Zm.72-2.841 4.28-4.28A3.723 3.723 0 0 1 8.25 13 3.755 3.755 0 0 1 12 9.25c.49 0 .966.099 1.409.28l2.78-2.78H16a.75.75 0 0 1-.71-.512l-.661-1.97a.742.742 0 0 0-.71-.518H10.08a.738.738 0 0 0-.706.51l-.663 1.978A.75.75 0 0 1 8 6.75H6c-1.577 0-2.25.673-2.25 2.25v8c0 .912.231 1.401.5 1.689Zm7.917-7.916c-.056-.004-.11-.023-.167-.023A2.253 2.253 0 0 0 9.75 13c0 .057.019.11.023.167l2.394-2.394Z"/></svg>