<svg xmlns="http://www.w3.org/2000/svg" width="24" height="24" fill="none"><path fill="currentColor" d="m15.88 10.125-5.194-4.38a2.065 2.065 0 0 0-2.223-.298A2.08 2.08 0 0 0 7.25 7.352v9.297c0 .828.465 1.558 1.213 1.905a2.07 2.07 0 0 0 2.223-.298l5.194-4.38c.553-.467.87-1.15.87-1.875 0-.725-.317-1.41-.87-1.876Zm-.967 2.604-5.194 4.38a.568.568 0 0 1-.624.084.591.591 0 0 1-.345-.545V7.351a.59.59 0 0 1 .345-.545.56.56 0 0 1 .624.085l5.194 4.38a.953.953 0 0 1 .337.729.953.953 0 0 1-.337.729Z"/></svg>