<svg xmlns="http://www.w3.org/2000/svg" width="24" height="24" fill="none"><path fill="currentColor" d="M11.25 17a.75.75 0 0 1-.75.75H5c-2.418 0-3.75-1.332-3.75-3.75V6c0-2.418 1.332-3.75 3.75-3.75h12c2.418 0 3.75 1.332 3.75 3.75a.75.75 0 0 1-1.5 0c0-1.577-.673-2.25-2.25-2.25H5c-1.577 0-2.25.673-2.25 2.25v8c0 1.577.673 2.25 2.25 2.25h5.5a.75.75 0 0 1 .75.75ZM12 7.25H6a.75.75 0 0 0 0 1.5h6a.75.75 0 0 0 0-1.5Zm-3 5.5a.75.75 0 0 0 0-1.5H6a.75.75 0 0 0 0 1.5h3Zm13.107 2.134-.213.213.01.279c0 .84-.481 1.563-1.177 1.931l.994 3.487a.751.751 0 0 1-1.001.902l-1.847-.74a3.252 3.252 0 0 0-2.417 0l-1.845.74a.75.75 0 0 1-1-.902l.993-3.488a2.187 2.187 0 0 1-1.175-1.931v-.299l-.205-.193a2.197 2.197 0 0 1 0-3.102l.214-.213-.009-.28c0-1.208.984-2.193 2.193-2.193h.299l.191-.204c.832-.83 2.275-.83 3.104 0l.212.212.28-.008c1.209 0 2.193.984 2.193 2.194v.299l.203.192c.859.858.858 2.249.003 3.104Zm-2.248 4.851-.578-2.028-.064.068a2.175 2.175 0 0 1-1.55.642 2.183 2.183 0 0 1-1.552-.642l-.064-.064-.577 2.025.427-.171a4.745 4.745 0 0 1 3.53 0l.428.17Zm1.188-6.892-.212-.212a1.469 1.469 0 0 1-.432-1.042v-.299a.695.695 0 0 0-.693-.694h-.3c-.395 0-.765-.154-1.042-.433l-.21-.21a.709.709 0 0 0-.982 0l-.21.21a1.466 1.466 0 0 1-1.043.433h-.299a.694.694 0 0 0-.693.694v.299c0 .393-.153.763-.432 1.041l-.214.213c-.27.27-.27.71 0 .98l.214.213c.278.277.432.647.432 1.041v.299c0 .383.312.694.693.694h.3c.392 0 .76.153 1.039.43l.214.214a.71.71 0 0 0 .98 0l.214-.213a1.458 1.458 0 0 1 1.04-.431h.299a.694.694 0 0 0 .693-.694v-.299c0-.393.152-.762.43-1.04l.214-.214c.27-.27.27-.71 0-.98Zm-.964.49a2.42 2.42 0 0 1-2.416 2.417 2.42 2.42 0 0 1-2.417-2.417 2.42 2.42 0 0 1 2.417-2.417 2.42 2.42 0 0 1 2.416 2.417Zm-1.5 0a.917.917 0 1 0-1.835 0 .917.917 0 0 0 1.835 0Z"/></svg>