<svg xmlns="http://www.w3.org/2000/svg" width="24" height="24" fill="none"><path fill="currentColor" d="M12.5 2.25h-1c-1.409 0-2.25.841-2.25 2.25v15c0 1.409.841 2.25 2.25 2.25h1c1.409 0 2.25-.841 2.25-2.25v-15c0-1.409-.841-2.25-2.25-2.25Zm.75 17.25c0 .589-.161.75-.75.75h-1c-.589 0-.75-.161-.75-.75v-15c0-.589.161-.75.75-.75h1c.589 0 .75.161.75.75v15ZM19.5 7.25h-1c-1.409 0-2.25.841-2.25 2.25v10c0 1.409.841 2.25 2.25 2.25h1c1.409 0 2.25-.841 2.25-2.25v-10c0-1.409-.841-2.25-2.25-2.25Zm.75 12.25c0 .589-.161.75-.75.75h-1c-.589 0-.75-.161-.75-.75v-10c0-.589.161-.75.75-.75h1c.589 0 .75.161.75.75v10ZM5.5 11.25h-1c-1.409 0-2.25.841-2.25 2.25v6c0 1.409.841 2.25 2.25 2.25h1c1.409 0 2.25-.841 2.25-2.25v-6c0-1.409-.841-2.25-2.25-2.25Zm.75 8.25c0 .589-.161.75-.75.75h-1c-.589 0-.75-.161-.75-.75v-6c0-.589.161-.75.75-.75h1c.589 0 .75.161.75.75v6Z"/></svg>