<svg xmlns="http://www.w3.org/2000/svg" width="24" height="24" fill="none"><path fill="currentColor" d="M17.625 21.75H6.375c-2.66 0-4.125-1.465-4.125-4.125V6.375c0-2.66 1.465-4.125 4.125-4.125h11.25c2.66 0 4.125 1.465 4.125 4.125v11.25c0 2.66-1.465 4.125-4.125 4.125Zm-11.25-18c-1.84 0-2.625.785-2.625 2.625v11.25c0 1.84.785 2.625 2.625 2.625h11.25c1.84 0 2.625-.785 2.625-2.625V6.375c0-1.84-.785-2.625-2.625-2.625H6.375Zm8.625 14c-1.409 0-2.25-.841-2.25-2.25v-7c0-1.409.841-2.25 2.25-2.25s2.25.841 2.25 2.25v7c0 1.409-.841 2.25-2.25 2.25Zm0-10c-.589 0-.75.161-.75.75v7c0 .589.161.75.75.75s.75-.161.75-.75v-7c0-.589-.161-.75-.75-.75Zm-6 10c-1.409 0-2.25-.841-2.25-2.25v-3c0-1.409.841-2.25 2.25-2.25s2.25.841 2.25 2.25v3c0 1.409-.841 2.25-2.25 2.25Zm0-6c-.589 0-.75.161-.75.75v3c0 .589.161.75.75.75s.75-.161.75-.75v-3c0-.589-.161-.75-.75-.75Z"/></svg>