<svg xmlns="http://www.w3.org/2000/svg" width="24" height="24" fill="none"><path fill="currentColor" d="M12 22.75C6.072 22.75 1.25 17.928 1.25 12S6.072 1.25 12 1.25 22.75 6.072 22.75 12 17.928 22.75 12 22.75Zm0-20c-5.101 0-9.25 4.149-9.25 9.25s4.149 9.25 9.25 9.25 9.25-4.149 9.25-9.25S17.101 2.75 12 2.75Zm3 15c-1.409 0-2.25-.841-2.25-2.25v-7c0-1.409.841-2.25 2.25-2.25s2.25.841 2.25 2.25v7c0 1.409-.841 2.25-2.25 2.25Zm0-10c-.589 0-.75.161-.75.75v7c0 .589.161.75.75.75s.75-.161.75-.75v-7c0-.589-.161-.75-.75-.75Zm-6 10c-1.409 0-2.25-.841-2.25-2.25v-3c0-1.409.841-2.25 2.25-2.25s2.25.841 2.25 2.25v3c0 1.409-.841 2.25-2.25 2.25Zm0-6c-.589 0-.75.161-.75.75v3c0 .589.161.75.75.75s.75-.161.75-.75v-3c0-.589-.161-.75-.75-.75Z"/></svg>