<svg xmlns="http://www.w3.org/2000/svg" width="24" height="24" fill="none"><path fill="currentColor" d="M21.75 20a.75.75 0 0 1-.75.75H4.5c-1.409 0-2.25-.841-2.25-2.25V4a.75.75 0 0 1 1.5 0v14.5c0 .589.161.75.75.75H21a.75.75 0 0 1 .75.75ZM9.765 10.826c.68.68 1.789.682 2.47.004l1.606-1.595a.252.252 0 0 1 .354.001l3.999 4.014H17a.75.75 0 0 0 0 1.5h3c.098 0 .195-.02.286-.058a.755.755 0 0 0 .216-.143c.008-.007.019-.01.026-.018a.749.749 0 0 0 .22-.53V11a.75.75 0 0 0-1.5 0v1.185l-3.993-4.007a1.753 1.753 0 0 0-2.473-.007l-1.606 1.595a.25.25 0 0 1-.353 0L7.528 6.471a.75.75 0 1 0-1.061 1.061l3.298 3.294Z"/></svg>