<svg xmlns="http://www.w3.org/2000/svg" width="24" height="24" fill="none"><path fill="currentColor" d="M21.75 20a.75.75 0 0 1-.75.75H4.5c-1.409 0-2.25-.841-2.25-2.25V4a.75.75 0 0 1 1.5 0v14.5c0 .589.161.75.75.75H21a.75.75 0 0 1 .75.75ZM7 14.75a.744.744 0 0 0 .53-.22l3.295-3.295a.25.25 0 0 1 .353 0l1.606 1.595a1.753 1.753 0 0 0 2.473-.007l3.993-4.007V10a.75.75 0 0 0 1.5 0V6.999a.75.75 0 0 0-.22-.53c-.007-.007-.017-.01-.025-.016a.74.74 0 0 0-.219-.145.76.76 0 0 0-.253-.051c-.012 0-.022-.007-.033-.007h-3a.75.75 0 0 0 0 1.5h1.194l-3.999 4.014a.25.25 0 0 1-.354.001l-1.605-1.595a1.755 1.755 0 0 0-2.471.004L6.47 13.469A.75.75 0 0 0 7 14.75Z"/></svg>