<svg xmlns="http://www.w3.org/2000/svg" width="24" height="24" fill="none"><path fill="currentColor" d="M12.001 2.25c-5.375 0-9.748 4.373-9.748 9.749 0 1.4.311 2.809.902 4.083.115.243.124.551.026.858l-.84 2.501a1.743 1.743 0 0 0 .426 1.792 1.745 1.745 0 0 0 1.794.425l2.49-.836c.317-.101.626-.094.874.026a9.73 9.73 0 0 0 4.075.9c5.376 0 9.749-4.373 9.749-9.749S17.377 2.25 12.001 2.25Zm0 17.998a8.214 8.214 0 0 1-3.436-.757c-.589-.281-1.288-.316-1.982-.094l-2.498.839a.244.244 0 0 1-.257-.064.242.242 0 0 1-.064-.256l.844-2.511c.217-.683.182-1.382-.095-1.963a8.227 8.227 0 0 1-.76-3.444c0-4.548 3.7-8.249 8.248-8.249 4.549 0 8.249 3.7 8.249 8.249s-3.7 8.25-8.249 8.25Zm2.583-10.343c.185 1.052-.255 1.992-1.239 2.646-.556.369-.632.557-.635.564a.767.767 0 0 1-.713.496.722.722 0 0 1-.245-.042.739.739 0 0 1-.463-.934c.203-.601.797-1.049 1.226-1.333.636-.422.643-.851.593-1.137a1.139 1.139 0 0 0-.897-.896 1.123 1.123 0 0 0-1.335 1.106.75.75 0 0 1-1.5 0c0-.778.342-1.51.938-2.011.596-.5 1.38-.709 2.157-.573a2.647 2.647 0 0 1 2.113 2.114ZM13.02 15.5a1 1 0 0 1-1 1 1.005 1.005 0 0 1-1.005-1c0-.552.443-1 .995-1h.01a1 1 0 0 1 1 1Z"/></svg>