<svg xmlns="http://www.w3.org/2000/svg" width="24" height="24" fill="none"><path fill="currentColor" d="M13.745 20.847a.75.75 0 0 1-.654.835 9.689 9.689 0 0 1-5.165-.835c-.248-.118-.557-.127-.875-.025l-2.489.836a1.745 1.745 0 0 1-1.794-.425 1.743 1.743 0 0 1-.427-1.792l.84-2.501c.099-.307.09-.615-.025-.858a9.74 9.74 0 0 1-.902-4.083c0-5.375 4.373-9.749 9.748-9.749 5.376 0 9.749 4.373 9.749 9.749a.75.75 0 0 1-1.5 0c0-4.548-3.7-8.249-8.249-8.249-4.548 0-8.248 3.7-8.248 8.249a8.23 8.23 0 0 0 .76 3.444c.276.581.312 1.28.095 1.963l-.844 2.511a.242.242 0 0 0 .064.256.243.243 0 0 0 .257.064l2.498-.839c.694-.221 1.395-.187 1.981.094a8.169 8.169 0 0 0 4.347.702.755.755 0 0 1 .833.653ZM21 17.25h-5a.75.75 0 0 0 0 1.5h5a.75.75 0 0 0 0-1.5Zm-13-8a.75.75 0 0 0 0 1.5h8a.75.75 0 0 0 0-1.5H8Zm5 4H8a.75.75 0 0 0 0 1.5h5a.75.75 0 0 0 0-1.5Z"/></svg>