<svg xmlns="http://www.w3.org/2000/svg" width="24" height="24" fill="none"><path fill="currentColor" d="M12.751 20.998a.75.75 0 0 1-.75.75c-1.4 0-2.809-.311-4.075-.9-.248-.118-.558-.127-.875-.025l-2.489.836a1.745 1.745 0 0 1-1.794-.425 1.743 1.743 0 0 1-.427-1.792l.84-2.501c.099-.307.09-.615-.025-.858A9.74 9.74 0 0 1 2.254 12c0-5.375 4.373-9.749 9.748-9.749 5.376 0 9.749 4.373 9.749 9.749a.75.75 0 0 1-1.5 0c0-4.548-3.7-8.249-8.249-8.249-4.548 0-8.248 3.7-8.248 8.249a8.23 8.23 0 0 0 .76 3.444c.276.581.312 1.28.095 1.963l-.844 2.511a.242.242 0 0 0 .064.256.243.243 0 0 0 .257.064l2.498-.839c.694-.221 1.395-.187 1.981.094a8.219 8.219 0 0 0 3.437.757.746.746 0 0 1 .749.748ZM21 17.75h-1.75V16a.75.75 0 0 0-1.5 0v1.75H16a.75.75 0 0 0 0 1.5h1.75V21a.75.75 0 0 0 1.5 0v-1.75H21a.75.75 0 0 0 0-1.5ZM12.02 11h-.01a.996.996 0 0 0-.995 1c0 .552.453 1 1.005 1a1 1 0 1 0 0-2Zm4 2a1 1 0 1 0 0-2h-.01a.996.996 0 0 0-.995 1c0 .552.453 1 1.005 1Zm-8.01-2a.996.996 0 0 0-.995 1c0 .552.453 1 1.005 1a1 1 0 1 0 0-2h-.01Z"/></svg>