<svg xmlns="http://www.w3.org/2000/svg" width="24" height="24" fill="none"><path fill="currentColor" d="M12.001 2.25c-5.375 0-9.748 4.373-9.748 9.749 0 1.4.311 2.809.902 4.083.115.243.124.551.026.858l-.84 2.501a1.743 1.743 0 0 0 .426 1.792 1.745 1.745 0 0 0 1.794.425l2.49-.836c.317-.101.626-.093.874.026a9.73 9.73 0 0 0 4.075.9c5.376 0 9.749-4.373 9.749-9.749S17.377 2.25 12.001 2.25Zm0 17.998a8.214 8.214 0 0 1-3.436-.757c-.589-.281-1.288-.315-1.982-.094l-2.498.839a.244.244 0 0 1-.257-.064.242.242 0 0 1-.064-.256l.844-2.511c.217-.683.182-1.382-.095-1.963a8.227 8.227 0 0 1-.76-3.444c0-4.548 3.7-8.249 8.248-8.249 4.549 0 8.249 3.7 8.249 8.249s-3.7 8.25-8.249 8.25ZM15.279 7.73c-.31-.31-.72-.48-1.158-.48h-.002c-.438 0-.851.172-1.159.483l-5.491 5.516a.745.745 0 0 0-.219.529V16c0 .414.336.75.75.75h2.223a.75.75 0 0 0 .529-.219l5.516-5.491c.311-.309.481-.721.482-1.159 0-.438-.17-.851-.48-1.161l-.99-.99Zm-1.158 1.02c.026 0 .064.007.098.041l.99.99a.138.138 0 0 1 0 .197l-.636.633-1.184-1.184.633-.636a.14.14 0 0 1 .1-.041Zm-4.208 6.5H8.75v-1.163l3.581-3.597 1.179 1.179-3.597 3.581Z"/></svg>