<svg xmlns="http://www.w3.org/2000/svg" width="24" height="24" fill="none"><path fill="currentColor" d="M11.02 19.5a.749.749 0 1 1-1.5 0 .749.749 0 1 1 1.5 0Zm5.73-17v11c0 .69-.56 1.25-1.25 1.25h-1.14c-.58 0-1.12.26-1.48.72-.36.46-.48 1.04-.34 1.61l.5 2.01c.22.89.03 1.81-.54 2.52-.56.72-1.41 1.13-2.32 1.13-1.62 0-2.94-1.32-2.94-2.94V5.12c0-2.54 1.34-3.88 3.88-3.88h4.37c.69 0 1.25.56 1.25 1.25l.01.01Zm-5.16 16.96-.43-1.71H8.75v2.06a1.445 1.445 0 0 0 2.58.89c.28-.35.37-.8.26-1.24Zm3.66-16.71h-4.12c-1.71 0-2.38.67-2.38 2.38v11.12h2.28c.07-.61.28-1.2.68-1.7a3.36 3.36 0 0 1 2.66-1.3h.89V2.75h-.01Z"/></svg>