<svg xmlns="http://www.w3.org/2000/svg" width="24" height="24" fill="none"><path fill="currentColor" d="M17 4.25h-.27c-.097-1.254-.909-2-2.23-2h-5c-1.321 0-2.133.746-2.23 2H7C4.582 4.25 3.25 5.582 3.25 8v10c0 2.418 1.332 3.75 3.75 3.75h10c2.418 0 3.75-1.332 3.75-3.75V8c0-2.418-1.332-3.75-3.75-3.75Zm-8.25.25c0-.589.161-.75.75-.75h5c.589 0 .75.161.75.75v1c0 .589-.161.75-.75.75h-5c-.589 0-.75-.161-.75-.75v-1ZM19.25 18c0 1.577-.673 2.25-2.25 2.25H7c-1.577 0-2.25-.673-2.25-2.25V8c0-1.577.673-2.25 2.25-2.25h.27c.097 1.254.909 2 2.23 2h5c1.321 0 2.133-.746 2.23-2H17c1.577 0 2.25.673 2.25 2.25v10Zm-5.699-8.25h-.013c-.662 0-1.169.256-1.538.588a2.242 2.242 0 0 0-1.538-.588h-.013c-.84.004-1.545.324-2.038.926-.582.712-.795 1.741-.58 2.824.524 2.663 3.727 4.124 3.862 4.185a.746.746 0 0 0 .614 0c.136-.061 3.338-1.522 3.863-4.185v-.001c.214-1.083.002-2.112-.58-2.823-.493-.602-1.198-.922-2.039-.926Zm1.148 3.459c-.298 1.504-1.994 2.567-2.699 2.95-.705-.383-2.401-1.446-2.698-2.949-.125-.632-.023-1.224.271-1.583.206-.251.495-.375.885-.376h.004c.579 0 .808.576.829.633a.748.748 0 0 0 .702.505h.01a.757.757 0 0 0 .705-.496c.024-.066.253-.642.832-.642h.004c.39.002.68.125.886.376.293.358.393.949.269 1.582Z"/></svg>