<svg xmlns="http://www.w3.org/2000/svg" width="24" height="24" fill="none"><path fill="currentColor" d="M16 19.75H9.5c-3.998 0-7.25-3.252-7.25-7.25S5.502 5.25 9.5 5.25a7.24 7.24 0 0 1 5.892 3.03 5.756 5.756 0 0 1 6.358 5.719A5.757 5.757 0 0 1 16 19.75Zm-6.5-13a5.756 5.756 0 0 0-5.75 5.75 5.756 5.756 0 0 0 5.75 5.75H16A4.254 4.254 0 0 0 20.25 14 4.254 4.254 0 0 0 16 9.75a4.44 4.44 0 0 0-.831.077.749.749 0 0 1-.776-.343c-.3-.485-.67-.923-1.097-1.3A5.737 5.737 0 0 0 9.5 6.75Zm2.363 8.614 2.667-2.667a.75.75 0 1 0-1.061-1.061l-2.137 2.136-.803-.803a.75.75 0 0 0-1.061 1.061l1.333 1.333a.749.749 0 0 0 1.062.001Z"/></svg>