<svg xmlns="http://www.w3.org/2000/svg" width="24" height="24" fill="none"><path fill="currentColor" d="M21.351 19.812c-.57-.462-.829-.97-.945-1.345.881-1.091 1.344-2.453 1.344-3.964 0-2.31-1.104-4.25-3.028-5.405-.285-4.059-3.581-6.847-8.222-6.847-4.856 0-8.249 3.051-8.249 7.419 0 1.74.539 3.305 1.562 4.55-.13.455-.436 1.091-1.155 1.672a1.143 1.143 0 0 0-.338 1.259c.16.453.57.752 1.039.763.116.004.235.006.357.006 1.245 0 2.789-.238 3.944-1.185.93 2.621 3.542 4.3 6.84 4.3.85 0 1.655-.109 2.4-.324 1.022.833 2.367 1.04 3.438 1.04.113 0 .225-.002.332-.006.459 0 .856-.28 1.015-.716.158-.439.03-.914-.334-1.217ZM7.753 15.146a.75.75 0 0 0-.793.196c-.689.737-1.775.986-2.673 1.055a4.562 4.562 0 0 0 1.079-2.269.752.752 0 0 0-.19-.625c-.933-1.01-1.426-2.335-1.426-3.834 0-3.485 2.775-5.919 6.749-5.919 3.975 0 6.75 2.434 6.75 5.919 0 3.485-2.775 5.919-6.75 5.919a8.36 8.36 0 0 1-2.746-.442Zm11.901 5.064c-.704-.08-1.496-.305-2.02-.861a.75.75 0 0 0-.797-.193 6.98 6.98 0 0 1-2.339.377c-2.278 0-4.131-.963-5.062-2.517.351.036.701.072 1.062.072 4.394 0 7.58-2.501 8.15-6.212 1.036.89 1.6 2.14 1.6 3.625 0 1.272-.419 2.396-1.21 3.251a.752.752 0 0 0-.191.626c.104.658.383 1.286.807 1.832Zm.962.036.022-.001-.022.001Z"/></svg>