<svg xmlns="http://www.w3.org/2000/svg" width="24" height="24" fill="none"><path fill="currentColor" d="M3.857 21.75c-.145 0-.286-.002-.424-.007a1.207 1.207 0 0 1-1.109-.815 1.221 1.221 0 0 1 .36-1.347c.932-.752 1.305-1.584 1.455-2.155-1.237-1.479-1.89-3.346-1.89-5.425 0-5.153 4.01-8.751 9.75-8.751s9.75 3.599 9.75 8.751c0 5.152-4.01 8.751-9.75 8.751-1.187 0-2.325-.161-3.394-.48-1.363 1.188-3.241 1.478-4.748 1.478Zm-.379-1.507h.006-.006ZM12 4.75c-4.857 0-8.25 2.982-8.25 7.251 0 1.836.605 3.462 1.751 4.702a.749.749 0 0 1 .19.625c-.168 1.07-.696 2.084-1.508 2.915 1.16-.042 2.72-.31 3.68-1.333a.748.748 0 0 1 .792-.196c1.035.358 2.16.539 3.345.539 4.857 0 8.25-2.982 8.25-7.251 0-4.27-3.393-7.252-8.25-7.252Zm-.97 9.78a.75.75 0 0 0 0-1.061l-1.47-1.47 1.47-1.47a.75.75 0 0 0-1.061-1.061l-2 2a.75.75 0 0 0 0 1.061l2 2a.748.748 0 0 0 1.061.001Zm3 0 2-2a.75.75 0 0 0 0-1.061l-2-2a.75.75 0 1 0-1.061 1.061l1.47 1.47-1.47 1.47a.75.75 0 1 0 1.061 1.06Z"/></svg>