<svg xmlns="http://www.w3.org/2000/svg" width="24" height="24" fill="none"><path fill="currentColor" d="M12 3.25c-5.74 0-9.75 3.599-9.75 8.751 0 2.079.652 3.946 1.89 5.425-.15.57-.523 1.403-1.455 2.155a1.22 1.22 0 0 0-.36 1.347c.17.483.61.803 1.11.815.137.005.278.007.423.007 1.507 0 3.385-.29 4.749-1.477a11.87 11.87 0 0 0 3.394.479c5.74 0 9.75-3.599 9.75-8.751 0-5.152-4.011-8.751-9.751-8.751Zm0 16.003c-1.185 0-2.31-.181-3.345-.539a.749.749 0 0 0-.792.196c-.96 1.024-2.52 1.292-3.68 1.333.812-.83 1.34-1.844 1.508-2.915a.752.752 0 0 0-.19-.625c-1.146-1.24-1.751-2.866-1.751-4.702 0-4.27 3.393-7.251 8.25-7.251s8.25 2.982 8.25 7.251-3.393 7.252-8.25 7.252Zm3.729-10.406a.75.75 0 0 0-1.011-.27l-.133.073a.662.662 0 0 1-.644 0 .58.58 0 0 1-.303-.5.902.902 0 0 0-.904-.899H11.21a.902.902 0 0 0-.904.899.579.579 0 0 1-.303.5.66.66 0 0 1-.644 0 .91.91 0 0 0-1.22.324l-.762 1.281a.903.903 0 0 0-.099.687.904.904 0 0 0 .426.553l.02.011a.58.58 0 0 1 .289.493.581.581 0 0 1-.308.506.91.91 0 0 0-.426.551.891.891 0 0 0 .096.687l.766 1.283a.899.899 0 0 0 1.22.323.66.66 0 0 1 .642.001.578.578 0 0 1 .302.5c0 .496.405.899.903.899h1.527a.902.902 0 0 0 .903-.899c0-.204.116-.395.303-.5a.66.66 0 0 1 .644 0 .91.91 0 0 0 1.219-.324l.768-1.288a.892.892 0 0 0-.332-1.233l-.02-.01a.58.58 0 0 1-.288-.494.58.58 0 0 1 .302-.502l.133-.074a.748.748 0 0 0 .278-1.038l-.916-1.54Zm-.72 4.582-.237.398a2.168 2.168 0 0 0-1.566.216 2.096 2.096 0 0 0-.976 1.207h-.515a2.094 2.094 0 0 0-.976-1.207 2.164 2.164 0 0 0-1.566-.216l-.237-.397c.368-.384.58-.896.578-1.435a2.07 2.07 0 0 0-.578-1.424l.237-.398a2.163 2.163 0 0 0 1.566-.216c.476-.268.821-.704.976-1.207h.515c.154.502.5.938.976 1.207.478.27 1.045.342 1.566.216l.237.398a2.069 2.069 0 0 0-.577 1.431c0 .536.212 1.045.577 1.427ZM13.02 12a1 1 0 0 1-1 1 1.005 1.005 0 0 1-1.005-1c0-.552.443-1 .995-1h.01a1 1 0 0 1 1 1Z"/></svg>