<svg xmlns="http://www.w3.org/2000/svg" width="24" height="24" fill="none"><path fill="currentColor" d="M12 3.25c-5.74 0-9.75 3.599-9.75 8.751 0 2.079.652 3.946 1.89 5.425-.15.57-.523 1.403-1.455 2.155a1.22 1.22 0 0 0-.36 1.347c.17.483.61.803 1.11.815.137.005.278.007.423.007 1.507 0 3.385-.29 4.749-1.477a11.87 11.87 0 0 0 3.394.479c5.74 0 9.75-3.599 9.75-8.751 0-5.152-4.011-8.751-9.751-8.751Zm0 16.003c-1.185 0-2.31-.181-3.345-.539a.75.75 0 0 0-.792.196c-.96 1.024-2.52 1.292-3.68 1.333.812-.83 1.34-1.844 1.508-2.915a.752.752 0 0 0-.19-.625c-1.146-1.24-1.751-2.866-1.751-4.702 0-4.27 3.393-7.251 8.25-7.251s8.25 2.982 8.25 7.251-3.393 7.252-8.25 7.252ZM15.28 7.73c-.31-.31-.722-.48-1.159-.48h-.003c-.438 0-.85.172-1.158.482l-5.491 5.516a.747.747 0 0 0-.219.529V16c0 .414.336.75.75.75h2.223a.753.753 0 0 0 .529-.218l5.516-5.491c.311-.309.481-.721.482-1.159 0-.438-.17-.851-.48-1.161l-.99-.991Zm-1.16 1.02a.14.14 0 0 1 .099.041l.99.99a.138.138 0 0 1 0 .197l-.636.634-1.183-1.184.634-.637a.132.132 0 0 1 .096-.041Zm-4.207 6.5H8.75v-1.163l3.581-3.597 1.178 1.179-3.596 3.581Z"/></svg>