<svg xmlns="http://www.w3.org/2000/svg" width="24" height="24" fill="none"><path fill="currentColor" d="M12 3.25c-5.74 0-9.75 3.599-9.75 8.751 0 2.079.652 3.946 1.89 5.425-.15.57-.523 1.403-1.455 2.155a1.22 1.22 0 0 0-.36 1.347c.17.483.61.803 1.11.815.137.005.278.007.423.007 1.507 0 3.385-.29 4.749-1.477a11.87 11.87 0 0 0 3.394.479c5.74 0 9.75-3.599 9.75-8.751 0-5.152-4.011-8.751-9.751-8.751Zm0 16.003c-1.185 0-2.31-.181-3.345-.539a.749.749 0 0 0-.792.196c-.96 1.024-2.52 1.292-3.68 1.333.812-.83 1.34-1.844 1.508-2.915a.752.752 0 0 0-.19-.625c-1.146-1.24-1.751-2.866-1.751-4.702 0-4.27 3.393-7.251 8.25-7.251s8.25 2.982 8.25 7.251-3.393 7.252-8.25 7.252ZM12 7.25A4.756 4.756 0 0 0 7.25 12 4.756 4.756 0 0 0 12 16.75 4.756 4.756 0 0 0 16.75 12 4.756 4.756 0 0 0 12 7.25Zm0 8A3.254 3.254 0 0 1 8.75 12 3.254 3.254 0 0 1 12 8.75 3.254 3.254 0 0 1 15.25 12 3.254 3.254 0 0 1 12 15.25Zm1.53-2.78a.75.75 0 0 1-1.06 1.061l-1-1a.75.75 0 0 1-.22-.53v-1.5a.75.75 0 0 1 1.5 0v1.189l.78.78Z"/></svg>