<svg xmlns="http://www.w3.org/2000/svg" width="24" height="24" fill="none"><path fill="currentColor" d="M21.004 3.013a2.525 2.525 0 0 0-2.747-.583l-8.735 3.4a6.389 6.389 0 0 0-3.617 3.6l-3.473 8.817a2.524 2.524 0 0 0 .58 2.756 2.527 2.527 0 0 0 2.762.555l8.783-3.555a6.406 6.406 0 0 0 3.524-3.539l3.48-8.7a2.523 2.523 0 0 0-.557-2.752Zm-.835 2.195-3.48 8.701a4.897 4.897 0 0 1-2.694 2.705L5.212 20.17a1.037 1.037 0 0 1-1.144-.229 1.032 1.032 0 0 1-.24-1.14l3.473-8.818a4.886 4.886 0 0 1 2.765-2.754l8.735-3.399a1.034 1.034 0 0 1 1.137.242c.307.306.393.733.231 1.137ZM13.23 11.76c.01.08.02.16.02.24 0 .08-.01.16-.02.24-.02.08-.04.16-.08.24-.03.07-.07.15-.11.21-.05.07-.1.14-.16.19-.23.24-.55.37-.88.37-.33 0-.65-.13-.88-.37-.06-.05-.11-.12-.16-.19a1.39 1.39 0 0 1-.11-.21c-.04-.08-.06-.16-.08-.24-.01-.08-.02-.16-.02-.24 0-.08.01-.16.02-.24.02-.08.04-.16.08-.24.03-.07.07-.15.11-.21.05-.07.1-.14.16-.19.46-.47 1.3-.47 1.76 0 .06.05.11.12.16.19.04.06.08.14.11.21.04.08.06.16.08.24Z"/></svg>