<svg xmlns="http://www.w3.org/2000/svg" width="24" height="24" fill="none"><path fill="currentColor" d="M18.375 21.75h-8.75c-2.177 0-3.375-1.198-3.375-3.375v-8.75c0-2.177 1.198-3.375 3.375-3.375h8.75c2.177 0 3.375 1.198 3.375 3.375v8.75c0 2.177-1.198 3.375-3.375 3.375Zm-8.75-14c-1.332 0-1.875.543-1.875 1.875v8.75c0 1.332.543 1.875 1.875 1.875h8.75c1.332 0 1.875-.543 1.875-1.875v-8.75c0-1.332-.543-1.875-1.875-1.875h-8.75ZM3.75 15V5.625c0-1.332.543-1.875 1.875-1.875H15a.75.75 0 0 0 0-1.5H5.625c-2.177 0-3.375 1.198-3.375 3.375V15a.75.75 0 0 0 1.5 0Z"/></svg>