<svg xmlns="http://www.w3.org/2000/svg" width="24" height="24" fill="none"><path fill="currentColor" d="M17.625 21.75H6.375c-2.66 0-4.125-1.465-4.125-4.125V6.375c0-2.66 1.465-4.125 4.125-4.125h11.25c2.66 0 4.125 1.465 4.125 4.125v11.25c0 2.66-1.465 4.125-4.125 4.125Zm-11.25-18c-1.84 0-2.625.785-2.625 2.625v11.25c0 1.84.785 2.625 2.625 2.625h11.25c1.84 0 2.625-.785 2.625-2.625V6.375c0-1.84-.785-2.625-2.625-2.625H6.375Zm9.242 10.677a.75.75 0 0 0-1.234-.853 2.73 2.73 0 0 1-2.243 1.177 2.752 2.752 0 0 1-2.75-2.75 2.752 2.752 0 0 1 2.75-2.75c.895 0 1.733.44 2.243 1.177a.75.75 0 1 0 1.234-.853 4.232 4.232 0 0 0-3.478-1.823 4.255 4.255 0 0 0-4.25 4.25 4.255 4.255 0 0 0 4.25 4.25 4.241 4.241 0 0 0 3.478-1.825Z"/></svg>