<svg xmlns="http://www.w3.org/2000/svg" width="24" height="24" fill="none"><path fill="currentColor" d="M18 20.75H6c-2.418 0-3.75-1.332-3.75-3.75v-3.75H3c.689 0 1.25-.561 1.25-1.25S3.689 10.75 3 10.75h-.75V7c0-2.418 1.332-3.75 3.75-3.75h12c2.418 0 3.75 1.332 3.75 3.75v3.75H21c-.689 0-1.25.561-1.25 1.25s.561 1.25 1.25 1.25h.75V17c0 2.418-1.332 3.75-3.75 3.75ZM3.75 14.646V17c0 1.577.673 2.25 2.25 2.25h12c1.577 0 2.25-.673 2.25-2.25v-2.354a2.754 2.754 0 0 1-2-2.646c0-1.257.847-2.319 2-2.646V7c0-1.577-.673-2.25-2.25-2.25H6c-1.577 0-2.25.673-2.25 2.25v2.354c1.153.327 2 1.389 2 2.646a2.754 2.754 0 0 1-2 2.646ZM12 16.5a.756.756 0 0 1-.309-.066c-.153-.069-3.764-1.732-4.353-4.746-.238-1.219-.002-2.375.65-3.17.541-.661 1.315-1.013 2.238-1.018h.014c.77 0 1.349.317 1.759.716A2.612 2.612 0 0 1 13.77 7.5c.924.004 1.698.356 2.24 1.017.65.794.888 1.949.65 3.17-.59 3.015-4.2 4.677-4.354 4.746A.718.718 0 0 1 12 16.5ZM10.24 9h-.005c-.469.002-.834.16-1.087.468-.361.441-.487 1.163-.337 1.931.355 1.819 2.4 3.083 3.188 3.51.788-.426 2.833-1.691 3.188-3.509.15-.769.024-1.492-.337-1.932-.253-.308-.618-.465-1.088-.468h-.005c-.736 0-1.021.73-1.05.814a.756.756 0 0 1-.708.5h-.008a.747.747 0 0 1-.704-.508C11.262 9.73 10.978 9 10.24 9Zm5.685 2.543h.01-.01Z"/></svg>