<svg xmlns="http://www.w3.org/2000/svg" width="24" height="24" fill="none"><path fill="currentColor" d="M21.642 6.927c.072.322.108.683.108 1.073v8c0 2.418-1.332 3.75-3.75 3.75H9a.75.75 0 0 1 0-1.5h9c1.577 0 2.25-.673 2.25-2.25v-5.25H18a.75.75 0 0 1 0-1.5h2.25V8c0-.277-.025-.536-.072-.748a.75.75 0 1 1 1.464-.325ZM3.53 21.53a.748.748 0 0 1-1.06 0 .75.75 0 0 1 0-1.061l1.282-1.282c-.975-.607-1.502-1.699-1.502-3.188v-8c0-2.418 1.332-3.75 3.75-3.75h12c.228 0 .443.016.649.041l1.821-1.821a.75.75 0 1 1 1.061 1.061l-18.001 18ZM3.75 8v1.25h9.939l3.5-3.5H6c-1.577 0-2.25.673-2.25 2.25Zm1.118 10.072L7.19 15.75H7a.75.75 0 0 1 0-1.5h1.689l3.5-3.5H3.75V16c0 1.38.541 1.867 1.118 2.072Z"/></svg>