<svg xmlns="http://www.w3.org/2000/svg" width="24" height="24" fill="none"><path fill="currentColor" d="M11 17.25H5c-1.577 0-2.25-.673-2.25-2.25V9.75h16.5V10a.75.75 0 0 0 1.5 0V7c0-2.418-1.332-3.75-3.75-3.75H5C2.582 3.25 1.25 4.582 1.25 7v8c0 2.418 1.332 3.75 3.75 3.75h6a.75.75 0 0 0 0-1.5ZM5 4.75h12c1.577 0 2.25.673 2.25 2.25v1.25H2.75V7c0-1.577.673-2.25 2.25-2.25Zm4 8.5a.75.75 0 0 1 0 1.5H6a.75.75 0 0 1 0-1.5h3Zm8.5-1a4.255 4.255 0 0 0-4.25 4.25 4.255 4.255 0 0 0 4.25 4.25 4.255 4.255 0 0 0 4.25-4.25 4.255 4.255 0 0 0-4.25-4.25Zm0 1.5c.485 0 .935.137 1.331.358l-3.723 3.723a2.72 2.72 0 0 1-.358-1.331 2.752 2.752 0 0 1 2.75-2.75Zm0 5.5a2.72 2.72 0 0 1-1.331-.358l3.723-3.723c.221.396.358.846.358 1.331a2.752 2.752 0 0 1-2.75 2.75Z"/></svg>