<svg xmlns="http://www.w3.org/2000/svg" width="24" height="24" fill="none"><path fill="currentColor" d="m21.091 10.409-4.5-4.5A2.262 2.262 0 0 0 15 5.25H6C3.582 5.25 2.25 6.582 2.25 9v6c0 2.418 1.332 3.75 3.75 3.75h9c.593 0 1.173-.24 1.591-.659l4.5-4.5c.425-.425.659-.99.659-1.591s-.234-1.166-.659-1.591ZM20.03 12.53l-4.5 4.5a.758.758 0 0 1-.53.219H6c-1.577 0-2.25-.673-2.25-2.25v-6c0-1.577.673-2.25 2.25-2.25h9c.197 0 .391.08.53.22l4.5 4.5a.747.747 0 0 1 0 1.061Zm-7.5-2L11.06 12l1.47 1.47a.75.75 0 0 1-1.06 1.061L10 13.061l-1.47 1.47a.748.748 0 0 1-1.06 0 .75.75 0 0 1 0-1.061L8.94 12l-1.47-1.47a.75.75 0 1 1 1.061-1.061l1.47 1.47 1.47-1.47a.75.75 0 1 1 1.059 1.061Z"/></svg>