<svg xmlns="http://www.w3.org/2000/svg" width="24" height="24" fill="none"><path fill="currentColor" d="M12 1.25C6.072 1.25 1.25 6.072 1.25 12S6.072 22.75 12 22.75 22.75 17.928 22.75 12 17.928 1.25 12 1.25Zm0 20c-5.101 0-9.25-4.149-9.25-9.25S6.899 2.75 12 2.75s9.25 4.149 9.25 9.25-4.149 9.25-9.25 9.25ZM16 7H9.981c-1.479 0-1.938.767-2.214 1.595l-1.056 3.167c-.283.852-.213 1.635.199 2.207.284.395.864.864 2.015.864h1.312v.958c0 .782.389 1.508 1.039 1.941a1.582 1.582 0 0 0 1.368.19 1.59 1.59 0 0 0 1.009-.982l1.043-3.163H16c.851 0 1.542-.691 1.542-1.542V8.54C17.542 7.691 16.851 7 16 7Zm-2.559 5.793-1.212 3.678-.121.014a.832.832 0 0 1-.37-.693v-1.708a.75.75 0 0 0-.75-.75H8.924c-.402 0-.686-.085-.798-.241-.117-.163-.114-.49.008-.855L9.191 9.07c.16-.482.188-.569.79-.569l3.811.026v3.854a.734.734 0 0 0-.351.412Zm2.601-.557-.75.017V8.536l.75.005v3.695Z"/></svg>