<svg xmlns="http://www.w3.org/2000/svg" width="24" height="24" fill="none"><path fill="currentColor" d="M15.54 18.541a4.088 4.088 0 0 1-2.83 1.202V21a.75.75 0 0 1-1.5 0v-1.265a4.113 4.113 0 0 1-3.935-3.651.75.75 0 0 1 .661-.829.744.744 0 0 1 .829.661 2.622 2.622 0 0 0 2.605 2.334h1.26c.696 0 1.353-.273 1.849-.771a2.596 2.596 0 0 0 .771-1.85 2.624 2.624 0 0 0-1.984-2.543l-2.896-.72A4.151 4.151 0 0 1 8.119 10.9a4.098 4.098 0 0 1-.868-2.53c0-2.217 1.764-4.018 3.96-4.104V3a.75.75 0 0 1 1.5 0v1.257a4.117 4.117 0 0 1 4.015 3.659.75.75 0 0 1-.661.829.743.743 0 0 1-.829-.661 2.622 2.622 0 0 0-2.605-2.334h-1.26a2.623 2.623 0 0 0-2.072 4.225c.359.463.868.794 1.436.938l2.897.719a4.124 4.124 0 0 1 3.119 3.998 4.098 4.098 0 0 1-1.211 2.911Z"/></svg>