<svg xmlns="http://www.w3.org/2000/svg" width="24" height="24" fill="none"><path fill="currentColor" d="M17.625 2.25H6.375c-2.66 0-4.125 1.465-4.125 4.125v11.25c0 2.66 1.465 4.125 4.125 4.125h11.25c2.66 0 4.125-1.465 4.125-4.125V6.375c0-2.66-1.465-4.125-4.125-4.125Zm2.625 15.375c0 1.815-.81 2.625-2.625 2.625H6.375c-1.84 0-2.625-.785-2.625-2.625V6.375c0-1.84.785-2.625 2.625-2.625h11.25c1.815 0 2.625.81 2.625 2.625v11.25Zm-7.264-6.153-1.608-.399a1.121 1.121 0 0 1 .271-2.21h.7c.572 0 1.051.43 1.116 1a.75.75 0 0 0 1.491-.167 2.617 2.617 0 0 0-2.229-2.299V7a.75.75 0 0 0-1.5 0v.404a2.62 2.62 0 0 0-2.2 2.579c0 .587.197 1.161.552 1.609.356.459.864.791 1.434.935l1.608.399c.501.127.851.575.851 1.089 0 .298-.117.579-.33.792-.213.213-.494.33-.792.33h-.7c-.572 0-1.051-.43-1.116-1a.75.75 0 1 0-1.491.167 2.617 2.617 0 0 0 2.184 2.293V17a.75.75 0 0 0 1.5 0v-.398a2.605 2.605 0 0 0 2.245-2.585 2.624 2.624 0 0 0-1.986-2.545Z"/></svg>