<svg xmlns="http://www.w3.org/2000/svg" width="24" height="24" fill="none"><path fill="currentColor" d="M21 9.25a.75.75 0 0 0-.75.75v7.62c0 1.819-.811 2.63-2.63 2.63H6.38c-1.843 0-2.63-.787-2.63-2.63V6.37c0-1.836.787-2.62 2.63-2.62H14a.75.75 0 0 0 0-1.5H6.38c-2.663 0-4.13 1.463-4.13 4.12v11.25c0 2.663 1.467 4.13 4.13 4.13h11.24c2.663 0 4.13-1.467 4.13-4.13V10a.75.75 0 0 0-.75-.75Zm-2.53-1.72a.749.749 0 0 0 .818.162.749.749 0 0 0 .244-.162l2-2a.75.75 0 0 0-1.061-1.061l-.72.72V2a.75.75 0 0 0-1.5 0v3.189l-.72-.72A.75.75 0 1 0 16.47 5.53l2 2Zm-6.82 1.331h.7c.572 0 1.051.43 1.116 1a.75.75 0 1 0 1.491-.167 2.617 2.617 0 0 0-2.229-2.298V7a.75.75 0 0 0-1.5 0v.404a2.62 2.62 0 0 0-2.2 2.579c0 .587.197 1.161.552 1.609.356.459.864.791 1.434.935l1.608.399c.501.127.851.575.851 1.089 0 .298-.117.579-.33.792-.213.213-.494.33-.792.33h-.7c-.572 0-1.051-.43-1.116-1a.747.747 0 0 0-.829-.662.75.75 0 0 0-.662.829 2.617 2.617 0 0 0 2.184 2.293V17a.75.75 0 0 0 1.5 0v-.398a2.605 2.605 0 0 0 2.245-2.585 2.623 2.623 0 0 0-1.986-2.544l-1.608-.399a1.121 1.121 0 0 1-.851-1.089c0-.62.503-1.124 1.122-1.124Z"/></svg>