<svg xmlns="http://www.w3.org/2000/svg" width="24" height="24" fill="none"><path fill="currentColor" d="M12 1.25C6.07 1.25 1.25 6.07 1.25 12S6.07 22.75 12 22.75 22.75 17.93 22.75 12 17.93 1.25 12 1.25Zm0 20c-4.4 0-8.08-3.09-9.01-7.2l.48.48c.15.15.34.22.53.22s.38-.07.53-.22c.29-.29.29-.77 0-1.06l-1-1a.735.735 0 0 0-.77-.17c0-.1-.02-.2-.02-.3 0-5.1 4.15-9.25 9.25-9.25 3.04 0 5.74 1.48 7.43 3.76l-.96.96c-.29.29-.29.77 0 1.06.15.15.34.22.53.22s.38-.07.53-.22l.71-.71A9.21 9.21 0 0 1 21.24 12c0 5.1-4.15 9.25-9.25 9.25H12Zm0-13.5A4.26 4.26 0 0 0 7.75 12 4.26 4.26 0 0 0 12 16.25 4.26 4.26 0 0 0 16.25 12 4.26 4.26 0 0 0 12 7.75Zm0 7c-1.52 0-2.75-1.23-2.75-2.75S10.48 9.25 12 9.25s2.75 1.23 2.75 2.75-1.23 2.75-2.75 2.75ZM7.53 8.53l-1 1c-.15.15-.34.22-.53.22s-.38-.07-.53-.22a.754.754 0 0 1 0-1.06l1-1c.29-.29.77-.29 1.06 0 .29.29.29.77 0 1.06Zm4 8.94c.29.29.29.77 0 1.06l-1 1c-.15.15-.34.22-.53.22s-.38-.07-.53-.22a.754.754 0 0 1 0-1.06l1-1c.29-.29.77-.29 1.06 0Zm7-2c.29.29.29.77 0 1.06-.15.15-.34.22-.53.22s-.38-.07-.53-.22l-1-1a.754.754 0 0 1 0-1.06c.29-.29.77-.29 1.06 0l1 1Zm-6.06-9.94a.754.754 0 0 1 0-1.06c.29-.29.77-.29 1.06 0l1 1c.29.29.29.77 0 1.06-.15.15-.34.22-.53.22s-.38-.07-.53-.22l-1-1Z"/></svg>