<svg xmlns="http://www.w3.org/2000/svg" width="24" height="24" fill="none"><path fill="currentColor" d="M11 19.75H5c-2.418 0-3.75-1.332-3.75-3.75V7c0-2.418 1.332-3.75 3.75-3.75h12c2.418 0 3.75 1.332 3.75 3.75v3a.75.75 0 0 1-1.5 0V7c0-1.577-.673-2.25-2.25-2.25H5c-1.577 0-2.25.673-2.25 2.25v9c0 1.577.673 2.25 2.25 2.25h6a.75.75 0 0 1 0 1.5Zm1.03-7.571 4.91-3.572a.75.75 0 1 0-.882-1.213l-4.912 3.572a.248.248 0 0 1-.293 0L5.941 7.394a.75.75 0 0 0-.883 1.213L9.97 12.18a1.747 1.747 0 0 0 2.06-.001ZM22.75 17A4.756 4.756 0 0 0 18 12.25 4.756 4.756 0 0 0 13.25 17 4.756 4.756 0 0 0 18 21.75 4.756 4.756 0 0 0 22.75 17Zm-1.5 0A3.254 3.254 0 0 1 18 20.25 3.254 3.254 0 0 1 14.75 17 3.254 3.254 0 0 1 18 13.75 3.254 3.254 0 0 1 21.25 17Zm-3.137 1.364 1.667-1.667a.75.75 0 1 0-1.061-1.061l-1.137 1.136-.303-.303a.75.75 0 0 0-1.061 1.061l.833.833a.749.749 0 0 0 1.062.001Z"/></svg>