<svg xmlns="http://www.w3.org/2000/svg" width="24" height="24" fill="none"><path fill="currentColor" d="M12 19.75H5c-2.418 0-3.75-1.332-3.75-3.75V7c0-2.418 1.332-3.75 3.75-3.75h12c2.418 0 3.75 1.332 3.75 3.75v4a.75.75 0 0 1-1.5 0V7c0-1.577-.673-2.25-2.25-2.25H5c-1.577 0-2.25.673-2.25 2.25v9c0 1.577.673 2.25 2.25 2.25h7a.75.75 0 0 1 0 1.5Zm.03-7.571 4.91-3.572a.75.75 0 1 0-.882-1.213l-4.912 3.572a.248.248 0 0 1-.293 0L5.941 7.394a.75.75 0 0 0-.883 1.213L9.97 12.18a1.747 1.747 0 0 0 2.06-.001Zm9.051 9.342c.356-.262.53-.695.454-1.129l-.253-1.449 1.117-1.066c.315-.301.43-.746.296-1.16a1.129 1.129 0 0 0-.924-.777l-1.56-.222-.668-1.328c-.199-.395-.6-.64-1.044-.64-.444 0-.845.245-1.044.64l-.67 1.328-1.558.222c-.437.062-.79.36-.924.777-.134.415-.02.859.296 1.16l1.117 1.066-.253 1.448a1.15 1.15 0 0 0 .454 1.13c.361.265.834.304 1.23.098l1.351-.694 1.351.695a1.166 1.166 0 0 0 1.232-.099Zm-3.104-2.014-.917.471.171-.975a1.131 1.131 0 0 0-.334-1.009l-.708-.676.994-.142c.368-.052.688-.28.858-.614l.459-.911.46.914c.17.33.489.558.857.61l.994.142-.709.677a1.131 1.131 0 0 0-.332 1.01l.17.974-.916-.471a1.153 1.153 0 0 0-1.047 0Zm2.322-3.619h.01-.01Zm-2.094-.821v-.001.001Z"/></svg>