<svg xmlns="http://www.w3.org/2000/svg" width="24" height="24" fill="none"><path fill="currentColor" d="M17.625 2.25H6.375c-2.66 0-4.125 1.465-4.125 4.125v11.25c0 2.66 1.465 4.125 4.125 4.125h11.25c2.66 0 4.125-1.465 4.125-4.125V6.375c0-2.66-1.465-4.125-4.125-4.125Zm2.625 15.375c0 1.84-.785 2.625-2.625 2.625H6.375c-1.84 0-2.625-.785-2.625-2.625V6.375c0-1.84.785-2.625 2.625-2.625h11.25c1.84 0 2.625.785 2.625 2.625v11.25Zm-3.535-5.16c-.003-.01 0-.018-.004-.028-.005-.014-.016-.024-.022-.038-.011-.029-.018-.059-.033-.086l-3.521-6.392a1.3 1.3 0 0 0-2.274 0L7.34 12.313c-.015.027-.021.058-.033.086-.006.014-.017.024-.022.038-.003.01-.001.019-.004.029a.757.757 0 0 0-.032.258c.001.014.006.027.008.041a.758.758 0 0 0 .092.275c.012.021.018.043.032.063l3.551 5.09a1.294 1.294 0 0 0 2.127.001l3.552-5.091c.014-.02.02-.042.032-.063a.758.758 0 0 0 .092-.275c.002-.014.007-.027.008-.041a.648.648 0 0 0-.028-.258ZM12 6.968l2.909 5.281-2.909.969-2.909-.969L12 6.967Zm0 10.131-2.09-2.996 1.853.617a.74.74 0 0 0 .474 0l1.853-.617L12 17.098Z"/></svg>