<svg xmlns="http://www.w3.org/2000/svg" width="24" height="24" fill="none"><path fill="currentColor" d="M12 1.25C6.072 1.25 1.25 6.072 1.25 12S6.072 22.75 12 22.75 22.75 17.928 22.75 12 17.928 1.25 12 1.25Zm0 20c-5.101 0-9.25-4.149-9.25-9.25S6.899 2.75 12 2.75s9.25 4.149 9.25 9.25-4.149 9.25-9.25 9.25Zm1.25-13c.488 0 .959.093 1.401.275a.75.75 0 1 0 .573-1.387 5.146 5.146 0 0 0-1.974-.389c-2.232 0-4.131 1.406-4.889 3.375H7.062a.75.75 0 0 0 0 1.5h.975c-.009.126-.038.247-.038.375s.029.249.038.375h-.975a.75.75 0 0 0 0 1.5h1.299c.758 1.969 2.656 3.375 4.889 3.375a5.26 5.26 0 0 0 1.967-.38.75.75 0 1 0-.56-1.392 3.749 3.749 0 0 1-1.408.272c-1.382 0-2.578-.76-3.228-1.875h2.666a.75.75 0 0 0 0-1.5h-3.15c-.013-.125-.038-.247-.038-.375s.025-.25.038-.375h3.15a.75.75 0 0 0 0-1.5h-2.666c.651-1.114 1.847-1.874 3.229-1.874Z"/></svg>