<svg xmlns="http://www.w3.org/2000/svg" width="24" height="24" fill="none"><path fill="currentColor" d="M17.625 2.25H6.375c-2.66 0-4.125 1.465-4.125 4.125v11.25c0 2.66 1.465 4.125 4.125 4.125h11.25c2.66 0 4.125-1.465 4.125-4.125V6.375c0-2.66-1.465-4.125-4.125-4.125Zm2.625 15.375c0 1.84-.785 2.625-2.625 2.625H6.375c-1.84 0-2.625-.785-2.625-2.625V6.375c0-1.84.785-2.625 2.625-2.625h11.25c1.84 0 2.625.785 2.625 2.625v11.25Zm-9.728-7.5h2.666a.75.75 0 0 1 0 1.5h-3.15c-.013.125-.038.247-.038.375s.025.25.038.375h3.15a.75.75 0 0 1 0 1.5h-2.666c.651 1.115 1.847 1.875 3.228 1.875.485 0 .958-.091 1.408-.272a.749.749 0 1 1 .56 1.392 5.26 5.26 0 0 1-1.967.38c-2.232 0-4.131-1.406-4.889-3.375H7.563a.75.75 0 0 1 0-1.5h.975c-.009-.126-.038-.247-.038-.375s.029-.249.038-.375h-.975a.75.75 0 0 1 0-1.5h1.299c.758-1.969 2.656-3.375 4.889-3.375.686 0 1.35.131 1.974.389a.75.75 0 0 1-.573 1.387 3.641 3.641 0 0 0-1.401-.275c-1.383-.001-2.579.759-3.229 1.874Z"/></svg>