<svg xmlns="http://www.w3.org/2000/svg" width="24" height="24" fill="none"><path fill="currentColor" d="M16.52 14.46c.29.29.29.77 0 1.06l-.57.57c-.42.42-.99.66-1.59.66H8.98c-.41 0-.75-.34-.75-.75s.34-.75.75-.75h5.38c.2 0 .39-.08.53-.22l.57-.57c.29-.29.77-.29 1.06 0ZM22.75 12c0 5.93-4.82 10.75-10.75 10.75S1.25 17.93 1.25 12 6.07 1.25 12 1.25 22.75 6.07 22.75 12Zm-1.5 0c0-5.1-4.15-9.25-9.25-9.25S2.75 6.9 2.75 12 6.9 21.25 12 21.25s9.25-4.15 9.25-9.25ZM16.5 9.25H14c-.41 0-.75.34-.75.75s.34.75.75.75h1.27c0 .08-.02.16-.02.25 0 1.01.53 1.75 1.25 1.75s1.25-.74 1.25-1.75-.53-1.75-1.25-1.75ZM8.25 11c0 1.01.53 1.75 1.25 1.75s1.25-.74 1.25-1.75-.53-1.75-1.25-1.75H7c-.41 0-.75.34-.75.75s.34.75.75.75h1.27c0 .08-.02.16-.02.25Z"/></svg>