<svg xmlns="http://www.w3.org/2000/svg" width="24" height="24" fill="none"><path fill="currentColor" d="M12 22.75C6.07 22.75 1.25 17.93 1.25 12S6.07 1.25 12 1.25 22.75 6.07 22.75 12 17.93 22.75 12 22.75Zm0-20C6.9 2.75 2.75 6.9 2.75 12S6.9 21.25 12 21.25s9.25-4.15 9.25-9.25S17.1 2.75 12 2.75ZM16.25 10c0-1.01-.53-1.75-1.25-1.75s-1.25.74-1.25 1.75.53 1.75 1.25 1.75 1.25-.74 1.25-1.75Zm-6 0c0-1.01-.53-1.75-1.25-1.75S7.75 8.99 7.75 10s.53 1.75 1.25 1.75 1.25-.74 1.25-1.75Zm6.2 7.6c.33-.25.4-.72.15-1.05a5.774 5.774 0 0 0-4.59-2.3c-1.79 0-3.49.84-4.6 2.3a.749.749 0 1 0 1.19.91c.82-1.08 2.06-1.7 3.4-1.7 1.34 0 2.59.64 3.39 1.7.15.2.37.3.6.3.16 0 .31-.05.45-.15l.01-.01Z"/></svg>