<svg xmlns="http://www.w3.org/2000/svg" width="24" height="24" fill="none"><path fill="currentColor" d="M12 1.25C6.07 1.25 1.25 6.07 1.25 12S6.07 22.75 12 22.75 22.75 17.93 22.75 12 17.93 1.25 12 1.25Zm0 20c-5.1 0-9.25-4.15-9.25-9.25S6.9 2.75 12 2.75 21.25 6.9 21.25 12 17.1 21.25 12 21.25ZM13.75 10c0-1.01.53-1.75 1.25-1.75s1.25.74 1.25 1.75-.53 1.75-1.25 1.75-1.25-.74-1.25-1.75Zm-6 0c0-1.01.53-1.75 1.25-1.75s1.25.74 1.25 1.75-.53 1.75-1.25 1.75-1.25-.74-1.25-1.75Zm8.85 6.55a.75.75 0 0 1-1.2.9c-.63-.83-1.53-1.4-2.54-1.6a.75.75 0 1 1 .29-1.47c1.38.27 2.61 1.04 3.46 2.18l-.01-.01Zm-8.14-3.57c-.27.28-1.61 1.76-1.61 3.06 0 1.23.94 2.2 2.15 2.2s2.15-.97 2.15-2.2c0-1.31-1.34-2.78-1.61-3.06-.28-.3-.8-.3-1.09 0h.01ZM9 16.75c-.38 0-.65-.29-.65-.7 0-.34.3-.89.65-1.37.35.48.65 1.02.65 1.37 0 .41-.27.7-.65.7Z"/></svg>