<svg xmlns="http://www.w3.org/2000/svg" width="24" height="24" fill="none"><path fill="currentColor" d="M15 10.75c-.72 0-1.25-.74-1.25-1.75s.53-1.75 1.25-1.75 1.25.74 1.25 1.75-.53 1.75-1.25 1.75ZM10.25 9c0-1.01-.53-1.75-1.25-1.75S7.75 7.99 7.75 9s.53 1.75 1.25 1.75 1.25-.74 1.25-1.75Zm12.5 3c0-5.93-4.82-10.75-10.75-10.75S1.25 6.07 1.25 12 6.07 22.75 12 22.75 22.75 17.93 22.75 12Zm-1.5 0c0 5.1-4.15 9.25-9.25 9.25S2.75 17.1 2.75 12 6.9 2.75 12 2.75 21.25 6.9 21.25 12Zm-4.55 2.7c.05-.37-.05-.73-.29-1.01a1.26 1.26 0 0 0-.94-.43H8.55a1.245 1.245 0 0 0-1.23 1.44c.34 2.31 2.36 4.05 4.7 4.05 2.34 0 4.36-1.74 4.7-4.05h-.02Zm-1.54.05a3.265 3.265 0 0 1-3.16 2.5c-1.51 0-2.82-1.06-3.16-2.5h6.33-.01Z"/></svg>