<svg xmlns="http://www.w3.org/2000/svg" width="24" height="24" fill="none"><path fill="currentColor" d="M12 1.25C6.07 1.25 1.25 6.07 1.25 12S6.07 22.75 12 22.75 22.75 17.93 22.75 12 17.93 1.25 12 1.25Zm0 20c-5.1 0-9.25-4.15-9.25-9.25S6.9 2.75 12 2.75 21.25 6.9 21.25 12 17.1 21.25 12 21.25Zm-3-8.5c-.72 0-1.25-.74-1.25-1.75 0-.27.04-.51.11-.73l-1.19-.6a.763.763 0 0 1-.34-1.01c.19-.37.64-.52 1.01-.34l1.9.95c.15.03.28.11.4.2l1.2.6c.37.19.52.64.34 1.01-.13.26-.4.41-.67.41a.77.77 0 0 1-.29-.07c-.13.78-.6 1.32-1.21 1.32l-.01.01Zm5.6 2.8a.75.75 0 0 1-1.2.9c-.67-.88-2.12-.89-2.8 0a.749.749 0 1 1-1.19-.91c.63-.82 1.57-1.3 2.6-1.3s1.98.49 2.59 1.3v.01Zm3.07-6.88c.19.37.04.82-.34 1.01l-1.19.6c.07.22.11.47.11.73 0 1.01-.53 1.75-1.25 1.75-.62 0-1.08-.53-1.21-1.32-.09.04-.19.07-.29.07-.28 0-.54-.15-.67-.41a.745.745 0 0 1 .34-1.01l1.2-.6c.12-.09.25-.16.4-.2l1.9-.95c.37-.19.82-.03 1.01.34l-.01-.01Z"/></svg>