<svg xmlns="http://www.w3.org/2000/svg" width="24" height="24" fill="none"><path fill="currentColor" d="M12 22.75C6.07 22.75 1.25 17.93 1.25 12S6.07 1.25 12 1.25 22.75 6.07 22.75 12 17.93 22.75 12 22.75Zm0-20C6.9 2.75 2.75 6.9 2.75 12S6.9 21.25 12 21.25s9.25-4.15 9.25-9.25S17.1 2.75 12 2.75ZM15.75 16c0-.41-.34-.75-.75-.75H9c-.41 0-.75.34-.75.75s.34.75.75.75h6c.41 0 .75-.34.75-.75Zm1-6c0-.41-.34-.75-.75-.75h-2c-.41 0-.75.34-.75.75s.34.75.75.75h2c.41 0 .75-.34.75-.75Zm-6 0c0-.41-.34-.75-.75-.75H8c-.41 0-.75.34-.75.75s.34.75.75.75h2c.41 0 .75-.34.75-.75Z"/></svg>