<svg xmlns="http://www.w3.org/2000/svg" width="24" height="24" fill="none"><path fill="currentColor" d="M12 22.75C6.07 22.75 1.25 17.93 1.25 12S6.07 1.25 12 1.25 22.75 6.07 22.75 12 17.93 22.75 12 22.75Zm0-20C6.9 2.75 2.75 6.9 2.75 12S6.9 21.25 12 21.25s9.25-4.15 9.25-9.25S17.1 2.75 12 2.75Zm0 16c-2.34 0-4.36-1.74-4.7-4.05-.05-.37.05-.73.29-1.01.24-.27.58-.43.94-.43h6.92a1.244 1.244 0 0 1 1.24 1.44c-.34 2.31-2.36 4.05-4.7 4.05H12Zm-3.16-4c.34 1.44 1.65 2.5 3.16 2.5 1.51 0 2.82-1.06 3.16-2.5H8.83h.01Zm8.27-4.54c.39-.14.6-.56.46-.95-.31-.9-1.16-1.51-2.12-1.51-.96 0-1.81.6-2.12 1.51-.13.39.07.82.46.95.4.14.82-.07.95-.46a.747.747 0 0 1 1.4 0 .76.76 0 0 0 .96.47l.01-.01Zm-6.82 0c.39-.14.6-.56.46-.95-.31-.9-1.16-1.51-2.12-1.51-.96 0-1.81.6-2.12 1.51-.13.39.07.82.46.95.4.14.82-.07.95-.46a.747.747 0 0 1 1.4 0 .76.76 0 0 0 .96.47l.01-.01Z"/></svg>