<svg xmlns="http://www.w3.org/2000/svg" width="24" height="24" fill="none"><path fill="currentColor" d="M22.75 12c0-5.93-4.82-10.75-10.75-10.75S1.25 6.07 1.25 12c0 3.77 1.96 7.09 4.91 9.01.02.02.05.03.07.04a10.67 10.67 0 0 0 5.77 1.7c2.12 0 3.99-.6 5.63-1.61h.01c3.06-1.9 5.11-5.28 5.11-9.13V12Zm-4.47 6.77.4-4.01c.01-.15 0-.3-.02-.45l2.57-1.84a9.195 9.195 0 0 1-2.95 6.3ZM12 2.75c4.65 0 8.5 3.46 9.15 7.93l-3.35 2.4s-.05-.04-.08-.06l-4.49-2.24c-.77-.38-1.69-.38-2.46 0l-4.49 2.25s-.05.04-.08.06L2.86 10.7c.64-4.48 4.49-7.93 9.15-7.93L12 2.75Zm-9.23 9.72 2.57 1.84c-.02.15-.04.3-.02.45l.4 4.01a9.258 9.258 0 0 1-2.95-6.3Zm4.57 7.51-.53-5.36c0-.05 0-.11.03-.15a.24.24 0 0 1 .1-.1l4.49-2.24c.35-.17.77-.17 1.12 0l4.48 2.24s.09.06.11.11c.02.04.04.1.03.15L16.64 20c-1.37.8-2.96 1.27-4.65 1.27-1.69 0-3.28-.47-4.65-1.27v-.02Zm6.4-1.98c0 .41-.34.75-.75.75h-2c-.41 0-.75-.34-.75-.75s.34-.75.75-.75h2c.41 0 .75.34.75.75Zm-.46-9.24c.31-.9 1.16-1.51 2.12-1.51.96 0 1.81.6 2.12 1.51a.748.748 0 0 1-.71.99c-.31 0-.6-.19-.71-.51a.747.747 0 0 0-.7-.49c-.31 0-.6.2-.7.49a.74.74 0 0 1-.95.46.744.744 0 0 1-.46-.95l-.01.01Zm-6.82 0c.31-.9 1.16-1.51 2.12-1.51.96 0 1.81.6 2.12 1.51a.748.748 0 0 1-.71.99c-.31 0-.6-.19-.71-.51a.747.747 0 0 0-.7-.49c-.31 0-.6.2-.7.49a.74.74 0 0 1-.95.46.744.744 0 0 1-.46-.95l-.01.01Z"/></svg>