<svg xmlns="http://www.w3.org/2000/svg" width="24" height="24" fill="none"><path fill="currentColor" d="M17.25 12a.75.75 0 0 0 1.5 0V9a.747.747 0 0 0-.22-.53l-6-6a.749.749 0 0 0-.53-.22H6C3.582 2.25 2.25 3.582 2.25 6v12c0 2.418 1.332 3.75 3.75 3.75h7a.75.75 0 0 0 0-1.5H6c-1.577 0-2.25-.673-2.25-2.25V6c0-1.577.673-2.25 2.25-2.25h5.25V6c0 2.418 1.332 3.75 3.75 3.75h2.25V12Zm-4.5-6V4.811l3.439 3.439H15c-1.577 0-2.25-.673-2.25-2.25Zm-5 6a.75.75 0 1 1-1.5 0 .75.75 0 0 1 1.5 0Zm0 4a.75.75 0 1 1-1.5 0 .75.75 0 0 1 1.5 0Zm7-4a.75.75 0 0 1-.75.75H9.5a.75.75 0 0 1 0-1.5H14a.75.75 0 0 1 .75.75ZM11 15.25a.75.75 0 0 1 0 1.5H9.5a.75.75 0 0 1 0-1.5H11Zm9.75 2.167v-.927c0-1.241-1.01-2.25-2.25-2.25a2.253 2.253 0 0 0-2.25 2.25v.927c-.629.278-1 .873-1 1.698v1.75c0 1.156.719 1.875 1.875 1.875h2.75c1.156 0 1.875-.719 1.875-1.875v-1.75c0-.825-.371-1.421-1-1.698ZM18.5 15.74a.75.75 0 0 1 .75.75v.75h-1.5v-.75a.75.75 0 0 1 .75-.75Zm1.75 5.125c0 .336-.038.375-.375.375h-2.75c-.337 0-.375-.039-.375-.375v-1.75c0-.279.037-.35.239-.367l.011.002c.007 0 .013-.004.021-.004.034-.002.061-.006.104-.006h2.75c.044 0 .07.004.104.006.007 0 .013.004.021.004l.011-.002c.202.017.239.088.239.367v1.75Z"/></svg>