<svg xmlns="http://www.w3.org/2000/svg" width="24" height="24" fill="none"><path fill="currentColor" d="m20.53 8.47-6-6a.749.749 0 0 0-.53-.22H8C5.582 2.25 4.25 3.582 4.25 6v12c0 2.418 1.332 3.75 3.75 3.75h9c2.418 0 3.75-1.332 3.75-3.75V9a.747.747 0 0 0-.22-.53Zm-5.78-3.659 3.439 3.439H17c-1.577 0-2.25-.673-2.25-2.25V4.811ZM17 20.25H8c-1.577 0-2.25-.673-2.25-2.25V6c0-1.577.673-2.25 2.25-2.25h5.25V6c0 2.418 1.332 3.75 3.75 3.75h2.25V18c0 1.577-.673 2.25-2.25 2.25Zm-1.312-8.86c-1.498-.388-2.195-.72-2.835-1.055a.753.753 0 0 0-.69-.002c-.646.333-1.353.668-2.874 1.114a.751.751 0 0 0-.539.72v1.944c0 2.496 1.81 4.012 3.505 4.598a.76.76 0 0 0 .49 0c1.694-.586 3.505-2.102 3.505-4.598v-1.995a.75.75 0 0 0-.562-.726Zm-.938 2.721c0 1.913-1.563 2.791-2.25 3.084-.687-.293-2.25-1.171-2.25-3.084v-1.388a15.102 15.102 0 0 0 2.254-.883c.62.305 1.28.572 2.246.849v1.422Z"/></svg>