<svg xmlns="http://www.w3.org/2000/svg" width="24" height="24" fill="none"><path fill="currentColor" d="M21.09 15.676c-.492-.602-1.197-.922-2.039-.926h-.013a2.25 2.25 0 0 0-1.538.588 2.244 2.244 0 0 0-1.538-.588h-.013c-.84.004-1.545.324-2.038.926-.582.712-.795 1.741-.58 2.823.524 2.663 3.727 4.124 3.862 4.185a.746.746 0 0 0 .614 0c.136-.061 3.338-1.521 3.862-4.185.214-1.082.003-2.111-.579-2.823Zm-.892 2.533c-.297 1.504-1.993 2.567-2.698 2.95-.705-.383-2.401-1.446-2.698-2.949-.125-.632-.023-1.224.271-1.583.206-.251.495-.375.885-.376h.004c.579 0 .808.576.829.633.102.301.384.5.702.505h.01a.757.757 0 0 0 .705-.496c.024-.066.253-.642.832-.642h.004c.39.002.68.125.886.376.292.358.392.95.268 1.582ZM11 20.25H6c-1.577 0-2.25-.673-2.25-2.25V6c0-1.577.673-2.25 2.25-2.25h5.25V6c0 2.418 1.332 3.75 3.75 3.75h2.25V12a.75.75 0 0 0 1.5 0V9a.747.747 0 0 0-.22-.53l-6-6a.749.749 0 0 0-.53-.22H6C3.582 2.25 2.25 3.582 2.25 6v12c0 2.418 1.332 3.75 3.75 3.75h5a.75.75 0 0 0 0-1.5ZM12.75 6V4.811l3.439 3.439H15c-1.577 0-2.25-.673-2.25-2.25ZM14 11.25a.75.75 0 0 1 0 1.5H7a.75.75 0 0 1 0-1.5h7ZM11.75 16a.75.75 0 0 1-.75.75H7a.75.75 0 0 1 0-1.5h4a.75.75 0 0 1 .75.75Z"/></svg>