<svg xmlns="http://www.w3.org/2000/svg" width="24" height="24" fill="none"><path fill="currentColor" d="M7.75 12a.75.75 0 1 1-1.5 0 .75.75 0 0 1 1.5 0ZM7 15.25a.75.75 0 1 0 0 1.5.75.75 0 0 0 0-1.5ZM14.75 12a.75.75 0 0 0-.75-.75H9.5a.75.75 0 0 0 0 1.5H14a.75.75 0 0 0 .75-.75ZM11 16.75a.75.75 0 0 0 0-1.5H9.5a.75.75 0 0 0 0 1.5H11Zm10.75-.634v1.995c0 2.497-1.81 4.012-3.505 4.598a.733.733 0 0 1-.49 0c-1.694-.586-3.505-2.101-3.505-4.598v-1.944a.75.75 0 0 1 .54-.72c1.52-.446 2.227-.781 2.873-1.114a.75.75 0 0 1 .69.002c.64.334 1.337.667 2.835 1.055a.75.75 0 0 1 .562.726Zm-1.5.573a12.716 12.716 0 0 1-2.246-.849c-.63.308-1.276.576-2.254.883v1.388c0 1.913 1.563 2.791 2.25 3.085.687-.293 2.25-1.172 2.25-3.085v-1.422ZM13.75 21a.75.75 0 0 1-.75.75H6c-2.418 0-3.75-1.332-3.75-3.75V6c0-2.418 1.332-3.75 3.75-3.75h6c.199 0 .39.079.53.22l6 6c.141.141.22.331.22.53v3a.75.75 0 0 1-1.5 0V9.75H15c-2.418 0-3.75-1.332-3.75-3.75V3.75H6c-1.577 0-2.25.673-2.25 2.25v12c0 1.577.673 2.25 2.25 2.25h7a.75.75 0 0 1 .75.75ZM15 8.25h1.189L12.75 4.811V6c0 1.577.673 2.25 2.25 2.25Z"/></svg>