<svg xmlns="http://www.w3.org/2000/svg" width="24" height="24" fill="none"><path fill="currentColor" d="M14 21.75a.753.753 0 0 1-.45-.15l-4-3a.753.753 0 0 1-.3-.6v-4c0-.2-.078-.389-.22-.531L3.91 8.348a2.237 2.237 0 0 1-.66-1.591V4.5c0-1.241 1.01-2.25 2.25-2.25h13c1.24 0 2.25 1.009 2.25 2.25v2.257c0 .601-.234 1.166-.66 1.591l-5.12 5.121a.745.745 0 0 0-.22.531v7a.749.749 0 0 1-.75.75Zm-3.25-4.125 2.5 1.875V14c0-.601.234-1.166.66-1.591l5.12-5.121a.745.745 0 0 0 .22-.531V4.5a.75.75 0 0 0-.75-.75h-13a.75.75 0 0 0-.75.75v2.257c0 .2.078.389.22.531l5.12 5.121c.426.426.66.99.66 1.591v3.625Z"/></svg>