<svg xmlns="http://www.w3.org/2000/svg" width="24" height="24" fill="none"><path fill="currentColor" d="M21 8.75a.75.75 0 0 1-.75-.75V4.5c0-.589-.161-.75-.75-.75H16a.75.75 0 0 1 0-1.5h3.5c1.409 0 2.25.841 2.25 2.25V8a.75.75 0 0 1-.75.75Zm-18 0A.75.75 0 0 1 2.25 8V4.5c0-1.409.841-2.25 2.25-2.25H8a.75.75 0 0 1 0 1.5H4.5c-.589 0-.75.161-.75.75V8a.75.75 0 0 1-.75.75Zm5 13H4.5c-1.409 0-2.25-.841-2.25-2.25V16a.75.75 0 0 1 1.5 0v3.5c0 .589.161.75.75.75H8a.75.75 0 0 1 0 1.5Zm11.5 0H16a.75.75 0 0 1 0-1.5h3.5c.589 0 .75-.161.75-.75V16a.75.75 0 0 1 1.5 0v3.5c0 1.409-.841 2.25-2.25 2.25Zm-2.58-3.51c.744-1.063.83-2.34.83-3.208v-4.168c0-1.18-.358-2.303-1.038-3.246a.75.75 0 0 0-1.217.877c.494.686.755 1.505.755 2.369v4.168c0 1.072-.173 1.796-.56 2.35a.75.75 0 1 0 1.23.858Zm-9.17-4.295v-3.082c0-2.412 2.123-4.387 4.544-4.091a.758.758 0 0 0 .834-.655.749.749 0 0 0-.654-.834 5.62 5.62 0 0 0-6.223 5.58v3.082a.75.75 0 0 0 1.499 0Zm6.831-2.793a2.621 2.621 0 0 0-2.618-2.618 2.621 2.621 0 0 0-2.618 2.618v2.798c0 .38-.185 1.04-.485 1.43-.25.33-.19.8.14 1.05a.739.739 0 0 0 1.05-.14c.55-.71.795-1.71.795-2.34v-2.798a1.12 1.12 0 0 1 1.118-1.118 1.12 1.12 0 0 1 1.118 1.118v3.358c0 1.05-.131 2.13-1.051 2.92-.31.27-.35.74-.08 1.06.15.17.36.26.57.26.17 0 .35-.06.49-.18 1.39-1.19 1.57-2.8 1.57-4.06l.001-3.358Z"/></svg>