<svg xmlns="http://www.w3.org/2000/svg" width="24" height="24" fill="none"><path fill="currentColor" d="M6.25 3.75v2.422c0 .256.037.508.063.762-.002.023-.013.043-.013.066 0 .056.02.106.032.158a7.613 7.613 0 0 0 1.477 3.618c.284.37.441.842.441 1.325V19.5c0 1.24 1.009 2.25 2.25 2.25h3c1.241 0 2.25-1.01 2.25-2.25v-7.398c0-.483.157-.954.44-1.325a7.613 7.613 0 0 0 1.478-3.618c.012-.053.032-.102.032-.158 0-.023-.011-.043-.013-.066.026-.254.063-.506.063-.762V3.75c0-.827-.673-1.5-1.5-1.5h-8.5c-.827 0-1.5.673-1.5 1.5Zm8 8.352V19.5a.75.75 0 0 1-.75.75h-3a.75.75 0 0 1-.75-.75v-7.398c0-.81-.266-1.604-.75-2.237a6.08 6.08 0 0 1-1.021-2.114h8.041a6.071 6.071 0 0 1-1.021 2.114 3.7 3.7 0 0 0-.749 2.237Zm2-8.352v2.422c0 .026-.006.052-.006.078H7.757c0-.026-.006-.052-.006-.078V3.75h8.499Zm-8.5 0V3v.75Zm4.25 8.5a.75.75 0 0 1 .75.75v2a.75.75 0 0 1-1.5 0v-2a.75.75 0 0 1 .75-.75Z"/></svg>