<svg xmlns="http://www.w3.org/2000/svg" width="24" height="24" fill="none"><path fill="currentColor" d="M15.52 10c0 .55-.45 1-1 1s-1-.45-1-1 .44-1 .99-1h.01c.55 0 1 .45 1 1Zm6.01-1.47-2.5 2.5c-.29.29-.77.29-1.06 0l-.22-.22V20c0 .41-.34.75-.75.75H7c-.41 0-.75-.34-.75-.75v-9.19l-.22.22c-.29.29-.77.29-1.06 0l-2.5-2.5a.754.754 0 0 1 0-1.06l3.41-3.41c.52-.52 1.21-.81 1.94-.81h1.19c.62 0 1.16.44 1.26 1.03.14.85.86 1.47 1.73 1.47s1.59-.62 1.73-1.47c.1-.59.64-1.03 1.26-1.03h1.19c.73 0 1.43.29 1.94.81l3.41 3.41c.29.29.29.77 0 1.06Zm-5.28 5.22h-8.5v1.5h8.5v-1.5Zm0 5.5v-2.5h-8.5v2.5h8.5ZM19.94 8l-2.88-2.88c-.24-.24-.55-.37-.88-.37h-1.01a3.235 3.235 0 0 1-3.16 2.5c-1.52 0-2.82-1.04-3.16-2.5H7.84c-.33 0-.65.13-.88.37L4.08 8l1.44 1.44.97-.97A.751.751 0 0 1 7.77 9v3.25h8.5V9c0-.3.18-.58.46-.69.28-.12.6-.05.82.16l.97.97L19.96 8h-.02Z"/></svg>