<svg xmlns="http://www.w3.org/2000/svg" width="24" height="24" fill="none"><path fill="currentColor" d="M11.75 3v4c0 2.09-1.51 3.82-3.5 4.17V21c0 .41-.34.75-.75.75s-.75-.34-.75-.75v-9.83c-1.99-.36-3.5-2.09-3.5-4.17V3c0-.41.34-.75.75-.75s.75.34.75.75v4c0 1.52 1.23 2.75 2.75 2.75S10.25 8.52 10.25 7V3c0-.41.34-.75.75-.75s.75.34.75.75ZM8.5 8.25c.41 0 .75-.34.75-.75V3c0-.41-.34-.75-.75-.75s-.75.34-.75.75v4.5c0 .41.34.75.75.75Zm-2 0c.41 0 .75-.34.75-.75V3c0-.41-.34-.75-.75-.75s-.75.34-.75.75v4.5c0 .41.34.75.75.75Zm13.4 2.37c-.37.41-1 .88-2.04 1.06V21c0 .41-.34.75-.75.75s-.75-.34-.75-.75v-9.29c-1.17-.14-1.86-.65-2.25-1.09-.69-.78-.97-1.88-.81-3.18l.25-2.05c.22-1.79 1.7-3.14 3.46-3.14s3.24 1.35 3.46 3.14l.25 2.05c.16 1.31-.12 2.41-.81 3.18h-.01Zm-.68-3-.25-2.05C18.84 4.53 18 3.75 17 3.75s-1.85.78-1.97 1.82l-.25 2.05c-.1.86.05 1.57.44 2.01.37.42.96.63 1.78.63.82 0 1.41-.21 1.78-.63.39-.44.55-1.15.44-2.01Z"/></svg>