<svg xmlns="http://www.w3.org/2000/svg" width="24" height="24" fill="none"><path fill="currentColor" d="m20.72 9.869-5.111-4.037a2.668 2.668 0 0 0-2.834-.31 2.69 2.69 0 0 0-1.524 2.44v1.535L6.609 5.831a2.668 2.668 0 0 0-2.834-.31 2.69 2.69 0 0 0-1.524 2.44v8.074c0 1.05.584 1.985 1.524 2.441a2.67 2.67 0 0 0 2.834-.311l4.642-3.666v1.535c0 1.05.584 1.985 1.524 2.441a2.67 2.67 0 0 0 2.834-.311l5.111-4.037a2.7 2.7 0 0 0 1.03-2.131c0-.837-.376-1.61-1.03-2.127Zm-9.93 3.085-5.111 4.037a1.16 1.16 0 0 1-1.25.138 1.186 1.186 0 0 1-.679-1.091V7.965c0-.478.254-.885.679-1.091a1.19 1.19 0 0 1 .521-.122c.258 0 .512.088.729.259l5.111 4.036c.292.231.46.579.46.954s-.168.722-.46.953Zm9 0-5.111 4.037a1.16 1.16 0 0 1-1.25.138 1.186 1.186 0 0 1-.679-1.091V7.965c0-.478.254-.885.679-1.091a1.19 1.19 0 0 1 .521-.122c.258 0 .512.088.729.259l5.111 4.036c.292.231.46.579.46.954s-.168.722-.46.953Z"/></svg>