<svg xmlns="http://www.w3.org/2000/svg" width="24" height="24" fill="none"><path fill="currentColor" d="M19.5 6.25h-1.065c.194-.377.315-.798.315-1.25A2.753 2.753 0 0 0 16 2.25c-.822 0-1.595.366-2.126 1.011A1542.2 1542.2 0 0 0 12 5.751a997.435 997.435 0 0 0-1.881-2.498A2.734 2.734 0 0 0 8 2.25 2.753 2.753 0 0 0 5.25 5c0 .452.12.873.315 1.25H4.5A2.253 2.253 0 0 0 2.25 8.5V12c0 .414.336.75.75.75h.25V18c0 2.418 1.332 3.75 3.75 3.75h10c2.418 0 3.75-1.332 3.75-3.75v-5.25H21a.75.75 0 0 0 .75-.75V8.5c0-1.241-1.01-2.25-2.25-2.25Zm.75 2.25v2.75h-7.5v-3.5h6.75a.75.75 0 0 1 .75.75Zm-5.211-4.293c.242-.294.583-.457.961-.457.689 0 1.25.561 1.25 1.25S16.689 6.25 16 6.25h-2.498l1.537-2.043ZM6.75 5c0-.689.561-1.25 1.25-1.25.378 0 .719.162.948.441.055.071.873 1.159 1.55 2.059H8c-.689 0-1.25-.561-1.25-1.25Zm-3 3.5a.75.75 0 0 1 .75-.75h6.75v3.5h-7.5V8.5Zm1 9.5v-5.25h6.5v7.5H7c-1.577 0-2.25-.673-2.25-2.25Zm14.5 0c0 1.577-.673 2.25-2.25 2.25h-4.25v-7.5h6.5V18Z"/></svg>