<svg xmlns="http://www.w3.org/2000/svg" width="24" height="24" fill="none"><path fill="currentColor" d="M20.11 5.572a2.75 2.75 0 0 0-3.587-2.18l-.761.254a.75.75 0 0 0 .474 1.423l.761-.254a1.25 1.25 0 0 1 1.045.118c.314.19.527.51.605.964.496 1.716 1.104 4.091 1.408 6.811-.56-.294-1.24-.458-2.057-.458h-1c-2.251 0-3.546 1.167-3.716 3.278a3.242 3.242 0 0 0-1.284-.278c-.453 0-.884.106-1.284.278-.17-2.111-1.465-3.278-3.716-3.278h-1c-.816 0-1.497.164-2.056.458.305-2.726.918-5.12 1.428-6.902A1.253 1.253 0 0 1 7 4.814l.761.254a.75.75 0 0 0 .474-1.423l-.76-.254a2.745 2.745 0 0 0-2.299.259c-.692.421-1.162 1.121-1.269 1.83-.713 2.468-1.66 6.243-1.66 10.519v1c0 2.418 1.332 3.75 3.75 3.75h1c2.305 0 3.61-1.222 3.727-3.43.668-.703 1.878-.703 2.546 0 .118 2.208 1.422 3.43 3.727 3.43h1c2.418 0 3.75-1.332 3.75-3.75v-1c.003-4.275-.944-8.05-1.637-10.427ZM9.25 17c0 1.577-.673 2.25-2.25 2.25H6c-1.577 0-2.25-.673-2.25-2.25v-1c0-1.577.673-2.25 2.25-2.25h1c1.577 0 2.25.673 2.25 2.25v1Zm11 0c0 1.577-.673 2.25-2.25 2.25h-1c-1.577 0-2.25-.673-2.25-2.25v-1c0-1.577.673-2.25 2.25-2.25h1c1.577 0 2.25.673 2.25 2.25v1Z"/></svg>