<svg xmlns="http://www.w3.org/2000/svg" width="24" height="24" fill="none"><path fill="currentColor" d="M18.41 3.64c-.24-.25-.57-.39-.91-.39h-11c-.34 0-.67.14-.91.39s-.36.59-.34.93l.79 12.66c.13 2.1 1.72 3.51 3.95 3.51h4c2.23 0 3.82-1.41 3.95-3.52l.8-12.66c.02-.34-.1-.68-.34-.94l.01.02Zm-1.17 1.11-.23 3.73c-.64.19-2.17.46-4.82-.2-2.33-.58-4.16-.42-5.21-.22l-.21-3.3h10.47v-.01Zm-.78 12.39c-.06 1.02-.74 2.11-2.46 2.11h-4c-1.71 0-2.39-1.09-2.46-2.11l-.48-7.58c.81-.18 2.51-.4 4.75.16 1.41.35 2.55.47 3.46.47.66 0 1.2-.06 1.62-.15l-.45 7.09.02.01Z"/></svg>