<svg xmlns="http://www.w3.org/2000/svg" width="24" height="24" fill="none"><path fill="currentColor" d="M18.75 9c0-3.72-3.03-6.75-6.75-6.75S5.25 5.28 5.25 9c0 2.47 1.33 4.62 3.32 5.8-.31.47-.25 1.08.14 1.46l1.09 1.09.42 3.39c.07.58.57 1.01 1.14 1.01h1.3c.57 0 1.07-.43 1.14-1.01l.42-3.39 1.09-1.09c.39-.38.45-.99.14-1.45 1.98-1.19 3.32-3.34 3.32-5.81h-.02Zm-5.68 7.37c-.18.18-.3.42-.33.67l-.4 3.21h-.68l-.4-3.21c-.03-.25-.15-.49-.33-.67l-.91-.92c.63.19 1.29.3 1.98.3s1.35-.1 1.98-.3l-.91.92ZM12 14.25a5.25 5.25 0 1 1 0-10.5 5.25 5.25 0 1 1 0 10.5ZM10.25 10c0 .41-.34.75-.75.75-.96 0-1.75-.79-1.75-1.75 0-.41.34-.75.75-.75s.75.34.75.75c0 .14.11.25.25.25.41 0 .75.34.75.75Zm2.5 2.5c0 .41-.34.75-.75.75-.96 0-1.75-.79-1.75-1.75 0-.41.34-.75.75-.75s.75.34.75.75c0 .14.11.25.25.25.41 0 .75.34.75.75Zm.5-3c0 .41-.34.75-.75.75-.96 0-1.75-.79-1.75-1.75 0-.41.34-.75.75-.75s.75.34.75.75c0 .14.11.25.25.25.41 0 .75.34.75.75Z"/></svg>