<svg xmlns="http://www.w3.org/2000/svg" width="24" height="24" fill="none"><path fill="currentColor" d="M20.75 17a.75.75 0 0 1-.75.75h-2.25V20a.75.75 0 0 1-1.5 0v-2.25H14a.75.75 0 0 1 0-1.5h2.25V14a.75.75 0 0 1 1.5 0v2.25H20a.75.75 0 0 1 .75.75Zm0-11.5v3c0 1.409-.841 2.25-2.25 2.25h-3c-1.409 0-2.25-.841-2.25-2.25v-3c0-1.409.841-2.25 2.25-2.25h3c1.409 0 2.25.841 2.25 2.25Zm-1.5 0c0-.589-.161-.75-.75-.75h-3c-.589 0-.75.161-.75.75v3c0 .589.161.75.75.75h3c.589 0 .75-.161.75-.75v-3Zm-8.5 0v3c0 1.409-.841 2.25-2.25 2.25h-3c-1.409 0-2.25-.841-2.25-2.25v-3c0-1.409.841-2.25 2.25-2.25h3c1.409 0 2.25.841 2.25 2.25Zm-1.5 0c0-.589-.161-.75-.75-.75h-3c-.589 0-.75.161-.75.75v3c0 .589.161.75.75.75h3c.589 0 .75-.161.75-.75v-3Zm1.5 10v3c0 1.409-.841 2.25-2.25 2.25h-3c-1.409 0-2.25-.841-2.25-2.25v-3c0-1.409.841-2.25 2.25-2.25h3c1.409 0 2.25.841 2.25 2.25Zm-1.5 0c0-.589-.161-.75-.75-.75h-3c-.589 0-.75.161-.75.75v3c0 .589.161.75.75.75h3c.589 0 .75-.161.75-.75v-3Z"/></svg>