<svg xmlns="http://www.w3.org/2000/svg" width="24" height="24" fill="none"><path fill="currentColor" d="M5 7.75A2.752 2.752 0 0 1 2.25 5 2.752 2.752 0 0 1 5 2.25 2.752 2.752 0 0 1 7.75 5 2.752 2.752 0 0 1 5 7.75Zm0-4c-.689 0-1.25.561-1.25 1.25S4.311 6.25 5 6.25 6.25 5.689 6.25 5 5.689 3.75 5 3.75Zm7 4A2.752 2.752 0 0 1 9.25 5 2.752 2.752 0 0 1 12 2.25 2.752 2.752 0 0 1 14.75 5 2.752 2.752 0 0 1 12 7.75Zm0-4c-.689 0-1.25.561-1.25 1.25s.561 1.25 1.25 1.25 1.25-.561 1.25-1.25-.561-1.25-1.25-1.25Zm7 4A2.752 2.752 0 0 1 16.25 5 2.752 2.752 0 0 1 19 2.25 2.752 2.752 0 0 1 21.75 5 2.752 2.752 0 0 1 19 7.75Zm0-4c-.689 0-1.25.561-1.25 1.25s.561 1.25 1.25 1.25 1.25-.561 1.25-1.25-.561-1.25-1.25-1.25Zm-14 11A2.752 2.752 0 0 1 2.25 12 2.752 2.752 0 0 1 5 9.25 2.752 2.752 0 0 1 7.75 12 2.752 2.752 0 0 1 5 14.75Zm0-4c-.689 0-1.25.561-1.25 1.25s.561 1.25 1.25 1.25 1.25-.561 1.25-1.25-.561-1.25-1.25-1.25Zm7 4A2.752 2.752 0 0 1 9.25 12 2.752 2.752 0 0 1 12 9.25 2.752 2.752 0 0 1 14.75 12 2.752 2.752 0 0 1 12 14.75Zm0-4c-.689 0-1.25.561-1.25 1.25s.561 1.25 1.25 1.25 1.25-.561 1.25-1.25-.561-1.25-1.25-1.25Zm7 4A2.752 2.752 0 0 1 16.25 12 2.752 2.752 0 0 1 19 9.25 2.752 2.752 0 0 1 21.75 12 2.752 2.752 0 0 1 19 14.75Zm0-4c-.689 0-1.25.561-1.25 1.25s.561 1.25 1.25 1.25 1.25-.561 1.25-1.25-.561-1.25-1.25-1.25Zm-14 11A2.752 2.752 0 0 1 2.25 19 2.752 2.752 0 0 1 5 16.25 2.752 2.752 0 0 1 7.75 19 2.752 2.752 0 0 1 5 21.75Zm0-4c-.689 0-1.25.561-1.25 1.25s.561 1.25 1.25 1.25 1.25-.561 1.25-1.25-.561-1.25-1.25-1.25Zm7 4A2.752 2.752 0 0 1 9.25 19 2.752 2.752 0 0 1 12 16.25 2.752 2.752 0 0 1 14.75 19 2.752 2.752 0 0 1 12 21.75Zm0-4c-.689 0-1.25.561-1.25 1.25s.561 1.25 1.25 1.25 1.25-.561 1.25-1.25-.561-1.25-1.25-1.25Zm7 4A2.752 2.752 0 0 1 16.25 19 2.752 2.752 0 0 1 19 16.25 2.752 2.752 0 0 1 21.75 19 2.752 2.752 0 0 1 19 21.75Zm0-4c-.689 0-1.25.561-1.25 1.25s.561 1.25 1.25 1.25 1.25-.561 1.25-1.25-.561-1.25-1.25-1.25Z"/></svg>