<svg xmlns="http://www.w3.org/2000/svg" width="24" height="24" fill="none"><path fill="currentColor" d="M21 3.75H3a.75.75 0 0 1 0-1.5h18a.75.75 0 0 1 0 1.5ZM21.75 14a.75.75 0 0 0-.75-.75H3a.75.75 0 0 0 0 1.5h18a.75.75 0 0 0 .75-.75Zm-14-5.5v-1c0-1.409-.841-2.25-2.25-2.25h-1c-1.409 0-2.25.841-2.25 2.25v1c0 1.409.841 2.25 2.25 2.25h1c1.409 0 2.25-.841 2.25-2.25ZM5.5 6.75c.589 0 .75.161.75.75v1c0 .589-.161.75-.75.75h-1c-.589 0-.75-.161-.75-.75v-1c0-.589.161-.75.75-.75h1Zm9.25 1.75v-1c0-1.409-.841-2.25-2.25-2.25h-1c-1.409 0-2.25.841-2.25 2.25v1c0 1.409.841 2.25 2.25 2.25h1c1.409 0 2.25-.841 2.25-2.25ZM12.5 6.75c.589 0 .75.161.75.75v1c0 .589-.161.75-.75.75h-1c-.589 0-.75-.161-.75-.75v-1c0-.589.161-.75.75-.75h1Zm9.25 1.75v-1c0-1.409-.841-2.25-2.25-2.25h-1c-1.409 0-2.25.841-2.25 2.25v1c0 1.409.841 2.25 2.25 2.25h1c1.409 0 2.25-.841 2.25-2.25ZM19.5 6.75c.589 0 .75.161.75.75v1c0 .589-.161.75-.75.75h-1c-.589 0-.75-.161-.75-.75v-1c0-.589.161-.75.75-.75h1ZM7.75 19.5v-1c0-1.409-.841-2.25-2.25-2.25h-1c-1.409 0-2.25.841-2.25 2.25v1c0 1.409.841 2.25 2.25 2.25h1c1.409 0 2.25-.841 2.25-2.25ZM5.5 17.75c.589 0 .75.161.75.75v1c0 .589-.161.75-.75.75h-1c-.589 0-.75-.161-.75-.75v-1c0-.589.161-.75.75-.75h1Zm9.25 1.75v-1c0-1.409-.841-2.25-2.25-2.25h-1c-1.409 0-2.25.841-2.25 2.25v1c0 1.409.841 2.25 2.25 2.25h1c1.409 0 2.25-.841 2.25-2.25Zm-2.25-1.75c.589 0 .75.161.75.75v1c0 .589-.161.75-.75.75h-1c-.589 0-.75-.161-.75-.75v-1c0-.589.161-.75.75-.75h1Zm9.25 1.75v-1c0-1.409-.841-2.25-2.25-2.25h-1c-1.409 0-2.25.841-2.25 2.25v1c0 1.409.841 2.25 2.25 2.25h1c1.409 0 2.25-.841 2.25-2.25Zm-2.25-1.75c.589 0 .75.161.75.75v1c0 .589-.161.75-.75.75h-1c-.589 0-.75-.161-.75-.75v-1c0-.589.161-.75.75-.75h1Z"/></svg>