<svg xmlns="http://www.w3.org/2000/svg" width="24" height="24" fill="none"><path fill="currentColor" d="m21.66 18.27-2.19-8.17a1.76 1.76 0 0 0-.81-1.06c-.4-.24-.87-.29-1.32-.17l-.29.08-1.59-4.39c-.57-1.35-1.9-2.3-3.46-2.3s-2.78.89-3.38 2.16c-.03.04-.06.08-.08.13l-.98 2.7c-.14.39.06.82.45.96.08.03.17.04.26.04.22 0 .43-.1.57-.27a3.73 3.73 0 0 0 3.17 1.77c1.34 0 2.46-.68 3.13-1.7l.47 1.28-.25.07a1.736 1.736 0 0 0-1.22 2.13l2.19 8.18c.19.71.65 1.31 1.29 1.68a2.722 2.722 0 0 0 2.1.27c.71-.19 1.31-.65 1.68-1.29.37-.64.47-1.38.28-2.1h-.02ZM14.25 6c0 1.24-1.01 2.25-2.25 2.25S9.75 7.24 9.75 6 10.76 3.75 12 3.75c.92 0 1.72.56 2.06 1.36l.03.07c.1.25.16.53.16.82Zm5.83 13.62c-.17.29-.44.5-.77.59a1.273 1.273 0 0 1-1.55-.9l-2.19-8.18a.24.24 0 0 1 .17-.29l1.99-.53h.06c.05 0 .09.02.12.03.04.02.09.06.11.14l2.19 8.17c.09.33.04.67-.13.96v.01ZM8.64 9.4l-1.98-.53a1.736 1.736 0 0 0-2.13 1.22l-2.19 8.17c-.19.71-.09 1.46.28 2.1.37.64.96 1.1 1.68 1.29.24.06.48.1.72.1.48 0 .95-.13 1.38-.37.64-.37 1.1-.96 1.29-1.68l2.19-8.17A1.737 1.737 0 0 0 8.66 9.4h-.02Zm-2.41 9.91c-.09.33-.3.6-.59.77-.29.17-.63.21-.96.13-.33-.09-.6-.3-.77-.59-.17-.29-.21-.63-.13-.96l2.19-8.18c.02-.08.07-.12.11-.14.02-.01.06-.03.12-.03h.06l1.98.53c.13.03.2.16.17.29l-2.19 8.18h.01Z"/></svg>