<svg xmlns="http://www.w3.org/2000/svg" width="24" height="24" fill="none"><path fill="currentColor" d="M21 7.75h-3.664l.892-3.568a.749.749 0 1 0-1.455-.363l-.983 3.932h-5.454l.892-3.568a.749.749 0 1 0-1.455-.363L8.79 7.752H5a.75.75 0 0 0 0 1.5h3.414l-1.375 5.5H3a.75.75 0 0 0 0 1.5h3.664l-.892 3.568a.749.749 0 1 0 1.455.364l.983-3.932h5.454l-.892 3.568a.749.749 0 1 0 1.455.364l.983-3.932H19a.75.75 0 0 0 0-1.5h-3.414l1.375-5.5H21a.75.75 0 0 0 0-1.502Zm-6.961 7H8.585l1.375-5.5h5.454l-1.375 5.5Z"/></svg>