<svg xmlns="http://www.w3.org/2000/svg" width="24" height="24" fill="none"><path fill="currentColor" d="M21.16 16.634c.38-1.54.59-3.129.59-4.634 0-5.376-4.374-9.75-9.75-9.75S2.25 6.624 2.25 12c0 1.505.21 3.093.59 4.634.007.033.006.066.014.098.018.073.042.14.061.212.022.085.04.172.062.256.005.02.02.033.026.052.095.346.186.697.294 1.024l.473 1.533a2.758 2.758 0 0 0 3.432 1.82l.965-.295a1.738 1.738 0 0 0 1.035-.853c.219-.413.265-.886.127-1.333l-1.484-4.856a1.74 1.74 0 0 0-.853-1.034 1.734 1.734 0 0 0-1.334-.127l-.942.289c-.317.097-.6.253-.85.444-.07-.63-.116-1.257-.116-1.865 0-4.549 3.701-8.25 8.25-8.25 4.549 0 8.25 3.701 8.25 8.25 0 .609-.046 1.236-.116 1.866a2.703 2.703 0 0 0-.85-.444l-.942-.289a1.743 1.743 0 0 0-1.334.127 1.737 1.737 0 0 0-.853 1.034l-1.484 4.854c-.138.447-.092.921.127 1.333.22.414.588.716 1.034.853l.966.295a2.758 2.758 0 0 0 3.432-1.82l.47-1.525c.11-.332.2-.677.293-1.02.009-.022.023-.04.03-.064.023-.084.04-.17.062-.256.019-.072.043-.141.061-.213.008-.031.007-.063.014-.096ZM5.155 14.855l.942-.29a.25.25 0 0 1 .313.166l1.484 4.856a.253.253 0 0 1-.167.311l-.964.295a1.252 1.252 0 0 1-1.561-.828l-.478-1.548a18.61 18.61 0 0 1-.361-1.257c-.02-.077-.037-.154-.056-.23-.132-.642.228-1.284.848-1.475Zm14.118 2.964-.005.015-.473 1.533a1.254 1.254 0 0 1-1.561.828l-.965-.295a.24.24 0 0 1-.147-.122.245.245 0 0 1-.019-.19l1.484-4.855a.25.25 0 0 1 .313-.166l.942.29c.62.19.98.832.846 1.475-.02.077-.036.155-.056.231a16.98 16.98 0 0 1-.36 1.256Z"/></svg>