<svg xmlns="http://www.w3.org/2000/svg" width="24" height="24" fill="none"><path fill="currentColor" d="M17.053 21.75H6.948a3.25 3.25 0 0 1-3.198-2.667L2.295 11.1a2.753 2.753 0 0 1 .96-2.617l6.68-5.493a3.26 3.26 0 0 1 4.131 0l6.682 5.493a2.753 2.753 0 0 1 .96 2.617l-1.456 7.983a3.254 3.254 0 0 1-3.2 2.667ZM12 3.75c-.396 0-.79.133-1.112.398L4.206 9.64a1.248 1.248 0 0 0-.436 1.19l1.455 7.982a1.75 1.75 0 0 0 1.722 1.436h10.105a1.75 1.75 0 0 0 1.722-1.436l1.455-7.983a1.25 1.25 0 0 0-.436-1.189l-6.682-5.493a1.745 1.745 0 0 0-1.11-.397Zm7.513 15.198h.01-.01ZM14.75 17a.75.75 0 0 0-.75-.75h-4a.75.75 0 0 0 0 1.5h4a.75.75 0 0 0 .75-.75Z"/></svg>