<svg xmlns="http://www.w3.org/2000/svg" width="24" height="24" fill="none"><path fill="currentColor" d="m20.208 8.141-6.12-5.131a3.244 3.244 0 0 0-4.176 0l-6.12 5.131c-.956.793-1.542 1.387-1.542 3.509V18c0 2.418 1.332 3.75 3.75 3.75h12c2.418 0 3.75-1.332 3.75-3.75v-6.35c0-2.122-.586-2.716-1.542-3.509ZM20.25 18c0 1.577-.673 2.25-2.25 2.25H6c-1.577 0-2.25-.673-2.25-2.25v-6.35c0-1.526.252-1.735.999-2.355l6.126-5.136a1.75 1.75 0 0 1 2.25 0l6.126 5.136c.747.62.999.829.999 2.355V18Zm-3.558-5.973a.75.75 0 0 1 .058.287v2.5a.75.75 0 0 1-1.5 0v-.69l-1.559 1.558c-.543.544-1.493.544-2.038 0l-1.179-1.18-1.944 2.027a.748.748 0 0 1-1.06 0 .75.75 0 0 1 0-1.061l2.027-2.027c.544-.544 1.495-.544 2.039 0l1.178 1.179 1.513-1.558H13.5a.75.75 0 0 1 0-1.5H16a.75.75 0 0 1 .692.465Z"/></svg>