<svg xmlns="http://www.w3.org/2000/svg" width="24" height="24" fill="none"><path fill="currentColor" d="m20.208 8.141-6.12-5.131a3.244 3.244 0 0 0-4.176 0l-6.12 5.131c-.956.793-1.542 1.387-1.542 3.509V18c0 2.418 1.332 3.75 3.75 3.75h12c2.418 0 3.75-1.332 3.75-3.75v-6.35c0-2.122-.586-2.716-1.542-3.509ZM20.25 18c0 1.577-.673 2.25-2.25 2.25H6c-1.577 0-2.25-.673-2.25-2.25v-6.35c0-1.526.252-1.735.999-2.355l6.126-5.136a1.75 1.75 0 0 1 2.25 0l6.126 5.136c.747.62.999.829.999 2.355V18Zm-6.479-8.75h-.014c-.769 0-1.348.317-1.758.716a2.463 2.463 0 0 0-1.759-.716h-.014c-.923.004-1.697.356-2.238 1.018-.652.795-.889 1.95-.65 3.17.589 3.014 4.199 4.677 4.353 4.746a.753.753 0 0 0 .618 0c.153-.069 3.764-1.732 4.353-4.746.238-1.221 0-2.376-.65-3.17-.542-.662-1.317-1.014-2.241-1.018Zm1.417 3.9c-.355 1.817-2.4 3.082-3.188 3.51-.788-.427-2.833-1.692-3.188-3.51-.15-.769-.024-1.491.338-1.932.252-.309.618-.466 1.086-.468h.005c.737 0 1.021.73 1.049.807a.75.75 0 0 0 .704.508h.008a.756.756 0 0 0 .708-.5c.029-.083.313-.814 1.05-.814h.005c.47.002.835.16 1.088.468.36.44.486 1.162.335 1.93Z"/></svg>