<svg xmlns="http://www.w3.org/2000/svg" width="24" height="24" fill="none"><path fill="currentColor" d="m21.477 9.085-7.412-6.096a3.26 3.26 0 0 0-4.129 0L2.524 9.084a.751.751 0 0 0 .953 1.16l.773-.637V18c0 2.418 1.332 3.75 3.75 3.75h8c2.418 0 3.75-1.332 3.75-3.75V9.607l.773.636a.749.749 0 0 0 1.056-.102.75.75 0 0 0-.102-1.056ZM18.25 18c0 1.577-.673 2.25-2.25 2.25H8c-1.577 0-2.25-.673-2.25-2.25V8.374l5.139-4.225a1.755 1.755 0 0 1 2.223 0l5.139 4.226V18h-.001ZM9.5 11.25v1.121c-.793.258-1.25.93-1.25 1.915v1.93c0 1.273.76 2.035 2.036 2.035h3.428c1.275 0 2.036-.76 2.036-2.036v-1.93c0-.982-.457-1.656-1.25-1.914v-1.12c0-1.379-1.121-2.5-2.5-2.5a2.503 2.503 0 0 0-2.5 2.5Zm4.75 4.964c0 .44-.095.536-.536.536h-3.428c-.441 0-.536-.095-.536-.536v-1.929c0-.44.095-.536.536-.536h3.428c.44 0 .536.095.536.536v1.93ZM13 11.25v1h-2v-1a1.001 1.001 0 0 1 2 0Z"/></svg>