<svg xmlns="http://www.w3.org/2000/svg" width="24" height="24" fill="none"><path fill="currentColor" d="M17.053 21.75H6.948a3.25 3.25 0 0 1-3.198-2.667L2.295 11.1a2.753 2.753 0 0 1 .96-2.617l6.68-5.493a3.26 3.26 0 0 1 4.131 0l6.682 5.493a2.753 2.753 0 0 1 .96 2.617l-1.456 7.983a3.254 3.254 0 0 1-3.2 2.667ZM12 3.75c-.396 0-.79.133-1.112.398L4.206 9.64a1.248 1.248 0 0 0-.436 1.19l1.455 7.982a1.75 1.75 0 0 0 1.722 1.436h10.105a1.75 1.75 0 0 0 1.722-1.436l1.455-7.983a1.25 1.25 0 0 0-.436-1.189l-6.682-5.493a1.747 1.747 0 0 0-1.11-.397Zm7.513 15.198h.01-.01Zm-5.221-.698a1.25 1.25 0 0 1-.583-.144L12 17.215l-1.708.89a1.247 1.247 0 0 1-1.324-.1 1.243 1.243 0 0 1-.496-1.225l.324-1.876-1.424-1.377a1.207 1.207 0 0 1-.312-1.25c.145-.447.522-.766.988-.833l1.975-.285.852-1.712a1.25 1.25 0 0 1 1.126-.696c.48 0 .912.267 1.126.696l.852 1.712 1.975.285c.466.067.844.387.988.833a1.21 1.21 0 0 1-.312 1.25l-1.424 1.377.325 1.878c.081.473-.109.942-.497 1.225a1.262 1.262 0 0 1-.742.243ZM12 15.68c.194 0 .39.046.566.139l1.399.73-.266-1.536a1.219 1.219 0 0 1 .355-1.084l1.118-1.082-1.554-.224a1.223 1.223 0 0 1-.92-.664l-.7-1.408-.699 1.406c-.181.36-.525.609-.923.666l-1.552.224 1.119 1.082c.29.28.423.686.354 1.083l-.266 1.536 1.4-.73c.18-.091.375-.138.57-.138Zm3.737-2.752h.01-.01Zm-3.955-2.814.001.001-.001-.001Z"/></svg>