<svg xmlns="http://www.w3.org/2000/svg" width="24" height="24" fill="none"><path fill="currentColor" d="M20.747 8.483 14.065 2.99a3.26 3.26 0 0 0-4.131 0L3.252 8.483a2.753 2.753 0 0 0-.959 2.617l1.455 7.983a3.25 3.25 0 0 0 3.198 2.667h10.105a3.25 3.25 0 0 0 3.198-2.667l1.455-7.983a2.748 2.748 0 0 0-.957-2.617Zm-.518 2.348-1.455 7.983a1.75 1.75 0 0 1-1.722 1.436H6.947a1.75 1.75 0 0 1-1.722-1.436L3.77 10.832a1.248 1.248 0 0 1 .436-1.19l6.682-5.493A1.747 1.747 0 0 1 12 3.752c.395 0 .79.133 1.112.398l6.682 5.493c.35.287.517.742.435 1.188ZM13 16.511a1 1 0 1 1-2 0 1 1 0 0 1 2 0Zm1.704-2.847a.75.75 0 1 1-.908 1.194c-1.029-.783-2.562-.783-3.592 0a.75.75 0 0 1-.908-1.194c1.555-1.183 3.853-1.183 5.408 0Zm2.285-2.066a.75.75 0 0 1-.978 1.137 6.146 6.146 0 0 0-4.01-1.485 6.148 6.148 0 0 0-4.012 1.485.75.75 0 0 1-.979-1.137A7.648 7.648 0 0 1 12 9.75a7.65 7.65 0 0 1 4.99 1.848Z"/></svg>