<svg xmlns="http://www.w3.org/2000/svg" width="24" height="24" fill="none"><path fill="currentColor" d="M22.175 5.015c-.5-.664-1.303-1.077-2.388-1.23L9.226 2.305c-1.084-.153-1.966.022-2.628.521-.664.5-1.078 1.303-1.23 2.386l-.147 1.036h-.554c-2.203 0-3.417 1.213-3.417 3.417v8.668c0 2.204 1.214 3.417 3.417 3.417h10.668c1.909 0 3.072-.914 3.35-2.59 1.56-.126 2.552-1.138 2.811-2.937l1.199-8.58c.155-1.08-.021-1.965-.52-2.628Zm-4.922 13.318c0 1.362-.556 1.917-1.918 1.917H4.667c-1.361 0-1.917-.555-1.917-1.917V9.665c0-1.362.556-1.917 1.917-1.917h10.668c1.362 0 1.918.555 1.918 1.917v8.668ZM21.21 7.434l-1.199 8.58c-.146 1.006-.524 1.513-1.258 1.637V9.665c0-2.204-1.214-3.417-3.418-3.417h-8.6l.117-.825c.096-.676.313-1.147.648-1.399.333-.251.844-.33 1.516-.234l10.562 1.48c.676.096 1.146.313 1.398.647.252.333.33.843.234 1.517ZM13.25 14a.75.75 0 0 1-.75.75h-1.75v1.75a.75.75 0 0 1-1.5 0v-1.75H7.5a.75.75 0 0 1 0-1.5h1.75V11.5a.75.75 0 0 1 1.5 0v1.75h1.75a.75.75 0 0 1 .75.75Z"/></svg>