<svg xmlns="http://www.w3.org/2000/svg" width="24" height="24" fill="none"><path fill="currentColor" d="M18 6.25h-5.25V6a.75.75 0 0 1 .75-.75h1c1.24 0 2.25-1.009 2.25-2.25a.75.75 0 0 0-1.5 0 .75.75 0 0 1-.75.75h-1A2.253 2.253 0 0 0 11.25 6v.25H6c-2.418 0-3.75 1.332-3.75 3.75v7c0 2.418 1.332 3.75 3.75 3.75h12c2.418 0 3.75-1.332 3.75-3.75v-7c0-2.418-1.332-3.75-3.75-3.75ZM20.25 17c0 1.577-.673 2.25-2.25 2.25H6c-1.577 0-2.25-.673-2.25-2.25v-7c0-1.577.673-2.25 2.25-2.25h12c1.577 0 2.25.673 2.25 2.25v7ZM19 11a.75.75 0 0 1-.75.75H16.5a.75.75 0 0 1 0-1.5h1.75A.75.75 0 0 1 19 11Zm-1.25 3a.75.75 0 0 1-.75.75h-1.5a.75.75 0 0 1 0-1.5H17a.75.75 0 0 1 .75.75Zm-2 3a.75.75 0 0 1-.75.75H9a.75.75 0 0 1 0-1.5h6a.75.75 0 0 1 .75.75ZM7 11a1 1 0 1 1-2 0 1 1 0 0 1 2 0Zm1.5 0a1 1 0 1 1 2 0 1 1 0 0 1-2 0Zm3.5 0a1 1 0 1 1 2 0 1 1 0 0 1-2 0Zm-1 3a1 1 0 1 1 2 0 1 1 0 0 1-2 0Zm-2.5 1a1 1 0 1 1 0-2 1 1 0 0 1 0 2Z"/></svg>