<svg xmlns="http://www.w3.org/2000/svg" width="24" height="24" fill="none"><path fill="currentColor" d="M21.484 17.364c-.228.406-.569.72-.987.908l-6.581 3.056a4.542 4.542 0 0 1-3.833 0l-6.589-3.06a2.118 2.118 0 0 1-.979-.904.75.75 0 1 1 1.309-.733.612.612 0 0 0 .293.272l6.599 3.064a3.079 3.079 0 0 0 2.568 0l6.59-3.06a.626.626 0 0 0 .302-.277.75.75 0 1 1 1.308.734Zm-.287-5.344a.749.749 0 0 0-1.021.288.626.626 0 0 1-.302.277l-6.59 3.06a3.079 3.079 0 0 1-2.568 0l-6.599-3.064a.615.615 0 0 1-.292-.272.751.751 0 0 0-1.309.733c.228.407.569.72.979.904l6.589 3.06a4.547 4.547 0 0 0 3.833 0l6.581-3.056c.418-.188.76-.501.988-.908a.753.753 0 0 0-.289-1.022ZM2.25 7.68c0-.849.478-1.597 1.248-1.954l6.586-3.053a4.549 4.549 0 0 1 3.831 0l6.586 3.053a2.133 2.133 0 0 1 1.248 1.954c0 .848-.478 1.597-1.248 1.954l-6.586 3.053a4.552 4.552 0 0 1-3.832 0L3.497 9.634A2.133 2.133 0 0 1 2.25 7.68Zm1.5 0c0 .098.027.43.379.594l6.586 3.053a3.048 3.048 0 0 0 2.569 0l6.586-3.053a.645.645 0 0 0 .379-.594.646.646 0 0 0-.379-.594l-6.586-3.053a3.058 3.058 0 0 0-2.57 0L4.128 7.086a.646.646 0 0 0-.378.594Z"/></svg>