<svg xmlns="http://www.w3.org/2000/svg" width="24" height="24" fill="none"><path fill="currentColor" d="M21.43 6.28c.21-.39.32-.84.32-1.28 0-1.52-1.23-2.75-2.75-2.75-.44 0-.88.11-1.28.32-.27.14-.68.28-1.1.15-3.41-1.08-7.57.18-10.59 3.2-3 3-4.27 7.14-3.23 10.54.14.47-.02.89-.18 1.16a2.748 2.748 0 0 0 3.76 3.76c.27-.16.69-.32 1.16-.18 3.4 1.05 7.54-.22 10.54-3.23 3.02-3.02 4.27-7.17 3.2-10.59-.13-.43 0-.84.15-1.1Zm-1.58 1.56c.91 2.88-.2 6.45-2.83 9.07-2.62 2.62-6.17 3.73-9.04 2.85-.77-.24-1.61-.12-2.36.32a1.25 1.25 0 0 1-1.71-1.71c.44-.75.55-1.59.32-2.36-.88-2.88.24-6.42 2.85-9.04 2.02-2.02 4.59-3.14 6.98-3.14.72 0 1.43.1 2.1.31.72.23 1.52.14 2.26-.25a1.25 1.25 0 0 1 1.69 1.69c-.39.74-.48 1.54-.25 2.26h-.01Zm-9.84 8.66c0 .55-.45 1-1 1s-1-.45-1-1 .44-1 1-1c.55 0 1 .45 1 1Zm4 0c0 .55-.45 1-1 1s-1-.45-1-1 .44-1 1-1c.55 0 1 .45 1 1Zm-2-3c0 .55-.45 1-1 1s-1-.45-1-1 .44-1 1-1c.55 0 1 .45 1 1Z"/></svg>