<svg xmlns="http://www.w3.org/2000/svg" width="24" height="24" fill="none"><path fill="currentColor" d="M12 1.25C6.072 1.25 1.25 6.072 1.25 12S6.072 22.75 12 22.75 22.75 17.928 22.75 12 17.928 1.25 12 1.25Zm0 20c-5.101 0-9.25-4.149-9.25-9.25S6.899 2.75 12 2.75s9.25 4.149 9.25 9.25-4.149 9.25-9.25 9.25Zm3.115-12.083h-1.311v-.958c0-.782-.389-1.508-1.039-1.941a1.584 1.584 0 0 0-2.377.792l-1.043 3.163H8.041c-.851 0-1.542.691-1.542 1.542v3.695c0 .85.691 1.542 1.542 1.542h6.02c1.477 0 1.936-.767 2.213-1.595l1.056-3.167c.283-.852.212-1.636-.2-2.208-.284-.396-.864-.865-2.015-.865ZM8 15.458v-3.736h.75v3.736H8Zm7.906-3.695-1.055 3.167c-.162.483-.19.57-.79.57l-3.812-.026V11.62a.74.74 0 0 0 .351-.413l1.212-3.678.121-.014a.832.832 0 0 1 .371.693v1.708c0 .414.336.75.75.75h2.061c.402 0 .687.085.798.241.117.163.115.491-.007.856Z"/></svg>