<svg xmlns="http://www.w3.org/2000/svg" width="24" height="24" fill="none"><path fill="currentColor" d="M17.667 1.25H6.333C3.7 1.25 2.25 2.7 2.25 5.333v10c0 2.633 1.45 4.083 4.083 4.083h1.5c.287 0 .562.137.734.367l1.499 2A2.398 2.398 0 0 0 12 22.75c.769 0 1.473-.353 1.933-.966l1.5-2a.924.924 0 0 1 .734-.368h1.5c2.633 0 4.083-1.45 4.083-4.083v-10c0-2.633-1.45-4.083-4.083-4.083Zm2.583 14.083c0 1.811-.772 2.583-2.583 2.583h-1.5a2.43 2.43 0 0 0-1.934.967l-1.5 2c-.349.466-1.117.466-1.467 0l-1.5-2a2.43 2.43 0 0 0-1.934-.966h-1.5c-1.811 0-2.583-.772-2.583-2.583v-10c0-1.811.772-2.583 2.583-2.583h11.334c1.811 0 2.583.772 2.583 2.583v9.999h.001Zm-5.135-7.666h-1.311v-.958c0-.782-.389-1.508-1.039-1.941a1.59 1.59 0 0 0-2.377.792L9.345 8.723H8.041c-.851 0-1.542.691-1.542 1.542v3.695c0 .85.691 1.542 1.542 1.542h6.02c1.477 0 1.936-.767 2.213-1.595l1.056-3.167c.283-.852.212-1.636-.2-2.208-.284-.396-.864-.865-2.015-.865ZM8 13.964v-3.741h.75v3.741H8Zm7.906-3.701-1.055 3.167c-.162.483-.19.57-.79.57l-3.812-.026V10.12a.74.74 0 0 0 .351-.413l1.212-3.678.121-.014a.832.832 0 0 1 .371.693v1.708c0 .414.336.75.75.75h2.061c.402 0 .687.085.798.241.117.163.115.491-.007.856Z"/></svg>