<svg xmlns="http://www.w3.org/2000/svg" width="24" height="24" fill="none"><path fill="currentColor" d="M18.52 10.333a1.5 1.5 0 0 1-1.5 1.5c-.139 0-.271-.025-.399-.061l-1.495 1.495c.035.128.06.26.06.399a1.504 1.504 0 0 1-3.005 0c0-.129.021-.253.052-.373l-1.512-1.511c-.119.03-.241.051-.368.051-.139 0-.271-.025-.399-.06l-1.495 1.494c.035.128.06.26.06.399a1.504 1.504 0 0 1-3.005 0c0-.829.667-1.5 1.495-1.5h.01c.128 0 .25.021.369.051L8.9 10.705a1.472 1.472 0 0 1-.052-.372c0-.829.667-1.5 1.495-1.5h.01a1.5 1.5 0 0 1 1.5 1.5c0 .139-.025.271-.06.4l1.492 1.491c.125-.034.255-.058.391-.058h.01c.128 0 .25.021.369.051l1.512-1.512a1.478 1.478 0 0 1-.052-.372c0-.829.667-1.5 1.495-1.5h.01a1.5 1.5 0 0 1 1.5 1.5ZM22.75 12c0 5.928-4.822 10.75-10.75 10.75S1.25 17.928 1.25 12 6.072 1.25 12 1.25 22.75 6.072 22.75 12Zm-1.5 0c0-5.101-4.149-9.25-9.25-9.25S2.75 6.899 2.75 12s4.149 9.25 9.25 9.25 9.25-4.149 9.25-9.25Z"/></svg>