<svg xmlns="http://www.w3.org/2000/svg" width="24" height="24" fill="none"><path fill="currentColor" d="M17.565 14.296a.75.75 0 0 1-.531-1.279L19 11.039a4.2 4.2 0 0 0 1.249-3.016 4.25 4.25 0 0 0-1.247-3.025 4.276 4.276 0 0 0-6.04 0l-1.967 1.977a.75.75 0 0 1-1.064-1.058L11.9 3.939a5.778 5.778 0 0 1 8.162-.001 5.734 5.734 0 0 1 1.687 4.085c0 1.552-.6 3-1.689 4.078l-1.963 1.974a.75.75 0 0 1-.533.221Zm-5.466 5.767 1.979-1.968a.75.75 0 0 0-1.059-1.064l-1.979 1.97a4.276 4.276 0 0 1-6.04 0 4.275 4.275 0 0 1-.001-6.038l1.979-1.968a.75.75 0 0 0-1.059-1.064l-1.98 1.97a5.776 5.776 0 0 0 0 8.16 5.756 5.756 0 0 0 4.082 1.687 5.748 5.748 0 0 0 4.078-1.685ZM21.75 17a.75.75 0 0 0-.75-.75h-2a.75.75 0 0 0 0 1.5h2a.75.75 0 0 0 .75-.75Zm-4 4v-2a.75.75 0 0 0-1.5 0v2a.75.75 0 0 0 1.5 0Zm-12-14A.75.75 0 0 0 5 6.25H3a.75.75 0 0 0 0 1.5h2A.75.75 0 0 0 5.75 7Zm2-2V3a.75.75 0 0 0-1.5 0v2a.75.75 0 0 0 1.5 0Z"/></svg>