<svg xmlns="http://www.w3.org/2000/svg" width="24" height="24" fill="none"><path fill="currentColor" d="M20.279 8.185c.312.904.471 1.851.471 2.815 0 5.118-4.697 8.22-7.805 10.273l-.529.351a.75.75 0 0 1-.829.002l-.306-.201c-.822-.54-1.753-1.152-2.695-1.868a.75.75 0 0 1 .907-1.195 43.79 43.79 0 0 0 2.505 1.738l.12-.08c3.01-1.988 7.131-4.71 7.131-9.021a7.1 7.1 0 0 0-.389-2.325.75.75 0 1 1 1.419-.489ZM21.53 3.53l-18 18a.748.748 0 0 1-1.06 0 .75.75 0 0 1 0-1.061l3.367-3.367C4.104 15.192 3.25 13.191 3.25 11c0-4.825 3.925-8.75 8.75-8.75a8.7 8.7 0 0 1 6.148 2.542L20.47 2.47a.75.75 0 1 1 1.06 1.061ZM6.897 16.042 17.089 5.85A7.209 7.209 0 0 0 12 3.75c-3.998 0-7.25 3.252-7.25 7.25 0 1.781.708 3.437 2.147 5.043Z"/></svg>