<svg xmlns="http://www.w3.org/2000/svg" width="24" height="24" fill="none"><path fill="currentColor" d="M12 2.25c-4.825 0-8.75 3.925-8.75 8.75 0 5.118 4.697 8.22 7.805 10.273l.529.351a.75.75 0 0 0 .832 0l.529-.351C16.053 19.22 20.75 16.118 20.75 11c0-4.825-3.925-8.75-8.75-8.75Zm.119 17.771-.119.08-.119-.08C8.871 18.033 4.75 15.311 4.75 11c0-3.998 3.252-7.25 7.25-7.25s7.25 3.252 7.25 7.25c0 4.311-4.122 7.034-7.131 9.021ZM14.53 9.53 13.06 11l1.47 1.47a.75.75 0 0 1-1.06 1.061L12 12.061l-1.47 1.47a.748.748 0 0 1-1.06 0 .75.75 0 0 1 0-1.061L10.94 11 9.47 9.53a.75.75 0 0 1 1.061-1.061l1.47 1.47 1.47-1.47A.75.75 0 1 1 14.53 9.53Z"/></svg>