<svg xmlns="http://www.w3.org/2000/svg" width="24" height="24" fill="none"><path fill="currentColor" d="M12 2.25c-4.825 0-8.75 3.925-8.75 8.75 0 5.118 4.697 8.22 7.805 10.273l.529.351a.75.75 0 0 0 .832 0l.529-.351C16.053 19.22 20.75 16.118 20.75 11c0-4.825-3.925-8.75-8.75-8.75Zm.119 17.771-.119.08-.119-.08C8.871 18.033 4.75 15.311 4.75 11c0-3.998 3.252-7.25 7.25-7.25s7.25 3.252 7.25 7.25c0 4.311-4.122 7.034-7.131 9.021ZM14.25 9.927V9A2.252 2.252 0 0 0 12 6.75 2.252 2.252 0 0 0 9.75 9v.927c-.629.277-1 .873-1 1.698v1.75c0 1.157.718 1.875 1.875 1.875h2.75c1.157 0 1.875-.718 1.875-1.875v-1.75c0-.825-.371-1.421-1-1.698ZM12 8.25a.75.75 0 0 1 .75.75v.75h-1.5V9a.75.75 0 0 1 .75-.75Zm1.75 5.125c0 .336-.039.375-.375.375h-2.75c-.336 0-.375-.039-.375-.375v-1.75c0-.28.037-.35.239-.367l.011.002c.007 0 .012-.004.019-.004.035-.002.062-.006.106-.006h2.75c.045 0 .072.004.106.006.007 0 .012.004.019.004l.011-.002c.202.017.239.088.239.367v1.75Z"/></svg>