<svg xmlns="http://www.w3.org/2000/svg" width="24" height="24" fill="none"><path fill="currentColor" d="M17.417 16v-4c0-1.477-.723-2.414-2-2.67v-.664A3.421 3.421 0 0 0 12 5.249a3.421 3.421 0 0 0-3.417 3.417v.663c-1.277.257-2 1.194-2 2.671v4c0 1.748 1.002 2.75 2.75 2.75h5.334c1.748 0 2.75-1.002 2.75-2.75ZM12 6.75a1.92 1.92 0 0 1 1.917 1.917v.583h-3.834v-.583A1.92 1.92 0 0 1 12 6.75ZM15.917 16c0 .923-.327 1.25-1.25 1.25H9.333c-.923 0-1.25-.327-1.25-1.25v-4c0-.923.327-1.25 1.25-1.25h5.334c.923 0 1.25.327 1.25 1.25v4Zm-2.647-2.667c0 .412-.212.76-.52.987v1.013a.75.75 0 0 1-1.5 0v-1.038a1.228 1.228 0 0 1-.485-.962c0-.69.555-1.25 1.245-1.25h.01c.69 0 1.25.56 1.25 1.25ZM21.75 4.5V8a.75.75 0 0 1-1.5 0V4.5c0-.589-.161-.75-.75-.75H16a.75.75 0 0 1 0-1.5h3.5c1.409 0 2.25.841 2.25 2.25ZM2.25 8V4.5c0-1.409.841-2.25 2.25-2.25H8a.75.75 0 0 1 0 1.5H4.5c-.589 0-.75.161-.75.75V8a.75.75 0 0 1-1.5 0Zm6.5 13a.75.75 0 0 1-.75.75H4.5c-1.409 0-2.25-.841-2.25-2.25V16a.75.75 0 0 1 1.5 0v3.5c0 .589.161.75.75.75H8a.75.75 0 0 1 .75.75Zm13-5v3.5c0 1.409-.841 2.25-2.25 2.25H16a.75.75 0 0 1 0-1.5h3.5c.589 0 .75-.161.75-.75V16a.75.75 0 0 1 1.5 0Z"/></svg>