<svg xmlns="http://www.w3.org/2000/svg" width="24" height="24" fill="none"><path fill="currentColor" d="M20 2.25h-4c-.965 0-1.75.785-1.75 1.75v8c0 1.241-1.01 2.25-2.25 2.25A2.253 2.253 0 0 1 9.75 12V4c0-.965-.785-1.75-1.75-1.75H4c-.965 0-1.75.785-1.75 1.75v8c0 5.376 4.374 9.75 9.75 9.75s9.75-4.374 9.75-9.75V4c0-.965-.785-1.75-1.75-1.75Zm-4 1.5h4a.25.25 0 0 1 .25.25v3.25h-4.5V4a.25.25 0 0 1 .25-.25Zm-12 0h4a.25.25 0 0 1 .25.25v3.25h-4.5V4A.25.25 0 0 1 4 3.75Zm8 16.5c-4.549 0-8.25-3.701-8.25-8.25V8.75h4.5V12A3.755 3.755 0 0 0 12 15.75 3.755 3.755 0 0 0 15.75 12V8.75h4.5V12c0 4.549-3.701 8.25-8.25 8.25Z"/></svg>