<svg xmlns="http://www.w3.org/2000/svg" width="24" height="24" fill="none"><path fill="currentColor" d="M18 4.25H6C3.58 4.25 2.25 5.58 2.25 8v8c0 2.42 1.33 3.75 3.75 3.75h12c2.42 0 3.75-1.33 3.75-3.75V8c0-2.42-1.33-3.75-3.75-3.75ZM20.25 16c0 1.58-.67 2.25-2.25 2.25H6c-1.58 0-2.25-.67-2.25-2.25V8c0-1.58.67-2.25 2.25-2.25h12c1.58 0 2.25.67 2.25 2.25v8ZM8.19 16v.62h-.22c0-.54.05-.81-.22-.81-.31 0-.24.32-.24.81H7.3c0-.54.05-.81-.22-.81-.31 0-.24.3-.24.81h-.22v-.98h.22v.12c.08-.11.18-.14.28-.14.15 0 .26.06.33.17.09-.14.22-.17.34-.17.24 0 .39.16.39.39l.01-.01Zm2.29.32c0 .36-.57.4-.87.2l.09-.17c.19.13.55.15.55-.02 0-.18-.61-.02-.61-.4s.56-.38.81-.22l-.09.17c-.18-.1-.5-.12-.5.03 0 .19.61 0 .61.41h.01Zm.89.07.06.18c-.14.09-.61.18-.61-.29v-.45h-.2v-.2h.2v-.3h.22v.3h.35v.2h-.35v.44c0 .23.23.17.33.11v.01Zm-2.19-.63a.368.368 0 0 0-.31-.14c-.28 0-.49.22-.49.52 0 .3.21.52.49.52.14 0 .24-.05.31-.14v.12h.21v-.99h-.21v.12-.01Zm-.28.69c-.19 0-.3-.14-.3-.31 0-.17.11-.31.3-.31.17 0 .29.14.29.31 0 .18-.12.31-.29.31ZM6 11.06a3.707 3.707 0 0 1 5.76-3.08c-1.94 1.59-1.95 4.59 0 6.17A3.709 3.709 0 0 1 6 11.06Zm6-2.91c1.88 1.48 1.89 4.35 0 5.83-1.89-1.47-1.88-4.34 0-5.83Zm.05 7.47c-.28 0-.49.21-.49.52 0 .55.61.64.91.38l-.1-.16c-.21.17-.52.16-.59-.13h.74c0-.43-.2-.61-.47-.61Zm-.26.43c.02-.14.11-.23.25-.23s.23.08.26.23h-.51Zm5.42-.28c-.22-.29-.8-.14-.8.37s.6.66.8.37v.12h.21v-1.38h-.21v.52Zm-.28.69c-.18 0-.3-.14-.3-.31 0-.17.12-.31.3-.31s.3.14.3.31c0 .17-.12.31-.3.31Zm1.08-5.39c0 2.05-1.66 3.71-3.71 3.71-.72 0-1.44-.22-2.05-.62 1.96-1.58 1.93-4.59 0-6.17a3.707 3.707 0 0 1 5.76 3.08Zm-1.66 4.59-.06.2c-.1-.05-.34-.07-.34.22v.55h-.21v-.98h.21v.12c.11-.2.34-.15.41-.12l-.01.01Zm-2.97 0-.06.2c-.09-.05-.34-.09-.34.22v.55h-.22v-.98h.22v.12c.1-.17.28-.17.41-.12l-.01.01Zm.28.49c0 .3.31.4.55.23l.1.17c-.28.24-.88.13-.88-.4s.57-.65.88-.4l-.1.17c-.24-.18-.55-.08-.55.23Zm1.57-.37c-.22-.29-.8-.13-.8.37s.6.66.8.37v.12h.22v-.99h-.22v.13Zm-.28.69c-.18 0-.29-.14-.29-.31 0-.17.11-.31.29-.31s.3.14.3.31c0 .17-.12.31-.3.31Z"/></svg>