<svg xmlns="http://www.w3.org/2000/svg" width="24" height="24" fill="none"><path fill="currentColor" d="M21.657 2.639A.75.75 0 0 0 21 2.25h-5a.75.75 0 0 0-.633.348l-2.97 4.672c-.132-.007-.263-.02-.397-.02s-.265.013-.397.02l-2.97-4.672A.75.75 0 0 0 8 2.25H3a.75.75 0 0 0-.633 1.152l4.09 6.436A7.212 7.212 0 0 0 4.75 14.5c0 3.998 3.252 7.25 7.25 7.25s7.25-3.252 7.25-7.25c0-1.775-.643-3.4-1.706-4.662l4.09-6.436a.75.75 0 0 0 .023-.763ZM7.588 3.75l2.408 3.788a7.203 7.203 0 0 0-2.435 1.243L4.366 3.75h3.222ZM12 20.25a5.756 5.756 0 0 1-5.75-5.75A5.756 5.756 0 0 1 12 8.75a5.756 5.756 0 0 1 5.75 5.75A5.756 5.756 0 0 1 12 20.25Zm4.439-11.469a7.222 7.222 0 0 0-2.435-1.243l2.408-3.788h3.223l-3.196 5.031Z"/></svg>