<svg xmlns="http://www.w3.org/2000/svg" width="24" height="24" fill="none"><path fill="currentColor" d="M3 21.75a.75.75 0 0 1-.75-.75V6c0-2.418 1.332-3.75 3.75-3.75h12c2.418 0 3.75 1.332 3.75 3.75v9c0 2.418-1.332 3.75-3.75 3.75H6.311l-2.78 2.78a.75.75 0 0 1-.531.22Zm3-18c-1.577 0-2.25.673-2.25 2.25v13.189l1.72-1.72a.749.749 0 0 1 .53-.22h12c1.577 0 2.25-.673 2.25-2.25v-9c0-1.577-.673-2.25-2.25-2.25H6v.001Zm6 11.5a.733.733 0 0 1-.24-.04c-1.938-.656-4.01-2.355-4.01-5.155V7.833a.75.75 0 0 1 .543-.72c1.783-.513 2.614-.9 3.376-1.284a.758.758 0 0 1 .68.002c.754.386 1.576.769 3.336 1.216a.749.749 0 0 1 .565.727v2.28c0 2.8-2.071 4.499-4.01 5.155a.708.708 0 0 1-.24.041ZM9.25 8.394v1.662c0 2.296 1.958 3.323 2.75 3.644.792-.321 2.75-1.348 2.75-3.644V8.353c-1.196-.331-1.99-.647-2.745-1.015-.767.37-1.546.688-2.755 1.056Z"/></svg>