<svg xmlns="http://www.w3.org/2000/svg" width="24" height="24" fill="none"><path fill="currentColor" d="M3 21.75a.75.75 0 0 1-.75-.75V6c0-2.418 1.332-3.75 3.75-3.75h12c2.418 0 3.75 1.332 3.75 3.75v9c0 2.418-1.332 3.75-3.75 3.75H6.311l-2.78 2.78a.75.75 0 0 1-.531.22Zm3-18c-1.577 0-2.25.673-2.25 2.25v13.189l1.72-1.72a.749.749 0 0 1 .53-.22h12c1.577 0 2.25-.673 2.25-2.25v-9c0-1.577-.673-2.25-2.25-2.25H6v.001Zm8.292 11.5a1.25 1.25 0 0 1-.583-.144L12 14.214l-1.708.891a1.247 1.247 0 0 1-1.324-.1 1.244 1.244 0 0 1-.496-1.225l.324-1.876-1.424-1.377a1.209 1.209 0 0 1-.312-1.251c.145-.447.523-.766.99-.833l1.973-.285.852-1.713a1.25 1.25 0 0 1 1.126-.696c.48 0 .912.267 1.126.696l.852 1.713 1.975.285c.465.066.844.386.988.833a1.21 1.21 0 0 1-.312 1.251l-1.424 1.377.325 1.878c.081.473-.11.942-.497 1.225a1.261 1.261 0 0 1-.742.243ZM12 12.68c.194 0 .389.046.566.139l1.4.73-.267-1.536a1.218 1.218 0 0 1 .355-1.084l1.118-1.082-1.554-.224a1.228 1.228 0 0 1-.92-.665l-.7-1.407-.699 1.406c-.18.359-.523.608-.92.666l-1.555.224 1.12 1.082c.29.28.422.686.353 1.083l-.266 1.535 1.399-.729c.18-.092.376-.138.57-.138Zm3.738-2.752h.01-.01Zm-3.956-2.814.001.001-.001-.001Z"/></svg>