<svg xmlns="http://www.w3.org/2000/svg" width="24" height="24" fill="none"><path fill="currentColor" d="M18 2.25H6C3.582 2.25 2.25 3.582 2.25 6v15a.75.75 0 0 0 1.28.53l2.78-2.78H18c2.418 0 3.75-1.332 3.75-3.75V6c0-2.418-1.332-3.75-3.75-3.75ZM20.25 15c0 1.577-.673 2.25-2.25 2.25H6a.747.747 0 0 0-.53.22l-1.72 1.72V6c0-1.577.673-2.25 2.25-2.25h12c1.577 0 2.25.673 2.25 2.25v9Zm-4.97-8.77c-.31-.31-.722-.48-1.159-.48h-.003c-.438 0-.85.172-1.158.482l-5.491 5.516a.747.747 0 0 0-.219.529v2.222c0 .414.336.75.75.75h2.223a.753.753 0 0 0 .529-.218l5.516-5.491c.311-.309.481-.72.482-1.159a1.628 1.628 0 0 0-.48-1.162l-.99-.989Zm-1.16 1.02a.14.14 0 0 1 .099.041l.99.99a.138.138 0 0 1 0 .196l-.636.634-1.183-1.183.634-.637a.132.132 0 0 1 .096-.041Zm-4.207 6.5H8.75v-1.163l3.581-3.597 1.178 1.179-3.596 3.581Z"/></svg>