<svg xmlns="http://www.w3.org/2000/svg" width="24" height="24" fill="none"><path fill="currentColor" d="M12.75 18.712V21a.75.75 0 0 1-1.5 0v-2.288c-3.923-.378-7-3.692-7-7.712a.75.75 0 0 1 1.5 0A6.257 6.257 0 0 0 12 17.25 6.257 6.257 0 0 0 18.25 11a.75.75 0 0 1 1.5 0c0 4.02-3.077 7.333-7 7.712ZM7.25 11V7A4.756 4.756 0 0 1 12 2.25 4.756 4.756 0 0 1 16.75 7v4A4.756 4.756 0 0 1 12 15.75 4.756 4.756 0 0 1 7.25 11Zm1.5 0A3.254 3.254 0 0 0 12 14.25 3.254 3.254 0 0 0 15.25 11V7A3.254 3.254 0 0 0 12 3.75 3.254 3.254 0 0 0 8.75 7v4Z"/></svg>