<svg xmlns="http://www.w3.org/2000/svg" width="24" height="24" fill="none"><path fill="currentColor" d="M12.75 18a.75.75 0 0 1-.75.75H5c-2.418 0-3.75-1.332-3.75-3.75V7c0-2.418 1.332-3.75 3.75-3.75h12c2.418 0 3.75 1.332 3.75 3.75v4a.75.75 0 0 1-1.5 0V7c0-1.577-.673-2.25-2.25-2.25H5c-1.577 0-2.25.673-2.25 2.25v8c0 1.577.673 2.25 2.25 2.25h7a.75.75 0 0 1 .75.75ZM4 11a1 1 0 1 0 2 0 1 1 0 0 0-2 0Zm10.75 0A3.754 3.754 0 0 1 11 14.75 3.754 3.754 0 0 1 7.25 11 3.754 3.754 0 0 1 11 7.25 3.754 3.754 0 0 1 14.75 11Zm-1.5 0A2.252 2.252 0 0 0 11 8.75 2.252 2.252 0 0 0 8.75 11 2.252 2.252 0 0 0 11 13.25 2.252 2.252 0 0 0 13.25 11Zm9.5 6.5a4.255 4.255 0 0 1-4.25 4.25 4.255 4.255 0 0 1-4.25-4.25 4.255 4.255 0 0 1 4.25-4.25 4.255 4.255 0 0 1 4.25 4.25Zm-7 0c0 .485.137.935.358 1.331l3.723-3.722a2.722 2.722 0 0 0-1.331-.359 2.753 2.753 0 0 0-2.75 2.75Zm5.5 0a2.72 2.72 0 0 0-.358-1.331l-3.723 3.722c.396.221.846.359 1.331.359a2.753 2.753 0 0 0 2.75-2.75Z"/></svg>