<svg xmlns="http://www.w3.org/2000/svg" width="24" height="24" fill="none"><path fill="currentColor" d="M10.019 4.479a1.97 1.97 0 0 1 .252-1.238 2.06 2.06 0 0 1 1.754-.991.75.75 0 0 1 0 1.5.539.539 0 0 0-.461.252.483.483 0 0 0-.056.295.497.497 0 0 0 .431.45.529.529 0 0 0 .554-.29.75.75 0 1 1 1.363.624 2.007 2.007 0 0 1-1.838 1.17c-.094 0-.188-.006-.284-.02a1.986 1.986 0 0 1-1.715-1.752ZM19.75 19.5v1c0 .689-.561 1.25-1.25 1.25h-13c-.689 0-1.25-.561-1.25-1.25v-1c0-1.097.515-1.844 1.407-2.123-.748-.74-1.407-1.829-1.407-3.377 0-2.709 2.282-3.734 4.116-4.558 1.328-.597 2.582-1.16 2.922-2.18a.752.752 0 0 1 1.424 0c.34 1.02 1.594 1.583 2.922 2.18 1.834.823 4.116 1.848 4.116 4.558 0 1.548-.659 2.637-1.407 3.377.892.279 1.407 1.026 1.407 2.123Zm-14-5.5c0 2.182 1.944 3.074 2.388 3.25h7.724c.436-.173 2.388-1.063 2.388-3.25 0-1.622-1.221-2.287-3.23-3.189-1.115-.5-2.257-1.013-3.02-1.861-.763.848-1.904 1.361-3.02 1.861-2.009.902-3.23 1.567-3.23 3.189Zm12.5 5.5c0-.589-.161-.75-.75-.75h-11c-.589 0-.75.161-.75.75v.75h12.5v-.75Z"/></svg>