<svg xmlns="http://www.w3.org/2000/svg" width="24" height="24" fill="none"><path fill="currentColor" d="M12 2.25c-4.925 0-7.75 2.825-7.75 7.75v4c0 4.925 2.825 7.75 7.75 7.75s7.75-2.825 7.75-7.75v-4c0-4.925-2.825-7.75-7.75-7.75Zm0 5a.75.75 0 0 1 .75.75v1.5a.75.75 0 0 1-1.5 0V8a.75.75 0 0 1 .75-.75ZM18.25 14c0 5.166-3.398 6.25-6.25 6.25S5.75 19.166 5.75 14v-4c0-4.719 2.835-6.028 5.5-6.22v2.108A2.247 2.247 0 0 0 9.75 8v1.5c0 1.241 1.01 2.25 2.25 2.25s2.25-1.009 2.25-2.25V8c0-.976-.629-1.801-1.5-2.112V3.78c2.665.192 5.5 1.501 5.5 6.22v4Z"/></svg>