<svg xmlns="http://www.w3.org/2000/svg" width="24" height="24" fill="none"><path fill="currentColor" d="M19.962 2.627c-.524-.397-1.243-.484-2.075-.25l-4.636 1.302a2.778 2.778 0 0 0-2.001 2.65v7.957a4.21 4.21 0 0 0-2.75-1.037 4.255 4.255 0 0 0-4.25 4.25 4.255 4.255 0 0 0 4.25 4.25 4.255 4.255 0 0 0 4.25-4.25V12c0-.662.387-1.255.912-1.408l5.438-1.52c1.018-.282 1.649-1.06 1.649-2.033v-2.5c.001-.87-.265-1.514-.787-1.911ZM8.5 20.25a2.752 2.752 0 0 1-2.75-2.75 2.752 2.752 0 0 1 2.75-2.75 2.752 2.752 0 0 1 2.75 2.75 2.752 2.752 0 0 1-2.75 2.75ZM19.25 7.04c0 .107 0 .435-.552.588L13.251 9.15c-.176.051-.343.12-.501.206V6.331c0-.563.369-1.05.913-1.208l4.63-1.3a1.75 1.75 0 0 1 .46-.072c.133 0 .238.024.303.073.124.093.194.354.194.717v2.5Z"/></svg>