<svg xmlns="http://www.w3.org/2000/svg" width="24" height="24" fill="none"><path fill="currentColor" d="M17 2.25H7C4.582 2.25 3.25 3.582 3.25 6v12c0 2.418 1.332 3.75 3.75 3.75h10c2.418 0 3.75-1.332 3.75-3.75V6c0-2.418-1.332-3.75-3.75-3.75ZM19.25 18c0 1.577-.673 2.25-2.25 2.25H7c-1.577 0-2.25-.673-2.25-2.25V6c0-1.577.673-2.25 2.25-2.25h10c1.577 0 2.25.673 2.25 2.25v12ZM8.75 8a.75.75 0 1 1-1.5 0 .75.75 0 0 1 1.5 0Zm0 4a.75.75 0 1 1-1.5 0 .75.75 0 0 1 1.5 0Zm0 4a.75.75 0 1 1-1.5 0 .75.75 0 0 1 1.5 0Zm8-8a.75.75 0 0 1-.75.75h-5a.75.75 0 0 1 0-1.5h5a.75.75 0 0 1 .75.75Zm0 4a.75.75 0 0 1-.75.75h-5a.75.75 0 0 1 0-1.5h5a.75.75 0 0 1 .75.75Zm0 4a.75.75 0 0 1-.75.75h-5a.75.75 0 0 1 0-1.5h5a.75.75 0 0 1 .75.75Z"/></svg>