<svg xmlns="http://www.w3.org/2000/svg" width="24" height="24" fill="none"><path fill="currentColor" d="m21.413 8.717-1.07-3.747c-.382-1.337-.777-2.72-3.605-2.72H7.263c-2.828 0-3.224 1.383-3.605 2.72l-1.07 3.747a8.729 8.729 0 0 0-.337 2.404V18c0 2.418 1.332 3.75 3.75 3.75h12c2.418 0 3.75-1.332 3.75-3.75v-6.88a8.76 8.76 0 0 0-.338-2.403Zm-2.512-3.335 1.07 3.747c.01.04.015.082.026.122H12.75v-5.5h3.987c1.698-.001 1.815.41 2.164 1.631Zm-13.802 0c.35-1.221.467-1.632 2.164-1.632h3.987v5.5H4.003c.011-.04.014-.082.026-.121L5.1 5.382ZM20.25 18c0 1.577-.673 2.25-2.25 2.25H6c-1.577 0-2.25-.673-2.25-2.25v-6.88c0-.124.019-.247.026-.37h16.448c.006.124.026.246.026.37V18Zm-4.979-4.495-1.559-.222-.669-1.328c-.199-.395-.6-.64-1.044-.64-.444 0-.845.245-1.044.64l-.669 1.328-1.56.222a1.13 1.13 0 0 0-.627 1.938l1.117 1.066-.253 1.448c-.077.435.098.868.455 1.13.359.265.832.303 1.23.098l1.35-.694 1.351.695a1.166 1.166 0 0 0 1.23-.098c.356-.262.531-.695.454-1.129l-.253-1.449 1.117-1.066c.315-.301.429-.745.297-1.159a1.126 1.126 0 0 0-.923-.78Zm-1.668 2.056a1.131 1.131 0 0 0-.332 1.01l.17.974-.916-.471a1.154 1.154 0 0 0-1.047-.001l-.917.471.171-.975a1.131 1.131 0 0 0-.334-1.009l-.708-.676.994-.142c.368-.052.688-.28.858-.614l.459-.911.461.914c.169.33.488.558.856.61l.994.142-.709.678Z"/></svg>