<svg xmlns="http://www.w3.org/2000/svg" width="24" height="24" fill="none"><path fill="currentColor" d="M8.5 21.75h-2c-1.409 0-2.25-.841-2.25-2.25v-15c0-1.409.841-2.25 2.25-2.25h2c1.409 0 2.25.841 2.25 2.25v15c0 1.409-.841 2.25-2.25 2.25Zm-2-18c-.589 0-.75.161-.75.75v15c0 .589.161.75.75.75h2c.589 0 .75-.161.75-.75v-15c0-.589-.161-.75-.75-.75h-2Zm11 18h-2c-1.409 0-2.25-.841-2.25-2.25v-15c0-1.409.841-2.25 2.25-2.25h2c1.409 0 2.25.841 2.25 2.25v15c0 1.409-.841 2.25-2.25 2.25Zm-2-18c-.589 0-.75.161-.75.75v15c0 .589.161.75.75.75h2c.589 0 .75-.161.75-.75v-15c0-.589-.161-.75-.75-.75h-2Z"/></svg>