<svg xmlns="http://www.w3.org/2000/svg" width="24" height="24" fill="none"><path fill="currentColor" d="M12 22.75C6.072 22.75 1.25 17.928 1.25 12S6.072 1.25 12 1.25 22.75 6.072 22.75 12 17.928 22.75 12 22.75Zm0-20c-5.101 0-9.25 4.149-9.25 9.25s4.149 9.25 9.25 9.25 9.25-4.149 9.25-9.25S17.101 2.75 12 2.75Zm-1.932 14H8.931c-.87 0-1.432-.556-1.432-1.417V8.666c0-.86.562-1.417 1.432-1.417h1.137c.87 0 1.432.556 1.432 1.417v6.667c0 .861-.562 1.417-1.432 1.417ZM9 15.25h.996L10 8.755l-.996-.004L9 15.25Zm6.068 1.5h-1.137c-.87 0-1.432-.556-1.432-1.417V8.666c0-.86.562-1.417 1.432-1.417h1.137c.87 0 1.432.556 1.432 1.417v6.667c0 .861-.562 1.417-1.432 1.417ZM14 15.25h.996L15 8.755l-.996-.004L14 15.25Z"/></svg>