<svg xmlns="http://www.w3.org/2000/svg" width="24" height="24" fill="none"><path fill="currentColor" d="M8 16.75a.75.75 0 0 1-.53-1.281l8-8a.75.75 0 1 1 1.061 1.061l-8 8a.748.748 0 0 1-.531.22Zm8.75-2c0-1.103-.897-2-2-2s-2 .897-2 2 .897 2 2 2 2-.897 2-2Zm-1.5 0a.5.5 0 1 1-1 0 .5.5 0 0 1 1 0Zm-4-5.5c0-1.103-.897-2-2-2s-2 .897-2 2 .897 2 2 2 2-.897 2-2Zm-1.5 0a.5.5 0 1 1-1 0 .5.5 0 0 1 1 0Zm12 8.375V6.375c0-2.66-1.465-4.125-4.125-4.125H6.375c-2.66 0-4.125 1.465-4.125 4.125v11.25c0 2.66 1.465 4.125 4.125 4.125h11.25c2.66 0 4.125-1.465 4.125-4.125ZM17.625 3.75c1.84 0 2.625.785 2.625 2.625v11.25c0 1.84-.785 2.625-2.625 2.625H6.375c-1.84 0-2.625-.785-2.625-2.625V6.375c0-1.84.785-2.625 2.625-2.625h11.25Z"/></svg>