<svg xmlns="http://www.w3.org/2000/svg" width="24" height="24" fill="none"><path fill="currentColor" d="m20.651 15.105-2.643-1.576a2.803 2.803 0 0 0-3.763.847l-.762 1.137a10.931 10.931 0 0 1-4.996-5.009l1.131-.752a2.8 2.8 0 0 0 .86-3.759l-1.564-2.64a2.254 2.254 0 0 0-2.396-1.057 5.345 5.345 0 0 0-3.487 2.427 5.155 5.155 0 0 0-.596 4.109c1.693 6.161 6.574 11.039 12.74 12.731a5.19 5.19 0 0 0 1.376.187 5.18 5.18 0 0 0 2.73-.784 5.34 5.34 0 0 0 2.425-3.487 2.253 2.253 0 0 0-1.055-2.374Zm-.416 2.081a3.84 3.84 0 0 1-1.743 2.505c-.888.548-1.925.7-2.92.427-5.658-1.553-10.138-6.029-11.69-11.682a3.663 3.663 0 0 1 .426-2.924A3.845 3.845 0 0 1 6.83 3.765a.748.748 0 0 1 .793.354l1.563 2.639a1.3 1.3 0 0 1-.398 1.745l-1.66 1.105a.749.749 0 0 0-.278.913 12.412 12.412 0 0 0 6.614 6.629.752.752 0 0 0 .912-.274l1.115-1.665a1.304 1.304 0 0 1 1.75-.394l2.641 1.576a.751.751 0 0 1 .353.793Zm-5.927-7.899A.75.75 0 0 1 14.25 9V5.667a.75.75 0 0 1 1.5 0V7.19l3.72-3.72a.75.75 0 1 1 1.061 1.061l-3.72 3.72h1.522a.75.75 0 0 1 0 1.5H15a.751.751 0 0 1-.692-.464Z"/></svg>