<svg xmlns="http://www.w3.org/2000/svg" width="24" height="24" fill="none"><path fill="currentColor" d="M19 3.25h-7.27c-.097-1.253-.909-2-2.23-2h-3c-1.34 0-2.157.767-2.235 2.053C2.317 3.556 1.25 4.841 1.25 7v11c0 2.418 1.332 3.75 3.75 3.75a.75.75 0 0 0 0-1.5c-1.577 0-2.25-.673-2.25-2.25V7c0-1.295.464-1.973 1.5-2.176V16.5c0 1.409.841 2.25 2.25 2.25h.75V19c0 1.241 1.01 2.25 2.25 2.25h1a.75.75 0 0 1 .75.75.75.75 0 0 0 1.5 0c0-1.241-1.01-2.25-2.25-2.25h-1a.75.75 0 0 1-.75-.75v-.25h.75c1.409 0 2.25-.841 2.25-2.25V4.75H19c1.577 0 2.25.673 2.25 2.25v11c0 1.577-.673 2.25-2.25 2.25h-4a.75.75 0 0 0 0 1.5h4c2.418 0 3.75-1.332 3.75-3.75V7c0-2.418-1.332-3.75-3.75-3.75ZM10.25 16.5c0 .589-.161.75-.75.75h-3c-.589 0-.75-.161-.75-.75v-13c0-.589.161-.75.75-.75h3c.589 0 .75.161.75.75v13ZM18 11.75c1.24 0 2.25-1.009 2.25-2.25S19.24 7.25 18 7.25h-3a2.253 2.253 0 0 0-2.25 2.25c0 1.241 1.01 2.25 2.25 2.25h3ZM14.25 9.5a.75.75 0 0 1 .75-.75h3a.75.75 0 0 1 0 1.5h-3a.75.75 0 0 1-.75-.75ZM19 14a1 1 0 1 1-2 0 1 1 0 0 1 2 0Zm-4-1a1 1 0 1 1 0 2 1 1 0 0 1 0-2Zm4 4a1 1 0 1 1-2 0 1 1 0 0 1 2 0Zm-5 0a1 1 0 1 1 2 0 1 1 0 0 1-2 0Z"/></svg>