<svg xmlns="http://www.w3.org/2000/svg" width="24" height="24" fill="none"><path fill="currentColor" d="M16.552 21.752c-.459 0-.92-.062-1.377-.187C9.011 19.873 4.13 14.995 2.436 8.834a5.15 5.15 0 0 1 .596-4.109 5.342 5.342 0 0 1 3.487-2.427 2.26 2.26 0 0 1 2.396 1.057l1.563 2.639a2.8 2.8 0 0 1-.859 3.759l-1.13.752a10.926 10.926 0 0 0 4.995 5.009l.762-1.137a2.801 2.801 0 0 1 3.763-.847l2.643 1.576a2.254 2.254 0 0 1 1.055 2.375 5.34 5.34 0 0 1-2.426 3.487 5.182 5.182 0 0 1-2.729.784ZM6.978 3.75a.726.726 0 0 0-.147.015 3.843 3.843 0 0 0-2.52 1.747c-.55.89-.7 1.929-.427 2.924 1.553 5.654 6.032 10.13 11.688 11.682a3.664 3.664 0 0 0 2.921-.427 3.838 3.838 0 0 0 1.743-2.505.752.752 0 0 0-.352-.792l-2.643-1.576a1.302 1.302 0 0 0-1.749.394l-1.115 1.665a.751.751 0 0 1-.912.274 12.412 12.412 0 0 1-6.614-6.629.751.751 0 0 1 .277-.913l1.661-1.105a1.3 1.3 0 0 0 .398-1.745L7.624 4.12a.75.75 0 0 0-.646-.37Zm7.891 11.044h.01-.01ZM17.75 10A3.755 3.755 0 0 0 14 6.25a.75.75 0 0 0 0 1.5c1.24 0 2.25 1.009 2.25 2.25a.75.75 0 0 0 1.5 0Zm3 0A6.758 6.758 0 0 0 14 3.25a.75.75 0 0 0 0 1.5A5.256 5.256 0 0 1 19.25 10a.75.75 0 0 0 1.5 0Z"/></svg>