<svg xmlns="http://www.w3.org/2000/svg" width="24" height="24" fill="none"><path fill="currentColor" d="M10.283 16.752c-.35 0-.7-.09-1.023-.271a2.058 2.058 0 0 1-1.065-1.817V9.336c0-.764.398-1.443 1.065-1.817a2.064 2.064 0 0 1 2.113.041l4.48 2.74c.596.366.953 1.001.953 1.701 0 .7-.357 1.335-.954 1.7l-4.479 2.74a2.086 2.086 0 0 1-1.09.311Zm.002-8.002a.6.6 0 0 0-.292.078.57.57 0 0 0-.299.508v5.328a.57.57 0 0 0 .299.508c.091.051.33.153.597-.011l4.479-2.74a.486.486 0 0 0 .237-.421.484.484 0 0 0-.237-.42L10.59 8.84a.566.566 0 0 0-.305-.09Zm1.715 14C6.072 22.75 1.25 17.928 1.25 12S6.072 1.25 12 1.25 22.75 6.072 22.75 12 17.928 22.75 12 22.75Zm0-20c-5.101 0-9.25 4.149-9.25 9.25s4.149 9.25 9.25 9.25 9.25-4.149 9.25-9.25S17.101 2.75 12 2.75Z"/></svg>