<svg xmlns="http://www.w3.org/2000/svg" width="24" height="24" fill="none"><path fill="currentColor" d="M18 8.25H6c-2.418 0-3.75 1.332-3.75 3.75v7c0 2.418 1.332 3.75 3.75 3.75h12c2.418 0 3.75-1.332 3.75-3.75v-7c0-2.418-1.332-3.75-3.75-3.75ZM20.25 19c0 1.577-.673 2.25-2.25 2.25H6c-1.577 0-2.25-.673-2.25-2.25v-7c0-1.577.673-2.25 2.25-2.25h12c1.577 0 2.25.673 2.25 2.25v7Zm-15-13A.75.75 0 0 1 6 5.25h12a.75.75 0 0 1 0 1.5H6A.75.75 0 0 1 5.25 6Zm2-3A.75.75 0 0 1 8 2.25h8a.75.75 0 0 1 0 1.5H8A.75.75 0 0 1 7.25 3Zm7.723 11.115-3.148-1.927a1.693 1.693 0 0 0-1.711-.033 1.667 1.667 0 0 0-.863 1.472v3.746c0 .619.322 1.169.863 1.472a1.69 1.69 0 0 0 1.711-.033l3.147-1.926c.487-.298.778-.816.778-1.386s-.291-1.088-.777-1.385Zm-.784 1.491-3.148 1.927a.182.182 0 0 1-.194.004.18.18 0 0 1-.097-.164v-3.746c0-.09.053-.14.097-.164a.19.19 0 0 1 .095-.026.19.19 0 0 1 .1.03l3.148 1.927h.001c.039.024.06.06.06.105a.121.121 0 0 1-.062.107Z"/></svg>