<svg xmlns="http://www.w3.org/2000/svg" width="24" height="24" fill="none"><path fill="currentColor" d="M21 2.25H3a.75.75 0 0 0 0 1.5h.75V13c0 2.418 1.332 3.75 3.75 3.75h3.75v1.849l-2.666 1.777a.75.75 0 1 0 .832 1.248L12 19.901l2.584 1.723a.748.748 0 0 0 1.041-.208.75.75 0 0 0-.208-1.04l-2.666-1.777V16.75h3.75c2.418 0 3.75-1.332 3.75-3.75V3.75H21a.75.75 0 0 0 0-1.5ZM18.75 13c0 1.577-.673 2.25-2.25 2.25h-9c-1.577 0-2.25-.673-2.25-2.25V3.75h13.5V13Zm-9.137-.155a1.69 1.69 0 0 0 1.711-.033l3.148-1.927a1.61 1.61 0 0 0 .777-1.385c0-.57-.291-1.088-.777-1.385l-3.149-1.927a1.693 1.693 0 0 0-1.711-.033 1.666 1.666 0 0 0-.863 1.472v3.746c.001.619.324 1.169.864 1.472Zm.637-5.218a.18.18 0 0 1 .096-.164.193.193 0 0 1 .095-.026c.031 0 .064.008.1.03l3.149 1.927c.04.024.06.06.06.106s-.02.082-.06.106l-3.149 1.927a.184.184 0 0 1-.195.004.18.18 0 0 1-.096-.164V7.627Z"/></svg>