<svg xmlns="http://www.w3.org/2000/svg" width="24" height="24" fill="none"><path fill="currentColor" d="M20.78 7.22c.644.644.97 1.579.97 2.78v5.5c0 1.241-1.01 2.25-2.25 2.25h-1.75V20c0 .965-.785 1.75-1.75 1.75H8a1.76 1.76 0 0 1-1.226-.495.751.751 0 0 1 1.032-1.09c.079.075.143.085.194.085h8c.136 0 .25-.114.25-.25v-4.25H13a.75.75 0 0 1 0-1.5h4a.75.75 0 0 1 .75.75v1.25h1.75a.75.75 0 0 0 .75-.75V10c0-.789-.179-1.368-.53-1.72a.75.75 0 1 1 1.06-1.06ZM3.53 21.53a.748.748 0 0 1-1.06 0 .75.75 0 0 1 0-1.061l2.72-2.72h-.689a2.253 2.253 0 0 1-2.25-2.25v-5.5c0-2.418 1.332-3.75 3.75-3.75h.25V4c0-.965.785-1.75 1.75-1.75h7c.199 0 .39.079.53.22l2 2a.75.75 0 0 1 .22.53v.189l2.72-2.72a.75.75 0 1 1 1.061 1.061l-18.002 18ZM7.75 6.25h8.5v-.939L14.689 3.75H8a.25.25 0 0 0-.25.25v2.25Zm-3.25 10h1.75V15a.75.75 0 0 1 .75-.75h1.689l6.5-6.5H6c-1.577 0-2.25.673-2.25 2.25v5.5c0 .414.337.75.75.75Z"/></svg>