<svg xmlns="http://www.w3.org/2000/svg" width="24" height="24" fill="none"><path fill="currentColor" d="M19 21.75h-3.5c-.689 0-1.25-.561-1.25-1.25V19c0-.689-.561-1.25-1.25-1.25s-1.25.561-1.25 1.25v1.5c0 .689-.561 1.25-1.25 1.25H8A2.753 2.753 0 0 1 5.25 19v-2.25H4A2.753 2.753 0 0 1 1.25 14 2.753 2.753 0 0 1 4 11.25h1.25V9A2.753 2.753 0 0 1 8 6.25h2.25V5A2.753 2.753 0 0 1 13 2.25 2.753 2.753 0 0 1 15.75 5v1.25H19A2.753 2.753 0 0 1 21.75 9v2.5c0 .689-.561 1.25-1.25 1.25H19c-.689 0-1.25.561-1.25 1.25s.561 1.25 1.25 1.25h1.5c.689 0 1.25.561 1.25 1.25V19A2.753 2.753 0 0 1 19 21.75Zm-3.25-1.5H19c.689 0 1.25-.561 1.25-1.25v-2.25H19A2.753 2.753 0 0 1 16.25 14 2.753 2.753 0 0 1 19 11.25h1.25V9c0-.689-.561-1.25-1.25-1.25h-3.5c-.689 0-1.25-.561-1.25-1.25V5c0-.689-.561-1.25-1.25-1.25s-1.25.561-1.25 1.25v1.5c0 .689-.561 1.25-1.25 1.25H8c-.689 0-1.25.561-1.25 1.25v2.5c0 .689-.561 1.25-1.25 1.25H4c-.689 0-1.25.561-1.25 1.25s.561 1.25 1.25 1.25h1.5c.689 0 1.25.561 1.25 1.25V19c0 .689.561 1.25 1.25 1.25h2.25V19A2.753 2.753 0 0 1 13 16.25 2.753 2.753 0 0 1 15.75 19v1.25Z"/></svg>