<svg xmlns="http://www.w3.org/2000/svg" width="24" height="24" fill="none"><path fill="currentColor" d="M12 13.875a.75.75 0 0 1-.71-.989c.18-.54.65-1.049 1.477-1.604 1.021-.684.89-1.434.847-1.68a1.669 1.669 0 0 0-1.311-1.325 1.617 1.617 0 0 0-1.349.354 1.666 1.666 0 0 0-.595 1.28.75.75 0 0 1-1.5 0c0-.941.412-1.826 1.131-2.43a3.142 3.142 0 0 1 2.574-.68c1.267.224 2.306 1.27 2.527 2.545.22 1.26-.31 2.392-1.489 3.183-.73.49-.867.763-.892.835a.75.75 0 0 1-.71.511Zm1.02 2.625a1 1 0 0 0-1-1h-.01a.996.996 0 0 0-.995 1c0 .552.453 1 1.005 1a1 1 0 0 0 1-1Zm8.73 1.125V6.375c0-2.66-1.465-4.125-4.125-4.125H6.375c-2.66 0-4.125 1.465-4.125 4.125v11.25c0 2.66 1.465 4.125 4.125 4.125h11.25c2.66 0 4.125-1.465 4.125-4.125ZM17.625 3.75c1.84 0 2.625.785 2.625 2.625v11.25c0 1.84-.785 2.625-2.625 2.625H6.375c-1.84 0-2.625-.785-2.625-2.625V6.375c0-1.84.785-2.625 2.625-2.625h11.25Z"/></svg>