<svg xmlns="http://www.w3.org/2000/svg" width="24" height="24" fill="none"><path fill="currentColor" d="M14.463 14.621a.75.75 0 0 0-1.05-.268c-.832.519-1.994.519-2.826 0a.747.747 0 0 0-1.05.268l-2.439 4.32c-.17.302-.211.664-.113.993.097.323.313.586.61.742A9.513 9.513 0 0 0 12 21.75a9.5 9.5 0 0 0 4.404-1.074l.001-.001c.297-.154.514-.417.61-.741a1.287 1.287 0 0 0-.113-.993l-2.439-4.32Zm-5.938 4.842 1.97-3.489a4.296 4.296 0 0 0 3.01 0l1.97 3.489a8.102 8.102 0 0 1-6.95 0Zm8.84-16.007a1.232 1.232 0 0 0-.967-.172 1.262 1.262 0 0 0-.802.606l-2.629 4.64a.75.75 0 0 0 .302 1.033c.868.459 1.418 1.303 1.471 2.258.022.397.371.708.77.708h4.979c.35 0 .688-.146.926-.401.232-.25.354-.585.333-.923-.179-3.13-1.815-6.026-4.383-7.749Zm-1.229 7.574a4.277 4.277 0 0 0-1.517-2.371l2.147-3.792c1.973 1.427 3.249 3.696 3.465 6.163h-4.095Zm-6.876.791c.053-.955.603-1.8 1.47-2.258a.75.75 0 0 0 .303-1.033L8.405 3.892a1.263 1.263 0 0 0-.803-.608 1.228 1.228 0 0 0-.969.173c-2.565 1.722-4.203 4.619-4.38 7.742-.023.34.098.678.332.929.238.255.576.401.926.401h5a.75.75 0 0 0 .749-.708Zm-5.491-.791c.216-2.467 1.493-4.737 3.465-6.163l2.147 3.792a4.277 4.277 0 0 0-1.517 2.37H3.769ZM12 10.75a1.25 1.25 0 1 1 0 2.5 1.25 1.25 0 0 1 0-2.5Z"/></svg>