<svg xmlns="http://www.w3.org/2000/svg" width="24" height="24" fill="none"><path fill="currentColor" d="M12 1.25C6.072 1.25 1.25 6.072 1.25 12S6.072 22.75 12 22.75 22.75 17.928 22.75 12 17.928 1.25 12 1.25Zm0 20c-5.101 0-9.25-4.149-9.25-9.25S6.899 2.75 12 2.75s9.25 4.149 9.25 9.25-4.149 9.25-9.25 9.25Zm1.96-7.321a.754.754 0 0 0-.468-.358.754.754 0 0 0-.583.091 1.78 1.78 0 0 1-1.818 0 .76.76 0 0 0-.583-.091.754.754 0 0 0-.468.358l-1.765 3.125a1.143 1.143 0 0 0-.097.877c.087.288.28.521.545.66a7.074 7.074 0 0 0 3.276.798c1.147 0 2.25-.269 3.276-.799h.001c.264-.138.457-.372.544-.66.087-.29.052-.609-.1-.88l-1.76-3.121Zm-4.176 3.504 1.226-2.17a3.31 3.31 0 0 0 1.98 0l1.226 2.17a5.625 5.625 0 0 1-4.432 0Zm6.207-11.637a1.092 1.092 0 0 0-.864-.154c-.302.073-.562.27-.71.538l-1.9 3.351a.753.753 0 0 0 .302 1.033c.563.297.919.842.953 1.459a.764.764 0 0 0 .764.708h3.596a1.11 1.11 0 0 0 1.117-1.179c-.135-2.325-1.352-4.477-3.258-5.756Zm-.841 5.434a3.232 3.232 0 0 0-.99-1.556l1.347-2.377a5.969 5.969 0 0 1 2.206 3.933H15.15Zm-4.921.792a1.757 1.757 0 0 1 .952-1.459.75.75 0 0 0 .302-1.033L9.587 6.184a1.114 1.114 0 0 0-.713-.542 1.092 1.092 0 0 0-.865.155c-1.906 1.28-3.123 3.432-3.255 5.749-.021.303.086.604.294.828.212.227.512.357.822.357h3.61a.753.753 0 0 0 .749-.709Zm-3.942-.792a5.969 5.969 0 0 1 2.206-3.933L9.84 9.674a3.224 3.224 0 0 0-.99 1.556H6.287ZM12 11.111a1 1 0 1 1 0 2 1 1 0 0 1 0-2Z"/></svg>