<svg xmlns="http://www.w3.org/2000/svg" width="24" height="24" fill="none"><path fill="currentColor" d="M12 21.749a2.242 2.242 0 0 1-1.59-.658l-2.021-2.019a.756.756 0 0 0-.981-.069L6.05 20.022c-.534.4-1.237.463-1.832.165a1.74 1.74 0 0 1-.968-1.565V5.379c0-.667.371-1.267.968-1.565a1.739 1.739 0 0 1 1.832.165l1.36 1.02a.753.753 0 0 0 .979-.07l2.02-2.019a2.253 2.253 0 0 1 3.182 0l2.02 2.02a.755.755 0 0 0 .981.069L17.95 3.98a1.739 1.739 0 0 1 1.832-.165c.597.298.968.898.968 1.565v13.243a1.74 1.74 0 0 1-.968 1.565 1.741 1.741 0 0 1-1.832-.165l-1.36-1.02a.753.753 0 0 0-.979.07l-2.02 2.019a2.245 2.245 0 0 1-1.591.657Zm-4.144-4.393c.581 0 1.16.222 1.594.655l2.02 2.02a.77.77 0 0 0 1.061 0l2.02-2.019a2.261 2.261 0 0 1 2.94-.209l1.36 1.02a.24.24 0 0 0 .262.024.241.241 0 0 0 .138-.224V5.38a.241.241 0 0 0-.138-.224.238.238 0 0 0-.262.024l-1.36 1.02a2.262 2.262 0 0 1-2.94-.209l-2.02-2.02a.752.752 0 0 0-1.061 0L9.45 5.99a2.261 2.261 0 0 1-2.94.209l-1.36-1.02a.238.238 0 0 0-.262-.024.241.241 0 0 0-.138.224v13.243c0 .135.087.198.138.224a.238.238 0 0 0 .262-.024l1.359-1.02a2.242 2.242 0 0 1 1.347-.446Zm6.436-.606c-.199 0-.398-.048-.583-.144L12 15.714l-1.708.891a1.25 1.25 0 0 1-1.324-.099 1.244 1.244 0 0 1-.496-1.225l.324-1.876-1.424-1.377a1.209 1.209 0 0 1-.312-1.251c.145-.447.523-.766.988-.833l1.975-.284.852-1.713a1.25 1.25 0 0 1 1.126-.697c.48 0 .912.267 1.126.697l.852 1.713 1.975.284c.465.067.844.386.988.833a1.21 1.21 0 0 1-.312 1.251l-1.424 1.377.325 1.878c.081.473-.109.942-.498 1.225-.222.16-.481.242-.741.242ZM12 14.18c.194 0 .389.046.566.139l1.399.73-.266-1.536a1.22 1.22 0 0 1 .355-1.085l1.118-1.081-1.554-.224a1.225 1.225 0 0 1-.92-.664l-.7-1.408-.699 1.406a1.23 1.23 0 0 1-.922.666l-1.553.224 1.119 1.082c.29.28.423.685.354 1.083l-.266 1.535 1.4-.729A1.25 1.25 0 0 1 12 14.18Zm3.099-.673c-.001 0-.001 0 0 0Zm.638-2.079h.011-.01Zm-3.955-2.814.001.002-.001-.002Z"/></svg>