<svg xmlns="http://www.w3.org/2000/svg" width="24" height="24" fill="none"><path fill="currentColor" d="M12 5.75A3.755 3.755 0 0 0 8.25 9.5 3.755 3.755 0 0 0 12 13.25a3.755 3.755 0 0 0 3.75-3.75A3.755 3.755 0 0 0 12 5.75Zm0 6A2.253 2.253 0 0 1 9.75 9.5c0-1.24 1.01-2.25 2.25-2.25s2.25 1.01 2.25 2.25c0 1.241-1.01 2.25-2.25 2.25Zm.75-3.375V9.5a.75.75 0 0 1-1.5 0V8.375a.75.75 0 0 1 1.5 0ZM22 21.25h-.25V13.5c0-1.24-1.01-2.25-2.25-2.25h-.75V7.072l.836.554a.748.748 0 0 0 1.039-.21.75.75 0 0 0-.211-1.04l-7.166-4.748a2.242 2.242 0 0 0-2.494-.001L3.586 6.375a.75.75 0 1 0 .828 1.251l.836-.554v4.178H4.5a2.253 2.253 0 0 0-2.25 2.25v7.75H2a.75.75 0 0 0 0 1.5h20a.75.75 0 0 0 0-1.5Zm-11.25 0V18c0-.689.561-1.25 1.25-1.25s1.25.561 1.25 1.25v3.25h-2.5Zm4 0V18A2.752 2.752 0 0 0 12 15.25 2.752 2.752 0 0 0 9.25 18v3.25h-5.5V13.5a.75.75 0 0 1 .75-.75H6a.75.75 0 0 0 .75-.75V6.078l4.834-3.202a.75.75 0 0 1 .834.001l4.832 3.201V12c0 .414.336.75.75.75h1.5a.75.75 0 0 1 .75.75v7.75h-5.5Zm-7.5-5.75a.75.75 0 1 1-1.5 0 .75.75 0 0 1 1.5 0Zm0 2.5a.75.75 0 1 1-1.5 0 .75.75 0 0 1 1.5 0Zm11-2.5a.75.75 0 1 1-1.5 0 .75.75 0 0 1 1.5 0Zm0 2.5a.75.75 0 1 1-1.5 0 .75.75 0 0 1 1.5 0Z"/></svg>