<svg xmlns="http://www.w3.org/2000/svg" width="24" height="24" fill="none"><path fill="currentColor" d="M9.125 8.065A3.726 3.726 0 0 0 9.75 6 3.754 3.754 0 0 0 6 2.25 3.754 3.754 0 0 0 2.25 6 3.754 3.754 0 0 0 6 9.75c.763 0 1.472-.232 2.065-.625L10.94 12l-2.875 2.875A3.726 3.726 0 0 0 6 14.25 3.754 3.754 0 0 0 2.25 18 3.754 3.754 0 0 0 6 21.75 3.754 3.754 0 0 0 9.75 18c0-.763-.232-1.472-.625-2.065L12 13.06l7.47 7.47a.748.748 0 0 0 1.06 0 .75.75 0 0 0 0-1.061L9.125 8.065ZM6 20.25A2.252 2.252 0 0 1 3.75 18 2.252 2.252 0 0 1 6 15.75a2.246 2.246 0 0 1 1.592.661c.407.407.658.969.658 1.589A2.252 2.252 0 0 1 6 20.25ZM3.75 6A2.252 2.252 0 0 1 6 3.75 2.252 2.252 0 0 1 8.25 6c0 .62-.252 1.181-.658 1.589l-.002.001-.001.002A2.244 2.244 0 0 1 6 8.25 2.252 2.252 0 0 1 3.75 6Zm10.22 4.03a.75.75 0 0 1 0-1.061l5.5-5.5a.75.75 0 1 1 1.061 1.061l-5.5 5.5a.748.748 0 0 1-1.061 0Z"/></svg>