<svg xmlns="http://www.w3.org/2000/svg" width="24" height="24" fill="none"><path fill="currentColor" d="m21.53 20.47-3.841-3.841A8.705 8.705 0 0 0 19.75 11c0-4.825-3.925-8.75-8.75-8.75S2.25 6.175 2.25 11s3.925 8.75 8.75 8.75a8.705 8.705 0 0 0 5.629-2.061l3.841 3.841a.748.748 0 0 0 1.06 0 .749.749 0 0 0 0-1.06ZM3.75 11c0-3.998 3.252-7.25 7.25-7.25s7.25 3.252 7.25 7.25-3.252 7.25-7.25 7.25S3.75 14.998 3.75 11ZM14 8.75H8a.75.75 0 0 0 0 1.5h6a.75.75 0 0 0 0-1.5Zm-2 3H8a.75.75 0 0 0 0 1.5h4a.75.75 0 0 0 0-1.5Z"/></svg>