<svg xmlns="http://www.w3.org/2000/svg" width="24" height="24" fill="none"><path fill="currentColor" d="M18 14.25a3.738 3.738 0 0 0-3.197 1.818l-5.331-2.665c.176-.434.278-.906.278-1.403s-.102-.969-.278-1.403l5.331-2.665A3.74 3.74 0 0 0 18 9.75 3.755 3.755 0 0 0 21.75 6 3.755 3.755 0 0 0 18 2.25 3.755 3.755 0 0 0 14.25 6c0 .173.028.339.051.506L8.636 9.338A3.735 3.735 0 0 0 5.999 8.25 3.755 3.755 0 0 0 2.249 12a3.755 3.755 0 0 0 3.75 3.75 3.74 3.74 0 0 0 2.637-1.088l5.665 2.832c-.023.167-.051.333-.051.506A3.755 3.755 0 0 0 18 21.75 3.755 3.755 0 0 0 21.75 18 3.755 3.755 0 0 0 18 14.25Zm0-10.5c1.24 0 2.25 1.009 2.25 2.25S19.24 8.25 18 8.25A2.253 2.253 0 0 1 15.75 6c0-1.241 1.01-2.25 2.25-2.25ZM6 14.25A2.253 2.253 0 0 1 3.75 12c0-1.241 1.01-2.25 2.25-2.25S8.25 10.759 8.25 12 7.24 14.25 6 14.25Zm12 6A2.253 2.253 0 0 1 15.75 18c0-1.241 1.01-2.25 2.25-2.25s2.25 1.009 2.25 2.25-1.01 2.25-2.25 2.25Z"/></svg>