<svg xmlns="http://www.w3.org/2000/svg" width="24" height="24" fill="none"><path fill="currentColor" d="M12 22.75a.741.741 0 0 1-.237-.039c-1.59-.53-9.513-3.589-9.513-11.823V5c0-.357.252-.666.603-.735 4.88-.976 6.61-1.834 8.801-2.92a.822.822 0 0 1 .702-.015c2.159 1.09 3.865 1.949 8.792 2.935A.75.75 0 0 1 21.75 5v5.889c0 8.234-7.924 11.293-9.513 11.823a.78.78 0 0 1-.238.038ZM3.75 5.612v5.276c0 6.865 6.418 9.66 8.25 10.317 1.832-.657 8.25-3.453 8.25-10.317V5.612c-4.423-.926-6.282-1.793-8.235-2.774-2.077 1.027-3.88 1.858-8.265 2.774Zm10.542 10.65c-.199 0-.398-.048-.584-.145L12 15.227l-1.708.89a1.247 1.247 0 0 1-1.324-.1 1.244 1.244 0 0 1-.496-1.225l.324-1.876-1.424-1.377a1.209 1.209 0 0 1-.312-1.25c.145-.448.523-.767.99-.834l1.973-.285.852-1.713a1.25 1.25 0 0 1 1.126-.696c.48 0 .912.267 1.126.696l.852 1.713 1.975.285c.465.066.844.386.988.833a1.21 1.21 0 0 1-.312 1.251l-1.424 1.377.325 1.878a1.258 1.258 0 0 1-1.239 1.468ZM12 13.691c.194 0 .389.046.566.14l1.4.73-.267-1.536a1.22 1.22 0 0 1 .356-1.086l1.117-1.08-1.554-.224a1.226 1.226 0 0 1-.92-.664l-.7-1.408-.699 1.406c-.18.36-.523.608-.92.666l-1.555.224 1.12 1.082c.29.279.422.685.353 1.083l-.266 1.536 1.399-.73c.18-.092.376-.139.57-.139Zm-3.097-.67h.001Zm6.196-.003c0 .001 0 .001 0 0Zm.639-2.078h.01-.01Zm-3.956-2.815.001.001h-.001Z"/></svg>