<svg xmlns="http://www.w3.org/2000/svg" width="24" height="24" fill="none"><path fill="currentColor" d="M22.75 15.5v-1.44c-.05-1.66-1.1-4.8-4.75-4.8-2.8 0-6.14-2.79-6.18-2.82a.71.71 0 0 0-.22-.13 1.04 1.04 0 0 0-1.04.19c-1.76 1.52-4.96 1.6-6.6.17-.26-.22-.6-.31-.93-.25-.32.07-.58.28-.72.58-.18.39-1.06 2.5-1.06 6 0 .95.07 1.78.15 2.49.07.56.14 1.05.22 1.43a2.26 2.26 0 0 0 2.21 1.82H20.5c1.24 0 2.25-1.01 2.25-2.25v-.99ZM3.47 8.18c2.17 1.47 5.56 1.36 7.76-.29.25.19.62.46 1.06.76l-.82.82c-.29.29-.29.77 0 1.06.15.15.34.22.53.22s.38-.07.53-.22l1.09-1.09c.39.21.8.42 1.24.61l-.39.39c-.29.29-.29.77 0 1.06.15.15.34.22.53.22s.38-.07.53-.22l.94-.94c.51.12 1.02.21 1.53.21 3.04 0 3.24 3 3.25 3.32v.67H6.7c-.22-2.51-1.52-4.04-3.75-4.39.15-.98.36-1.72.52-2.18v-.01Zm-.72 4.83c0-.42.02-.8.04-1.18.9.15 2.18.69 2.42 2.92H2.83c-.05-.53-.08-1.11-.08-1.75v.01Zm17.75 4.24H3.83a.75.75 0 0 1-.74-.6c-.02-.11-.05-.26-.07-.39h18.23v.25c0 .41-.34.75-.75.75v-.01Z"/></svg>