<svg xmlns="http://www.w3.org/2000/svg" width="24" height="24" fill="none"><path fill="currentColor" d="m17.49 12.25-2.33-5.21c-.23-.51-.79-.81-1.35-.72-3.66.59-4.25-1.66-4.64-3.15l-.08-.3c-.04-.15-.2-.52-.75-.61-.71-.12-1.83.28-2.61 1.43l-4.06 6.33c-.77 1.21-.48 2.82.67 3.68l9.98 7.49c.47.35 1.06.55 1.65.55h6.52c1.24 0 2.25-1.01 2.25-2.25v-1.82c0-2.94-2.35-5.34-5.26-5.42h.01ZM7 4.52c.27-.41.58-.61.8-.7.41 1.51 1.51 4.66 6.07 4.01l.3.66h-2.16c-.41 0-.75.34-.75.75s.34.75.75.75h2.84l.45 1h-2.28c-.41 0-.75.34-.75.75s.34.75.75.75h2.95l.23.51c.2.45.65.74 1.14.74 2.02 0 3.67 1.54 3.88 3.5h-6.23c-.27 0-.53-.09-.75-.25L3.96 9.28l3.05-4.76H7Zm13.51 15.73h-6.52c-.27 0-.54-.09-.75-.25l-9.98-7.49c-.52-.39-.65-1.13-.3-1.67l.18-.29 10.19 7.65c.47.35 1.06.55 1.65.55h6.27v.75c0 .41-.34.75-.75.75h.01ZM9.76 21c0 .41-.34.75-.75.75h-7c-.41 0-.75-.34-.75-.75s.34-.75.75-.75h7c.41 0 .75.34.75.75Zm-8.5-3.5c0-.41.34-.75.75-.75h2c.41 0 .75.34.75.75s-.34.75-.75.75h-2c-.41 0-.75-.34-.75-.75Z"/></svg>