<svg xmlns="http://www.w3.org/2000/svg" width="24" height="24" fill="none"><path fill="currentColor" d="M18.154 4.25H13.75V3a.75.75 0 0 0-1.5 0v1.25H8.207c-.601 0-1.166.234-1.591.659L3.762 7.763a1.753 1.753 0 0 0 0 2.475l2.854 2.854c.425.425.99.659 1.591.659h4.043v6.5H10a.75.75 0 0 0 0 1.5h6a.75.75 0 0 0 0-1.5h-2.25v-6.5h4.404c1.65 0 2.596-.946 2.596-2.596V6.847c0-1.651-.946-2.597-2.596-2.597Zm1.096 6.904c0 .82-.276 1.096-1.096 1.096H8.207a.743.743 0 0 1-.53-.22L4.823 9.176a.252.252 0 0 1 0-.354l2.854-2.854a.744.744 0 0 1 .53-.22h9.947c.82 0 1.096.276 1.096 1.096v4.31Z"/></svg>