<svg xmlns="http://www.w3.org/2000/svg" width="24" height="24" fill="none"><path fill="currentColor" d="M22 14.46c0 1.4-1.09 2.54-2.43 2.54H12V8.72c.67-.45 1.45-.72 2.3-.72 2.26 0 4.09 1.83 4.26 4.16 1.63-.78 3.43.48 3.43 2.3H22ZM7 17h.83V9.94c-.3.11-.58.27-.83.46V17Zm3.33-7v7h.83V9.45c-.19.22-.37.45-.52.7l-.32-.15h.01Zm-1.67-.25V17h.83V9.76c-.42-.06-.52-.04-.83 0v-.01Zm-3.33 2.61V17h.83v-5.74c-.26.37-.46.79-.58 1.26l-.26-.15.01-.01Zm-2.5 4.05V12.7a2.496 2.496 0 0 0 0 3.72v-.01Zm.83-4.18v4.65c.37.12.53.11.83.11v-4.87c-.25-.02-.44-.02-.83.1v.01Z"/></svg>