<svg xmlns="http://www.w3.org/2000/svg" width="24" height="24" fill="none"><path fill="currentColor" d="M12 1.25C6.072 1.25 1.25 6.073 1.25 12S6.072 22.75 12 22.75 22.75 17.927 22.75 12 17.928 1.25 12 1.25Zm0 20c-5.101 0-9.25-4.149-9.25-9.25S6.899 2.75 12 2.75s9.25 4.149 9.25 9.25-4.149 9.25-9.25 9.25Zm2.779-13.449c-3.81 2.048-4.231 2.47-4.37 2.608-.425.425-.659.99-.659 1.591s.234 1.166.659 1.591c.425.425.99.659 1.591.659s1.166-.234 1.59-.659c.138-.137.558-.556 2.609-4.37a1.043 1.043 0 0 0-.182-1.239 1.043 1.043 0 0 0-1.238-.181ZM12.53 12.53l.53.53-.53-.53a.768.768 0 0 1-1.061 0 .744.744 0 0 1 0-1.06c.158-.155.959-.665 2.676-1.616-1.264 2.285-1.579 2.639-1.615 2.676ZM6.75 12c0 .945.237 1.826.706 2.618a.75.75 0 1 1-1.291.763 6.647 6.647 0 0 1-.915-3.382 6.758 6.758 0 0 1 8.207-6.594.75.75 0 0 1-.313 1.466C9.809 6.161 6.75 8.724 6.75 12Zm12 0c0 1.2-.316 2.369-.915 3.382a.749.749 0 1 1-1.291-.763 5.076 5.076 0 0 0 .706-2.618c0-.383-.041-.756-.124-1.142a.75.75 0 0 1 1.467-.316c.106.49.157.967.157 1.457Z"/></svg>