<svg xmlns="http://www.w3.org/2000/svg" width="24" height="24" fill="none"><path fill="currentColor" d="M21.53 2.47a.75.75 0 0 0-1.061 0l-5.166 5.165-1.67-3.363A1.805 1.805 0 0 0 12 3.251c-.701 0-1.327.391-1.632 1.016l-1.94 3.908a.26.26 0 0 1-.196.142l-4.48.65a1.741 1.741 0 0 0-1.416 1.199 1.722 1.722 0 0 0 .442 1.781l3.242 3.142a.245.245 0 0 1 .07.221l-.32 1.855-3.301 3.301a.75.75 0 0 0 1.06 1.061l18-17.996a.75.75 0 0 0 .001-1.061ZM7.071 14.019l-3.25-3.15a.228.228 0 0 1-.058-.244.243.243 0 0 1 .204-.175l4.484-.651a1.768 1.768 0 0 0 1.319-.958l1.942-3.914a.306.306 0 0 1 .286-.178c.074 0 .21.023.288.183l1.897 3.82-6.604 6.603a1.734 1.734 0 0 0-.508-1.336Zm14.593-3.853c.206.637.036 1.32-.442 1.782l-3.25 3.148a.239.239 0 0 0-.064.204l.742 4.32a1.808 1.808 0 0 1-.722 1.775 1.825 1.825 0 0 1-1.924.148l-3.883-2.042a.28.28 0 0 0-.255.007l-3.868 2.023c-.348.182-.724.25-1.095.198a.75.75 0 0 1 .213-1.485c.07.01.14-.018.187-.042l3.88-2.03a1.79 1.79 0 0 1 1.623-.006l3.893 2.046c.16.083.294.008.345-.029a.307.307 0 0 0 .128-.31l-.74-4.309c-.103-.55.08-1.129.49-1.538l3.258-3.157a.229.229 0 0 0 .058-.244.243.243 0 0 0-.205-.175l-1.617-.229a.75.75 0 0 1 .211-1.485l1.62.23a1.743 1.743 0 0 1 1.417 1.2Z"/></svg>