<svg xmlns="http://www.w3.org/2000/svg" width="24" height="24" fill="none"><path fill="currentColor" d="M12 22.75a2.398 2.398 0 0 1-1.934-.967l-1.499-2a.925.925 0 0 0-.734-.366h-1.5c-2.633 0-4.083-1.45-4.083-4.083v-10c0-2.633 1.45-4.083 4.083-4.083h11.334c2.633 0 4.083 1.45 4.083 4.083v10c0 2.633-1.45 4.083-4.083 4.083h-1.5a.921.921 0 0 0-.734.367l-1.5 1.999A2.394 2.394 0 0 1 12 22.75Zm-5.667-20c-1.811 0-2.583.772-2.583 2.583v10c0 1.811.772 2.583 2.583 2.583h1.5c.756 0 1.479.361 1.934.966l1.5 2.001c.35.466 1.118.466 1.466 0l1.501-2a2.433 2.433 0 0 1 1.934-.967h1.5c1.811 0 2.583-.773 2.583-2.583v-10c0-1.811-.772-2.583-2.583-2.583H6.333Zm8.363 13c-.214 0-.429-.052-.627-.156L12 14.505l-2.067 1.088c-.458.24-1 .202-1.417-.102a1.34 1.34 0 0 1-.536-1.32l.395-2.305-1.729-1.687a1.302 1.302 0 0 1-.331-1.342 1.3 1.3 0 0 1 1.056-.89l2.389-.348 1.034-2.098c.229-.464.69-.751 1.207-.751.517 0 .979.288 1.207.752L14.242 7.6l2.39.348c.495.072.899.413 1.055.89.155.477.028.992-.331 1.342l-1.729 1.687.396 2.307a1.34 1.34 0 0 1-.537 1.319c-.237.17-.512.257-.79.257ZM12 12.979c.209 0 .418.05.608.151l1.882.991-.359-2.099a1.308 1.308 0 0 1 .376-1.159l1.523-1.487-2.106-.306a1.304 1.304 0 0 1-.983-.717l-.94-1.907-.94 1.908c-.19.386-.558.654-.983.716l-2.106.306 1.523 1.487c.309.3.449.734.376 1.159l-.359 2.098 1.882-.991c.188-.1.397-.15.606-.15Zm4.415-3.547h.01-.01Zm-4.554-3.268c0 .001 0 .001 0 0 0 .001 0 .001 0 0Z"/></svg>