<svg xmlns="http://www.w3.org/2000/svg" width="24" height="24" fill="none"><path fill="currentColor" d="M11.745 20.882a.751.751 0 0 1-.657.833 4.83 4.83 0 0 1-.588.035c-4.549 0-8.25-3.701-8.25-8.25 0-4.549 3.701-8.25 8.25-8.25 1.849 0 3.583.633 4.986 1.703l.984-.984a.75.75 0 1 1 1.061 1.061l-.943.943a8.132 8.132 0 0 1 1.68 2.779.75.75 0 0 1-1.416.496A6.735 6.735 0 0 0 10.5 6.75a6.758 6.758 0 0 0-6.75 6.75 6.758 6.758 0 0 0 6.75 6.75c.14 0 .272-.008.412-.024a.742.742 0 0 1 .833.656ZM9.75 10v3.5a.75.75 0 0 0 1.5 0V10a.75.75 0 0 0-1.5 0ZM8 3.75h5a.75.75 0 0 0 0-1.5H8a.75.75 0 0 0 0 1.5Zm14.75 12.131c-.001.438-.172.85-.482 1.159l-5.516 5.491a.75.75 0 0 1-.53.218H14a.75.75 0 0 1-.75-.75v-2.222c0-.198.078-.389.219-.529l5.491-5.516a1.62 1.62 0 0 1 1.158-.482h.003c.438 0 .85.17 1.158.48l.99.99c.311.31.481.723.481 1.161Zm-2.727-1.09-.635.638 1.184 1.183.637-.634a.134.134 0 0 0 .041-.098.138.138 0 0 0-.041-.099l-.99-.99a.136.136 0 0 0-.196 0Zm-.514 2.879-1.179-1.179-3.581 3.596v1.163h1.163l3.597-3.58Z"/></svg>