<svg xmlns="http://www.w3.org/2000/svg" width="24" height="24" fill="none"><path fill="currentColor" d="m20.489 10.536-1.497-1.499c-.005-.005-.006-.012-.011-.017-.005-.005-.012-.006-.017-.011l-5.674-5.68a3.7 3.7 0 0 0-2.601-1.078H4.952a2.706 2.706 0 0 0-2.701 2.703v5.743c0 .983.383 1.907 1.077 2.602l5.676 5.682.007.01.01.007 1.508 1.509c.824.825 1.699 1.244 2.601 1.244.901 0 1.776-.419 2.6-1.244l4.762-4.766c1.674-1.679 1.674-3.527-.003-5.205Zm-16.739.16V4.953c0-.664.539-1.203 1.201-1.203h5.737c.573 0 1.135.233 1.54.638l5.159 5.164-7.845 7.845-5.154-5.16a2.19 2.19 0 0 1-.638-1.541Zm15.679 3.984-4.762 4.766c-1.066 1.067-2.013 1.067-3.079 0l-.986-.987 7.845-7.845.981.982c1.094 1.095 1.094 1.988.001 3.084ZM8 7c0 .552-.446 1-.998 1C6.452 8 6 7.552 6 7s.442-1 .993-1h.01C7.554 6 8 6.448 8 7Z"/></svg>