<svg xmlns="http://www.w3.org/2000/svg" width="24" height="24" fill="none"><path fill="currentColor" d="M20.971 8.183 15.817 3.03c-.719-.72-1.393-.815-1.833-.769-.631.067-1.216.47-1.647 1.137l-2.206 3.409a1.528 1.528 0 0 1-1.288.701 7.94 7.94 0 0 0-5.652 2.34.749.749 0 0 0 0 1.06l4.42 4.42L2.47 20.47a.75.75 0 0 0 1.06 1.061l5.141-5.142 4.42 4.419a.748.748 0 0 0 1.06 0 7.942 7.942 0 0 0 2.341-5.651c0-.522.262-1.004.701-1.288l3.41-2.207c.666-.431 1.07-1.017 1.137-1.647.046-.438-.05-1.112-.769-1.83Zm-1.183 2.22-3.41 2.206a3.023 3.023 0 0 0-1.386 2.547 6.444 6.444 0 0 1-1.401 4.03l-8.778-8.778a6.446 6.446 0 0 1 4.03-1.401 3.023 3.023 0 0 0 2.547-1.386l2.206-3.41c.175-.27.38-.442.547-.46.218-.017.478.203.614.338l5.154 5.154c.136.136.36.396.337.614-.018.167-.189.372-.46.546Z"/></svg>