<svg xmlns="http://www.w3.org/2000/svg" width="24" height="24" fill="none"><path fill="currentColor" d="M16 6.25h1.847a8.174 8.174 0 0 0-5.874-2.5c-4.534 0-8.224 3.701-8.224 8.25 0 4.549 3.689 8.25 8.224 8.25a8.134 8.134 0 0 0 7.353-4.58.75.75 0 0 1 1.348.66 9.626 9.626 0 0 1-8.7 5.42c-5.36 0-9.724-4.374-9.724-9.75s4.362-9.75 9.724-9.75a9.68 9.68 0 0 1 7.276 3.294V3a.75.75 0 0 1 1.5 0v4a.75.75 0 0 1-.75.75h-4a.75.75 0 0 1 0-1.5Zm-4 1a.75.75 0 0 0-.75.75v4c0 .199.079.39.22.53l2 2a.748.748 0 0 0 1.06 0 .75.75 0 0 0 0-1.061l-1.78-1.78V8a.75.75 0 0 0-.75-.75Z"/></svg>