<svg xmlns="http://www.w3.org/2000/svg" width="24" height="24" fill="none"><path fill="currentColor" d="M17 7.25a4.737 4.737 0 0 0-3.858 2H5a2.69 2.69 0 0 0-1.934.802A2.698 2.698 0 0 0 2.25 12 2.752 2.752 0 0 0 5 14.75h8.142a4.737 4.737 0 0 0 3.858 2A4.756 4.756 0 0 0 21.75 12 4.756 4.756 0 0 0 17 7.25Zm-12 6c-.689 0-1.25-.561-1.25-1.25 0-.335.129-.645.377-.887.229-.234.538-.363.873-.363h7.438A4.7 4.7 0 0 0 12.25 12c0 .436.078.849.188 1.25H5Zm12 2A3.254 3.254 0 0 1 13.75 12 3.254 3.254 0 0 1 17 8.75 3.254 3.254 0 0 1 20.25 12 3.254 3.254 0 0 1 17 15.25Z"/></svg>