<svg xmlns="http://www.w3.org/2000/svg" width="24" height="24" fill="none"><path fill="currentColor" d="M18.692 22.75H5.308a4.024 4.024 0 0 1-3.479-1.969 4.01 4.01 0 0 1-.098-3.983L8.337 4.443a4.09 4.09 0 0 1 3.661-2.192 4.09 4.09 0 0 1 3.66 2.192l6.607 12.355a4.004 4.004 0 0 1-.097 3.983 4.012 4.012 0 0 1-3.476 1.969ZM12 3.75c-.996 0-1.87.523-2.34 1.399L3.056 17.504a2.523 2.523 0 0 0 .062 2.505 2.534 2.534 0 0 0 2.192 1.24h13.384c.907 0 1.727-.464 2.192-1.24.463-.773.485-1.71.061-2.505L14.34 5.149A2.616 2.616 0 0 0 12 3.75ZM12.75 14v-4a.75.75 0 0 0-1.5 0v4a.75.75 0 0 0 1.5 0Zm.27 3a1 1 0 0 0-1-1h-.01a.996.996 0 0 0-.995 1c0 .552.453 1 1.005 1a1 1 0 0 0 1-1Z"/></svg>