<svg xmlns="http://www.w3.org/2000/svg" width="24" height="24" fill="none"><path fill="currentColor" d="M18 3.25H6c-2.418 0-3.75 1.414-3.75 3.981v7.538c0 2.567 1.332 3.981 3.75 3.981h12c2.418 0 3.75-1.414 3.75-3.981V7.231c0-2.567-1.332-3.981-3.75-3.981Zm2.25 11.519c0 1.739-.673 2.481-2.25 2.481H6c-1.577 0-2.25-.742-2.25-2.481V7.231c0-1.739.673-2.481 2.25-2.481h12c1.577 0 2.25.742 2.25 2.481v7.538ZM17.75 21a.75.75 0 0 1-.75.75H7a.75.75 0 0 1 0-1.5h10a.75.75 0 0 1 .75.75ZM14.973 9.615l-3.148-1.927a1.693 1.693 0 0 0-1.711-.033 1.666 1.666 0 0 0-.863 1.472v3.746c0 .619.322 1.169.863 1.472a1.69 1.69 0 0 0 1.711-.033l3.147-1.926c.487-.298.778-.816.778-1.386s-.291-1.088-.777-1.385Zm-.784 1.491-3.148 1.927a.182.182 0 0 1-.194.004.18.18 0 0 1-.097-.164V9.127c0-.09.053-.14.097-.164a.19.19 0 0 1 .095-.026.19.19 0 0 1 .1.03l3.148 1.927c.04.024.061.06.061.105a.121.121 0 0 1-.062.107Z"/></svg>