<svg xmlns="http://www.w3.org/2000/svg" width="24" height="24" fill="none"><path fill="currentColor" d="M22.58 5.43a.754.754 0 0 0-.68-.27c.1-.2.18-.41.25-.62.1-.3 0-.62-.24-.82a.755.755 0 0 0-.85-.06c-.61.36-1.29.63-1.99.8a4.934 4.934 0 0 0-3.23-1.21c-2.67 0-4.85 2.15-4.85 4.79v.09c-2.75-.36-5.27-1.75-7.02-3.87a.758.758 0 0 0-.64-.27c-.24.02-.46.16-.59.37-.44.74-.66 1.56-.66 2.42 0 .76.18 1.49.51 2.15-.06.02-.12.05-.17.08-.23.13-.37.41-.37.67 0 1.39.61 2.67 1.61 3.56-.16.2-.22.47-.14.71.42 1.3 1.38 2.33 2.59 2.88-1.25.56-2.67.78-4.04.62a.743.743 0 0 0-.79.5c-.12.33.01.7.31.88a12.51 12.51 0 0 0 6.7 1.93c7.77 0 12.41-6.22 12.41-12.24v-.16c.73-.57 1.37-1.25 1.91-2.02a.75.75 0 0 0-.03-.9v-.01ZM19.5 7.38c-.21.15-.33.4-.31.66.01.16.01.31.01.47 0 5.28-4.08 10.74-10.91 10.74-1.12 0-2.22-.17-3.27-.49 1.27-.29 2.46-.85 3.51-1.66.25-.19.35-.53.25-.83-.1-.3-.38-.51-.7-.52-1.03-.02-1.98-.5-2.58-1.26.26-.03.52-.07.77-.14.34-.09.57-.4.56-.75 0-.35-.26-.65-.6-.72a3.306 3.306 0 0 1-2.48-2.13c.29.06.58.1.87.11.38.02.64-.2.74-.52.1-.32-.02-.67-.3-.86a3.269 3.269 0 0 1-1.49-2.74c0-.22.02-.44.06-.65 2.16 2.13 5.07 3.42 8.16 3.58.23 0 .46-.08.61-.26.15-.18.21-.41.16-.64-.06-.27-.08-.53-.08-.77 0-1.81 1.5-3.29 3.35-3.29.94 0 1.81.37 2.45 1.04.18.18.43.27.68.22.05 0 .09-.02.14-.03-.21.2-.28.5-.19.78.1.31.39.52.71.52 0 0-.09.07-.14.1l.02.04Z"/></svg>