<svg xmlns="http://www.w3.org/2000/svg" width="24" height="24" fill="none"><path fill="currentColor" d="M17.5 14.25h-1.96c-.59 0-1.13.29-1.46.78l-.48.72H8.4l-.48-.72a1.75 1.75 0 0 0-1.46-.78H4.5c-1.24 0-2.25 1.01-2.25 2.25v3c0 1.24 1.01 2.25 2.25 2.25h1.96c.59 0 1.13-.29 1.46-.78l.48-.72h5.2l.48.72c.33.49.87.78 1.46.78h1.97c1.24 0 2.25-1.01 2.25-2.25v-3c0-1.24-1.01-2.25-2.25-2.25h-.01Zm.75 5.25c0 .41-.34.75-.75.75h-1.97a.26.26 0 0 1-.21-.11l-.61-.92c-.2-.29-.52-.47-.87-.47H8.16c-.35 0-.68.17-.87.47l-.61.92c-.05.07-.12.11-.21.11H4.51c-.41 0-.75-.34-.75-.75v-3c0-.41.34-.75.75-.75h1.96c.08 0 .16.04.21.11l.61.92c.2.29.52.47.87.47h5.68c.35 0 .68-.17.87-.47l.61-.92c.05-.07.12-.11.21-.11h1.96c.41 0 .75.34.75.75v3h.01Zm3.38-12.88-.96-2.84c-.19-.57-.6-1.03-1.13-1.3a2.19 2.19 0 0 0-1.72-.11L15.96 3c-.56.19-.98.64-1.13 1.2l-.22.84L9.69 6.7 9 6.17c-.46-.36-1.07-.46-1.63-.27l-1.86.63c-.57.19-1.03.59-1.3 1.13a2.19 2.19 0 0 0-.11 1.72l.96 2.84a2.248 2.248 0 0 0 2.85 1.41L9.77 13c.56-.19.98-.64 1.13-1.2l.23-.84 4.92-1.66.69.53c.46.36 1.07.46 1.63.27l1.86-.63c1.17-.4 1.81-1.68 1.41-2.85h-.01Zm-1.89 1.43-1.86.63c-.08.03-.17.01-.23-.04l-.88-.68a1.07 1.07 0 0 0-.98-.16l-5.38 1.82c-.33.11-.59.38-.68.72l-.29 1.07c-.02.08-.08.14-.16.17l-1.86.63a.753.753 0 0 1-.95-.47L5.51 8.9a.752.752 0 0 1 .47-.95l1.86-.63s.05-.01.08-.01c.05 0 .11.02.15.05l.88.68c.28.22.65.28.98.17l5.38-1.82c.33-.11.58-.38.68-.72l.29-1.07a.23.23 0 0 1 .16-.17l1.86-.63a.752.752 0 0 1 .95.47l.96 2.84c.13.39-.08.82-.47.95v-.01Z"/></svg>