<svg xmlns="http://www.w3.org/2000/svg" width="24" height="24" fill="none"><path fill="currentColor" d="m19.34 4.56-3.13-1.2v-.03c-.27-.66-.91-1.08-1.62-1.08H9.42c-.71 0-1.34.42-1.62 1.08v.03l-3.13 1.2a3.772 3.772 0 0 0-2.41 3.5v6.13c0 .75.38 1.46 1 1.87l1.89 1.26-.87 3.49c-.06.22 0 .46.14.64s.36.29.59.29h14a.754.754 0 0 0 .73-.93l-.87-3.49 1.89-1.26c.63-.42 1-1.12 1-1.87V8.05c0-1.54-.97-2.95-2.41-3.5l-.01.01Zm-9.93-.81h5.17c.15 0 .21.1.23.15.02.05.05.17-.05.27L12 6.93 9.24 4.17c-.1-.1-.08-.21-.05-.27.03-.06.09-.15.23-.15h-.01ZM3.75 14.2V8.07c0-.93.58-1.77 1.44-2.1l2.74-1.05c.07.11.14.23.24.33l2.76 2.76-4.19 4.19V9.01c0-.41-.34-.75-.75-.75s-.75.34-.75.75v6.6l-1.17-.78a.738.738 0 0 1-.33-.62l.01-.01Zm2.21 6.05.77-3.07c.02-.06.02-.12.02-.18v-.25h3.44l-.72.72c-.29.29-.29.77 0 1.06.29.29.77.29 1.06 0L12 17.06l1.47 1.47c.15.15.34.22.53.22s.38-.07.53-.22c.29-.29.29-.77 0-1.06l-.72-.72h3.44V17s0 .07.01.11v.08l.77 3.07H5.95l.01-.01Zm14.29-6.05c0 .25-.12.48-.33.62l-1.17.78V9c0-.41-.34-.75-.75-.75s-.75.34-.75.75v6.25H6.75v-.94l9.07-9.07c.1-.1.17-.21.24-.33l2.74 1.05c.86.33 1.44 1.18 1.44 2.1v6.14h.01Z"/></svg>