<svg xmlns="http://www.w3.org/2000/svg" width="24" height="24" fill="none"><path fill="currentColor" d="M8.47 6.53a.75.75 0 0 1 0-1.061l3-3a.75.75 0 0 1 .817-.162.749.749 0 0 1 .244.162l3 3a.75.75 0 0 1-1.06 1.061l-1.72-1.72V16a.75.75 0 0 1-1.5 0V4.811l-1.72 1.72A.751.751 0 0 1 8.47 6.53ZM18 9.25a.75.75 0 0 0 0 1.5c1.577 0 2.25.673 2.25 2.25v5c0 1.577-.673 2.25-2.25 2.25H6c-1.577 0-2.25-.673-2.25-2.25v-5c0-1.577.673-2.25 2.25-2.25a.75.75 0 0 0 0-1.5c-2.418 0-3.75 1.332-3.75 3.75v5c0 2.418 1.332 3.75 3.75 3.75h12c2.418 0 3.75-1.332 3.75-3.75v-5c0-2.418-1.332-3.75-3.75-3.75Z"/></svg>