<svg xmlns="http://www.w3.org/2000/svg" width="24" height="24" fill="none"><path fill="currentColor" d="M10.009 10.75a4.255 4.255 0 0 1-4.25-4.25 4.255 4.255 0 0 1 4.25-4.25 4.255 4.255 0 0 1 4.25 4.25 4.255 4.255 0 0 1-4.25 4.25Zm0-7a2.752 2.752 0 0 0-2.75 2.75 2.752 2.752 0 0 0 2.75 2.75 2.752 2.752 0 0 0 2.75-2.75 2.753 2.753 0 0 0-2.75-2.75Zm.991 18H6c-2.418 0-3.75-1.325-3.75-3.73 0-2.662 1.506-5.77 5.75-5.77h4c.421 0 .787.026 1.119.08.409.065.688.45.621.859a.753.753 0 0 1-.859.621 5.514 5.514 0 0 0-.881-.06H8c-3.943 0-4.25 3.269-4.25 4.27 0 1.563.673 2.23 2.25 2.23h5a.75.75 0 0 1 0 1.5Zm7 .929a.766.766 0 0 1-.307-.065c-.153-.069-3.764-1.716-4.354-4.706-.238-1.205-.005-2.348.642-3.138.542-.663 1.318-1.015 2.246-1.02h.014c.77 0 1.349.315 1.759.711.41-.396.99-.711 1.758-.711h.014c.929.004 1.706.356 2.247 1.019.646.789.88 1.933.643 3.139h-.001c-.59 2.99-4.2 4.637-4.354 4.706a.766.766 0 0 1-.307.065Zm-1.76-7.429h-.005c-.473.002-.841.16-1.094.469-.355.436-.479 1.145-.33 1.897.354 1.8 2.402 3.052 3.188 3.473.786-.42 2.834-1.673 3.189-3.472.147-.754.024-1.464-.33-1.898-.254-.309-.622-.466-1.096-.469h-.005c-.738 0-1.02.721-1.05.804a.757.757 0 0 1-.708.498h-.008a.747.747 0 0 1-.703-.505c-.025-.076-.309-.797-1.048-.797Zm5.685 2.512h.01-.01Z"/></svg>