<svg xmlns="http://www.w3.org/2000/svg" width="24" height="24" fill="none"><path fill="currentColor" d="M17.667 12.444a.744.744 0 0 1-.53-.22l-1.667-1.667a.75.75 0 0 1 1.061-1.061l1.137 1.136 2.803-2.803a.75.75 0 0 1 1.061 1.061l-3.333 3.333a.749.749 0 0 1-.532.221ZM14.259 6.5a4.255 4.255 0 0 0-4.25-4.25 4.255 4.255 0 0 0-4.25 4.25 4.255 4.255 0 0 0 4.25 4.25 4.255 4.255 0 0 0 4.25-4.25Zm-1.5 0a2.752 2.752 0 0 1-2.75 2.75 2.752 2.752 0 0 1-2.75-2.75 2.752 2.752 0 0 1 2.75-2.75 2.752 2.752 0 0 1 2.75 2.75Zm4.991 11.519c0-2.661-1.506-5.769-5.75-5.769H8c-4.244 0-5.75 3.107-5.75 5.769 0 2.406 1.333 3.731 3.753 3.731h7.994c2.42 0 3.753-1.325 3.753-3.731ZM12 13.75c3.943 0 4.25 3.267 4.25 4.269 0 1.564-.674 2.231-2.253 2.231H6.003c-1.579 0-2.253-.667-2.253-2.231 0-1.001.307-4.269 4.25-4.269h4Z"/></svg>