<svg xmlns="http://www.w3.org/2000/svg" width="24" height="24" fill="none"><path fill="currentColor" d="M10.009 10.75a4.255 4.255 0 0 0 4.25-4.25 4.255 4.255 0 0 0-4.25-4.25 4.255 4.255 0 0 0-4.25 4.25 4.255 4.255 0 0 0 4.25 4.25Zm0-7a2.752 2.752 0 0 1 2.75 2.75 2.752 2.752 0 0 1-2.75 2.75 2.752 2.752 0 0 1-2.75-2.75 2.752 2.752 0 0 1 2.75-2.75Zm2.872 10.06a5.514 5.514 0 0 0-.881-.06H8c-3.943 0-4.25 3.269-4.25 4.27 0 1.563.673 2.23 2.25 2.23h5a.75.75 0 0 1 0 1.5H6c-2.418 0-3.75-1.325-3.75-3.73 0-2.662 1.506-5.77 5.75-5.77h4c.421 0 .787.026 1.119.08.409.065.688.45.621.859a.755.755 0 0 1-.859.621Zm9.649 7.66-1.831-1.831a4.055 4.055 0 0 0 .718-2.305 4.088 4.088 0 0 0-4.084-4.083 4.088 4.088 0 0 0-4.083 4.083 4.088 4.088 0 0 0 4.083 4.083 4.06 4.06 0 0 0 2.305-.718l1.831 1.832a.748.748 0 0 0 1.06 0 .75.75 0 0 0 .001-1.061Zm-7.78-4.137a2.586 2.586 0 0 1 2.583-2.583 2.586 2.586 0 0 1 2.584 2.583 2.586 2.586 0 0 1-2.584 2.583 2.585 2.585 0 0 1-2.583-2.583Z"/></svg>