<svg xmlns="http://www.w3.org/2000/svg" width="24" height="24" fill="none"><path fill="currentColor" d="M18.97 18.35c0 2.192-1.215 3.4-3.42 3.4h-7.1c-.603 0-1.103-.083-1.529-.254a.75.75 0 0 1 .559-1.392c.242.097.568.146.971.146h7.1c1.363 0 1.92-.55 1.92-1.9 0-.832-.245-3.557-3.404-3.7a.75.75 0 0 1-.715-.784c.02-.414.389-.723.783-.715 3.568.163 4.835 2.903 4.835 5.199Zm-12.667.407L2.53 22.53a.748.748 0 0 1-1.06 0 .75.75 0 0 1 0-1.061l3.579-3.579c.159-2.152 1.473-4.525 4.721-4.721l1.486-1.486A3.759 3.759 0 0 1 8.25 8.009a3.765 3.765 0 0 1 3.76-3.76 3.759 3.759 0 0 1 3.674 3.006l2.95-2.95a1.409 1.409 0 0 0-1.124-.556c-.367 0-.703.13-.946.367a.75.75 0 1 1-1.047-1.075 2.832 2.832 0 0 1 1.993-.793c.858 0 1.644.38 2.184.996l1.776-1.776a.75.75 0 1 1 1.061 1.061L6.305 18.755l-.002.002Zm6.547-8.667 1.24-1.24a2.29 2.29 0 0 0 .17-.84c0-1.246-1.01-2.26-2.25-2.26a2.263 2.263 0 0 0-2.26 2.26 2.257 2.257 0 0 0 2.26 2.25c.287 0 .568-.063.84-.17Zm5.94-1.41h-.22a.75.75 0 0 0 0 1.5h.22c2.221 0 2.46 1.727 2.46 2.47 0 .864-.31 1.17-1.18 1.17h-.36a.75.75 0 0 0 0 1.5h.36c1.703 0 2.68-.973 2.68-2.67 0-1.976-1.225-3.97-3.96-3.97ZM5.922 8.035a.75.75 0 0 0 .296-1.471 1.425 1.425 0 0 1-1.139-1.395c0-.783.642-1.42 1.43-1.42.36 0 .699.133.956.375a.75.75 0 1 0 1.03-1.09A2.875 2.875 0 0 0 6.51 2.25a2.929 2.929 0 0 0-2.93 2.92 2.93 2.93 0 0 0 2.342 2.866ZM3.93 15.32h.351a.75.75 0 0 0 0-1.5h-.35c-.872 0-1.181-.306-1.181-1.17 0-.743.239-2.47 2.46-2.47h.99a.75.75 0 0 0 0-1.5h-.99c-2.923 0-3.96 2.139-3.96 3.97 0 1.697.977 2.67 2.68 2.67Z"/></svg>