<svg xmlns="http://www.w3.org/2000/svg" width="24" height="24" fill="none"><path fill="currentColor" d="M10.009 10.75a4.255 4.255 0 0 1-4.25-4.25 4.255 4.255 0 0 1 4.25-4.25 4.255 4.255 0 0 1 4.25 4.25 4.255 4.255 0 0 1-4.25 4.25Zm0-7a2.752 2.752 0 0 0-2.75 2.75 2.752 2.752 0 0 0 2.75 2.75 2.752 2.752 0 0 0 2.75-2.75 2.753 2.753 0 0 0-2.75-2.75Zm.991 18H6c-2.418 0-3.75-1.325-3.75-3.73 0-2.662 1.506-5.77 5.75-5.77h4c.852 0 1.613.124 2.264.368a.75.75 0 1 1-.528 1.404c-.48-.181-1.065-.272-1.736-.272H8c-3.943 0-4.25 3.269-4.25 4.27 0 1.563.673 2.23 2.25 2.23h5a.75.75 0 0 1 0 1.5Zm9.157.929c-.192 0-.386-.045-.565-.138L18 21.722l-1.59.819a1.227 1.227 0 0 1-1.297-.104 1.205 1.205 0 0 1-.477-1.187l.3-1.71-1.318-1.258a1.185 1.185 0 0 1 .658-2.03l1.836-.261.79-1.568c.209-.415.63-.672 1.098-.672.468 0 .889.258 1.098.673l.79 1.568 1.836.261c.458.065.83.377.97.816.139.435.02.9-.312 1.215l-1.316 1.257.3 1.712c.08.457-.104.91-.478 1.187a1.245 1.245 0 0 1-.731.239ZM18 20.185c.189 0 .378.044.551.133l1.239.638-.232-1.326a1.182 1.182 0 0 1 .35-1.06l.969-.924-1.355-.192a1.192 1.192 0 0 1-.9-.646l-.62-1.23-.621 1.232c-.174.347-.51.588-.899.644l-1.355.192.969.925c.286.273.417.668.351 1.057l-.232 1.328 1.239-.638c.168-.089.357-.133.546-.133Zm3.513-2.448h.01-.01Zm-5.474-1.602-.001.001v-.001Zm3.921-.002.001.001h-.001Z"/></svg>