<svg xmlns="http://www.w3.org/2000/svg" width="24" height="24" fill="none"><path fill="currentColor" d="M21.75 5.5v-1c0-1.409-.841-2.25-2.25-2.25h-1c-1.321 0-2.133.746-2.231 2H7.73c-.097-1.254-.91-2-2.231-2h-1c-1.409 0-2.25.841-2.25 2.25v1c0 1.321.746 2.133 2 2.23v8.539c-1.254.097-2 .909-2 2.23v1c0 1.409.841 2.25 2.25 2.25h1c1.321 0 2.133-.746 2.231-2h8.539c.097 1.254.91 2 2.231 2h1c1.409 0 2.25-.841 2.25-2.25v-1c0-1.321-.746-2.133-2-2.23V7.73c1.254-.097 2-.909 2-2.23Zm-4-1c0-.589.161-.75.75-.75h1c.589 0 .75.161.75.75v1c0 .589-.161.75-.75.75h-1c-.589 0-.75-.161-.75-.75v-1Zm-1.481 13.75H7.73c-.091-1.17-.81-1.89-1.981-1.98V7.731c1.17-.091 1.89-.81 1.981-1.98h8.539c.091 1.17.81 1.89 1.981 1.98v8.539c-1.17.09-1.89.81-1.981 1.98ZM3.75 5.5v-1c0-.589.161-.75.75-.75h1c.589 0 .75.161.75.75v1c0 .589-.161.75-.75.75h-1c-.589 0-.75-.161-.75-.75Zm2.5 14c0 .589-.161.75-.75.75h-1c-.589 0-.75-.161-.75-.75v-1c0-.589.161-.75.75-.75h1c.589 0 .75.161.75.75v1Zm14-1v1c0 .589-.161.75-.75.75h-1c-.589 0-.75-.161-.75-.75v-1c0-.589.161-.75.75-.75h1c.589 0 .75.161.75.75Z"/></svg>