<svg xmlns="http://www.w3.org/2000/svg" width="24" height="24" fill="none"><path fill="currentColor" d="M21.9 6.208a1.49 1.49 0 0 0-1.588.18L17.75 8.44V8c0-2.418-1.332-3.75-3.75-3.75H5C2.582 4.25 1.25 5.582 1.25 8v8c0 2.418 1.332 3.75 3.75 3.75h9c2.418 0 3.75-1.332 3.75-3.75v-.439l2.563 2.051a1.49 1.49 0 0 0 1.587.18c.523-.252.85-.771.85-1.352V7.56c0-.582-.326-1.1-.85-1.353ZM16.25 16c0 1.577-.673 2.25-2.25 2.25H5c-1.577 0-2.25-.673-2.25-2.25V8c0-1.577.673-2.25 2.25-2.25h9c1.577 0 2.25.673 2.25 2.25v8Zm5 .44-3.5-2.8v-3.28l3.5-2.8v8.879ZM9.5 8.125c-2.419 0-3.834 1.775-4.463 2.832a2.037 2.037 0 0 0 0 2.086c.63 1.058 2.044 2.833 4.463 2.833 2.418 0 3.834-1.774 4.463-2.832a2.037 2.037 0 0 0 0-2.086C13.333 9.9 11.919 8.125 9.5 8.125Zm3.174 4.15c-.466.785-1.498 2.1-3.174 2.1s-2.708-1.315-3.174-2.1a.534.534 0 0 1 0-.55c.466-.785 1.498-2.1 3.174-2.1s2.708 1.315 3.174 2.1c.101.17.101.38 0 .55ZM10.52 12a1 1 0 0 1-1 1 1.005 1.005 0 0 1-1.005-1c0-.552.443-1 .995-1h.01a1 1 0 0 1 1 1Z"/></svg>