<svg xmlns="http://www.w3.org/2000/svg" width="24" height="24" fill="none"><path fill="currentColor" d="M7.931 17.13 18.889 6.172l.001-.001.001-.001 2.639-2.639a.75.75 0 0 0-1.061-1.061l-2.11 2.11-.53-.53a.75.75 0 0 0-1.061 1.061l.53.53-.729.73a7.212 7.212 0 0 0-3.821-1.58v-1.04h.75a.75.75 0 0 0 0-1.5h-3a.75.75 0 0 0 0 1.5h.75v1.04a7.22 7.22 0 0 0-3.82 1.58l-.734-.734.531-.531a.75.75 0 1 0-1.061-1.061L4.043 6.167a.75.75 0 0 0 1.06 1.061l.53-.53.733.733a7.212 7.212 0 0 0-1.579 3.82h-1.04v-.75a.75.75 0 0 0-1.5 0v3a.75.75 0 0 0 1.5 0v-.75h1.04a7.213 7.213 0 0 0 1.58 3.82l-.73.73-.529-.531a.751.751 0 0 0-1.061 1.061l.53.53-2.11 2.11a.75.75 0 0 0 1.06 1.061l4.396-4.396c.001-.001.002 0 .003-.002l.005-.004ZM6.25 12c0-1.527.595-2.968 1.67-4.057.004-.004.009-.005.013-.009.004-.003.005-.008.008-.012a5.75 5.75 0 0 1 4.058-1.672c1.277 0 2.482.437 3.485 1.204l-8.031 8.031C6.687 14.481 6.25 13.277 6.25 12Zm15.5-1.5v3a.75.75 0 0 1-1.5 0v-.75h-1.04a7.22 7.22 0 0 1-1.579 3.82l.733.733.53-.53a.75.75 0 1 1 1.061 1.061l-2.121 2.122a.748.748 0 0 1-1.06 0 .75.75 0 0 1 0-1.061l.531-.531-.734-.734a7.212 7.212 0 0 1-3.82 1.58v1.04h.75a.75.75 0 0 1 0 1.5h-3a.75.75 0 0 1 0-1.5h.75v-1.062a7.365 7.365 0 0 1-1.633-.338.749.749 0 1 1 .486-1.42 5.819 5.819 0 0 0 5.954-1.35c.004-.005.005-.01.009-.014.004-.004.009-.005.013-.01A5.745 5.745 0 0 0 17.75 12c0-.642-.107-1.28-.319-1.896a.75.75 0 1 1 1.418-.488 7.32 7.32 0 0 1 .339 1.634h1.063v-.75a.75.75 0 0 1 1.499 0Z"/></svg>