<svg xmlns="http://www.w3.org/2000/svg" width="24" height="24" fill="none"><path fill="currentColor" d="M18.75 6.297V6c0-2.418-1.332-3.75-3.75-3.75H5A2.752 2.752 0 0 0 2.25 5v13c0 2.418 1.332 3.75 3.75 3.75h12c2.418 0 3.75-1.332 3.75-3.75v-8c0-2.155-1.058-3.447-3-3.703Zm1.5 9.453H16.5c-.965 0-1.75-.785-1.75-1.75s.785-1.75 1.75-1.75h3.75v3.5ZM5 3.75h10c1.577 0 2.25.673 2.25 2.25v.25H5c-.689 0-1.25-.561-1.25-1.25S4.311 3.75 5 3.75Zm13 16.5H6c-1.577 0-2.25-.673-2.25-2.25V7.449c.375.192.8.301 1.25.301h13c1.577 0 2.25.673 2.25 2.25v.75H16.5A3.254 3.254 0 0 0 13.25 14a3.254 3.254 0 0 0 3.25 3.25h3.75V18c0 1.577-.673 2.25-2.25 2.25ZM17.01 13h.01a1 1 0 1 1 0 2 1.005 1.005 0 0 1-1.005-1c0-.552.443-1 .995-1Z"/></svg>