<svg xmlns="http://www.w3.org/2000/svg" width="24" height="24" fill="none"><path fill="currentColor" d="M11.5 2C6.25 2 2 6.25 2 11.5a9.496 9.496 0 0 0 12.54 9c.03-.01.05-.01.07-.03.17-.08.23-.31.08-.47l-.61-.58c-.52-.5-.71-1.24-.49-1.93.22-.7.81-1.19 1.53-1.29l1.17-.17.5-.98c.32-.65.98-1.05 1.71-1.05.59 0 1.14.26 1.49.71.05.05.13.09.21.09.13 0 .23-.08.28-.19.34-.97.52-2.02.52-3.11C21 6.25 16.75 2 11.5 2Zm5.03 8.23-2.514 2.514a1.654 1.654 0 0 1-2.333.001l-1.43-1.427a.151.151 0 0 0-.213 0l-2.511 2.511a.748.748 0 0 1-1.06 0 .75.75 0 0 1 0-1.06l2.511-2.512a1.653 1.653 0 0 1 2.333-.001l1.43 1.427a.152.152 0 0 0 .213 0l2.514-2.514a.75.75 0 1 1 1.06 1.061Zm4.09 9.31c-.09.08-.13.21-.11.34l.29 1.64c.04.27-.17.48-.41.48-.07 0-.13-.01-.2-.05l-1.51-.78a.584.584 0 0 0-.18-.04c-.06 0-.12.02-.18.04l-1.51.78c-.07.03-.13.05-.2.05a.42.42 0 0 1-.41-.48l.29-1.64a.377.377 0 0 0-.11-.34l-1.26-1.21c-.23-.22-.11-.6.21-.65l1.75-.25c.12-.01.23-.09.29-.2l.76-1.5c.07-.15.22-.23.37-.23s.3.08.37.23l.76 1.5c.06.11.17.19.29.2l1.75.25c.32.05.44.43.21.65l-1.26 1.21Z"/></svg>