<svg xmlns="http://www.w3.org/2000/svg" width="24" height="24" fill="none"><path fill="currentColor" fill-rule="evenodd" d="m5.53 3.53-2 2a.748.748 0 0 1-1.06 0 .75.75 0 0 1 0-1.061l2-2A.75.75 0 1 1 5.53 3.53Zm15.995.934-2-1.96a.751.751 0 0 0-1.05 1.072l2 1.96a.748.748 0 0 0 1.06-.01.751.751 0 0 0-.01-1.062Zm-4.923 14.073 1.929 1.934a.75.75 0 0 1-1.062 1.06l-2.218-2.225a7.96 7.96 0 0 1-6.5 0L6.532 21.53a.75.75 0 0 1-1.062-1.06l1.929-1.933A7.986 7.986 0 0 1 4 12a8 8 0 0 1 16 0 7.987 7.987 0 0 1-3.399 6.537ZM13.062 12l1.469-1.47a.75.75 0 0 0-1.061-1.06L12 10.939l-1.47-1.47a.75.75 0 0 0-1.06 1.061L10.94 12l-1.47 1.47a.75.75 0 0 0 1.06 1.061l1.47-1.47 1.47 1.47a.748.748 0 0 0 1.06 0 .75.75 0 0 0 0-1.061L13.061 12Z" clip-rule="evenodd"/></svg>