<svg xmlns="http://www.w3.org/2000/svg" width="24" height="24" fill="none"><path fill="currentColor" d="m16.82 9.69 1.4-2.44c.14-.24.05-.54-.18-.68a.493.493 0 0 0-.68.18l-1.43 2.48c-2.43-1.07-5.41-1.08-7.86 0L6.64 6.75a.496.496 0 0 0-.68-.18c-.24.14-.32.44-.18.68l1.4 2.44a9.478 9.478 0 0 0-4.67 7.26.516.516 0 0 0 .5.56h18c.14 0 .28-.06.37-.17a.56.56 0 0 0 .13-.39 9.51 9.51 0 0 0-4.67-7.26h-.02Zm-8.95 4.88a.76.76 0 0 1-.76-.76c0-.42.34-.75.76-.75s.75.34.75.75-.34.76-.75.76Zm8.26 0c-.42 0-.75-.34-.75-.76s.34-.75.75-.75.76.34.76.75-.34.76-.76.76Z"/></svg>