<svg xmlns="http://www.w3.org/2000/svg" width="24" height="24" fill="none"><path fill="currentColor" d="M17.625 3H6.375C4.125 3 3 4.125 3 6.375v11.25C3 19.875 4.125 21 6.375 21h11.25C19.875 21 21 19.875 21 17.625V6.375C21 4.125 19.875 3 17.625 3ZM14.25 15.752H9a.75.75 0 0 1 0-1.5h5.25c.827 0 1.5-.673 1.5-1.5s-.673-1.5-1.5-1.5H9.311l.22.22a.75.75 0 0 1-1.06 1.061l-1.5-1.5a.748.748 0 0 1-.162-.817.75.75 0 0 1 .162-.244l1.5-1.5a.75.75 0 1 1 1.061 1.061l-.22.22h4.939c1.654 0 3 1.346 3 3s-1.347 2.999-3.001 2.999Z"/></svg>