<svg xmlns="http://www.w3.org/2000/svg" width="24" height="24" fill="none"><path fill="currentColor" d="M17.625 3H6.375C4.125 3 3 4.125 3 6.375v11.25C3 19.875 4.125 21 6.375 21h11.25C19.875 21 21 19.875 21 17.625V6.375C21 4.125 19.875 3 17.625 3ZM6.47 10.532a.744.744 0 0 1-.219-.53.769.769 0 0 1 .219-.531l1.667-1.667a.75.75 0 1 1 1.061 1.061l-.387.387H15a.75.75 0 0 1 0 1.5H8.811l.386.386a.75.75 0 0 1-1.06 1.061L6.47 10.532Zm11.222 3.755a.764.764 0 0 1-.161.242l-1.667 1.667a.75.75 0 1 1-1.06-1.061l.386-.386H9a.75.75 0 0 1 0-1.5h6.189l-.386-.386a.75.75 0 1 1 1.061-1.061l1.667 1.667a.748.748 0 0 1 .16.818Z"/></svg>