<svg xmlns="http://www.w3.org/2000/svg" width="24" height="24" fill="none"><path fill="currentColor" d="m21.706 12.708-2.999 3a.997.997 0 0 1-1.414 0 .999.999 0 0 1 0-1.415L18.586 13H13v5.586l1.293-1.293a.999.999 0 1 1 1.414 1.414l-2.999 3a1 1 0 0 1-1.416 0l-2.999-3a.999.999 0 1 1 1.414-1.414L11 18.586V13H5.414l1.293 1.293a.999.999 0 1 1-1.414 1.414l-2.999-2.999a1 1 0 0 1 0-1.416l2.999-2.999a.999.999 0 1 1 1.414 1.414L5.414 11H11V5.414L9.707 6.707a.999.999 0 1 1-1.414-1.414l3-2.999a1 1 0 0 1 1.415 0l3 2.999a.999.999 0 1 1-1.415 1.414L13 5.414V11h5.586l-1.293-1.293a.999.999 0 1 1 1.414-1.414l3 3a1 1 0 0 1 0 1.415Z"/></svg>