<svg xmlns="http://www.w3.org/2000/svg" width="24" height="24" fill="none"><path fill="currentColor" d="M12 2C6.486 2 2 6.486 2 12s4.486 10 10 10a1 1 0 1 0 0-2c-4.411 0-8-3.589-8-8s3.589-8 8-8 8 3.589 8 8c0 1.486-1.01 3-2 3-.925 0-1.5-.766-1.5-2V8.5a1 1 0 0 0-1-1 .985.985 0 0 0-.958.792A4.471 4.471 0 0 0 12 7.5 4.505 4.505 0 0 0 7.5 12c0 2.481 2.019 4.5 4.5 4.5 1.186 0 2.258-.47 3.063-1.222A3.368 3.368 0 0 0 18 17c2.357 0 4-2.635 4-5 0-5.514-4.486-10-10-10Zm0 12.5A2.503 2.503 0 0 1 9.5 12c0-1.378 1.121-2.5 2.5-2.5s2.5 1.122 2.5 2.5-1.121 2.5-2.5 2.5Z"/></svg>