<svg xmlns="http://www.w3.org/2000/svg" width="24" height="24" fill="none"><path fill="currentColor" d="M16.458 13.528a.3.3 0 0 1 0 .424l-2.506 2.506a.3.3 0 0 1-.424 0l-5.966-5.966a.3.3 0 0 1 0-.424l2.506-2.506a.3.3 0 0 1 .424 0l5.966 5.966Zm-4.01 3.99a.3.3 0 0 1 0 .424L10.43 19.96c-1.39 1.39-2.77 1.39-4.16 0l-2.23-2.23c-1.39-1.39-1.39-2.77 0-4.16l2.018-2.018a.3.3 0 0 1 .424 0l5.966 5.966ZM7.5 17.25a.75.75 0 1 0-1.5 0 .75.75 0 0 0 1.5 0Zm.5-2.5a.75.75 0 1 0-1.5 0 .75.75 0 0 0 1.5 0Zm2 2a.75.75 0 1 0-1.5 0 .75.75 0 0 0 1.5 0Zm9.96-6.32-2.018 2.018a.3.3 0 0 1-.424 0l-5.966-5.966a.3.3 0 0 1 0-.424L13.57 4.04c1.39-1.39 2.77-1.39 4.16 0l2.23 2.23c1.39 1.39 1.39 2.77 0 4.16ZM15.5 7.25a.75.75 0 1 0-1.5 0 .75.75 0 0 0 1.5 0Zm2 2a.75.75 0 1 0-1.5 0 .75.75 0 0 0 1.5 0Zm.5-2.5a.75.75 0 1 0-1.5 0 .75.75 0 0 0 1.5 0Z"/></svg>