<svg xmlns="http://www.w3.org/2000/svg" width="24" height="24" fill="none"><path fill="currentColor" d="M2.04 11.25a9.91 9.91 0 0 1 2.39-5.77L10.95 12l-1.9 1.9a10.687 10.687 0 0 0-7-2.65h-.01Zm0 1.5c.16 2.2 1.03 4.19 2.39 5.76l3.56-3.56a9.198 9.198 0 0 0-5.94-2.21l-.01.01Zm12.92-2.65-1.9 1.9 6.52 6.52c1.35-1.57 2.22-3.57 2.39-5.77-2.68 0-5.12-1.01-7-2.65h-.01Zm7 1.15a9.855 9.855 0 0 0-2.39-5.76l-3.56 3.56a9.198 9.198 0 0 0 5.94 2.21l.01-.01ZM9.04 16.02l-3.56 3.56c1.57 1.35 3.57 2.22 5.76 2.39 0-2.27-.84-4.34-2.21-5.94l.01-.01ZM12 13.06l-1.9 1.9c1.64 1.88 2.64 4.33 2.65 7a9.91 9.91 0 0 0 5.77-2.39L12 13.05v.01Zm0-2.12 1.9-1.9a10.687 10.687 0 0 1-2.65-7 9.91 9.91 0 0 0-5.77 2.39L12 10.95v-.01Zm2.96-2.96 3.56-3.56a10.012 10.012 0 0 0-5.76-2.39c0 2.27.84 4.34 2.21 5.94l-.01.01Z"/></svg>