<svg xmlns="http://www.w3.org/2000/svg" width="24" height="24" fill="none"><path fill="currentColor" d="M18 3H6C4 3 3 4 3 6v8c0 2 1 3 3 3h.44c.18 0 .33-.17.3-.35-.08-.5-.2-.99-.36-1.49a2.257 2.257 0 0 1-1.55-2.77c.27-.99 1.23-1.64 2.25-1.64h.17V8.5c0-1.24 1.01-2.25 2.25-2.25h5c1.24 0 2.25 1.01 2.25 2.25v2.25h.17c1.03 0 1.98.65 2.25 1.64a2.25 2.25 0 0 1-1.55 2.77c-.15.5-.28.99-.36 1.49-.03.18.12.35.3.35H18c2 0 3-1 3-3V6c0-2-1-3-3-3Zm-2.75 5.5c0-.41-.34-.75-.75-.75h-5c-.41 0-.75.34-.75.75v2.25h6.5V8.5Zm-.75-.75h-5c-.41 0-.75.34-.75.75v1.95c0 .17.13.3.3.3h5.9c.17 0 .3-.13.3-.3V8.5c0-.41-.34-.75-.75-.75Zm2.5 4.5H7c-.41 0-.75.34-.75.75s.34.75.75.75h.48c.88 2.36 1.08 4.24.78 7.17-.04.41.25.78.67.83H9c.38 0 .71-.29.75-.67.05-.47.08-.91.11-1.33h1.39V21c0 .41.34.75.75.75s.75-.34.75-.75v-1.25h1.4c.03.42.06.86.11 1.33.04.38.36.67.74.67h.08c.41-.05.71-.42.67-.83-.3-2.93-.1-4.81.77-7.17H17a.749.749 0 1 0 0-1.5Zm-5.75 6H9.88c-.01-.52-.03-1.02-.09-1.5h1.46v1.5Zm0-3H9.51c-.11-.49-.25-.99-.43-1.5h2.17v1.5Zm2.87 3h-1.37v-1.5h1.47c-.06.48-.09.98-.1 1.5Zm.38-3h-1.75v-1.5h2.17c-.17.51-.31 1.01-.42 1.5Z"/></svg>