<svg xmlns="http://www.w3.org/2000/svg" width="24" height="24" fill="none"><path fill="currentColor" d="M10.2 11.52c.99-.47 1.5-1.19 1.5-2.3 0-2.19-1.63-2.73-3.52-2.73H2.99v11h5.33c2 0 3.88-.96 3.88-3.19 0-1.38-.65-2.4-2.01-2.78h.01ZM5.43 8.1h2.28c.88 0 1.67.25 1.67 1.27 0 .94-.62 1.32-1.48 1.32H5.43V8.1Zm2.6 7.3h-2.6v-3.05h2.65c1.07 0 1.75.45 1.75 1.58 0 1.13-.81 1.47-1.8 1.47Zm11.2-7.52h-4.49V6.79h4.49v1.09Zm1.76 5.51c0-2.37-1.39-4.35-3.9-4.35s-4.1 1.84-4.1 4.24c0 2.4 1.57 4.21 4.1 4.21 1.91 0 3.15-.86 3.75-2.69H18.9c-.21.68-1.07 1.05-1.74 1.05-1.29 0-1.97-.76-1.97-2.04h5.78c0-.13.02-.27.02-.41v-.01Zm-5.8-.98c.07-1.05.77-1.71 1.83-1.71s1.66.65 1.76 1.71h-3.59Z"/></svg>