<svg xmlns="http://www.w3.org/2000/svg" width="24" height="24" fill="none"><path fill="currentColor" d="M20.391 17.688A.5.5 0 0 1 20 18.5H10a.5.5 0 0 1-.354-.854l8-8A.5.5 0 0 1 18.5 10v2.5c0 2.792 1.872 5.164 1.891 5.188Zm1.14-15.218a.75.75 0 0 0-1.062 0l-3.011 3.011A6.523 6.523 0 0 0 11.997 2.5c-3.58 0-6.5 2.92-6.5 6.5v3.5c0 2.78-1.87 5.16-1.89 5.19-.12.15-.14.35-.06.53a.5.5 0 0 0 .45.28h.441l-1.97 1.97a.75.75 0 0 0 1.06 1.061l18-18a.748.748 0 0 0 .002-1.061ZM13.73 19.5h-3.46a.499.499 0 0 0-.432.752A2.483 2.483 0 0 0 12 21.5c.898 0 1.706-.467 2.162-1.248a.501.501 0 0 0-.432-.752Z"/></svg>