<svg xmlns="http://www.w3.org/2000/svg" width="24" height="24" fill="none"><path fill="currentColor" d="M20.391 17.688c-.019-.023-1.896-2.406-1.896-5.188V8.995A6.503 6.503 0 0 0 12 2.5a6.503 6.503 0 0 0-6.495 6.495V12.5c0 2.781-1.876 5.164-1.896 5.188a.5.5 0 0 0 .39.812h16a.499.499 0 0 0 .392-.812ZM14 11.75h-1.25V13a.75.75 0 0 1-1.5 0v-1.25H10a.75.75 0 0 1 0-1.5h1.25V9a.75.75 0 0 1 1.5 0v1.25H14a.75.75 0 0 1 0 1.5Zm.162 8.502A2.483 2.483 0 0 1 12 21.5a2.483 2.483 0 0 1-2.162-1.248.501.501 0 0 1 .432-.752h3.46a.499.499 0 0 1 .432.752Z"/></svg>