<svg xmlns="http://www.w3.org/2000/svg" width="24" height="24" fill="none"><path fill="currentColor" d="M12 2C6.48 2 2 6.48 2 12s4.48 10 10 10 10-4.48 10-10S17.52 2 12 2Zm0 15.5c-3.04 0-5.5-2.46-5.5-5.5S8.96 6.5 12 6.5s5.5 2.46 5.5 5.5-2.46 5.5-5.5 5.5Zm2.25-7c0-1.24-1.01-2.25-2.25-2.25S9.75 9.26 9.75 10.5c0 .58.23 1.1.59 1.5-.36.4-.59.92-.59 1.5 0 1.24 1.01 2.25 2.25 2.25s2.25-1.01 2.25-2.25c0-.58-.23-1.1-.59-1.5.36-.4.59-.92.59-1.5ZM12 9.75c.41 0 .75.34.75.75s-.34.75-.75.75-.75-.34-.75-.75.34-.75.75-.75Zm0 4.5c-.41 0-.75-.34-.75-.75s.34-.75.75-.75.75.34.75.75-.34.75-.75.75Z"/></svg>