<svg xmlns="http://www.w3.org/2000/svg" width="24" height="24" fill="none"><path fill="currentColor" d="M20.052 14.99c-.2.14-.26.41-.12.61.53.79.54 1.76-.04 2.51a2.193 2.193 0 0 1-3.571-.06 2.33 2.33 0 0 1-.34-.8c-.09-.52-.5-.93-1.02-1.03L12 15.65l-2.961.57c-.52.1-.93.51-1.02 1.03-.06.27-.17.55-.34.8a2.193 2.193 0 0 1-3.571.06c-.58-.75-.57-1.72-.04-2.51.14-.2.08-.47-.12-.61-1.15-.78-1.31-2.49-.17-3.479.53-.45 1.27-.62 1.93-.44.57.16 1 .49 1.28.91.3.46.82.71 1.35.61L11 12l1 3.643L13 12l2.661.591c.53.1 1.05-.15 1.35-.61.28-.42.71-.75 1.28-.91.66-.18 1.4-.01 1.93.44 1.14.989.981 2.699-.169 3.479ZM12 7.75a.75.75 0 0 0 .75-.75V4a.75.75 0 0 0-1.5 0v3c0 .414.336.75.75.75Zm2.47.78a.75.75 0 0 1 0-1.061l2-2a.75.75 0 0 1 1.06 1.061l-2 2a.748.748 0 0 1-1.061 0Zm-8-2a.75.75 0 0 1 1.06-1.061l2 2A.75.75 0 0 1 8.47 8.53l-2.001-2Z"/></svg>