<svg xmlns="http://www.w3.org/2000/svg" width="24" height="24" fill="none"><path fill="currentColor" d="M5.502 17.997c-1.092.001-2.021-.615-2.363-1.653C2.567 14.608 3.847 13 5.5 13c.346 0 .678.071.979.198a1.492 1.492 0 0 0 1.639-.315l4.764-4.764c.44-.441.537-1.096.303-1.674a2.567 2.567 0 0 1-.04-1.802c.254-.748.89-1.34 1.654-1.547A2.506 2.506 0 0 1 18 5.492a.503.503 0 0 0 .502.508c1.095 0 2.018.62 2.36 1.656.572 1.736-.708 3.344-2.361 3.344-.346 0-.678-.071-.98-.198a1.492 1.492 0 0 0-1.638.315L11.12 15.88c-.441.441-.537 1.096-.303 1.674.217.536.256 1.164.04 1.802a2.445 2.445 0 0 1-1.654 1.547A2.506 2.506 0 0 1 6.001 18.5a.5.5 0 0 0-.5-.504Z"/></svg>