<svg xmlns="http://www.w3.org/2000/svg" width="24" height="24" fill="none"><path fill="currentColor" d="M21 5.32v13.01c0 .33-.32.56-.65.47-2.384-.679-4.777-.682-7.163.508-.201.1-.438-.036-.438-.261V5.853c0-.067.021-.134.06-.188a3.927 3.927 0 0 1 2.71-1.586c1.812-.22 3.554 0 5.195.783A.509.509 0 0 1 21 5.32ZM8.48 4.08c-1.812-.22-3.554 0-5.195.783A.51.51 0 0 0 3 5.321v13.01c0 .33.32.56.65.47 2.384-.679 4.777-.682 7.163.508.201.1.438-.036.438-.261V5.854a.324.324 0 0 0-.06-.188A3.929 3.929 0 0 0 8.48 4.08Z"/></svg>