<svg xmlns="http://www.w3.org/2000/svg" width="24" height="24" fill="none"><path fill="currentColor" d="M20.24 14.25H3.76c-.13 0-.24-.08-.29-.2A9.48 9.48 0 0 1 3 12.11c-.07-.59.4-1.12 1-1.12h15.98c.6 0 1.07.52 1 1.12a8.46 8.46 0 0 1-.47 1.94c-.04.12-.16.2-.29.2h.02Zm-15.36 1.5c-.24 0-.39.28-.25.47a9.104 9.104 0 0 0 2.79 2.56c.32.18.52.51.52.87V20c0 .55.45 1 1 1h6.12c.55 0 1-.45 1-1v-.35c0-.37.21-.69.52-.87 1.1-.64 2.05-1.52 2.79-2.56.14-.2-.01-.47-.25-.47H4.87h.01Zm7.51-7.22.15-.15c.75-.76.75-2 0-2.75l-.3-.3a.447.447 0 0 1 0-.64l.15-.15c.29-.29.29-.77 0-1.06a.754.754 0 0 0-1.06 0l-.15.15c-.75.76-.75 2 0 2.75l.3.3c.18.18.18.46 0 .64l-.15.15c-.29.29-.29.77 0 1.06.15.15.34.22.53.22s.39-.07.53-.22Zm5 0 .15-.15c.75-.76.75-2 0-2.75l-.3-.3a.447.447 0 0 1 0-.64l.15-.15c.29-.29.29-.77 0-1.06a.754.754 0 0 0-1.06 0l-.15.15c-.75.76-.75 2 0 2.75l.3.3c.18.18.18.46 0 .64l-.15.15c-.29.29-.29.77 0 1.06.15.15.34.22.53.22s.39-.07.53-.22Zm-10 0 .15-.15c.75-.76.75-2 0-2.75l-.3-.3a.447.447 0 0 1 0-.64l.15-.15c.29-.29.29-.77 0-1.06a.754.754 0 0 0-1.06 0l-.15.15c-.75.76-.75 2 0 2.75l.3.3c.18.18.18.46 0 .64l-.15.15c-.29.29-.29.77 0 1.06.15.15.34.22.53.22s.39-.07.53-.22Z"/></svg>