<svg xmlns="http://www.w3.org/2000/svg" width="24" height="24" fill="none"><path fill="currentColor" d="M21 20.25h-1.5V6c0-2-1-3-3-3h-9c-2 0-3 1-3 3v14.25H3a.75.75 0 0 0 0 1.5h18a.75.75 0 0 0 0-1.5Zm-7-14h1a.75.75 0 0 1 0 1.5h-1a.75.75 0 0 1 0-1.5Zm0 3h1a.75.75 0 0 1 0 1.5h-1a.75.75 0 0 1 0-1.5Zm0 3h1a.75.75 0 0 1 0 1.5h-1a.75.75 0 0 1 0-1.5Zm-5-6h1a.75.75 0 0 1 0 1.5H9a.75.75 0 0 1 0-1.5Zm0 3h1a.75.75 0 0 1 0 1.5H9a.75.75 0 0 1 0-1.5Zm0 3h1a.75.75 0 0 1 0 1.5H9a.75.75 0 0 1 0-1.5Zm.75 5.25c0-1 .5-1.5 1.5-1.5h1.5c1 0 1.5.5 1.5 1.5v2.75h-4.5V17.5Z"/></svg>