<svg xmlns="http://www.w3.org/2000/svg" width="24" height="24" fill="none"><path fill="currentColor" d="M21 21H4.5C2.958 21 2 20.042 2 18.5V4a1 1 0 0 1 2 0v14.5c0 .449.051.5.5.5H21a1 1 0 0 1 0 2Zm-.98-13.5h-.01c-.828 0-1.495.671-1.495 1.5 0 .129.022.252.052.372l-2.179 2.179a1.499 1.499 0 0 0-.368-.051h-.01c-.136 0-.266.024-.391.058L13.46 9.399c.035-.128.06-.26.06-.399a1.5 1.5 0 0 0-1.5-1.5h-.01c-.828 0-1.495.671-1.495 1.5 0 .129.022.252.052.372L8.388 11.55a1.499 1.499 0 0 0-.368-.051h-.01c-.828 0-1.495.671-1.495 1.5a1.504 1.504 0 0 0 3.005 0c0-.139-.025-.271-.06-.399l2.161-2.161c.128.035.26.06.399.06.128 0 .25-.021.368-.051l2.179 2.178a1.48 1.48 0 0 0-.052.373 1.504 1.504 0 0 0 3.005 0c0-.139-.025-.271-.06-.399l2.161-2.161c.128.035.26.06.399.06a1.5 1.5 0 1 0 0-3Z"/></svg>