<svg xmlns="http://www.w3.org/2000/svg" width="24" height="24" fill="none"><path fill="currentColor" d="M19.93 8.369a3.327 3.327 0 0 1-1.103.125c-1.763-.078-3.245-1.561-3.323-3.325a3.315 3.315 0 0 1 .126-1.102c.044-.149-.017-.309-.16-.37-1.517-.642-3.253-.875-5.071-.56-3.21.555-5.922 2.898-6.934 5.995-.768 2.35-.532 4.689.368 6.624.21.44.21.95.06 1.42l-.84 2.499a1.003 1.003 0 0 0 1.27 1.27l2.5-.84c.47-.15.98-.15 1.42.06 1.934.899 4.27 1.136 6.62.37 3.097-1.011 5.441-3.722 5.998-6.933a9.004 9.004 0 0 0-.56-5.074c-.06-.142-.221-.203-.37-.159ZM8.02 13a1.005 1.005 0 0 1-1.005-1c0-.552.443-1 .995-1h.01a1 1 0 1 1 0 2Zm4 0a1.005 1.005 0 0 1-1.005-1c0-.552.443-1 .995-1h.01a1 1 0 1 1 0 2Zm4 0a1.005 1.005 0 0 1-1.005-1c0-.552.443-1 .995-1h.01a1 1 0 1 1 0 2Zm.981-8a2 2 0 1 1 4 0 2 2 0 0 1-4 0Z"/></svg>