<svg xmlns="http://www.w3.org/2000/svg" width="24" height="24" fill="none"><path fill="currentColor" d="m19.97 20.96-1.94-.65c-.37-.12-.76-.12-1.11.04-.88.41-1.88.65-2.92.65a6.968 6.968 0 0 1-4.925-2.031c-.19-.189-.028-.518.229-.497 5.166.469 9.641-4.006 9.166-9.172-.048-.286.301-.454.58-.13 1.933 1.891 2.532 5.274 1.3 7.75-.422.74.44 2.322.61 3.05.2.61-.38 1.19-.99.99ZM17 9.999a7 7 0 0 0-13.998 0 6.94 6.94 0 0 0 .645 2.924c.164.342.164.739.047 1.104l-.653 1.944a.783.783 0 0 0 .988.988l1.944-.653c.366-.117.762-.117 1.104.047a6.936 6.936 0 0 0 2.924.645A7 7 0 0 0 17 9.999Z"/></svg>