<svg xmlns="http://www.w3.org/2000/svg" width="24" height="24" fill="none"><path fill="currentColor" d="M13.514 18.63c-.042.653.03 1.278.196 1.864.049.173-.052.354-.229.384a9.1 9.1 0 0 1-1.478.118c-1.34 0-2.62-.3-3.76-.83-.44-.21-.949-.21-1.418-.06l-2.5.84a1.003 1.003 0 0 1-1.27-1.27l.84-2.499c.15-.47.15-.98-.06-1.42-.899-1.934-1.136-4.271-.369-6.62 1.036-3.172 3.855-5.543 7.156-6.034 5.581-.83 10.379 3.473 10.379 8.895 0 .503-.04.999-.118 1.478-.029.178-.21.279-.384.229a5.514 5.514 0 0 0-1.864-.196c-2.7.176-4.946 2.421-5.121 5.121ZM21 17.75h-1.75V16a.75.75 0 0 0-1.5 0v1.75H16a.75.75 0 0 0 0 1.5h1.75V21a.75.75 0 0 0 1.5 0v-1.75H21a.75.75 0 0 0 0-1.5Z"/></svg>