<svg xmlns="http://www.w3.org/2000/svg" width="24" height="24" fill="none"><path fill="currentColor" d="M18 21h-4a1 1 0 1 1 0-2h4c1.439 0 2-.561 2-2V8c0-1.439-.561-2-2-2H6c-1.439 0-2 .561-2 2v1a1 1 0 1 1-2 0V8c0-2.542 1.458-4 4-4h12c2.542 0 4 1.458 4 4v9c0 2.542-1.458 4-4 4Zm-11.242-.132a1 1 0 0 0 .856-1.126 5.043 5.043 0 0 0-1.451-2.905 5.048 5.048 0 0 0-2.904-1.45.998.998 0 0 0-1.127.855c-.074.547.31 1.05.855 1.126a3.063 3.063 0 0 1 1.762.883c.487.487.792 1.096.883 1.762a1 1 0 0 0 1.126.855ZM10 21a1 1 0 0 1-.996-.925 6.596 6.596 0 0 0-1.915-4.163 6.595 6.595 0 0 0-4.163-1.916 1 1 0 0 1-.922-1.072.995.995 0 0 1 1.072-.922 8.594 8.594 0 0 1 5.427 2.496 8.598 8.598 0 0 1 2.495 5.426A.999.999 0 0 1 9.999 21Zm-5.62-1.13a1.25 1.25 0 1 1-2.5 0 1.25 1.25 0 0 1 2.5 0Z"/></svg>