<svg xmlns="http://www.w3.org/2000/svg" width="24" height="24" fill="none"><path fill="currentColor" d="M22 13c0 2.76-2.24 5-5 5h-6.5c-.206 0-.408-.01-.608-.029-.208-.021-.301-.251-.201-.427.5-.83.809-1.82.809-2.983v-2.28c0-.69-.47-1.29-1.13-1.46-1.69-.43-2.47-.79-3.18-1.16-.21-.11-.45-.16-.68-.16-.23 0-.47.05-.68.16-.327.154-.52-.142-.441-.361A6.491 6.491 0 0 1 10.5 5.001c1.65 0 3.15.61 4.29 1.62.48.43.9.92 1.24 1.47.32-.06.64-.09.97-.09A5 5 0 0 1 22 13Zm-20-.667v2.222c0 2.667 2.188 4 3.5 4.444 1.312-.444 3.5-1.778 3.5-4.444v-2.28c-1.75-.444-2.625-.831-3.493-1.275-.882.444-1.757.831-3.507 1.333Z"/></svg>