<svg xmlns="http://www.w3.org/2000/svg" width="24" height="24" fill="none"><path fill="currentColor" d="M20.879 20.394c.24.2.1.6-.21.6-1.03.04-2.61-.1-3.58-1.13-.79.28-1.67.42-2.59.42-2.018 0-3.813-.677-5-1.916-.189-.198-.141-.583.292-.549.233.016.468.025.708.025 4.62 0 8.115-2.701 8.854-6.609.05-.262.376-.349.54-.138.7.906 1.105 2.051 1.105 3.406 0 1.53-.53 2.811-1.41 3.761.11.7.5 1.49 1.29 2.13ZM17.998 9.671c0-.047-.006-.09-.007-.136C17.917 5.449 14.594 3 10.499 3 6.358 3 3 5.502 3 9.671c0 1.768.608 3.244 1.625 4.344-.125.801-.575 1.718-1.483 2.452-.275.233-.117.692.242.7 1.183.042 3.008-.117 4.125-1.309.228.079.462.148.702.208a9.403 9.403 0 0 0 2.29.275c4.139 0 7.497-2.501 7.497-6.67Z"/></svg>