<svg xmlns="http://www.w3.org/2000/svg" width="24" height="24" fill="none"><path fill="currentColor" d="M13.583 11.417a2.17 2.17 0 0 1-2.166 2.167 2.17 2.17 0 0 1-2.167-2.167 2.17 2.17 0 0 1 2.167-2.167 2.17 2.17 0 0 1 2.166 2.167Zm7.417.584c0 5.001-4.03 8.001-9 8.001-1.28 0-2.49-.2-3.59-.58-1.34 1.43-3.53 1.62-4.95 1.57-.43-.01-.62-.56-.29-.84 1.09-.88 1.63-1.98 1.78-2.94C3.73 15.892 3 14.121 3 12.001 3 7 7.03 4 12 4s9 3 9 8.001Zm-4.97 2.969-1.55-1.55a3.645 3.645 0 0 0 .602-2.004 3.672 3.672 0 0 0-3.666-3.667 3.671 3.671 0 0 0-3.667 3.667 3.671 3.671 0 0 0 3.667 3.667c.74 0 1.427-.224 2.003-.603l1.549 1.55a.748.748 0 0 0 1.06 0 .746.746 0 0 0 .002-1.06Z"/></svg>