<svg xmlns="http://www.w3.org/2000/svg" width="24" height="24" fill="none"><path fill="currentColor" d="M9.62 5.5C7.04 5.5 5.5 7.04 5.5 9.62v7.055a.308.308 0 0 1-.33.305C3.73 16.836 3 15.964 3 14.38V5.62C3 3.88 3.88 3 5.62 3h8.76c1.584 0 2.456.729 2.6 2.171a.306.306 0 0 1-.304.329H9.62ZM21 9.625v8.75c0 1.75-.875 2.625-2.625 2.625h-8.75C7.875 21 7 20.125 7 18.375v-8.75C7 7.875 7.875 7 9.625 7h8.75C20.125 7 21 7.875 21 9.625ZM17.25 14a.75.75 0 0 0-.75-.75h-1.75V11.5a.75.75 0 0 0-1.5 0v1.75H11.5a.75.75 0 0 0 0 1.5h1.75v1.75a.75.75 0 0 0 1.5 0v-1.75h1.75a.75.75 0 0 0 .75-.75Z"/></svg>