<svg xmlns="http://www.w3.org/2000/svg" width="24" height="24" fill="none"><path fill="currentColor" d="M21.684 9.514c-.043-.167-.219-.252-.384-.202a4.584 4.584 0 0 1-1.78.164c-1.907-.192-3.534-1.651-3.923-3.528a4.533 4.533 0 0 1 .3-2.802c.071-.158.009-.347-.151-.413A9.765 9.765 0 0 0 11.999 2C6.384 2 1.845 6.635 2.003 12.285c.145 5.217 4.494 9.565 9.711 9.711 5.65.158 10.285-4.381 10.285-9.996a9.823 9.823 0 0 0-.315-2.486Zm-7.481 6.355c-.405.405-.92.652-1.475.732V17a.75.75 0 0 1-1.5 0v-.401a2.62 2.62 0 0 1-2.184-2.293.75.75 0 0 1 .662-.829.746.746 0 0 1 .829.662c.064.57.544 1 1.116 1h.7c.298 0 .579-.117.792-.33.213-.213.33-.494.33-.792 0-.515-.35-.962-.851-1.089l-1.608-.399a2.643 2.643 0 0 1-1.434-.935 2.61 2.61 0 0 1-.552-1.609c0-1.301.955-2.376 2.2-2.579V7a.75.75 0 0 1 1.5 0v.396a2.617 2.617 0 0 1 2.229 2.298.75.75 0 1 1-1.491.167c-.064-.57-.544-1-1.116-1h-.7a1.123 1.123 0 0 0-.271 2.211l1.608.399a2.624 2.624 0 0 1 1.986 2.544 2.61 2.61 0 0 1-.77 1.854ZM22.53 5.53l-2 2a.749.749 0 0 1-.818.162.749.749 0 0 1-.244-.162l-2-2a.75.75 0 0 1 1.061-1.061l.72.72V2a.75.75 0 0 1 1.5 0v3.189l.72-.72A.75.75 0 1 1 22.53 5.53Z"/></svg>