<svg xmlns="http://www.w3.org/2000/svg" width="24" height="24" fill="none"><path fill="currentColor" d="M20.87 7.08a5.48 5.48 0 0 0-3.93-3.95c-1.3-.33-2.71-.03-3.81.75-1.65 1.16-3.53 1.64-5.54 1.76-1.03.06-2.04.44-2.81 1.13a5.439 5.439 0 0 0-1.59 5.46c.34 1.24 1.25 2.25 2.38 2.86 1.66.9 2.79 1.94 3.38 3.03 1 1.84 2.89 3.12 4.96 2.84 1.06-.14 2.08-.59 2.89-1.32.97-.86 1.45-2.14 1.49-3.44.07-1.72.64-3.51 1.89-5.37.74-1.09 1-2.48.68-3.76l.01.01ZM11.5 15C9.57 15 8 13.43 8 11.5S9.57 8 11.5 8 15 9.57 15 11.5 13.43 15 11.5 15Z"/></svg>