<svg xmlns="http://www.w3.org/2000/svg" width="24" height="24" fill="none"><path fill="currentColor" d="M17.57 12.586a5.146 5.146 0 0 1 2.059.039.3.3 0 0 0 .371-.288V7c0-2-1-3-3-3H5C3 4 2 5 2 7v9c0 2 1 3 3 3h8.337a.3.3 0 0 0 .288-.371 5.123 5.123 0 0 1-.038-2.065c.37-1.994 1.99-3.611 3.983-3.978Zm-5.54-.407a1.748 1.748 0 0 1-2.059.001L5.059 8.607a.75.75 0 1 1 .883-1.213l4.912 3.572a.25.25 0 0 0 .293 0l4.912-3.572a.75.75 0 1 1 .883 1.213l-4.913 3.572ZM18.5 14a3.5 3.5 0 1 0 0 7 3.5 3.5 0 0 0 0-7Zm1.291 4.791a.498.498 0 0 1-.708 0l-.938-.937a.5.5 0 0 1-.146-.354v-1.312a.5.5 0 0 1 1 0v1.105l.791.791a.5.5 0 0 1 .001.707Z"/></svg>