<svg xmlns="http://www.w3.org/2000/svg" width="24" height="24" fill="none"><path fill="currentColor" d="M12.5 16.74c.12-2.79 2.45-5.11 5.24-5.23.65-.03 1.28.05 1.86.23.2.06.4-.07.4-.28V7c0-2-1-3-3-3H5C3 4 2 5 2 7v9c0 2 1 3 3 3h7.46c.2 0 .34-.2.27-.39-.18-.59-.26-1.21-.23-1.87Zm-.47-4.561a1.748 1.748 0 0 1-2.059.001L5.059 8.607a.75.75 0 1 1 .883-1.213l4.912 3.572a.25.25 0 0 0 .293 0l4.912-3.572a.75.75 0 1 1 .883 1.213l-4.913 3.572ZM18 13a4 4 0 1 0 0 8 4 4 0 0 0 0-8Zm1.25 4.5h-.75v.75a.5.5 0 0 1-1 0v-.75h-.75a.5.5 0 0 1 0-1h.75v-.75a.5.5 0 0 1 1 0v.75h.75a.5.5 0 0 1 0 1Z"/></svg>