<svg xmlns="http://www.w3.org/2000/svg" width="24" height="24" fill="none"><path fill="currentColor" d="M18.21 11.757c.493-.024.967.013 1.424.111a.295.295 0 0 0 .365-.285V7c0-2-1-3-3-3h-12c-2 0-3 1-3 3v9c0 2 1 3 3 3h7.583a.295.295 0 0 0 .285-.365 5.525 5.525 0 0 1-.11-1.428c.144-2.894 2.56-5.309 5.454-5.45Zm-6.18.422a1.748 1.748 0 0 1-2.059.001L5.059 8.607a.75.75 0 1 1 .883-1.213l4.912 3.572a.25.25 0 0 0 .293 0l4.912-3.572a.75.75 0 1 1 .883 1.213l-4.913 3.572Zm6.47 1.071a4.254 4.254 0 0 0-4.25 4.25 4.254 4.254 0 0 0 4.25 4.25 4.254 4.254 0 0 0 4.25-4.25 4.254 4.254 0 0 0-4.25-4.25Zm-2.75 4.25a2.752 2.752 0 0 1 2.75-2.75c.485 0 .935.137 1.331.358l-3.723 3.723a2.72 2.72 0 0 1-.358-1.331Zm2.75 2.75a2.72 2.72 0 0 1-1.331-.358l3.723-3.723c.221.396.358.846.358 1.331a2.752 2.752 0 0 1-2.75 2.75Z"/></svg>