<svg xmlns="http://www.w3.org/2000/svg" width="24" height="24" fill="none"><path fill="currentColor" d="M21 6.67v7.66c0 1.106-.346 1.873-1.038 2.29-.14.084-.462.06-.462-.275V9.669c0-2.61-1.56-4.17-4.17-4.17H5.672c-.378 0-.372-.333-.283-.477.419-.682 1.183-1.023 2.28-1.023H18.33C20.11 4 21 4.89 21 6.67Zm-3 2.997v7.667c0 1.778-.889 2.667-2.667 2.667H4.666c-1.778 0-2.667-.889-2.667-2.667V9.667C1.999 7.889 2.888 7 4.666 7h10.667C17.111 7 18 7.889 18 9.667Zm-2.26.625a.75.75 0 0 0-1.048-.166l-4.585 3.334a.181.181 0 0 1-.215 0l-4.585-3.334a.75.75 0 0 0-.883 1.214l4.585 3.334a1.678 1.678 0 0 0 1.98 0l4.585-3.334a.75.75 0 0 0 .166-1.048Z"/></svg>