<svg xmlns="http://www.w3.org/2000/svg" width="24" height="24" fill="none"><path fill="currentColor" d="M18.627 18.492A7.01 7.01 0 0 1 16 19c-2.785 0-5.189-1.639-6.315-4H15a1 1 0 0 0 0-2H9.08A7.026 7.026 0 0 1 9 12c0-.34.033-.672.08-1H15a1 1 0 0 0 0-2H9.685c1.126-2.361 3.53-4 6.315-4 .911 0 1.792.173 2.618.514a1 1 0 0 0 .764-1.848A8.832 8.832 0 0 0 16 3c-3.909 0-7.235 2.51-8.475 6H5a1 1 0 0 0 0 2h2.059A8.935 8.935 0 0 0 7 12c0 .338.022.671.059 1H5a1 1 0 0 0 0 2h2.525c1.24 3.49 4.565 6 8.475 6a8.99 8.99 0 0 0 3.373-.652 1 1 0 1 0-.746-1.856Z"/></svg>