<svg xmlns="http://www.w3.org/2000/svg" width="24" height="24" fill="none"><path fill="currentColor" d="M21.75 5.18c0 .85-.48 1.49-1.16 1.72-.18.07-.38.1-.59.1-.97 0-1.75-.74-1.75-1.82 0-.27.07-.55.18-.84C18.88 3.18 20 2 20 2s1.75 1.84 1.75 3.18ZM22 12c0 5.61-4.64 10.15-10.29 10-5.22-.15-9.57-4.49-9.71-9.71C1.84 6.64 6.38 2 12 2c1.81 0 3.49.48 4.95 1.32.13.08.18.24.12.38-.19.49-.33.99-.33 1.49 0 1.86 1.43 3.32 3.25 3.32.35 0 .67-.05.99-.15.16-.05.32.02.38.17.41 1.08.63 2.25.63 3.48L22 12ZM8.59 9.25c.31 0 .6.2.7.49a.76.76 0 0 0 .96.47c.39-.14.6-.56.46-.95-.31-.9-1.16-1.51-2.12-1.51-.96 0-1.81.6-2.12 1.51-.13.39.07.82.46.95.4.14.82-.07.95-.46.1-.29.39-.49.7-.49l.01-.01Zm7.4 5.58c.09-.4-.33-.71-.71-.55-2.18.87-4.36.87-6.55 0-.38-.15-.81.15-.71.55A4.087 4.087 0 0 0 12.01 18c1.95 0 3.57-1.35 3.99-3.17h-.01Zm1.54-5.58c-.31-.9-1.16-1.51-2.12-1.51-.96 0-1.81.6-2.12 1.51-.13.39.07.82.46.95.4.14.82-.07.95-.46a.747.747 0 0 1 1.4 0 .76.76 0 0 0 .96.47c.39-.14.6-.56.46-.95l.01-.01Z"/></svg>