<svg xmlns="http://www.w3.org/2000/svg" width="24" height="24" fill="none"><path fill="currentColor" d="M12 3c-5.07 0-9 3.71-9 8.73 0 2.62 1.08 4.89 2.83 6.46.15.13.24.32.24.51l.05 1.6a.717.717 0 0 0 1.01.64l1.79-.79a.72.72 0 0 1 .48-.04c.82.22 1.69.35 2.61.35 5.07 0 9-3.71 9-8.73 0-5.02-3.93-8.73-9-8.73H12Zm5.43 6.67-2.66 4.27c-.4.64-1.24.84-1.87.43l-.09-.06-2.11-1.61a.526.526 0 0 0-.65 0L7.2 14.9c-.38.29-.88-.17-.62-.58l2.66-4.28a1.343 1.343 0 0 1 1.96-.37l2.11 1.61c.19.15.46.15.65 0l2.85-2.2c.38-.29.88.17.62.58v.01Z"/></svg>