<svg xmlns="http://www.w3.org/2000/svg" width="24" height="24" fill="none"><path fill="currentColor" d="M12 2C6.48 2 2 6.48 2 12s4.48 10 10 10 10-4.48 10-10S17.52 2 12 2Zm-5.07 8.71a.744.744 0 0 1-.46-.95c.31-.9 1.16-1.51 2.12-1.51.96 0 1.81.6 2.12 1.51a.748.748 0 0 1-.71.99c-.31 0-.6-.19-.71-.51a.747.747 0 0 0-1.4 0 .74.74 0 0 1-.95.46l-.01.01Zm9.66 3.75c-.25.33-.54.63-.85.9v2.65c0 .41-.34.75-.75.75s-.75-.34-.75-.75v-1.72c-.16.07-.33.13-.5.19v.53c0 .41-.34.75-.75.75s-.75-.34-.75-.75v-.26c-.08 0-.17.01-.25.01-1.79 0-3.51-.86-4.59-2.3a.75.75 0 0 1 1.2-.9c.8 1.06 2.07 1.7 3.39 1.7 1.32 0 2.58-.62 3.4-1.7a.749.749 0 1 1 1.19.91l.01-.01Zm.47-3.75a.69.69 0 0 1-.25.04c-.31 0-.6-.19-.71-.51a.747.747 0 0 0-.7-.49c-.31 0-.6.2-.7.49a.74.74 0 0 1-.95.46.744.744 0 0 1-.46-.95c.31-.9 1.16-1.51 2.12-1.51.96 0 1.81.6 2.12 1.51.13.39-.07.82-.46.95l-.01.01Z"/></svg>