<svg xmlns="http://www.w3.org/2000/svg" width="24" height="24" fill="none"><path fill="currentColor" d="M12.75 6V3.75l4.5 4.5H15c-1.58 0-2.25-.67-2.25-2.25Zm.33 13.42.83.79-.1.56s-.05.23-.28.23H6c-2 0-3-1-3-3V6c0-2 1-3 3-3h5.25v3c0 2.42 1.33 3.75 3.75 3.75h3v3.9c0 .32-.33.35-.5.35-.73 0-1.39.4-1.71 1.05l-.5.98-1.17.17c-.72.1-1.31.59-1.53 1.29-.22.69-.03 1.43.49 1.93ZM8.75 12c0 .414.336.75.75.75H14a.75.75 0 0 0 0-1.5H9.5a.75.75 0 0 0-.75.75Zm-1 4a.75.75 0 1 0-1.5 0 .75.75 0 0 0 1.5 0Zm0-4a.75.75 0 1 0-1.5 0 .75.75 0 0 0 1.5 0Zm4 4a.75.75 0 0 0-.75-.75H9.5a.75.75 0 0 0 0 1.5H11a.75.75 0 0 0 .75-.75Zm9.132 2.334a.38.38 0 0 0-.216-.652l-1.743-.248a.387.387 0 0 1-.293-.209l-.755-1.498a.422.422 0 0 0-.749 0l-.755 1.498a.39.39 0 0 1-.293.209l-1.743.248a.38.38 0 0 0-.216.652l1.26 1.202a.378.378 0 0 1 .112.339l-.288 1.644c-.06.334.3.589.605.432l1.511-.777a.398.398 0 0 1 .362 0l1.512.778c.306.157.663-.097.604-.431l-.288-1.646a.378.378 0 0 1 .112-.339l1.261-1.202Z"/></svg>