<svg xmlns="http://www.w3.org/2000/svg" width="24" height="24" fill="none"><path fill="currentColor" d="M7.75 3h8.5c.413 0 .75.337.75.75v2.2a.3.3 0 0 1-.3.3H7.3a.3.3 0 0 1-.3-.3v-2.2c0-.413.337-.75.75-.75Zm-.443 5.131a.305.305 0 0 1 .296-.381h8.794c.198 0 .351.192.296.382a6.604 6.604 0 0 1-1.08 2.16 3.004 3.004 0 0 0-.613 1.81V19.5a1.5 1.5 0 0 1-1.5 1.5h-3A1.5 1.5 0 0 1 9 19.5v-7.4c0-.646-.214-1.273-.605-1.787A6.55 6.55 0 0 1 7.307 8.13ZM12 12.25a.75.75 0 0 0-.75.75v2a.75.75 0 0 0 1.5 0v-2a.75.75 0 0 0-.75-.75Z"/></svg>