<svg xmlns="http://www.w3.org/2000/svg" width="24" height="24" fill="none"><path fill="currentColor" d="m10.14 10.68-3.26 3.26-.58-.58C4.59 11.65 3.25 8.42 3.25 6V4c0-.3.18-.58.46-.69.28-.12.61-.05.82.16l5.19 5.19c.01.7.16 1.38.42 2.02Zm11.39 9.79-6.2-6.2c-.69-.01-1.37-.15-2-.41l-3.27 3.26 1.06 1.06c.23.23.55.36.88.36.33 0 .65-.13.88-.36L15 16.06l5.47 5.47c.15.15.34.22.53.22s.38-.07.53-.22c.29-.29.29-.77 0-1.06Zm0-13a.742.742 0 0 0-.53-.22c-.19 0-.38.07-.53.22l-3 3-.68-.68 3-3.01c.29-.29.29-.77 0-1.06a.754.754 0 0 0-1.06 0l-2.99 3-.44-.44 3-3.01c.29-.29.29-.77 0-1.06a.754.754 0 0 0-1.06 0l-2.99 3-.7-.7 3-3c.29-.29.29-.77 0-1.06a.742.742 0 0 0-.53-.22c-.19 0-.38.07-.53.22l-3 3c-.81.81-1.26 1.89-1.26 3.03 0 .87.27 1.68.74 2.39.01.02.03.04.04.06l-9.52 9.52c-.29.29-.29.77 0 1.06.15.15.34.22.53.22s.38-.07.53-.22l9.52-9.52s.04.03.06.04c.73.48 1.55.73 2.39.73 1.1 0 2.19-.41 3.03-1.25l3-3c.29-.29.29-.77 0-1.06l-.02.02Z"/></svg>