<svg xmlns="http://www.w3.org/2000/svg" width="24" height="24" fill="none"><path fill="currentColor" d="M14.87 15.38a.38.38 0 0 1-.1.35L13.6 16.9c-.07.07-.11.15-.12.24l-.44 3.51a.39.39 0 0 1-.39.35h-1.3a.39.39 0 0 1-.39-.35l-.44-3.51a.395.395 0 0 0-.12-.24l-1.17-1.17a.38.38 0 0 1-.1-.35c.88.4 1.85.62 2.87.62s1.99-.22 2.87-.62ZM12 3C8.69 3 6 5.69 6 9c0 2.48 1.51 4.61 3.65 5.53a6.12 6.12 0 0 0 4.7 0A6.027 6.027 0 0 0 18 9c0-3.31-2.69-6-6-6Zm-2.5 7.75c-.96 0-1.75-.79-1.75-1.75 0-.41.34-.75.75-.75s.75.34.75.75c0 .14.11.25.25.25.41 0 .75.34.75.75s-.34.75-.75.75Zm2.5 2.5c-.96 0-1.75-.79-1.75-1.75 0-.41.34-.75.75-.75s.75.34.75.75c0 .14.11.25.25.25.41 0 .75.34.75.75s-.34.75-.75.75Zm.5-3c-.96 0-1.75-.79-1.75-1.75 0-.41.34-.75.75-.75s.75.34.75.75c0 .14.11.25.25.25.41 0 .75.34.75.75s-.34.75-.75.75Z"/></svg>