<svg xmlns="http://www.w3.org/2000/svg" width="24" height="24" fill="none"><path fill="currentColor" d="M20.75 17a.75.75 0 0 1-.75.75h-2.25V20a.75.75 0 0 1-1.5 0v-2.25H14a.75.75 0 0 1 0-1.5h2.25V14a.75.75 0 0 1 1.5 0v2.25H20a.75.75 0 0 1 .75.75ZM18.5 4h-3c-1 0-1.5.5-1.5 1.5v3c0 1 .5 1.5 1.5 1.5h3c1 0 1.5-.5 1.5-1.5v-3c0-1-.5-1.5-1.5-1.5Zm-10 0h-3C4.5 4 4 4.5 4 5.5v3c0 1 .5 1.5 1.5 1.5h3c1 0 1.5-.5 1.5-1.5v-3c0-1-.5-1.5-1.5-1.5Zm0 10h-3c-1 0-1.5.5-1.5 1.5v3c0 1 .5 1.5 1.5 1.5h3c1 0 1.5-.5 1.5-1.5v-3c0-1-.5-1.5-1.5-1.5Z"/></svg>