<svg xmlns="http://www.w3.org/2000/svg" width="24" height="24" fill="none"><path fill="currentColor" d="M21 3.75H3a.75.75 0 0 1 0-1.5h18a.75.75 0 0 1 0 1.5ZM21.75 14a.75.75 0 0 0-.75-.75H3a.75.75 0 0 0 0 1.5h18a.75.75 0 0 0 .75-.75ZM5.5 6h-1C3.5 6 3 6.5 3 7.5v1c0 1 .5 1.5 1.5 1.5h1c1 0 1.5-.5 1.5-1.5v-1C7 6.5 6.5 6 5.5 6Zm7 0h-1c-1 0-1.5.5-1.5 1.5v1c0 1 .5 1.5 1.5 1.5h1c1 0 1.5-.5 1.5-1.5v-1c0-1-.5-1.5-1.5-1.5Zm7 0h-1c-1 0-1.5.5-1.5 1.5v1c0 1 .5 1.5 1.5 1.5h1c1 0 1.5-.5 1.5-1.5v-1c0-1-.5-1.5-1.5-1.5Zm-14 11h-1c-1 0-1.5.5-1.5 1.5v1c0 1 .5 1.5 1.5 1.5h1c1 0 1.5-.5 1.5-1.5v-1c0-1-.5-1.5-1.5-1.5Zm7 0h-1c-1 0-1.5.5-1.5 1.5v1c0 1 .5 1.5 1.5 1.5h1c1 0 1.5-.5 1.5-1.5v-1c0-1-.5-1.5-1.5-1.5Zm7 0h-1c-1 0-1.5.5-1.5 1.5v1c0 1 .5 1.5 1.5 1.5h1c1 0 1.5-.5 1.5-1.5v-1c0-1-.5-1.5-1.5-1.5Z"/></svg>