<svg xmlns="http://www.w3.org/2000/svg" width="24" height="24" fill="none"><path fill="currentColor" d="M6 17v4a1 1 0 0 1-1 1H3a1 1 0 0 1-1-1v-4a1 1 0 0 1 1-1h2a1 1 0 0 1 1 1Zm13.66-.98c-.24 0-.475.066-.68.19l-2.27 1.36a2.634 2.634 0 0 1-2.59 2.18H11a.75.75 0 0 1 0-1.5h3.12a1.125 1.125 0 1 0 0-2.25H9a2.006 2.006 0 0 0-2 2v2a2.006 2.006 0 0 0 2 2h5.6c.91 0 1.791-.31 2.5-.88l3.4-2.72a1.322 1.322 0 0 0 .5-1.04 1.34 1.34 0 0 0-1.34-1.34ZM10 13.5h4a1.817 1.817 0 0 0 2-1.99 2.822 2.822 0 0 0-3-3.01h-2a2.823 2.823 0 0 0-3 3.01 1.816 1.816 0 0 0 2 1.99ZM12 7a2.25 2.25 0 1 0-1.588-.658c.422.422.996.659 1.593.658H12Z"/></svg>