<svg xmlns="http://www.w3.org/2000/svg" width="24" height="24" fill="none"><path fill="currentColor" d="M12.615 20.315a.3.3 0 0 1 .051.233.242.242 0 0 1-.144.195C12.195 20.915 12 21 12 21s-7.66-3.48-8.831-9.53c-.72-3.72.85-7.45 4.85-7.47C11 3.99 12 6.99 12 6.99s1-3 3.98-2.99c4.01.02 5.57 3.75 4.85 7.47-.06.3-.13.59-.22.87-.06.155-.167.205-.287.205a.397.397 0 0 1-.213-.075c-.88-.61-1.95-.97-3.11-.97a5.51 5.51 0 0 0-5.5 5.5 5.454 5.454 0 0 0 1.116 3.315ZM21 17c0 2.21-1.79 4-4 4s-4-1.79-4-4 1.79-4 4-4 4 1.79 4 4Zm-2.25 0c0-.28-.22-.5-.5-.5h-.75v-.75c0-.28-.22-.5-.5-.5s-.5.22-.5.5v.75h-.75c-.28 0-.5.22-.5.5s.22.5.5.5h.75v.75c0 .28.22.5.5.5s.5-.22.5-.5v-.75h.75c.28 0 .5-.22.5-.5Z"/></svg>