<svg xmlns="http://www.w3.org/2000/svg" width="24" height="24" fill="none"><path fill="currentColor" fill-rule="evenodd" d="M13.583 12.917a2.17 2.17 0 0 1-2.166 2.167 2.17 2.17 0 0 1-2.167-2.167 2.17 2.17 0 0 1 2.167-2.167 2.17 2.17 0 0 1 2.166 2.167ZM21 11.651V18c0 2-1 3-3 3H6c-2 0-3-1-3-3v-6.349c0-1.998.523-2.305 1.43-3.065l5.964-5.001a2.5 2.5 0 0 1 3.213 0l5.964 5.001c.906.76 1.429 1.066 1.429 3.065Zm-4.97 4.819-1.55-1.55a3.645 3.645 0 0 0 .602-2.004 3.672 3.672 0 0 0-3.666-3.667 3.671 3.671 0 0 0-3.667 3.667 3.671 3.671 0 0 0 3.667 3.667c.74 0 1.427-.224 2.003-.603l1.549 1.55a.748.748 0 0 0 1.06 0 .746.746 0 0 0 .002-1.06Z" clip-rule="evenodd"/></svg>