<svg xmlns="http://www.w3.org/2000/svg" width="24" height="24" fill="none"><path fill="currentColor" fill-rule="evenodd" d="M13.583 12.917a2.17 2.17 0 0 1-2.166 2.167 2.17 2.17 0 0 1-2.167-2.167 2.17 2.17 0 0 1 2.167-2.167 2.17 2.17 0 0 1 2.166 2.167Zm7.385-1.951-1.455 7.983a2.5 2.5 0 0 1-2.459 2.052H6.948a2.5 2.5 0 0 1-2.459-2.052l-1.455-7.982a1.998 1.998 0 0 1 .698-1.903l6.681-5.493a2.501 2.501 0 0 1 3.177 0l6.682 5.493c.559.459.826 1.188.696 1.902ZM16.03 16.47l-1.55-1.55a3.645 3.645 0 0 0 .602-2.004 3.672 3.672 0 0 0-3.666-3.667 3.671 3.671 0 0 0-3.667 3.667 3.671 3.671 0 0 0 3.667 3.667c.74 0 1.427-.224 2.003-.603l1.55 1.55a.748.748 0 0 0 1.059 0 .746.746 0 0 0 .002-1.06Z" clip-rule="evenodd"/></svg>