<svg xmlns="http://www.w3.org/2000/svg" width="24" height="24" fill="none"><path fill="currentColor" fill-rule="evenodd" d="M17.053 21H6.947a2.5 2.5 0 0 1-2.459-2.052l-1.455-7.982a2 2 0 0 1 .697-1.903l6.681-5.493a2.501 2.501 0 0 1 3.177 0l6.682 5.493c.561.461.827 1.189.697 1.903l-1.455 7.983A2.5 2.5 0 0 1 17.053 21ZM14.5 14.613c0-1.029-.69-1.925-1.682-2.18l-1.267-.319a.745.745 0 0 1-.551-.727c0-.413.325-.748.725-.748h.551c.37 0 .679.286.721.666a.758.758 0 0 0 .827.663.75.75 0 0 0 .663-.828 2.237 2.237 0 0 0-1.736-1.945V9a.75.75 0 0 0-1.5 0v.193a2.245 2.245 0 0 0-1.75 2.194 2.245 2.245 0 0 0 1.682 2.18l1.267.319a.747.747 0 0 1 .552.727.75.75 0 0 1-.219.532.707.707 0 0 1-.506.216h-.551a.735.735 0 0 1-.72-.666.757.757 0 0 0-.828-.663.75.75 0 0 0-.663.828 2.237 2.237 0 0 0 1.736 1.945V17a.75.75 0 0 0 1.5 0v-.193a2.244 2.244 0 0 0 1.749-2.194Z" clip-rule="evenodd"/></svg>