<svg xmlns="http://www.w3.org/2000/svg" width="24" height="24" fill="none"><path fill="currentColor" fill-rule="evenodd" d="m19.57 8.586-5.964-5.001a2.5 2.5 0 0 0-3.213 0L4.429 8.586c-.906.76-1.43 1.067-1.43 3.065V18c0 2 1 3 3 3h12c2 0 3-1 3-3v-6.349c.001-1.999-.522-2.305-1.43-3.065ZM12 17.5a1 1 0 1 1 0-2 1 1 0 0 1 0 2Zm2.848-2.786a.751.751 0 0 1-1.052.143c-1.029-.782-2.562-.782-3.592 0a.75.75 0 0 1-.908-1.195c1.557-1.183 3.852-1.183 5.408 0a.753.753 0 0 1 .144 1.052Zm2.22-2.058a.747.747 0 0 1-1.057.079A6.146 6.146 0 0 0 12 11.25a6.148 6.148 0 0 0-4.011 1.485.75.75 0 0 1-.979-1.137 7.648 7.648 0 0 1 4.989-1.848c1.833 0 3.604.656 4.989 1.848.315.27.351.744.08 1.058Z" clip-rule="evenodd"/></svg>