<svg xmlns="http://www.w3.org/2000/svg" width="24" height="24" fill="none"><path fill="currentColor" fill-rule="evenodd" d="m20.27 9.062-6.682-5.493a2.501 2.501 0 0 0-3.177 0L3.729 9.062a1.996 1.996 0 0 0-.697 1.903l1.455 7.982A2.5 2.5 0 0 0 6.946 21h10.106a2.501 2.501 0 0 0 2.46-2.052l1.455-7.983a1.996 1.996 0 0 0-.697-1.902Zm-3.74 3.287-2.235 2.235a1.538 1.538 0 0 1-1.095.454c-.414 0-.803-.161-1.096-.453l-1.271-1.268-2.304 2.232a.748.748 0 0 1-1.06 0 .75.75 0 0 1 0-1.06l2.232-2.233a1.552 1.552 0 0 1 2.19-.001l1.272 1.268 2.306-2.234a.75.75 0 0 1 1.061 1.06Z" clip-rule="evenodd"/></svg>