<svg xmlns="http://www.w3.org/2000/svg" width="24" height="24" fill="none"><path fill="currentColor" d="m21.477 9.085-7.412-6.096a3.26 3.26 0 0 0-4.129 0L2.524 9.084a.751.751 0 0 0 .953 1.16L4.5 9.4V18c0 2.29 1.21 3.5 3.5 3.5h8c2.29 0 3.5-1.21 3.5-3.5V9.401l1.023.842a.749.749 0 0 0 1.056-.102.751.751 0 0 0-.102-1.057Zm-4.947 3.932-2.235 2.235a1.54 1.54 0 0 1-1.095.454h-.001c-.413 0-.802-.161-1.095-.453l-1.271-1.27-2.304 2.233a.748.748 0 0 1-1.06 0 .75.75 0 0 1 0-1.06L9.7 12.922a1.553 1.553 0 0 1 2.19 0l1.272 1.268 2.306-2.235a.75.75 0 0 1 1.061 1.061Z"/></svg>