<svg xmlns="http://www.w3.org/2000/svg" width="24" height="24" fill="none"><path fill="currentColor" fill-rule="evenodd" d="m19.57 8.586-5.964-5.001a2.5 2.5 0 0 0-3.213 0L4.429 8.586c-.906.76-1.43 1.067-1.43 3.065V18c0 2 1 3 3 3h12c2 0 3-1 3-3v-6.349c.001-1.999-.522-2.305-1.43-3.065Zm-3.464 4.402-1.53 1.48a.466.466 0 0 0-.136.417l.35 2.025a.506.506 0 0 1-.734.531l-1.836-.958a.475.475 0 0 0-.44 0l-1.835.957a.506.506 0 0 1-.735-.53l.35-2.025a.472.472 0 0 0-.136-.417l-1.53-1.48a.47.47 0 0 1 .262-.802l2.117-.305a.472.472 0 0 0 .356-.257l.917-1.843a.508.508 0 0 1 .909 0l.917 1.843a.472.472 0 0 0 .356.257l2.117.305a.47.47 0 0 1 .261.802Z" clip-rule="evenodd"/></svg>