<svg xmlns="http://www.w3.org/2000/svg" width="24" height="24" fill="none"><path fill="currentColor" fill-rule="evenodd" d="m19.57 8.586-5.964-5.001a2.5 2.5 0 0 0-3.213 0L4.429 8.586c-.906.76-1.43 1.067-1.43 3.065V18c0 2 1 3 3 3h12c2 0 3-1 3-3v-6.349c.001-1.999-.522-2.305-1.43-3.065Zm-3.04 4.744-2.235 2.235a1.55 1.55 0 0 1-2.189.001l-1.271-1.269-2.304 2.232a.748.748 0 0 1-1.06 0 .75.75 0 0 1 0-1.061l2.232-2.232a1.553 1.553 0 0 1 2.191-.001l1.271 1.27 2.306-2.236a.75.75 0 1 1 1.059 1.061Z" clip-rule="evenodd"/></svg>