<svg xmlns="http://www.w3.org/2000/svg" width="24" height="24" fill="none"><path fill="currentColor" fill-rule="evenodd" d="m19.57 8.586-5.964-5.001a2.5 2.5 0 0 0-3.213 0L4.429 8.586c-.906.76-1.43 1.067-1.43 3.065V18c0 2 1 3 3 3h12c2 0 3-1 3-3v-6.349c.001-1.999-.522-2.305-1.43-3.065ZM16.75 16a.75.75 0 0 1-.75.75h-2.5a.75.75 0 0 1 0-1.5h.689l-1.558-1.558-1.096 1.179c-.543.543-1.493.545-2.039 0L7.47 12.844a.75.75 0 1 1 1.061-1.061l2.027 2.027 1.096-1.179c.545-.545 1.494-.544 2.039 0l1.558 1.558V13.5a.75.75 0 0 1 1.5 0V16h-.001Z" clip-rule="evenodd"/></svg>