<svg xmlns="http://www.w3.org/2000/svg" width="24" height="24" fill="none"><path fill="currentColor" d="m21.558 12.301-2.162-6.487C18.869 4.232 17.568 3.25 16 3.25H8c-1.567 0-2.868.982-3.396 2.564L2.444 12.3a3.732 3.732 0 0 0-.194 1.187V18c0 2.418 1.332 3.75 3.75 3.75h12c2.418 0 3.75-1.332 3.75-3.75v-4.513c0-.405-.065-.805-.192-1.186ZM6.028 6.288C6.348 5.325 7.086 4.75 8 4.75h8c.914 0 1.65.575 1.972 1.538l2.071 6.212h-2.998c-1.16 0-2.24.659-2.886 1.763A2.508 2.508 0 0 1 12 15.5a2.508 2.508 0 0 1-2.159-1.237C9.195 13.159 8.115 12.5 6.955 12.5H3.958l2.07-6.212Z"/></svg>