<svg xmlns="http://www.w3.org/2000/svg" width="24" height="24" fill="none"><path fill="currentColor" d="M21 11.5v6.75a1.25 1.25 0 0 1-2.5 0V10h1a1.5 1.5 0 0 1 1.5 1.5ZM19 21H6c-2 0-3-1-3-3V6c0-2 1-3 3-3h8c2 0 3 1 3 3v13a2 2 0 0 0 2 2ZM6.25 7.29c0 .415.135.821.378 1.14a1.84 1.84 0 0 0 1.005.676l.929.24c.153.04.26.19.26.364 0 .14-.068.231-.107.272a.312.312 0 0 1-.226.101h-.405c-.166 0-.311-.146-.331-.331a.75.75 0 0 0-1.492.162 1.86 1.86 0 0 0 1.262 1.573v.013a.75.75 0 0 0 1.5 0v-.007a1.82 1.82 0 0 0 .771-.469c.34-.354.527-.82.527-1.313 0-.856-.567-1.602-1.382-1.816l-.93-.24a.35.35 0 0 1-.185-.128.397.397 0 0 1-.075-.236c0-.206.149-.374.333-.374h.405c.168 0 .311.142.331.331a.75.75 0 0 0 1.492-.162 1.857 1.857 0 0 0-1.288-1.58v-.005a.75.75 0 0 0-1.5 0v.015A1.865 1.865 0 0 0 6.25 7.29Zm4.5 9.71a.75.75 0 0 0-.75-.75H7a.75.75 0 0 0 0 1.5h3a.75.75 0 0 0 .75-.75Zm3-3a.75.75 0 0 0-.75-.75H7a.75.75 0 0 0 0 1.5h6a.75.75 0 0 0 .75-.75Z"/></svg>