<svg xmlns="http://www.w3.org/2000/svg" width="24" height="24" fill="none"><path fill="currentColor" d="m11.6 8.31-8.395 2.802a.301.301 0 0 0-.205.284v1.654l1.59-.53c.39-.13.82.09.95.47a.752.752 0 0 1-.48.95l-1.855.622a.3.3 0 0 0-.205.284v1.824c0 .86.55 1.62 1.37 1.89l7 2.34c.41.13.85.13 1.26 0l7-2.34c.82-.27 1.37-1.03 1.37-1.89v-1.823a.3.3 0 0 0-.206-.285l-1.934-.642a.753.753 0 0 1 .48-1.43l1.266.419a.3.3 0 0 0 .394-.285v-1.229a.299.299 0 0 0-.205-.284L12.4 8.31a1.372 1.372 0 0 0-.8.001Zm-4.64 5c-.07.02-.15.04-.23.04-.33 0-.61-.21-.72-.52a.752.752 0 0 1 .04-.57c.09-.18.25-.31.44-.38.38-.12.82.09.95.48a.75.75 0 0 1-.48.95Zm8.58-1.29c.13-.38.56-.6.95-.48.4.14.61.56.48.95-.11.31-.39.52-.72.52-.08 0-.16-.02-.23-.04a.786.786 0 0 1-.44-.38.752.752 0 0 1-.04-.57Zm-.95-1.11h.01a.752.752 0 0 1 .47.95c-.13.38-.56.6-.95.48l-1.73-.58a1.24 1.24 0 0 0-.69-.03s-.02.01-.03.01c-.02.01-.04.01-.06.02l-1.8.6c-.08.02-.16.04-.24.04a.75.75 0 0 1-.71-.52.752.752 0 0 1 .47-.95l1.8-.59c.05-.02.09-.03.14-.05.5-.14 1.08-.13 1.6.05l1.72.57ZM21 7.33v1.854a.3.3 0 0 1-.395.284L12.87 6.89a2.755 2.755 0 0 0-1.74 0L3.395 9.468A.3.3 0 0 1 3 9.184V7.33c0-.86.55-1.62 1.37-1.89l7-2.34c.41-.13.85-.13 1.26 0l7 2.34c.82.27 1.37 1.03 1.37 1.89Z"/></svg>