<svg xmlns="http://www.w3.org/2000/svg" width="24" height="24" fill="none"><path fill="currentColor" d="M17.3 8.86c.07.2-.08.39-.28.39H6.98a.29.29 0 0 1-.28-.39c.51-1.5.93-3.35.98-5.46 0-.22.18-.39.39-.39h7.87c.22 0 .39.18.39.39.05 2.12.46 3.96.98 5.46h-.01Zm1.64 3.54c-.21-.35-.5-.85-.79-1.47a.313.313 0 0 0-.27-.17H6.12c-.11 0-.22.07-.27.17-.3.62-.58 1.12-.79 1.47-.16.27.03.6.34.6h5.85v7.25H9.5c-.41 0-.75.34-.75.75s.34.75.75.75h5c.41 0 .75-.34.75-.75s-.34-.75-.75-.75h-1.75V13h2v3c0 .41.34.75.75.75s.75-.34.75-.75v-3h2.35c.31 0 .51-.34.34-.6Z"/></svg>