<svg xmlns="http://www.w3.org/2000/svg" width="24" height="24" fill="none"><path fill="currentColor" d="M20.77 5.93c.15-.28.23-.6.23-.93 0-1.1-.9-2-2-2-.33 0-.65.08-.93.23-.52.28-1.11.38-1.68.2-3.04-.96-6.94.12-9.83 3.01-2.89 2.89-3.97 6.75-3.04 9.79.18.6.07 1.22-.25 1.76a2.006 2.006 0 0 0 2.74 2.74c.54-.32 1.16-.43 1.76-.25 3.04.93 6.9-.15 9.79-3.04 2.89-2.89 3.97-6.79 3.01-9.83-.18-.57-.08-1.16.2-1.68ZM9.02 17.5c-.55 0-1-.45-1-1s.44-1 1-1c.55 0 1 .45 1 1s-.45 1-1 1Zm2-3c-.55 0-1-.45-1-1s.44-1 1-1c.55 0 1 .45 1 1s-.45 1-1 1Zm2 3c-.55 0-1-.45-1-1s.44-1 1-1c.55 0 1 .45 1 1s-.45 1-1 1Z"/></svg>