<svg xmlns="http://www.w3.org/2000/svg" width="24" height="24" fill="none"><path fill="currentColor" d="M17.625 3H6.375C4.125 3 3 4.125 3 6.375v11.25C3 19.875 4.125 21 6.375 21h11.25C19.875 21 21 19.875 21 17.625V6.375C21 4.125 19.875 3 17.625 3ZM9 15.95a.3.3 0 0 1-.3.3h-.66a.79.79 0 0 1-.79-.79v-3.7c0-.435.355-.79.79-.79h.66a.3.3 0 0 1 .3.3v4.68ZM16.619 12l-1.06 3.17c-.21.64-.44 1.08-1.5 1.08h-3.76a.3.3 0 0 1-.3-.3v-5.262c0-.032.005-.063.015-.094l1.085-3.304a.84.84 0 0 1 .79-.54c.16 0 .32.04.46.14.44.29.7.79.7 1.32v1.71h2.07c1.58 0 1.84 1.06 1.5 2.08Z"/></svg>