<svg xmlns="http://www.w3.org/2000/svg" width="24" height="24" fill="none"><path fill="currentColor" d="M10 17H7a5.008 5.008 0 0 1-3.532-1.458A5.016 5.016 0 0 1 2 12c0-2.757 2.243-5 5-5h1a1 1 0 1 1 0 2H7c-1.654 0-3 1.346-3 3 0 .795.313 1.551.882 2.128A3.01 3.01 0 0 0 7 15h3c1.654 0 3-1.346 3-3a1 1 0 1 1 2 0c0 2.757-2.243 5-5 5Zm12-5a5.014 5.014 0 0 0-1.468-3.542A5.008 5.008 0 0 0 17 7h-3c-2.757 0-5 2.243-5 5a1 1 0 1 0 2 0c0-1.654 1.346-3 3-3h3c.795 0 1.55.313 2.118.872.568.577.882 1.333.882 2.128 0 1.654-1.346 3-3 3h-1a1 1 0 1 0 0 2h1c2.757 0 5-2.243 5-5Z"/></svg>