<svg xmlns="http://www.w3.org/2000/svg" width="24" height="24" fill="none"><path fill="currentColor" d="M17.565 14.546a.999.999 0 0 1-.709-1.705l1.968-1.978A3.958 3.958 0 0 0 20 8.024c0-1.08-.417-2.091-1.174-2.848a4.028 4.028 0 0 0-5.687 0l-1.966 1.976a1 1 0 0 1-1.418-1.41l1.968-1.978a6.03 6.03 0 0 1 8.517-.002A5.982 5.982 0 0 1 22 8.024c0 1.619-.626 3.13-1.764 4.256l-1.962 1.973a1 1 0 0 1-.709.293Zm-5.291 5.694 1.979-1.968a.999.999 0 1 0-1.41-1.418l-1.98 1.97a4.028 4.028 0 0 1-5.687 0 4.026 4.026 0 0 1-.002-5.684l1.98-1.968a.999.999 0 1 0-1.411-1.418l-1.98 1.97a6.026 6.026 0 0 0 0 8.514 6.006 6.006 0 0 0 4.259 1.76 5.984 5.984 0 0 0 4.252-1.758Zm-2.567-4.533 6.026-6.025a.999.999 0 1 0-1.414-1.414l-6.026 6.025a.999.999 0 1 0 1.414 1.414Z"/></svg>