<svg xmlns="http://www.w3.org/2000/svg" width="24" height="24" fill="none"><path fill="currentColor" d="M20.042 8.267A8.33 8.33 0 0 1 20.5 11c0 4.983-4.629 8.041-7.692 10.064l-.53.352a.5.5 0 0 1-.552.001l-.306-.2c-.818-.539-1.746-1.15-2.681-1.86a.5.5 0 0 1-.051-.75l10.53-10.53a.496.496 0 0 1 .824.19ZM21.53 2.47a.75.75 0 0 0-1.061 0l-2.503 2.503A8.424 8.424 0 0 0 11.999 2.5c-4.69 0-8.5 3.81-8.5 8.5 0 2.121.83 4.067 2.516 5.923L2.468 20.47a.75.75 0 0 0 1.06 1.061l18-18a.75.75 0 0 0 .002-1.062Z"/></svg>