<svg xmlns="http://www.w3.org/2000/svg" width="24" height="24" fill="none"><path fill="currentColor" d="M21 11.25h-2.04l.001.014a7.001 7.001 0 0 0-6.224-6.225l.013.001V3c0-.41-.34-.75-.75-.75s-.75.34-.75.75v2.04h.013a7.001 7.001 0 0 0-6.224 6.224l.001-.014H3c-.41 0-.75.34-.75.75s.34.75.75.75h2.04l-.001-.014a7.002 7.002 0 0 0 6.224 6.225l-.013-.001V21c0 .41.34.75.75.75s.75-.34.75-.75v-2.04h-.013a7.001 7.001 0 0 0 6.224-6.224l-.001.014H21c.41 0 .75-.34.75-.75s-.34-.75-.75-.75Zm-9 3.25a2.5 2.5 0 1 1 0-5 2.5 2.5 0 0 1 0 5Z"/></svg>