<svg xmlns="http://www.w3.org/2000/svg" width="24" height="24" fill="none"><path fill="currentColor" d="M12 2.5c-4.687 0-8.5 3.813-8.5 8.5 0 4.983 4.629 8.041 7.692 10.064l.53.352a.5.5 0 0 0 .554 0l.53-.352c3.063-2.023 7.692-5.081 7.692-10.064C20.5 6.313 16.687 2.5 12 2.5Zm.02 12.5a1.005 1.005 0 0 1-1.005-1c0-.552.442-1 .995-1h.01a1 1 0 0 1 0 2Zm1.324-3.949c-.556.37-.631.557-.634.565a.77.77 0 0 1-.713.496.74.74 0 0 1-.707-.976c.202-.599.795-1.048 1.224-1.333.637-.423.644-.852.593-1.137a1.136 1.136 0 0 0-.896-.896 1.126 1.126 0 0 0-1.335 1.106.75.75 0 0 1-1.5 0c0-.777.342-1.511.938-2.011a2.637 2.637 0 0 1 2.157-.573 2.645 2.645 0 0 1 2.114 2.114c.184 1.052-.256 1.991-1.241 2.645Z"/></svg>