<svg xmlns="http://www.w3.org/2000/svg" width="24" height="24" fill="none"><path fill="currentColor" d="M7.17 14H4c-.55 0-1-.45-1-1V9c0-2 1-3 3-3h9c2 0 3 1 3 3v4c0 .55-.45 1-1 1h-3.17c-.52 0-1-.27-1.27-.71l-1.21-1.94a1 1 0 0 0-1.7 0l-1.21 1.94c-.27.44-.75.71-1.27.71ZM21 2.25c-.41 0-.75.34-.75.75v15c0 1.58-.67 2.25-2.25 2.25h-4.5c-1.58 0-2.25-.67-2.25-2.25v-.25h1.25c.41 0 .75-.34.75-.75s-.34-.75-.75-.75h-4c-.41 0-.75.34-.75.75s.34.75.75.75h1.25V18c0 2.42 1.33 3.75 3.75 3.75H18c2.42 0 3.75-1.33 3.75-3.75V3c0-.41-.34-.75-.75-.75Z"/></svg>