<svg xmlns="http://www.w3.org/2000/svg" width="24" height="24" fill="none"><path fill="currentColor" d="M20.5 7.25h-1.96a1.995 1.995 0 0 0-.991-.665S14 5 12 5c-2 0-5.549 1.585-5.549 1.585a1.982 1.982 0 0 0-.991.665H3.5A2.253 2.253 0 0 0 1.25 9.5V13A4.756 4.756 0 0 0 6 17.75h.87a6.97 6.97 0 0 0 2.372 1.684 6.997 6.997 0 0 0 5.515 0 6.97 6.97 0 0 0 2.372-1.684h.87a4.756 4.756 0 0 0 4.75-4.75V9.5A2.251 2.251 0 0 0 20.5 7.25ZM2.75 13V9.5a.75.75 0 0 1 .75-.75H5V13c0 1.152.295 2.25.807 3.23A3.244 3.244 0 0 1 2.75 13ZM15 15.25H9a.75.75 0 0 1 0-1.5h6a.75.75 0 0 1 0 1.5Zm-7-3a.75.75 0 0 1 0-1.5h8a.75.75 0 0 1 0 1.5H8Zm13.25.75a3.244 3.244 0 0 1-3.057 3.23c.511-.98.807-2.079.807-3.23V8.75h1.5a.75.75 0 0 1 .75.75V13Z"/></svg>