<svg xmlns="http://www.w3.org/2000/svg" width="24" height="24" fill="none"><path fill="currentColor" d="M19 5H9C7 5 6 6 6 8v10a2 2 0 0 1-2 2h15c2 0 3-1 3-3V8c0-2-1-3-3-3Zm-5 10.577c0 .615-.308.923-.923.923H9.923c-.615 0-.923-.308-.923-.923v-2.154c0-.615.308-.923.923-.923h3.154c.615 0 .923.308.923.923v2.154Zm5 1.173h-2a.75.75 0 0 1 0-1.5h2a.75.75 0 0 1 0 1.5Zm0-3h-2a.75.75 0 0 1 0-1.5h2a.75.75 0 0 1 0 1.5Zm0-4H9.75a.75.75 0 0 1 0-1.5H19a.75.75 0 0 1 0 1.5ZM3.251 18.499A1.25 1.25 0 0 1 2 17.249V11c0-1.1.9-2 2-2h.5v8.249a1.25 1.25 0 0 1-1.249 1.25Z"/></svg>