<svg xmlns="http://www.w3.org/2000/svg" width="24" height="24" fill="none"><path fill="currentColor" d="M17 3H7C5 3 4 4 4 6v12c0 2 1 3 3 3h10c2 0 3-1 3-3V6c0-2-1-3-3-3Zm-6.97 12.864-1.333 1.333a.748.748 0 0 1-1.06.001l-.667-.667a.75.75 0 1 1 1.061-1.061l.137.137.803-.803a.75.75 0 1 1 1.059 1.06Zm0-4-1.333 1.333a.748.748 0 0 1-1.06.001l-.667-.667a.75.75 0 1 1 1.061-1.061l.137.137.803-.803a.75.75 0 1 1 1.059 1.06Zm0-4L8.697 9.197a.748.748 0 0 1-1.06.001l-.667-.667A.75.75 0 1 1 8.031 7.47l.137.137.803-.803a.75.75 0 1 1 1.059 1.06Zm6.47 8.886h-4a.75.75 0 0 1 0-1.5h4a.75.75 0 0 1 0 1.5Zm0-4h-4a.75.75 0 0 1 0-1.5h4a.75.75 0 0 1 0 1.5Zm0-4h-4a.75.75 0 0 1 0-1.5h4a.75.75 0 0 1 0 1.5Z"/></svg>