<svg xmlns="http://www.w3.org/2000/svg" width="24" height="24" fill="none"><path fill="currentColor" d="M17.625 3H6.375C4.125 3 3 4.125 3 6.375v11.25C3 19.875 4.125 21 6.375 21h11.25C19.875 21 21 19.875 21 17.625V6.375C21 4.125 19.875 3 17.625 3ZM10.03 14.364l-1.333 1.333a.748.748 0 0 1-1.06.001l-.667-.667a.75.75 0 1 1 1.061-1.061l.137.137.803-.803a.75.75 0 1 1 1.059 1.06Zm0-5-1.333 1.333a.748.748 0 0 1-1.06.001l-.667-.667A.75.75 0 1 1 8.031 8.97l.137.137.803-.803a.75.75 0 1 1 1.059 1.06Zm6.47 5.886h-4a.75.75 0 0 1 0-1.5h4a.75.75 0 0 1 0 1.5Zm0-5h-4a.75.75 0 0 1 0-1.5h4a.75.75 0 0 1 0 1.5Z"/></svg>