<svg xmlns="http://www.w3.org/2000/svg" width="24" height="24" fill="none"><path fill="currentColor" d="M20.7 10.75H3.3a.3.3 0 0 0-.3.3V18c0 2 1 3 3 3h12c2 0 3-1 3-3v-6.95a.3.3 0 0 0-.3-.3Zm-5.318 4.15-1.26 1.202a.378.378 0 0 0-.112.339l.288 1.646c.058.334-.298.588-.604.431l-1.512-.778a.399.399 0 0 0-.362 0l-1.511.777c-.306.158-.664-.098-.605-.432l.288-1.644a.378.378 0 0 0-.112-.339L8.62 14.9a.38.38 0 0 1 .216-.652L10.58 14a.386.386 0 0 0 .293-.209l.755-1.498a.42.42 0 0 1 .748 0l.755 1.498a.39.39 0 0 0 .293.209l1.743.248a.38.38 0 0 1 .216.652ZM3.326 8.868 4.38 5.18C4.75 3.89 5 3 7.26 3h3.69a.3.3 0 0 1 .3.3v5.65a.3.3 0 0 1-.3.3H3.614a.3.3 0 0 1-.288-.382Zm9.424.082V3.3a.3.3 0 0 1 .3-.3h3.69c2.26 0 2.51.89 2.88 2.18l1.054 3.688a.3.3 0 0 1-.288.382H13.05a.3.3 0 0 1-.3-.3Z"/></svg>