<svg xmlns="http://www.w3.org/2000/svg" width="24" height="24" fill="none"><path fill="currentColor" d="M12.75 8.95V3.3a.3.3 0 0 1 .3-.3h3.69c2.26 0 2.51.89 2.88 2.18l1.054 3.688a.3.3 0 0 1-.288.382H13.05a.3.3 0 0 1-.3-.3Zm-9.136.3h7.336a.3.3 0 0 0 .3-.3V3.3a.3.3 0 0 0-.3-.3H7.26C5 3 4.75 3.89 4.38 5.18L3.326 8.868a.3.3 0 0 0 .288.382ZM21 11.05V18c0 2-1 3-3 3H6c-2 0-3-1-3-3v-6.95a.3.3 0 0 1 .3-.3h17.4a.3.3 0 0 1 .3.3Zm-7.453 1.2C12.389 12.245 12 13.393 12 13.393s-.389-1.148-1.547-1.143c-1.556.007-2.167 1.435-1.887 2.854C9.022 17.417 12 18.75 12 18.75s2.978-1.332 3.434-3.646c.28-1.419-.329-2.847-1.887-2.854Z"/></svg>