<svg xmlns="http://www.w3.org/2000/svg" width="24" height="24" fill="none"><path fill="currentColor" d="m5.85 3.43.02-.47C5.9 2.42 6.34 2 6.88 2h10.25c.53 0 .97.42 1 .95l.02.48c0 .17-.13.31-.3.31H6.14a.3.3 0 0 1-.3-.32l.01.01Zm11.76 3.81c.17 0 .33-.04.48-.1 0 0 .24-.11.24-.26 0-.15-.08-1.35-.08-1.35 0-.16-.14-.28-.3-.28h-1.9a.3.3 0 0 0-.3.32v.1c.1.92.93 1.62 1.85 1.58l.01-.01ZM8.24 5.66v-.1c0-.17-.13-.32-.3-.32h-1.9c-.16 0-.29.13-.3.28 0 0-.08 1.2-.08 1.35 0 .15.24.26.24.26.15.06.3.09.48.1.92.05 1.75-.66 1.85-1.58l.01.01Zm10.18 3.36c0-.32-.26-.35-.37-.33-.18.03-.36.05-.55.05-1.79 0-3.25-1.46-3.25-3.25 0-.08 0-.25-.3-.25h-3.89c-.27 0-.3.17-.3.25 0 1.79-1.46 3.25-3.25 3.25-.21 0-.41-.02-.6-.05-.1-.02-.32.09-.32.33 0 .24-.58 11.91-.58 11.91-.03.58.43 1.06 1.01 1.06h2.16c.47 0 .88-.33.98-.79l2.65-12.08c.05-.21.35-.21.4 0l2.65 12.08c.1.46.51.79.98.79H18c.58 0 1.04-.48 1.01-1.06 0 0-.58-11.59-.58-11.91h-.01Z"/></svg>