<svg xmlns="http://www.w3.org/2000/svg" width="24" height="24" fill="none"><path fill="currentColor" d="m20.71 17.12-3.59 3.59a.998.998 0 0 1-1.41 0l-1.968-1.968a.3.3 0 0 1 0-.424l4.576-4.576a.3.3 0 0 1 .424 0l1.968 1.968a.998.998 0 0 1 0 1.41Zm-2.961-5.135L16.48 6.91a3.014 3.014 0 0 0-2.42-2.24L4.15 3.01l-.027.053L9.62 8.56c.5-.15 1.05-.02 1.44.38.59.58.59 1.53 0 2.12-.58.59-1.54.59-2.12 0-.4-.39-.53-.95-.38-1.44L3 4.06l-.005.002L4.67 14.06c.2 1.18 1.08 2.13 2.24 2.42l5.075 1.269a.298.298 0 0 0 .285-.079l5.4-5.4a.303.303 0 0 0 .079-.285Z"/></svg>