<svg xmlns="http://www.w3.org/2000/svg" width="24" height="24" fill="none"><path fill="currentColor" d="M12 2C6.477 2 2 6.477 2 12s4.477 10 10 10 10-4.477 10-10S17.523 2 12 2Zm-.75 4.5a.75.75 0 0 1 1.5 0v4.444a.75.75 0 0 1-1.5 0V6.5ZM12 17.25a5.2 5.2 0 0 1-5.194-5.194c0-1.384.542-2.688 1.526-3.673a.75.75 0 1 1 1.061 1.061 3.673 3.673 0 0 0-1.087 2.612A3.698 3.698 0 0 0 12 15.75a3.698 3.698 0 0 0 3.694-3.694c0-.983-.386-1.91-1.087-2.612a.75.75 0 1 1 1.061-1.06 5.165 5.165 0 0 1 1.526 3.672A5.2 5.2 0 0 1 12 17.25Z"/></svg>