<svg xmlns="http://www.w3.org/2000/svg" width="24" height="24" fill="none"><path fill="currentColor" d="M21 2.25H3a.75.75 0 0 0 0 1.5h1V13c0 2.29 1.21 3.5 3.5 3.5h3.75v2.1l-2.67 1.78c-.34.23-.43.69-.2 1.04.23.34.69.43 1.04.2L12 19.9l2.58 1.72a.751.751 0 0 0 .84-1.24l-2.67-1.78v-2.1h3.75c2.29 0 3.5-1.21 3.5-3.5V3.75h1a.75.75 0 0 0 0-1.5Zm-4.25 9.093a.75.75 0 0 1-.464.693.75.75 0 0 1-.287.058h-2.5a.75.75 0 0 1 0-1.5h.689L12.63 9.036l-1.096 1.179a1.442 1.442 0 0 1-2.038 0L7.469 8.188A.75.75 0 0 1 8.53 7.127l2.027 2.027 1.096-1.179a1.442 1.442 0 0 1 2.038 0l1.558 1.558v-.689a.75.75 0 0 1 1.5 0v2.499h.001Z"/></svg>