<svg xmlns="http://www.w3.org/2000/svg" width="24" height="24" fill="none"><path fill="currentColor" d="M21 2.25H3a.75.75 0 0 0 0 1.5h1V13c0 2.29 1.21 3.5 3.5 3.5h3.75v2.1l-2.67 1.78c-.34.23-.43.69-.2 1.04.23.34.69.43 1.04.2L12 19.9l2.58 1.72a.751.751 0 0 0 .84-1.24l-2.67-1.78v-2.1h3.75c2.29 0 3.5-1.21 3.5-3.5V3.75h1a.75.75 0 0 0 0-1.5Zm-8.5 11.5h-1a.75.75 0 0 1 0-1.5h1a.75.75 0 0 1 0 1.5Zm1.28-3.394c-.211.191-.369.548-.467.871a.392.392 0 0 1-.378.273h-1.878a.392.392 0 0 1-.378-.272c-.098-.327-.266-.691-.47-.889a2.604 2.604 0 0 1-.855-1.941 2.646 2.646 0 0 1 3.037-2.62c1.117.156 2.051 1.055 2.223 2.17a2.678 2.678 0 0 1-.834 2.408Z"/></svg>