<svg xmlns="http://www.w3.org/2000/svg" width="24" height="24" fill="none"><path fill="currentColor" d="M20.462 7.997C20.82 8.485 21 9.153 21 10v5.5a1.5 1.5 0 0 1-1.5 1.5h-1.75v3c0 .962-.788 1.75-1.75 1.75H8c-.333 0-.646-.089-.925-.264-.106-.066-.266-.275-.064-.476l.631-.651c.123-.123.176-.108.358-.108h8a.25.25 0 0 0 .25-.25v-4.25h-3.301a.293.293 0 0 1-.19-.509l7.26-7.26c.125-.126.339-.126.443.015ZM21.53 3.53l-18 18a.748.748 0 0 1-1.06 0 .75.75 0 0 1 0-1.061l3.47-3.47H4.501c-.83 0-1.5-.67-1.5-1.5v-5.5c0-2 1-3 3-3h.25V4c0-.965.785-1.75 1.75-1.75h7c.199 0 .39.079.53.22l2 2a.75.75 0 0 1 .22.53v.189l2.72-2.72a.75.75 0 1 1 1.06 1.062Zm-5.28 1.781L14.689 3.75H8a.25.25 0 0 0-.25.25v3h8.189l.311-.311V5.311Z"/></svg>