<svg xmlns="http://www.w3.org/2000/svg" width="24" height="24" fill="none"><path fill="currentColor" d="M21 12a9 9 0 0 1-18 0c0-2.21.806-4.242 2.134-5.806L4.47 5.53a.75.75 0 1 1 1.061-1.061l7 7a.75.75 0 0 1-1.06 1.061l-1.296-1.296a1.965 1.965 0 0 0-.153.766c0 1.1.9 2 2 2s2-.9 2-2-.9-2-2-2H12V7.25c2.62 0 4.75 2.13 4.75 4.75 0 1.27-.49 2.46-1.38 3.36-.91.9-2.1 1.39-3.37 1.39-2.62 0-4.75-2.13-4.75-4.75 0-1.008.326-1.97.912-2.777l-1.08-1.08A6.237 6.237 0 0 0 5.75 12a6.257 6.257 0 0 0 10.677 4.42A6.257 6.257 0 0 0 12 5.75V3a9 9 0 0 1 9 9Z"/></svg>