<svg xmlns="http://www.w3.org/2000/svg" width="24" height="24" fill="none"><path fill="currentColor" d="M12 2C6.477 2 2 6.477 2 12s4.477 10 10 10 10-4.477 10-10S17.523 2 12 2Zm0 9.111a1 1 0 1 1 0 2 1 1 0 0 1 0-2Zm-6.499.486a6.68 6.68 0 0 1 2.925-5.178.354.354 0 0 1 .505.13L10.83 9.9a2.515 2.515 0 0 0-1.35 2.081H5.87a.364.364 0 0 1-.369-.383Zm9.431 6.327a6.374 6.374 0 0 1-5.864 0 .366.366 0 0 1-.137-.505l1.762-3.12c.383.238.831.368 1.307.368s.924-.13 1.307-.368l1.762 3.12a.366.366 0 0 1-.137.505Zm3.199-5.944h-3.61a2.518 2.518 0 0 0-1.35-2.08l1.899-3.35a.355.355 0 0 1 .505-.131 6.684 6.684 0 0 1 2.925 5.178.365.365 0 0 1-.369.383Z"/></svg>