<svg xmlns="http://www.w3.org/2000/svg" width="24" height="24" fill="none"><path fill="currentColor" d="m18.4 4.579-1.359 1.019a1.501 1.501 0 0 1-1.961-.139L13.061 3.44a1.5 1.5 0 0 0-2.121 0L8.92 5.459a1.5 1.5 0 0 1-1.961.139L5.601 4.579a1 1 0 0 0-1.6.8v13.243a1 1 0 0 0 1.6.8l1.359-1.019a1.501 1.501 0 0 1 1.961.139l2.019 2.019a1.5 1.5 0 0 0 2.121 0l2.019-2.019a1.5 1.5 0 0 1 1.961-.139l1.359 1.019a1 1 0 0 0 1.6-.8V5.379a1 1 0 0 0-1.6-.8ZM9.51 8.5h.01a1 1 0 1 1 0 2 1.005 1.005 0 0 1-1.005-1c0-.552.443-1 .995-1Zm.52 6.53a.748.748 0 0 1-1.06 0 .75.75 0 0 1 0-1.061l5-5a.75.75 0 1 1 1.061 1.061l-5.001 5Zm4.49.47a1.005 1.005 0 0 1-1.005-1c0-.552.443-1 .995-1h.01a1 1 0 1 1 0 2Z"/></svg>