<svg xmlns="http://www.w3.org/2000/svg" width="24" height="24" fill="none"><path fill="currentColor" d="M17 3H7C5 3 4 4 4 6v12.621a1 1 0 0 0 1.6.8l1.359-1.019a1.501 1.501 0 0 1 1.961.139l2.019 2.019a1.5 1.5 0 0 0 2.121 0l2.019-2.019a1.5 1.5 0 0 1 1.961-.139l1.359 1.019a1 1 0 0 0 1.6-.8V6C20 4 19 3 17 3Zm-1.075 7.766C15.403 13.435 12 14.972 12 14.972s-3.403-1.537-3.925-4.206c-.32-1.637.379-3.285 2.156-3.294 1.324-.006 1.768 1.318 1.768 1.318s.444-1.325 1.768-1.318c1.782.009 2.478 1.656 2.158 3.294Z"/></svg>