<svg xmlns="http://www.w3.org/2000/svg" width="24" height="24" fill="none"><path fill="currentColor" d="M17.625 3H6.375C4.125 3 3 4.125 3 6.375v11.25C3 19.875 4.125 21 6.375 21h11.25C19.875 21 21 19.875 21 17.625V6.375C21 4.125 19.875 3 17.625 3ZM12 16.752a4.724 4.724 0 0 1-4.254-2.639.75.75 0 0 1 1.344-.667A3.23 3.23 0 0 0 12 15.252a3.254 3.254 0 0 0 3.25-3.25A3.254 3.254 0 0 0 12 8.752c-.979 0-1.878.446-2.483 1.167h.706a.75.75 0 0 1 0 1.5H8a.75.75 0 0 1-.75-.75V8.447a.75.75 0 0 1 1.5 0v.098A4.748 4.748 0 0 1 12 7.253a4.756 4.756 0 0 1 4.75 4.75A4.755 4.755 0 0 1 12 16.752Z"/></svg>