<svg xmlns="http://www.w3.org/2000/svg" width="24" height="24" fill="none"><path fill="currentColor" d="M12 2C6.477 2 2 6.477 2 12s4.477 10 10 10 10-4.477 10-10S17.523 2 12 2Zm0 14.75a4.724 4.724 0 0 1-4.254-2.639.75.75 0 1 1 1.344-.667A3.23 3.23 0 0 0 12 15.25 3.254 3.254 0 0 0 15.25 12 3.254 3.254 0 0 0 12 8.75c-.979 0-1.878.446-2.483 1.167h.706a.75.75 0 0 1 0 1.5H8a.75.75 0 0 1-.75-.75V8.445a.75.75 0 0 1 1.5 0v.098A4.75 4.75 0 0 1 12 7.25 4.756 4.756 0 0 1 16.75 12 4.756 4.756 0 0 1 12 16.75Z"/></svg>