<svg xmlns="http://www.w3.org/2000/svg" width="24" height="24" fill="none"><path fill="currentColor" d="M15.42 3.16c.99-.11 2.04-.17 3.15-.16 1.33.01 2.42 1.1 2.43 2.43.01 1.16-.05 2.25-.17 3.28l-5.41-5.56v.01ZM3.17 15.28c-.12 1.03-.18 2.12-.17 3.28.01 1.33 1.1 2.42 2.43 2.43 1.11.01 2.16-.05 3.15-.16l-5.41-5.56v.01Zm17.36-4.72c-1.16 5.55-4.54 8.88-10.13 10l-6.94-7.13C4.62 7.88 8 4.55 13.59 3.43l6.94 7.13Zm-5.48-.57.47-.47c.29-.29.29-.77 0-1.06a.754.754 0 0 0-1.06 0l-.47.47-.47-.47a.754.754 0 0 0-1.06 0c-.29.29-.29.77 0 1.06l.47.47-.94.94-.97-.97a.754.754 0 0 0-1.06 0c-.29.29-.29.77 0 1.06l.97.97-.94.94-.47-.47a.754.754 0 0 0-1.06 0c-.29.29-.29.77 0 1.06l.47.47-.47.47c-.29.29-.29.77 0 1.06.15.15.34.22.53.22s.38-.07.53-.22l.47-.47.47.47c.15.15.34.22.53.22s.38-.07.53-.22c.29-.29.29-.77 0-1.06l-.47-.47.94-.94.97.97c.15.15.34.22.53.22s.38-.07.53-.22c.29-.29.29-.77 0-1.06l-.97-.97.94-.94.47.47c.15.15.34.22.53.22s.38-.07.53-.22c.29-.29.29-.77 0-1.06l-.47-.47Z"/></svg>