<svg xmlns="http://www.w3.org/2000/svg" width="24" height="24" fill="none"><path fill="currentColor" d="M2.25 8V4.5c0-1.409.841-2.25 2.25-2.25H8a.75.75 0 0 1 0 1.5H4.5c-.589 0-.75.161-.75.75V8a.75.75 0 0 1-1.5 0ZM8 20.25H4.5c-.589 0-.75-.161-.75-.75V16a.75.75 0 0 0-1.5 0v3.5c0 1.409.841 2.25 2.25 2.25H8a.75.75 0 0 0 0-1.5Zm13-5a.75.75 0 0 0-.75.75v3.5c0 .589-.161.75-.75.75H16a.75.75 0 0 0 0 1.5h3.5c1.409 0 2.25-.841 2.25-2.25V16a.75.75 0 0 0-.75-.75Zm-1.5-13H16a.75.75 0 0 0 0 1.5h3.5c.589 0 .75.161.75.75V8a.75.75 0 0 0 1.5 0V4.5c0-1.409-.841-2.25-2.25-2.25Zm-2 12.87v-2.37H19a.75.75 0 0 0 0-1.5H5a.75.75 0 0 0 0 1.5h1.5v2.37c0 1.53.84 2.38 2.38 2.38h6.24c1.54 0 2.38-.85 2.38-2.38ZM6.25 8.88V9a.75.75 0 0 0 1.5 0v-.12c0-.845.285-1.13 1.13-1.13h6.24c.845 0 1.13.285 1.13 1.13V9a.75.75 0 0 0 1.5 0v-.12c0-1.671-.959-2.63-2.63-2.63H8.88c-1.671 0-2.63.958-2.63 2.63Z"/></svg>