<svg xmlns="http://www.w3.org/2000/svg" width="24" height="24" fill="none"><path fill="currentColor" d="M20.53 19.47a.75.75 0 0 1-1.06 1.061L12 13.061l-3.058 3.058c.349.544.558 1.188.558 1.881 0 1.93-1.57 3.5-3.5 3.5S2.5 19.93 2.5 18s1.57-3.5 3.5-3.5c.694 0 1.337.209 1.881.558L10.939 12 7.881 8.942A3.474 3.474 0 0 1 6 9.5C4.07 9.5 2.5 7.93 2.5 6S4.07 2.5 6 2.5 9.5 4.07 9.5 6c0 .694-.209 1.337-.558 1.881l3.588 3.588 8 8.001Zm-6.03-9.22a.744.744 0 0 0 .53-.22l5.5-5.5a.75.75 0 1 0-1.061-1.061l-5.5 5.5a.75.75 0 0 0 .531 1.281Z"/></svg>