<svg xmlns="http://www.w3.org/2000/svg" width="24" height="24" fill="none"><path fill="currentColor" d="M21 5c-5-1-6.778-1.889-8.982-3C9.778 3.111 8 4 3 5v5.889c0 6.667 5.667 10 9 11.111 3.333-1.111 9-4.444 9-11.111V5Zm-8.98 11a1.005 1.005 0 0 1-1.005-1c0-.552.443-1 .995-1h.01a1 1 0 1 1 0 2Zm1.324-3.949c-.546.364-.626.545-.634.564a.767.767 0 0 1-.713.496.747.747 0 0 1-.708-.976c.202-.598.795-1.047 1.224-1.333.638-.423.645-.852.595-1.138a1.139 1.139 0 0 0-.897-.896 1.123 1.123 0 0 0-1.335 1.106.75.75 0 0 1-1.5 0c0-.778.342-1.511.938-2.011a2.634 2.634 0 0 1 2.157-.573 2.645 2.645 0 0 1 2.114 2.114c.184 1.054-.257 1.993-1.241 2.647Z"/></svg>