<svg xmlns="http://www.w3.org/2000/svg" width="24" height="24" fill="none"><path fill="currentColor" d="M21.923 17.382a1 1 0 0 1-.217.326l-1.999 2a.997.997 0 0 1-1.414 0 .999.999 0 0 1 0-1.415l.293-.293h-1.145a3.98 3.98 0 0 1-3.123-1.5L8.119 8.75A1.987 1.987 0 0 0 6.558 8H3a1 1 0 1 1 0-2h3.559a3.98 3.98 0 0 1 3.123 1.501l6.199 7.748c.381.477.95.75 1.561.75h1.145l-.293-.293a.999.999 0 1 1 1.414-1.414l1.999 1.999a1.002 1.002 0 0 1 .216 1.09ZM13.999 10.5a.995.995 0 0 0 .781-.375l1.101-1.375c.381-.477.95-.75 1.561-.75h1.145l-.293.293a.999.999 0 1 0 1.414 1.414l1.999-1.999a1.002 1.002 0 0 0 0-1.416l-1.999-1.999a.999.999 0 1 0-1.414 1.414l.293.293h-1.145c-1.222 0-2.36.547-3.122 1.501l-1.1 1.374a1 1 0 0 0 .779 1.625ZM9.22 13.875 8.119 15.25c-.381.477-.95.75-1.561.75H3a1 1 0 1 0 0 2h3.559a3.979 3.979 0 0 0 3.122-1.5l1.1-1.375a1 1 0 0 0-1.561-1.25Z"/></svg>