<svg xmlns="http://www.w3.org/2000/svg" width="24" height="24" fill="none"><path fill="currentColor" d="m19.799 6.9-2.686 2a.501.501 0 0 1-.299.1H7.5C6.5 9 6 8.5 6 7.5v-2C6 4.5 6.5 4 7.5 4h3.75V3c0-.41.34-.75.75-.75s.75.34.75.75v1h4.064c.108 0 .212.035.299.1l2.686 2a.5.5 0 0 1 0 .8ZM16.5 12h-3.75v-1.5h-1.5V12H7.186a.504.504 0 0 0-.299.1l-2.686 2a.5.5 0 0 0 0 .8l2.686 2c.086.065.191.1.299.1h4.064v3.25H9a.75.75 0 0 0 0 1.5h6a.75.75 0 0 0 0-1.5h-2.25V17h3.75c1 0 1.5-.5 1.5-1.5v-2c0-1-.5-1.5-1.5-1.5Z"/></svg>