<svg xmlns="http://www.w3.org/2000/svg" width="24" height="24" fill="none"><path fill="currentColor" d="M12 2C6.477 2 2 6.477 2 12s4.477 10 10 10 10-4.477 10-10S17.523 2 12 2Zm4.831 9.393-1.8 1.757a.56.56 0 0 0-.161.495l.412 2.405a.596.596 0 0 1-.863.63l-2.16-1.137a.556.556 0 0 0-.517 0l-2.158 1.136a.597.597 0 0 1-.865-.631l.412-2.403a.558.558 0 0 0-.161-.495l-1.8-1.757a.559.559 0 0 1 .308-.953l2.49-.362a.557.557 0 0 0 .419-.305l1.079-2.189a.596.596 0 0 1 1.069 0l1.079 2.189a.555.555 0 0 0 .419.305l2.49.362c.457.066.64.63.308.953Z"/></svg>