<svg xmlns="http://www.w3.org/2000/svg" width="24" height="24" fill="none"><path fill="currentColor" d="m12.962 4.596 1.942 3.917a1 1 0 0 0 .755.546l4.483.648a.999.999 0 0 1 .555 1.705l-3.241 3.145a.998.998 0 0 0-.289.886l.74 4.304c.15.873-.766 1.539-1.552 1.128l-3.888-2.035a1.002 1.002 0 0 0-.931 0l-3.885 2.033c-.787.412-1.707-.255-1.556-1.13l.741-4.3a.998.998 0 0 0-.289-.886l-3.241-3.145a.998.998 0 0 1 .555-1.705l4.483-.648c.326-.047.608-.251.755-.546l1.942-3.917c.391-.795 1.527-.795 1.921 0Z"/></svg>