<svg xmlns="http://www.w3.org/2000/svg" width="24" height="24" fill="none"><path fill="currentColor" d="M17.667 2H6.334C4.112 2 3.001 3.111 3.001 5.333v10c0 2.222 1.111 3.333 3.333 3.333h1.5c.525 0 1.019.247 1.333.667l1.5 2c.667.889 2 .889 2.667 0l1.5-2c.315-.42.809-.667 1.333-.667h1.5c2.222 0 3.333-1.111 3.333-3.333v-10C21 3.111 19.889 2 17.667 2Zm-.836 7.643-1.8 1.757a.56.56 0 0 0-.161.495l.412 2.405a.596.596 0 0 1-.863.63l-2.16-1.137a.556.556 0 0 0-.517 0l-2.158 1.136a.597.597 0 0 1-.865-.631l.412-2.403a.558.558 0 0 0-.161-.495l-1.8-1.757a.559.559 0 0 1 .308-.953l2.49-.362a.557.557 0 0 0 .419-.305l1.079-2.189a.596.596 0 0 1 1.069 0l1.079 2.189a.555.555 0 0 0 .419.305l2.49.362c.457.066.64.63.308.953Z"/></svg>