<svg xmlns="http://www.w3.org/2000/svg" width="24" height="24" fill="none"><path fill="currentColor" d="M8 21.75c-1.99 0-5.75-.99-5.75-4.75 0-1.73 1.09-2.68 2.04-3.5 1.05-.91 1.96-1.69 1.96-3.5 0-4.42 3.33-7.75 7.75-7.75 4.71 0 7.75 3.24 7.75 8.25S18.15 21.75 8 21.75Zm6-18c-3.56 0-6.25 2.69-6.25 6.25 0 2.49-1.37 3.67-2.47 4.63-.97.84-1.53 1.37-1.53 2.37 0 3.21 4.08 3.25 4.25 3.25 11.66 0 12.25-8.12 12.25-9.75 0-4.98-3.23-6.75-6.25-6.75ZM14 6c-2.36 0-4 1.65-4 4 0 3.51-1.43 4.33-2.64 5.39-.28.24-1.11.85-.86 1.78.23.86 1.22.97 1.54.97 8.97 0 9.96-5.88 9.96-7.64C18 6.78 15.83 6 14 6Zm.02 5.25a1.25 1.25 0 1 1 0-2.5 1.25 1.25 0 0 1 0 2.5Z"/></svg>