<svg xmlns="http://www.w3.org/2000/svg" width="24" height="24" fill="none"><path fill="currentColor" d="M21.05 15.75c-.23.36-.5.7-.81 1.01l-3.49 3.49c-.31.31-.65.57-1.01.81v-2.05c0-1.79 1.46-3.25 3.25-3.25h2.05l.01-.01Zm-6.8 5.99c-.56.17-1.14.26-1.74.26H12C6.38 22 1.85 17.37 2 11.72c.14-5.22 4.49-9.57 9.71-9.71 5.65-.16 10.28 4.38 10.28 10v.51c0 .59-.09 1.18-.26 1.74h-2.74c-2.62 0-4.75 2.13-4.75 4.75v2.74l.01-.01Zm-.48-11.09c.36.21.82.08 1.02-.28.09-.15.33-.15.42 0 .14.24.39.38.65.38.12 0 .25-.03.37-.1.36-.2.49-.66.28-1.02-.31-.54-.89-.88-1.51-.88s-1.21.34-1.51.88c-.2.36-.08.82.28 1.02Zm-4.75.6A1.25 1.25 0 1 0 7.77 10c0 .69.57 1.25 1.25 1.25Zm5.31 3.96c.37-.18.52-.63.34-1.01a.748.748 0 0 0-1-.34c-1.02.51-2.27.52-3.34 0a.752.752 0 0 0-1 .35c-.18.37-.02.82.35 1 .73.35 1.51.53 2.31.53s1.62-.18 2.34-.54v.01Z"/></svg>