<svg xmlns="http://www.w3.org/2000/svg" width="24" height="24" fill="none"><path fill="currentColor" d="M21.05 15.75c-.23.36-.5.7-.81 1.01l-3.49 3.49c-.31.31-.65.57-1.01.81v-2.05c0-1.79 1.46-3.25 3.25-3.25h2.05l.01-.01Zm-6.8 5.99c-.56.17-1.14.26-1.74.26H12C6.38 22 1.85 17.37 2 11.72c.14-5.22 4.49-9.57 9.71-9.71 5.65-.16 10.28 4.38 10.28 10v.51c0 .59-.09 1.18-.26 1.74h-2.74c-2.62 0-4.75 2.13-4.75 4.75v2.74l.01-.01ZM13.76 10c0 .69.57 1.25 1.25 1.25s1.25-.56 1.25-1.25a1.25 1.25 0 0 0-2.5 0Zm-4.75 1.25A1.25 1.25 0 1 0 7.76 10c0 .69.57 1.25 1.25 1.25Zm4.66 4.42c.37.18.82.02 1-.35.18-.37.02-.82-.35-1a5.363 5.363 0 0 0-4.66.02c-.37.18-.52.63-.34 1.01.13.26.4.42.67.42.11 0 .23-.02.33-.08 1.02-.51 2.27-.52 3.34 0l.01-.02Z"/></svg>