<svg xmlns="http://www.w3.org/2000/svg" width="24" height="24" fill="none"><path fill="currentColor" fill-rule="evenodd" d="M8.25 3A.75.75 0 0 1 9 2.25h5a.75.75 0 0 1 0 1.5H9A.75.75 0 0 1 8.25 3ZM19 13.5A7.5 7.5 0 1 1 11.5 6c1.673 0 3.212.554 4.46 1.48l1.51-1.51c.29-.29.77-.29 1.06 0 .29.29.29.77 0 1.06l-1.46 1.46A7.464 7.464 0 0 1 19 13.5Zm-4.47-2.197a.75.75 0 0 0-1.061 0l-2.803 2.803-1.137-1.136a.75.75 0 0 0-1.061 1.061l1.667 1.667a.748.748 0 0 0 1.06 0l3.333-3.333a.75.75 0 0 0 .002-1.062Z" clip-rule="evenodd"/></svg>