<svg xmlns="http://www.w3.org/2000/svg" width="24" height="24" fill="none"><path fill="currentColor" d="M7.25 3A.75.75 0 0 1 8 2.25h5a.75.75 0 0 1 0 1.5H8A.75.75 0 0 1 7.25 3Zm10.549 10.831-4.863 4.893c-.279.281-.435.66-.435 1.055v.704a.31.31 0 0 1-.227.299 7.107 7.107 0 0 1-1.799.217c-3.55-.012-6.714-2.606-7.347-6.1a7.508 7.508 0 0 1 7.373-8.9c1.672 0 3.212.554 4.459 1.48l1.51-1.51c.29-.29.77-.29 1.06 0 .29.29.29.77 0 1.06l-1.46 1.46a7.463 7.463 0 0 1 1.927 4.794c.002.072.023.328-.198.548ZM11.25 10a.75.75 0 0 0-1.5 0v3.5a.75.75 0 0 0 1.5 0V10Zm10.49 5.25-.99-.99a.887.887 0 0 0-1.26 0l-.81.82 2.24 2.24.82-.81c.35-.35.35-.91 0-1.26ZM14 19.78V22h2.22l4-3.98-2.24-2.24-3.98 4Z"/></svg>