<svg xmlns="http://www.w3.org/2000/svg" width="24" height="24" fill="none"><path fill="currentColor" d="M18.23 11.74h-1c0-.43.27-.61.51-.61s.49.17.49.61Zm-3.71-.54c-.22 0-.36.08-.46.19v1.44c.1.1.23.18.46.18.36 0 .6-.39.6-.91s-.24-.9-.6-.9ZM21 8v8c0 2-1 3-3 3H6c-2 0-3-1-3-3V8c0-2 1-3 3-3h12c2 0 3 1 3 3ZM7.6 12.76c0-1.15-1.47-.94-1.47-1.38 0-.15.14-.21.34-.21.34 0 .66.09.96.25v-.91c-.32-.13-.64-.18-.96-.18-.78 0-1.32.41-1.32 1.09 0 1.07 1.47.9 1.47 1.36 0 .18-.14.23-.36.23-.32 0-.72-.13-1.05-.31v.92c.33.14.69.22 1.05.22.8 0 1.34-.4 1.34-1.09v.01Zm1.89-2.36h-.74v-.83l-.94.2v3.14c.02.54.46.96 1 .94.32 0 .55-.06.68-.13v-.79c-.12.05-.73.23-.73-.34v-1.37h.73v-.83.01Zm2.05 0c-.13-.04-.61-.13-.85.29l-.03-.29h-.87v3.39h.97v-2.3c.24-.3.66-.24.78-.2v-.89Zm1.2 0h-.97v3.39h.97V10.4Zm0-1.31-.97.2v.79l.97-.21v-.79.01Zm3.34 2.98c0-1.13-.64-1.74-1.32-1.74-.28 0-.55.11-.76.3l-.02-.24h-.88v4.5l.97-.2V13.6c.14.1.35.24.68.24.69 0 1.32-.56 1.32-1.78l.01.01Zm3.07.02c0-.99-.48-1.76-1.4-1.76-.92 0-1.48.78-1.48 1.76 0 1.17.66 1.75 1.6 1.75.37.02.75-.07 1.07-.26v-.78c-.26.14-.57.22-.95.22s-.71-.15-.75-.6h1.89c0-.05.01-.25.01-.35l.01.02Z"/></svg>