<svg xmlns="http://www.w3.org/2000/svg" width="24" height="24" fill="none"><path fill="currentColor" d="M16.5 12c0 2.481-2.019 4.5-4.5 4.5A4.505 4.505 0 0 1 7.5 12c0-2.481 2.019-4.5 4.5-4.5s4.5 2.019 4.5 4.5Zm-3.75-7V3a.75.75 0 0 0-1.5 0v2a.75.75 0 0 0 1.5 0Zm0 16v-2a.75.75 0 0 0-1.5 0v2a.75.75 0 0 0 1.5 0Zm-7-9a.75.75 0 0 0-.75-.75H3a.75.75 0 0 0 0 1.5h2a.75.75 0 0 0 .75-.75Zm16 0a.75.75 0 0 0-.75-.75h-2a.75.75 0 0 0 0 1.5h2a.75.75 0 0 0 .75-.75ZM7.581 7.581a.75.75 0 0 0 0-1.061L6.167 5.106a.75.75 0 1 0-1.061 1.061L6.52 7.581a.748.748 0 0 0 1.061 0Zm11.313 11.313a.75.75 0 0 0 0-1.061l-1.414-1.414a.75.75 0 1 0-1.061 1.061l1.414 1.414a.748.748 0 0 0 1.061 0Zm-12.727 0 1.414-1.414a.75.75 0 1 0-1.061-1.061l-1.414 1.414a.75.75 0 1 0 1.061 1.061ZM17.48 7.581l1.414-1.414a.75.75 0 1 0-1.061-1.061L16.419 6.52a.75.75 0 1 0 1.061 1.061Z"/></svg>