<svg xmlns="http://www.w3.org/2000/svg" width="24" height="24" fill="none"><path fill="currentColor" d="M21 12.04c-.02.25-.27.57-.59.92C18.9 9.39 15.99 7.42 12 7.42s-6.9 1.97-8.41 5.54c-.32-.35-.57-.67-.59-.92-.05-.89.89-1.68 1.14-2.52.25-.85-.04-2.08.55-2.69.6-.65 1.81-.54 2.55-.99.73-.43 1.2-1.57 2.07-1.81.8-.2 1.77.55 2.69.55.92 0 1.89-.75 2.69-.55.87.24 1.34 1.37 2.07 1.81.74.45 1.95.34 2.55.99.59.61.3 1.84.55 2.69.25.84 1.19 1.63 1.14 2.52Zm-.44 6.37c.04.86-.64 1.59-1.5 1.59H19a176.229 176.229 0 0 0-14 0h-.06c-.86 0-1.54-.73-1.5-1.59.08-1.5.35-3.13.92-4.62 1.1-2.94 3.35-5.37 7.64-5.37 4.29 0 6.54 2.43 7.64 5.37.57 1.49.84 3.12.92 4.62ZM8.02 16c0-.55-.45-1-1-1s-1 .45-1 1 .45 1 1 1 1-.45 1-1Zm2-3c0-.55-.45-1-1-1s-1 .45-1 1 .45 1 1 1 1-.45 1-1Zm2 3c0-.55-.45-1-1-1s-1 .45-1 1 .45 1 1 1 1-.45 1-1Z"/></svg>