<svg xmlns="http://www.w3.org/2000/svg" width="24" height="24" fill="none"><path fill="currentColor" d="m14.548 4.21 1.743-1.01a1.498 1.498 0 0 1 2.046.548l2.462 4.271a1.502 1.502 0 0 1-.549 2.05l-1.739 1.006a1.497 1.497 0 0 1-2.046-.548L14 6.253a1.498 1.498 0 0 1 .548-2.044ZM8.096 14.937l-2.124-3.65a.3.3 0 0 0-.428-.097L3.87 12.33a1.99 1.99 0 0 0-.604 2.642l.264.457a2.004 2.004 0 0 0 2.598.806l1.838-.876a.3.3 0 0 0 .13-.422Zm8.574 5.712-4-7.54 2.542-1.213a.298.298 0 0 0 .128-.425 182.23 182.23 0 0 1-2.719-4.7.298.298 0 0 0-.43-.102l-4.899 3.332a.3.3 0 0 0-.091.399l2.28 3.92a.3.3 0 0 0 .39.12l1.009-.48-3.52 6.689c-.2.37-.06.82.31 1.01.37.2.82.06 1.01-.31l3.32-6.3 3.34 6.3a.754.754 0 0 0 1.02.31c.36-.19.5-.65.31-1.01Z"/></svg>