<svg xmlns="http://www.w3.org/2000/svg" width="24" height="24" fill="none"><path fill="currentColor" d="M10.94 8 8.18 5.24c-.29-.28-.46-.66-.49-1.04L4.93 5.26A3.01 3.01 0 0 0 3 8.06v6.14c0 .51.25.97.67 1.25l1.36.9c.2.13.47 0 .47-.25V9c0-.28.22-.5.5-.5s.5.22.5.5v3.44L10.94 8Zm3.88-4.1c-.03-.05-.09-.15-.23-.15H9.41c-.14 0-.2.1-.23.15-.02.06-.05.17.06.28L12 6.94l2.76-2.76c.11-.11.08-.22.06-.28Zm4.25 1.36L16.31 4.2c-.03.38-.2.76-.49 1.04L6.5 14.56v.39s.01.3.3.3h10.4c.17 0 .3-.13.3-.3V9c0-.28.22-.5.5-.5s.5.22.5.5v7.11c0 .24.27.38.47.25l1.36-.91c.42-.28.67-.75.67-1.25V8.06c0-1.24-.77-2.35-1.93-2.8Zm-1.57 11.7s-.04-.21-.3-.21h-3.39l.72.72c.29.29.29.77 0 1.06-.15.15-.34.22-.53.22s-.38-.07-.53-.22L12 17.06l-1.47 1.47c-.29.29-.77.29-1.06 0a.754.754 0 0 1 0-1.06l.72-.72H6.8c-.3 0-.3.21-.3.21-.01.04-.01.11-.02.16l-.88 3.51c-.04.19.1.37.29.37h12.22c.19 0 .33-.18.29-.37l-.88-3.51s-.01-.12-.02-.16Z"/></svg>