<svg xmlns="http://www.w3.org/2000/svg" width="24" height="24" fill="none"><path fill="currentColor" d="M19.5 18.02c0 2.244-1.243 3.48-3.5 3.48H8c-.372 0-.715-.034-1.019-.102a.5.5 0 0 1-.245-.842l7.851-7.85a.505.505 0 0 1 .421-.142c3.312.453 4.492 3.116 4.492 5.456Zm2.03-15.55a.75.75 0 0 0-1.061 0L15.96 6.979c.019-.159.048-.315.048-.479 0-2.206-1.794-4-4-4s-4 1.794-4 4 1.794 4 4 4c.164 0 .32-.029.48-.048l-2.05 2.048H10c-4.06 0-5.5 2.97-5.5 5.52 0 .139.009.27.018.401L1.469 21.47a.75.75 0 0 0 1.06 1.061l19-19a.75.75 0 0 0 .001-1.061Z"/></svg>