<svg xmlns="http://www.w3.org/2000/svg" width="24" height="24" fill="none"><path fill="currentColor" d="M6.009 6.5c0-2.206 1.794-4 4-4s4 1.794 4 4-1.794 4-4 4-4-1.794-4-4Zm8.571 7.39c.13-.04.25-.08.36-.11.174-.062.23-.17.23-.29a.28.28 0 0 0-.09-.21 1.303 1.303 0 0 0-.13-.08c-.77-.44-1.74-.7-2.95-.7H8c-4.06 0-5.5 2.97-5.5 5.52 0 2.28 1.21 3.48 3.5 3.48h8c.12 0 .23 0 .34-.01.241-.008.33-.15.33-.3 0-.091-.067-.178-.09-.21a5.782 5.782 0 0 1-1.08-3.42v-2.23c0-.66.44-1.25 1.08-1.44Zm3.855.11c-.864.444-1.72.831-3.435 1.333v2.222c0 2.667 2.143 4 3.429 4.444 1.286-.444 3.429-1.778 3.429-4.444v-2.28c-1.715-.444-2.572-.831-3.423-1.275Z"/></svg>