<svg xmlns="http://www.w3.org/2000/svg" width="24" height="24" fill="none"><path fill="currentColor" d="M15.82 10.73c-.15-.1-.16-.31-.04-.44.76-.89 1.23-2.03 1.23-3.29 0-.37-.04-.73-.12-1.08 0 0-.02-.08-.02-.11 0-.16.126-.293.286-.303.01 0 .134-.007.184-.007a2.84 2.84 0 0 1 2.67 3.79c-.29.87-1.03 1.55-1.91 1.78-.85.22-1.65.06-2.28-.34Zm2.85 1.44c-.19 0-.31.13-.31.3 0 .07.056.16.11.22 1.19 1.23 1.75 2.95 1.75 4.66v.89c0 .14.12.26.27.26H22c.28 0 .5-.22.5-.5v-1.99c0-1.77-1-3.84-3.83-3.84ZM5.9 11.07c.85.22 1.65.06 2.28-.34.15-.1.16-.31.04-.44A5.044 5.044 0 0 1 6.99 7c0-.37.04-.73.12-1.08 0 0 .02-.08.02-.11a.305.305 0 0 0-.286-.303c-.01 0-.134-.007-.184-.007a2.84 2.84 0 0 0-2.67 3.79c.29.87 1.03 1.55 1.91 1.78Zm-.26 1.4c0-.17-.12-.3-.31-.3-2.83 0-3.83 2.07-3.83 3.84V18c0 .28.22.5.5.5h1.51c.15 0 .27-.12.27-.26v-.89c0-1.71.56-3.43 1.75-4.66.054-.06.11-.15.11-.22Zm6.368-1.97c1.93 0 3.5-1.57 3.5-3.5s-1.57-3.5-3.5-3.5-3.5 1.57-3.5 3.5 1.57 3.5 3.5 3.5Zm1.769 1.889h-3.555c-3.65 0-4.945 2.672-4.945 4.961V20a.5.5 0 0 0 .5.5h12.445a.5.5 0 0 0 .5-.5v-2.65c.001-2.289-1.294-4.961-4.945-4.961Z"/></svg>