<svg xmlns="http://www.w3.org/2000/svg" width="24" height="24" fill="none"><path fill="currentColor" d="M19.627 8.752a3.156 3.156 0 0 1-2.04 2.029c-1.549.484-3.021-.18-3.757-1.349a.296.296 0 0 1-.001-.303 5.357 5.357 0 0 0 .682-2.629c0-.332-.03-.656-.087-.973a.296.296 0 0 1 .094-.281A3.151 3.151 0 0 1 16.56 4.5a3.234 3.234 0 0 1 3.066 4.252ZM18.11 12.28h-1.98c-.17 0-.3.13-.3.3 0 .08.03.16.09.21l.03.03c1.4 1.35 2.05 3.28 2.05 5.2 0 .37-.02.73-.08 1.06a.52.52 0 0 0-.013.121c0 .17.133.299.293.299h1.46c1.83 0 2.84-1 2.84-2.82 0-2.03-1.15-4.4-4.39-4.4ZM9.01 2.5c-2.21 0-4 1.79-4 4a3.999 3.999 0 1 0 8 0c0-2.21-1.8-4-4-4Zm1.99 10H7c-4.06 0-5.5 2.97-5.5 5.52 0 2.28 1.21 3.48 3.5 3.48h8c2.29 0 3.5-1.2 3.5-3.48 0-2.55-1.44-5.52-5.5-5.52Z"/></svg>