<svg xmlns="http://www.w3.org/2000/svg" width="24" height="24" fill="none"><path fill="currentColor" d="M22 7.56v8.88a.753.753 0 0 1-1.224.587l-2.164-1.737a.3.3 0 0 1-.112-.234V9.624a.3.3 0 0 1 .088-.212l2.499-2.499a.342.342 0 0 1 .307-.09.745.745 0 0 1 .606.737Zm-5.49 3.93-7.02 7.02c-.191.227.007.49.22.49H14c2 0 3-1 3-3v-4.266a.293.293 0 0 0-.49-.244Zm5.02-9.02a.75.75 0 0 0-1.061 0l-3.834 3.834C16.188 5.441 15.314 5 13.999 5h-9c-2 0-3 1-3 3v8c0 1.646.689 2.604 2.044 2.895L2.468 20.47a.75.75 0 0 0 1.06 1.061l18-18a.748.748 0 0 0 .002-1.061Z"/></svg>