<svg xmlns="http://www.w3.org/2000/svg" width="24" height="24" fill="none"><path fill="currentColor" d="M10.52 12a1 1 0 0 1-1 1 1.005 1.005 0 0 1-1.005-1c0-.552.443-1 .995-1h.01a1 1 0 0 1 1 1Zm10.256-5.027L18.612 8.71a.3.3 0 0 0-.112.234v6.112a.3.3 0 0 0 .112.234l2.164 1.737A.753.753 0 0 0 22 16.44V7.56a.753.753 0 0 0-1.224-.587ZM17 8v8c0 2-1 3-3 3H5c-2 0-3-1-3-3V8c0-2 1-3 3-3h9c2 0 3 1 3 3Zm-3.68 3.341c-.546-.917-1.771-2.466-3.82-2.466s-3.273 1.55-3.82 2.466a1.287 1.287 0 0 0 0 1.318c.546.917 1.771 2.466 3.82 2.466s3.273-1.55 3.82-2.466a1.287 1.287 0 0 0 0-1.318Z"/></svg>