<svg xmlns="http://www.w3.org/2000/svg" width="24" height="24" fill="none"><path fill="currentColor" fill-rule="evenodd" d="M21 14.8c0-2.57-2.43-4.66-5.42-4.66-2.99 0-5.42 2.08-5.42 4.66s2.43 4.66 5.42 4.66c.62 0 1.22-.09 1.77-.26l.16-.02c.1 0 .2.03.29.09l1.19.71.1.03c.1 0 .18-.08.18-.19l-.03-.14-.24-.94-.02-.12c0-.13.06-.24.15-.3C20.27 17.47 21 16.2 21 14.8Zm-7.23-.56c-.4 0-.72-.32-.72-.72 0-.4.32-.72.72-.72.4 0 .72.32.72.72 0 .4-.32.72-.72.72Zm3.61 0c-.4 0-.72-.32-.72-.72 0-.4.32-.72.72-.72.4 0 .72.32.72.72 0 .4-.32.72-.72.72ZM9.5 5c-3.59 0-6.51 2.5-6.51 5.59 0 1.68.88 3.2 2.25 4.22.11.08.18.21.18.36l-.02.14-.29 1.13-.04.16c0 .12.1.22.22.22l.13-.04 1.42-.85c.11-.06.22-.1.34-.1l.19.03c.66.2 1.38.31 2.12.31h.36c-.14-.45-.22-.9-.22-1.38 0-2.81 2.66-5.1 5.93-5.1h.35c-.49-2.66-3.18-4.7-6.43-4.7L9.5 5Zm-2.17 5.02a.87.87 0 1 1 .001-1.741.87.87 0 0 1-.001 1.741Zm4.34 0a.87.87 0 1 1 .001-1.741.87.87 0 0 1-.001 1.741Z" clip-rule="evenodd"/></svg>