<svg xmlns="http://www.w3.org/2000/svg" width="24" height="24" fill="none"><path fill="currentColor" d="M20.5 9h-5.14c-.22 0-.41.14-.47.34l-.27.82c-.07.2-.26.34-.47.34h-1.28c-.22 0-.41-.14-.47-.34l-.27-.82a.505.505 0 0 0-.47-.34H9.02c-.54 0-1.06.1-1.58.24l-.83-.83c-.88-.88-2.3-.88-3.18 0-.43.43-.66.99-.66 1.59 0 .6.24 1.16.66 1.59l.42.42c-1.33 2.29-1.03 5.27.93 7.23a5.981 5.981 0 0 0 8.48 0 5.927 5.927 0 0 0 1.75-4.52l5.65-1.62c.21-.06.36-.26.36-.48V9.5c0-.28-.22-.5-.5-.5h-.02ZM4.47 10.53a.75.75 0 1 1 1.06-1.06l.4.4c-.41.25-.81.53-1.16.89l-.03.03-.26-.26h-.01Zm5.94 5.88c-.78.78-2.05.78-2.83 0-.78-.78-.78-2.05 0-2.83.78-.78 2.05-.78 2.83 0 .78.78.78 2.05 0 2.83ZM12.75 5V3c0-.41.34-.75.75-.75s.75.34.75.75v2c0 .41-.34.75-.75.75s-.75-.34-.75-.75Zm2.72 1.28a.754.754 0 0 1 0-1.06l1-1c.29-.29.77-.29 1.06 0 .29.29.29.77 0 1.06l-1 1c-.15.15-.34.22-.53.22s-.38-.07-.53-.22Zm-6-1a.754.754 0 0 1 0-1.06c.29-.29.77-.29 1.06 0l1 1c.29.29.29.77 0 1.06-.15.15-.34.22-.53.22s-.38-.07-.53-.22l-1-1Z"/></svg>