<svg xmlns="http://www.w3.org/2000/svg" width="24" height="24" fill="none"><path fill="currentColor" d="M12 10.22s.02 0 0 0c2.72 2.06 7.32 7.13 5.93 8.56A8.963 8.963 0 0 1 12 21c-2.27 0-4.35-.83-5.93-2.22-1.41-1.43 3.21-6.5 5.9-8.54 0-.02.02-.02.02-.02H12Zm4.69-5.9C15.32 3.49 13.82 3 12 3c-1.82 0-3.32.49-4.69 1.32-.02 0-.02.02-.02.04s.02.02.04.02c1.75-.38 4.4 1.12 4.65 1.28h.04c.25-.16 2.9-1.66 4.65-1.28.02 0 .04 0 .04-.02s0-.04-.02-.04Zm-11 1.26s-.02.02-.04.02a9.01 9.01 0 0 0-.81 11.84c0 .02.02.02.04.02s.02-.02 0-.04c-.7-2.13 2.83-7.26 4.65-9.41l.02-.02s0-.02-.02-.02C6.77 5.24 5.85 5.53 5.69 5.59v-.01Zm8.78 2.35-.02.02s0 .02.02.02c1.82 2.15 5.32 7.29 4.65 9.41v.04s.04 0 .04-.02A9.035 9.035 0 0 0 21 11.95c0-2.49-1.01-4.75-2.67-6.39l-.04-.02c-.13-.04-1.05-.34-3.82 2.38v.01Z"/></svg>