<svg xmlns="http://www.w3.org/2000/svg" width="24" height="24" fill="none"><path fill="currentColor" d="M16.62 3H5.38C3.12 3 2 4.12 2 6.37v11.25C2 19.87 3.12 21 5.38 21h8.772c.237 0 .385-.264.251-.459a5.102 5.102 0 0 1-.813-1.901c-.25-1.3.02-2.55.74-3.44.63-.77 1.56-1.2 2.63-1.2.61 0 1.12.16 1.54.41.344-.201.75-.346 1.22-.394.156-.016.28-.137.28-.293V6.37C20 4.12 18.88 3 16.62 3m-.09 7.53-2.793 2.793a1.752 1.752 0 0 1-2.474.001l-1.589-1.585a.25.25 0 0 0-.354 0L6.529 14.53a.748.748 0 0 1-1.06 0 .75.75 0 0 1 0-1.061l2.791-2.791a1.752 1.752 0 0 1 2.474-.001l1.589 1.585a.252.252 0 0 0 .354 0l2.793-2.793a.75.75 0 1 1 1.06 1.061m5.4 7.82C21.48 20.66 18.5 22 18.5 22s-2.98-1.34-3.43-3.65c-.28-1.42.33-2.85 1.88-2.85h.01c1.15 0 1.54 1.14 1.54 1.14s.39-1.14 1.54-1.14h.01c1.56 0 2.16 1.43 1.88 2.85"/></svg>