<svg xmlns="http://www.w3.org/2000/svg" width="24" height="24" fill="none"><path fill="currentColor" d="M20.976 7.599a.306.306 0 0 0-.335-.16 3.441 3.441 0 0 1-1.963-.204 3.517 3.517 0 0 1-1.967-2.052 3.44 3.44 0 0 1-.15-1.825.304.304 0 0 0-.158-.333 9.95 9.95 0 0 0-4.402-1.024c-5.615 0-10.154 4.635-9.996 10.285.145 5.217 4.494 9.565 9.711 9.711 5.65.157 10.285-4.381 10.285-9.996a9.961 9.961 0 0 0-1.025-4.402M17.53 10.53l-2.793 2.793a1.752 1.752 0 0 1-2.474.001l-1.589-1.585a.25.25 0 0 0-.354 0L7.529 14.53a.748.748 0 0 1-1.06 0 .75.75 0 0 1 0-1.061l2.791-2.791a1.752 1.752 0 0 1 2.474-.001l1.589 1.585a.252.252 0 0 0 .354 0l2.793-2.793a.75.75 0 1 1 1.06 1.061M22 4a2 2 0 1 1-3.999.001A2 2 0 0 1 22 4"/></svg>