<svg xmlns="http://www.w3.org/2000/svg" width="24" height="24" fill="none"><path fill="currentColor" d="M16.62 3H5.38C3.12 3 2 4.12 2 6.37v11.25C2 19.87 3.12 21 5.38 21h9.14c.12 0 .239-.062.274-.183.01-.04.018-.073.026-.117l.057-.313s.022-.099-.007-.17a.393.393 0 0 0-.081-.122l-.709-.675c-.52-.5-.71-1.24-.49-1.93.22-.7.81-1.19 1.53-1.29l1.17-.17.5-.98c.32-.65.98-1.05 1.71-1.05.38 0 .75.11 1.05.31.19.13.45-.02.45-.26V6.37C20 4.12 18.88 3 16.62 3m-.09 7.53-2.793 2.793a1.752 1.752 0 0 1-2.474.001l-1.589-1.585a.25.25 0 0 0-.354 0L6.529 14.53a.748.748 0 0 1-1.06 0 .75.75 0 0 1 0-1.061l2.791-2.791a1.752 1.752 0 0 1 2.474-.001l1.589 1.585a.252.252 0 0 0 .354 0l2.793-2.793a.75.75 0 1 1 1.06 1.061m4.09 9.01c-.09.08-.13.21-.11.34l.29 1.64c.04.27-.17.48-.41.48-.07 0-.13-.01-.2-.05l-1.51-.78a.584.584 0 0 0-.18-.04c-.06 0-.12.02-.18.04l-1.51.78c-.07.03-.13.05-.2.05a.42.42 0 0 1-.41-.48l.29-1.64a.377.377 0 0 0-.11-.34l-1.26-1.21c-.23-.22-.11-.6.21-.65l1.75-.25c.12-.01.23-.09.29-.2l.76-1.5c.07-.15.22-.23.37-.23s.3.08.37.23l.76 1.5c.06.11.17.19.29.2l1.75.25c.32.05.44.43.21.65z"/></svg>