<svg xmlns="http://www.w3.org/2000/svg" width="24" height="24" fill="none"><path fill="currentColor" d="M20.63 8.81C19.47 4.72 15.55 1.91 11.3 2c-5.15.11-9.29 4.3-9.3 9.47-.01 4.33 2.99 8.23 7.2 9.25 1.66.41 3.32.36 4.82-.06.19-.06.27-.28.17-.46-.28-.46-.49-.98-.6-1.56-.25-1.3.02-2.55.74-3.44.63-.77 1.56-1.2 2.63-1.2.61 0 1.12.16 1.54.41.42-.25.93-.41 1.54-.41h.01c.11 0 .21 0 .31.01.04.005.073.003.094.003.12 0 .198-.06.238-.17.02-.04.025-.085.038-.123.38-1.54.37-3.24-.1-4.91m-4.1 1.42-2.514 2.514a1.654 1.654 0 0 1-2.333.001l-1.43-1.427a.151.151 0 0 0-.213 0l-2.511 2.511a.748.748 0 0 1-1.06 0 .75.75 0 0 1 0-1.06l2.511-2.512a1.653 1.653 0 0 1 2.333-.001l1.43 1.427a.152.152 0 0 0 .213 0l2.514-2.514a.75.75 0 1 1 1.06 1.061m5.4 8.12C21.48 20.67 18.5 22 18.5 22s-2.98-1.33-3.43-3.65c-.28-1.41.33-2.84 1.88-2.85h.01c1.15 0 1.54 1.14 1.54 1.14s.39-1.14 1.54-1.14h.01c1.56.01 2.16 1.44 1.88 2.85"/></svg>