<svg xmlns="http://www.w3.org/2000/svg" width="24" height="24" fill="none"><path fill="currentColor" d="M14.996 21H9.003c-.827 0-1.298-.95-.799-1.613L11.2 15.4a1 1 0 0 1 1.599 0l2.996 3.987c.499.663.028 1.613-.799 1.613m.657-8.121c.064-.297.097-.593.097-.879A3.755 3.755 0 0 0 12 8.25 3.755 3.755 0 0 0 8.25 12c0 .286.032.582.097.879a.75.75 0 1 0 1.467-.318 2.595 2.595 0 0 1-.063-.562c0-1.241 1.01-2.25 2.25-2.25s2.25 1.009 2.25 2.25c0 .182-.021.365-.063.562a.751.751 0 0 0 .734.909.75.75 0 0 0 .731-.591m1.905 2.967A6.733 6.733 0 0 0 18.75 12 6.758 6.758 0 0 0 12 5.25 6.758 6.758 0 0 0 5.25 12c0 1.387.412 2.717 1.192 3.846a.75.75 0 1 0 1.234-.852A5.242 5.242 0 0 1 6.749 12a5.256 5.256 0 0 1 5.25-5.25 5.256 5.256 0 0 1 5.25 5.25c0 1.081-.32 2.116-.927 2.994a.752.752 0 0 0 1.236.852m1.807 2.527A9.687 9.687 0 0 0 21.75 12c0-5.376-4.374-9.75-9.75-9.75S2.25 6.624 2.25 12c0 2.348.847 4.611 2.385 6.373a.751.751 0 0 0 1.131-.986A8.187 8.187 0 0 1 3.75 12c0-4.549 3.701-8.25 8.25-8.25 4.549 0 8.25 3.701 8.25 8.25a8.187 8.187 0 0 1-2.016 5.387.75.75 0 1 0 1.131.986"/></svg>