<svg xmlns="http://www.w3.org/2000/svg" width="24" height="24" fill="none"><path fill="currentColor" d="m21.487 14.997-.99-.99a.888.888 0 0 0-1.26 0l-.81.81 2.25 2.25.81-.81a.887.887 0 0 0 0-1.26Zm-3.76.53-3.98 4v2.22h2.22l4-3.98-2.24-2.24Zm-6.98-11.78a8 8 0 0 0-4.6 14.54l-1.93 1.93a.754.754 0 0 0 .243 1.223.75.75 0 0 0 .817-.163l2.22-2.22a7.987 7.987 0 0 0 4.51.59.333.333 0 0 0 .25-.29c.04-.336.192-.649.43-.89l5.49-5.52c.126-.127.267-.237.42-.33a.344.344 0 0 0 .13-.26c.01-.2.02-.4.02-.61a8 8 0 0 0-8-8Zm.75 8a.75.75 0 0 1-1.5 0v-4a.75.75 0 0 1 1.5 0v4Zm-7.22-9.53a.755.755 0 0 0-1.06 0l-2 2A.754.754 0 0 0 1.46 5.44a.749.749 0 0 0 .817-.163l2-2a.754.754 0 0 0 0-1.06Zm16 1.99-2-1.96a.757.757 0 0 0-1.06 1.08l2 1.96a.761.761 0 0 0 1.07-.02.755.755 0 0 0-.01-1.06Z"/></svg>