<svg xmlns="http://www.w3.org/2000/svg" width="24" height="24" fill="none"><path fill="currentColor" fill-rule="evenodd" d="M21.536 5.525a.749.749 0 0 1-1.06.011l-2-1.96a.751.751 0 0 1 1.05-1.072l2 1.96c.294.29.299.765.01 1.061ZM5.53 2.47a.75.75 0 0 0-1.061 0l-2 2a.75.75 0 0 0 1.06 1.061l2-2A.75.75 0 0 0 5.53 2.47Zm11.073 16.067 1.929 1.934a.75.75 0 0 1-1.062 1.06l-2.218-2.225a7.96 7.96 0 0 1-6.5 0L6.533 21.53a.75.75 0 0 1-1.062-1.06L7.4 18.537A7.984 7.984 0 0 1 4.002 12a8 8 0 0 1 16 0 7.992 7.992 0 0 1-3.399 6.537ZM14.5 12.75a.75.75 0 0 0 0-1.5h-1.75V9.5a.75.75 0 0 0-1.5 0v1.75H9.5a.75.75 0 0 0 0 1.5h1.75v1.75a.75.75 0 0 0 1.5 0v-1.75h1.75Z" clip-rule="evenodd"/></svg>