<svg xmlns="http://www.w3.org/2000/svg" width="24" height="24" fill="none"><path fill="currentColor" fill-rule="evenodd" d="m5.53 3.53-2 2a.748.748 0 0 1-1.06 0 .75.75 0 0 1 0-1.061l2-2A.75.75 0 1 1 5.53 3.53m15.995.934-2-1.96a.751.751 0 0 0-1.05 1.072l2 1.96a.748.748 0 0 0 1.06-.01.751.751 0 0 0-.01-1.062m-4.923 14.073 1.929 1.934a.75.75 0 0 1-1.062 1.06l-2.219-2.225a7.96 7.96 0 0 1-6.5 0L6.531 21.53a.75.75 0 0 1-1.062-1.06l1.929-1.934a7.983 7.983 0 0 1-3.397-6.537 8 8 0 0 1 16 0 7.99 7.99 0 0 1-3.399 6.538M14.5 12.75a.75.75 0 0 0 0-1.5h-5a.75.75 0 0 0 0 1.5z" clip-rule="evenodd"/></svg>