<svg xmlns="http://www.w3.org/2000/svg" width="24" height="24" fill="none"><path fill="currentColor" d="M17.475 3.576a.751.751 0 0 1 1.05-1.072l2 1.96a.752.752 0 0 1-.524 1.286.748.748 0 0 1-.525-.214l-2-1.96ZM4.53 2.47a.75.75 0 0 0-1.061 0l-2 2a.75.75 0 0 0 1.06 1.061l2-2A.75.75 0 0 0 4.53 2.47ZM12.5 17v2c0 .462.043.812-.273.908-.4.061-.813.092-1.227.092a7.954 7.954 0 0 1-3.25-.694L5.531 21.53a.75.75 0 0 1-1.062-1.06l1.928-1.933A7.998 7.998 0 0 1 11 4c4.42 0 8 3.58 8 8 0 .479-.334.5-.334.5H17c-2.82.001-4.5 1.681-4.5 4.501Zm-.75-8.96a.75.75 0 0 0-1.5 0v4a.75.75 0 0 0 1.5 0v-4ZM22 17v2c0 2-1 3-3 3h-2c-2 0-3-1-3-3v-2c0-2 1-3 3-3h2c2 0 3 1 3 3Zm-2.25 1a.5.5 0 0 0-.5-.5h-2.5a.5.5 0 0 0 0 1h2.5a.5.5 0 0 0 .5-.5Z"/></svg>