<svg xmlns="http://www.w3.org/2000/svg" width="24" height="24" fill="none"><path fill="currentColor" fill-rule="evenodd" d="M19 14h-2c-2 0-3 1-3 3v2c0 2 1 3 3 3h2c2 0 3-1 3-3v-2c0-2-1-3-3-3m.6 3.52-1.66 1.67a.524.524 0 0 1-.71 0l-.83-.84c-.2-.19-.2-.51 0-.7.19-.2.51-.2.7 0l.48.48 1.32-1.32c.19-.19.51-.19.7 0 .2.2.2.51 0 .71M17.475 3.576a.751.751 0 0 1 1.05-1.072l2 1.96a.752.752 0 0 1-.524 1.286.748.748 0 0 1-.525-.214l-2-1.96ZM4.53 3.53l-2 2a.748.748 0 0 1-1.06 0 .75.75 0 0 1 0-1.061l2-2A.75.75 0 1 1 4.53 3.53M17 12.5h1.667S19 12.479 19 12c0-4.42-3.58-8-8-8a7.998 7.998 0 0 0-4.603 14.537L4.469 20.47a.75.75 0 0 0 1.062 1.06l2.218-2.224A7.96 7.96 0 0 0 11 20c.414 0 .828-.031 1.227-.092.316-.096.273-.447.273-.908v-2c.001-2.82 1.681-4.5 4.501-4.5Zm-5.25-.46a.75.75 0 0 1-1.5 0v-4a.75.75 0 0 1 1.5 0z" clip-rule="evenodd"/></svg>