<svg xmlns="http://www.w3.org/2000/svg" width="24" height="24" fill="none"><path fill="currentColor" d="M18 5H6C4 5 3 6 3 8v8c0 2 1 3 3 3h12c2 0 3-1 3-3V8c0-2-1-3-3-3m-3.72 2.74h.52c.07 0 .12.04.15.11.05.13.1.26.14.39.3.82.59 1.64.89 2.45 0 .01.01.03.02.05.06-.18.12-.34.18-.51l.8-2.29s.02-.06.04-.09c.03-.08.09-.12.18-.12h.46c.07 0 .1.04.08.1 0 .04-.02.08-.04.13l-1.62 4.11c-.06.14-.13.29-.21.42-.2.34-.51.5-.9.49-.13 0-.26-.02-.39-.05-.13-.02-.17-.08-.17-.21v-.23c0-.08.04-.11.12-.11.06 0 .11.02.17.02.12.01.24 0 .35-.02.16-.05.28-.16.35-.31.08-.17.14-.34.21-.51.04-.1.03-.17 0-.27l-1.35-3.33a.736.736 0 0 1-.04-.14c-.01-.06.02-.1.08-.1zm-3.43 2.19c.14-.29.38-.46.67-.57.25-.08.5-.1.76-.09.25.01.49.05.73.11h.03v-.6c0-.13-.04-.27-.12-.37-.1-.13-.24-.17-.39-.19-.28-.04-.57-.02-.85.03-.18.04-.36.08-.54.13-.11.03-.15 0-.16-.11v-.23c0-.09.04-.15.12-.18.14-.05.27-.1.41-.13.22-.06.44-.08.66-.1h.34l.25.03c.17.02.34.07.5.16.27.16.39.4.43.69.01.1.02.2.02.3v2.49c0 .06-.05.1-.11.11h-.37c-.07 0-.11-.05-.12-.12-.02-.08-.03-.16-.04-.25-.02.01-.03.02-.04.03-.27.22-.58.37-.92.42-.3.04-.6.02-.87-.13a.947.947 0 0 1-.49-.73c-.03-.24-.02-.48.09-.71zm-4.02-2c0-.16.03-.19.19-.19h.27c.11 0 .16.05.18.15l.03.19c0 .01 0 .02.01.03.05-.04.11-.08.16-.12.26-.19.55-.31.87-.35.03 0 .07 0 .1-.01h.19l.22.03c.49.1.81.4 1 .84.16.36.2.75.19 1.14-.01.35-.08.69-.24 1.01-.21.42-.54.71-1 .8-.52.1-.99-.01-1.4-.35-.01-.01-.03-.02-.05-.04v1.73c0 .07-.04.11-.11.11h-.48c-.07 0-.11-.05-.11-.11V7.93zm10.89 6.67c-.06.07-.14.12-.22.17-.7.48-1.47.83-2.28 1.1-.56.18-1.13.31-1.72.4-.4.06-.81.1-1.22.11h-.6c-.08 0-.16 0-.25-.01-.39-.02-.77-.06-1.15-.12-.63-.1-1.24-.26-1.84-.48-1.24-.45-2.35-1.11-3.34-1.99-.04-.04-.07-.09-.1-.13v-.05c.05-.1.12-.11.22-.06.24.13.47.26.71.38.93.47 1.91.82 2.92 1.06.48.11.96.21 1.45.27.72.1 1.45.14 2.18.12.4-.01.8-.04 1.19-.09 1.29-.15 2.54-.48 3.74-.98.07-.03.13-.05.21-.03.15.04.21.21.09.33zm1.28-.69c-.01.08-.03.17-.05.25-.1.46-.27.9-.57 1.27-.08.11-.19.21-.29.31-.03.03-.07.05-.11.06-.07.01-.1-.03-.09-.1 0-.02.01-.05.02-.07.14-.34.27-.68.36-1.03.05-.17.09-.35.08-.53 0-.12-.06-.21-.17-.24a1.91 1.91 0 0 0-.33-.06c-.26-.02-.52 0-.79.02l-.53.06h-.05c-.04 0-.07 0-.08-.04 0-.03 0-.07.01-.09.02-.03.05-.06.08-.08.28-.19.59-.3.92-.36.3-.05.6-.07.9-.04.16.01.33.04.48.09.1.03.19.08.21.19v.4zm-7.51-3.3a.664.664 0 0 1 0-.44c.05-.19.19-.3.37-.36.19-.06.38-.07.57-.05.19.02.38.05.57.08.04 0 .05.02.05.06v.65c0 .03-.01.05-.04.07a1.7 1.7 0 0 1-.86.34c-.13.01-.26 0-.39-.04a.438.438 0 0 1-.28-.31zm-3.91-.02s-.04-.04-.04-.08V8.57s.01-.05.04-.07c.31-.22.66-.33 1.04-.3.34.02.62.19.77.59.09.24.11.5.11.76 0 .24-.02.47-.09.7-.16.49-.51.68-.98.65-.32-.01-.6-.14-.86-.32z"/></svg>