<svg xmlns="http://www.w3.org/2000/svg" width="24" height="24" fill="none"><path fill="currentColor" d="M18 3H6C4 3 3 4 3 6v12c0 2 1 3 3 3h12c2 0 3-1 3-3V6c0-2-1-3-3-3ZM8.36 16.95c-.21.36-.67.49-1.03.28a.764.764 0 0 1-.28-1.03l.54-.93c.61-.19 1.1-.04 1.49.43l-.72 1.26v-.01Zm5.21-2.04H6.75c-.42 0-.75-.34-.75-.76s.33-.76.75-.76h1.91l2.45-4.27-.76-1.34a.755.755 0 0 1 .28-1.03c.36-.21.82-.09 1.03.28l.33.58.33-.58c.21-.36.67-.49 1.03-.28.36.21.48.67.28 1.03l-3.22 5.6h2.33c.75 0 1.18.89.85 1.51l-.02.02Zm3.68 0h-1.08l.73 1.28c.21.36.08.82-.28 1.03-.36.21-.82.09-1.03-.28-1.23-2.15-2.16-3.76-2.77-4.83-.63-1.09-.18-2.19.26-2.56.49.85 1.23 2.13 2.21 3.85h1.95c.42 0 .75.34.75.76s-.33.76-.75.76l.01-.01Z"/></svg>