<svg xmlns="http://www.w3.org/2000/svg" width="24" height="24" fill="none"><path fill="currentColor" d="M16.54 12.01c0 .08-.14 2.46 2.46 3.69-.49 1.48-2.15 4.77-4.09 4.79-1.12 0-1.78-.72-3.04-.72s-2.02.7-3.02.72c-1.92.06-3.76-3.56-4.27-5.03-.38-1.12-.57-2.21-.57-3.26 0-3.56 2.36-5.32 4.59-5.35 1.08 0 2.45.79 3.04.79.57 0 2.11-.94 3.53-.83 1.49.12 2.63.71 3.38 1.79-1.34.82-2 1.93-1.99 3.41zm-2.23-6.6c1.1-1.3 1-2.49.96-2.91-.97.06-2.09.66-2.73 1.4-.7.8-1.12 1.78-1.03 2.89 1.05.08 2.01-.46 2.79-1.38z"/></svg>