<svg xmlns="http://www.w3.org/2000/svg" width="24" height="24" fill="none"><path fill="currentColor" d="M12.32 10.85c0 .54-.33.85-.91.85h-.76v-1.69h.76c.57 0 .9.31.9.85zm1.48 1.96c0 .26.22.43.58.43.45 0 .79-.28.79-.68v-.24l-.74.05c-.41.02-.63.18-.63.45zM21 8v8c0 2-1 3-3 3H6c-2 0-3-1-3-3V8c0-2 1-3 3-3h12c2 0 3 1 3 3M6.87 10.19c.26.02.53-.13.69-.33.16-.2.27-.47.24-.74-.23.01-.52.15-.68.35-.15.17-.28.45-.25.71zm1.89 2.33s-.61-.24-.62-.94c0-.59.48-.86.5-.88-.27-.4-.7-.45-.85-.46-.38-.02-.71.22-.89.22-.18 0-.46-.21-.76-.2-.39 0-.75.23-.95.58-.41.71-.11 1.75.29 2.32.19.28.43.6.73.59.29-.01.4-.19.75-.19s.45.19.76.18c.32 0 .52-.28.71-.57.22-.32.31-.64.32-.65zm4.23-1.67c0-.83-.58-1.4-1.4-1.4h-1.6v4.26h.66v-1.46h.92c.84 0 1.42-.57 1.42-1.41zm2.81.74c0-.62-.49-1.01-1.25-1.01-.7 0-1.22.4-1.24.95h.6c.05-.26.29-.43.63-.43.4 0 .63.19.63.54v.24l-.83.05c-.77.05-1.18.36-1.18.91s.43.92 1.04.92c.42 0 .8-.21.98-.54h.01v.51h.61zm3.19-.97h-.67l-.78 2.52h-.01l-.78-2.52h-.69l1.12 3.1-.06.19c-.1.32-.27.44-.56.44-.05 0-.15 0-.19-.01v.51s.2.02.25.02c.65 0 .95-.25 1.21-.99z"/></svg>