<svg xmlns="http://www.w3.org/2000/svg" width="24" height="24" fill="none"><path fill="currentColor" d="M17.625 3H6.375C4.125 3 3 4.125 3 6.375v11.25C3 19.875 4.125 21 6.375 21h11.25C19.875 21 21 19.875 21 17.625V6.375C21 4.125 19.875 3 17.625 3ZM6.75 10.5c0-1.241 1.01-2.25 2.25-2.25h5.689l-.22-.22a.75.75 0 0 1 1.061-1.061l1.5 1.5a.748.748 0 0 1 .162.817.75.75 0 0 1-.162.244l-1.5 1.5a.748.748 0 0 1-1.06 0 .75.75 0 0 1 0-1.061l.22-.22H9a.75.75 0 0 0-.75.75v1.5a.75.75 0 0 1-1.5 0V10.5Zm10.5 3c0 1.241-1.01 2.25-2.25 2.25H9.311l.22.22a.75.75 0 0 1-1.06 1.061l-1.5-1.5a.748.748 0 0 1-.162-.817.749.749 0 0 1 .162-.244l1.5-1.5a.75.75 0 0 1 1.061 1.061l-.22.22H15a.75.75 0 0 0 .75-.75v-1.5a.75.75 0 0 1 1.5 0V13.5Z"/></svg>