<svg xmlns="http://www.w3.org/2000/svg" width="24" height="24" fill="none"><path fill="currentColor" d="M12 2C6.477 2 2 6.477 2 12s4.477 10 10 10 10-4.477 10-10S17.523 2 12 2m.199 13.862-1.667 1.667a.754.754 0 0 1-1.06 0l-1.667-1.667a.75.75 0 0 1 1.061-1.061l.387.386v-6.19a.75.75 0 0 1 1.5 0v6.19l.387-.386a.751.751 0 0 1 1.06 0 .752.752 0 0 1-.001 1.061m3.996-6.667a.748.748 0 0 1-1.06 0l-.387-.386V15a.75.75 0 0 1-1.5 0V8.81l-.387.386A.75.75 0 0 1 11.8 8.134l1.667-1.667a.749.749 0 0 1 .817-.162.75.75 0 0 1 .244.162l1.667 1.667a.75.75 0 0 1 0 1.061"/></svg>