<svg xmlns="http://www.w3.org/2000/svg" width="24" height="24" fill="none"><path fill="currentColor" d="M12 2C6.477 2 2 6.477 2 12s4.477 10 10 10 10-4.477 10-10S17.523 2 12 2m-5.53 8.53a.748.748 0 0 1-.219-.531.765.765 0 0 1 .219-.531l1.667-1.667a.75.75 0 1 1 1.061 1.061l-.386.386H15a.75.75 0 0 1 0 1.5H8.811l.386.386a.75.75 0 0 1-1.06 1.061zm11.222 3.755a.765.765 0 0 1-.161.242l-1.667 1.667a.748.748 0 0 1-1.06 0 .75.75 0 0 1 0-1.06l.387-.388H9a.75.75 0 0 1 0-1.5h6.189l-.386-.386a.75.75 0 1 1 1.061-1.06l1.667 1.666a.743.743 0 0 1 .219.53c0 .1-.021.198-.058.289"/></svg>