<svg xmlns="http://www.w3.org/2000/svg" width="24" height="24" fill="none"><path fill="currentColor" d="M17.625 3H6.375C4.125 3 3 4.125 3 6.375v11.25C3 19.875 4.125 21 6.375 21h11.25C19.875 21 21 19.875 21 17.625V6.375C21 4.125 19.875 3 17.625 3m-5.426 12.864-1.667 1.667a.755.755 0 0 1-.817.162.746.746 0 0 1-.243-.162l-1.667-1.667a.75.75 0 1 1 1.061-1.061l.387.386V9a.75.75 0 0 1 1.5 0v6.19l.387-.386a.751.751 0 0 1 1.06 0 .75.75 0 0 1-.001 1.06m3.996-6.667a.748.748 0 0 1-1.06 0l-.387-.386v6.19a.75.75 0 0 1-1.5 0v-6.19l-.387.386A.751.751 0 0 1 11.8 8.136l1.667-1.667a.749.749 0 0 1 .817-.162.75.75 0 0 1 .244.162l1.667 1.667a.75.75 0 0 1 0 1.061"/></svg>