<svg xmlns="http://www.w3.org/2000/svg" width="24" height="24" fill="none"><path fill="currentColor" d="M17.625 3H6.375C4.125 3 3 4.125 3 6.375v11.25C3 19.875 4.125 21 6.375 21h11.25C19.875 21 21 19.875 21 17.625V6.375C21 4.125 19.875 3 17.625 3m-.375 9.752a.75.75 0 0 1-.75.75h-2.25a.75.75 0 0 1 0-1.5h.718a3.82 3.82 0 0 0-3.028-1.5 3.793 3.793 0 0 0-3.71 2.923.749.749 0 0 1-.903.557.75.75 0 0 1-.557-.903 5.286 5.286 0 0 1 5.169-4.077c1.467 0 2.829.617 3.811 1.63v-.128a.75.75 0 0 1 1.5 0z"/></svg>