<svg xmlns="http://www.w3.org/2000/svg" width="24" height="24" fill="none"><path fill="currentColor" d="M17.625 3H6.375C4.125 3 3 4.125 3 6.375v11.25C3 19.875 4.125 21 6.375 21h11.25C19.875 21 21 19.875 21 17.625V6.375C21 4.125 19.875 3 17.625 3Zm-.433 7.79a.748.748 0 0 1-.162.243l-1.5 1.5a.748.748 0 0 1-1.06 0 .75.75 0 0 1 0-1.061l.22-.22H9.75c-.827 0-1.5.673-1.5 1.5s.673 1.5 1.5 1.5H15a.75.75 0 0 1 0 1.5H9.75c-1.654 0-3-1.346-3-3s1.346-3 3-3h4.939l-.22-.22a.75.75 0 0 1 1.061-1.061l1.5 1.5a.75.75 0 0 1 .16.818Z"/></svg>