<svg xmlns="http://www.w3.org/2000/svg" width="24" height="24" fill="none"><path fill="currentColor" d="M17.625 3H6.375C4.125 3 3 4.125 3 6.375v11.25C3 19.875 4.125 21 6.375 21h11.25C19.875 21 21 19.875 21 17.625V6.375C21 4.125 19.875 3 17.625 3m-.891 11.01a.75.75 0 0 1-.903-.557 3.867 3.867 0 0 0-3.782-2.979c-1.22 0-2.35.577-3.073 1.509h.8a.75.75 0 0 1 0 1.5H7.887a.73.73 0 0 1-.448-.006c-.018-.006-.029-.02-.046-.028a.74.74 0 0 1-.583-.716V10.52a.747.747 0 0 1 1.495-.025 5.389 5.389 0 0 1 3.743-1.52 5.36 5.36 0 0 1 5.241 4.132.747.747 0 0 1-.555.903"/></svg>