<svg xmlns="http://www.w3.org/2000/svg" width="24" height="24" fill="none"><path fill="currentColor" d="M19.775 12c.63-.99 1.151-1.977 1.527-2.931 1.035-2.63.913-4.771-.345-6.027-1.258-1.258-3.397-1.38-6.027-.344-.954.375-1.941.896-2.931 1.526-.99-.631-1.977-1.151-2.93-1.526-2.63-1.036-4.772-.914-6.028.344-1.258 1.257-1.38 3.398-.345 6.028.376.954.896 1.941 1.527 2.931-.631.99-1.15 1.977-1.527 2.931-1.035 2.63-.913 4.77.345 6.028.692.692 1.652 1.04 2.815 1.04.948 0 2.03-.231 3.212-.697.954-.375 1.941-.896 2.931-1.526.99.63 1.977 1.15 2.93 1.526 1.183.465 2.265.697 3.213.697 1.162 0 2.123-.348 2.815-1.041 1.258-1.257 1.38-3.398.345-6.028-.375-.955-.896-1.942-1.527-2.932Zm-4.11-7.441c.94-.371 1.788-.557 2.473-.557.617 0 1.103.151 1.406.455.641.64.603 2.09-.103 3.88a14.376 14.376 0 0 1-.924 1.884 27.18 27.18 0 0 0-4.738-4.738 14.327 14.327 0 0 1 1.885-.924Zm-6.546 4.56A24.827 24.827 0 0 1 12 6.646c.978.714 1.95 1.542 2.881 2.473A24.823 24.823 0 0 1 17.355 12a24.658 24.658 0 0 1-2.474 2.881A24.828 24.828 0 0 1 12 17.354a24.634 24.634 0 0 1-2.881-2.473A24.823 24.823 0 0 1 6.645 12a24.658 24.658 0 0 1 2.474-2.881m-4.56-.783c-.705-1.79-.743-3.24-.103-3.88.304-.303.79-.455 1.406-.455.685 0 1.532.187 2.474.557.613.242 1.246.557 1.884.924a27.17 27.17 0 0 0-4.738 4.738 14.31 14.31 0 0 1-.923-1.884m3.777 11.105c-1.787.705-3.238.744-3.88.103-.64-.641-.603-2.091.103-3.881.241-.613.557-1.246.924-1.884a27.177 27.177 0 0 0 4.738 4.738 14.33 14.33 0 0 1-1.885.924m11.208.103c-.642.64-2.09.602-3.88-.103a14.51 14.51 0 0 1-1.884-.924 27.132 27.132 0 0 0 4.738-4.738c.367.639.682 1.27.924 1.884.704 1.79.743 3.24.102 3.88ZM10.764 12c0-.69.556-1.25 1.246-1.25h.01a1.25 1.25 0 0 1 0 2.5c-.69 0-1.255-.56-1.255-1.25Z"/></svg>