<svg xmlns="http://www.w3.org/2000/svg" width="24" height="24" fill="none"><path fill="currentColor" fill-rule="evenodd" d="M16.13 16.18 17.5 21l-2.77-1.11a6.03 6.03 0 0 0-4.46 0L7.5 21l1.37-4.82c.12.02.23.03.35.04.07 0 .14.01.22.01h.27l.2.2c.69.69 1.61 1.07 2.59 1.07.98 0 1.9-.38 2.59-1.07l.2-.2h.27c.08 0 .15-.01.22-.01.12-.01.23-.02.35-.04m2.236-5.149-.319.319a1.084 1.084 0 0 0-.317.766v.448a2.16 2.16 0 0 1-2.07 2.156c-.032 0-.063.01-.096.01h-.448c-.287 0-.563.114-.766.317l-.319.319a2.164 2.164 0 0 1-3.062 0l-.32-.319a1.084 1.084 0 0 0-.765-.317h-.448c-.033 0-.063-.008-.096-.01a2.161 2.161 0 0 1-2.07-2.156v-.448c0-.287-.114-.563-.317-.766l-.319-.319a2.164 2.164 0 0 1 0-3.062l.319-.319c.203-.203.317-.479.317-.766v-.448c0-1.196.969-2.166 2.165-2.166h.448c.287 0 .563-.114.766-.317l.319-.319a2.164 2.164 0 0 1 3.062 0l.32.319c.202.203.478.317.765.317h.448c1.196 0 2.165.969 2.165 2.166v.448c0 .287.114.563.317.766l.319.319c.847.845.847 2.217.002 3.062m-3.152-2.462-1.494-.216a.333.333 0 0 1-.251-.182l-.647-1.306a.359.359 0 0 0-.642 0l-.647 1.306a.336.336 0 0 1-.251.182l-1.494.216a.333.333 0 0 0-.185.568l1.08 1.048a.331.331 0 0 1 .096.295l-.247 1.433a.357.357 0 0 0 .519.376l1.295-.678a.335.335 0 0 1 .311 0l1.296.678a.357.357 0 0 0 .518-.376l-.247-1.435a.33.33 0 0 1 .096-.295l1.08-1.048a.332.332 0 0 0-.186-.566" clip-rule="evenodd"/></svg>