<svg xmlns="http://www.w3.org/2000/svg" width="24" height="24" fill="none"><path fill="currentColor" d="m17.5 21-2.77-1.11a6.03 6.03 0 0 0-4.46 0L7.5 21l1.37-4.82c.12.02.23.03.35.04.07 0 .14.01.22.01h.27l.2.2c.69.69 1.61 1.07 2.59 1.07.98 0 1.9-.38 2.59-1.07l.2-.2h.27c.08 0 .15-.01.22-.01.12-.01.23-.02.35-.04L17.5 21Zm.866-9.969-.319.319a1.084 1.084 0 0 0-.317.766v.448a2.16 2.16 0 0 1-2.07 2.156c-.032 0-.063.01-.096.01h-.448c-.287 0-.563.114-.766.317l-.319.319a2.164 2.164 0 0 1-3.062 0l-.32-.319a1.084 1.084 0 0 0-.765-.317h-.448c-.033 0-.063-.008-.096-.01a2.16 2.16 0 0 1-2.07-2.156v-.448c0-.287-.114-.563-.317-.766l-.319-.319a2.164 2.164 0 0 1 0-3.062l.319-.319c.203-.203.317-.479.317-.766v-.448c0-1.196.969-2.166 2.165-2.166h.448c.287 0 .563-.114.766-.317l.319-.319a2.164 2.164 0 0 1 3.062 0l.32.319c.202.203.478.317.765.317h.448c1.196 0 2.165.969 2.165 2.166v.448c0 .287.114.563.317.766l.319.319c.847.845.847 2.217.002 3.062ZM15.03 7.636a.75.75 0 0 0-1.061 0l-2.137 2.137-.803-.803a.75.75 0 1 0-1.061 1.061l1.333 1.333a.749.749 0 0 0 1.06 0l2.667-2.667a.748.748 0 0 0 .002-1.061Z"/></svg>