<svg xmlns="http://www.w3.org/2000/svg" width="24" height="24" fill="none"><path fill="currentColor" d="M9.33 9.2c.24-.25.5-.51.74-.73.08-.08.19-.1.29-.07l3.66 1.09a.756.756 0 0 0 .93-.51.752.752 0 0 0-.5-.93l-2.39-.71a.306.306 0 0 1-.1-.53c3.82-3.12 7.38-4.61 8.61-3.38 1.51 1.52-1.09 6.58-5.83 11.31-4.73 4.74-9.79 7.34-11.31 5.83-1.1-1.1-.03-4.06 2.45-7.41a.3.3 0 0 1 .33-.11l3.26.98a.76.76 0 0 0 .94-.5c.12-.4-.11-.82-.5-.94l-2.54-.76s-.18-.05-.21-.15c-.03-.09.02-.17.05-.2.04-.05.08-.09.12-.14.15-.18.31-.35.47-.53.07-.09.2-.13.31-.09l3.59 1.08a.76.76 0 0 0 .94-.5c.12-.4-.11-.82-.5-.94l-2.7-.81c-.06-.03-.15-.07-.16-.16-.01-.07 0-.14.06-.19h-.01Z"/></svg>