<svg xmlns="http://www.w3.org/2000/svg" width="24" height="24" fill="none"><path fill="currentColor" d="m6.22 19.21-.04-.04c.39.43.39 1.1-.03 1.51-.43.43-1.12.43-1.55 0L3.32 19.4a1.092 1.092 0 0 1 1.51-1.58l-.04-.04 2.96-3.51c.11-.13.32-.14.44-.02l1.56 1.56c.12.12.12.33-.02.44l-3.51 2.96ZM20.25 3.75a2.572 2.572 0 0 0-3.8.18l-7.34 8.72c-.1.12-.09.3.02.41l1.82 1.82c.11.11.29.12.41.02l8.72-7.34c1.17-.97 1.25-2.73.18-3.8l-.01-.01ZM6.5 2.5c-1.65 0-3 1.35-3 3s1.35 3 3 3 3-1.35 3-3-1.35-3-3-3Z"/></svg>