<svg xmlns="http://www.w3.org/2000/svg" width="24" height="24" fill="none"><path fill="currentColor" d="M21 12.75c-.7 0-1.4-.08-2.08-.22a.75.75 0 0 1-.57-.89c.09-.4.49-.66.89-.57.89.19 1.81.24 2.72.13a9.98 9.98 0 0 0-9.15-9.15A7.887 7.887 0 0 0 13 5.01a.748.748 0 0 1-.73.93c-.34 0-.64-.23-.73-.57a9.84 9.84 0 0 1-.29-2.36c0-.32.02-.64.05-.96-4.96.35-8.92 4.31-9.26 9.27 1.02-.1 2.05-.05 3.04.17.4.09.66.49.57.89a.75.75 0 0 1-.89.57c-.89-.19-1.81-.24-2.72-.13a9.98 9.98 0 0 0 9.15 9.15 7.887 7.887 0 0 0-.19-2.96c-.1-.4.14-.81.55-.91.4-.1.81.14.91.55.19.77.29 1.56.29 2.36 0 .32-.02.64-.05.96 4.96-.35 8.92-4.31 9.26-9.27-.32.03-.64.06-.96.06zm-10.06 3.96c-.13.08-.27.12-.41.12-.24 0-.48-.12-.63-.34a8.06 8.06 0 0 0-1.08-1.33l-.08-.08-.02-.02c-.44-.42-.92-.79-1.43-1.11a.76.76 0 0 1-.25-1.03.76.76 0 0 1 1.03-.25 10.4 10.4 0 0 1 1.73 1.34l.08.08c.48.48.9 1.01 1.27 1.57.23.35.13.81-.22 1.04zm6.01-5.65c-.14.23-.39.36-.64.36-.13 0-.27-.04-.39-.11a10.4 10.4 0 0 1-1.71-1.32l-.02-.02-.08-.08c-.48-.48-.9-1.01-1.27-1.57a.747.747 0 0 1 .22-1.04c.35-.23.81-.13 1.04.22.31.48.67.92 1.08 1.33l.08.08.02.02c.44.42.92.79 1.43 1.11.35.22.46.68.25 1.03z"/></svg>