<svg xmlns="http://www.w3.org/2000/svg" width="24" height="24" fill="none"><path fill="currentColor" d="M21 14.75a.75.75 0 0 1-.75-.75v-3a.75.75 0 0 1 1.5 0v3a.75.75 0 0 1-.75.75M19 9.5v6c0 1-.5 1.5-1.5 1.5h-13c-1 0-1.5-.5-1.5-1.5v-6C3 8.5 3.5 8 4.5 8h13c1 0 1.5.5 1.5 1.5m-12.25 1a.75.75 0 0 0-1.5 0v4a.75.75 0 0 0 1.5 0zm2.5 0a.75.75 0 0 0-1.5 0v4a.75.75 0 0 0 1.5 0zm2.5 0a.75.75 0 0 0-1.5 0v4a.75.75 0 0 0 1.5 0zm2.5 0a.75.75 0 0 0-1.5 0v4a.75.75 0 0 0 1.5 0zm2.5 0a.75.75 0 0 0-1.5 0v4a.75.75 0 0 0 1.5 0z"/></svg>