<svg xmlns="http://www.w3.org/2000/svg" width="24" height="24" fill="none"><path fill="currentColor" d="M20.75 6v3.96c-.62-.38-1.38-.61-2.25-.67V7.85c0-.75-.67-1.35-1.5-1.35h-3c-.83 0-1.5.6-1.5 1.35v1.4h-1v-1.4c0-.75-.67-1.35-1.5-1.35H7c-.83 0-1.5.6-1.5 1.35v1.44c-.87.06-1.63.29-2.25.67V6c0-2.42 1.33-3.75 3.75-3.75h10c2.42 0 3.75 1.33 3.75 3.75m1 11v4c0 .41-.34.75-.75.75s-.75-.34-.75-.75v-.75H3.75V21c0 .41-.34.75-.75.75s-.75-.34-.75-.75v-7c0-2.42 1.33-3.75 3.75-3.75h12c2.42 0 3.75 1.33 3.75 3.75zm-1.5 1.75v-1H3.75v1z"/></svg>