<svg xmlns="http://www.w3.org/2000/svg" width="24" height="24" fill="none"><path fill="currentColor" d="M14.167 20.252a2.483 2.483 0 0 1-2.162 1.248 2.482 2.482 0 0 1-2.162-1.248.501.501 0 0 1 .433-.752h3.46a.499.499 0 0 1 .431.752M20.4 17.69c-.02-.03-1.9-2.41-1.9-5.19V9c0-.136-.005-.269-.013-.402a.317.317 0 0 0-.143-.242.288.288 0 0 0-.254-.031 3.4 3.4 0 0 1-1.065.174c-1.701.012-3.232-1.269-3.484-2.951a3.466 3.466 0 0 1 .45-2.326c.104-.172.039-.401-.153-.457a6.532 6.532 0 0 0-3.364-.085C7.512 3.384 5.51 6.169 5.51 9.214V12.5c0 2.78-1.88 5.16-1.9 5.19-.12.15-.14.35-.06.53.09.17.26.28.45.28h16c.2 0 .37-.11.46-.28.08-.18.06-.38-.06-.53M17 3a2 2 0 1 0-.001 3.999A2 2 0 0 0 17 3"/></svg>