<svg xmlns="http://www.w3.org/2000/svg" width="24" height="24" fill="none"><path fill="currentColor" d="M20.45 18.217a.499.499 0 0 1-.45.283H4a.499.499 0 0 1-.39-.812c.019-.023 1.896-2.406 1.896-5.188V8.995A6.503 6.503 0 0 1 12.001 2.5a6.503 6.503 0 0 1 6.495 6.495V12.5c0 2.781 1.876 5.164 1.896 5.188.118.15.142.355.058.529ZM3.746 8.075a8.09 8.09 0 0 1 1.997-4.578.751.751 0 0 0-1.125-.993 9.586 9.586 0 0 0-2.364 5.422.75.75 0 1 0 1.492.149Zm17.329.671a.75.75 0 0 0 .671-.821 9.591 9.591 0 0 0-2.364-5.422.75.75 0 1 0-1.125.993 8.096 8.096 0 0 1 1.997 4.578.75.75 0 0 0 .821.672Zm-6.911 11.005a.5.5 0 0 0-.434-.251h-3.46a.499.499 0 0 0-.432.752A2.483 2.483 0 0 0 12 21.5c.898 0 1.706-.467 2.162-1.248a.501.501 0 0 0 .002-.501Z"/></svg>