<svg xmlns="http://www.w3.org/2000/svg" width="24" height="24" fill="none"><path fill="currentColor" d="M12.911 11.25h-2.115V9.09h2.115a1.07 1.07 0 0 1 1.058 1.08 1.07 1.07 0 0 1-1.058 1.08Zm.516 1.5h-2.632v2.16h2.631a1.07 1.07 0 0 0 1.058-1.08c0-.596-.473-1.08-1.057-1.08ZM21 6.375v11.25C21 19.875 19.875 21 17.625 21H6.375C4.125 21 3 19.875 3 17.625V6.375C3 4.125 4.125 3 6.375 3h11.25C19.875 3 21 4.125 21 6.375Zm-5.015 7.455a2.58 2.58 0 0 0-1.064-2.085c.338-.437.547-.979.547-1.575 0-1.25-.886-2.294-2.059-2.529V7a.75.75 0 0 0-1.5 0v.59h-.591V7a.75.75 0 0 0-1.5 0v.59H8.764a.75.75 0 0 0 0 1.5h.531v5.82h-.531a.75.75 0 0 0 0 1.5h1.054V17a.75.75 0 0 0 1.5 0v-.59h.591V17a.75.75 0 0 0 1.5 0v-.59h.017c1.412 0 2.559-1.157 2.559-2.58Z"/></svg>