<svg xmlns="http://www.w3.org/2000/svg" width="24" height="24" fill="none"><path fill="currentColor" d="M16.733 11.617A4.478 4.478 0 0 0 18 8.5c0-2.31-1.756-4.197-4-4.449V3c0-.55-.45-1-1-1s-1 .45-1 1v1h-2V3c0-.55-.45-1-1-1s-1 .45-1 1v1H6a1 1 0 0 0 0 2h1v12H6a1 1 0 0 0 0 2h2v1c0 .55.45 1 1 1s1-.45 1-1v-1h2v1c0 .55.45 1 1 1s1-.45 1-1v-1h.5c2.481 0 4.5-2.019 4.5-4.5 0-1.665-.919-3.105-2.267-3.883M13.5 6C14.878 6 16 7.122 16 8.5S14.878 11 13.5 11H9V6zm1 12H9v-5h5.5c1.378 0 2.5 1.122 2.5 2.5S15.878 18 14.5 18"/></svg>