<svg xmlns="http://www.w3.org/2000/svg" width="24" height="24" fill="none"><path fill="currentColor" d="m13.63 12.42-.03-.02 4.07-3.66c.2-.18.32-.44.33-.71.01-.28-.1-.54-.29-.74l-5-5c-.29-.28-.72-.37-1.09-.21-.38.15-.62.52-.62.92v7.58l-3.43-2.4a.99.99 0 0 0-1.39.25.99.99 0 0 0 .25 1.39l3.71 2.6.26.18-4.07 3.66a.997.997 0 1 0 1.34 1.48L11 14.75V21c0 .4.24.77.62.92.12.06.25.08.38.08.26 0 .52-.1.71-.29l5-5c.21-.21.31-.5.29-.8-.03-.29-.18-.56-.43-.73zM13 5.41l2.55 2.55L13 10.25zm0 13.18v-4.17l2.45 1.72z"/></svg>