<svg xmlns="http://www.w3.org/2000/svg" width="24" height="24" fill="none"><path fill="currentColor" d="M19.506 9.993c.005.4-.152.78-.442 1.07l-10.3 10.29a.499.499 0 0 1-.619.07.5.5 0 0 1-.208-.586l.74-2.15a.49.49 0 0 1 .119-.191l9.55-9.55a.5.5 0 0 1 .697-.009c.29.272.457.658.463 1.056ZM21.53 2.47a.75.75 0 0 0-1.061 0l-4.74 4.741 1.13-2.61a1.503 1.503 0 0 0-1.38-2.1H11c-.85 0-1.54.53-1.81 1.35l-2.62 6.68c-.14.46-.06.96.22 1.35.29.4.73.62 1.21.62l2.492-.053-8.023 8.023a.75.75 0 0 0 1.06 1.061l18-18a.75.75 0 0 0 .001-1.062Z"/></svg>