<svg xmlns="http://www.w3.org/2000/svg" width="24" height="24" fill="none"><path fill="currentColor" d="M11.19 5.666c.039.054.06.121.06.188v13.194c0 .225-.237.36-.438.26-2.385-1.19-4.778-1.186-7.163-.507-.33.09-.65-.14-.65-.47V5.321a.51.51 0 0 1 .285-.458c1.642-.782 3.383-1.003 5.195-.783a3.925 3.925 0 0 1 2.71 1.586Zm9.525-.803a8.709 8.709 0 0 0-2.215-.697V10L17 9.14l-1.5.86V4.084a3.923 3.923 0 0 0-2.69 1.581.324.324 0 0 0-.06.188v13.194c0 .225.237.36.438.26 2.385-1.19 4.778-1.186 7.163-.507.33.09.65-.14.65-.47V5.32a.51.51 0 0 0-.286-.457"/></svg>