<svg xmlns="http://www.w3.org/2000/svg" width="24" height="24" fill="none"><path fill="currentColor" d="M19.997 4.57V18l-.007-.014V18l-2.349-1.344a.298.298 0 0 1-.151-.26V8.471c-.041-2.487-1.546-3.97-4.06-3.971H8.217c-.174 0-.226-.152-.21-.325C8.13 2.731 8.984 2 10.56 2h6.867c1.71 0 2.57.86 2.57 2.57M16 8.57V22l-6-3.428L4 22V8.571C4 6.857 4.857 6 6.571 6h6.857C15.143 6 16 6.857 16 8.571Zm-4.563.86C10.362 9.426 10 10.51 10 10.51s-.361-1.084-1.437-1.079c-1.444.007-2.012 1.356-1.752 2.696C7.235 14.312 10 15.57 10 15.57s2.765-1.258 3.189-3.443c.26-1.341-.305-2.689-1.752-2.696Z"/></svg>