<svg xmlns="http://www.w3.org/2000/svg" width="24" height="24" fill="none"><path fill="currentColor" d="M16 3H8C6 3 5 4 5 6v15l7-4 7 4V6c0-2-1-3-3-3Zm-.618 6.834-1.26 1.203a.378.378 0 0 0-.112.339l.288 1.646c.06.334-.298.588-.604.431l-1.512-.778a.398.398 0 0 0-.362 0l-1.51.777c-.307.158-.665-.098-.606-.432l.288-1.644a.378.378 0 0 0-.112-.339L8.62 9.834a.38.38 0 0 1 .216-.652l1.743-.248a.386.386 0 0 0 .293-.209l.755-1.498a.42.42 0 0 1 .748 0l.755 1.498a.39.39 0 0 0 .293.209l1.743.248a.38.38 0 0 1 .216.652Z"/></svg>