<svg xmlns="http://www.w3.org/2000/svg" width="24" height="24" fill="none"><path fill="currentColor" d="M19.997 4.57V18l-.007-.014V18l-2.349-1.344a.298.298 0 0 1-.151-.26V8.471c-.041-2.487-1.546-3.97-4.06-3.971H8.217c-.174 0-.226-.152-.21-.325C8.13 2.731 8.984 2 10.56 2h6.867c1.71 0 2.57.86 2.57 2.57M10.02 11.5h-.01a.996.996 0 0 0-.995 1c0 .552.453 1 1.005 1a1 1 0 1 0 0-2M16 8.571V22l-6-3.428L4 22V8.571C4 6.857 4.857 6 6.571 6h6.857C15.143 6 16 6.857 16 8.571m-3.216 3.931a1.163 1.163 0 0 1 .601-1.014l.116-.065-.802-1.346-.115.064a1.238 1.238 0 0 1-1.207-.001 1.161 1.161 0 0 1-.599-1.009.133.133 0 0 0-.135-.131H9.31a.134.134 0 0 0-.135.131c0 .416-.228.8-.6 1.009-.372.21-.832.211-1.206.001a.134.134 0 0 0-.181.047l-.669 1.123a.127.127 0 0 0 .048.176l.002.001c.371.209.599.593.6 1.008.001.418-.228.805-.6 1.015l-.002.001a.127.127 0 0 0-.048.176l.669 1.122a.135.135 0 0 0 .182.047 1.236 1.236 0 0 1 1.206.001c.371.209.6.594.598 1.01 0 .072.06.131.135.131h1.336a.133.133 0 0 0 .135-.13c0-.416.228-.8.599-1.009.373-.21.833-.211 1.207-.001a.134.134 0 0 0 .181-.047l.67-1.123a.127.127 0 0 0-.049-.176l-.001-.001a1.16 1.16 0 0 1-.602-1.01Z"/></svg>