<svg xmlns="http://www.w3.org/2000/svg" width="24" height="24" fill="none"><path fill="currentColor" d="M13 8.05v7.9a.3.3 0 0 1-.3.3H8.3a.3.3 0 0 1-.3-.3v-7.9a.3.3 0 0 1 .3-.3h4.4a.3.3 0 0 1 .3.3m-6.3-.3H2.3a.3.3 0 0 0-.3.3v7.9a.3.3 0 0 0 .3.3h4.4a.3.3 0 0 0 .3-.3v-7.9a.3.3 0 0 0-.3-.3m12.447-2.153L18.85 4.2c-.21-.97-.8-1.35-1.77-1.15l-1.94.42c-.97.2-1.35.79-1.15 1.76l.298 1.406a.3.3 0 0 0 .356.231l4.273-.914a.3.3 0 0 0 .23-.356m2.061 9.71-1.625-7.653a.3.3 0 0 0-.356-.231l-4.273.914a.3.3 0 0 0-.23.356l1.635 7.653a.301.301 0 0 0 .356.231l4.264-.914a.301.301 0 0 0 .229-.356m.732 3.463-.298-1.406a.3.3 0 0 0-.356-.23l-4.263.913a.3.3 0 0 0-.23.356l.298 1.397c.21.97.79 1.35 1.76 1.15l1.95-.42c.969-.2 1.349-.79 1.139-1.76M11.5 3h-2C8.5 3 8 3.5 8 4.5v1.45a.3.3 0 0 0 .3.3h4.4a.3.3 0 0 0 .3-.3V4.5c0-1-.5-1.5-1.5-1.5m-6 0h-2C2.5 3 2 3.5 2 4.5v1.45a.3.3 0 0 0 .3.3h4.4a.3.3 0 0 0 .3-.3V4.5C7 3.5 6.5 3 5.5 3m1.2 14.75H2.3a.3.3 0 0 0-.3.3v1.45c0 1 .5 1.5 1.5 1.5h2c1 0 1.5-.5 1.5-1.5v-1.45a.3.3 0 0 0-.3-.3m6 0H8.3a.3.3 0 0 0-.3.3v1.45c0 1 .5 1.5 1.5 1.5h2c1 0 1.5-.5 1.5-1.5v-1.45a.3.3 0 0 0-.3-.3"/></svg>