<svg xmlns="http://www.w3.org/2000/svg" width="24" height="24" fill="none"><path fill="currentColor" d="M20.99 12.12a8.46 8.46 0 0 1-.47 1.94c-.04.12-.16.2-.29.2H3.75c-.13 0-.24-.08-.29-.2a9.48 9.48 0 0 1-.47-1.94c-.07-.59.4-1.12 1-1.12h15.98c.6 0 1.07.52 1 1.12zm-1.87 3.63H4.87c-.24 0-.39.28-.25.47a9.104 9.104 0 0 0 2.79 2.56c.32.18.52.51.52.87V20c0 .55.45 1 1 1h6.12c.55 0 1-.45 1-1v-.35c0-.37.21-.69.52-.87 1.1-.64 2.05-1.52 2.79-2.56.14-.2-.01-.47-.25-.47zm1.88-11H10.1c-.12-.65-.39-1.18-.83-1.57-.62-.55-1.5-.77-2.55-.64l-1.71.21C3.58 2.92 2.5 4.11 2.5 5.51c0 1.4 1.08 2.59 2.51 2.76l1.7.21c.19.02.38.03.56.03.81 0 1.49-.23 2-.68.44-.39.72-.92.83-1.57H21c.41 0 .75-.34.75-.75s-.34-.75-.75-.75z"/></svg>