<svg xmlns="http://www.w3.org/2000/svg" width="24" height="24" fill="none"><path fill="currentColor" d="M9.48 11.15c.25.11.51.18.77.24v9.52c-.16-.04-.32-.1-.47-.17l-6-2.67A2.996 2.996 0 0 1 2 15.33V8.67c0-.27.04-.54.11-.79l7.37 3.27Zm9.65-4.59c-.26-.26-.56-.48-.91-.63l-6-2.67c-.78-.35-1.66-.35-2.44 0l-6 2.67c-.35.15-.65.37-.91.63l7.21 3.21c.58.26 1.25.26 1.84 0l7.21-3.21Zm-6.571 9.616c.368-2.581 2.63-4.581 5.235-4.672a5.451 5.451 0 0 1 1.81.235c.197.061.396-.073.396-.279V8.67c0-.27-.04-.54-.11-.79l-7.37 3.27c-.25.1-.51.18-.77.24v9.52l.038.024 1.404-.631a.298.298 0 0 0 .125-.434 5.446 5.446 0 0 1-.758-3.693ZM22 17c0 2.21-1.79 4-4 4s-4-1.79-4-4 1.79-4 4-4 4 1.79 4 4Zm-3.29 0 .64-.65c.2-.19.2-.51 0-.7-.19-.2-.51-.2-.7 0l-.65.64-.65-.64c-.19-.2-.51-.2-.7 0-.2.19-.2.51 0 .7l.64.65-.64.65c-.2.19-.2.51 0 .7.09.1.22.15.35.15.13 0 .26-.05.35-.15l.65-.64.65.64c.09.1.22.15.35.15.13 0 .26-.05.35-.15.2-.19.2-.51 0-.7l-.64-.65Z"/></svg>