<svg xmlns="http://www.w3.org/2000/svg" width="24" height="24" fill="none"><path fill="currentColor" d="M10.48 11.15c.25.11.51.18.77.24v9.52c-.16-.04-.32-.1-.47-.17l-6-2.67A2.996 2.996 0 0 1 3 15.33V8.67c0-.27.04-.54.11-.79zm4.34-2.23L6.67 5.09l-1.89.84c-.35.15-.65.37-.91.63l7.21 3.21c.58.26 1.25.26 1.84 0zm5.31-2.36c-.26-.26-.56-.48-.91-.63l-6-2.67c-.78-.35-1.66-.35-2.44 0L8.49 4.28l8.15 3.83zm.76 1.32-3.51 1.56v2.45c0 .41-.34.75-.75.75s-.75-.34-.75-.75V10.1l-2.36 1.05c-.25.1-.51.18-.77.24v9.52c.16-.04.32-.1.47-.17l6-2.67A2.996 2.996 0 0 0 21 15.33V8.67c0-.27-.04-.54-.11-.79"/></svg>