<svg xmlns="http://www.w3.org/2000/svg" width="24" height="24" fill="none"><path fill="currentColor" d="M7.3 17.75h11.4c.17 0 .3.13.3.3v1.45c0 .83-.67 1.5-1.5 1.5h-9c-.83 0-1.5-.67-1.5-1.5v-1.45c0-.17.13-.3.3-.3Zm-.39-1.72c.04.13.15.22.28.22H18.7c.3 0 .3-.19.3-.19 0-.23.05-.46.16-.67l.52-1.05c.21-.42.32-.88.32-1.34V7c0-2.2-1.8-4-4-4h-6C8.34 3 7 4.34 7 6v6c0 .28-.22.5-.5.5S6 12.28 6 12V7.09C5.84 7.03 5.68 7 5.5 7 4.67 7 4 7.67 4 8.5v3.6c0 1 .5 1.94 1.34 2.5l1 .66c.28.19.48.46.58.77h-.01Z"/></svg>