<svg xmlns="http://www.w3.org/2000/svg" width="24" height="24" fill="none"><path fill="currentColor" d="M20.53 13.61s.47.68.47 1.78c0 1.85-1.38 3.37-3.17 3.59C17.41 20.24 16.49 21 15 21c-1 0-2.25-.77-2.25-2.13V17c0-1.49 1.55-2.31 1.59-2.33a.75.75 0 0 0 .33-1.01.736.736 0 0 0-1-.33c-.05.02-.45.23-.92.63V12c0-1.49 1.55-2.31 1.59-2.33a.75.75 0 0 0 .33-1.01.736.736 0 0 0-1-.33c-.05.02-.45.23-.92.63V4.58c0-1.22.8-1.58 1.25-1.58 2.23 0 2.89 2.23 2.89 2.23S19 6 19 8.32c0 .28-.03.55-.1.8 1.22.38 2.1 1.53 2.1 2.89 0 .6-.47 1.6-.47 1.6m-10.2-5.28c.05.02.45.23.92.63V4.58C11.25 3.36 10.45 3 10 3 7.77 3 7.11 5.23 7.11 5.23S5 6 5 8.32c0 .28.03.55.1.8C3.88 9.5 3 10.65 3 12.01c0 .6.47 1.6.47 1.6S3 14.29 3 15.39c0 1.85 1.38 3.37 3.17 3.59C6.59 20.24 7.51 21 9 21c1 0 2.25-.77 2.25-2.13V17c0-1.5-1.57-2.32-1.59-2.33a.759.759 0 0 1-.33-1.01c.19-.37.64-.52 1-.33.05.02.45.23.92.63V12c0-1.5-1.57-2.32-1.59-2.33a.759.759 0 0 1-.33-1.01c.19-.37.64-.52 1-.33"/></svg>