<svg xmlns="http://www.w3.org/2000/svg" width="24" height="24" fill="none"><path fill="currentColor" d="M19.1 4.12C17.61 3.58 15.24 3 12 3c-3.24 0-5.6.58-7.1 1.12A2.86 2.86 0 0 0 3 6.82v.42c0 1.08.61 2.07 1.58 2.56l.42.21v9.5c0 .83.67 1.5 1.5 1.5h11c.83 0 1.5-.67 1.5-1.5v-9.5l1.16-1.16c.54-.54.84-1.26.84-2.02 0-1.21-.76-2.29-1.9-2.7zM7.27 8a.749.749 0 1 1 1.5 0 .749.749 0 1 1-1.5 0m1.75 9.75a.749.749 0 1 1 .75-.75c0 .41-.33.75-.75.75m1-5a.749.749 0 1 1 .75-.75c0 .41-.33.75-.75.75m4 2a.749.749 0 1 1 .75-.75c0 .41-.33.75-.75.75M14.27 9a.749.749 0 1 1 1.5 0 .749.749 0 1 1-1.5 0m1.75 9.75a.749.749 0 1 1 .75-.75c0 .41-.33.75-.75.75"/></svg>