<svg xmlns="http://www.w3.org/2000/svg" width="24" height="24" fill="none"><path fill="currentColor" d="M21.53 20.47a.75.75 0 0 1-1.06 1.061l-.97-.97-.97.97a.748.748 0 0 1-1.06 0 .75.75 0 0 1 0-1.061l.97-.97-.97-.97a.75.75 0 1 1 1.061-1.061l.97.97.97-.97a.75.75 0 1 1 1.061 1.061l-.97.97zM3 9.96V9c0-2 1-3 3-3h1.25V4.5c0-.96.78-1.75 1.75-1.75h6c.96 0 1.75.79 1.75 1.75V6H18c2 0 3 1 3 3v.96c0 .93-.55 1.75-1.41 2.09-1.38.54-2.8.96-4.23 1.26-.11.02-.21-.06-.27-.15-.73-1.08-1.88-1.73-3.09-1.73-1.2 0-2.36.65-3.08 1.73-.06.09-.17.17-.27.15-1.43-.3-2.86-.72-4.24-1.27A2.204 2.204 0 0 1 3 9.96M8.75 6h6.5V4.5c0-.14-.11-.25-.25-.25H9c-.14 0-.25.11-.25.25zM15 20c0 .19.01.39.03.58.01.05.01.1.01.14 0 .16-.12.28-.29.28H6c-2 0-3-1-3-3v-5.05c.26.21.55.37.86.49 1.46.58 2.97 1.03 4.49 1.34.69.14 1.4-.17 1.82-.79.44-.66 1.13-1.06 1.83-1.06.71 0 1.4.4 1.84 1.06.35.52.9.82 1.48.82.11 0 .23-.01.34-.03 1.51-.31 3.02-.76 4.48-1.34.31-.12.6-.28.86-.48v1.79c0 .16-.11.29-.28.29-.04 0-.09 0-.13-.01-.19-.02-.39-.03-.59-.03-2.76 0-5 2.24-5 5m-2-5a1 1 0 0 0-.998-1h-.008A.996.996 0 0 0 11 15a1 1 0 1 0 2 0"/></svg>