<svg xmlns="http://www.w3.org/2000/svg" width="24" height="24" fill="none"><path fill="currentColor" d="M4.41 12.04c1.38.55 2.81.97 4.24 1.27.1.02.21-.06.27-.15.72-1.08 1.88-1.73 3.08-1.73 1.21 0 2.36.65 3.09 1.73.06.09.16.17.27.15 1.43-.3 2.85-.72 4.23-1.26.86-.34 1.41-1.16 1.41-2.09V9c0-2-1-3-3-3h-1.25V4.5c0-.96-.79-1.75-1.75-1.75H9c-.97 0-1.75.79-1.75 1.75V6H6C4 6 3 7 3 9v.96c0 .93.55 1.75 1.41 2.08M8.75 4.5c0-.14.11-.25.25-.25h6c.14 0 .25.11.25.25V6h-6.5zM15 20c0-2.76 2.24-5 5-5 .2 0 .4.01.59.03.04.01.09.01.13.01.17 0 .28-.13.28-.29v-1.79c-.26.2-.55.36-.86.48-1.46.58-2.97 1.03-4.48 1.34-.11.02-.23.03-.34.03-.58 0-1.13-.3-1.48-.82-.44-.66-1.13-1.06-1.84-1.06-.7 0-1.39.4-1.83 1.06-.42.62-1.13.93-1.82.79a26.58 26.58 0 0 1-4.49-1.34c-.31-.12-.6-.28-.86-.49V18c0 2 1 3 3 3h8.75c.17 0 .29-.12.29-.28 0-.04 0-.09-.01-.14-.02-.19-.03-.39-.03-.58m-2.998-4A1.003 1.003 0 0 1 11 15c0-.552.443-1 .994-1h.008a1 1 0 0 1 0 2m9.748 3a.75.75 0 0 1-.75.75h-1.25V21a.75.75 0 0 1-1.5 0v-1.25H17a.75.75 0 0 1 0-1.5h1.25V17a.75.75 0 0 1 1.5 0v1.25H21a.75.75 0 0 1 .75.75"/></svg>