<svg xmlns="http://www.w3.org/2000/svg" width="24" height="24" fill="none"><path fill="currentColor" d="M21 21.75h-5a.75.75 0 0 1 0-1.5h5a.75.75 0 0 1 0 1.5ZM3.44 12.56a1.49 1.49 0 0 0 0 2.12l.91.91 2.12-2.12c.29-.29.77-.29 1.06 0 .29.29.29.77 0 1.06l-2.12 2.12 3.91 3.91c.58.59 1.53.59 2.12 0l3.95-3.94-8-8-3.95 3.94Zm5.57-6.571-.714.714a.5.5 0 0 0 0 .707l8.293 8.293a.5.5 0 0 0 .707 0l.714-.714a2 2 0 0 0 .443-2.157l-1.097-2.742a1.5 1.5 0 0 1 .456-1.728l2.475-1.98a1.9 1.9 0 1 0-2.669-2.669l-1.98 2.475a1.5 1.5 0 0 1-1.728.456l-2.742-1.097a2 2 0 0 0-2.158.442Z"/></svg>