<svg xmlns="http://www.w3.org/2000/svg" width="24" height="24" fill="none"><path fill="currentColor" d="M11.25 16.991v3.602c0 .186-.17.336-.353.302a5.913 5.913 0 0 1-2.287-.946c-.11-.08-.26-.3-.08-.48l2.55-2.55a.1.1 0 0 1 .17.072M18 13.75h3a.75.75 0 0 0 0-1.5h-3v-1.53c0-.29-.31-.41-.5-.22l-4.662 4.662a.301.301 0 0 0-.088.212v5.217c0 .187.172.337.355.303a5.991 5.991 0 0 0 4.208-3.145H18c1.24 0 2.25 1.009 2.25 2.25a.75.75 0 0 0 1.5 0 3.755 3.755 0 0 0-3.75-3.75h-.144c.086-.405.144-.819.144-1.25zm3.53-11.28a.75.75 0 0 0-1.061 0l-4.607 4.607A4.79 4.79 0 0 0 15 7H9c-1.289 0-2.156.421-2.614 1.251l-.264-.001a2.23 2.23 0 0 1-2.091-1.54l-.32-.95a.751.751 0 0 0-1.422.48l.318.942a3.724 3.724 0 0 0 3.41 2.56c-.004.088-.017.168-.017.26v2.25H3a.75.75 0 0 0 0 1.5h3v1.25c0 .587.092 1.154.25 1.69l-3.78 3.78a.75.75 0 0 0 1.06 1.061l18-18a.751.751 0 0 0 0-1.062ZM9.432 5.5h5.136c.194 0 .351-.186.294-.372A2.992 2.992 0 0 0 12 3a2.992 2.992 0 0 0-2.862 2.128c-.057.186.1.372.294.372"/></svg>