<svg xmlns="http://www.w3.org/2000/svg" width="24" height="24" fill="none"><path fill="currentColor" d="M21.75 20a.75.75 0 0 1-1.5 0c0-1.241-1.01-2.25-2.25-2.25h-.687a5.992 5.992 0 0 1-4.207 3.143.306.306 0 0 1-.355-.303V13c0-.41-.34-.75-.75-.75s-.75.34-.75.75v7.59a.307.307 0 0 1-.355.303 5.992 5.992 0 0 1-4.207-3.143H6A2.253 2.253 0 0 0 3.75 20a.75.75 0 0 1-1.5 0A3.755 3.755 0 0 1 6 16.25h.144A5.985 5.985 0 0 1 6 15v-1.25H3a.75.75 0 0 1 0-1.5h3V10c0-.092.013-.17.017-.258a3.722 3.722 0 0 1-3.41-2.561l-.318-.942a.751.751 0 0 1 1.422-.48l.32.95a2.232 2.232 0 0 0 2.091 1.54l.263.003C6.843 7.421 7.711 6.999 9 6.999h6c1.289 0 2.157.422 2.615 1.253l.263-.003a2.228 2.228 0 0 0 2.09-1.531l.321-.958a.75.75 0 0 1 1.422.48l-.32.95a3.72 3.72 0 0 1-3.407 2.552c.004.088.017.166.017.258v2.25h3a.75.75 0 0 1 0 1.5h-3V15c0 .431-.058.845-.144 1.25H18A3.755 3.755 0 0 1 21.75 20M9.432 5.5h5.136c.194 0 .351-.186.294-.372A2.992 2.992 0 0 0 12 3a2.992 2.992 0 0 0-2.862 2.128c-.057.186.1.372.294.372"/></svg>