<svg xmlns="http://www.w3.org/2000/svg" width="24" height="24" fill="none"><path fill="currentColor" d="M22 20.25h-1.75v-2.878A2.495 2.495 0 0 0 22 15v-3c0-1.378-1.121-2.5-2.5-2.5A2.503 2.503 0 0 0 17 12v3c0 1.115.739 2.052 1.75 2.372v2.878H15V6c0-2-1-3-3-3H6C4 3 3 4 3 6v14.25H2a.75.75 0 0 0 0 1.5h20a.75.75 0 0 0 0-1.5Zm-11.5-13h1a.75.75 0 0 1 0 1.5h-1a.75.75 0 0 1 0-1.5Zm0 3h1a.75.75 0 0 1 0 1.5h-1a.75.75 0 0 1 0-1.5Zm-4-3h1a.75.75 0 0 1 0 1.5h-1a.75.75 0 0 1 0-1.5Zm0 3h1a.75.75 0 0 1 0 1.5h-1a.75.75 0 0 1 0-1.5ZM7 17a2 2 0 0 1 4 0v3.25H7V17Z"/></svg>