<svg xmlns="http://www.w3.org/2000/svg" width="24" height="24" fill="none"><path fill="currentColor" d="M21 11.34V19c0 1.33-.67 2-2 2h-1.2a.3.3 0 0 1-.3-.3V9.72c0-.2.18-.34.37-.29l1.96.45c.69.15 1.17.76 1.17 1.46Zm-5-4.53V20.7a.3.3 0 0 1-.3.3h-3.9c-.17 0-.3-.15-.3-.29V17c0-1.1-.9-2-2-2s-2 .9-2 2v3.7c0 .16-.15.3-.27.3H5c-1.33 0-2-.67-2-2V4.5c0-.96.9-1.68 1.84-1.46l10 2.31c.68.15 1.16.76 1.16 1.46ZM8.75 12c0-.41-.34-.75-.75-.75H7c-.41 0-.75.34-.75.75s.34.75.75.75h1c.41 0 .75-.34.75-.75Zm0-3c0-.41-.34-.75-.75-.75H7c-.41 0-.75.34-.75.75s.34.75.75.75h1c.41 0 .75-.34.75-.75Zm4 3c0-.41-.34-.75-.75-.75h-1c-.41 0-.75.34-.75.75s.34.75.75.75h1c.41 0 .75-.34.75-.75Zm0-3c0-.41-.34-.75-.75-.75h-1c-.41 0-.75.34-.75.75s.34.75.75.75h1c.41 0 .75-.34.75-.75Z"/></svg>