<svg xmlns="http://www.w3.org/2000/svg" width="24" height="24" fill="none"><path fill="currentColor" d="M3.5 18v-.5c0-.28.22-.5.5-.5h16c.28 0 .5.22.5.5v.5c0 2-1 3-3 3h-11c-2 0-3-1-3-3m18.25-4c0-.41-.34-.75-.75-.75H3c-.41 0-.75.34-.75.75s.34.75.75.75h18c.41 0 .75-.34.75-.75m-1.25-4v.5c0 .28-.22.5-.5.5H4c-.28 0-.5-.22-.5-.5V10c0-4 3-7 8.5-7s8.5 3 8.5 7M8.75 7a.753.753 0 0 0-.46-.69.753.753 0 0 0-.82.16.776.776 0 0 0-.22.53.776.776 0 0 0 .22.53.776.776 0 0 0 .53.22.753.753 0 0 0 .75-.75m4-1a.776.776 0 0 0-.22-.53.753.753 0 0 0-1.06 0c-.07.07-.13.15-.16.24a.717.717 0 0 0 0 .58c.04.09.09.17.16.24a.776.776 0 0 0 .53.22.75.75 0 0 0 .75-.75m4 1a.776.776 0 0 0-.22-.53.776.776 0 0 0-.24-.16.73.73 0 0 0-.58 0c-.09.04-.17.09-.24.16-.07.07-.13.15-.16.24a.75.75 0 1 0 1.44.29"/></svg>