<svg xmlns="http://www.w3.org/2000/svg" width="24" height="24" fill="none"><path fill="currentColor" d="M3.5 18v-.5c0-.28.22-.5.5-.5h16c.28 0 .5.22.5.5v.5c0 2-1 3-3 3h-11c-2 0-3-1-3-3Zm18.25-3.28c0-.41-.34-.75-.75-.75s-.61-.16-.98-.51c-.41-.39-.97-.93-2.02-.93s-1.61.54-2.02.93c-.37.35-.55.51-.98.51-.43 0-.61-.16-.98-.51-.41-.39-.97-.93-2.02-.93s-1.61.54-2.02.93c-.37.35-.55.51-.98.51-.43 0-.61-.16-.98-.51-.41-.39-.97-.93-2.02-.93s-1.61.54-2.02.93c-.37.35-.55.51-.98.51-.43 0-.75.34-.75.75s.34.75.75.75c1.05 0 1.61-.54 2.02-.93.37-.35.55-.51.98-.51.43 0 .61.16.98.51.41.39.97.93 2.02.93s1.61-.54 2.02-.93c.37-.35.55-.51.98-.51.43 0 .61.16.98.51.41.39.97.93 2.02.93s1.61-.54 2.02-.93c.37-.35.55-.51.98-.51.43 0 .61.16.98.51.41.39.97.93 2.02.93.41 0 .75-.34.75-.75ZM20.5 10v.5c0 .28-.22.5-.5.5H4c-.28 0-.5-.22-.5-.5V10c0-4 3-7 8.5-7s8.5 3 8.5 7ZM8.75 7c0-.2-.08-.39-.22-.53-.28-.28-.79-.28-1.06 0a.776.776 0 0 0-.22.53.75.75 0 0 0 1.5 0Zm4-1a.75.75 0 1 0-1.499 0 .75.75 0 0 0 1.499 0Zm4 1a.75.75 0 1 0-1.44.29.75.75 0 0 0 1.44-.29Z"/></svg>