<svg xmlns="http://www.w3.org/2000/svg" width="24" height="24" fill="none"><path fill="currentColor" d="M16 2.25H8C5.58 2.25 4.25 3.58 4.25 6v11c0 1.748.703 2.917 2 3.437V21c0 .41.34.75.75.75s.75-.34.75-.75v-.268c.085.004.162.018.25.018h8c.088 0 .165-.015.25-.018V21c0 .41.34.75.75.75s.75-.34.75-.75v-.563c1.297-.52 2-1.689 2-3.437V6c0-2.42-1.33-3.75-3.75-3.75M9.02 18c-.55 0-1-.45-1-1s.44-1 .99-1h.01c.55 0 1 .45 1 1s-.45 1-1 1m6 0c-.55 0-1-.45-1-1s.44-1 .99-1h.01c.55 0 1 .45 1 1s-.45 1-1 1m-9.27-4.75V6c0-1.58.67-2.25 2.25-2.25h8c1.58 0 2.25.67 2.25 2.25v7.25zm8-7.25a.75.75 0 0 1-.75.75h-2a.75.75 0 0 1 0-1.5h2a.75.75 0 0 1 .75.75m8 4v3a.75.75 0 0 1-1.5 0v-3a.75.75 0 0 1 1.5 0m-18 0v3a.75.75 0 0 1-1.5 0v-3a.75.75 0 0 1 1.5 0"/></svg>