<svg xmlns="http://www.w3.org/2000/svg" width="24" height="24" fill="none"><path fill="currentColor" d="M20 12.5v4.75H4V12.5c.57 0 1.53 1.22 2 2.1.14.26.42.42.72.4.29-.02.55-.22.65-.5 0-.02.75-2 1.97-2s1.95 1.98 1.95 2a.755.755 0 0 0 1.42 0c.18-.52.93-2 1.95-2 1.22 0 1.96 1.98 1.97 2 .1.28.36.48.65.5.32.02.58-.14.72-.4.47-.88 1.43-2.1 2-2.1M17 7h-.25V5c0-.41-.34-.75-.75-.75s-.75.34-.75.75v2h-2.5V5c0-.41-.34-.75-.75-.75s-.75.34-.75.75v2h-2.5V5c0-.41-.34-.75-.75-.75s-.75.34-.75.75v2H7c-2 0-3 1-3 3v1c1.05 0 1.98.93 2.59 1.75.55-.82 1.45-1.75 2.75-1.75s2.11.85 2.66 1.64c.55-.79 1.42-1.64 2.66-1.64 1.24 0 2.2.93 2.75 1.75.61-.82 1.54-1.75 2.59-1.75v-1c0-2-1-3-3-3M3 18.75v.75c0 .83.67 1.5 1.5 1.5h15c.83 0 1.5-.67 1.5-1.5v-.75z"/></svg>