<svg xmlns="http://www.w3.org/2000/svg" width="24" height="24" fill="none"><path fill="currentColor" d="M20.7 12.75h-7.65c-.17 0-.3.13-.3.3v7.65c0 .17.13.3.3.3H18c2 0 3-1 3-3v-4.95c0-.17-.13-.3-.3-.3M18 18.5h-3c-.41 0-.75-.34-.75-.75s.34-.75.75-.75h3c.41 0 .75.34.75.75s-.34.75-.75.75m0-2.5h-3c-.41 0-.75-.34-.75-.75s.34-.75.75-.75h3c.41 0 .75.34.75.75s-.34.75-.75.75M10.95 3H6C4 3 3 4 3 6v4.95c0 .17.13.3.3.3h7.65c.17 0 .3-.13.3-.3V3.3c0-.17-.13-.3-.3-.3M9 8.25H6c-.41 0-.75-.34-.75-.75s.34-.75.75-.75h3c.41 0 .75.34.75.75s-.34.75-.75.75M18 3h-4.95c-.17 0-.3.13-.3.3v7.65c0 .17.13.3.3.3h7.65c.17 0 .3-.13.3-.3V6c0-2-1-3-3-3m0 5.25h-.75V9c0 .41-.34.75-.75.75s-.75-.34-.75-.75v-.75H15c-.41 0-.75-.34-.75-.75s.34-.75.75-.75h.75V6c0-.41.34-.75.75-.75s.75.34.75.75v.75H18c.41 0 .75.34.75.75s-.34.75-.75.75m-7.05 4.5H3.3c-.17 0-.3.13-.3.3V18c0 2 1 3 3 3h4.95c.17 0 .3-.13.3-.3v-7.65c0-.17-.13-.3-.3-.3m-1.67 4.47c.29.29.29.77 0 1.06-.15.15-.34.22-.53.22s-.38-.07-.53-.22l-.72-.72-.72.72c-.15.15-.34.22-.53.22s-.38-.07-.53-.22a.754.754 0 0 1 0-1.06l.72-.72-.72-.72a.754.754 0 0 1 0-1.06c.29-.29.77-.29 1.06 0l.72.72.72-.72c.29-.29.77-.29 1.06 0 .29.29.29.77 0 1.06l-.72.72z"/></svg>