<svg xmlns="http://www.w3.org/2000/svg" width="24" height="24" fill="none"><path fill="currentColor" d="M20.7 9.75H3.3a.3.3 0 0 0-.3.3V18c0 2 1 3 3 3h12c2 0 3-1 3-3v-7.95a.3.3 0 0 0-.3-.3m-4.67 9.28a.748.748 0 0 1-1.06 0l-1.55-1.549a3.644 3.644 0 0 1-2.002.603 3.671 3.671 0 0 1-3.667-3.667 3.672 3.672 0 0 1 3.667-3.667 3.67 3.67 0 0 1 3.666 3.667c0 .74-.224 1.427-.602 2.004l1.55 1.55a.75.75 0 0 1-.002 1.059M21 7.5v.45a.3.3 0 0 1-.3.3H3.3a.3.3 0 0 1-.3-.3V7.5c0-2 1-3 3-3h1.25V3c0-.41.34-.75.75-.75s.75.34.75.75v1.5h6.5V3c0-.41.34-.75.75-.75s.75.34.75.75v1.5H18c2 0 3 1 3 3m-7.417 6.917a2.17 2.17 0 0 1-2.166 2.167 2.17 2.17 0 0 1-2.167-2.167 2.17 2.17 0 0 1 2.167-2.167 2.17 2.17 0 0 1 2.166 2.167"/></svg>