<svg xmlns="http://www.w3.org/2000/svg" width="24" height="24" fill="none"><path fill="currentColor" d="M12.75 12.995v1.1h-1.5v-1.1a.75.75 0 0 1 1.5 0M21 10.05V18c0 2-1 3-3 3H6c-2 0-3-1-3-3v-7.95a.3.3 0 0 1 .3-.3h17.4a.3.3 0 0 1 .3.3m-6 5.395c0-.67-.251-1.089-.75-1.26v-1.19c0-1.24-1.01-2.25-2.25-2.25a2.253 2.253 0 0 0-2.25 2.25v1.19c-.499.171-.75.59-.75 1.26v2.1c0 .9.45 1.35 1.35 1.35h3.3c.9 0 1.35-.45 1.35-1.35zM18 4.5h-1.25V3c0-.41-.34-.75-.75-.75s-.75.34-.75.75v1.5h-6.5V3c0-.41-.34-.75-.75-.75s-.75.34-.75.75v1.5H6c-2 0-3 1-3 3v.45a.3.3 0 0 0 .3.3h17.4a.3.3 0 0 0 .3-.3V7.5c0-2-1-3-3-3"/></svg>