<svg xmlns="http://www.w3.org/2000/svg" width="24" height="24" fill="none"><path fill="currentColor" d="M12.51 17.74c.126-2.769 2.463-5.105 5.232-5.23a5.5 5.5 0 0 1 1.867.23c.19.06.39-.07.39-.28V9.05a.3.3 0 0 0-.3-.3h-17.4a.3.3 0 0 0-.3.3V17c0 2 1 3 3 3h7.46c.21 0 .34-.2.28-.39a5.518 5.518 0 0 1-.229-1.87ZM7.02 17a1.005 1.005 0 0 1-1.005-1c0-.552.443-1 .995-1h.01a1 1 0 1 1 0 2Zm0-4a1.005 1.005 0 0 1-1.005-1c0-.552.443-1 .995-1h.01a1 1 0 1 1 0 2Zm4 0a1.005 1.005 0 0 1-1.005-1c0-.552.443-1 .995-1h.01a1 1 0 1 1 0 2ZM2 6.95V6.5c0-2 1-3 3-3h1.25V2c0-.41.34-.75.75-.75s.75.34.75.75v1.5h6.5V2c0-.41.34-.75.75-.75s.75.34.75.75v1.5H17c2 0 3 1 3 3v.45a.3.3 0 0 1-.3.3H2.3a.3.3 0 0 1-.3-.3ZM18 14a4 4 0 1 0 0 8 4 4 0 0 0 0-8Zm1.425 5.424a.498.498 0 0 1-.708 0l-1.071-1.071a.5.5 0 0 1-.146-.354v-1.5a.5.5 0 0 1 1 0v1.293l.925.924a.502.502 0 0 1 0 .708Z"/></svg>