<svg xmlns="http://www.w3.org/2000/svg" width="24" height="24" fill="none"><path fill="currentColor" d="M20.7 9.75H3.3a.3.3 0 0 0-.3.3V18c0 2 1 3 3 3h12c2 0 3-1 3-3v-7.95a.3.3 0 0 0-.3-.3m-5.266 4.854C14.978 16.917 12 18.25 12 18.25s-2.978-1.333-3.434-3.646c-.28-1.419.332-2.847 1.887-2.854C11.61 11.745 12 12.893 12 12.893s.39-1.148 1.547-1.143c1.558.007 2.167 1.435 1.887 2.854M21 7.5v.45a.3.3 0 0 1-.3.3H3.3a.3.3 0 0 1-.3-.3V7.5c0-2 1-3 3-3h1.25V3c0-.41.34-.75.75-.75s.75.34.75.75v1.5h6.5V3c0-.41.34-.75.75-.75s.75.34.75.75v1.5H18c2 0 3 1 3 3"/></svg>