<svg xmlns="http://www.w3.org/2000/svg" width="24" height="24" fill="none"><path fill="currentColor" d="M2 6.95V6.5c0-2 1-3 3-3h1.25V2c0-.41.34-.75.75-.75s.75.34.75.75v1.5h6.5V2c0-.41.34-.75.75-.75s.75.34.75.75v1.5H17c2 0 3 1 3 3v.45a.3.3 0 0 1-.3.3H2.3a.3.3 0 0 1-.3-.3Zm10.74 12.66c.06.19-.07.39-.28.39H5c-2 0-3-1-3-3V9.05a.3.3 0 0 1 .3-.3h17.4a.3.3 0 0 1 .3.3v3.41c0 .21-.2.34-.39.28a5.476 5.476 0 0 0-1.867-.23c-2.77.125-5.106 2.46-5.232 5.23-.031.66.049 1.28.229 1.87ZM8.02 16a1 1 0 0 0-1-1h-.01a.996.996 0 0 0-.995 1c0 .552.453 1 1.005 1a1 1 0 0 0 1-1Zm0-4a1 1 0 0 0-1-1h-.01a.996.996 0 0 0-.995 1c0 .552.453 1 1.005 1a1 1 0 0 0 1-1Zm4 0a1 1 0 0 0-1-1h-.01a.996.996 0 0 0-.995 1c0 .552.453 1 1.005 1a1 1 0 0 0 1-1ZM22 18a4 4 0 1 1-8 0 4 4 0 0 1 8 0Zm-2.25 0a.5.5 0 0 0-.5-.5h-2.5a.5.5 0 0 0 0 1h2.5a.5.5 0 0 0 .5-.5Z"/></svg>