<svg xmlns="http://www.w3.org/2000/svg" width="24" height="24" fill="none"><path fill="currentColor" d="M18 7h-2l-.658-1.974A1.5 1.5 0 0 0 13.919 4H10.08a1.5 1.5 0 0 0-1.423 1.026L8 7H6c-2 0-3 1-3 3v8c0 2 1 3 3 3h12c2 0 3-1 3-3v-8c0-2-1-3-3-3Zm-2.188 8.81a4.195 4.195 0 0 1-3.822 2.44 4.21 4.21 0 0 1-2.5-.837v.064a.75.75 0 0 1-1.5 0V15.28c0-.006.003-.012.004-.018 0-.057.02-.11.033-.164.01-.041.013-.083.03-.12.02-.045.052-.081.08-.12.027-.04.049-.082.083-.115.03-.03.07-.047.105-.071.046-.031.088-.066.14-.086.006-.002.01-.008.016-.01.042-.015.083-.011.126-.02.044-.007.085-.026.132-.026h2.192a.75.75 0 0 1 0 1.5h-.775a2.72 2.72 0 0 0 1.833.72 2.693 2.693 0 0 0 2.457-1.56.75.75 0 1 1 1.366.621Zm.178-3.09-.003.015c0 .058-.02.11-.033.166-.01.04-.012.083-.028.12-.019.043-.052.078-.08.117-.026.04-.047.083-.082.117-.03.029-.068.045-.102.069-.046.033-.09.07-.143.09-.005.002-.008.006-.012.008a.756.756 0 0 1-.266.048h-2.192a.75.75 0 0 1 0-1.5h.776a2.708 2.708 0 0 0-4.293.845.749.749 0 1 1-1.361-.63 4.222 4.222 0 0 1 3.82-2.435c.918 0 1.788.308 2.5.832v-.06a.75.75 0 0 1 1.5 0v2.198h-.001Z"/></svg>