<svg xmlns="http://www.w3.org/2000/svg" width="24" height="24" fill="none"><path fill="currentColor" d="M21.53 2.47a.75.75 0 0 0-1.061 0L16.939 6H16l-.66-1.97c-.2-.62-.78-1.03-1.42-1.03h-3.84c-.64 0-1.22.41-1.42 1.03L8 6H6C4 6 3 7 3 9v8c0 .979.243 1.714.723 2.217L2.47 20.47a.75.75 0 0 0 1.06 1.061l18-18a.75.75 0 0 0 0-1.061M9 13a2.996 2.996 0 0 1 3.825-2.885l-3.71 3.71A3.005 3.005 0 0 1 9 13m11.867-5.141c.089.334.133.716.133 1.141v8c0 2-1 3-3 3H8.722c-.182 0-.458-.264-.16-.562l3.359-3.359a.29.29 0 0 1 .193-.082A3 3 0 0 0 15 13l5.313-5.313c.26-.259.503-.02.554.173Z"/></svg>