<svg xmlns="http://www.w3.org/2000/svg" width="24" height="24" fill="none"><path fill="currentColor" d="M17.625 3H6.375C4.125 3 3 4.125 3 6.375v11.25C3 19.875 4.125 21 6.375 21h11.25C19.875 21 21 19.875 21 17.625V6.375C21 4.125 19.875 3 17.625 3M17 15.333C17 16.444 16.444 17 15.333 17H8.666c-1.111 0-1.667-.556-1.667-1.667v-5c0-1.111.556-1.667 1.667-1.667h1.111l.365-1.097a.835.835 0 0 1 .791-.57h2.132c.359 0 .677.23.791.57l.365 1.097h1.111c1.111 0 1.667.556 1.667 1.667zm-3.333-2.5a1.667 1.667 0 1 1-3.333 0 1.667 1.667 0 0 1 3.333 0"/></svg>