<svg xmlns="http://www.w3.org/2000/svg" width="24" height="24" fill="none"><path fill="currentColor" d="m6.14 17.08 1.77-1.77s.09-.06.14-.06h4.99c.18 0 .27.22.14.34l-1.6 1.6s-.09.06-.14.06H6.21c-.09 0-.13-.11-.07-.17Zm12.57-9.93-4.14 1.19a.21.21 0 0 0-.13.13c-.08.29-.24.57-.46.78l-.62.62s-.41.38-.12.38h4.89c.08 0 .15-.04.18-.11.48-.87.7-1.84.67-2.81 0-.13-.14-.22-.26-.19l-.01.01Zm-8.99 6.6h5.23c.05 0 .1-.02.14-.06l1.6-1.6c.13-.13.04-.34-.14-.34h-4.99c-.05 0-.1.02-.14.06l-1.77 1.77c-.06.06-.02.17.07.17Zm2.1-6.95c.21-.2.46-.32.73-.38.08-.02.15-.08.16-.17.06-.63.33-3.17.41-3.98.01-.13-.09-.24-.22-.22-1.22.12-2.4.63-3.33 1.56l-.51.51c-.83.83-.74 2.23.26 2.94.77.55 1.83.39 2.51-.26h-.01ZM4.64 18.75c-.17 0-.23.1-.27.15a1.96 1.96 0 0 0 2.98 2.53l2.42-2.42s.3-.25.1-.25H4.64v-.01Zm9.51-11.86 4.28-1.22c.12-.03.18-.16.14-.27-.27-.65-.66-1.26-1.19-1.78a5.378 5.378 0 0 0-2.51-1.42.205.205 0 0 0-.25.18l-.47 4.53v-.02Z"/></svg>