<svg xmlns="http://www.w3.org/2000/svg" width="24" height="24" fill="none"><path fill="currentColor" d="M11.5 6.76v10.48c0 .12-.11.22-.23.2-.59-.07-1.14-.24-1.66-.5-.07-.03-.11-.11-.11-.19V7.23c0-.08.04-.15.11-.19.51-.25 1.07-.42 1.66-.5.12-.02.23.08.23.2zm2.89.29c-.51-.25-1.07-.42-1.66-.5a.203.203 0 0 0-.23.2v10.48c0 .12.11.22.23.2.59-.07 1.14-.24 1.66-.5.07-.03.11-.11.11-.19V7.22c0-.08-.04-.15-.11-.19zM8.5 15.98V8.16c0-.28-.15-.27-.22-.21a5.478 5.478 0 0 0-1.09 6.7c-1.31-.38-2.61.03-3.61.56-.84.45-.75 1.65.16 1.95l.06.02c.45.15.74.55.74 1.01 0 .58.49 1.06 1.09 1.06.46 0 .88.29 1.02.72l.11.3c.28.83 1.39.99 1.91.28.7-.95 1.1-2.12.61-3.78zm11.76-9.14-.06-.02a1.06 1.06 0 0 1-.74-1.01c0-.58-.49-1.06-1.09-1.06-.46 0-.88-.29-1.02-.72l-.11-.3c-.28-.83-1.39-.99-1.91-.28-.7.95-1.1 2.12-.61 3.78l.78.79v7.83c0 .26.18.24.27.16 1.06-1 1.73-2.42 1.73-4 0-.96-.25-1.86-.69-2.65 1.31.38 2.61-.03 3.61-.56.84-.45.75-1.65-.16-1.95z"/></svg>