<svg xmlns="http://www.w3.org/2000/svg" width="24" height="24" fill="none"><path fill="currentColor" d="M16.27 9.63c.9 1.72.65 3.9-.8 5.35-.9.91-1.79 1.69-2.68 2.39-.12.09-.29.08-.4-.03l-2.87-2.87a.754.754 0 0 0-1.06 0c-.29.29-.29.77 0 1.06l2.61 2.61c.14.14.11.37-.05.47-2.06 1.29-4.23 2.11-6.81 2.61-.08.02-.16.02-.24.02-.32 0-.64-.13-.87-.36-.29-.29-.42-.7-.34-1.11.24-1.21.55-2.33.95-3.4a.3.3 0 0 1 .5-.1l1.25 1.25c.15.15.34.22.53.22s.38-.07.53-.22c.29-.29.29-.77 0-1.06l-1.83-1.83a.319.319 0 0 1-.06-.36c.85-1.64 1.96-3.18 3.4-4.73.12-.13.32-.13.44-.01l1.99 1.99c.15.15.34.22.53.22s.38-.07.53-.22c.29-.29.29-.77 0-1.06L9.56 8.5a.305.305 0 0 1 .03-.46c1.41-1 3.26-1.11 4.77-.32-.9-1.45 0-3.83.91-4.73.98.98 1.95 3.66.66 5.05 1.39-1.28 4.08-.31 5.05.66-.9.9-3.28 1.81-4.73.91z"/></svg>