<svg xmlns="http://www.w3.org/2000/svg" width="24" height="24" fill="none"><path fill="currentColor" d="M20.75 21c0 .41-.34.75-.75.75h-5.25c-.41 0-.75-.34-.75-.75v-4c0-1.1-.9-2-2-2s-2 .9-2 2v4c0 .41-.34.75-.75.75H4c-.41 0-.75-.34-.75-.75s.34-.75.75-.75h1.07l.57-6.3.195-2.177a.3.3 0 0 1 .299-.273h11.731a.3.3 0 0 1 .299.273l.195 2.177.57 6.3h1.07c.411 0 .751.34.751.75ZM6 10h12a2 2 0 0 0 2-2V3.5a.5.5 0 0 0-.5-.5h-2a.5.5 0 0 0-.5.5V5a1.5 1.5 0 0 1-3 0V3.5a.5.5 0 0 0-.5-.5h-3a.5.5 0 0 0-.5.5V5a1.5 1.5 0 0 1-3 0V3.5a.5.5 0 0 0-.5-.5h-2a.5.5 0 0 0-.5.5V8a2 2 0 0 0 2 2Z"/></svg>