<svg xmlns="http://www.w3.org/2000/svg" width="24" height="24" fill="none"><path fill="currentColor" fill-rule="evenodd" d="M12.68 15.4c-1.12-1.14-1.13-2.98-.01-4.12.02-.73.28-1.41.76-1.94.55-.62 1.34-.98 2.18-1a2.92 2.92 0 0 1 2.06-.84c.77 0 1.5.3 2.05.84.089.089.28.068.28-.109V6c0-2-1-3-3-3H5C3 3 2 4 2 6v8c0 2 1 3 3 3h7.672c.212 0 .365-.218.275-.411a2.813 2.813 0 0 1-.267-1.189ZM6 7.25h6a.75.75 0 0 1 0 1.5H6a.75.75 0 0 1 0-1.5Zm3 5.5H6a.75.75 0 0 1 0-1.5h3a.75.75 0 0 1 0 1.5Zm12.576-.438c-.37-.319-.458-.538-.424-1.022.007-.934-.851-1.554-1.743-1.444-.3.017-.535-.221-.723-.424a1.444 1.444 0 0 0-2.042 0c-.188.206-.423.439-.723.424-1.062-.121-1.865.679-1.742 1.742.017.3-.221.535-.424.723a1.444 1.444 0 0 0 0 2.042c.369.319.458.538.424 1.022a1.44 1.44 0 0 0 1.348 1.434l-.001.003-1.193 4.187 1.847-.74a4.02 4.02 0 0 1 2.973 0L21 21l-1.194-4.19a1.44 1.44 0 0 0 1.347-1.434c-.013-.278-.011-.609.211-.81.708-.552.88-1.597.212-2.254ZM17.667 15a1.667 1.667 0 1 1 0-3.333 1.667 1.667 0 0 1 0 3.333Z" clip-rule="evenodd"/></svg>