<svg xmlns="http://www.w3.org/2000/svg" width="24" height="24" fill="none"><path fill="currentColor" d="M21 21H4.5C2.958 21 2 20.042 2 18.5V4a1 1 0 0 1 2 0v14.5c0 .449.051.5.5.5H21a1 1 0 0 1 0 2m-.077-6.617A.993.993 0 0 0 21 14v-3.001a1 1 0 0 0-2 0v.58l-3.565-3.578a2.003 2.003 0 0 0-2.826-.008l-1.606 1.595-3.295-3.295a.999.999 0 1 0-1.414 1.414l3.295 3.295a2.003 2.003 0 0 0 2.823.005l1.606-1.594L17.592 13H17a1 1 0 0 0 0 2h3c.13 0 .26-.027.382-.077.101-.042.187-.107.268-.177.017-.015.039-.021.056-.037l.001-.001a1.02 1.02 0 0 0 .216-.325"/></svg>