<svg xmlns="http://www.w3.org/2000/svg" width="24" height="24" fill="none"><path fill="currentColor" d="M21 21H4.5C2.958 21 2 20.042 2 18.5V4a1 1 0 0 1 2 0v14.5c0 .449.051.5.5.5H21a1 1 0 0 1 0 2m-.077-14.383a1.005 1.005 0 0 0-.216-.324l-.001-.001c-.015-.015-.035-.02-.05-.033a.958.958 0 0 0-.275-.181.996.996 0 0 0-.34-.069c-.015 0-.027-.008-.042-.008H17a1 1 0 0 0 0 2h.592l-3.574 3.587-1.605-1.595a2.004 2.004 0 0 0-2.824.005l-3.295 3.295a.999.999 0 1 0 1.414 1.414l3.295-3.295 1.606 1.595a2.003 2.003 0 0 0 2.826-.008L19 9.421V10a1 1 0 0 0 2 0V6.999c0-.13-.027-.26-.077-.382"/></svg>