<svg xmlns="http://www.w3.org/2000/svg" width="24" height="24" fill="none"><path fill="currentColor" d="M12.001 3a9 9 0 0 0-8.999 8.999c0 1.34.3 2.62.83 3.759.21.44.21.95.06 1.42l-.84 2.5c-.26.78.49 1.53 1.27 1.27l2.5-.84c.47-.15.98-.15 1.42.06 1.14.53 2.42.83 3.76.83A8.999 8.999 0 1 0 12.001 3m.019 13.5a1.005 1.005 0 0 1-1.005-1c0-.552.443-1 .995-1h.01a1 1 0 1 1 0 2m1.325-3.949c-.556.369-.632.557-.635.564a.767.767 0 0 1-.713.496.722.722 0 0 1-.245-.042.739.739 0 0 1-.463-.934c.203-.601.797-1.049 1.226-1.333.636-.422.643-.851.593-1.137a1.139 1.139 0 0 0-.897-.896 1.123 1.123 0 0 0-1.335 1.106.75.75 0 0 1-1.5 0c0-.778.342-1.51.938-2.011.596-.5 1.38-.709 2.157-.573a2.645 2.645 0 0 1 2.114 2.114c.184 1.052-.256 1.992-1.24 2.646"/></svg>