<svg xmlns="http://www.w3.org/2000/svg" width="24" height="24" fill="none"><path fill="currentColor" d="M12.001 3a9 9 0 0 0-8.999 8.999c0 1.34.3 2.62.83 3.759.21.44.21.95.06 1.42l-.84 2.5c-.26.78.49 1.53 1.27 1.27l2.5-.84c.47-.15.98-.15 1.42.06 1.14.53 2.42.83 3.76.83A8.999 8.999 0 1 0 12.001 3M15.5 14.875c0 1-.5 1.5-1.5 1.5h-4c-1 0-1.5-.5-1.5-1.5v-2.25c0-.81.345-1.274 1-1.429V9.75c0-1.378 1.121-2.5 2.5-2.5s2.5 1.122 2.5 2.5v1.446c.655.154 1 .619 1 1.429zM13 9.75v1.375h-2V9.75a1 1 0 0 1 2 0"/></svg>