<svg xmlns="http://www.w3.org/2000/svg" width="24" height="24" fill="none"><path fill="currentColor" d="M13.583 11.417a2.17 2.17 0 0 1-2.166 2.167 2.17 2.17 0 0 1-2.167-2.167 2.17 2.17 0 0 1 2.167-2.167 2.17 2.17 0 0 1 2.166 2.167m7.417.582a8.999 8.999 0 0 1-8.999 8.999c-1.34 0-2.62-.3-3.76-.83-.44-.21-.95-.21-1.42-.06l-2.5.84c-.78.26-1.53-.49-1.27-1.27l.84-2.5c.15-.47.15-.98-.06-1.42a8.917 8.917 0 0 1-.83-3.759 9 9 0 0 1 17.999 0m-4.97 2.971-1.55-1.549a3.645 3.645 0 0 0 .603-2.003 3.671 3.671 0 0 0-3.666-3.667 3.671 3.671 0 0 0-3.667 3.667 3.671 3.671 0 0 0 3.667 3.667c.74 0 1.426-.224 2.003-.602l1.55 1.549a.748.748 0 0 0 1.06 0 .751.751 0 0 0 0-1.062"/></svg>