<svg xmlns="http://www.w3.org/2000/svg" width="24" height="24" fill="none"><path fill="currentColor" d="m19.97 20.96-1.94-.65c-.37-.12-.76-.12-1.11.04-.88.41-1.88.65-2.92.65a6.966 6.966 0 0 1-4.925-2.031c-.19-.189-.028-.518.229-.497 5.166.469 9.64-4.006 9.166-9.172-.048-.286.301-.454.58-.13 1.933 1.891 2.533 5.274 1.3 7.75-.42.74.44 2.322.61 3.05.2.61-.38 1.19-.99.99M10 16.998a6.922 6.922 0 0 1-2.923-.646c-.342-.163-.74-.163-1.104-.047l-1.944.653a.784.784 0 0 1-.988-.988l.653-1.944c.117-.365.117-.762-.047-1.104A6.94 6.94 0 0 1 3 9.998a7 7 0 1 1 7 7M6.25 8.5c0 .414.336.75.75.75h6a.75.75 0 0 0 0-1.5H7a.75.75 0 0 0-.75.75M10 12.25a.75.75 0 0 0 0-1.5H7a.75.75 0 0 0 0 1.5z"/></svg>