<svg xmlns="http://www.w3.org/2000/svg" width="24" height="24" fill="none"><path fill="currentColor" d="M13.02 12a1 1 0 0 1-1 1 1.005 1.005 0 0 1-1.005-1c0-.552.443-1 .995-1h.01a1 1 0 0 1 1 1m7.98-.001a8.999 8.999 0 0 1-8.999 8.999c-1.34 0-2.62-.3-3.76-.83-.44-.21-.95-.21-1.42-.06l-2.5.84c-.78.26-1.53-.49-1.27-1.27l.84-2.5c.15-.47.15-.98-.06-1.42a8.917 8.917 0 0 1-.83-3.759 9 9 0 0 1 17.999 0m-5.82.003c0-.477.262-.919.688-1.158l.132-.075-.917-1.538-.131.074a1.41 1.41 0 0 1-1.379-.002 1.327 1.327 0 0 1-.685-1.154.151.151 0 0 0-.154-.149h-1.525a.152.152 0 0 0-.154.149c0 .475-.26.915-.684 1.154-.426.24-.952.241-1.379.002a.153.153 0 0 0-.207.054l-.765 1.284a.145.145 0 0 0 .055.201l.002.001c.424.239.685.677.686 1.152.001.478-.26.92-.686 1.16l-.002.001a.145.145 0 0 0-.055.202l.764 1.282a.154.154 0 0 0 .208.054 1.412 1.412 0 0 1 1.378.002c.424.239.684.679.684 1.154 0 .082.069.149.154.149h1.527a.152.152 0 0 0 .154-.149c0-.475.261-.915.685-1.154.426-.24.952-.241 1.379-.002a.153.153 0 0 0 .207-.054l.765-1.284a.145.145 0 0 0-.055-.201l-.001-.001a1.328 1.328 0 0 1-.688-1.154Z"/></svg>