<svg xmlns="http://www.w3.org/2000/svg" width="24" height="24" fill="none"><path fill="currentColor" d="M20.301 8.531c.642 1.518.875 3.256.56 5.075-.557 3.211-2.902 5.923-6 6.934-2.349.767-4.686.529-6.62-.37-.44-.21-.95-.21-1.42-.06l-2.5.84a1.003 1.003 0 0 1-1.27-1.27l.84-2.5c.15-.47.15-.98-.06-1.42-.9-1.935-1.137-4.274-.368-6.625 1.012-3.097 3.725-5.44 6.936-5.996 1.818-.314 3.554-.082 5.072.56.143.061.204.221.16.37a3.316 3.316 0 0 0-.125 1.102c.077 1.763 1.56 3.247 3.323 3.325.386.017.756-.022 1.104-.125a.298.298 0 0 1 .368.16M19 7a2 2 0 1 0 0-4 2 2 0 0 0 0 4"/></svg>