<svg xmlns="http://www.w3.org/2000/svg" width="24" height="24" fill="none"><path fill="currentColor" d="M17.735 5.057a.21.21 0 0 0-.235.204v.238c0 1.82-1.18 3-3 3h-5c-1.82 0-3-1.18-3-3v-.238a.21.21 0 0 0-.235-.204C4.752 5.277 4 6.258 4 8v10c0 2 1 3 3 3h10c2 0 3-1 3-3V8c0-1.742-.752-2.723-2.265-2.943M10.03 15.864l-1.333 1.333a.749.749 0 0 1-1.06.001l-.667-.667a.75.75 0 1 1 1.061-1.061l.137.137.803-.803a.75.75 0 1 1 1.059 1.06m0-4-1.333 1.333a.749.749 0 0 1-1.06.001l-.667-.667a.75.75 0 1 1 1.061-1.061l.137.137.803-.803a.75.75 0 1 1 1.059 1.06m6.47 4.886h-4a.75.75 0 0 1 0-1.5h4a.75.75 0 0 1 0 1.5m0-4h-4a.75.75 0 0 1 0-1.5h4a.75.75 0 0 1 0 1.5M8 5.5v-1C8 3.5 8.5 3 9.5 3h5c1 0 1.5.5 1.5 1.5v1c0 1-.5 1.5-1.5 1.5h-5C8.5 7 8 6.5 8 5.5"/></svg>