<svg xmlns="http://www.w3.org/2000/svg" width="24" height="24" fill="none"><path fill="currentColor" d="M13.583 12.917a2.17 2.17 0 0 1-2.166 2.167 2.17 2.17 0 0 1-2.167-2.167 2.17 2.17 0 0 1 2.167-2.167 2.17 2.17 0 0 1 2.166 2.167M9.5 7h5c1 0 1.5-.5 1.5-1.5v-1c0-1-.5-1.5-1.5-1.5h-5C8.5 3 8 3.5 8 4.5v1C8 6.5 8.5 7 9.5 7M20 8v10c0 2-1 3-3 3H7c-2 0-3-1-3-3V8c0-1.742.752-2.723 2.265-2.943a.21.21 0 0 1 .235.204v.238c0 1.82 1.18 3 3 3h5c1.82 0 3-1.18 3-3v-.238a.21.21 0 0 1 .235-.204C19.248 5.277 20 6.258 20 8m-3.97 8.47-1.55-1.549a3.645 3.645 0 0 0 .603-2.003 3.67 3.67 0 0 0-3.666-3.667 3.671 3.671 0 0 0-3.667 3.667 3.671 3.671 0 0 0 3.667 3.667c.74 0 1.426-.224 2.003-.602l1.55 1.549a.748.748 0 0 0 1.06 0 .751.751 0 0 0 0-1.062"/></svg>