<svg xmlns="http://www.w3.org/2000/svg" width="24" height="24" fill="none"><path fill="currentColor" d="M8 5.5v-1C8 3.5 8.5 3 9.5 3h5c1 0 1.5.5 1.5 1.5v1c0 1-.5 1.5-1.5 1.5h-5C8.5 7 8 6.5 8 5.5M20 8v10c0 2-1 3-3 3H7c-2 0-3-1-3-3V8c0-1.742.752-2.723 2.265-2.943a.21.21 0 0 1 .235.204v.238c0 1.82 1.18 3 3 3h5c1.82 0 3-1.18 3-3v-.238a.21.21 0 0 1 .235-.204C19.248 5.277 20 6.258 20 8m-6.453 2.5C12.39 10.494 12 11.643 12 11.643s-.39-1.148-1.547-1.143c-1.555.007-2.167 1.435-1.887 2.854C9.022 15.668 12 17 12 17s2.978-1.332 3.434-3.646c.28-1.419-.329-2.847-1.887-2.854"/></svg>