<svg xmlns="http://www.w3.org/2000/svg" width="24" height="24" fill="none"><path fill="currentColor" d="M22 13c0 2.76-2.24 5-5 5h-6.7a.294.294 0 0 1-.3-.3v-2.13c0-1.02-.36-1.85-1-2.38v-.44a3.999 3.999 0 0 0-3.895-3.999c-.27-.002-.352-.275-.255-.455A6.46 6.46 0 0 1 10.5 5c1.65 0 3.15.61 4.29 1.62.48.43.9.92 1.24 1.47.32-.06.64-.09.97-.09a5.002 5.002 0 0 1 5 5M8.5 15.571v2.357c0 1.047-.5 1.571-1.5 1.571H3c-1 0-1.5-.524-1.5-1.571v-2.357c0-.848.345-1.335 1-1.497v-1.325c0-1.378 1.121-2.5 2.5-2.5s2.5 1.122 2.5 2.5v1.325c.655.162 1 .649 1 1.497M6 12.75a1 1 0 0 0-2 0V14h2z"/></svg>