<svg xmlns="http://www.w3.org/2000/svg" width="24" height="24" fill="none"><path fill="currentColor" d="M22 13c0 2.76-2.24 5-5 5h-4.699c-.2 0-.301-.163-.301-.33 0-1.09-.52-2.06-1.34-2.67.82-.61 1.34-1.58 1.34-2.67C12 10.5 10.5 9 8.67 9c-1.4 0-2.62.89-3.11 2.15l-1.3.65c-.209.096-.26-.131-.26-.3A6.5 6.5 0 0 1 10.5 5c1.65 0 3.15.61 4.29 1.62.48.43.9.92 1.24 1.47.32-.06.64-.09.97-.09 2.76 0 5 2.24 5 5M8.667 14.167a1.835 1.835 0 0 0 1.833-1.833 1.835 1.835 0 0 0-1.833-1.833 1.83 1.83 0 0 0-1.818 1.68l-2.544 1.272a1.815 1.815 0 0 0-.972-.285A1.835 1.835 0 0 0 1.5 15.001c0 1.01.822 1.833 1.833 1.833.358 0 .689-.107.972-.285l2.544 1.272a1.83 1.83 0 0 0 1.818 1.68 1.835 1.835 0 0 0 1.833-1.833 1.835 1.835 0 0 0-1.833-1.833c-.517 0-.982.217-1.316.562l-2.213-1.106c.015-.094.029-.19.029-.288 0-.098-.014-.194-.03-.288l2.214-1.106c.334.341.799.558 1.316.558"/></svg>