<svg xmlns="http://www.w3.org/2000/svg" width="24" height="24" fill="none"><path fill="currentColor" d="M12 2C6.48 2 2 6.48 2 12s4.48 10 10 10 10-4.48 10-10S17.52 2 12 2M9.75 13.69c.3.29.3.77 0 1.06-.14.15-.34.22-.53.22s-.38-.07-.53-.22l-2.22-2.22a.754.754 0 0 1 0-1.06l2.22-2.22c.29-.3.77-.3 1.06 0 .3.29.3.77 0 1.06L8.06 12zm3.98-5.51-2 8c-.09.34-.39.57-.73.57-.06 0-.12-.01-.18-.02-.4-.1-.65-.51-.55-.91l2-8c.1-.4.51-.65.91-.55.4.1.65.51.55.91m3.8 4.35-2.22 2.22c-.15.15-.34.22-.53.22s-.39-.07-.53-.22c-.3-.29-.3-.77 0-1.06L15.94 12l-1.69-1.69c-.3-.29-.3-.77 0-1.06.29-.3.77-.3 1.06 0l2.22 2.22c.29.29.29.77 0 1.06"/></svg>