<svg xmlns="http://www.w3.org/2000/svg" width="24" height="24" fill="none"><path fill="currentColor" d="M4.1 17.94C2.05 14.72 2.92 9.85 6.38 6.39c3.42-3.42 8.21-4.31 11.43-2.37.35.61.5 1.12.52 1.19.21.67.11 1.37-.29 2.1-.95 1.7-3.45 3.3-6.2 3.98-3.2.79-6.01 2.63-7.16 4.7-.36.65-.54 1.31-.56 1.96zM19.91 6.09c-.03.65-.21 1.31-.57 1.95-1.16 2.07-3.97 3.92-7.15 4.7-2.77.69-5.27 2.28-6.21 3.97-.4.72-.5 1.43-.28 2.1.02.07.16.58.51 1.18 3.22 1.94 8 1.04 11.42-2.38 3.46-3.46 4.33-8.32 2.3-11.53z"/></svg>