<svg xmlns="http://www.w3.org/2000/svg" width="24" height="24" fill="none"><path fill="currentColor" d="M3.001 11.8a.75.75 0 0 1-.746-.831A9.632 9.632 0 0 1 7.61 3.327a.75.75 0 0 1 1.081.674v3.05a.75.75 0 0 1-1.5 0v-1.74a8.136 8.136 0 0 0-3.445 5.822.751.751 0 0 1-.745.667m13.389 8.873a9.63 9.63 0 0 0 5.355-7.642.749.749 0 1 0-1.49-.163 8.141 8.141 0 0 1-3.445 5.823V16.95a.75.75 0 0 0-1.5 0V20a.75.75 0 0 0 1.08.673M12 7a4 4 0 1 0 8 0 4 4 0 0 0-8 0m-.5 7h-6c-1 0-1.5.5-1.5 1.5v.25h9v-.25c0-1-.5-1.5-1.5-1.5M4 17.25v2.25c0 1 .5 1.5 1.5 1.5h6c1 0 1.5-.5 1.5-1.5v-2.25zm3.5 2.25H6c-.28 0-.5-.22-.5-.5s.22-.5.5-.5h1.5c.28 0 .5.22.5.5s-.22.5-.5.5"/></svg>