<svg xmlns="http://www.w3.org/2000/svg" width="24" height="24" fill="none"><path fill="currentColor" d="M12 4c-4.97 0-9 3-9 8.001 0 2.12.73 3.89 1.95 5.21-.15.96-.69 2.061-1.78 2.941-.33.28-.14.83.29.84 1.42.05 3.61-.14 4.95-1.57 1.1.38 2.31.58 3.59.58 4.97 0 9-3 9-8.001C21 7 16.97 4 12 4m4.53 6.93-2.235 2.235a1.538 1.538 0 0 1-1.095.454h-.001c-.413 0-.802-.161-1.094-.452l-1.271-1.27L8.53 14.13a.749.749 0 0 1-1.06 0 .75.75 0 0 1 0-1.06l2.232-2.233a1.553 1.553 0 0 1 2.191 0l1.271 1.268L15.47 9.87a.75.75 0 1 1 1.06 1.06"/></svg>