<svg xmlns="http://www.w3.org/2000/svg" width="24" height="24" fill="none"><path fill="currentColor" d="M20.879 20.394c.24.2.1.6-.21.6-1.03.04-2.61-.1-3.58-1.13-.79.28-1.67.42-2.59.42-2.018 0-3.813-.677-5-1.916-.189-.198-.141-.583.292-.549.233.016.468.025.708.025 4.62 0 8.115-2.701 8.854-6.609.05-.262.376-.349.54-.138.7.906 1.105 2.051 1.105 3.406 0 1.53-.53 2.811-1.41 3.761.11.7.5 1.49 1.29 2.13ZM17.998 9.671c0 4.169-3.358 6.671-7.499 6.671a9.402 9.402 0 0 1-2.29-.275 8.892 8.892 0 0 1-.702-.208c-1.117 1.192-2.94 1.351-4.125 1.309-.358-.008-.517-.467-.242-.7.908-.734 1.358-1.651 1.483-2.452-1.017-1.101-1.625-2.577-1.625-4.344 0-4.169 3.358-6.671 7.5-6.671 4.094 0 7.417 2.449 7.491 6.535.003.045.009.088.009.135m-5.915 1.662a.75.75 0 0 0-.75-.75H7.167a.75.75 0 0 0 0 1.5h4.166a.75.75 0 0 0 .75-.75M14.583 8a.75.75 0 0 0-.75-.75H7.167a.75.75 0 0 0 0 1.5h6.666a.75.75 0 0 0 .75-.75"/></svg>