<svg xmlns="http://www.w3.org/2000/svg" width="24" height="24" fill="none"><path fill="currentColor" d="M21 12.001c0 .341-.02.666-.053.984a.303.303 0 0 1-.373.267 5.114 5.114 0 0 0-2.443-.178c-2.372.391-4.138 2.542-4.131 4.946.002.494.073.968.209 1.419.052.174-.045.358-.224.391-.639.116-1.305.174-1.986.174-1.28 0-2.49-.2-3.59-.58-1.34 1.43-3.53 1.62-4.95 1.57-.43-.01-.62-.56-.29-.84 1.09-.88 1.63-1.98 1.78-2.941-1.22-1.32-1.95-3.09-1.95-5.211 0-5.001 4.03-8.001 9-8.001S21 7 21 12.001m.75 5.499a.75.75 0 0 0-.75-.75h-5a.75.75 0 0 0 0 1.5h5a.75.75 0 0 0 .75-.75"/></svg>