<svg xmlns="http://www.w3.org/2000/svg" width="24" height="24" fill="none"><path fill="currentColor" d="M13.02 12a1 1 0 0 1-1 1 1.005 1.005 0 0 1-1.005-1c0-.552.443-1 .995-1h.01a1 1 0 0 1 1 1m7.98.001c0 5.001-4.03 8.001-9 8.001-1.28 0-2.49-.2-3.59-.58-1.34 1.43-3.53 1.62-4.95 1.57-.43-.01-.62-.56-.29-.84 1.09-.88 1.63-1.98 1.78-2.94C3.73 15.892 3 14.121 3 12.001 3 7 7.03 4 12 4s9 3 9 8.001m-5.82.001c0-.477.262-.919.688-1.158l.132-.075-.917-1.538-.131.074a1.41 1.41 0 0 1-1.379-.002 1.327 1.327 0 0 1-.685-1.154.151.151 0 0 0-.154-.149h-1.525a.152.152 0 0 0-.154.15c0 .474-.26.914-.684 1.153-.426.24-.952.241-1.38.002a.153.153 0 0 0-.206.054l-.765 1.283a.145.145 0 0 0 .055.201l.002.001c.424.239.685.677.686 1.152 0 .478-.26.92-.686 1.16l-.002.001a.145.145 0 0 0-.055.202l.764 1.282a.154.154 0 0 0 .208.054 1.409 1.409 0 0 1 1.378.002c.424.239.684.679.684 1.154 0 .082.069.149.154.149h1.527a.152.152 0 0 0 .154-.149c0-.475.261-.915.685-1.154.426-.24.952-.241 1.379-.002a.153.153 0 0 0 .207-.054l.765-1.283a.145.145 0 0 0-.055-.201l-.001-.001a1.328 1.328 0 0 1-.688-1.154Z"/></svg>