<svg xmlns="http://www.w3.org/2000/svg" width="24" height="24" fill="none"><path fill="currentColor" d="M12 4c-4.97 0-9 3-9 8.001 0 2.12.73 3.89 1.95 5.21-.15.96-.69 2.061-1.78 2.941-.33.28-.14.83.29.84 1.42.05 3.61-.14 4.95-1.57 1.1.38 2.31.58 3.59.58 4.97 0 9-3 9-8.001C21 7 16.97 4 12 4m.02 12.5a1.005 1.005 0 0 1-1.005-1c0-.552.443-1 .995-1h.01a1 1 0 1 1 0 2m1.326-3.949c-.557.369-.633.557-.636.564a.767.767 0 0 1-.713.496.724.724 0 0 1-.245-.043.739.739 0 0 1-.463-.934c.203-.601.797-1.049 1.226-1.333.636-.423.643-.852.593-1.137a1.126 1.126 0 0 0-2.232.21.75.75 0 0 1-1.5 0 2.628 2.628 0 0 1 3.095-2.584 2.645 2.645 0 0 1 2.114 2.114c.184 1.053-.256 1.992-1.24 2.647Z"/></svg>