<svg xmlns="http://www.w3.org/2000/svg" width="24" height="24" fill="none"><path fill="currentColor" d="M12 4c-4.97 0-9 3-9 8.001 0 2.12.73 3.891 1.95 5.211-.15.96-.69 2.06-1.78 2.94-.33.28-.14.83.29.84 1.42.05 3.61-.14 4.95-1.57 1.1.38 2.31.58 3.59.58 4.97 0 9-3.001 9-8.001C21 7 16.97 4 12 4m3.5 10.875c0 1-.5 1.5-1.5 1.5h-4c-1 0-1.5-.5-1.5-1.5v-2.25c0-.81.345-1.274 1-1.429V9.75c0-1.378 1.121-2.5 2.5-2.5s2.5 1.122 2.5 2.5v1.446c.655.154 1 .619 1 1.429zM13 9.75v1.375h-2V9.75a1.001 1.001 0 0 1 2 0"/></svg>