<svg xmlns="http://www.w3.org/2000/svg" width="24" height="24" fill="none"><path fill="currentColor" d="M17.625 3H6.375C4.125 3 3 4.125 3 6.375v11.25C3 19.875 4.125 21 6.375 21h11.25C19.875 21 21 19.875 21 17.625V6.375C21 4.125 19.875 3 17.625 3M12.14 14.75c.895 0 1.733-.44 2.243-1.177a.75.75 0 0 1 1.234.853 4.232 4.232 0 0 1-3.478 1.823 4.255 4.255 0 0 1-4.25-4.25 4.255 4.255 0 0 1 4.25-4.25c1.387 0 2.687.682 3.478 1.823a.75.75 0 0 1-1.234.853 2.73 2.73 0 0 0-2.243-1.177 2.752 2.752 0 0 0-2.75 2.75 2.754 2.754 0 0 0 2.75 2.752"/></svg>