<svg xmlns="http://www.w3.org/2000/svg" width="24" height="24" fill="none"><path fill="currentColor" d="M21 10V7c0-2-1-3-3-3H6C4 4 3 5 3 7v3c1.1 0 2 .9 2 2s-.9 2-2 2v3c0 2 1 3 3 3h12c2 0 3-1 3-3v-3c-1.1 0-2-.9-2-2s.9-2 2-2m-4.894 1.488-1.53 1.48a.466.466 0 0 0-.136.417l.35 2.025a.506.506 0 0 1-.734.531l-1.836-.958a.475.475 0 0 0-.44 0l-1.835.957a.506.506 0 0 1-.735-.531l.35-2.024a.472.472 0 0 0-.136-.417l-1.53-1.48a.47.47 0 0 1 .262-.802l2.117-.305a.472.472 0 0 0 .356-.257l.917-1.843a.508.508 0 0 1 .909 0l.917 1.843a.472.472 0 0 0 .356.257l2.117.305a.47.47 0 0 1 .261.802"/></svg>