<svg xmlns="http://www.w3.org/2000/svg" width="24" height="24" fill="none"><path fill="currentColor" d="M2 9.75V15c0 2 1 3 3 3h7.23c.17 0 .31-.14.31-.31A5.51 5.51 0 0 1 18 11.5c.55 0 1.07.08 1.57.23.04.01.08.02.12.02.17 0 .31-.13.31-.3v-1.7zm7 5H6c-.41 0-.75-.34-.75-.75s.34-.75.75-.75h3c.41 0 .75.34.75.75s-.34.75-.75.75M18 13c-2.21 0-4 1.79-4 4s1.79 4 4 4 4-1.79 4-4-1.79-4-4-4m1.6 3.52-1.66 1.67a.524.524 0 0 1-.71 0l-.83-.84c-.2-.19-.2-.51 0-.7.19-.2.51-.2.7 0l.48.48 1.32-1.32c.19-.19.51-.19.7 0 .2.2.2.51 0 .71M17 4H5C3 4 2 5 2 7v1.25h18V7c0-2-1-3-3-3"/></svg>