<svg xmlns="http://www.w3.org/2000/svg" width="24" height="24" fill="none"><path fill="currentColor" d="M17 4H5C3 4 2 5 2 7v1.25h18V7c0-2-1-3-3-3ZM2 9.75V15c0 2 1 3 3 3h6.58c.2 0 .33-.18.29-.37-.06-.28-.1-.57-.11-.87-.13-2.62 1.63-5.08 4.16-5.79 1.29-.36 2.56-.26 3.66.18.2.08.42-.05.42-.27V9.75H2Zm7 5H6c-.41 0-.75-.34-.75-.75s.34-.75.75-.75h3c.41 0 .75.34.75.75s-.34.75-.75.75Zm8.5-2.5a4.26 4.26 0 0 0-4.25 4.25 4.26 4.26 0 0 0 4.25 4.25 4.26 4.26 0 0 0 4.25-4.25 4.26 4.26 0 0 0-4.25-4.25Zm-2.75 4.25c0-1.52 1.23-2.75 2.75-2.75.49 0 .93.14 1.33.36l-3.72 3.72c-.22-.4-.36-.84-.36-1.33Zm2.75 2.75c-.49 0-.93-.14-1.33-.36l3.72-3.72c.22.4.36.84.36 1.33 0 1.52-1.23 2.75-2.75 2.75Z"/></svg>