<svg xmlns="http://www.w3.org/2000/svg" width="24" height="24" fill="none"><path fill="currentColor" d="M21 10.5c0 .39-.02.77-.07 1.15-.03-.03-.05-.04-.08-.06l-4.51-2.83a3.19 3.19 0 0 0-.75-.35 10.335 10.335 0 0 0 .36-3.91c-.12-1.29 1.44-2.02 2.32-1.06C19.96 5.3 21 7.78 21 10.5ZM8.76 16.34a3.19 3.19 0 0 1-.35-.75 10.335 10.335 0 0 1-3.91.36c-1.29-.12-2.02 1.44-1.06 2.32C5.3 19.96 7.78 21 10.5 21c.39 0 .77-.02 1.15-.07-.03-.02-.04-.05-.06-.08l-2.83-4.51Zm11.84-2.98c-.14-.2-.32-.37-.54-.5l-4.52-2.83c-.15-.09-.31-.16-.48-.21a1.959 1.959 0 0 0-1.99.5l-2.75 2.75c-.53.53-.71 1.3-.51 1.99.05.17.13.33.22.48l2.83 4.52c.13.22.3.4.49.54.35.27.78.4 1.2.4.5 0 1.01-.19 1.41-.59l4.44-4.44a2 2 0 0 0 .19-2.61h.01Z"/></svg>