<svg xmlns="http://www.w3.org/2000/svg" width="24" height="24" fill="none"><path fill="currentColor" d="M16 4.5c0 .83-.67 1.5-1.5 1.5S13 5.33 13 4.5 13.67 3 14.5 3s1.5.67 1.5 1.5ZM12.75 18v-3.07c0-.86-.48-1.63-1.24-2.01l-1.31-.65a.713.713 0 0 1-.4-.55c-.03-.24.04-.48.21-.65l1.47-1.47c.29-.29.77-.29 1.06 0l1.5 1.5c.42.42 1 .66 1.59.66h1.38c.41 0 .75-.34.75-.75s-.34-.75-.75-.75h-1.38a.75.75 0 0 1-.53-.22l-1.5-1.5c-.88-.88-2.3-.88-3.18 0l-1.47 1.47c-.52.52-.75 1.23-.63 1.95s.56 1.32 1.21 1.65l1.31.65c.26.13.41.38.41.67V18c0 .41.34.75.75.75s.75-.34.75-.75ZM15 18c0 1.66 1.34 3 3 3s3-1.34 3-3-1.34-3-3-3-3 1.34-3 3ZM3 18c0 1.66 1.34 3 3 3s3-1.34 3-3-1.34-3-3-3-3 1.34-3 3Z"/></svg>