<svg xmlns="http://www.w3.org/2000/svg" width="24" height="24" fill="none"><path fill="currentColor" d="M21.738 16.65a.75.75 0 0 1-.608.869l-10.67 1.878A2.498 2.498 0 0 1 8 21.5 2.503 2.503 0 0 1 5.5 19c0-1.117.741-2.054 1.753-2.374L5.171 4.78a1.258 1.258 0 0 0-1.453-1.012l-.594.101a.75.75 0 1 1-.25-1.479l.59-.1a2.762 2.762 0 0 1 3.184 2.229l2.129 12.116c.644.212 1.17.674 1.464 1.276L20.87 16.04a.75.75 0 0 1 .868.61M9.572 9.088c-.363-2.059.435-3.199 2.494-3.562l3.634-.641c2.059-.363 3.199.435 3.562 2.494l.641 3.634c.363 2.059-.435 3.199-2.494 3.562l-3.634.641c-2.059.363-3.199-.435-3.562-2.494zm3.342 2.329 1.729 1.218c.033.023.07.035.105.052.03.014.055.032.086.042.075.026.152.04.23.041l.01.002a.734.734 0 0 0 .131-.012c.047-.009.085-.034.128-.051.037-.014.073-.022.108-.042a.75.75 0 0 0 .236-.204c.003-.004.008-.005.011-.01l1.227-1.739a.75.75 0 0 0-1.227-.864l-.188.267-.382-2.165a.749.749 0 1 0-1.476.261l.379 2.147-.241-.17a.75.75 0 0 0-.866 1.227"/></svg>