<svg xmlns="http://www.w3.org/2000/svg" width="24" height="24" fill="none"><path fill="currentColor" d="M11.5 20.06v-7.31H2.25c-.14 0-.25.11-.25.25 0 2 1 3 3 3h4v3.25H6.5c-.41 0-.75.34-.75.75s.34.75.75.75h5.05a5.09 5.09 0 0 1-.05-.69M17 2H5C3 2 2 3 2 5v6c0 .14.11.25.25.25h9.3c.26-1.71 1.5-2.75 3.38-2.75h4.77c.21 0 .3-.18.3-.3V5c0-2-1-3-3-3m3.071 8h-5.143c-1.286 0-1.929.647-1.929 1.942v8.116c0 1.295.643 1.942 1.929 1.942h5.143C21.357 22 22 21.353 22 20.058v-8.116C22 10.647 21.357 10 20.071 10M17.5 20.5a1 1 0 1 1 0-2 1 1 0 0 1 0 2"/></svg>