<svg xmlns="http://www.w3.org/2000/svg" width="24" height="24" fill="none"><path fill="currentColor" d="M18.95 6.26c-1.3-.59-2.69-1.02-4.13-1.26-.18.31-.38.73-.52 1.06-1.54-.22-3.06-.22-4.58 0-.14-.33-.35-.75-.52-1.06-1.45.24-2.84.67-4.13 1.26-2.62 3.82-3.33 7.55-2.97 11.23C3.84 18.74 5.52 19.5 7.17 20c.4-.54.77-1.12 1.08-1.73-.6-.22-1.17-.49-1.71-.81.14-.1.28-.21.41-.32 3.29 1.49 6.87 1.49 10.12 0 .14.11.27.22.41.32-.54.32-1.11.59-1.71.81.31.61.68 1.19 1.08 1.73 1.65-.5 3.34-1.26 5.07-2.51.44-4.26-.69-7.96-2.95-11.23h-.02ZM8.68 15.17c-.99 0-1.8-.9-1.8-2s.79-2 1.8-2 1.82.9 1.8 2c0 1.1-.8 2-1.8 2Zm6.64 0c-.99 0-1.8-.9-1.8-2s.79-2 1.8-2 1.82.9 1.8 2c0 1.1-.79 2-1.8 2Z"/></svg>