<svg xmlns="http://www.w3.org/2000/svg" width="24" height="24" fill="none"><path fill="currentColor" d="M17.667 2H6.334C4.112 2 3.001 3.111 3.001 5.333v10c0 2.222 1.111 3.333 3.333 3.333h1.5c.525 0 1.019.247 1.333.667l1.5 2c.667.889 2 .889 2.667 0l1.5-2c.315-.42.809-.667 1.333-.667h1.5c2.222 0 3.333-1.111 3.333-3.333v-10C21 3.111 19.889 2 17.667 2M14 12.312a.303.303 0 0 1-.015.094L12.9 15.71a.84.84 0 0 1-.79.54c-.16 0-.32-.04-.46-.14-.44-.29-.7-.79-.7-1.32v-1.71H8.88c-1.58 0-1.84-1.06-1.5-2.08l1.06-3.17c.21-.64.44-1.08 1.5-1.08h3.76a.3.3 0 0 1 .3.3zm2.75-1.072c0 .435-.355.79-.79.79h-.66a.3.3 0 0 1-.3-.3V7.05a.3.3 0 0 1 .3-.3h.66a.79.79 0 0 1 .79.79z"/></svg>