<svg xmlns="http://www.w3.org/2000/svg" width="24" height="24" fill="none"><path fill="currentColor" d="M17.625 3H6.375C4.125 3 3 4.125 3 6.375v11.25C3 19.875 4.125 21 6.375 21h11.25C19.875 21 21 19.875 21 17.625V6.375C21 4.125 19.875 3 17.625 3M14 13.312a.303.303 0 0 1-.015.094L12.9 16.71a.84.84 0 0 1-.79.54c-.16 0-.32-.04-.46-.14-.44-.29-.7-.79-.7-1.32v-1.71H8.88c-1.58 0-1.84-1.06-1.5-2.08l1.06-3.17c.21-.64.44-1.08 1.5-1.08h3.76a.3.3 0 0 1 .3.3zm2.75-1.072c0 .435-.355.79-.79.79h-.66a.3.3 0 0 1-.3-.3V8.05a.3.3 0 0 1 .3-.3h.66a.79.79 0 0 1 .79.79z"/></svg>