<svg xmlns="http://www.w3.org/2000/svg" width="24" height="24" fill="none"><path fill="currentColor" d="M7.023 20.836a1.004 1.004 0 0 1-.99 1.16.994.994 0 0 1-.981-.822c-.029-.167-.671-4.139 3.549-7.946a1 1 0 1 1 1.34 1.486c-3.358 3.028-2.937 5.997-2.918 6.122ZM13.854 12c5.59-3.957 5.11-8.891 5.084-9.114a.988.988 0 0 0-1.098-.878 1.003 1.003 0 0 0-.89 1.096c.018.183.347 4.385-4.95 7.718A13.248 13.248 0 0 1 9.677 9H12a1 1 0 1 0 0-2H8.12a8.712 8.712 0 0 1-.507-1H15a1 1 0 1 0 0-2H7.079a4.616 4.616 0 0 1-.027-.893 1 1 0 0 0-.88-1.1.99.99 0 0 0-1.107.879c-.027.24-.589 5.917 6.428 9.979 1.186.687 2.11 1.4 2.843 2.105H12a1 1 0 1 0 0 2h3.955c.215.357.395.704.531 1.03H8.612a1 1 0 1 0 0 2h8.377c.037.482-.005.783-.012.826a1 1 0 1 0 1.97.348c.038-.218.807-5.055-5.093-9.173Z"/></svg>