<svg xmlns="http://www.w3.org/2000/svg" width="24" height="24" fill="none"><path fill="currentColor" d="M21 11.5v6.75a1.25 1.25 0 0 1-2.5 0V10h1a1.5 1.5 0 0 1 1.5 1.5M17 19V6c0-2-1-3-3-3H6C4 3 3 4 3 6v12c0 2 1 3 3 3h13a2 2 0 0 1-2-2M6.5 16.75a.75.75 0 1 1 0-1.5.75.75 0 0 1 0 1.5m0-4a.75.75 0 1 1 0-1.5.75.75 0 0 1 0 1.5m0-4a.75.75 0 1 1 0-1.5.75.75 0 0 1 0 1.5m7 8H9a.75.75 0 0 1 0-1.5h4.5a.75.75 0 0 1 0 1.5m0-4H9a.75.75 0 0 1 0-1.5h4.5a.75.75 0 0 1 0 1.5m0-4H9a.75.75 0 0 1 0-1.5h4.5a.75.75 0 0 1 0 1.5"/></svg>