<svg xmlns="http://www.w3.org/2000/svg" width="24" height="24" fill="none"><path fill="currentColor" d="M21 11.5v6.75a1.25 1.25 0 0 1-2.5 0V10h1a1.5 1.5 0 0 1 1.5 1.5M19 21H6c-2 0-3-1-3-3V6c0-2 1-3 3-3h8c2 0 3 1 3 3v13a2 2 0 0 0 2 2M8.03 14.97a.75.75 0 0 0-1.061 0l-.471.471a.75.75 0 0 0-1.029 1.09l.5.5a.748.748 0 0 0 1.06 0l1-1a.75.75 0 0 0 .001-1.061m0-4a.75.75 0 0 0-1.061 0l-.471.471a.75.75 0 0 0-1.029 1.09l.5.5a.748.748 0 0 0 1.06 0l1-1a.75.75 0 0 0 .001-1.061m0-4a.75.75 0 0 0-1.061 0l-.471.471a.75.75 0 0 0-1.029 1.09l.5.5a.748.748 0 0 0 1.06 0l1-1A.75.75 0 0 0 8.03 6.97M14.75 16a.75.75 0 0 0-.75-.75h-3.5a.75.75 0 0 0 0 1.5H14a.75.75 0 0 0 .75-.75m0-4a.75.75 0 0 0-.75-.75h-3.5a.75.75 0 0 0 0 1.5H14a.75.75 0 0 0 .75-.75m0-4a.75.75 0 0 0-.75-.75h-3.5a.75.75 0 0 0 0 1.5H14a.75.75 0 0 0 .75-.75"/></svg>