<svg xmlns="http://www.w3.org/2000/svg" width="24" height="24" fill="none"><path fill="currentColor" d="M17 15.63a4.375 4.375 0 0 0-3.309-4.241l-2.896-.718a2.366 2.366 0 0 1-1.301-.851A2.372 2.372 0 0 1 11.369 6h1.26c1.208 0 2.221.908 2.356 2.112a.999.999 0 1 0 1.987-.223 4.357 4.357 0 0 0-4.014-3.857V3c0-.55-.45-1-1-1s-1 .45-1 1v1.042c-2.215.21-3.96 2.059-3.96 4.329 0 .979.329 1.935.92 2.683a4.4 4.4 0 0 0 2.389 1.558l2.896.718a2.374 2.374 0 0 1 1.795 2.301c0 .629-.248 1.223-.698 1.673a2.348 2.348 0 0 1-1.672.697h-1.26a2.372 2.372 0 0 1-2.356-2.112 1 1 0 0 0-1.987.223 4.357 4.357 0 0 0 3.934 3.85V21c0 .55.45 1 1 1s1-.45 1-1v-1.032A4.34 4.34 0 0 0 17 15.63Z"/></svg>