<svg xmlns="http://www.w3.org/2000/svg" width="24" height="24" fill="none"><path fill="currentColor" d="m21.53 5.53-2 2a.749.749 0 0 1-.818.162.749.749 0 0 1-.244-.162l-2-2a.75.75 0 0 1 1.061-1.061l.72.72V2a.75.75 0 0 1 1.5 0v3.189l.72-.72A.75.75 0 1 1 21.53 5.53ZM21 9.486v8.134c0 2.25-1.15 3.38-3.38 3.38H6.38C4.1 21 3 19.87 3 17.62V6.38C3 4.12 4.1 3 6.38 3h8.134c.216 0 .35.216.274.418a4.545 4.545 0 0 0-.187 2.542 4.49 4.49 0 0 0 3.438 3.44 4.534 4.534 0 0 0 2.544-.187c.201-.076.417.058.417.273Zm-6.028 4.531a2.623 2.623 0 0 0-1.986-2.544l-1.608-.399a1.121 1.121 0 0 1 .271-2.211h.7c.572 0 1.051.43 1.116 1a.75.75 0 1 0 1.491-.167 2.617 2.617 0 0 0-2.229-2.298V7a.75.75 0 0 0-1.5 0v.404a2.62 2.62 0 0 0-2.2 2.579c0 .587.197 1.161.552 1.609.356.459.864.791 1.434.935l1.608.399c.501.127.851.575.851 1.089 0 .298-.117.579-.33.792-.213.213-.494.33-.792.33h-.7c-.572 0-1.051-.43-1.116-1a.747.747 0 0 0-.829-.662.75.75 0 0 0-.662.829 2.617 2.617 0 0 0 2.184 2.293V17a.75.75 0 0 0 1.5 0v-.398a2.604 2.604 0 0 0 2.245-2.585Z"/></svg>