<svg xmlns="http://www.w3.org/2000/svg" width="24" height="24" fill="none"><path fill="currentColor" d="M8.92 2.49c.97-.32 2-.49 3.08-.49 2.58 0 4.93.99 6.71 2.6-1.61 1.53-3.47 2.77-5.51 3.72a27.79 27.79 0 0 0-4.28-5.83Zm2.89 6.42a26.451 26.451 0 0 0-4.19-5.62c-.06-.06-.09-.13-.13-.2a9.945 9.945 0 0 0-5.29 7.02c3.41.38 6.58-.06 9.6-1.2h.01Zm2.08.74c.3.62.58 1.24.83 1.87 2.42-.45 4.93-.31 7.28.42a9.856 9.856 0 0 0-2.26-6.25c-1.71 1.63-3.68 2.95-5.85 3.96Zm-.64 2.23c-.22-.55-.47-1.1-.74-1.64-2.57.99-5.25 1.51-8.01 1.51-.81 0-1.64-.05-2.48-.14 0 .13-.02.26-.02.39 0 2.52.94 4.82 2.48 6.58 1.98-3.26 5.13-5.65 8.77-6.7Zm8.49 1.55c-2.08-.68-4.33-.84-6.5-.48a27.81 27.81 0 0 1 1.47 7.85 9.952 9.952 0 0 0 5.16-7.36c-.04 0-.09 0-.13-.02v.01Zm-6.51 7.77c-.07-2.71-.57-5.36-1.46-7.9-3.38.95-6.32 3.18-8.12 6.24-.03.04-.07.07-.11.1a9.925 9.925 0 0 0 6.45 2.38c1.16 0 2.26-.2 3.29-.57-.03-.08-.05-.16-.06-.25h.01Z"/></svg>