<svg xmlns="http://www.w3.org/2000/svg" width="24" height="24" fill="none"><path fill="currentColor" d="M16 21.75H6c-2.418 0-3.75-1.332-3.75-3.75V8c0-2.418 1.332-3.75 3.75-3.75h3a.75.75 0 0 1 0 1.5H6c-1.577 0-2.25.673-2.25 2.25v10c0 1.577.673 2.25 2.25 2.25h10c1.577 0 2.25-.673 2.25-2.25v-3a.75.75 0 0 1 1.5 0v3c0 2.418-1.332 3.75-3.75 3.75Zm4.58-16.72-1.61-1.61c-.57-.56-1.48-.56-2.05.01l-1.35 1.36 3.64 3.64 1.36-1.35c.57-.57.57-1.48.01-2.05Zm-6.07.82L8 12.39V16h3.61l6.54-6.51-3.64-3.64Z"/></svg>