<svg xmlns="http://www.w3.org/2000/svg" width="24" height="24" fill="none"><path fill="currentColor" d="M17 4H5C3 4 2 5 2 7v9c0 2 1 3 3 3h7.199c.26 0 .302-.247.302-.285 0-.377.174-.731.438-.995l5.49-5.52c.356-.356.812-.59 1.302-.665.151-.023.268-.141.268-.293V7C20 5 19 4 17 4m-.06 4.606-4.91 3.572a1.748 1.748 0 0 1-2.059.001L5.059 8.606a.75.75 0 1 1 .883-1.213l4.912 3.572a.25.25 0 0 0 .293 0l4.912-3.572a.75.75 0 1 1 .882 1.213Zm1.038 6.174 2.24 2.24-4 3.98h-2.22v-2.22zm3.76-.53-.99-.99a.887.887 0 0 0-1.26 0l-.81.82 2.24 2.24.82-.81a.889.889 0 0 0 0-1.26"/></svg>