<svg xmlns="http://www.w3.org/2000/svg" width="24" height="24" fill="none"><path fill="currentColor" d="M16.96 13c.61 0 1.12.16 1.54.41.344-.201.75-.346 1.22-.394.156-.016.28-.137.28-.293V7c0-2-1-3-3-3H5C3 4 2 5 2 7v9c0 2 1 3 3 3h8.6c.277 0 .35-.247.293-.376a4.827 4.827 0 0 1-.303-.974c-.25-1.31.02-2.56.74-3.45.63-.77 1.56-1.2 2.63-1.2Zm-4.93-.821a1.748 1.748 0 0 1-2.059.001L5.059 8.607a.75.75 0 1 1 .883-1.213l4.912 3.572a.25.25 0 0 0 .293 0l4.912-3.572a.75.75 0 1 1 .883 1.213l-4.913 3.572Zm9.908 5.175C21.482 19.667 18.504 21 18.504 21s-2.978-1.332-3.434-3.646c-.28-1.419.332-2.847 1.887-2.854 1.158-.005 1.547 1.143 1.547 1.143s.389-1.148 1.547-1.143c1.559.007 2.167 1.435 1.887 2.854Z"/></svg>