<svg xmlns="http://www.w3.org/2000/svg" width="24" height="24" fill="none"><path fill="currentColor" d="M19.5 11.85c.072 0 .143.002.214.006.097.006.286-.066.286-.305V7c0-2-1-3-3-3H5C3 4 2 5 2 7v9c0 2 1 3 3 3h9.7c.237 0 .3-.217.3-.278v-.672c0-.85.26-1.55.75-2.05v-.4c0-2.07 1.68-3.75 3.75-3.75Zm-7.47.329a1.748 1.748 0 0 1-2.059.001L5.059 8.607a.75.75 0 1 1 .883-1.213l4.912 3.572a.25.25 0 0 0 .293 0l4.912-3.572a.75.75 0 1 1 .883 1.213l-4.913 3.572Zm9.72 4.611V15.6c0-1.241-1.01-2.25-2.25-2.25a2.253 2.253 0 0 0-2.25 2.25v1.19c-.499.171-.75.59-.75 1.26v2.1c0 .9.45 1.35 1.35 1.35h3.3c.9 0 1.35-.45 1.35-1.35v-2.1c0-.67-.251-1.089-.75-1.26Zm-1.5-.09h-1.5v-1.1a.75.75 0 0 1 1.5 0v1.1Z"/></svg>