<svg xmlns="http://www.w3.org/2000/svg" width="24" height="24" fill="none"><path fill="currentColor" d="M19.01 12.5c.195 0 .396.043.587.123.103.047.403.007.403-.272V7c0-2-1-3-3-3H5C3 4 2 5 2 7v9c0 2 1 3 3 3h9.429c.206 0 .34-.2.282-.397a5.155 5.155 0 0 1-.21-1.493v-1.94c0-.67.44-1.26 1.08-1.44 1.46-.43 2.1-.74 2.74-1.06.219-.11.449-.17.689-.17m-2.07-3.894-4.91 3.572a1.748 1.748 0 0 1-2.059.001L5.059 8.606a.75.75 0 1 1 .883-1.213l4.912 3.572a.25.25 0 0 0 .293 0l4.912-3.572a.75.75 0 1 1 .882 1.213Zm5.06 6.51v1.995c0 2.333-1.875 3.5-3 3.889-1.125-.389-3-1.556-3-3.889v-1.944c1.5-.44 2.25-.778 3.006-1.167.744.389 1.494.727 2.994 1.116"/></svg>