<svg xmlns="http://www.w3.org/2000/svg" width="24" height="24" fill="none"><path fill="currentColor" d="M16.24 13.68c.19-.68.82-1.18 1.57-1.18h1.33a1.6 1.6 0 0 1 .508.081c.125.042.352-.058.352-.274V7c0-2-1-3-3-3H5C3 4 2 5 2 7v9c0 2 1 3 3 3h8.183a.306.306 0 0 0 .32-.304 1.606 1.606 0 0 1 .057-.486c.07-.27.2-.51.39-.71-.19-.2-.32-.44-.4-.71-.11-.42-.04-.87.18-1.25l.67-1.12a1.642 1.642 0 0 1 1.84-.74Zm-4.21-1.501a1.748 1.748 0 0 1-2.059.001L5.059 8.607a.75.75 0 1 1 .883-1.213l4.912 3.572a.25.25 0 0 0 .293 0l4.912-3.572a.75.75 0 1 1 .883 1.213l-4.913 3.572Zm9.854 6.333a1.166 1.166 0 0 1-.601-1.01c0-.418.228-.804.601-1.014l.116-.065-.802-1.346-.115.064a1.238 1.238 0 0 1-1.207-.001 1.16 1.16 0 0 1-.599-1.009.134.134 0 0 0-.135-.131h-1.334a.133.133 0 0 0-.135.131c0 .416-.228.8-.599 1.009-.373.21-.833.211-1.207.001a.135.135 0 0 0-.181.047l-.669 1.123a.127.127 0 0 0 .048.176l.002.001c.37.209.599.593.6 1.008.001.418-.228.805-.6 1.015l-.002.001a.128.128 0 0 0-.049.176l.67 1.122a.135.135 0 0 0 .18.047 1.236 1.236 0 0 1 1.207.001c.371.209.599.594.598 1.01 0 .072.06.131.135.131h1.336a.133.133 0 0 0 .135-.13c0-.416.228-.8.599-1.009.373-.21.833-.211 1.207-.001a.135.135 0 0 0 .18-.047l.67-1.123a.127.127 0 0 0-.048-.176l-.001-.001Zm-3.365-.012a1.005 1.005 0 0 1-1.005-1c0-.552.443-1 .995-1h.01a1 1 0 1 1 0 2Z"/></svg>