<svg xmlns="http://www.w3.org/2000/svg" width="24" height="24" fill="none"><path fill="currentColor" d="M18 13.25c.584 0 1.12.085 1.601.236.198.062.399-.073.399-.281V7c0-2-1-3-3-3H5C3 4 2 5 2 7v9c0 2 1 3 3 3h7.318c.206 0 .335-.199.282-.398a2.8 2.8 0 0 1 .29-2.152c.71-1.2 2.32-3.2 5.11-3.2Zm-5.97-1.071a1.748 1.748 0 0 1-2.059.001L5.059 8.607a.75.75 0 1 1 .883-1.213l4.912 3.572a.25.25 0 0 0 .293 0l4.912-3.572a.75.75 0 1 1 .883 1.213l-4.913 3.572Zm9.79 5.037c-.546-.917-1.771-2.466-3.82-2.466s-3.273 1.549-3.82 2.466a1.289 1.289 0 0 0 0 1.319c.546.917 1.771 2.466 3.82 2.466s3.273-1.549 3.82-2.466a1.294 1.294 0 0 0 0-1.319Zm-3.8 1.909c-.689 0-1.255-.56-1.255-1.25s.555-1.25 1.245-1.25h.01a1.25 1.25 0 0 1 0 2.5Z"/></svg>