<svg xmlns="http://www.w3.org/2000/svg" width="24" height="24" fill="none"><path fill="currentColor" d="M12.884 15.743a5.174 5.174 0 0 1 3.86-3.86 5.16 5.16 0 0 1 2.852.148c.198.068.404-.067.404-.276V7c0-2-1-3-3-3H5C3 4 2 5 2 7v9c0 2 1 3 3 3h7.756c.21 0 .345-.206.276-.404a5.154 5.154 0 0 1-.148-2.853Zm-.855-3.564a1.748 1.748 0 0 1-2.058.001L5.059 8.607a.75.75 0 1 1 .883-1.213l4.912 3.572a.25.25 0 0 0 .293 0l4.912-3.572a.75.75 0 1 1 .883 1.213l-4.913 3.572ZM22.53 20.47l-1.55-1.549a3.645 3.645 0 0 0 .603-2.003 3.67 3.67 0 0 0-3.666-3.667 3.671 3.671 0 0 0-3.667 3.667 3.67 3.67 0 0 0 3.667 3.666c.74 0 1.426-.224 2.003-.602l1.55 1.549a.748.748 0 0 0 1.06 0 .75.75 0 0 0 0-1.061Zm-4.613-1.387a2.17 2.17 0 0 1-2.167-2.166 2.17 2.17 0 0 1 2.167-2.167 2.17 2.17 0 0 1 2.166 2.167 2.169 2.169 0 0 1-2.166 2.166Z"/></svg>