<svg xmlns="http://www.w3.org/2000/svg" width="24" height="24" fill="none"><path fill="currentColor" d="M14.08 18.42c-.52-.5-.71-1.24-.49-1.93.22-.7.81-1.19 1.53-1.29l1.17-.17.5-.98c.32-.65.98-1.05 1.71-1.05.389 0 .757.113 1.063.319.166.111.437.012.437-.267V7c0-2-1-3-3-3H5C3 4 2 5 2 7v9c0 2 1 3 3 3h8.934c.4 0 .34-.406.22-.509a.773.773 0 0 1-.074-.071M11 12.514c-.36 0-.722-.112-1.029-.335L5.059 8.606a.75.75 0 1 1 .883-1.213l4.912 3.572a.25.25 0 0 0 .293 0l4.912-3.572a.75.75 0 1 1 .883 1.213l-4.912 3.572c-.308.225-.67.336-1.03.336m9.622 6.023a.378.378 0 0 0-.112.339l.288 1.646c.06.334-.298.588-.604.431l-1.512-.778a.398.398 0 0 0-.362 0l-1.51.777c-.307.158-.665-.098-.606-.432l.288-1.644a.378.378 0 0 0-.112-.339l-1.26-1.202a.38.38 0 0 1 .216-.652l1.743-.248a.386.386 0 0 0 .293-.209l.755-1.498a.42.42 0 0 1 .748 0l.755 1.498a.39.39 0 0 0 .293.209l1.743.248a.38.38 0 0 1 .216.652z"/></svg>