<svg xmlns="http://www.w3.org/2000/svg" width="24" height="24" fill="none"><path fill="currentColor" d="M17.625 3H6.375C4.125 3 3 4.125 3 6.375v11.25C3 19.875 4.125 21 6.375 21h11.25C19.875 21 21 19.875 21 17.625V6.375C21 4.125 19.875 3 17.625 3m-2.689 11.204L12.45 17.77c-.22.31-.68.31-.9 0l-2.486-3.566a.2.2 0 0 1 .227-.304l2.469.82c.08.03.16.04.24.04.08 0 .16-.01.24-.04l2.469-.82a.2.2 0 0 1 .227.304m.354-2.089L12 13.22l-3.289-1.105a.3.3 0 0 1-.167-.429l2.977-5.405c.21-.37.75-.37.96 0l2.977 5.405a.302.302 0 0 1-.168.429"/></svg>