<svg xmlns="http://www.w3.org/2000/svg" width="24" height="24" fill="none"><path fill="currentColor" d="M12 2C6.477 2 2 6.477 2 12s4.477 10 10 10 10-4.477 10-10S17.523 2 12 2Zm.688 8.125a.75.75 0 0 1 0 1.5h-3.15c-.013.125-.038.247-.038.375s.025.25.038.375h3.15a.75.75 0 0 1 0 1.5h-2.666c.651 1.115 1.847 1.875 3.228 1.875.485 0 .958-.091 1.408-.272a.75.75 0 0 1 .56 1.392 5.26 5.26 0 0 1-1.967.38c-2.232 0-4.131-1.406-4.889-3.375H7.063a.75.75 0 0 1 0-1.5h.975C8.029 12.249 8 12.128 8 12s.029-.249.038-.375h-.975a.75.75 0 0 1 0-1.5h1.299c.758-1.969 2.656-3.375 4.889-3.375.686 0 1.35.131 1.974.389a.75.75 0 0 1-.573 1.387 3.641 3.641 0 0 0-1.401-.275c-1.382 0-2.578.76-3.228 1.875h2.665v-.001Z"/></svg>