<svg xmlns="http://www.w3.org/2000/svg" width="24" height="24" fill="none"><path fill="currentColor" d="M17.625 3H6.375C4.125 3 3 4.125 3 6.375v11.25C3 19.875 4.125 21 6.375 21h11.25C19.875 21 21 19.875 21 17.625V6.375C21 4.125 19.875 3 17.625 3M6.807 10.939a.75.75 0 0 1 .163-.817l2.7-2.7a.75.75 0 0 1 1.061 1.06l-1.42 1.421h5.39a.75.75 0 0 1 0 1.5H7.5a.753.753 0 0 1-.694-.464Zm10.223 2.943-2.7 2.7a.748.748 0 0 1-1.06 0 .75.75 0 0 1 0-1.061l1.42-1.419H9.3a.75.75 0 0 1 0-1.5h7.2a.75.75 0 0 1 .53 1.28"/></svg>