<svg xmlns="http://www.w3.org/2000/svg" width="24" height="24" fill="none"><path fill="currentColor" d="M21.948 9.316c-.012.037-.719 2.057-2.619 3.867l1.504 2.263a1 1 0 1 1-1.666 1.108l-1.418-2.134a9.977 9.977 0 0 1-2.342 1.07l.564 2.27a1 1 0 1 1-1.941.482l-.58-2.329c-.461.055-.941.088-1.45.088s-.989-.033-1.45-.088l-.58 2.329a1 1 0 0 1-1.94-.482l.563-2.27a9.956 9.956 0 0 1-2.342-1.07l-1.418 2.134a.998.998 0 0 1-1.387.28 1 1 0 0 1-.279-1.388l1.504-2.263c-1.9-1.81-2.607-3.83-2.619-3.867a1 1 0 0 1 1.896-.636c.044.13.725 2.016 2.586 3.506l.003.003C7.778 13.181 9.537 14 12 14s4.223-.818 5.463-1.811l.003-.003c1.861-1.49 2.542-3.376 2.586-3.506.178-.522.751-.8 1.267-.626a.997.997 0 0 1 .629 1.262"/></svg>