<svg xmlns="http://www.w3.org/2000/svg" width="24" height="24" fill="none"><path fill="currentColor" d="M20.59 10.52c.55.91.55 2.05 0 2.96C19.36 15.53 16.61 19 12 19a8.59 8.59 0 0 1-2.106-.26c-.223-.056-.293-.342-.13-.504l1.896-1.896c.116-.116.26-.09.34-.09A4.255 4.255 0 0 0 16.25 12c0-.08-.012-.238.071-.321l2.742-2.742a.305.305 0 0 1 .452.027c.44.556.798 1.089 1.075 1.556m.94-6.99-18 18a.748.748 0 0 1-1.06 0 .75.75 0 0 1 0-1.061l3.705-3.705a13.542 13.542 0 0 1-2.765-3.285c-.55-.91-.55-2.05 0-2.96C4.64 8.47 7.39 5 12 5c1.824 0 3.347.547 4.613 1.327L20.47 2.47a.75.75 0 1 1 1.06 1.061ZM8.52 14.419l1.089-1.089A2.702 2.702 0 0 1 9.25 12c0-.35.07-.68.19-.99.19.16.43.26.7.26.62 0 1.13-.51 1.13-1.13 0-.27-.1-.51-.26-.7.31-.12.64-.19.99-.19.486 0 .936.137 1.33.359l1.09-1.089A4.202 4.202 0 0 0 12 7.75 4.26 4.26 0 0 0 7.75 12c0 .9.288 1.731.77 2.419"/></svg>