<svg xmlns="http://www.w3.org/2000/svg" width="24" height="24" fill="none"><path fill="currentColor" d="M14.75 12A2.752 2.752 0 0 1 12 14.75 2.752 2.752 0 0 1 9.25 12c0-.349.072-.68.191-.988.194.154.428.26.695.26.627 0 1.136-.509 1.136-1.136 0-.267-.106-.501-.26-.695A2.71 2.71 0 0 1 12 9.25 2.752 2.752 0 0 1 14.75 12m5.842 1.477C19.365 15.531 16.61 19 12 19s-7.365-3.469-8.592-5.523a2.878 2.878 0 0 1 0-2.954C4.635 8.469 7.391 5 12 5s7.365 3.469 8.592 5.523c.544.91.544 2.044 0 2.954M16.25 12A4.255 4.255 0 0 0 12 7.75 4.255 4.255 0 0 0 7.75 12 4.255 4.255 0 0 0 12 16.25 4.255 4.255 0 0 0 16.25 12"/></svg>