<svg xmlns="http://www.w3.org/2000/svg" width="24" height="24" fill="none"><path fill="currentColor" d="M20.21 6.3H19.2c-.5 0-.95-.24-1.23-.64-.03.05-.07.1-.11.14l-1.05 1.05h.52a.749.749 0 1 1 0 1.5H15a.74.74 0 0 1-.69-.46.735.735 0 0 1 .16-.82l1.05-1.05H15c-.41 0-.75-.34-.75-.75s.34-.75.75-.75h2.33c.14 0 .28.04.39.11.02-.23.1-.46.23-.66A9.906 9.906 0 0 0 12 2C6.48 2 2 6.48 2 12s4.48 10 10 10 10-4.48 10-10c0-2.12-.66-4.08-1.79-5.7M10 12.25c-.31 0-.6-.19-.71-.51a.747.747 0 0 0-1.4 0 .74.74 0 0 1-.95.46.744.744 0 0 1-.46-.95c.31-.9 1.16-1.51 2.12-1.51.96 0 1.81.6 2.12 1.51a.748.748 0 0 1-.71.99zM12 18c-.83 0-1.5-.67-1.5-1.5S11.17 15 12 15s1.5.67 1.5 1.5S12.83 18 12 18m5.07-5.79a.69.69 0 0 1-.25.04c-.31 0-.6-.19-.71-.51a.747.747 0 0 0-1.4 0 .74.74 0 0 1-.95.46.744.744 0 0 1-.46-.95c.31-.9 1.16-1.51 2.12-1.51.96 0 1.81.6 2.12 1.51.13.39-.07.82-.46.95zm5.68-7.41c0 .41-.34.75-.75.75h-2.8a.74.74 0 0 1-.65-1.1.44.44 0 0 1 .12-.18l1.52-1.52h-.99c-.41 0-.75-.34-.75-.75s.34-.75.75-.75H22c.3 0 .58.18.69.46.12.28.06.61-.16.82l-1.52 1.52H22c.41 0 .75.34.75.75"/></svg>