<svg xmlns="http://www.w3.org/2000/svg" width="24" height="24" fill="none"><path fill="currentColor" d="M12 2C6.48 2 2 6.48 2 12s4.48 10 10 10 10-4.48 10-10S17.52 2 12 2m-5.75 8c0-.41.34-.75.75-.75h2.5c.72 0 1.25.74 1.25 1.75s-.53 1.75-1.25 1.75-1.25-.74-1.25-1.75c0-.09 0-.17.02-.25H7c-.41 0-.75-.34-.75-.75m9.33 6.45a.75.75 0 0 1-1.05.15c-1.48-1.12-3.63-1.11-5.1 0a.76.76 0 0 1-.45.15.75.75 0 0 1-.45-1.35c1.99-1.5 4.89-1.51 6.9 0 .33.25.4.72.15 1.05m.92-3.7c-.72 0-1.25-.74-1.25-1.75 0-.09 0-.17.02-.25H14c-.41 0-.75-.34-.75-.75s.34-.75.75-.75h2.5c.72 0 1.25.74 1.25 1.75s-.53 1.75-1.25 1.75"/></svg>