<svg xmlns="http://www.w3.org/2000/svg" width="24" height="24" fill="none"><path fill="currentColor" d="M12 2C6.48 2 2 6.48 2 12s4.48 10 10 10 10-4.48 10-10S17.52 2 12 2m-4.25 9c0-.27.04-.51.11-.73l-1.19-.6a.763.763 0 0 1-.34-1.01c.19-.37.64-.52 1.01-.34l1.9.95c.15.03.28.11.4.2l1.2.6c.37.19.52.64.34 1.01-.13.26-.4.41-.67.41a.77.77 0 0 1-.29-.07c-.13.78-.6 1.32-1.21 1.32-.72 0-1.25-.74-1.25-1.75zm6.7 5.6a.76.76 0 0 1-.45.15c-.23 0-.45-.1-.6-.3-.67-.88-2.12-.89-2.8 0a.749.749 0 1 1-1.19-.91c.63-.82 1.57-1.3 2.6-1.3s1.98.49 2.59 1.3c.25.33.18.8-.15 1.05zm2.88-6.93-1.19.6c.07.22.11.47.11.73 0 1.01-.53 1.75-1.25 1.75-.62 0-1.08-.53-1.21-1.32-.09.04-.19.07-.29.07-.28 0-.54-.15-.67-.41a.745.745 0 0 1 .34-1.01l1.2-.6c.12-.09.25-.16.4-.2l1.9-.95c.37-.19.82-.03 1.01.34.19.37.04.82-.34 1.01z"/></svg>