<svg xmlns="http://www.w3.org/2000/svg" width="24" height="24" fill="none"><path fill="currentColor" d="M12 2C6.48 2 2 6.48 2 12s4.48 10 10 10 10-4.48 10-10S17.52 2 12 2Zm3 6.25c.72 0 1.25.74 1.25 1.75s-.53 1.75-1.25 1.75-1.25-.74-1.25-1.75.53-1.75 1.25-1.75Zm-6 0c.72 0 1.25.74 1.25 1.75S9.72 11.75 9 11.75 7.75 11.01 7.75 10 8.28 8.25 9 8.25Zm7.45 9.35a.76.76 0 0 1-.45.15c-.23 0-.45-.1-.6-.3-.8-1.06-2.07-1.7-3.39-1.7-1.32 0-2.58.62-3.4 1.7a.749.749 0 1 1-1.19-.91c1.11-1.46 2.78-2.3 4.6-2.3 1.82 0 3.51.86 4.59 2.3.25.33.18.8-.15 1.05l-.01.01Z"/></svg>