<svg xmlns="http://www.w3.org/2000/svg" width="24" height="24" fill="none"><path fill="currentColor" d="M12 2C6.48 2 2 6.48 2 12s4.48 10 10 10 10-4.48 10-10S17.52 2 12 2ZM7.93 9.74a.74.74 0 0 1-.95.46.744.744 0 0 1-.46-.95c.31-.9 1.16-1.51 2.12-1.51.96 0 1.81.6 2.12 1.51a.748.748 0 0 1-.71.99c-.31 0-.6-.19-.71-.51a.747.747 0 0 0-1.4 0l-.01.01ZM12 18c-2.01 0-3.67-1.48-3.96-3.41-.04-.31.19-.59.5-.59h6.92c.31 0 .54.28.5.59A3.991 3.991 0 0 1 12 18Zm5.11-7.79a.69.69 0 0 1-.25.04c-.31 0-.6-.19-.71-.51a.747.747 0 0 0-.7-.49c-.31 0-.6.2-.7.49a.74.74 0 0 1-.95.46.744.744 0 0 1-.46-.95c.31-.9 1.16-1.51 2.12-1.51.96 0 1.81.6 2.12 1.51.13.39-.07.82-.46.95l-.01.01Z"/></svg>