<svg xmlns="http://www.w3.org/2000/svg" width="24" height="24" fill="none"><path fill="currentColor" d="M12 2C6.48 2 2 6.48 2 12s4.48 10 10 10 10-4.48 10-10S17.52 2 12 2M6.3 9.98c-.49-.81-.44-1.83.5-2.17.7-.26 1.24.48 1.24.48s-.07-.91.64-1.17c.95-.34 1.63.41 1.78 1.34.24 1.53-1.26 3-1.26 3s-2.1-.16-2.9-1.49zM12 18c-1.95 0-3.57-1.35-3.99-3.17-.09-.4.33-.71.71-.55 2.18.87 4.36.87 6.55 0 .38-.15.81.15.71.55A4.087 4.087 0 0 1 11.99 18zm5.69-8.03c-.8 1.33-2.9 1.49-2.9 1.49s-1.51-1.48-1.26-3.01c.15-.94.84-1.68 1.79-1.34.7.25.68 1.05.68 1.05s.49-.62 1.2-.36c.94.35.99 1.36.5 2.18z"/></svg>