<svg xmlns="http://www.w3.org/2000/svg" width="24" height="24" fill="none"><path fill="currentColor" d="M12 2C6.48 2 2 6.48 2 12s4.48 10 10 10 10-4.48 10-10S17.52 2 12 2m-4.67 9.34a.75.75 0 0 1 .33-1.01l.66-.33-.66-.33a.763.763 0 0 1-.34-1.01c.19-.37.64-.52 1.01-.34l2 1c.25.13.42.39.42.67s-.16.54-.41.67l-2 1a.742.742 0 0 1-1-.33zm7.94 6.62c-2.18-.87-4.36-.87-6.55 0-.38.15-.81-.15-.71-.55A4.087 4.087 0 0 1 12 14.24c1.95 0 3.57 1.35 3.99 3.17.09.4-.33.71-.71.55zm1.06-7.63c.37.19.52.64.34 1.01-.13.26-.4.41-.67.41-.11 0-.23-.03-.33-.08l-2-1a.77.77 0 0 1-.42-.67c0-.28.16-.54.42-.67l2-1c.37-.19.82-.03 1.01.34.19.37.04.82-.34 1.01l-.66.33.66.33z"/></svg>