<svg xmlns="http://www.w3.org/2000/svg" width="24" height="24" fill="none"><path fill="currentColor" d="M12 2C6.48 2 2 6.48 2 12s4.48 10 10 10 10-4.48 10-10S17.52 2 12 2Zm-5.12 9.17.2-1.14c.01-.09-.01-.17-.08-.23l-.86-.83c-.16-.15-.07-.42.15-.45l1.19-.17a.27.27 0 0 0 .2-.14l.51-1.04c.1-.21.41-.21.51 0l.51 1.04c.04.08.11.13.2.14l1.19.17c.22.03.3.3.15.45l-.86.83c-.06.06-.09.15-.08.23l.2 1.14c.04.23-.2.41-.41.3l-1.03-.54a.275.275 0 0 0-.25 0l-1.03.54a.283.283 0 0 1-.41-.3ZM12.06 18c-1.95 0-3.57-1.35-3.99-3.17-.09-.4.33-.71.71-.55 2.18.87 4.36.87 6.55 0 .38-.15.81.15.71.55A4.087 4.087 0 0 1 12.05 18h.01Zm5.92-9.04-.86.83c-.06.06-.09.15-.08.23l.2 1.14c.04.23-.2.41-.41.3l-1.03-.54a.275.275 0 0 0-.25 0l-1.03.54a.283.283 0 0 1-.41-.3l.2-1.14c.01-.09-.01-.17-.08-.23l-.86-.83c-.16-.15-.07-.42.15-.45l1.19-.17a.27.27 0 0 0 .2-.14l.51-1.04c.1-.21.41-.21.51 0l.51 1.04c.04.08.11.13.2.14l1.19.17c.22.03.3.3.15.45Z"/></svg>