<svg xmlns="http://www.w3.org/2000/svg" width="24" height="24" fill="none"><path fill="currentColor" d="m3.54 11.17 2.88 2.07L10.88 11c.7-.35 1.54-.35 2.24 0l4.46 2.23 2.88-2.06 1.37-.98C20.98 5.53 16.9 2 12 2s-8.98 3.54-9.83 8.19zm9.75-2.41c.31-.9 1.16-1.51 2.12-1.51.96 0 1.81.6 2.12 1.51a.748.748 0 0 1-.71.99c-.31 0-.6-.19-.71-.51a.747.747 0 0 0-.7-.49c-.31 0-.6.2-.7.49a.74.74 0 0 1-.95.46.744.744 0 0 1-.46-.95zm-6.82 0c.31-.9 1.16-1.51 2.12-1.51.96 0 1.81.6 2.12 1.51a.748.748 0 0 1-.71.99c-.31 0-.6-.19-.71-.51a.747.747 0 0 0-1.4 0 .74.74 0 0 1-.95.46.744.744 0 0 1-.46-.95zM13 17.25c.41 0 .75.34.75.75s-.34.75-.75.75h-2c-.41 0-.75-.34-.75-.75s.34-.75.75-.75zm9-5.33V12c0 3.31-1.61 6.25-4.1 8.07A9.946 9.946 0 0 1 12 22c-2.21 0-4.25-.72-5.9-1.93A9.975 9.975 0 0 1 2 12v-.08l1.57 1.12 2.01 1.44c0 .09-.02.17-.01.26l.3 3.03c0 .07.04.14.09.19.32.33.66.63 1.03.9A8.417 8.417 0 0 0 12 20.5c1.82 0 3.55-.57 5.01-1.64.37-.27.71-.57 1.03-.9.05-.05.08-.12.09-.19l.3-3.03c.01-.09-.01-.17-.01-.26l2.01-1.44z"/></svg>