<svg xmlns="http://www.w3.org/2000/svg" width="24" height="24" fill="none"><path fill="currentColor" d="M12 2C6.48 2 2 6.48 2 12s4.48 10 10 10 10-4.48 10-10S17.52 2 12 2m-5.75 8c0-.41.34-.75.75-.75h2.5c.72 0 1.25.74 1.25 1.75s-.53 1.75-1.25 1.75-1.25-.74-1.25-1.75c0-.09 0-.17.02-.25H7c-.41 0-.75-.34-.75-.75m10.27 5.52-.57.57c-.42.42-.99.66-1.59.66H8.98c-.41 0-.75-.34-.75-.75s.34-.75.75-.75h5.38c.2 0 .39-.08.53-.22l.57-.57c.29-.29.77-.29 1.06 0 .29.29.29.77 0 1.06m-.02-2.77c-.72 0-1.25-.74-1.25-1.75 0-.09 0-.17.02-.25H14c-.41 0-.75-.34-.75-.75s.34-.75.75-.75h2.5c.72 0 1.25.74 1.25 1.75s-.53 1.75-1.25 1.75"/></svg>