<svg xmlns="http://www.w3.org/2000/svg" width="24" height="24" fill="none"><path fill="currentColor" d="M21.56 15.05c-.3.3-.67.45-1.06.45s-.79-.16-1.12-.49c-.82-.82-.88-3.01-.88-3.01s2.2.06 3.02.88c.65.65.63 1.58.04 2.17M2.49 12.88c-.66.65-.63 1.58-.04 2.17.29.3.67.45 1.06.45s.79-.16 1.12-.49c.82-.82.87-3.01.87-3.01s-2.19.06-3.01.88m18.45-1.9c.02.21-.18.38-.38.32a9.13 9.13 0 0 0-2.03-.3h-.03c-.26 0-.52.11-.71.29-.19.2-.3.46-.29.74.01.43.12 2.64 1.17 3.69.25.26.54.45.85.58.16.07.22.28.13.43A8.973 8.973 0 0 1 12 21c-3.24 0-6.07-1.71-7.65-4.27-.09-.15-.04-.36.13-.43.31-.13.6-.32.85-.58 1-1 1.15-3.04 1.17-3.62V12c0-.55-.44-1-1-1h-.03c-.27 0-1.14.05-2.02.3-.2.06-.41-.11-.39-.32C3.57 6.49 7.38 3 12 3c4.62 0 8.43 3.49 8.94 7.98m-12.23-.45c.12-.36.75-.36.88 0 .11.31.4.51.71.51a.753.753 0 0 0 .71-.99 1.972 1.972 0 0 0-3.72 0c-.13.39.07.82.46.95.39.14.82-.07.95-.46zm6.48 3.94c.07-.32-.27-.56-.57-.44-1.75.7-3.49.7-5.24 0-.3-.12-.64.12-.57.44A3.264 3.264 0 0 0 12 17c1.56 0 2.86-1.08 3.19-2.53m1.52-4.43a1.963 1.963 0 0 0-1.86-1.32c-.84 0-1.59.53-1.86 1.32a.745.745 0 0 0 .71.99c.31 0 .6-.2.71-.51.12-.36.75-.36.88 0 .14.39.56.6.95.46.39-.14.6-.56.46-.95z"/></svg>