<svg xmlns="http://www.w3.org/2000/svg" width="24" height="24" fill="none"><path fill="currentColor" d="M12 2C6.48 2 2 6.48 2 12s4.48 10 10 10 10-4.48 10-10S17.52 2 12 2M9 8.25c.72 0 1.25.74 1.25 1.75S9.72 11.75 9 11.75 7.75 11.01 7.75 10 8.28 8.25 9 8.25m7.6 7.2c-1.11 1.46-2.78 2.3-4.6 2.3a5.73 5.73 0 0 1-4.59-2.3.75.75 0 0 1 1.2-.9c.8 1.06 2.07 1.7 3.39 1.7 1.32 0 2.58-.62 3.4-1.7a.749.749 0 1 1 1.19.91zm-.35-4.39c-.08.03-.16.04-.24.04-.31 0-.6-.2-.71-.51-.03-.1-.14-.2-.29-.2a.31.31 0 0 0-.29.21.74.74 0 0 1-.95.46.744.744 0 0 1-.46-.95 1.81 1.81 0 0 1 3.42 0c.13.39-.07.82-.46.95z"/></svg>