<svg xmlns="http://www.w3.org/2000/svg" width="24" height="24" fill="none"><path fill="currentColor" d="M12 2C6.48 2 2 6.48 2 12s4.48 10 10 10 10-4.48 10-10S17.52 2 12 2m3 6.25c.72 0 1.25.74 1.25 1.75s-.53 1.75-1.25 1.75-1.25-.74-1.25-1.75.53-1.75 1.25-1.75m-6 0c.72 0 1.25.74 1.25 1.75S9.72 11.75 9 11.75 7.75 11.01 7.75 10 8.28 8.25 9 8.25m0 9.25c-.77 0-1.4-.59-1.4-1.45C7.6 14.97 9 13.5 9 13.5s1.4 1.47 1.4 2.55c0 .86-.63 1.45-1.4 1.45m7.44.1c-.13.1-.29.15-.45.15-.23 0-.45-.1-.6-.3-.8-1.06-2.07-1.7-3.39-1.7-.04 0-.08 0-.12.01-.05-.51-.24-1.01-.48-1.47.2-.03.4-.04.6-.04 1.79 0 3.51.86 4.59 2.3.25.33.18.8-.15 1.05"/></svg>