<svg xmlns="http://www.w3.org/2000/svg" width="24" height="24" fill="none"><path fill="currentColor" d="M12.75 6V3.75l4.5 4.5H15c-1.58 0-2.25-.67-2.25-2.25m2 10.6v.4c-.49.5-.75 1.2-.75 2.05v1.65c0 .17-.13.3-.3.3H6c-2 0-3-1-3-3V6c0-2 1-3 3-3h5.25v3c0 2.42 1.33 3.75 3.75 3.75h3v2.89c0 .15-.1.26-.25.29-1.71.34-3 1.86-3 3.67m-7-.6a.75.75 0 1 0-1.5 0 .75.75 0 0 0 1.5 0m0-4a.75.75 0 1 0-1.5 0 .75.75 0 0 0 1.5 0m4 4a.75.75 0 0 0-.75-.75H9.5a.75.75 0 0 0 0 1.5H11a.75.75 0 0 0 .75-.75m3-4a.75.75 0 0 0-.75-.75H9.5a.75.75 0 0 0 0 1.5H14a.75.75 0 0 0 .75-.75m6.75 7.05v2.1c0 .9-.45 1.35-1.35 1.35h-3.3c-.9 0-1.35-.45-1.35-1.35v-2.1c0-.67.251-1.089.75-1.26V16.6c0-1.241 1.01-2.25 2.25-2.25s2.25 1.009 2.25 2.25v1.19c.499.171.75.59.75 1.26m-2.25-2.45a.75.75 0 0 0-1.5 0v1.1h1.5z"/></svg>