<svg xmlns="http://www.w3.org/2000/svg" width="24" height="24" fill="none"><path fill="currentColor" d="M12.59 17.49c.22-.7.81-1.19 1.53-1.29l1.17-.17.5-.98c.32-.65.98-1.05 1.71-1.05.17 0 .5-.03.5-.35v-3.9h-3c-2.42 0-3.75-1.33-3.75-3.75V3H6C4 3 3 4 3 6v12c0 2 1 3 3 3h7.53c.23 0 .28-.23.28-.23l.1-.56-.83-.79c-.52-.5-.71-1.24-.49-1.93M7 11.25h7a.75.75 0 0 1 0 1.5H7a.75.75 0 0 1 0-1.5m4 5.5H7a.75.75 0 0 1 0-1.5h4a.75.75 0 0 1 0 1.5M12.75 6V3.75l4.5 4.5H15c-1.58 0-2.25-.67-2.25-2.25m6.872 13.537a.378.378 0 0 0-.112.339l.288 1.646c.058.334-.299.588-.604.431l-1.512-.778a.398.398 0 0 0-.362 0l-1.51.777c-.307.158-.665-.098-.606-.432l.288-1.644a.378.378 0 0 0-.112-.339l-1.26-1.202a.38.38 0 0 1 .216-.652l1.743-.248a.388.388 0 0 0 .293-.209l.755-1.498a.422.422 0 0 1 .749 0l.755 1.498a.39.39 0 0 0 .293.209l1.743.248a.38.38 0 0 1 .216.652z"/></svg>