<svg xmlns="http://www.w3.org/2000/svg" width="24" height="24" fill="none"><path fill="currentColor" d="M12.75 6V3.75l4.5 4.5H15c-1.58 0-2.25-.67-2.25-2.25m0 12.5c0 .73.14 1.43.4 2.08.08.2-.05.42-.27.42H6c-2 0-3-1-3-3V6c0-2 1-3 3-3h5.25v3c0 2.42 1.33 3.75 3.75 3.75h3v2.77c0 .15-.11.27-.26.29a5.735 5.735 0 0 0-4.99 5.69m-1-2.5a.75.75 0 0 0-.75-.75H7a.75.75 0 0 0 0 1.5h4a.75.75 0 0 0 .75-.75M14 12.75a.75.75 0 0 0 0-1.5H7a.75.75 0 0 0 0 1.5zm8.75 5.75a4.254 4.254 0 0 1-4.25 4.25 4.254 4.254 0 0 1-4.25-4.25 4.254 4.254 0 0 1 4.25-4.25 4.254 4.254 0 0 1 4.25 4.25m-6.641 1.331 3.722-3.723a2.718 2.718 0 0 0-1.331-.358 2.753 2.753 0 0 0-2.75 2.75c0 .485.137.935.359 1.331M21.25 18.5a2.71 2.71 0 0 0-.359-1.331l-3.722 3.723c.396.221.845.358 1.331.358a2.753 2.753 0 0 0 2.75-2.75"/></svg>