<svg xmlns="http://www.w3.org/2000/svg" width="24" height="24" fill="none"><path fill="currentColor" d="M17 9.75c-2.42 0-3.75-1.33-3.75-3.75V3H8C6 3 5 4 5 6v12c0 2 1 3 3 3h9c2 0 3-1 3-3V9.75h-3Zm-.667 2.546c0 .51-.327.918-.854 1.064l-2.417.675c-.163.047-.284.244-.284.465v2.444A2.058 2.058 0 0 1 10.723 19a2.058 2.058 0 0 1-2.056-2.056c0-1.133.922-2.055 2.056-2.055.387 0 .745.114 1.055.301v-3.21c0-.615.415-1.165 1.01-1.338l2.062-.579c.53-.15.874-.008 1.067.138.189.144.416.431.416.983v1.112ZM14.75 6V3.75l4.5 4.5H17c-1.58 0-2.25-.67-2.25-2.25Z"/></svg>