<svg xmlns="http://www.w3.org/2000/svg" width="24" height="24" fill="none"><path fill="currentColor" d="M17.25 8.25H15c-1.58 0-2.25-.67-2.25-2.25V3.75zm.75 1.5v3.47c0 .18-.16.29-.24.3-.15.03-.3.08-.44.15-.64.32-1.28.63-2.74 1.06-.64.18-1.08.77-1.08 1.44v1.94c0 .94.23 1.76.6 2.46.1.2-.05.43-.27.43H6c-2 0-3-1-3-3V6c0-2 1-3 3-3h5.25v3c0 2.42 1.33 3.75 3.75 3.75zM11.75 16a.75.75 0 0 0-.75-.75H7a.75.75 0 0 0 0 1.5h4a.75.75 0 0 0 .75-.75m3-4a.75.75 0 0 0-.75-.75H7a.75.75 0 0 0 0 1.5h7a.75.75 0 0 0 .75-.75M21 16.116c-1.5-.389-2.25-.727-2.994-1.116-.756.389-1.505.727-3.006 1.167v1.944c0 2.333 1.875 3.5 3 3.889 1.125-.389 3-1.556 3-3.889z"/></svg>