<svg xmlns="http://www.w3.org/2000/svg" width="24" height="24" fill="none"><path fill="currentColor" d="M12.75 5V2.75l4.5 4.5H15c-1.58 0-2.25-.67-2.25-2.25m-.01 14.6c.06.2-.08.4-.28.4H6c-2 0-3-1-3-3V5c0-2 1-3 3-3h5.25v3c0 2.42 1.33 3.75 3.75 3.75h3v3.46c0 .16-.13.29-.29.3-2.89.15-5.21 2.56-5.21 5.49 0 .56.08 1.1.24 1.6M7.75 15a.75.75 0 1 0-1.5 0 .75.75 0 0 0 1.5 0m0-4a.75.75 0 1 0-1.5 0 .75.75 0 0 0 1.5 0m4 4a.75.75 0 0 0-.75-.75H9.5a.75.75 0 0 0 0 1.5H11a.75.75 0 0 0 .75-.75M14 11.75a.75.75 0 0 0 0-1.5H9.5a.75.75 0 0 0 0 1.5zM22 18a4 4 0 1 1-8 0 4 4 0 0 1 8 0m-3.293 0 .646-.646a.5.5 0 0 0-.707-.707l-.646.646-.646-.646a.5.5 0 0 0-.707.707l.646.646-.646.646a.5.5 0 0 0 .708.707l.646-.646.646.646a.498.498 0 0 0 .708 0 .5.5 0 0 0 0-.707z"/></svg>