<svg xmlns="http://www.w3.org/2000/svg" width="24" height="24" fill="none"><path fill="currentColor" d="M12.75 6V3.75l4.5 4.5H15c-1.58 0-2.25-.67-2.25-2.25m.65 14.54c.14.2-.01.46-.25.46H6c-2 0-3-1-3-3V6c0-2 1-3 3-3h5.25v3c0 2.42 1.33 3.75 3.75 3.75h3v4.22c0 .26-.35.35-.5.44a2.96 2.96 0 0 0-1.54-.41c-1.07.01-2 .43-2.63 1.2-.72.89-.99 2.14-.74 3.44.14.71.44 1.35.81 1.9M6.25 12c0 .414.336.75.75.75h7a.75.75 0 0 0 0-1.5H7a.75.75 0 0 0-.75.75m5.5 4a.75.75 0 0 0-.75-.75H7a.75.75 0 0 0 0 1.5h4a.75.75 0 0 0 .75-.75m7.301-.5c-1.158-.005-1.547 1.143-1.547 1.143s-.389-1.148-1.547-1.143c-1.556.007-2.167 1.435-1.887 2.854.457 2.313 3.434 3.646 3.434 3.646s2.978-1.332 3.434-3.646c.28-1.419-.328-2.847-1.887-2.854"/></svg>