<svg xmlns="http://www.w3.org/2000/svg" width="24" height="24" fill="none"><path fill="currentColor" d="M17.63 2.25H6.37c-2.66 0-4.12 1.46-4.12 4.12v11.25c0 2.66 1.46 4.13 4.12 4.13h11.26c2.66 0 4.12-1.47 4.12-4.13V6.37c0-2.66-1.46-4.12-4.12-4.12M3.75 6.37c0-1.84.79-2.62 2.62-2.62h.88v3.5h-3.5zm0 2.38h3.5v2.5h-3.5zm0 4h3.5v2.5h-3.5zm2.62 7.5c-1.83 0-2.62-.79-2.62-2.63v-.87h3.5v3.5zm13.88-2.63c0 1.84-.79 2.63-2.62 2.63h-.88v-3.5h3.5zm0-2.37h-3.5v-2.5h3.5zm0-4h-3.5v-2.5h3.5zm0-4h-3.5v-3.5h.88c1.83 0 2.62.78 2.62 2.62z"/></svg>