<svg xmlns="http://www.w3.org/2000/svg" width="24" height="24" fill="none"><path fill="currentColor" d="M13.872 17.511a.29.29 0 0 1 .128.24V21l-4-3v-3.998c0-.398-.158-.78-.44-1.062L4.44 7.82A1.502 1.502 0 0 1 4 6.758V4.5A1.5 1.5 0 0 1 5.5 3h13A1.5 1.5 0 0 1 20 4.5v2.26c0 .4-.16.78-.44 1.06l-.06.06c-.06.06-.13.09-.21.09-.04 0-.08-.01-.12-.02-1.04-.46-2.26-.59-3.51-.29-2.04.49-3.66 2.19-4.06 4.25-.44 2.321.57 4.431 2.272 5.601M21 13c0 2.21-1.79 4-4 4s-4-1.79-4-4 1.79-4 4-4 4 1.79 4 4m-2.4-1.19a.501.501 0 0 0-.7 0l-1.32 1.32-.48-.48c-.19-.2-.51-.2-.7 0-.2.19-.2.51 0 .7l.83.84a.524.524 0 0 0 .71 0l1.66-1.67c.2-.19.2-.51 0-.71"/></svg>