<svg xmlns="http://www.w3.org/2000/svg" width="24" height="24" fill="none"><path fill="currentColor" d="M20 10v6c0 1.238-.122 3.06-1.18 4.573a.999.999 0 0 1-1.393.246 1.001 1.001 0 0 1-.246-1.393c.566-.811.819-1.867.819-3.427v-6a5.877 5.877 0 0 0-1.102-3.456 1 1 0 1 1 1.624-1.168A7.87 7.87 0 0 1 20 10m-8-6c.21 0 .42.007.63.033a1 1 0 1 0 .24-1.986A7.249 7.249 0 0 0 12 2c-4.411 0-8 3.589-8 8v6a1 1 0 1 0 2 0v-6c0-3.309 2.691-6 6-6m.096 2a.979.979 0 0 0-1.025.975A1 1 0 0 0 12.046 8a2.027 2.027 0 0 1 1.368.587c.38.378.587.88.587 1.413v5.39c0 2.095-.812 3.613-2.556 4.778a.999.999 0 1 0 1.112 1.663C14.842 20.302 16 18.135 16 15.39V10c0-1.067-.416-2.07-1.173-2.828A3.997 3.997 0 0 0 12.096 6m-2.65 2.18a1 1 0 0 0-1.266.634c-.12.361-.181.76-.181 1.186v3.93c0 .875-.293 1.74-.823 2.431a.998.998 0 0 0 .792 1.609.997.997 0 0 0 .794-.39 6.024 6.024 0 0 0 1.237-3.65V10c0-.208.027-.399.079-.554a.999.999 0 0 0-.633-1.265ZM12 16a1 1 0 0 0 1-1v-4a1 1 0 1 0-2 0v4a1 1 0 0 0 1 1"/></svg>