<svg xmlns="http://www.w3.org/2000/svg" width="24" height="24" fill="none"><path fill="currentColor" d="M2 8V4.5C2 2.958 2.958 2 4.5 2H8a1 1 0 1 1 0 2H4.5c-.448 0-.5.051-.5.5V8a1 1 0 1 1-2 0m19 7a1 1 0 0 0-1 1v3.5c0 .449-.052.5-.5.5H16a1 1 0 1 0 0 2h3.5c1.542 0 2.5-.958 2.5-2.5V16a1 1 0 0 0-1-1M19.5 2H16a1 1 0 1 0 0 2h3.5c.448 0 .5.051.5.5V8a1 1 0 1 0 2 0V4.5c0-1.542-.958-2.5-2.5-2.5M8 20H4.5c-.448 0-.5-.051-.5-.5V16a1 1 0 1 0-2 0v3.5c0 1.542.958 2.5 2.5 2.5H8a1 1 0 1 0 0-2m8.915-12.528c-.768-1.055-2.382.102-1.623 1.17.463.642.708 1.411.708 2.222v4.168c0 1.018-.158 1.698-.514 2.206-.473.633.039 1.596.818 1.573 1.548-.181 1.683-2.927 1.695-3.779-.082-2.177.45-5.761-1.084-7.56M6 10.863v3.082c.006 1.305 1.994 1.31 2 0v-3.082c0-2.264 1.995-4.117 4.264-3.843a1.002 1.002 0 0 0 1.113-.873c.108-.873-.776-1.23-1.514-1.148A5.871 5.871 0 0 0 6 10.863m8.73-.425c-.858-3.216-5.598-2.633-5.635.714.006.115-.004 1.62 0 1.781v1.012c0 .347-.175.945-.434 1.284a.999.999 0 0 0 .185 1.402c1.517.978 2.282-1.784 2.249-2.686v-2.793c-.01-.94 1.31-1.178 1.669-.334.13.19.044 1.873.068 2.115v1.574c0 1.146-.163 2.05-.96 2.733a1 1 0 1 0 1.302 1.518c1.47-1.26 1.658-2.935 1.658-4.252-.052-.994.119-3.191-.102-4.068"/></svg>