<svg xmlns="http://www.w3.org/2000/svg" width="24" height="24" fill="none"><path fill="currentColor" d="M14.37 7.52c-1.02 2.99-1.01 6.01.02 9 .04.11 0 .19-.03.25s-.09.12-.21.13a6.7 6.7 0 0 1-.77.08L10 18.73c-.21.11-.46-.06-.44-.3l.21-2.14c-1.04-.45-2.21-1.12-3.16-2.05a.516.516 0 0 0-.59-.09l-2.72 1.5c-.17.1-.37-.09-.28-.26l1.7-3.41-1.7-3.41c-.09-.18.11-.36.28-.26l2.72 1.5c.19.11.43.07.59-.09.95-.93 2.12-1.61 3.16-2.05l-.21-2.14c-.02-.24.23-.41.44-.3l3.38 1.75c.25.01.51.04.76.08.12.02.2.09.23.16.04.09.04.15 0 .28v.02Zm6.32 5.41c-1.29 1.7-2.83 2.79-4.44 3.42a.312.312 0 0 1-.4-.19c-.96-2.73-.95-5.59 0-8.32.06-.16.24-.25.4-.19 1.6.62 3.14 1.72 4.43 3.41.42.55.42 1.32 0 1.87h.01Zm-1.92-.94a.749.749 0 1 0-1.498-.002.749.749 0 0 0 1.498.002Z"/></svg>