<svg xmlns="http://www.w3.org/2000/svg" width="24" height="24" fill="none"><path fill="currentColor" d="M15.647 8.166a.739.739 0 0 1-.397-.654V3.75H16a.75.75 0 0 0 0-1.5H8a.75.75 0 0 0 0 1.5h.75v3.762a.74.74 0 0 1-.398.655A7.712 7.712 0 0 0 4.25 15c0 2.143.854 4.134 2.401 5.607l.149.145c.656.638 1.107.999 2.759.999h4.88c1.652 0 2.104-.361 2.76-.999l.148-.144A7.667 7.667 0 0 0 19.749 15a7.707 7.707 0 0 0-4.102-6.835ZM9.054 9.492a2.237 2.237 0 0 0 1.196-1.98V3.75h3.5v3.762c0 .831.458 1.59 1.195 1.98a6.212 6.212 0 0 1 3.297 5.388c-1.124.463-3.416 1.022-6.242-.38-2.783-1.377-5.04-.862-6.182-.404a6.206 6.206 0 0 1 3.236-4.604"/></svg>