<svg xmlns="http://www.w3.org/2000/svg" width="24" height="24" fill="none"><path fill="currentColor" d="M13.102 12.935a2.17 2.17 0 0 1-2.167 2.167 2.17 2.17 0 0 1-2.166-2.167 2.17 2.17 0 0 1 2.166-2.167 2.17 2.17 0 0 1 2.167 2.167M21 10v7c0 2-1 3-3 3H6c-2 0-3-1-3-3V7c0-2 1-3 3-3h4l3 3h5c2 0 3 1 3 3m-5.45 6.488-1.551-1.55a3.645 3.645 0 0 0 .603-2.003 3.671 3.671 0 0 0-3.667-3.667 3.67 3.67 0 0 0-3.666 3.667 3.671 3.671 0 0 0 3.666 3.667c.74 0 1.427-.224 2.004-.603l1.55 1.55a.748.748 0 0 0 1.06 0 .75.75 0 0 0 0-1.061Z"/></svg>