<svg xmlns="http://www.w3.org/2000/svg" width="24" height="24" fill="none"><path fill="currentColor" d="M13.331 11.108 9.61 14.831a2.722 2.722 0 0 1-.36-1.331A2.753 2.753 0 0 1 12 10.75c.485 0 .935.137 1.331.358m-2.662 4.784c.396.221.845.358 1.331.358a2.753 2.753 0 0 0 2.75-2.75 2.71 2.71 0 0 0-.359-1.331zM21 10v7c0 2-1 3-3 3H6c-2 0-3-1-3-3V7c0-2 1-3 3-3h4l3 3h5c2 0 3 1 3 3m-4.75 3.5A4.254 4.254 0 0 0 12 9.25a4.254 4.254 0 0 0-4.25 4.25A4.254 4.254 0 0 0 12 17.75a4.254 4.254 0 0 0 4.25-4.25"/></svg>