<svg xmlns="http://www.w3.org/2000/svg" width="24" height="24" fill="none"><path fill="currentColor" d="M21 17.75v.75c0 .83-.67 1.5-1.5 1.5h-15c-.83 0-1.5-.67-1.5-1.5v-.75zM20 15c0 .43-.03.84-.1 1.25H4.1c-.07-.41-.1-.82-.1-1.25 0-3.9 2.79-7.14 6.48-7.85-.45-.41-.73-1-.73-1.65 0-1.24 1.01-2.25 2.25-2.25s2.25 1.01 2.25 2.25c0 .65-.28 1.24-.73 1.65C17.21 7.86 20 11.1 20 15m-8.75-9.5c0 .41.34.75.75.75s.75-.34.75-.75-.34-.75-.75-.75-.75.34-.75.75m5.46 6.1c-.75-1.2-2.09-2.08-3.58-2.34a.75.75 0 0 0-.87.61c-.07.41.2.8.61.87 1.06.19 2.05.82 2.56 1.66.15.22.39.35.64.35.14 0 .27-.04.4-.11.35-.22.46-.68.24-1.04"/></svg>