<svg xmlns="http://www.w3.org/2000/svg" width="24" height="24" fill="none"><path fill="currentColor" d="M21.5 13.44a.772.772 0 0 0-.58-.19l-4.85.49-1.52-4.06 4.5-.41c.32-.03.54-.35.43-.65a8.496 8.496 0 0 0-8.83-5.57c-4.11.4-7.42 3.86-7.65 7.98-.15 2.72.98 5.2 2.86 6.85.09.08.22.13.34.13h1.87c1.18 0 2.25.66 2.78 1.72a.5.5 0 0 0 .45.28h2.95a.5.5 0 0 0 .47-.68l-1.51-3.78 1.86-.19 1.49 3.97a3.765 3.765 0 0 0 3.51 2.43h.92c.41 0 .75-.34.75-.75v-7c0-.21-.09-.41-.25-.56zM9.02 16c-.55 0-1-.45-1-1s.44-1 .99-1h.01c.55 0 1 .45 1 1s-.45 1-1 1m3.83-1.94c-.07 0-.13.04-.2.06l-.9-2.26c-.37-.93.26-1.96 1.26-2.05h.04c0 .06 0 .13.03.2l1.46 3.88zm7.4.77v1.49l-3.09.31-.54-1.43 3.63-.36zm-.17 5.42c-.93 0-1.78-.59-2.11-1.46l-.27-.71 2.54-.25v2.42h-.17z"/></svg>