<svg xmlns="http://www.w3.org/2000/svg" width="24" height="24" fill="none"><path fill="currentColor" d="M11.75 3v4c0 2.09-1.51 3.82-3.5 4.17V21c0 .41-.34.75-.75.75s-.75-.34-.75-.75v-9.83c-1.99-.36-3.5-2.09-3.5-4.17V3c0-.41.34-.75.75-.75s.75.34.75.75v4h.75V3c0-.41.34-.75.75-.75S7 2.59 7 3v4h.83V3c0-.41.34-.75.75-.75s.75.34.75.75v4h.92V3c0-.41.34-.75.75-.75s.75.34.75.75m8.71 4.47-.25-2.05C20.01 3.75 18.63 2.5 17 2.5s-3.01 1.26-3.21 2.92l-.25 2.05c-.15 1.23.11 2.27.75 2.99.5.56 1.19.89 2.06 1v9.55c0 .41.34.75.75.75s.75-.34.75-.75v-9.57c.78-.13 1.4-.46 1.86-.98.64-.72.9-1.75.75-2.99"/></svg>