<svg xmlns="http://www.w3.org/2000/svg" width="24" height="24" fill="none"><path fill="currentColor" d="M4.3 13.5h6.95v7.2a.3.3 0 0 1-.3.3H7c-2 0-3-1-3-3v-4.2a.3.3 0 0 1 .3-.3Zm15.4 0h-6.95v7.2a.3.3 0 0 0 .3.3H17c2 0 3-1 3-3v-4.2a.3.3 0 0 0-.3-.3Zm1.3-5v3.2a.3.3 0 0 1-.3.3h-7.95V8.5h-1.5V12H3.3a.3.3 0 0 1-.3-.3V8.5A1.5 1.5 0 0 1 4.5 7h1.065a2.644 2.644 0 0 1-.154-2.156c.283-.798.929-1.459 1.737-1.712a2.75 2.75 0 0 1 2.972.871c.032.039 1.157 1.536 1.881 2.498a1542.2 1542.2 0 0 1 1.874-2.49 2.753 2.753 0 0 1 2.964-.885c.78.239 1.414.857 1.714 1.616.332.84.216 1.613-.116 2.257h1.065A1.502 1.502 0 0 1 21 8.5ZM10.498 7c-.677-.9-1.495-1.988-1.55-2.059A1.213 1.213 0 0 0 8 4.5c-.689 0-1.25.561-1.25 1.25S7.311 7 8 7h2.498Zm6.752-1.25c0-.689-.561-1.25-1.25-1.25-.378 0-.72.162-.961.457L13.502 7H16c.689 0 1.25-.561 1.25-1.25Z"/></svg>