<svg xmlns="http://www.w3.org/2000/svg" width="24" height="24" fill="none"><path fill="currentColor" d="M21.75 16v1c0 2.418-1.332 3.75-3.75 3.75h-1c-2.305 0-3.61-1.222-3.727-3.43-.668-.703-1.878-.703-2.546 0-.118 2.208-1.422 3.43-3.727 3.43H6c-2.418 0-3.75-1.332-3.75-3.75v-1c0-4.276.947-8.051 1.66-10.52.106-.708.576-1.408 1.269-1.829a2.744 2.744 0 0 1 2.298-.26l.761.255a.75.75 0 0 1-.474 1.423l-.761-.254a1.251 1.251 0 0 0-1.63.992c-.511 1.782-1.124 4.176-1.428 6.902.56-.294 1.24-.458 2.056-.458h1c2.251 0 3.546 1.167 3.716 3.278.4-.172.831-.278 1.284-.278.453 0 .884.106 1.284.278.17-2.111 1.465-3.278 3.716-3.278h1c.816 0 1.497.164 2.057.458-.304-2.72-.913-5.095-1.408-6.811-.078-.455-.291-.773-.605-.964A1.257 1.257 0 0 0 17 4.816l-.761.254a.75.75 0 0 1-.474-1.423l.76-.254a2.752 2.752 0 0 1 3.588 2.18c.69 2.376 1.637 6.151 1.637 10.427"/></svg>