<svg xmlns="http://www.w3.org/2000/svg" width="24" height="24" fill="none"><path fill="currentColor" d="M12.75 18.724v1.526H16a.75.75 0 0 1 0 1.5H8a.75.75 0 0 1 0-1.5h3.25v-1.554a9.41 9.41 0 0 1-5.232-2.262l-1.487 1.487A.75.75 0 0 1 3.47 16.86l2-2a.749.749 0 0 1 .53-.22h.002c.2 0 .392.081.531.223a7.956 7.956 0 0 0 5.697 2.387c4.422 0 8.02-3.593 8.02-8.01 0-2.15-.849-4.177-2.389-5.708a.75.75 0 1 1 1.057-1.064A9.489 9.489 0 0 1 21.75 9.24c0 5.069-3.993 9.212-9 9.484M12 3.25c-3.309 0-6 2.691-6 6s2.691 6 6 6 6-2.691 6-6-2.691-6-6-6"/></svg>