<svg xmlns="http://www.w3.org/2000/svg" width="24" height="24" fill="none"><path fill="currentColor" d="M12 1.25C6.072 1.25 1.25 6.073 1.25 12S6.072 22.75 12 22.75 22.75 17.927 22.75 12 17.928 1.25 12 1.25M2.75 12c0-1.066.19-2.086.524-3.04.62 4.51 4.576 4.891 4.747 5.61.19.81 0 1.05.07 2.44s1.99 1.41 2.73 2.51c.218.32.344 1.005.29 1.685C6.426 20.756 2.75 16.8 2.75 12m11.76 8.895c.681-2.133 2.726-2.856 2.934-4.089.167-.989-1.133-1.495-2.3-1.639-1.156-.133-.989-1.344-1.811-2.2-.822-.856-1.36-.807-2.515-.663-1.167.133-2.145.05-2.468-.661-.311-.711.089-1.051-.761-1.932-.708-.734.052-1.392.43-1.481.6-.144 1.667.905 2.292.777 1.883-.388-.373-4.073 2.455-5a2.08 2.08 0 0 0 1.191-1.044 9.226 9.226 0 0 1 4.252 2.2c.325.925.551 1.987.362 2.55-.378 1.167-1.327 2.006-.291 3.916 1.081 1.994 1.748 2.265 2.234 1.717a1.74 1.74 0 0 1 .694-.465c-.367 3.837-3.087 6.993-6.698 8.014"/></svg>