<svg xmlns="http://www.w3.org/2000/svg" width="24" height="24" fill="none"><path fill="currentColor" d="M6.83 12.75c.15 3.08 1.19 6.22 3 9.01-4.24-.94-7.47-4.57-7.8-9.01zm3-10.51c-4.24.94-7.47 4.57-7.8 9.01h4.8c.15-3.08 1.19-6.22 3-9.01M12.2 2h-.4l-.3.43c-1.9 2.7-3.01 5.8-3.17 8.82h7.34c-.16-3.02-1.27-6.12-3.17-8.82zM8.33 12.75c.16 3.02 1.27 6.12 3.17 8.82l.3.43h.4l.3-.43c1.9-2.7 3.01-5.8 3.17-8.82zm8.84 0c-.15 3.08-1.19 6.22-3 9.01 4.24-.94 7.47-4.57 7.8-9.01zm4.8-1.5c-.33-4.44-3.56-8.07-7.8-9.01 1.81 2.79 2.85 5.93 3 9.01z"/></svg>