<svg xmlns="http://www.w3.org/2000/svg" width="24" height="24" fill="none"><path fill="currentColor" d="M21.5 12.23c0 3.04-1.08 5.61-2.96 7.35C16.9 21.1 14.65 22 11.96 22c-3.89 0-7.26-2.25-8.89-5.52A9.93 9.93 0 0 1 2 12c0-1.61.39-3.13 1.07-4.48C4.71 4.25 8.07 2 11.96 2c2.69 0 4.94.99 6.66 2.61l-2.84 2.85c-1.04-.99-2.35-1.5-3.82-1.5-2.6 0-4.8 1.76-5.59 4.13-.2.6-.32 1.24-.32 1.91 0 .67.11 1.31.32 1.91.79 2.38 2.99 4.13 5.59 4.13 1.34 0 2.48-.37 3.38-.97 1.05-.71 1.75-1.75 1.99-2.98h-5.37v-3.76h9.38c.1.61.16 1.23.16 1.89z"/></svg>