<svg xmlns="http://www.w3.org/2000/svg" width="24" height="24" fill="none"><path fill="currentColor" d="M7 4.5v1C7 6.5 6.5 7 5.5 7h-1C3.5 7 3 6.5 3 5.5v-1C3 3.5 3.5 3 4.5 3h1c1 0 1.5.5 1.5 1.5M12.5 3h-1c-1 0-1.5.5-1.5 1.5v1c0 1 .5 1.5 1.5 1.5h1c1 0 1.5-.5 1.5-1.5v-1c0-1-.5-1.5-1.5-1.5m7 0h-1c-1 0-1.5.5-1.5 1.5v1c0 1 .5 1.5 1.5 1.5h1c1 0 1.5-.5 1.5-1.5v-1c0-1-.5-1.5-1.5-1.5m-14 7h-1c-1 0-1.5.5-1.5 1.5v1c0 1 .5 1.5 1.5 1.5h1c1 0 1.5-.5 1.5-1.5v-1c0-1-.5-1.5-1.5-1.5m7 0h-1c-1 0-1.5.5-1.5 1.5v1c0 1 .5 1.5 1.5 1.5h1c1 0 1.5-.5 1.5-1.5v-1c0-1-.5-1.5-1.5-1.5m7 0h-1c-1 0-1.5.5-1.5 1.5v1c0 1 .5 1.5 1.5 1.5h1c1 0 1.5-.5 1.5-1.5v-1c0-1-.5-1.5-1.5-1.5m-14 7h-1c-1 0-1.5.5-1.5 1.5v1c0 1 .5 1.5 1.5 1.5h1c1 0 1.5-.5 1.5-1.5v-1c0-1-.5-1.5-1.5-1.5m7 0h-1c-1 0-1.5.5-1.5 1.5v1c0 1 .5 1.5 1.5 1.5h1c1 0 1.5-.5 1.5-1.5v-1c0-1-.5-1.5-1.5-1.5m7 0h-1c-1 0-1.5.5-1.5 1.5v1c0 1 .5 1.5 1.5 1.5h1c1 0 1.5-.5 1.5-1.5v-1c0-1-.5-1.5-1.5-1.5"/></svg>