<svg xmlns="http://www.w3.org/2000/svg" width="24" height="24" fill="none"><path fill="currentColor" d="M4.49 20.93a2.015 2.015 0 0 1-1.42-2.47l2.19-8.17c.14-.53.68-.84 1.21-.7l1.99.53c.53.14.84.68.7 1.21L6.97 19.5a2.015 2.015 0 0 1-2.47 1.42zm15.02 0a2.02 2.02 0 0 1-2.47-1.42l-2.19-8.17a.986.986 0 0 1 .7-1.21l.31-.08-.72-1.99a3.743 3.743 0 0 1-3.13 1.7 3.77 3.77 0 0 1-3.17-1.77c-.14.17-.35.27-.57.27-.08 0-.17-.01-.26-.04a.75.75 0 0 1-.45-.96l.98-2.7c.02-.05.05-.09.08-.13.6-1.27 1.89-2.16 3.38-2.16s2.89.95 3.46 2.3l1.83 5.03s0 .05.01.07l.24-.06a.986.986 0 0 1 1.21.7l2.19 8.17a2.02 2.02 0 0 1-1.42 2.47zM14.09 5.18l-.03-.07c-.35-.8-1.14-1.36-2.06-1.36-1.24 0-2.25 1.01-2.25 2.25S10.76 8.25 12 8.25 14.25 7.24 14.25 6c0-.29-.06-.57-.16-.82"/></svg>