<svg xmlns="http://www.w3.org/2000/svg" width="24" height="24" fill="none"><path fill="currentColor" d="M6.3 16.75h11.4c.17 0 .3.13.3.3v2.45c0 .83-.67 1.5-1.5 1.5h-9c-.83 0-1.5-.67-1.5-1.5v-2.45c0-.17.13-.3.3-.3M18.52 6.16c-.67-.21-1.31-.19-1.89-.05A5.005 5.005 0 0 0 12 3C9.91 3 8.11 4.29 7.37 6.11c-.59-.15-1.22-.16-1.89.05-1.23.38-2.19 1.43-2.42 2.69A3.505 3.505 0 0 0 6 12.96v1.99c0 .17.13.3.3.3h2.31l-.35-2.13c-.07-.41.21-.8.62-.86.4-.07.79.21.86.62l.4 2.37h1.11V12c0-.41.34-.75.75-.75s.75.34.75.75v3.25h1.11l.4-2.37c.07-.41.46-.69.86-.62.41.07.68.45.62.86l-.35 2.13h2.31c.17 0 .3-.13.3-.3v-1.99a3.505 3.505 0 0 0 2.94-4.11c-.23-1.26-1.19-2.31-2.42-2.69"/></svg>