<svg xmlns="http://www.w3.org/2000/svg" width="24" height="24" fill="none"><path fill="currentColor" d="M21.75 12c0 1.505-.21 3.093-.59 4.634-.007.033-.006.066-.014.098-.018.072-.042.141-.061.213-.028.108-.062.212-.092.32-.094.343-.183.688-.292 1.02l-.471 1.525a2.758 2.758 0 0 1-3.432 1.82l-.966-.295a1.739 1.739 0 0 1-1.034-.853 1.734 1.734 0 0 1-.127-1.333l1.484-4.854c.137-.448.44-.815.853-1.034a1.743 1.743 0 0 1 1.334-.127l.942.29c.317.096.6.252.85.443.07-.63.116-1.257.116-1.866 0-4.549-3.701-8.25-8.25-8.25-4.549 0-8.25 3.701-8.25 8.25 0 .609.046 1.235.116 1.865.25-.191.533-.347.85-.444l.942-.289c.444-.138.92-.093 1.334.127.413.219.716.586.853 1.034l1.484 4.856c.138.446.092.92-.127 1.333-.22.414-.588.716-1.035.853l-.965.295a2.758 2.758 0 0 1-3.432-1.82l-.473-1.533c-.108-.327-.2-.678-.294-1.024-.028-.104-.062-.203-.088-.309-.019-.073-.043-.14-.061-.212-.008-.033-.007-.065-.014-.098-.38-1.54-.59-3.129-.59-4.634 0-5.376 4.374-9.75 9.75-9.75S21.75 6.624 21.75 12Z"/></svg>