<svg xmlns="http://www.w3.org/2000/svg" width="24" height="24" fill="none"><path fill="currentColor" d="M17.667 2H6.334C4.112 2 3.001 3.111 3.001 5.333v10c0 2.222 1.111 3.333 3.333 3.333h1.5c.525 0 1.019.247 1.333.667l1.5 2c.667.889 2 .889 2.667 0l1.5-2c.315-.42.809-.667 1.333-.667h1.5c2.222 0 3.333-1.111 3.333-3.333v-10C21 3.111 19.889 2 17.667 2m-.981 8.452c-.621 3.203-4.675 5.048-4.675 5.048s-4.054-1.845-4.675-5.048c-.38-1.965.451-3.942 2.569-3.952 1.577-.008 2.106 1.582 2.106 1.582s.529-1.59 2.106-1.582c2.122.01 2.95 1.987 2.569 3.952"/></svg>