<svg xmlns="http://www.w3.org/2000/svg" width="24" height="24" fill="none"><path fill="currentColor" d="M12.615 20.315a.3.3 0 0 1 .051.233.242.242 0 0 1-.144.195C12.195 20.915 12 21 12 21s-7.66-3.48-8.831-9.53c-.72-3.72.85-7.45 4.85-7.47C11 3.99 12 6.99 12 6.99s1-3 3.98-2.99c4.01.02 5.57 3.75 4.85 7.47-.06.3-.13.59-.22.87-.06.155-.167.205-.287.205a.397.397 0 0 1-.213-.075c-.88-.61-1.95-.97-3.11-.97a5.51 5.51 0 0 0-5.5 5.5 5.454 5.454 0 0 0 1.116 3.315ZM21 17c0 2.21-1.79 4-4 4s-4-1.79-4-4 1.79-4 4-4 4 1.79 4 4m-2.4-1.19a.501.501 0 0 0-.7 0l-1.32 1.32-.48-.48c-.19-.2-.51-.2-.7 0-.2.19-.2.51 0 .7l.83.84a.524.524 0 0 0 .71 0l1.66-1.67c.2-.19.2-.51 0-.71"/></svg>