<svg xmlns="http://www.w3.org/2000/svg" width="24" height="24" fill="none"><path fill="currentColor" d="M17 12.995a4 4 0 1 0 0 8 4 4 0 0 0 0-8m1.35 4.65a.484.484 0 0 1 0 .7.484.484 0 0 1-.7 0l-.65-.64-.65.64a.484.484 0 0 1-.7 0 .482.482 0 0 1 0-.7l.64-.65-.64-.65a.495.495 0 0 1 .7-.7l.65.64.65-.64a.495.495 0 0 1 .7.7l-.64.65zm-6.85-.65a5.51 5.51 0 0 1 5.5-5.5 5.437 5.437 0 0 1 3.11.97c.063.044.137.07.213.075a.286.286 0 0 0 .287-.2c.09-.286.163-.576.22-.87.72-3.72-.84-7.45-4.85-7.47C13 3.99 12 6.99 12 6.99s-1-3-3.98-2.99c-4 .02-5.57 3.75-4.85 7.47C4.34 17.52 12 21 12 21s.195-.085.523-.256a.241.241 0 0 0 .143-.2.298.298 0 0 0-.05-.234 5.448 5.448 0 0 1-1.116-3.315"/></svg>