<svg xmlns="http://www.w3.org/2000/svg" width="24" height="24" fill="none"><path fill="currentColor" d="M15.978 4C13 3.986 12 6.988 12 6.988S11 3.985 8.021 4c-4 .02-5.572 3.754-4.852 7.465C4.342 17.515 12 21 12 21s7.657-3.485 8.831-9.535c.72-3.71-.845-7.445-4.853-7.465M17 13.25h-1.599l-1.777 2.666a.752.752 0 0 1-1.336-.179l-1.515-4.545-1.149 1.724A.751.751 0 0 1 9 13.25H7a.75.75 0 0 1 0-1.5h1.599l1.777-2.666a.75.75 0 0 1 1.336.179l1.515 4.545 1.149-1.724A.751.751 0 0 1 15 11.75h2a.75.75 0 0 1 0 1.5"/></svg>