<svg xmlns="http://www.w3.org/2000/svg" width="24" height="24" fill="none"><path fill="currentColor" fill-rule="evenodd" d="M17.053 21H6.947a2.5 2.5 0 0 1-2.459-2.052l-1.455-7.982a2 2 0 0 1 .697-1.903l6.682-5.493a2.501 2.501 0 0 1 3.177 0l6.682 5.493c.561.461.827 1.189.697 1.903l-1.455 7.983A2.501 2.501 0 0 1 17.053 21M12 12.8c1.186 0 2.15-.964 2.15-2.15S13.185 8.5 12 8.5s-2.15.964-2.15 2.15.964 2.15 2.15 2.15m3.5 3.897V17a.5.5 0 0 1-.5.5H9a.5.5 0 0 1-.5-.5v-.303c0-1.34.981-2.697 2.858-2.697h1.283c1.878 0 2.859 1.356 2.859 2.697" clip-rule="evenodd"/></svg>