<svg xmlns="http://www.w3.org/2000/svg" width="24" height="24" fill="none"><path fill="currentColor" fill-rule="evenodd" d="M13 11.25v1.375h-2V11.25a1.001 1.001 0 0 1 2 0m8 .401V18c0 2-1 3-3 3H6c-2 0-3-1-3-3v-6.349c0-1.998.523-2.305 1.43-3.065l5.964-5.001a2.5 2.5 0 0 1 3.213 0l5.964 5.001c.906.76 1.429 1.066 1.429 3.065m-5.5 2.474c0-.81-.345-1.274-1-1.429V11.25c0-1.378-1.121-2.5-2.5-2.5a2.503 2.503 0 0 0-2.5 2.5v1.446c-.655.154-1 .619-1 1.429v2.25c0 1 .5 1.5 1.5 1.5h4c1 0 1.5-.5 1.5-1.5z" clip-rule="evenodd"/></svg>