<svg xmlns="http://www.w3.org/2000/svg" width="24" height="24" fill="none"><path fill="currentColor" d="m21.477 9.085-7.412-6.096a3.26 3.26 0 0 0-4.129 0L2.524 9.084a.751.751 0 0 0 .953 1.16L4.5 9.4V18c0 2.29 1.21 3.5 3.5 3.5h8c2.29 0 3.5-1.21 3.5-3.5V9.401l1.023.842a.749.749 0 0 0 1.056-.102.751.751 0 0 0-.102-1.057Zm-7.627 7.613a2.194 2.194 0 0 1-1.1.609v.193a.75.75 0 0 1-1.5 0v-.195a2.235 2.235 0 0 1-1.736-1.945.75.75 0 0 1 .663-.828.757.757 0 0 1 .827.663c.042.38.352.666.72.666h.552a.708.708 0 0 0 .506-.216.751.751 0 0 0 .219-.532.747.747 0 0 0-.552-.727l-1.267-.319a2.244 2.244 0 0 1-1.682-2.18c0-1.075.75-1.973 1.75-2.194V9.5a.75.75 0 0 1 1.5 0v.195a2.236 2.236 0 0 1 1.736 1.945.75.75 0 0 1-.663.828.758.758 0 0 1-.827-.663.735.735 0 0 0-.721-.666h-.551a.738.738 0 0 0-.725.748.749.749 0 0 0 .551.727l1.267.32a2.245 2.245 0 0 1 1.682 2.18c.001.596-.23 1.16-.65 1.584Z"/></svg>