<svg xmlns="http://www.w3.org/2000/svg" width="24" height="24" fill="none"><path fill="currentColor" d="m21.477 9.085-7.412-6.096a3.26 3.26 0 0 0-4.129 0L2.524 9.084a.751.751 0 0 0 .953 1.16L4.5 9.4V18c0 2.29 1.21 3.5 3.5 3.5h8c2.29 0 3.5-1.21 3.5-3.5V9.401l1.023.842a.749.749 0 0 0 1.056-.102.751.751 0 0 0-.102-1.057ZM12 17.5a1 1 0 1 1 0-2 1 1 0 0 1 0 2Zm2.848-2.786a.751.751 0 0 1-1.052.143c-1.029-.782-2.562-.782-3.592 0a.75.75 0 1 1-.908-1.195c1.557-1.183 3.852-1.183 5.408 0a.753.753 0 0 1 .144 1.052Zm2.22-2.058a.747.747 0 0 1-1.057.08A6.146 6.146 0 0 0 12 11.25a6.148 6.148 0 0 0-4.011 1.485.75.75 0 0 1-.979-1.137 7.648 7.648 0 0 1 4.989-1.848c1.833 0 3.604.656 4.989 1.848a.75.75 0 0 1 .08 1.058Z"/></svg>