<svg xmlns="http://www.w3.org/2000/svg" width="24" height="24" fill="none"><path fill="currentColor" fill-rule="evenodd" d="M13 11.25v1.375h-2V11.25a1.001 1.001 0 0 1 2 0Zm7.968-.284-1.455 7.983a2.5 2.5 0 0 1-2.459 2.052H6.948a2.5 2.5 0 0 1-2.459-2.052l-1.455-7.982a1.998 1.998 0 0 1 .698-1.903l6.681-5.493a2.501 2.501 0 0 1 3.177 0l6.682 5.493c.559.459.826 1.188.696 1.902ZM15.5 14.125c0-.81-.345-1.274-1-1.429V11.25c0-1.378-1.121-2.5-2.5-2.5a2.503 2.503 0 0 0-2.5 2.5v1.446c-.655.154-1 .619-1 1.429v2.25c0 1 .5 1.5 1.5 1.5h4c1 0 1.5-.5 1.5-1.5v-2.25Z" clip-rule="evenodd"/></svg>