<svg xmlns="http://www.w3.org/2000/svg" width="24" height="24" fill="none"><path fill="currentColor" d="m21.477 9.085-7.412-6.096a3.26 3.26 0 0 0-4.129 0L2.524 9.084a.751.751 0 0 0 .953 1.16L4.5 9.4V18c0 2.29 1.21 3.5 3.5 3.5h8c2.29 0 3.5-1.21 3.5-3.5V9.401l1.023.842a.749.749 0 0 0 1.056-.102.751.751 0 0 0-.102-1.057Zm-5.552 4.708C15.403 16.462 12 18 12 18s-3.403-1.537-3.925-4.207c-.32-1.637.379-3.285 2.157-3.293C11.556 10.494 12 11.818 12 11.818s.444-1.325 1.768-1.318c1.78.01 2.477 1.656 2.157 3.293"/></svg>