<svg xmlns="http://www.w3.org/2000/svg" width="24" height="24" fill="none"><path fill="currentColor" fill-rule="evenodd" d="m20.27 9.062-6.682-5.493a2.501 2.501 0 0 0-3.177 0L3.729 9.062a1.996 1.996 0 0 0-.697 1.903l1.455 7.982A2.5 2.5 0 0 0 6.946 21h10.106a2.5 2.5 0 0 0 2.459-2.052l1.455-7.983a1.993 1.993 0 0 0-.696-1.902ZM12 17.5a1 1 0 1 1 0-2 1 1 0 0 1 0 2m2.847-2.785a.748.748 0 0 1-1.051.143c-1.029-.783-2.562-.783-3.592 0a.75.75 0 0 1-.908-1.194c1.555-1.183 3.854-1.183 5.408 0a.75.75 0 0 1 .143 1.051m2.221-2.059a.747.747 0 0 1-1.057.079A6.146 6.146 0 0 0 12 11.25a6.148 6.148 0 0 0-4.011 1.485.75.75 0 0 1-.979-1.137 7.648 7.648 0 0 1 4.989-1.848c1.833 0 3.604.656 4.989 1.848.315.27.351.744.08 1.058" clip-rule="evenodd"/></svg>