<svg xmlns="http://www.w3.org/2000/svg" width="24" height="24" fill="none"><path fill="currentColor" d="M13.583 12.917a2.17 2.17 0 0 1-2.166 2.167 2.17 2.17 0 0 1-2.167-2.167 2.17 2.17 0 0 1 2.167-2.167 2.17 2.17 0 0 1 2.166 2.167m7.996-2.776a.748.748 0 0 1-1.056.102L19.5 9.401V18c0 2.29-1.21 3.5-3.5 3.5H8c-2.29 0-3.5-1.21-3.5-3.5V9.402l-1.023.842a.75.75 0 0 1-.953-1.16L9.936 2.99a3.26 3.26 0 0 1 4.129 0l7.412 6.096a.749.749 0 0 1 .102 1.055M16.03 16.47l-1.55-1.55a3.645 3.645 0 0 0 .602-2.004 3.672 3.672 0 0 0-3.666-3.667 3.671 3.671 0 0 0-3.667 3.667 3.671 3.671 0 0 0 3.667 3.667c.74 0 1.427-.224 2.003-.603l1.549 1.549a.748.748 0 0 0 1.06 0 .746.746 0 0 0 .002-1.06Z"/></svg>