<svg xmlns="http://www.w3.org/2000/svg" width="24" height="24" fill="none"><path fill="currentColor" d="m21.477 9.085-7.412-6.096a3.26 3.26 0 0 0-4.129 0L2.524 9.084a.751.751 0 0 0 .953 1.16L4.5 9.4V18c0 2.29 1.21 3.5 3.5 3.5h8c2.29 0 3.5-1.21 3.5-3.5V9.401l1.023.842a.749.749 0 0 0 1.056-.102.751.751 0 0 0-.102-1.057Zm-4.727 6.602a.751.751 0 0 1-.75.75h-2.5a.75.75 0 0 1 0-1.5h.689L12.63 13.38l-1.096 1.18c-.543.542-1.493.544-2.04 0L7.47 12.53a.75.75 0 0 1 1.06-1.06l2.027 2.027 1.096-1.179c.545-.545 1.494-.544 2.039 0l1.558 1.558v-.689a.75.75 0 0 1 1.5 0v2.5h-.001Z"/></svg>