<svg xmlns="http://www.w3.org/2000/svg" width="24" height="24" fill="none"><path fill="currentColor" fill-rule="evenodd" d="m20.27 9.062-6.682-5.493a2.501 2.501 0 0 0-3.177 0L3.73 9.062a1.999 1.999 0 0 0-.698 1.903l1.455 7.982A2.5 2.5 0 0 0 6.947 21h10.105a2.5 2.5 0 0 0 2.459-2.052l1.455-7.983a1.993 1.993 0 0 0-.696-1.902Zm-4.345 4.232C15.403 15.963 12 17.5 12 17.5s-3.403-1.537-3.925-4.206c-.32-1.638.38-3.285 2.157-3.294C11.556 9.994 12 11.318 12 11.318s.444-1.325 1.768-1.318c1.781.009 2.477 1.656 2.157 3.294" clip-rule="evenodd"/></svg>