<svg xmlns="http://www.w3.org/2000/svg" width="24" height="24" fill="none"><path fill="currentColor" d="M2.95 14.4c-.29-.41-.45-.9-.45-1.42 0-.66.25-1.28.72-1.75l8-7.99a2.5 2.5 0 0 1 3.17-.27zm18.07-4.78L9.61 21.04c.41.3.89.46 1.41.46h.01c.66 0 1.28-.26 1.74-.72l8-8c.84-.86.93-2.2.25-3.16m-.96-1.16-.06.07h-.01l-.35.35-.35.35L9.23 19.3h-.01l-.35.35-.35.36-.04.04c-.62.62-1.44.93-2.26.93-.82 0-1.63-.31-2.26-.93h-.01a3.223 3.223 0 0 1 0-4.53l.04-.04.36-.35.35-.35L14.76 4.71h.01l.35-.35.42-.42c.62-.63 1.44-.94 2.26-.94.82 0 1.63.31 2.25.94h.01a3.193 3.193 0 0 1 0 4.52m-2.17-1.64a.754.754 0 0 0-1.06 0c-.33.33-.56.37-.95.44-.46.08-1.09.19-1.76.85-.67.66-.78 1.3-.85 1.76-.07.39-.11.62-.44.95-.33.33-.56.37-.95.44-.46.08-1.09.19-1.76.85-.67.67-.78 1.3-.86 1.76-.07.39-.11.62-.44.95-.33.33-.56.37-.95.44-.46.08-1.09.19-1.76.86-.29.29-.29.77 0 1.06.15.15.34.22.53.22s.38-.07.53-.22c.33-.33.56-.37.95-.44.46-.08 1.09-.19 1.76-.86.67-.67.78-1.3.86-1.76.07-.39.11-.62.44-.95.33-.33.56-.37.95-.44.46-.08 1.09-.19 1.76-.85.67-.67.78-1.3.85-1.76.07-.39.11-.62.44-.95.33-.33.56-.37.95-.44.46-.08 1.09-.19 1.76-.85.29-.29.29-.77 0-1.06"/></svg>