<svg xmlns="http://www.w3.org/2000/svg" width="24" height="24" fill="none"><path fill="currentColor" d="m22.448 7.608-1.2 8.581c-.157 1.093-.584 1.869-1.257 2.312-.233.12-.488 0-.488-.244v-8.59c0-2.61-1.558-4.168-4.167-4.168H5.924c-.3 0-.307-.27-.286-.39.158-.946.532-1.646 1.112-2.083.607-.457 1.427-.616 2.442-.473l10.561 1.48c1.017.144 1.765.525 2.223 1.133.457.607.616 1.429.472 2.442m-4.445 2.057v8.668c0 1.778-.889 2.667-2.667 2.667H4.668c-1.778 0-2.667-.889-2.667-2.667V9.665c0-1.778.889-2.667 2.667-2.667h10.668c1.778 0 2.667.888 2.667 2.667m-14.503 0v7.178l1.433-1.433c.34-.35.91-.35 1.26 0l.83.83c.17.17.46.17.63 0l4.39-4.39c.34-.34.91-.34 1.26 0l3.2 3.208V9.665c0-.949-.218-1.167-1.167-1.167H4.668c-.95 0-1.168.218-1.168 1.167M6.502 12.5a1 1 0 0 0 0-2h-.008a.996.996 0 0 0-.994 1c0 .552.45 1 1.002 1"/></svg>