<svg xmlns="http://www.w3.org/2000/svg" width="24" height="24" fill="none"><path fill="currentColor" d="m22.448 7.608-1.2 8.581c-.157 1.093-.584 1.869-1.257 2.312-.233.12-.488 0-.488-.244v-8.59c0-2.61-1.558-4.168-4.167-4.168H5.924c-.3 0-.307-.27-.286-.39.158-.946.532-1.646 1.112-2.083.607-.457 1.427-.616 2.442-.473l10.561 1.48c1.017.144 1.765.525 2.223 1.133.457.607.616 1.429.472 2.442m-4.446 2.057v8.668c0 1.778-.889 2.667-2.667 2.667H4.667C2.889 21 2 20.111 2 18.333V9.665c0-1.778.889-2.667 2.667-2.667h10.668c1.779 0 2.667.89 2.667 2.667M13.25 14a.75.75 0 0 0-.75-.75h-1.75V11.5a.75.75 0 0 0-1.5 0v1.75H7.5a.75.75 0 0 0 0 1.5h1.75v1.75a.75.75 0 0 0 1.5 0v-1.75h1.75a.75.75 0 0 0 .75-.75"/></svg>