<svg xmlns="http://www.w3.org/2000/svg" width="24" height="24" fill="none"><path fill="currentColor" d="M21.75 13.616V18c0 2.418-1.332 3.75-3.75 3.75H6c-2.418 0-3.75-1.332-3.75-3.75v-4.384c0-.509.102-1.005.303-1.476l1.979-4.617c.501-1.169.974-2.273 3.447-2.273a.75.75 0 0 1 0 1.5c-1.484 0-1.62.316-2.068 1.364L4.03 12.5h2.925c1.16 0 2.239.659 2.886 1.763A2.508 2.508 0 0 0 12 15.5c.886 0 1.713-.474 2.159-1.237.646-1.104 1.726-1.763 2.886-1.763h2.926l-1.88-4.386c-.45-1.048-.585-1.364-2.07-1.364a.75.75 0 0 1 0-1.5c2.475 0 2.947 1.104 3.448 2.273l1.979 4.616c.199.471.301.968.301 1.477ZM11.47 10.53a.75.75 0 0 0 .818.162.749.749 0 0 0 .244-.162l2-2a.75.75 0 1 0-1.061-1.061l-.72.72V2a.75.75 0 0 0-1.5 0v6.189l-.72-.72A.75.75 0 1 0 9.47 8.53z"/></svg>