<svg xmlns="http://www.w3.org/2000/svg" width="24" height="24" fill="none"><path fill="currentColor" d="M21.5 5.15v3.8c0 .17-.13.3-.3.3h-4.4c-.17 0-.3-.13-.3-.3V5c0-1.46 1.27-2.64 2.76-2.49 1.3.13 2.24 1.33 2.24 2.63zm-.3 5.6h-4.4c-.17 0-.3.13-.3.3V13c0 .28.22.5.5.5h1.25v3c0 1.52-1.23 2.75-2.75 2.75s-2.75-1.23-2.75-2.75v-9A4.26 4.26 0 0 0 8.5 3.25 4.26 4.26 0 0 0 4.25 7.5v3H3c-.28 0-.5.22-.5.5v1.95c0 .17.13.3.3.3h4.4c.17 0 .3-.13.3-.3V11c0-.28-.22-.5-.5-.5H5.75v-3c0-1.52 1.23-2.75 2.75-2.75s2.75 1.23 2.75 2.75v9a4.26 4.26 0 0 0 4.25 4.25 4.26 4.26 0 0 0 4.25-4.25v-3H21c.28 0 .5-.22.5-.5v-1.95c0-.17-.13-.3-.3-.3m-14 4H2.8c-.17 0-.3.13-.3.3v3.8c0 1.31.94 2.5 2.24 2.63a2.5 2.5 0 0 0 2.76-2.49v-3.95c0-.17-.13-.3-.3-.3z"/></svg>