<svg xmlns="http://www.w3.org/2000/svg" width="24" height="24" fill="none"><path fill="currentColor" d="M4.3 14.5h15.4a.3.3 0 0 0 .3-.3V7c0-2-1-3-3-3H7C5 4 4 5 4 7v7.2a.3.3 0 0 0 .3.3Zm9.17-5.97a.75.75 0 0 1 1.061-1.061l2 2a.75.75 0 0 1 0 1.061l-2 2a.748.748 0 0 1-1.06 0 .75.75 0 0 1 0-1.061l1.47-1.47L13.47 8.53Zm-6 .94 2-2a.75.75 0 1 1 1.061 1.061l-1.47 1.47 1.47 1.47a.75.75 0 0 1-1.06 1.061l-2-2A.75.75 0 0 1 7.47 9.47ZM21 16.3v.7c0 1.333-.667 2-2 2H5c-1.333 0-2-.667-2-2v-.7a.3.3 0 0 1 .3-.3h17.4a.3.3 0 0 1 .3.3Z"/></svg>