<svg xmlns="http://www.w3.org/2000/svg" width="24" height="24" fill="none"><path fill="currentColor" d="M3.3 10.75h7.65a.3.3 0 0 1 .3.3v2.9a.3.3 0 0 1-.3.3H3.3a.3.3 0 0 1-.3-.3v-2.9a.3.3 0 0 1 .3-.3m-.3 5.3V17c0 2 1 3 3 3h4.95a.3.3 0 0 0 .3-.3v-3.65a.3.3 0 0 0-.3-.3H3.3a.3.3 0 0 0-.3.3M18 4H6C4 4 3 5 3 7v1.95a.3.3 0 0 0 .3.3h17.4a.3.3 0 0 0 .3-.3V7c0-2-1-3-3-3m-5.25 7.05v2.9a.3.3 0 0 0 .3.3h7.65a.3.3 0 0 0 .3-.3v-2.9a.3.3 0 0 0-.3-.3h-7.65a.3.3 0 0 0-.3.3m0 5v3.65a.3.3 0 0 0 .3.3H18c2 0 3-1 3-3v-.95a.3.3 0 0 0-.3-.3h-7.65a.3.3 0 0 0-.3.3"/></svg>