<svg xmlns="http://www.w3.org/2000/svg" width="24" height="24" fill="none"><path fill="currentColor" d="M16.77 10.88a6.62 6.62 0 0 1-1.42 3.42l-3.42-3.42h4.84ZM5.39 14.87a6.724 6.724 0 0 0 3.99 1.91v-5.9l-3.99 3.99Zm5.49-2.92v4.84a6.62 6.62 0 0 0 3.42-1.42l-3.42-3.42Zm0-2.56h5.9c-.17-1.5-.83-2.89-1.91-3.99l-3.99 3.99Zm7.83-5.92c-.45-.57-1.3-.61-1.81-.1l-.97.97A8.194 8.194 0 0 1 4.34 15.93l-.97.97c-.51.51-.47 1.36.1 1.81 2.29 1.79 5.32 2.67 8.53 2.14 4.49-.75 8.1-4.37 8.85-8.85.54-3.21-.35-6.25-2.14-8.53Z"/></svg>