<svg xmlns="http://www.w3.org/2000/svg" width="24" height="24" fill="none"><path fill="currentColor" d="M8.38 9.43c-.02-.01-.03-.03-.05-.04l-3.9-3.91A9.903 9.903 0 0 0 2 12c0 2.49.91 4.77 2.43 6.52l3.9-3.91c.01-.02.03-.03.05-.04-.51-.72-.82-1.62-.82-2.57 0-.95.31-1.85.82-2.57M12 2c-2.49 0-4.76.91-6.51 2.42l3.9 3.91c.02.02.03.04.04.06.72-.52 1.61-.83 2.57-.83.96 0 1.85.31 2.58.82.01-.02.02-.03.04-.05l3.9-3.91A9.907 9.907 0 0 0 12 2m7.58 3.48-3.9 3.91c-.02.01-.03.03-.05.04.51.72.82 1.62.82 2.57 0 .95-.31 1.85-.82 2.57.02.01.03.02.05.04l3.9 3.91A9.947 9.947 0 0 0 22 12c0-2.49-.91-4.77-2.42-6.52m-5 10.14c-.73.51-1.62.82-2.58.82s-1.85-.31-2.57-.83a.21.21 0 0 1-.04.06l-3.9 3.91A9.92 9.92 0 0 0 12 22c2.5 0 4.78-.91 6.52-2.42l-3.9-3.91c-.02-.02-.03-.03-.04-.05"/></svg>