<svg xmlns="http://www.w3.org/2000/svg" width="24" height="24" fill="none"><path fill="currentColor" d="M18 9.44c.03 1.96-.93 3.48-2.13 4.87-.474.555-.897 1.086-1.143 1.742a.296.296 0 0 1-.274.198H12.55a.3.3 0 0 1-.3-.3v-2.64l1.78-1.78c.29-.29.29-.77 0-1.06a.754.754 0 0 0-1.06 0l-1.47 1.47-1.47-1.47a.755.755 0 0 0-1.06 0c-.29.29-.29.77 0 1.06l1.78 1.78v2.64a.3.3 0 0 1-.3.3H8.535a.294.294 0 0 1-.273-.196c-.255-.668-.688-1.209-1.172-1.774C6 13 5 11.39 5 9.5 5 5.85 8.01 2.9 11.69 3c3.43.1 6.25 3.02 6.31 6.44Zm-3.8 8.31H8.8c-.3 0-.3.25-.3.25 0 1 .34 1.75.88 2.25s1.29.75 2.12.75c.83 0 1.58-.25 2.12-.75S14.5 19 14.5 18c0 0 0-.25-.3-.25Z"/></svg>