<svg xmlns="http://www.w3.org/2000/svg" width="24" height="24" fill="none"><path fill="currentColor" d="M5.26 17.215c0 .167.13.3.296.3 1.787-.014 11.1-.014 12.887 0a.294.294 0 0 0 .296-.3V13.7c0-4.81-2.89-7.7-6.74-7.7s-6.74 2.89-6.74 7.7zM12 8.67a.749.749 0 1 1 0 1.5c-1.34 0-2.43 1-2.53 2.33-.03.4-.36.69-.75.69h-.06a.749.749 0 0 1-.69-.8A4.058 4.058 0 0 1 12 8.67m8 11.829V22H4v-1.5A1.5 1.5 0 0 1 5.5 19h13.001c.828 0 1.499.671 1.499 1.499M11.25 3.5V2a.75.75 0 0 1 1.5 0v1.5a.75.75 0 0 1-1.5 0m9.28 1.03-1.5 1.5a.748.748 0 0 1-1.06 0 .75.75 0 0 1 0-1.061l1.5-1.5a.75.75 0 1 1 1.06 1.061M4.97 6.03l-1.5-1.5a.75.75 0 1 1 1.061-1.061l1.5 1.5A.75.75 0 1 1 4.97 6.03"/></svg>