<svg xmlns="http://www.w3.org/2000/svg" width="24" height="24" fill="none"><path fill="currentColor" d="M10.88 14.12a.997.997 0 0 1-.707-.293 4.914 4.914 0 0 1-.498-6.419c.104-.164.278-.374.497-.594l3.36-3.361A4.93 4.93 0 0 1 17.039 2a4.93 4.93 0 0 1 3.506 1.453 4.965 4.965 0 0 1 0 7.014l-1.84 1.84a.999.999 0 1 1-1.414-1.414l1.84-1.84a2.965 2.965 0 0 0 0-4.186c-1.119-1.118-3.065-1.118-4.185 0l-3.359 3.36a2.09 2.09 0 0 0-.268.318c-.897 1.223-.771 2.83.268 3.868a.999.999 0 0 1-.707 1.707Zm-.412 6.427 3.359-3.36a4.823 4.823 0 0 0 1.164-1.849 4.966 4.966 0 0 0-1.164-5.165 1 1 0 1 0-1.414 1.413 2.93 2.93 0 0 1 .688 3.096c-.132.395-.37.771-.688 1.09l-3.359 3.36c-1.119 1.119-3.065 1.118-4.185 0a2.965 2.965 0 0 1 0-4.186l1.84-1.84a.999.999 0 1 0-1.414-1.414l-1.84 1.84a4.965 4.965 0 0 0 0 7.014 4.929 4.929 0 0 0 3.506 1.453 4.925 4.925 0 0 0 3.507-1.452Z"/></svg>