<svg xmlns="http://www.w3.org/2000/svg" width="24" height="24" fill="none"><path fill="currentColor" d="M20.5 11c0 4.983-4.629 8.041-7.692 10.064l-.53.352a.5.5 0 0 1-.554 0l-.53-.352C8.131 19.041 3.502 15.983 3.502 11c0-4.687 3.813-8.5 8.5-8.5 4.687 0 8.498 3.813 8.498 8.5m-8.874-3.272-.755 1.498a.39.39 0 0 1-.293.21l-1.743.247a.38.38 0 0 0-.216.652l1.26 1.202a.378.378 0 0 1 .112.339l-.288 1.644c-.059.334.299.589.605.432l1.511-.777a.398.398 0 0 1 .362 0l1.512.778c.306.157.663-.097.604-.431l-.288-1.646a.378.378 0 0 1 .112-.339l1.26-1.202a.38.38 0 0 0-.216-.652l-1.743-.248a.386.386 0 0 1-.293-.209l-.755-1.498a.42.42 0 0 0-.748 0"/></svg>