<svg xmlns="http://www.w3.org/2000/svg" width="24" height="24" fill="none"><path fill="currentColor" d="M21.53 2.47a.75.75 0 0 0-1.061 0l-4.08 4.081a6.94 6.94 0 0 0-3.648-1.511h.009V3c0-.41-.34-.75-.75-.75s-.75.34-.75.75v2.04h.012a6.993 6.993 0 0 0-6.221 6.211H3c-.41 0-.75.34-.75.75s.34.75.75.75h2.04v-.01a6.932 6.932 0 0 0 1.511 3.649l-4.08 4.08a.75.75 0 0 0 1.06 1.062l18-18a.752.752 0 0 0-.001-1.062ZM9.5 12A2.5 2.5 0 0 1 12 9.5c.416 0 .803.111 1.149.29L9.79 13.149A2.49 2.49 0 0 1 9.5 12Zm11.5-.75h-2.04c.004.034.003.07.006.104a7.037 7.037 0 0 0-.278-1.428c-.066-.213-.342-.272-.499-.115l-8.377 8.377c-.157.157-.098.434.114.5.456.14.934.233 1.428.278-.034-.004-.07-.002-.104-.006V21c0 .41.34.75.75.75s.75-.34.75-.75v-2.05h-.011c.111-.01.22-.013.333-.03 2.984-.44 5.407-2.864 5.849-5.847.017-.113.019-.222.03-.333l-.001.011H21c.41 0 .75-.34.75-.75s-.34-.751-.75-.751Zm-9.382 7.732Zm7.375-6.85Z"/></svg>