<svg xmlns="http://www.w3.org/2000/svg" width="24" height="24" fill="none"><path fill="currentColor" d="M20.5 11c0 4.983-4.629 8.041-7.692 10.064l-.53.352a.5.5 0 0 1-.552.001l-.306-.2c-.818-.539-1.746-1.15-2.681-1.86a.5.5 0 0 1-.051-.75l10.53-10.53a.501.501 0 0 1 .826.19c.302.878.456 1.797.456 2.733Zm1.03-7.47-18 18a.748.748 0 0 1-1.06 0 .75.75 0 0 1 0-1.061l3.547-3.547C4.331 15.066 3.501 13.12 3.501 11c0-4.69 3.81-8.5 8.5-8.5 2.258 0 4.389.896 5.967 2.472l2.503-2.503A.75.75 0 1 1 21.53 3.53Zm-11.322 9.202 3.524-3.524A2.496 2.496 0 0 0 12 8.5 2.5 2.5 0 0 0 9.5 11c0 .671.273 1.278.708 1.732Z"/></svg>