<svg xmlns="http://www.w3.org/2000/svg" width="24" height="24" fill="none"><path fill="currentColor" d="M21 8.75a.75.75 0 0 1-.75-.75V4.5c0-.589-.161-.75-.75-.75H16a.75.75 0 0 1 0-1.5h3.5c1.409 0 2.25.841 2.25 2.25V8a.75.75 0 0 1-.75.75M3.75 8V4.5c0-.589.161-.75.75-.75H8a.75.75 0 0 0 0-1.5H4.5c-1.409 0-2.25.841-2.25 2.25V8a.75.75 0 0 0 1.5 0m5 13a.75.75 0 0 0-.75-.75H4.5c-.589 0-.75-.161-.75-.75V16a.75.75 0 0 0-1.5 0v3.5c0 1.409.841 2.25 2.25 2.25H8a.75.75 0 0 0 .75-.75m13-1.5V16a.75.75 0 0 0-1.5 0v3.5c0 .589-.161.75-.75.75H16a.75.75 0 0 0 0 1.5h3.5c1.409 0 2.25-.841 2.25-2.25m-6.333-9.739V8.666A3.421 3.421 0 0 0 12 5.249a3.421 3.421 0 0 0-3.417 3.417v1.095C7.53 9.935 7 10.631 7 11.857v4.286c0 1.43.714 2.143 2.143 2.143h5.714c1.428 0 2.143-.714 2.143-2.143v-4.286c0-1.226-.53-1.922-1.583-2.096m-2.667 4.56v1.013a.75.75 0 0 1-1.5 0v-1.038a1.228 1.228 0 0 1-.485-.962c0-.69.555-1.25 1.245-1.25h.01c.69 0 1.25.56 1.25 1.25 0 .411-.213.759-.52.987m-2.667-4.607V8.666A1.92 1.92 0 0 1 12 6.749a1.92 1.92 0 0 1 1.917 1.917v1.048z"/></svg>