<svg xmlns="http://www.w3.org/2000/svg" width="24" height="24" fill="none"><path fill="currentColor" d="M12.02 21c-.21 0-.4-.14-.46-.34l-.74-2.58a7.068 7.068 0 0 0-4.89-4.88l-2.59-.74a.473.473 0 0 1-.33-.58c.04-.16.17-.28.33-.33l2.59-.74a7.068 7.068 0 0 0 4.89-4.88l.74-2.58c.07-.25.33-.4.59-.33.16.05.28.17.33.33l.74 2.58a7.068 7.068 0 0 0 4.89 4.88l2.59.74c.25.1.37.39.27.64a.51.51 0 0 1-.27.27l-2.59.74a7.086 7.086 0 0 0-4.89 4.88l-.74 2.58c-.06.2-.25.34-.46.34m-6.18-.1.23-.78c.2-.71.76-1.26 1.47-1.46l.78-.22c.08-.03.11-.12.08-.19a.156.156 0 0 0-.08-.08l-.78-.22a2.12 2.12 0 0 1-1.47-1.46l-.23-.78c-.02-.08-.1-.12-.18-.1-.05.01-.08.05-.1.1l-.22.78c-.2.71-.76 1.26-1.47 1.46l-.78.22c-.08.02-.12.1-.1.18.01.05.05.08.1.1l.78.22c.71.2 1.27.75 1.47 1.46l.22.78c.02.08.1.12.18.1.05-.01.08-.05.1-.1zM19.3 6.53l.15-.52c.13-.47.5-.84.98-.97l.52-.15c.05-.02.07-.08.05-.13a.12.12 0 0 0-.05-.05l-.52-.15c-.47-.13-.84-.5-.98-.97l-.15-.52c-.01-.05-.07-.08-.12-.06-.03 0-.05.03-.06.06l-.15.52c-.13.47-.5.84-.98.97l-.52.15c-.05.01-.08.07-.06.12 0 .03.03.05.06.06l.52.15c.47.13.84.5.98.97l.15.52c.01.05.07.08.12.06.03 0 .05-.03.06-.06"/></svg>