<svg xmlns="http://www.w3.org/2000/svg" width="24" height="24" fill="none"><path fill="currentColor" d="M14.85 5.508v14.9a.3.3 0 0 1-.405.28l-5.1-1.915a.3.3 0 0 1-.195-.281V3.593a.3.3 0 0 1 .405-.28l5.1 1.914a.3.3 0 0 1 .195.281M7.215 3.47 4.1 5.035A1.998 1.998 0 0 0 2.999 6.82V19.5c0 .75.78 1.23 1.45.9l3.035-1.527a.3.3 0 0 0 .165-.268V3.736a.299.299 0 0 0-.434-.267Zm12.335.13-3.035 1.527a.3.3 0 0 0-.165.268v14.869a.3.3 0 0 0 .435.268l3.105-1.562a2.015 2.015 0 0 0 1.11-1.8V4.5c0-.75-.78-1.23-1.45-.9"/></svg>