<svg xmlns="http://www.w3.org/2000/svg" width="24" height="24" fill="none"><path fill="currentColor" d="M16 1.25c-2.36 0-4.31 1.74-4.67 4H4a.76.76 0 0 0-.67.41c-.13.25-.1.56.07.79l5.85 7.8v4.93c-.38.44-1.13 1.11-2.59 1.8a.8.8 0 0 0-.44.9c.08.37.4.62.78.62h5.99c.38 0 .7-.26.78-.62a.8.8 0 0 0-.44-.9c-1.45-.69-2.2-1.36-2.59-1.8v-4.93l3.04-4.05c.68.36 1.43.55 2.21.55 2.62 0 4.75-2.13 4.75-4.75s-2.13-4.75-4.75-4.75H16Zm0 8c-.45 0-.89-.1-1.29-.28l1.89-2.52c.17-.23.2-.53.07-.79a.742.742 0 0 0-.67-.41h-3.15c.34-1.43 1.62-2.5 3.15-2.5 1.79 0 3.25 1.46 3.25 3.25S17.79 9.25 16 9.25Z"/></svg>