<svg xmlns="http://www.w3.org/2000/svg" width="24" height="24" fill="none"><path fill="currentColor" d="M15.23 16.13c0 .18-.12.31-.3.31s-.29-.14-.29-.31c0-.17.11-.31.29-.31s.3.14.3.31m-6.33-.31c-.19 0-.3.14-.3.31 0 .17.11.31.3.31.17 0 .29-.13.29-.31 0-.17-.12-.31-.29-.31m3.15 0c-.14 0-.23.09-.25.23h.51c-.02-.15-.12-.23-.26-.23m4.88 0c-.18 0-.3.14-.3.31 0 .17.12.31.3.31s.3-.13.3-.31-.12-.31-.3-.31M21.01 8v8c0 2-1 3-3 3h-12c-2 0-3-1-3-3V8c0-2 1-3 3-3h12c2 0 3 1 3 3m-15 3.05a3.709 3.709 0 0 0 5.76 3.09c-1.95-1.59-1.94-4.59 0-6.17a3.707 3.707 0 0 0-5.76 3.08m6 2.91c1.89-1.47 1.88-4.34 0-5.83-1.88 1.48-1.89 4.36 0 5.83M8.2 16c0-.23-.15-.39-.39-.39-.12 0-.25.04-.34.17-.06-.11-.17-.17-.33-.17-.1 0-.2.04-.28.14v-.12h-.22v.98h.22c0-.51-.07-.81.24-.81.27 0 .22.27.22.81h.21c0-.49-.07-.81.24-.81.27 0 .22.27.22.81h.22v-.62zm1.2-.37h-.21v.12a.368.368 0 0 0-.31-.14c-.28 0-.49.22-.49.52 0 .3.21.52.49.52.14 0 .24-.05.31-.14v.12h.21zm1.08.69c0-.4-.61-.22-.61-.41 0-.15.32-.13.5-.03l.09-.17c-.25-.16-.81-.16-.81.22s.61.22.61.4c0 .17-.36.16-.55.02l-.09.17c.3.2.87.16.87-.2zm.95.25-.06-.18c-.1.06-.33.12-.33-.11v-.44h.35v-.2h-.35v-.3h-.22v.3h-.2v.2h.2v.45c0 .47.46.39.61.29zm.36-.36h.74c0-.43-.2-.61-.47-.61-.28 0-.49.21-.49.52 0 .55.61.64.91.38l-.1-.16c-.21.17-.52.16-.59-.13m1.58-.58c-.12-.05-.31-.05-.41.12v-.12h-.22v.98h.22v-.55c0-.31.25-.27.34-.22l.06-.2zm.28.49c0-.31.31-.4.55-.23l.1-.17c-.31-.24-.88-.11-.88.4s.6.64.88.4l-.1-.17c-.25.17-.55.07-.55-.23m1.79-.49h-.22v.12c-.22-.29-.8-.13-.8.37s.6.66.8.37v.12h.22v-.99zm.9 0c-.06-.03-.29-.08-.41.12v-.12h-.21v.98h.21v-.55c0-.29.24-.28.34-.22l.06-.2zm1.08-.4h-.21v.52c-.22-.29-.8-.14-.8.37s.6.66.8.37v.12h.21zm.58-4.19a3.707 3.707 0 0 0-5.76-3.08c1.93 1.59 1.96 4.59 0 6.17.61.4 1.33.62 2.05.62 2.05 0 3.71-1.66 3.71-3.71"/></svg>