<svg xmlns="http://www.w3.org/2000/svg" width="24" height="24" fill="none"><path fill="currentColor" fill-rule="evenodd" d="M12 8a6.5 6.5 0 1 0 0 13 6.5 6.5 0 0 0 0-13Zm2.9 6.14-1.08 1.05c-.08.07-.12.18-.1.29l.25 1.44c.05.29-.26.51-.52.37l-1.29-.68a.36.36 0 0 0-.32 0l-1.29.68a.358.358 0 0 1-.52-.38l.25-1.43a.312.312 0 0 0-.1-.29L9.1 14.14c-.2-.19-.09-.53.19-.57l1.49-.22c.11-.01.2-.08.25-.18l.65-1.3c.13-.27.51-.27.64 0l.65 1.3c.05.1.14.17.25.18l1.49.22c.28.04.39.38.19.57Zm2.263-5.74a7.981 7.981 0 0 0-3.094-1.633.295.295 0 0 1-.18-.443L16 3h5l-3.395 5.339a.292.292 0 0 1-.442.061ZM6.395 8.339 3 3h5l2.11 3.324a.294.294 0 0 1-.18.443A8.002 8.002 0 0 0 6.836 8.4a.291.291 0 0 1-.441-.061Z" clip-rule="evenodd"/></svg>