<svg xmlns="http://www.w3.org/2000/svg" width="24" height="24" fill="none"><path fill="currentColor" d="M21 3.93v13.14c0 .78-.9 1.21-1.5.73l-1.03-.83a8.521 8.521 0 0 0-1.557-1 .291.291 0 0 1-.163-.261V5.292a.29.29 0 0 1 .163-.261 8.555 8.555 0 0 0 1.557-1l1.03-.83c.6-.481 1.5-.051 1.5.729m-6.116 11.305a.293.293 0 0 0 .366-.283V6.047a.293.293 0 0 0-.366-.283 8.908 8.908 0 0 1-2.044.235H7.696c-2.346 0-4.443 1.71-4.673 4.045A4.501 4.501 0 0 0 7.5 14.999l2.453 4.897a1.998 1.998 0 0 0 1.786 1.103H13l-1-6h.84a8.958 8.958 0 0 1 2.044.236"/></svg>