<svg xmlns="http://www.w3.org/2000/svg" width="24" height="24" fill="none"><path fill="currentColor" d="M18 3H6C4 3 3 4 3 6v15l3-3h12c2 0 3-1 3-3V6c0-2-1-3-3-3Zm-5.98 12a1.005 1.005 0 0 1-1.005-1c0-.552.443-1 .995-1h.01a1 1 0 1 1 0 2Zm1.325-3.949c-.556.37-.632.557-.635.565a.767.767 0 0 1-.713.496.724.724 0 0 1-.245-.043.739.739 0 0 1-.463-.934c.203-.6.796-1.048 1.226-1.333.636-.423.643-.852.593-1.137a1.126 1.126 0 0 0-2.232.21.75.75 0 0 1-1.5 0c0-.778.342-1.511.938-2.011.596-.5 1.38-.71 2.157-.573a2.645 2.645 0 0 1 2.114 2.114c.184 1.053-.256 1.992-1.24 2.646Z"/></svg>