<svg xmlns="http://www.w3.org/2000/svg" width="24" height="24" fill="none"><path fill="currentColor" d="M17.02 12.333v-7C17.02 3.778 16.242 3 14.687 3H5.354c-1.556 0-2.333.778-2.333 2.333V17l2.333-2.333h9.333c1.555 0 2.333-.778 2.333-2.334M7.02 10a1.005 1.005 0 0 1-1.005-1c0-.552.443-1 .995-1h.01a1 1 0 1 1 0 2m3 0a1.005 1.005 0 0 1-1.005-1c0-.552.443-1 .995-1h.01a1 1 0 1 1 0 2m3 0a1.005 1.005 0 0 1-1.005-1c0-.552.443-1 .995-1h.01a1 1 0 1 1 0 2m8 1v10l-2-2h-8c-1.33 0-2-.67-2-2v-.521c0-.213.16-.309.305-.309h5.365c2.4 0 3.83-1.44 3.83-3.84V9.3c0-.233.203-.3.298-.3h.202c1.33 0 2 .67 2 2"/></svg>