<svg xmlns="http://www.w3.org/2000/svg" width="24" height="24" fill="none"><path fill="currentColor" d="M13.02 10.5a1 1 0 0 1-1 1 1.005 1.005 0 0 1-1.005-1c0-.552.443-1 .995-1h.01a1 1 0 0 1 1 1ZM21 6v9c0 2-1 3-3 3H6l-3 3V6c0-2 1-3 3-3h12c2 0 3 1 3 3Zm-5.82 4.502c0-.477.262-.919.688-1.158L16 9.269l-.917-1.538-.131.074a1.41 1.41 0 0 1-1.379-.002 1.327 1.327 0 0 1-.685-1.154.152.152 0 0 0-.154-.15h-1.525a.152.152 0 0 0-.154.15c0 .475-.26.915-.684 1.154-.426.24-.952.241-1.38.002a.153.153 0 0 0-.206.054L8.02 9.143a.145.145 0 0 0 .055.201l.002.001c.424.239.685.677.686 1.152 0 .478-.26.92-.686 1.16l-.002.001a.145.145 0 0 0-.055.202l.764 1.282a.154.154 0 0 0 .208.054 1.412 1.412 0 0 1 1.378.002c.424.239.684.68.684 1.154 0 .083.069.149.154.149h1.527a.152.152 0 0 0 .154-.149c0-.475.261-.915.685-1.154a1.41 1.41 0 0 1 1.379-.001.153.153 0 0 0 .207-.054l.765-1.284a.145.145 0 0 0-.055-.201l-.001-.001a1.33 1.33 0 0 1-.688-1.155Z"/></svg>