<svg xmlns="http://www.w3.org/2000/svg" width="24" height="24" fill="none"><path fill="currentColor" d="M18 3H6C4 3 3 4 3 6v15l3-3h12c2 0 3-1 3-3V6c0-2-1-3-3-3m-1.894 6.988-1.53 1.48a.466.466 0 0 0-.136.417l.35 2.025a.506.506 0 0 1-.734.531l-1.836-.958a.473.473 0 0 0-.439 0l-1.835.957a.506.506 0 0 1-.735-.53l.35-2.025a.472.472 0 0 0-.136-.417l-1.53-1.48a.47.47 0 0 1 .262-.802l2.117-.305a.471.471 0 0 0 .356-.257l.917-1.843a.508.508 0 0 1 .91 0l.916 1.843a.471.471 0 0 0 .356.257l2.117.305a.47.47 0 0 1 .26.802"/></svg>