<svg xmlns="http://www.w3.org/2000/svg" width="24" height="24" fill="none"><path fill="currentColor" d="M18 3H6C4 3 3 4 3 6v15l3-3h7.747c.234 0 .31-.224.295-.339a5.003 5.003 0 0 1-.041-.661c0-2.76 2.24-5 5-5a5.08 5.08 0 0 1 1.597.258.3.3 0 0 0 .402-.278V6c0-2-1-3-3-3m-9.98 8.5a1.005 1.005 0 0 1-1.005-1c0-.552.443-1 .995-1h.01a1 1 0 1 1 0 2m4 0a1.005 1.005 0 0 1-1.005-1c0-.552.443-1 .995-1h.01a1 1 0 1 1 0 2m4 0a1.005 1.005 0 0 1-1.005-1c0-.552.443-1 .995-1h.01a1 1 0 1 1 0 2m5.51 6.97a.75.75 0 0 1-1.06 1.061L19 18.061l-1.47 1.47a.748.748 0 0 1-1.06 0 .75.75 0 0 1 0-1.061L17.94 17l-1.47-1.47a.75.75 0 1 1 1.061-1.061l1.47 1.47 1.47-1.47a.75.75 0 0 1 1.061 1.061L20.062 17z"/></svg>