<svg xmlns="http://www.w3.org/2000/svg" width="24" height="24" fill="none"><path fill="currentColor" d="M18 3H6C4 3 3 4 3 6v15l3-3h12c2 0 3-1 3-3V6c0-2-1-3-3-3Zm-1.97 11.53a.748.748 0 0 1-1.06 0l-1.55-1.549a3.636 3.636 0 0 1-2.002.603 3.671 3.671 0 0 1-3.667-3.667 3.672 3.672 0 0 1 3.667-3.667 3.67 3.67 0 0 1 3.666 3.667c0 .74-.224 1.427-.602 2.004l1.55 1.55a.75.75 0 0 1-.002 1.059Zm-2.447-4.613a2.17 2.17 0 0 1-2.166 2.167A2.17 2.17 0 0 1 9.25 9.917a2.17 2.17 0 0 1 2.167-2.167 2.17 2.17 0 0 1 2.166 2.167Z"/></svg>