<svg xmlns="http://www.w3.org/2000/svg" width="24" height="24" fill="none"><path fill="currentColor" d="M20.629 7.443a3.54 3.54 0 0 1-.855.051c-1.726-.102-3.166-1.543-3.267-3.269-.017-.298 0-.58.051-.853.036-.191-.095-.371-.29-.371H6c-2 0-3 1-3 3v15l3-3h12c2 0 3-1 3-3V7.734c0-.196-.18-.327-.371-.291ZM8.02 11.5a1.005 1.005 0 0 1-1.005-1c0-.552.443-1 .995-1h.01a1 1 0 1 1 0 2Zm4 0a1.005 1.005 0 0 1-1.005-1c0-.552.443-1 .995-1h.01a1 1 0 1 1 0 2Zm4 0a1.005 1.005 0 0 1-1.005-1c0-.552.443-1 .995-1h.01a1 1 0 1 1 0 2ZM20 6a2 2 0 1 1 0-4 2 2 0 0 1 0 4Z"/></svg>