<svg xmlns="http://www.w3.org/2000/svg" width="24" height="24" fill="none"><path fill="currentColor" d="M17 12.333v-7C17 3.778 16.222 3 14.667 3H5.334c-1.555 0-2.333.778-2.333 2.333V17l2.333-2.333h9.333c1.555 0 2.333-.778 2.333-2.334m-6.223-1.194h-3.89a.75.75 0 0 1 0-1.5h3.89a.75.75 0 0 1 0 1.5m2.334-3.111H6.888a.75.75 0 0 1 0-1.5h6.223a.75.75 0 0 1 0 1.5M21 11v10l-2-2h-8c-1.33 0-2-.67-2-2v-.521c0-.213.16-.309.305-.309h5.365c2.4 0 3.83-1.44 3.83-3.84V9.3c0-.233.203-.3.298-.3H19c1.33 0 2 .67 2 2"/></svg>