<svg xmlns="http://www.w3.org/2000/svg" width="24" height="24" fill="none"><path fill="currentColor" d="M16.36 6c-1.64 0-2.93 1.2-4.09 2.74C10.67 6.76 9.34 6 7.74 6 4.5 6 2 10.14 2 14.53 2 17.27 3.36 19 5.63 19c1.64 0 2.81-.75 4.9-4.33 0 0 .87-1.51 1.47-2.54.21.34.44.7.67 1.08l.97 1.62c1.91 3.12 2.99 4.18 4.91 4.18 2.21 0 3.44-1.75 3.44-4.56 0-4.58-2.54-8.44-5.64-8.44l.01-.01Zm-7.41 7.7c-1.7 2.6-2.29 3.19-3.23 3.19s-1.56-.84-1.56-2.32c0-3.19 1.63-6.44 3.56-6.44 1.06 0 1.93.59 3.27 2.47-1.27 1.9-2.04 3.1-2.04 3.1Zm9.66 3.19c-.97 0-1.43-.63-3.26-3.51l-1.17-1.92c-.33-.5-.63-.98-.91-1.4 1.06-1.59 1.93-2.39 2.96-2.39 2.16 0 3.89 3.1 3.89 6.91 0 1.45-.49 2.31-1.5 2.31h-.01Z"/></svg>