<svg xmlns="http://www.w3.org/2000/svg" width="24" height="24" fill="none"><path fill="currentColor" d="M19.75 21a.75.75 0 0 1-.75.75H6a.75.75 0 0 1 0-1.5h5.75v-.517a6.741 6.741 0 0 1-5.339-2.983H5a.75.75 0 0 1 0-1.5h5a.75.75 0 0 1 0 1.5H8.335A5.253 5.253 0 0 0 12 18.25 5.256 5.256 0 0 0 17.25 13a5.207 5.207 0 0 0-1.901-4.033l-2.69 2.69c-.393.394-.802.593-1.216.593-.414 0-.823-.2-1.217-.593l-1.115-1.115c-.796-.796-.796-1.638 0-2.433l4.766-4.766c.662-.661 1.354-.765 2.026-.327a.728.728 0 0 1 .196-.407.75.75 0 0 1 1.061 0l1 1a.75.75 0 0 1 0 1.061.734.734 0 0 1-.408.196c.172.266.268.536.268.81 0 .413-.2.822-.594 1.215l-1.014 1.014A6.699 6.699 0 0 1 18.751 13c0 3.295-2.374 6.04-5.5 6.629v.621h5.75a.75.75 0 0 1 .749.75M8.514 12.907c.424.424.834.424 1.259 0l.113-.113c.071-.071.05-.163-.007-.219l-1.683-1.683c-.057-.057-.148-.078-.219-.007l-.113.113c-.424.424-.424.834 0 1.26z"/></svg>