<svg xmlns="http://www.w3.org/2000/svg" width="24" height="24" fill="none"><path fill="currentColor" d="m13.492 14.182-3.674-3.674a.3.3 0 0 0-.439.016L3.55 17.26c-.77.89-.73 2.24.11 3.08.44.44 1.02.66 1.6.66.53 0 1.06-.18 1.48-.55l6.736-5.829a.3.3 0 0 0 .016-.44Zm-3.015.401-.993.992a.748.748 0 0 1-1.06-.001.75.75 0 0 1 0-1.061l.993-.992a.752.752 0 0 1 1.061 0 .752.752 0 0 1 0 1.062Zm9.096-4.07-6.086-6.086a.307.307 0 0 1 .028-.459c1.826-1.368 4.101-1.338 5.978.539 1.877 1.877 1.907 4.152.54 5.978a.307.307 0 0 1-.46.028M11.926 5.44C10.6 6.767 10.377 7.946 10.55 9.043a.31.31 0 0 0 .088.17l4.145 4.145a.308.308 0 0 0 .17.088c1.097.173 2.276-.049 3.603-1.376 0 0 .232-.217.007-.441l-6.186-6.186c-.235-.236-.45-.003-.45-.003Z"/></svg>