<svg xmlns="http://www.w3.org/2000/svg" width="24" height="24" fill="none"><path fill="currentColor" d="M18 13c-2.21 0-4 1.79-4 4s1.79 4 4 4 4-1.79 4-4-1.79-4-4-4m1.42 5.42a.47.47 0 0 1-.35.15.47.47 0 0 1-.35-.15l-1.07-1.07a.47.47 0 0 1-.15-.35v-1.5c0-.28.22-.5.5-.5s.5.22.5.5v1.29l.92.93c.2.19.2.51 0 .7M17 4H5C3 4 2 5 2 7v8c0 2 1 3 3 3h7.23c.17 0 .31-.14.31-.31A5.51 5.51 0 0 1 18 11.5c.56 0 1.1.08 1.6.24.2.06.4-.08.4-.28V7c0-2-1-3-3-3M5 12c-.55 0-1-.45-1-1s.45-1 1-1 1 .45 1 1-.45 1-1 1m6 2c-1.66 0-3-1.34-3-3s1.34-3 3-3 3 1.34 3 3-1.34 3-3 3"/></svg>