<svg xmlns="http://www.w3.org/2000/svg" width="24" height="24" fill="none"><path fill="currentColor" d="M3.001 11.8a.75.75 0 0 1-.747-.831 9.638 9.638 0 0 1 5.355-7.642.75.75 0 0 1 1.081.674v3.05a.75.75 0 0 1-1.5 0v-1.74a8.136 8.136 0 0 0-3.444 5.821.751.751 0 0 1-.745.668m13.39 8.873a9.635 9.635 0 0 0 5.355-7.642.75.75 0 1 0-1.491-.163 8.136 8.136 0 0 1-3.444 5.822v-1.741a.75.75 0 0 0-1.5 0v3.05a.75.75 0 0 0 1.08.674M20 4.5v4c0 1-.5 1.5-1.5 1.5h-6c-1 0-1.5-.5-1.5-1.5v-4c0-1 .5-1.5 1.5-1.5h6c1 0 1.5.5 1.5 1.5m-3.25 2a1.25 1.25 0 1 0-2.5 0 1.25 1.25 0 0 0 2.5 0m-3.75 9v4c0 1-.5 1.5-1.5 1.5h-6c-1 0-1.5-.5-1.5-1.5v-4c0-1 .5-1.5 1.5-1.5h6c1 0 1.5.5 1.5 1.5m-3.25 2a1.25 1.25 0 1 0-2.5 0 1.25 1.25 0 0 0 2.5 0"/></svg>