<svg xmlns="http://www.w3.org/2000/svg" width="24" height="24" fill="none"><path fill="currentColor" d="M16.077 18.93c.157.394.291.882.343 1.46.03.28-.06.57-.26.78-.18.21-.45.33-.73.33H8.58a1 1 0 0 1-.74-.33c-.19-.21-.28-.5-.26-.78.06-.577.187-1.065.343-1.458a.296.296 0 0 1 .28-.182h7.595c.122 0 .234.068.279.18M21 9.25h-4.83l1.86-2.04c.16-.17.39-.28.62-.24.11.02.22.03.34.03.82 0 1.54-.43 1.85-1.19.7-1.73-.98-3.38-2.71-2.62C17.42 3.5 17 4.23 17 5v.01c0 .24-.1.47-.29.61l-4.77 3.63H3c-.41 0-.75.34-.75.75s.34.75.75.75h.53c.197 2.784 1.255 5.006 3.002 6.43.056.046.127.07.2.07h10.536a.314.314 0 0 0 .199-.07c1.748-1.414 2.806-3.646 3.002-6.43h.53c.41 0 .75-.34.75-.75A.754.754 0 0 0 21 9.25"/></svg>