<svg xmlns="http://www.w3.org/2000/svg" width="24" height="24" fill="none"><path fill="currentColor" d="M5.797 16.385C5.342 15.797 5 15.012 5 14c0-4 6-3.5 7-6.5 1 3 7 2.5 7 6.5a3.818 3.818 0 0 1-.797 2.385.306.306 0 0 1-.242.115H6.041a.309.309 0 0 1-.244-.115M17.5 18h-11c-1 0-1.5.5-1.5 1.5v1a.5.5 0 0 0 .5.5h13a.5.5 0 0 0 .5-.5v-1c0-1-.5-1.5-1.5-1.5M11.726 6.978a2.03 2.03 0 0 0 2.27-1.489c.018-.068-.059-.121-.118-.081-.288.197-.65.296-1.041.244a1.437 1.437 0 0 1-.759-2.519c.053-.046.023-.133-.048-.133h-.002c-.744 0-1.394.394-1.747.982a1.97 1.97 0 0 0-.267 1.26 2.013 2.013 0 0 0 1.712 1.736"/></svg>