<svg xmlns="http://www.w3.org/2000/svg" width="24" height="24" fill="none"><path fill="currentColor" d="M2.25 7A.75.75 0 0 1 3 6.25h9a.75.75 0 0 1 0 1.5H3A.75.75 0 0 1 2.25 7m8.5 5a.75.75 0 0 0-.75-.75H3a.75.75 0 0 0 0 1.5h7a.75.75 0 0 0 .75-.75M7 16.25H3a.75.75 0 0 0 0 1.5h4a.75.75 0 0 0 0-1.5M20.975 5.752c-.349-.264-.828-.322-1.383-.167l-3.092.868a1.853 1.853 0 0 0-1.333 1.767v5.305a2.808 2.808 0 0 0-1.834-.691 2.836 2.836 0 0 0-2.833 2.833 2.836 2.836 0 0 0 2.833 2.833 2.837 2.837 0 0 0 2.834-2.833V12c0-.441.258-.836.607-.938l3.626-1.013c.678-.188 1.1-.708 1.1-1.355V7.027c0-.582-.177-1.011-.525-1.275"/></svg>