<svg xmlns="http://www.w3.org/2000/svg" width="24" height="24" fill="none"><path fill="currentColor" d="M20.561 7.561 16.44 3.44A1.5 1.5 0 0 0 15.379 3H8.622c-.398 0-.779.158-1.061.439L3.44 7.56A1.5 1.5 0 0 0 3 8.622v6.757c0 .398.158.779.439 1.06l4.121 4.122A1.5 1.5 0 0 0 8.621 21h6.757c.398 0 .779-.158 1.06-.439l4.122-4.121a1.5 1.5 0 0 0 .44-1.061V8.622a1.5 1.5 0 0 0-.439-1.061M15.03 13.97a.75.75 0 0 1-1.06 1.061L12 13.061l-1.97 1.97a.748.748 0 0 1-1.06 0 .75.75 0 0 1 0-1.061L10.94 12l-1.97-1.97a.75.75 0 1 1 1.061-1.061l1.97 1.97 1.97-1.97a.75.75 0 0 1 1.061 1.061L13.062 12z"/></svg>