<svg xmlns="http://www.w3.org/2000/svg" width="24" height="24" fill="none"><path fill="currentColor" d="M20.7 10.75H3.3a.3.3 0 0 0-.3.3V18c0 2 1 3 3 3h12c2 0 3-1 3-3v-6.95a.3.3 0 0 0-.3-.3m-7.031 7.608a1.987 1.987 0 0 1-.934.543v.1a.75.75 0 0 1-1.5 0v-.108a2.043 2.043 0 0 1-1.474-1.755.75.75 0 0 1 1.492-.161c.03.284.25.498.51.498h.473a.493.493 0 0 0 .353-.155.58.58 0 0 0 .161-.405.553.553 0 0 0-.396-.546l-1.084-.279a2.018 2.018 0 0 1-1.104-.745 2.08 2.08 0 0 1-.415-1.253c0-.948.632-1.74 1.485-1.979V12a.75.75 0 0 1 1.5 0v.1a2.042 2.042 0 0 1 1.503 1.764.75.75 0 0 1-1.492.161c-.03-.283-.25-.497-.51-.497h-.473c-.283 0-.514.251-.514.561 0 .13.04.255.113.35a.507.507 0 0 0 .283.196l1.084.279a2.057 2.057 0 0 1 1.52 1.998c0 .543-.206 1.057-.581 1.446M3.326 8.868 4.38 5.18C4.75 3.89 5 3 7.26 3h3.69a.3.3 0 0 1 .3.3v5.65a.3.3 0 0 1-.3.3H3.614a.3.3 0 0 1-.288-.382m9.424.082V3.3a.3.3 0 0 1 .3-.3h3.69c2.26 0 2.51.89 2.88 2.18l1.054 3.688a.3.3 0 0 1-.288.382H13.05a.3.3 0 0 1-.3-.3"/></svg>