<svg xmlns="http://www.w3.org/2000/svg" width="24" height="24" fill="none"><path fill="currentColor" d="M15.26 20.392a4.751 4.751 0 0 1-1.2.368l-6.57 1.15c-2.19.39-3.481-.51-3.861-2.7l-1.54-8.75c-.39-2.19.51-3.48 2.7-3.87l1.798-.316a.3.3 0 0 1 .347.348L5.758 13.28c-.53 3.03.9 5.07 3.92 5.6 0 0 5.22.917 5.488.969.332.06.385.414.094.543m6.653-13.286L20.37 15.86c-.372 2.108-1.588 3.009-3.633 2.729-.078-.011-.148-.011-.229-.025l-6.565-1.158c-2.189-.386-3.09-1.673-2.704-3.862l1.343-7.616.201-1.138c.386-2.189 1.673-3.09 3.862-2.704l6.566 1.158c2.188.386 3.09 1.674 2.703 3.862Zm-6.359 6.79a.75.75 0 0 0-.608-.87l-4.104-.723a.75.75 0 1 0-.26 1.477l4.104.724a.748.748 0 0 0 .868-.608m3.043-2.861a.75.75 0 0 0-.608-.869l-6.565-1.158a.75.75 0 0 0-.26 1.477l6.565 1.158a.75.75 0 0 0 .868-.608m.7-3.262a.75.75 0 0 0-.608-.869l-6.565-1.158a.751.751 0 0 0-.26 1.477l6.565 1.158a.748.748 0 0 0 .868-.608"/></svg>