<svg xmlns="http://www.w3.org/2000/svg" width="24" height="24" fill="none"><path fill="currentColor" d="M15.261 20.392a4.738 4.738 0 0 1-1.2.368L7.49 21.91c-2.19.39-3.48-.51-3.86-2.7l-1.54-8.75c-.39-2.19.51-3.48 2.7-3.87l1.798-.316a.3.3 0 0 1 .347.348L5.76 13.28c-.53 3.03.9 5.07 3.92 5.6 0 0 5.219.917 5.488.969.332.06.385.414.094.543Zm3.948-17.148-6.566-1.158c-2.188-.386-3.476.515-3.862 2.704l-.2 1.138-1.344 7.616c-.386 2.189.515 3.476 2.704 3.862l6.565 1.158c.081.014.151.014.23.025 2.043.281 3.26-.621 3.632-2.729l1.544-8.754c.387-2.188-.514-3.476-2.703-3.862Z"/></svg>