<svg xmlns="http://www.w3.org/2000/svg" width="24" height="24" fill="none"><path fill="currentColor" d="M18 5H6C4 5 3 6 3 8v8c0 2 1 3 3 3h12c2 0 3-1 3-3V8c0-2-1-3-3-3M6.05 12.25h-.54s-.08.03-.09.08l-.15.93s-.05.07-.08.07h-.6s-.02 0-.03-.01c-.03-.01-.06-.05-.05-.08l.5-3.17s.05-.08.09-.08h1.13c.7 0 1.2.55 1.1 1.18-.05.31-.2.59-.44.78-.23.2-.53.3-.83.3zm3.6 1.02s-.05.07-.09.07h-.57s-.02 0-.03-.01c-.03-.01-.06-.05-.05-.08v-.07c-.67.47-1.28.02-1.28.02-.66-.47-.37-1.32-.37-1.32.09-.29.31-.67.75-.85.78-.32 1.22.16 1.22.16l.02-.13s.05-.07.09-.07h.57s.02 0 .03.01c.03.01.05.05.05.08l-.35 2.18zm1.33.74h-.7a.065.065 0 0 1-.02-.09l.56-.9-.62-1.92v-.03c0-.03.03-.06.07-.06h.62s.07.03.08.06l.35 1.14.68-1.15s.06-.05.1-.05h.67s.05.01.06.03c.01.02.01.05 0 .07l-1.74 2.86s-.06.05-.09.05zm3.25-1.75h-.54s-.09.03-.09.08l-.15.93s-.05.07-.09.07h-.62s-.06-.06-.05-.09l.5-3.17s.05-.08.09-.08h1.13c.7 0 1.2.55 1.1 1.18-.05.31-.2.59-.44.78-.23.2-.53.3-.83.3zm3.6 1.02s-.05.07-.09.07h-.57s-.02 0-.03-.01c-.03-.01-.06-.05-.05-.08v-.07c-.67.47-1.28.02-1.28.02-.66-.47-.37-1.32-.37-1.32.09-.29.31-.67.75-.85.78-.32 1.22.16 1.22.16l.02-.13s.05-.07.08-.07h.58s.05.01.06.03c.01.01.02.03.02.06l-.35 2.18zm1.16 0s-.04.07-.09.07h-.61c-.04 0-.07-.05-.07-.09l.51-3.18s.04-.08.09-.07h.61c.04 0 .07.05.07.09zm-9.92-1.07c-.02.15-.09.29-.21.39a.703.703 0 0 1-.6.13.5.5 0 0 1-.35-.57c.02-.15.09-.29.22-.39.12-.1.27-.15.42-.15.07 0 .13.01.18.02.24.08.38.31.33.57zm5.65-1.05c-.03.23-.22.4-.57.4h-.44l.13-.84h.44c.36 0 .47.21.44.44m2.53 1.05c-.02.15-.09.29-.21.39a.703.703 0 0 1-.6.13.5.5 0 0 1-.35-.57c.02-.15.09-.29.21-.39.13-.09.28-.15.43-.15.06 0 .12.01.17.02a.5.5 0 0 1 .35.57M6.54 11.16c-.03.23-.22.4-.57.4h-.44l.13-.84h.44c.36 0 .47.21.44.44"/></svg>