<svg xmlns="http://www.w3.org/2000/svg" width="24" height="24" fill="none"><path fill="currentColor" d="M19.95 11.29c-.4 2.48-2.59 4.31-5.16 4.31h-1.63c-.27 0-.5.19-.54.44l-.73 4.52c-.04.25-.26.44-.52.44H9.06c-.25 0-.43-.22-.39-.47l1.18-7.15.15-.88h2.55c.35 0 .68-.03 1.02-.09.14-.02.28-.05.42-.09.83-.2 1.58-.58 2.21-1.1.13-.09.25-.2.36-.32.1-.09.19-.19.29-.29.18-.19.34-.4.48-.63a6.091 6.091 0 0 0 .43-.76c.09-.18.16-.37.22-.56.04-.11.07-.22.1-.33.01-.05.03-.09.04-.14.03-.14.06-.28.08-.42.02-.12.04-.25.04-.36 0 .01.01.01.01.01 1.26.85 1.95 2.29 1.7 3.87m-2.86-5.3a3.14 3.14 0 0 0-.22-.51c-.66-1.24-2.01-1.98-3.6-1.98H7.69c-.29 0-.55.21-.59.5L5.01 16.91s-.01.05-.01.07c0 .23.19.42.43.42h2.73l.08-.5.74-4.54c.08-.5.51-.86 1.01-.86h2.56c2.35 0 4.31-1.63 4.67-3.89.02-.16.04-.33.04-.48.01-.39-.05-.77-.17-1.14"/></svg>