<svg xmlns="http://www.w3.org/2000/svg" width="24" height="24" fill="none"><path fill="currentColor" d="M17.667 2H6.334C4.112 2 3.001 3.111 3.001 5.333v10c0 2.222 1.111 3.333 3.333 3.333h1.5c.525 0 1.019.247 1.333.667l1.5 2c.667.889 2 .889 2.667 0l1.5-2c.315-.42.809-.667 1.333-.667h1.5c2.222 0 3.333-1.111 3.333-3.333v-10C21 3.111 19.889 2 17.667 2M9.25 6.5a1.25 1.25 0 1 1 0 2.5 1.25 1.25 0 0 1 0-2.5m5.5 8a1.25 1.25 0 1 1 0-2.5 1.25 1.25 0 0 1 0 2.5m1.78-7.47-8 8a.748.748 0 0 1-1.06 0 .75.75 0 0 1 0-1.061l8-8a.75.75 0 1 1 1.06 1.061"/></svg>