<svg xmlns="http://www.w3.org/2000/svg" width="24" height="24" fill="none"><path fill="currentColor" d="m17.625 14.174 2.643 1.576c.546.326.828.96.703 1.584-.511 2.559-3.081 4.199-5.598 3.508A17.442 17.442 0 0 1 3.159 8.635c-.692-2.518.946-5.09 3.506-5.602l.017-.003a1.502 1.502 0 0 1 1.587.707l1.563 2.639a2.05 2.05 0 0 1-.63 2.752l-1.66 1.105a11.602 11.602 0 0 0 6.21 6.226l1.116-1.665a2.053 2.053 0 0 1 2.757-.62Zm3.067-10.461a.755.755 0 0 0-.693-.464h-3.333a.75.75 0 0 0 0 1.5h1.522l-3.72 3.72a.75.75 0 0 0 1.06 1.061l3.72-3.72v1.523a.75.75 0 0 0 1.5 0V4a.713.713 0 0 0-.056-.287Z"/></svg>