<svg xmlns="http://www.w3.org/2000/svg" width="24" height="24" fill="none"><path fill="currentColor" d="M6.25 19c0 .572.147 1.104.403 1.566A.295.295 0 0 1 6.39 21H5c-2 0-3-1-3-3V7c0-1.44.523-2.365 1.562-2.761.137-.052.438-.005.438.264V16.5c0 1.46.86 2.39 2.25 2.49V19Zm4.25.75h-1a.75.75 0 0 1-.75-.75v-1h.75c1 0 1.5-.5 1.5-1.5v-13c0-1-.5-1.5-1.5-1.5h-3C5.5 2 5 2.5 5 3.5v13c0 1 .5 1.5 1.5 1.5h.75v1c0 1.241 1.01 2.25 2.25 2.25h1a.75.75 0 0 1 .75.75.75.75 0 0 0 1.5 0c0-1.241-1.01-2.25-2.25-2.25ZM22 7v11c0 2-1 3-3 3h-5.205a.294.294 0 0 1-.274-.193 3.242 3.242 0 0 0-2.811-2.047c.82-.38 1.29-1.18 1.29-2.26V4.3a.3.3 0 0 1 .3-.3H19c2 0 3 1 3 3Zm-6 10a1 1 0 1 0-2 0 1 1 0 0 0 2 0Zm0-3a1 1 0 1 0-2 0 1 1 0 0 0 2 0Zm3 3a1 1 0 1 0-2 0 1 1 0 0 0 2 0Zm0-3a1 1 0 1 0-2 0 1 1 0 0 0 2 0Zm.5-4.5A1.5 1.5 0 0 0 18 8h-3a1.5 1.5 0 0 0 0 3h3a1.5 1.5 0 0 0 1.5-1.5Z"/></svg>