<svg xmlns="http://www.w3.org/2000/svg" width="24" height="24" fill="none"><path fill="currentColor" d="M21 17.032c0 .1-.01.2-.03.3-.51 2.56-3.08 4.2-5.601 3.51a17.327 17.327 0 0 1-5.255-2.45.306.306 0 0 1-.039-.466l2.045-2.045a.293.293 0 0 1 .354-.046c.41.234.835.445 1.276.627l1.12-1.67c.61-.9 1.82-1.18 2.75-.62l2.65 1.58c.45.28.73.77.73 1.28m.53-14.562a.75.75 0 0 0-1.061 0L9.532 13.407a11.553 11.553 0 0 1-1.994-3.175l1.66-1.1c.91-.61 1.19-1.82.63-2.75l-1.56-2.64a1.5 1.5 0 0 0-1.59-.71h-.01c-2.56.52-4.2 3.09-3.51 5.6a17.445 17.445 0 0 0 3.977 7.173L2.469 20.47a.75.75 0 0 0 1.06 1.061l18-18a.75.75 0 0 0 .001-1.061"/></svg>