<svg xmlns="http://www.w3.org/2000/svg" width="24" height="24" fill="none"><path fill="currentColor" d="M21.243 19.455c-.315.449-.898.627-1.43.492l-2.74-.692a1.877 1.877 0 0 1-1.378-2.185l.356-1.801a10.64 10.64 0 0 0-8.062.01l.36 1.787a1.881 1.881 0 0 1-1.375 2.195l-2.724.697a1.376 1.376 0 0 1-1.487-.57l-.01-.013c-1.457-2.176-.728-5.136 1.565-6.396a15.996 15.996 0 0 1 15.623.118c2.106 1.198 2.698 4.373 1.302 6.358M17.53 3.47a.75.75 0 0 0-1.061 0l-3.586 3.586a1.253 1.253 0 0 1-1.768 0L8.809 4.75h1.19a.75.75 0 0 0 0-1.5H7a.751.751 0 0 0-.75.751v3a.75.75 0 0 0 1.5 0V5.812l2.306 2.306A2.74 2.74 0 0 0 12 8.922a2.74 2.74 0 0 0 1.944-.804l3.586-3.586a.75.75 0 0 0 .001-1.062Z"/></svg>