<svg xmlns="http://www.w3.org/2000/svg" width="24" height="24" fill="none"><path fill="currentColor" d="M21.75 7.978a5.69 5.69 0 0 0-1.678-4.05 5.69 5.69 0 0 0-4.05-1.678c-1.53 0-2.969.596-4.05 1.678L7.95 7.95l-4.02 4.02-.002.002a5.81 5.81 0 0 0-.72.876c-.021.03-.032.067-.052.098a5.651 5.651 0 0 0-.474.888c-.014.033-.018.069-.031.103a5.573 5.573 0 0 0-.291.966c-.004.02-.002.04-.006.059-.064.346-.104.7-.104 1.06v.008c0 .36.039.714.104 1.06.004.02.002.04.006.059.043.217.123.422.191.631a5.669 5.669 0 0 0 1.377 2.293c.253.253.53.475.819.673.018.013.034.031.052.043.143.096.301.16.451.242.177.097.347.208.533.285.171.07.354.107.53.161.179.054.352.126.536.162.368.073.745.111 1.128.111h.002c.141 0 .275-.031.414-.041.239-.017.48-.024.712-.07.032-.007.062-.022.095-.029a5.677 5.677 0 0 0 2.796-1.513c.01-.01.023-.017.033-.027l4.02-4.02 4.022-4.022a5.688 5.688 0 0 0 1.679-4.05ZM8.12 13.33l-.76.76c-.66.66-.98 1.57-.89 2.5a.76.76 0 0 1-.67.83h-.08c-.38 0-.7-.29-.74-.68a4.57 4.57 0 0 1 1.32-3.71l.76-.76c.3-.29.77-.29 1.06 0 .3.29.3.77 0 1.06Zm6.869 1.659L9.01 9.01l4.022-4.022a4.202 4.202 0 0 1 2.989-1.238c1.129 0 2.19.44 2.989 1.238a4.198 4.198 0 0 1 1.238 2.989c0 1.129-.439 2.19-1.238 2.99l-4.021 4.022Z"/></svg>