<svg xmlns="http://www.w3.org/2000/svg" width="24" height="24" fill="none"><path fill="currentColor" d="M21.5 19a2.5 2.5 0 0 1-5 0 2.5 2.5 0 0 1 5 0ZM18.12 4.88c-2.33-2.33-5.8-2.68-8.48 0l-.96.98c-.79.79-1.22 1.39-1.46 1.94-.05.11-.02.24.07.33l7.59 7.59c.09.09.21.12.33.07.55-.24 1.15-.66 1.94-1.46l.98-.96c2.68-2.68 2.33-6.15 0-8.48l-.01-.01ZM7.08 10.03c-.11-.11-.15-.01-.15.06 0 .53.07 1.08.22 1.61.28 1 .06 2.09-.68 2.83l-3.33 3.33c-.19.19-.18.49 0 .67l1.34 1.34c.18.18.48.19.67 0l3.33-3.33c.74-.74 1.83-.96 2.83-.68.53.15 1.08.22 1.61.22.07 0 .16-.05.08-.13l-5.92-5.92Z"/></svg>