<svg xmlns="http://www.w3.org/2000/svg" width="24" height="24" fill="none"><path fill="currentColor" d="M8.01 20.22c-.1-.87-.18-2.22.04-3.17.2-.86 1.29-5.48 1.29-5.48s-.33-.66-.33-1.64c0-1.53.88-2.68 1.98-2.68.94 0 1.39.71 1.39 1.55 0 .95-.6 2.36-.91 3.67-.26 1.1.55 1.99 1.62 1.99 1.95 0 3.45-2.07 3.45-5.05 0-2.64-1.89-4.49-4.58-4.49-3.12 0-4.95 2.35-4.95 4.79 0 .95.36 1.97.82 2.52.09.11.1.21.08.32-.08.35-.27 1.1-.3 1.25-.05.2-.16.24-.37.15-1.37-.64-2.23-2.66-2.23-4.27C5.01 6.2 7.52 3 12.25 3c3.8 0 6.76 2.73 6.76 6.37 0 3.8-2.38 6.86-5.69 6.86-1.11 0-2.15-.58-2.51-1.27 0 0-.55 2.11-.68 2.62-.25.96-1.35 2.84-2.02 3.41l-.09-.78z"/></svg>