<svg xmlns="http://www.w3.org/2000/svg" width="24" height="24" fill="none"><path fill="currentColor" d="M16.34 19.14c.15.04.23.19.18.34-.38 1.23-1.74 1.84-2.93 1.34-2.27-.95-4.39-2.35-6.23-4.19a19.491 19.491 0 0 1-4.19-6.23c-.5-1.19.11-2.55 1.34-2.93.15-.05.3.04.34.18a16.967 16.967 0 0 0 11.49 11.49Zm4.57-13.75S17.7 15.66 17.12 17.5c-.05.16-.22.25-.38.2A15.52 15.52 0 0 1 6.29 7.26c-.05-.16.04-.33.2-.38 1.84-.58 12.11-3.8 12.11-3.8 1.42-.44 2.75.89 2.3 2.3l.01.01ZM12.27 9a1.25 1.25 0 0 0-2.5 0c0 .69.57 1.25 1.25 1.25s1.25-.56 1.25-1.25Zm3.75 4c0-.55-.45-1-1-1s-1 .45-1 1 .45 1 1 1 1-.45 1-1Zm.75-5a.749.749 0 1 0-1.498-.002A.749.749 0 0 0 16.77 8Z"/></svg>