<svg xmlns="http://www.w3.org/2000/svg" width="24" height="24" fill="none"><path fill="currentColor" d="M15 12c0 1.65-1.35 3-3 3s-3-1.35-3-3 1.35-3 3-3 3 1.35 3 3m3.37 3.69c.19.05.28.28.18.44A7.753 7.753 0 0 1 12 19.75c-2.22 0-4.22-.93-5.64-2.43a.344.344 0 0 1-.08-.21v-4.63c0-.11.07-.21.17-.26A4.25 4.25 0 0 0 8.81 8.4V5.51c0-.08 0-.16-.02-.24-.01-.1-.01-.15.02-.22.05-.1.09-.15.19-.19a7.73 7.73 0 0 1 3-.61c2.01 0 3.84.77 5.22 2.02.09.09.12.22.07.34-.34.82-.55 1.82-.55 3.06v3.94c0 1 .69 1.85 1.62 2.08zM16 12c0-2.21-1.79-4-4-4s-4 1.79-4 4 1.79 4 4 4 4-1.79 4-4m6-7.75s-2.86.04-3.88 3c-.23.65-.37 1.45-.37 2.42v3.94c0 .63.51 1.14 1.14 1.14h2.36V19c0 .41.34.75.75.75s.75-.34.75-.75V5c0-.41-.34-.75-.75-.75m-14.94.5c-.42 0-.75.34-.75.75v2.89s-.01.02-.01.03H5.28V5.5c0-.41-.34-.75-.75-.75s-.75.34-.75.75v2.92H2.75V5.5c0-.41-.34-.75-.75-.75s-.75.34-.75.75v2.89a3.27 3.27 0 0 0 2.53 3.18v6.93a.749.749 0 1 0 1.5 0v-6.93c1.44-.34 2.53-1.63 2.53-3.18V5.48a.758.758 0 0 0-.75-.73"/></svg>