<svg xmlns="http://www.w3.org/2000/svg" width="24" height="24" fill="none"><path fill="currentColor" d="M17.625 3H6.375C4.125 3 3 4.125 3 6.375v11.25C3 19.875 4.125 21 6.375 21h11.25C19.875 21 21 19.875 21 17.625V6.375C21 4.125 19.875 3 17.625 3M11.25 7a.75.75 0 0 1 1.5 0v4.444a.75.75 0 0 1-1.5 0zM12 17.75a5.2 5.2 0 0 1-5.194-5.194c0-1.384.542-2.688 1.526-3.673a.751.751 0 0 1 1.061 1.061 3.673 3.673 0 0 0-1.087 2.612A3.698 3.698 0 0 0 12 16.25a3.698 3.698 0 0 0 3.694-3.694c0-.983-.386-1.91-1.087-2.612a.75.75 0 1 1 1.061-1.06 5.165 5.165 0 0 1 1.526 3.672A5.2 5.2 0 0 1 12 17.75"/></svg>