<svg xmlns="http://www.w3.org/2000/svg" width="24" height="24" fill="none"><path fill="currentColor" d="M21 2.25H3a.75.75 0 0 0 0 1.5h1V13c0 2.29 1.21 3.5 3.5 3.5h3.75v2.1l-2.67 1.78c-.34.23-.43.69-.2 1.04.23.34.69.43 1.04.2L12 19.9l2.58 1.72a.751.751 0 0 0 .84-1.24l-2.67-1.78v-2.1h3.75c2.29 0 3.5-1.21 3.5-3.5V3.75h1a.75.75 0 0 0 0-1.5m-4.47 6.18-2.235 2.235a1.55 1.55 0 0 1-2.19.002l-1.271-1.269-2.303 2.232a.748.748 0 0 1-1.06 0 .75.75 0 0 1 0-1.061l2.232-2.232a1.552 1.552 0 0 1 2.191 0l1.271 1.268 2.306-2.235a.75.75 0 1 1 1.059 1.06"/></svg>