<svg xmlns="http://www.w3.org/2000/svg" width="24" height="24" fill="none"><path fill="currentColor" d="M21 2.25H3a.75.75 0 0 0 0 1.5h1V13c0 2.29 1.21 3.5 3.5 3.5h3.75v2.1l-2.67 1.78c-.34.23-.43.69-.2 1.04.23.34.69.43 1.04.2L12 19.9l2.58 1.72a.751.751 0 0 0 .84-1.24l-2.67-1.78v-2.1h3.75c2.29 0 3.5-1.21 3.5-3.5V3.75h1a.75.75 0 0 0 0-1.5m-7.424 10.657a3.578 3.578 0 0 1-1.98.593 3.588 3.588 0 0 1-3.516-2.827 3.614 3.614 0 0 1 .514-2.75 3.62 3.62 0 0 1 2.293-1.548.505.505 0 0 1 .42.106c.122.1.193.248.193.406V9.46c0 .298.242.541.541.541h2.574a.519.519 0 0 1 .511.613 3.634 3.634 0 0 1-1.55 2.293m2.292-3.917a.542.542 0 0 1-.408.186h-2.598a.538.538 0 0 1-.537-.537V6.041a.54.54 0 0 1 .611-.535 3.606 3.606 0 0 1 3.06 3.06.54.54 0 0 1-.128.424"/></svg>