<svg xmlns="http://www.w3.org/2000/svg" width="24" height="24" fill="none"><path fill="currentColor" d="M21 2.25H3a.75.75 0 0 0 0 1.5h1V13c0 2.29 1.21 3.5 3.5 3.5h3.75v2.1l-2.67 1.78c-.34.23-.43.69-.2 1.04.23.34.69.43 1.04.2L12 19.9l2.58 1.72a.751.751 0 0 0 .84-1.24l-2.67-1.78v-2.1h3.75c2.29 0 3.5-1.21 3.5-3.5V3.75h1a.75.75 0 0 0 0-1.5m-4.25 7.907a.75.75 0 0 1-1.5 0v-.689l-1.558 1.558a1.442 1.442 0 0 1-2.038 0l-1.179-1.179-1.944 2.027a.748.748 0 0 1-1.06 0 .75.75 0 0 1 0-1.061l2.027-2.027a1.442 1.442 0 0 1 2.038 0l1.179 1.179 1.512-1.558H13.5a.75.75 0 0 1 0-1.5H16a.75.75 0 0 1 .693.464.75.75 0 0 1 .058.287v2.499z"/></svg>