<svg xmlns="http://www.w3.org/2000/svg" width="24" height="24" fill="none"><path fill="currentColor" d="M17.625 3H6.375C4.125 3 3 4.125 3 6.375v11.25C3 19.875 4.125 21 6.375 21h11.25C19.875 21 21 19.875 21 17.625V6.375C21 4.125 19.875 3 17.625 3M12.02 17.5a1.005 1.005 0 0 1-1.005-1c0-.552.443-1 .995-1h.01a1 1 0 1 1 0 2m1.583-4.972c-.731.49-.867.763-.892.835a.75.75 0 1 1-1.422-.478c.181-.54.65-1.049 1.478-1.604 1.021-.684.89-1.434.847-1.68-.113-.654-.664-1.211-1.311-1.325a1.617 1.617 0 0 0-1.349.354 1.667 1.667 0 0 0-.595 1.28.75.75 0 0 1-1.5 0c0-.941.412-1.826 1.131-2.429a3.142 3.142 0 0 1 2.574-.681c1.267.224 2.306 1.271 2.527 2.545.22 1.262-.309 2.393-1.488 3.183"/></svg>