<svg xmlns="http://www.w3.org/2000/svg" width="24" height="24" fill="none"><path fill="currentColor" d="m18.4 4.579-1.359 1.019a1.501 1.501 0 0 1-1.961-.139L13.061 3.44a1.5 1.5 0 0 0-2.121 0L8.92 5.459a1.5 1.5 0 0 1-1.961.139L5.601 4.579a1 1 0 0 0-1.6.8v13.243a1 1 0 0 0 1.6.8l1.359-1.019a1.501 1.501 0 0 1 1.961.139l2.019 2.019a1.5 1.5 0 0 0 2.121 0l2.019-2.019a1.5 1.5 0 0 1 1.961-.139l1.359 1.019a1 1 0 0 0 1.6-.8V5.379a1 1 0 0 0-1.6-.8m-2.475 6.965C15.403 14.213 12 15.75 12 15.75s-3.403-1.537-3.925-4.206c-.32-1.638.379-3.285 2.156-3.294 1.324-.006 1.768 1.318 1.768 1.318s.444-1.325 1.768-1.318c1.782.009 2.478 1.656 2.158 3.294"/></svg>