<svg xmlns="http://www.w3.org/2000/svg" width="24" height="24" fill="none"><path fill="currentColor" d="M18.96 10.22c-.48.02-.94.21-1.29.55-1.43-.97-3.14-1.6-4.87-1.72l.85-3.75 1.86.37c.16 1 1.02 1.78 2.07 1.78a2.1 2.1 0 1 0 0-4.2c-.74 0-1.38.38-1.76.96l-2.59-.52c-.4-.08-.79.17-.88.57l-1.04 4.57c-.01.06-.03.14-.05.23-1.76.09-3.47.64-4.93 1.63a1.975 1.975 0 1 0-2.18 3.23c-.02.2-.02.4 0 .59 0 3.03 3.53 5.49 7.88 5.49s7.88-2.46 7.88-5.49c.02-.2.02-.4 0-.59.68-.34 1.11-1.04 1.09-1.8a1.969 1.969 0 0 0-2.04-1.9Zm-1.38-5.47c.33 0 .6.27.6.6 0 .33-.27.6-.6.6-.33 0-.6-.27-.6-.6 0-.33.27-.6.6-.6ZM7.49 13.47a1.35 1.35 0 1 1 2.699.002 1.35 1.35 0 0 1-2.699-.002Zm7.85 3.77s-1.34.99-3.34.99c-1.2.05-2.38-.32-3.34-1.04a.354.354 0 0 1 .05-.51c.13-.11.33-.11.46 0 .81.6 1.66.85 2.81.85 1.15 0 2-.24 2.82-.82.15-.15.39-.14.53 0 .15.15.14.39 0 .53h.01Zm-.24-2.42c-.75 0-1.35-.61-1.35-1.35 0-.74.61-1.35 1.35-1.35.74 0 1.35.61 1.35 1.35 0 .74-.6 1.35-1.35 1.35Z"/></svg>