<svg xmlns="http://www.w3.org/2000/svg" width="24" height="24" fill="none"><path fill="currentColor" d="M20.74 20.89c.06.41-.23.79-.64.85h-.11c-.37 0-.69-.27-.74-.64l-.76-5.35a4.3 4.3 0 0 0-1.2-2.4l-3.71-3.71a.833.833 0 0 0-1.17 0 .83.83 0 0 0-.12 1.02l4.34 6.94a.747.747 0 1 1-1.27.79l-.62-.98c-.33.2-.77.34-1.39.34H8.31c.85 1.36 1.4 1.92 2.21 2.72.29.29.29.77 0 1.06-.15.15-.34.22-.53.22s-.38-.07-.53-.22c-.95-.95-1.66-1.67-2.9-3.79-1.51-.03-2.32-.85-2.32-2.38V4.64c0-1.56.83-2.39 2.39-2.39h6.72c1.56 0 2.39.83 2.39 2.39v5.05l2.6 2.6a5.84 5.84 0 0 1 1.63 3.25l.76 5.35z"/></svg>