<svg xmlns="http://www.w3.org/2000/svg" width="24" height="24" fill="none"><path fill="currentColor" d="M14.25 10c0 .689-.561 1.25-1.25 1.25H9.75v-2.5H13c.689 0 1.25.561 1.25 1.25ZM21 6.375v11.25C21 19.875 19.875 21 17.625 21H6.375C4.125 21 3 19.875 3 17.625V6.375C3 4.125 4.125 3 6.375 3h11.25C19.875 3 21 4.125 21 6.375Zm-6.902 6.143A2.751 2.751 0 0 0 15.75 10 2.752 2.752 0 0 0 13 7.25H9a.75.75 0 0 0-.75.75v8a.75.75 0 0 0 1.5 0v-3.25h2.786l1.793 3.585a.75.75 0 0 0 1.342-.67l-1.573-3.147Z"/></svg>