<svg xmlns="http://www.w3.org/2000/svg" width="24" height="24" fill="none"><path fill="currentColor" d="M4 12.5c0 .715.165 1.404.492 2.048a1.001 1.001 0 0 1-1.784.904A6.566 6.566 0 0 1 2 12.5C2 8.673 4.673 6 8.5 6h6.086l-.293-.293a.999.999 0 1 1 1.414-1.414l2 1.999a1 1 0 0 1 0 1.416l-2 2a.997.997 0 0 1-1.414 0 .999.999 0 0 1 0-1.415L14.586 8H8.5C5.767 8 4 9.767 4 12.5Zm17.292-2.952a1.001 1.001 0 0 0-1.784.904c.327.645.492 1.333.492 2.048 0 2.733-1.767 4.5-4.5 4.5H9.414l.293-.293a1 1 0 1 0-1.414-1.414l-2 2a.999.999 0 0 0 0 1.414l2 2a.997.997 0 0 0 1.414 0 1 1 0 0 0 0-1.414L9.414 19H15.5c3.827 0 6.5-2.673 6.5-6.5a6.566 6.566 0 0 0-.708-2.952Z"/></svg>