<svg xmlns="http://www.w3.org/2000/svg" width="24" height="24" fill="none"><path fill="currentColor" d="M7.03 19.68c-.76.76-3.65 1.48-3.97 1.56H3c-.07 0-.13-.03-.18-.07-.06-.06-.09-.15-.06-.24.09-.34.91-3.35 1.66-4.11.39-.39.9-.61 1.41-.59.49.01.97.22 1.34.59.75.75.68 2.03-.15 2.86zm.71-12.36c-1.8.29-3.34 1.53-4.01 3.22l-.96 2.39c-.04.08-.02.18.04.25.05.06.12.09.19.09.02 0 .04 0 .05-.01l3.37-.75c.64-2.07 1.27-3.73 2.48-5.43zm3.77 10.26c2.05-.58 3.71-1.18 5.42-2.38l-.23 1.08c-.28 1.79-1.52 3.32-3.22 3.99l-2.39.96s-.06.02-.09.02c-.06 0-.12-.02-.16-.06a.243.243 0 0 1-.08-.24zm-3.24-7.31 5.51 5.5c-.63.26-1.29.48-2.02.69-.48.14-1 .28-1.54.43-.04 0-.09.02-.13.02-.13 0-.26-.05-.36-.15l-2.52-2.52a.49.49 0 0 1-.12-.5c.16-.52.31-1.01.46-1.48.23-.71.46-1.37.72-1.99m12.5-6.69a.49.49 0 0 0-.4-.39c-.42-.08-1.21-.19-2.2-.19-1.92 0-4.57.43-6.55 2.42-.5.5-.93.97-1.31 1.43-.67.82-1.18 1.62-1.59 2.46l.02.01 6 5.99.02.02c.82-.39 1.59-.88 2.39-1.52.48-.39.98-.84 1.5-1.36 3.01-3.01 2.36-7.62 2.12-8.87m-5.52 7.44c-1.24 0-2.25-1-2.25-2.24 0-1.24 1.01-2.25 2.25-2.25s2.25 1.01 2.25 2.25-1.01 2.24-2.25 2.24"/></svg>