<svg xmlns="http://www.w3.org/2000/svg" width="24" height="24" fill="none"><path fill="currentColor" d="M12 2C6.477 2 2 6.477 2 12s4.477 10 10 10 10-4.477 10-10S17.523 2 12 2Zm4.75 8.667a.75.75 0 0 1-.75.75h-2.223a.75.75 0 0 1 0-1.5h.706A3.245 3.245 0 0 0 12 8.75 3.254 3.254 0 0 0 8.75 12 3.254 3.254 0 0 0 12 15.25a3.23 3.23 0 0 0 2.91-1.806.75.75 0 1 1 1.344.667A4.724 4.724 0 0 1 12 16.75 4.756 4.756 0 0 1 7.25 12 4.756 4.756 0 0 1 12 7.25c1.235 0 2.388.483 3.25 1.293v-.098a.75.75 0 0 1 1.5 0v2.222Z"/></svg>