<svg xmlns="http://www.w3.org/2000/svg" width="24" height="24" fill="none"><path fill="currentColor" d="M17.625 3H6.375C4.125 3 3 4.125 3 6.375v11.25C3 19.875 4.125 21 6.375 21h11.25C19.875 21 21 19.875 21 17.625V6.375C21 4.125 19.875 3 17.625 3Zm-.875 7.668a.75.75 0 0 1-.75.75h-2.223a.75.75 0 0 1 0-1.5h.706A3.245 3.245 0 0 0 12 8.751a3.254 3.254 0 0 0-3.25 3.25 3.254 3.254 0 0 0 3.25 3.25 3.23 3.23 0 0 0 2.91-1.806.75.75 0 1 1 1.344.667A4.724 4.724 0 0 1 12 16.751a4.756 4.756 0 0 1-4.75-4.75A4.756 4.756 0 0 1 12 7.251c1.236 0 2.388.483 3.25 1.292v-.098a.75.75 0 0 1 1.5 0v2.223Z"/></svg>