<svg xmlns="http://www.w3.org/2000/svg" width="24" height="24" fill="none"><path fill="currentColor" d="M12 2C6.477 2 2 6.477 2 12s4.477 10 10 10 10-4.477 10-10S17.523 2 12 2m5.07 11.307A5.213 5.213 0 0 1 12 17.25a5.24 5.24 0 0 1-3.75-1.594V16a.75.75 0 0 1-1.5 0v-2.5a.75.75 0 0 1 .75-.75H10a.75.75 0 0 1 0 1.5h-.995A3.75 3.75 0 0 0 12 15.75a3.714 3.714 0 0 0 3.615-2.807.755.755 0 0 1 .909-.545c.403.1.647.507.546.909m.18-2.807a.75.75 0 0 1-.75.75H14a.75.75 0 0 1 0-1.5h.995A3.75 3.75 0 0 0 12 8.25a3.714 3.714 0 0 0-3.615 2.807.75.75 0 1 1-1.456-.364 5.213 5.213 0 0 1 5.07-3.943 5.24 5.24 0 0 1 3.75 1.594V8a.75.75 0 0 1 1.5 0z"/></svg>