<svg xmlns="http://www.w3.org/2000/svg" width="24" height="24" fill="none"><path fill="currentColor" d="M12 3C9.23 3 7 5.23 7 8v.95s0 .3.3.3h9.4c.3 0 .3-.3.3-.3V8c0-2.77-2.23-5-5-5m-1.98 3.25a.749.749 0 1 1 .75-.75c0 .41-.33.75-.75.75m2 1a.749.749 0 1 1 .75-.75c0 .41-.33.75-.75.75m2-1a.749.749 0 1 1 .75-.75c0 .41-.33.75-.75.75m2.78 4.5H7.21c-.16 0-.28.12-.3.27l-.71 7.8C6.09 19.99 7.01 21 8.19 21h7.62c1.18 0 2.1-1.01 1.99-2.18l-.71-7.8a.296.296 0 0 0-.3-.27zM10.75 18c0 .41-.34.75-.75.75s-.75-.34-.75-.75v-5c0-.41.34-.75.75-.75s.75.34.75.75zm4 0c0 .41-.34.75-.75.75s-.75-.34-.75-.75v-5c0-.41.34-.75.75-.75s.75.34.75.75z"/></svg>