<svg xmlns="http://www.w3.org/2000/svg" width="24" height="24" fill="none"><path fill="currentColor" d="M8.75 21a.75.75 0 0 1-.75.75H4.5c-1.409 0-2.25-.841-2.25-2.25V16a.75.75 0 0 1 1.5 0v3.5c0 .589.161.75.75.75H8a.75.75 0 0 1 .75.75ZM3 8.75A.75.75 0 0 0 3.75 8V4.5c0-.589.161-.75.75-.75H8a.75.75 0 0 0 0-1.5H4.5c-1.409 0-2.25.841-2.25 2.25V8c0 .414.336.75.75.75Zm16.5-6.5H16a.75.75 0 0 0 0 1.5h3.5c.589 0 .75.161.75.75V8a.75.75 0 0 0 1.5 0V4.5c0-1.409-.841-2.25-2.25-2.25Zm1.5 13a.75.75 0 0 0-.75.75v3.5c0 .589-.161.75-.75.75H16a.75.75 0 0 0 0 1.5h3.5c1.409 0 2.25-.841 2.25-2.25V16a.75.75 0 0 0-.75-.75ZM13.75 11h2.5c.5 0 .75-.25.75-.75v-2.5c0-.5-.25-.75-.75-.75h-2.5c-.5 0-.75.25-.75.75v2.5c0 .5.25.75.75.75Zm-3.5 2h-2.5c-.5 0-.75.25-.75.75v2.5c0 .5.25.75.75.75h2.5c.5 0 .75-.25.75-.75v-2.5c0-.5-.25-.75-.75-.75ZM17 16.25v-2.5c0-.5-.25-.75-.75-.75h-2.5c-.5 0-.75.25-.75.75v2.5c0 .5.25.75.75.75h2.5c.5 0 .75-.25.75-.75ZM10.25 7h-2.5c-.5 0-.75.25-.75.75v2.5c0 .5.25.75.75.75h2.5c.5 0 .75-.25.75-.75v-2.5c0-.5-.25-.75-.75-.75Z"/></svg>