<svg xmlns="http://www.w3.org/2000/svg" width="24" height="24" fill="none"><path fill="currentColor" d="M23 12c0 6.065-4.935 11-11 11S1 18.065 1 12c0-.804.09-1.624.268-2.436a1 1 0 1 1 1.953.426A9.487 9.487 0 0 0 3 11.999c0 4.962 4.037 9 9 9s9-4.038 9-9-4.037-9-9-9a8.896 8.896 0 0 0-5.613 1.973l6.32 6.32a.999.999 0 1 1-1.414 1.414L4.23 5.643h-.001l-.001-.002V5.64c-.027-.026-.037-.06-.06-.087-.061-.077-.124-.154-.16-.242-.022-.055-.022-.114-.034-.171-.014-.068-.04-.135-.04-.205 0-.07.025-.137.04-.206.012-.057.011-.115.033-.17.027-.067.08-.123.122-.184.033-.049.054-.103.097-.147h.003A10.884 10.884 0 0 1 12.002 1C18.065 1 23 5.935 23 12Z"/></svg>