<svg xmlns="http://www.w3.org/2000/svg" width="24" height="24" fill="none"><path fill="currentColor" d="M22 21.25h-1V13.5c0-.83-.67-1.5-1.5-1.5H18V6.575l1.586 1.051a.748.748 0 0 0 1.039-.21.75.75 0 0 0-.211-1.04l-7.166-4.748a2.242 2.242 0 0 0-2.494-.001L3.586 6.375a.75.75 0 1 0 .828 1.251L6 6.575V12H4.5c-.83 0-1.5.67-1.5 1.5v7.75H2a.75.75 0 0 0 0 1.5h20a.75.75 0 0 0 0-1.5M15 9.5c0 1.66-1.34 3-3 3s-3-1.34-3-3 1.34-3 3-3 3 1.34 3 3m1.75 8.5a.75.75 0 1 1 1.5 0 .75.75 0 0 1-1.5 0m1.5-2.5a.75.75 0 1 1-1.5 0 .75.75 0 0 1 1.5 0M6.5 14.75a.75.75 0 1 1 0 1.5.75.75 0 0 1 0-1.5m0 2.5a.75.75 0 1 1 0 1.5.75.75 0 0 1 0-1.5M10 18a2 2 0 0 1 4 0v3.25h-4zm1.5-8.5V8.38c0-.28.22-.5.5-.5s.5.22.5.5V9.5c0 .28-.22.5-.5.5s-.5-.22-.5-.5"/></svg>