<svg xmlns="http://www.w3.org/2000/svg" width="24" height="24" fill="none"><path fill="currentColor" d="M21 10.889c0 6.667-5.667 10-9 11.111-3.333-1.111-9-4.444-9-11.111V5c5-1 6.778-1.889 9.018-3C14.223 3.111 16 4 21 5zm-4.97 3.581-1.55-1.55a3.645 3.645 0 0 0 .602-2.004 3.672 3.672 0 0 0-3.666-3.667 3.671 3.671 0 0 0-3.667 3.667 3.671 3.671 0 0 0 3.667 3.667c.74 0 1.427-.224 2.003-.603l1.549 1.55a.748.748 0 0 0 1.06 0 .746.746 0 0 0 .002-1.06m-4.613-1.387a2.17 2.17 0 0 0 2.166-2.167 2.17 2.17 0 0 0-2.166-2.167 2.17 2.17 0 0 0-2.167 2.167 2.17 2.17 0 0 0 2.167 2.167"/></svg>