<svg xmlns="http://www.w3.org/2000/svg" width="24" height="24" fill="none"><path fill="currentColor" d="M4.85 14.75h-2.5c-.16 0-.29-.12-.3-.27-.04-.46-.06-.95-.06-1.48 0-.31 0-.61.02-.9.01-.24.21-.31.32-.3.9.09 2.42.51 2.81 2.59a.3.3 0 0 1-.29.35zM18 10.02c-.3 0-.61-.03-.91-.08l-1.56 1.56c-.15.14-.34.22-.53.22s-.38-.08-.53-.22a.754.754 0 0 1 0-1.06l.97-.97c-.44-.17-.87-.37-1.27-.58l-1.64 1.64c-.15.14-.34.22-.53.22s-.38-.08-.53-.22a.754.754 0 0 1 0-1.06l1.37-1.37c-.91-.58-1.5-1.08-1.5-1.08a.28.28 0 0 0-.29.05c-2.06 1.79-5.67 1.85-7.58.17-.16-.13-.39-.1-.47.08-.2.44-.53 1.33-.75 2.65-.03.17.1.33.27.35 2.36.23 3.85 1.7 4.16 4.17.02.15.14.27.29.27H21.7c.31 0 .3-.22.3-.22v-.44s-.12-4.07-4-4.07zm3.75 6.23H2.56c-.15 0-.27.15-.25.3.01.08.03.16.04.23.12.71.75 1.22 1.47 1.22H20.5c.83 0 1.5-.67 1.5-1.5 0-.14-.11-.25-.25-.25"/></svg>