<svg xmlns="http://www.w3.org/2000/svg" width="24" height="24" fill="none"><path fill="currentColor" d="M3.55 9.01c-.13-.09-.15-.27-.07-.4L6.37 4.1c.83-1.22 1.95-1.18 2-1.02.36 1.29.91 4.73 5.56 3.99.23-.04.45.08.54.28l.51 1.15h-2.99c-.41 0-.75.34-.75.75s.34.75.75.75h3.66l.45 1H13c-.41 0-.75.34-.75.75s.34.75.75.75h3.78l.09.2c.08.18.26.3.46.3 2.32 0 4.22 1.69 4.59 3.9.03.18-.12.35-.3.35h-6.63c-.27 0-.53-.09-.75-.25 0 0-9.14-6.84-10.67-7.99zm9.77 9.19L2.78 10.29a.298.298 0 0 0-.43.08l-.04.06c-.56.88-.35 2.05.48 2.68l9.98 7.49c.35.26.77.4 1.2.4h6.52c.83 0 1.5-.67 1.5-1.5v-.45c0-.17-.13-.3-.3-.3h-6.72c-.6 0-1.17-.19-1.65-.55M9.74 21c0-.41-.34-.75-.75-.75h-7c-.41 0-.75.34-.75.75s.34.75.75.75h7c.41 0 .75-.34.75-.75m-5-3.5c0-.41-.34-.75-.75-.75h-2c-.41 0-.75.34-.75.75s.34.75.75.75h2c.41 0 .75-.34.75-.75"/></svg>