<svg xmlns="http://www.w3.org/2000/svg" width="24" height="24" fill="none"><path fill="currentColor" d="M19.078 12H4.923a.3.3 0 0 0-.299.331L5.24 18.3c.16 1.53.75 2.7 2.99 2.7h7.56c2.2 0 2.84-1.17 2.98-2.7l.606-5.97a.3.3 0 0 0-.298-.33m-4.179 3.471-1.08 1.048a.331.331 0 0 0-.096.295l.247 1.435a.357.357 0 0 1-.518.376l-1.296-.678a.335.335 0 0 0-.311 0l-1.295.678a.358.358 0 0 1-.519-.377l.247-1.433a.33.33 0 0 0-.096-.295l-1.08-1.048a.333.333 0 0 1 .185-.568l1.494-.216a.333.333 0 0 0 .251-.182l.647-1.306a.358.358 0 0 1 .64 0l.648 1.306a.336.336 0 0 0 .251.182l1.494.216a.332.332 0 0 1 .187.567M21 9a2 2 0 0 1-2 2H5a2 2 0 0 1 0-4h1.728l2.649-4.388a.749.749 0 1 1 1.283.776L8.479 7h7.051l-2.156-3.616a.75.75 0 1 1 1.289-.767l2.614 4.384H19A2 2 0 0 1 21 9"/></svg>