<svg xmlns="http://www.w3.org/2000/svg" width="24" height="24" fill="none"><path fill="currentColor" d="M19.078 12H4.923a.3.3 0 0 0-.299.331L5.24 18.3c.16 1.53.75 2.7 2.99 2.7h7.56c2.2 0 2.84-1.17 2.98-2.7l.606-5.97a.3.3 0 0 0-.298-.33m-4.135 3.655C14.552 17.672 12 18.833 12 18.833s-2.552-1.162-2.944-3.178c-.24-1.237.284-2.482 1.617-2.488.993-.005 1.326.996 1.326.996s.333-1.001 1.326-.996c1.337.006 1.858 1.251 1.618 2.488M21 9a2 2 0 0 1-2 2H5a2 2 0 0 1 0-4h1.728l2.649-4.388a.749.749 0 1 1 1.283.776L8.479 7h7.051l-2.156-3.616a.75.75 0 1 1 1.289-.767l2.614 4.384H19A2 2 0 0 1 21 9"/></svg>