<svg xmlns="http://www.w3.org/2000/svg" width="24" height="24" fill="none"><path fill="currentColor" d="M9.021 22.25c-.689 0-1.255-.56-1.255-1.25s.555-1.25 1.245-1.25h.01a1.25 1.25 0 0 1 0 2.5m9.25-1.25c0-.69-.56-1.25-1.25-1.25h-.01c-.69 0-1.245.56-1.245 1.25s.565 1.25 1.255 1.25 1.25-.56 1.25-1.25M20.96 8.36l-1.01 6.18C19.69 15.96 19.1 17 17 17H8.73c-1 0-1.84-.73-1.98-1.72L5.249 4.832A1.243 1.243 0 0 0 4.01 3.75h-.26a.75.75 0 0 1 0-1.5h.26a2.73 2.73 0 0 1 2.723 2.364L6.942 6H19c1.24 0 2.19 1.13 1.96 2.36m-4.746 2.209-1.494-.216a.333.333 0 0 1-.251-.182l-.647-1.306a.358.358 0 0 0-.641 0l-.647 1.306a.336.336 0 0 1-.251.182l-1.494.216a.333.333 0 0 0-.185.568l1.08 1.048a.331.331 0 0 1 .096.295l-.247 1.433a.357.357 0 0 0 .519.376l1.295-.678a.333.333 0 0 1 .31 0l1.296.678a.357.357 0 0 0 .518-.376l-.247-1.435a.33.33 0 0 1 .096-.295l1.08-1.048a.332.332 0 0 0-.186-.566"/></svg>