<svg xmlns="http://www.w3.org/2000/svg" width="24" height="24" fill="none"><path fill="currentColor" d="M9.021 22.25c-.689 0-1.255-.56-1.255-1.25s.555-1.25 1.245-1.25h.01a1.25 1.25 0 0 1 0 2.5m9.25-1.25c0-.69-.56-1.25-1.25-1.25h-.01c-.69 0-1.245.56-1.245 1.25s.565 1.25 1.255 1.25 1.25-.56 1.25-1.25m-5.27-7.25c-.41 0-.75-.34-.75-.75s.34-.75.75-.75h7.068a.3.3 0 0 0 .296-.252l.595-3.639c.23-1.23-.72-2.36-1.96-2.36H6.941l-.209-1.386A2.73 2.73 0 0 0 4.01 2.249h-.26a.75.75 0 0 0 0 1.5H4c.627 0 1.16.461 1.249 1.082L6.75 15.279c.14.99.98 1.72 1.98 1.72H17c2.1 0 2.69-1.04 2.95-2.46l.071-.435s.065-.355-.272-.355l-6.747.001Z"/></svg>