<svg xmlns="http://www.w3.org/2000/svg" width="24" height="24" fill="none"><path fill="currentColor" d="M21 9a2 2 0 0 1-2 2H5a2 2 0 0 1 0-4h1.728l2.649-4.388a.749.749 0 1 1 1.283.776L8.479 7h7.051l-2.156-3.616a.75.75 0 1 1 1.289-.767l2.614 4.384H19A2 2 0 0 1 21 9Zm-1.624 3.33-.606 5.97c-.14 1.53-.78 2.7-2.98 2.7H8.23c-2.24 0-2.83-1.17-2.99-2.7l-.616-5.969A.3.3 0 0 1 4.923 12h14.155a.3.3 0 0 1 .298.33Zm-5.346 3.64a.75.75 0 0 0-1.061 0l-.22.22V14a.75.75 0 0 0-1.5 0v2.189l-.22-.22a.75.75 0 0 0-1.061 1.061l1.5 1.5a.749.749 0 0 0 .818.162.749.749 0 0 0 .244-.162l1.5-1.5a.749.749 0 0 0 0-1.06Z"/></svg>