<svg xmlns="http://www.w3.org/2000/svg" width="24" height="24" fill="none"><path fill="currentColor" d="M15.54 16.54a1 1 0 0 1-.711-1.703A4.012 4.012 0 0 0 16 12a4.012 4.012 0 0 0-1.171-2.837.999.999 0 1 1 1.422-1.406A5.998 5.998 0 0 1 18 12a5.999 5.999 0 0 1-1.749 4.243.995.995 0 0 1-.711.297m-6.377-.289a1 1 0 0 0 .008-1.414A4.012 4.012 0 0 1 8 12c0-1.066.416-2.074 1.171-2.837a.999.999 0 1 0-1.422-1.406A5.998 5.998 0 0 0 6 12c0 1.596.621 3.103 1.749 4.243a.995.995 0 0 0 .711.297.994.994 0 0 0 .703-.289m10.269 2.42A9.923 9.923 0 0 0 22 12a9.92 9.92 0 0 0-2.568-6.67 1 1 0 1 0-1.482 1.342 7.924 7.924 0 0 1 2.051 5.329 7.927 7.927 0 0 1-2.051 5.33 1 1 0 1 0 1.482 1.34m-13.452.07a1 1 0 0 0 .07-1.413 7.924 7.924 0 0 1-2.051-5.329c0-1.976.729-3.868 2.051-5.329a1 1 0 1 0-1.482-1.343A9.923 9.923 0 0 0 2 11.998a9.92 9.92 0 0 0 2.568 6.671c.197.218.469.33.741.33a.98.98 0 0 0 .671-.258M12 10.5c-.827 0-1.5.673-1.5 1.5s.673 1.5 1.5 1.5 1.5-.673 1.5-1.5-.673-1.5-1.5-1.5"/></svg>