<svg xmlns="http://www.w3.org/2000/svg" width="24" height="24" fill="none"><path fill="currentColor" d="M18.561 7.561 14.44 3.44A1.5 1.5 0 0 0 13.379 3H8C6 3 5 4 5 6v12c0 2 1 3 3 3h8c2 0 3-1 3-3V8.622a1.5 1.5 0 0 0-.439-1.061ZM11.25 17.7c0 .17-.13.3-.3.3H9.5c-1 0-1.5-.5-1.5-1.5v-5c0-1 .5-1.5 1.5-1.5h1.45c.17 0 .3.13.3.3v7.4ZM16 16.5c0 1-.5 1.5-1.5 1.5h-1.45a.297.297 0 0 1-.3-.3v-2.65a.3.3 0 0 1 .3-.3h2.65c.185 0 .3.16.3.3v1.45Zm0-3.55c0 .14-.115.3-.3.3h-2.65a.3.3 0 0 1-.3-.3V10.3c0-.161.125-.3.3-.3h1.45c1 0 1.5.5 1.5 1.5v1.45Z"/></svg>