<svg xmlns="http://www.w3.org/2000/svg" width="24" height="24" fill="none"><path fill="currentColor" d="M18.561 7.561 14.44 3.44A1.5 1.5 0 0 0 13.379 3H8C6 3 5 4 5 6v12c0 2 1 3 3 3h8c2 0 3-1 3-3V8.622a1.5 1.5 0 0 0-.439-1.061m-4.418 9.189h-3.7a.749.749 0 0 1-.538-1.273s1.085-1.115 2.685-2.72c.567-.569.702-1.26.32-1.646-.361-.365-.746-.392-1.003-.345-.349.06-.65.274-.786.562a.75.75 0 1 1-1.355-.645c.35-.732 1.055-1.254 1.89-1.396.852-.145 1.694.136 2.32.768.975.983.836 2.6-.323 3.762-.54.542-1.022 1.028-1.422 1.434h1.913a.75.75 0 1 1 0 1.499Z"/></svg>