<svg xmlns="http://www.w3.org/2000/svg" width="24" height="24" fill="none"><path fill="currentColor" d="M20.07 13.76a8.245 8.245 0 0 0-9.82-9.82C9.49 3.35 8.54 3 7.51 3c-2.48 0-4.5 2.02-4.5 4.5 0 1.03.35 1.98.94 2.74a8.245 8.245 0 0 0 9.82 9.82c.76.59 1.71.94 2.74.94 2.48 0 4.5-2.02 4.5-4.5 0-1.03-.35-1.98-.93-2.74h-.01Zm-7.9 3.53c-2.54 0-4.66-1.13-4.66-2.52 0-.62.35-1.18 1.14-1.18 1.21 0 1.32 1.74 3.41 1.74.99 0 1.64-.44 1.64-1.02 0-.72-.62-.84-1.63-1.08-2.42-.6-4.56-.85-4.56-3.38 0-2.29 2.27-3.14 4.22-3.14 2.13 0 4.29.85 4.29 2.14 0 .65-.44 1.23-1.17 1.23-1.1 0-1.13-1.3-2.9-1.3-.99 0-1.63.27-1.63.87 0 .77.81.84 2.67 1.28 1.6.36 3.51 1.04 3.51 3 0 2.29-2.21 3.35-4.34 3.35l.01.01Z"/></svg>