<svg xmlns="http://www.w3.org/2000/svg" width="24" height="24" fill="none"><path fill="currentColor" fill-rule="evenodd" d="M20.418 17.662c-.63.35-1 .4-1.49.55-.17.04-.29.2-.29.38-.26 1.339-1.912.579-2.992 1.089-1.23.51-1.781 1.319-3.642 1.319-1.86 0-2.4-.81-3.631-1.32-1.071-.499-2.692.23-2.982-1.049-.01-.2-.12-.39-.31-.42-.49-.14-1.02-.25-1.61-.62-.621-.389-.631-1.059-.01-1.328l.1-.05c1.35-.61 2.74-1.9 3.13-3.239.07-.22-.01-.35-.14-.43-.34-.24-.86-.569-1.17-.779-1.09-.59-.96-2.239.4-2.249.38 0 .82.17 1.14.29.02 0 .03 0 .03-.02-.04-1.18-.12-2.938.421-4.037.81-1.74 2.641-2.759 4.632-2.749 1.991 0 3.802.99 4.632 2.739.54 1.069.47 2.918.42 4.037 0 .02.02.03.03.02.32-.12.76-.29 1.141-.29.87-.04 1.41.89 1.01 1.61-.35.69-1.39.989-1.93 1.569-.03.07-.04.13 0 .27.39 1.379 1.83 2.678 3.221 3.298.51.21.78.89-.11 1.409" clip-rule="evenodd"/></svg>