<svg xmlns="http://www.w3.org/2000/svg" width="24" height="24" fill="none"><path fill="currentColor" d="M5 7c0-1.1.9-2 2-2h10c1.1 0 2 .9 2 2-1.65 0-3 1.35-3 3v2.7a.3.3 0 0 1-.3.3H8.3a.3.3 0 0 1-.3-.3V10c0-1.65-1.35-3-3-3m13.664 1.03C17.681 8.19 17 9.113 17 10.109v3.593a.3.3 0 0 1-.3.3H7.3a.3.3 0 0 1-.3-.3v-3.593c0-.996-.681-1.92-1.664-2.08A2.001 2.001 0 0 0 3 10.002v5c0 1.998 1 3 3 3h1.25V19a.749.749 0 1 0 1.5 0v-.998h6.5V19a.749.749 0 1 0 1.5 0v-.998H18c2 0 3-1.002 3-3v-5a2.001 2.001 0 0 0-2.336-1.972"/></svg>