<svg xmlns="http://www.w3.org/2000/svg" width="24" height="24" fill="none"><path fill="currentColor" d="M12 2C6.48 2 2 6.48 2 12s4.48 10 10 10 10-4.48 10-10S17.52 2 12 2M7.46 14.62c.21.36.09.81-.27 1.03-.12.07-.25.1-.38.1-.26 0-.51-.13-.65-.37A6.713 6.713 0 0 1 5.25 12c0-3.72 3.03-6.75 6.75-6.75.49 0 .96.05 1.46.16.4.08.66.48.57.89-.08.4-.48.66-.89.57C9.81 6.16 6.75 8.72 6.75 12c0 .95.24 1.83.71 2.62m8.08-5.75c-.72 1.33-2.06 3.77-2.48 4.19-.59.59-1.53.59-2.12 0a1.49 1.49 0 0 1 0-2.12c.42-.42 2.86-1.76 4.19-2.48.27-.14.55.14.41.41m2.3 6.51c-.14.24-.39.37-.65.37-.13 0-.26-.03-.38-.1a.754.754 0 0 1-.27-1.03c.47-.79.71-1.67.71-2.62 0-.38-.04-.76-.12-1.14-.09-.41.17-.81.57-.89.41-.09.81.17.89.57a6.713 6.713 0 0 1-.75 4.84"/></svg>