<svg xmlns="http://www.w3.org/2000/svg" width="24" height="24" fill="none"><path fill="currentColor" d="M12 2C6.48 2 2 6.48 2 12s4.48 10 10 10 10-4.48 10-10S17.52 2 12 2Zm4.06 14.71c-.17 0-.27-.05-.43-.15-2.52-1.52-5.44-1.58-8.33-.99-.16.04-.36.1-.48.1-.39 0-.64-.31-.64-.64 0-.42.25-.61.55-.68 3.3-.73 6.68-.67 9.56 1.06.25.16.39.3.39.67 0 .37-.29.62-.61.62l-.01.01Zm1.08-2.65c-.21 0-.35-.09-.5-.17-2.52-1.49-6.28-2.09-9.62-1.19-.19.05-.3.1-.48.1-.43 0-.78-.35-.78-.78 0-.43.21-.72.62-.83 1.12-.31 2.27-.55 3.94-.55 2.62 0 5.15.65 7.14 1.83.33.19.46.44.46.79 0 .44-.34.79-.78.79v.01Zm1.25-3.07c-.21 0-.34-.05-.52-.16-2.87-1.71-8-2.12-11.33-1.2-.15.04-.33.1-.52.1-.53 0-.94-.42-.94-.95s.34-.86.7-.96c1.42-.42 3.01-.61 4.74-.61 2.94 0 6.03.61 8.28 1.93.31.18.52.43.52.91 0 .55-.44.94-.94.94h.01Z"/></svg>