<svg xmlns="http://www.w3.org/2000/svg" width="24" height="24" fill="none"><path fill="currentColor" d="M19 9.75h2v4.5h-2c-.14 0-.25-.11-.25-.25v-4c0-.14.11-.25.25-.25ZM13.75 12c0-.96-.79-1.75-1.75-1.75s-1.75.79-1.75 1.75.79 1.75 1.75 1.75 1.75-.79 1.75-1.75Zm-5 0c0-1.53 1.07-2.81 2.5-3.15V5H6C4 5 3 6 3 8v.25h2c.96 0 1.75.79 1.75 1.75v4c0 .96-.79 1.75-1.75 1.75H3V16c0 2 1 3 3 3h5.25v-3.85A3.247 3.247 0 0 1 8.75 12Zm8.5 2v-4c0-.96.79-1.75 1.75-1.75h2V8c0-2-1-3-3-3h-5.25v3.85c1.43.34 2.5 1.62 2.5 3.15 0 1.53-1.07 2.81-2.5 3.15V19H18c2 0 3-1 3-3v-.25h-2c-.96 0-1.75-.79-1.75-1.75Zm-12 0v-4c0-.14-.11-.25-.25-.25H3v4.5h2c.14 0 .25-.11.25-.25Z"/></svg>