<svg xmlns="http://www.w3.org/2000/svg" width="24" height="24" fill="none"><path fill="currentColor" d="M20.75 11.41c.59-.57.26-1.58-.56-1.7l-4.48-.65a1.01 1.01 0 0 1-.76-.55L13.01 4.6c-.19-.4-.58-.6-.96-.6s-.77.2-.96.6L9.15 8.51c-.15.3-.43.5-.76.55l-4.48.65c-.82.12-1.15 1.13-.56 1.7l3.25 3.15c.23.23.34.56.28.88l-.74 4.31c-.12.69.43 1.25 1.06 1.25.16 0 .33-.04.5-.12l3.88-2.04c.15-.08.31-.11.47-.11.16 0 .32.03.47.11l3.88 2.04c.17.08.34.12.5.12.63 0 1.18-.56 1.06-1.25l-.74-4.31c-.06-.32.05-.65.28-.88zm-4.29 2.07c-.59.58-.86 1.41-.72 2.22l.59 3.44-3.12-1.63c-.36-.19-.76-.28-1.16-.28V6.03l1.56 3.15a2.48 2.48 0 0 0 1.88 1.36l3.48.51z"/></svg>