<svg xmlns="http://www.w3.org/2000/svg" width="24" height="24" fill="none"><path fill="currentColor" d="M16.243 15.989a.78.78 0 0 0-.225.689l.577 3.347a.833.833 0 0 1-1.208.877l-3.024-1.583a.779.779 0 0 0-.724 0L8.617 20.9a.833.833 0 0 1-1.21-.878l.576-3.345a.775.775 0 0 0-.225-.689l-2.521-2.446a.777.777 0 0 1 .43-1.326l3.488-.504a.781.781 0 0 0 .587-.425l1.51-3.047a.836.836 0 0 1 1.497 0l1.51 3.047a.781.781 0 0 0 .587.425l3.487.504a.776.776 0 0 1 .431 1.326zM12 5.75a.75.75 0 0 0 .75-.75V3a.75.75 0 0 0-1.5 0v2c0 .414.336.75.75.75m6 4a.75.75 0 0 0 .75-.75V3a.75.75 0 0 0-1.5 0v6c0 .414.336.75.75.75m-12 0A.75.75 0 0 0 6.75 9V3a.75.75 0 0 0-1.5 0v6c0 .414.336.75.75.75"/></svg>