<svg xmlns="http://www.w3.org/2000/svg" width="24" height="24" fill="none"><path fill="currentColor" d="m21.53 3.53-18 17.996a.748.748 0 0 1-1.06 0 .75.75 0 0 1 0-1.06l4.221-4.221.139-.808a.993.993 0 0 0-.28-.88L3.3 11.408c-.59-.57-.26-1.58.56-1.7l4.48-.65c.33-.05.61-.25.76-.55l1.94-3.909c.39-.8 1.53-.8 1.92 0l1.784 3.595 5.726-5.725a.75.75 0 1 1 1.06 1.061m-1.39 6.18-1.472-.21a.3.3 0 0 0-.254.085L7.283 20.713c-.121.121-.007.284.127.248a1.23 1.23 0 0 0 .24-.094l3.88-2.03c.3-.15.639-.15.939 0l3.88 2.04c.79.41 1.71-.26 1.56-1.13l-.74-4.309c-.06-.32.05-.65.28-.88l3.244-3.144a.997.997 0 0 0-.553-1.705Z"/></svg>