<svg xmlns="http://www.w3.org/2000/svg" width="24" height="24" fill="none"><path fill="currentColor" d="m19.276 13.359-4.026 1.26a.965.965 0 0 0-.633.633l-1.259 4.023c-.255.815-1.333.987-1.825.29l-2.419-3.427a.96.96 0 0 0-.8-.406l-4.34.065a.96.96 0 0 1-.781-1.536l2.606-3.488a.962.962 0 0 0 .142-.884L4.598 5.906c-.272-.808.5-1.58 1.308-1.308l3.982 1.343c.3.101.63.048.884-.142l3.487-2.606a.96.96 0 0 1 1.536.782l-.065 4.341a.96.96 0 0 0 .406.799l3.429 2.421c.696.492.525 1.568-.289 1.823m2.254 7.11-3-3a.75.75 0 1 0-1.061 1.062l3 3a.748.748 0 0 0 1.06 0 .75.75 0 0 0 .001-1.061Z"/></svg>