<svg xmlns="http://www.w3.org/2000/svg" width="24" height="24" fill="none"><path fill="currentColor" d="M21.5 10c0-1.378-1.121-2.5-2.5-2.5a2.503 2.503 0 0 0-2.5 2.5c0 1.022.618 1.901 1.5 2.288V15.5c0 2.481-2.019 4.5-4.5 4.5A4.505 4.505 0 0 1 9 15.5v-.576c2.987-.423 5-2.736 5-5.924V4.5c0-1.542-.958-2.5-2.5-2.5H11a1 1 0 1 0 0 2h.5c.448 0 .5.051.5.5V9c0 2.43-1.57 4-4 4-2.43 0-4-1.57-4-4V4.5c0-.449.052-.5.5-.5H5a1 1 0 1 0 0-2h-.5C2.958 2 2 2.958 2 4.5V9c0 3.188 2.013 5.501 5 5.924v.576c0 3.584 2.916 6.5 6.5 6.5s6.5-2.916 6.5-6.5v-3.212A2.501 2.501 0 0 0 21.5 10Z"/></svg>