<svg xmlns="http://www.w3.org/2000/svg" width="24" height="24" fill="none"><path fill="currentColor" d="M14.25 19c0-2.62 2.13-4.75 4.75-4.75h2.74c.17-.56.26-1.14.26-1.74V12c0-5.62-4.63-10.15-10.28-10-5.22.14-9.57 4.49-9.71 9.71-.16 5.65 4.38 10.28 10 10.28h.51c.59 0 1.18-.09 1.74-.26v-2.74zm.76-10.25a1.25 1.25 0 1 1 0 2.5 1.25 1.25 0 0 1 0-2.5M7.76 10a1.25 1.25 0 1 1 2.5.001A1.25 1.25 0 0 1 7.76 10m4.23 5.75c-.8 0-1.58-.18-2.31-.53a.752.752 0 0 1-.35-1c.18-.37.63-.53 1-.35 1.07.51 2.32.5 3.34 0 .37-.18.82-.03 1 .34.18.37.03.82-.34 1.01-.73.36-1.51.54-2.34.54zm9.06 0c-.23.36-.5.7-.81 1.01l-3.49 3.49c-.31.31-.65.57-1.01.81v-2.05c0-1.79 1.46-3.25 3.25-3.25h2.05z"/></svg>