<svg xmlns="http://www.w3.org/2000/svg" width="24" height="24" fill="none"><path fill="currentColor" d="M14.25 18.5a4.26 4.26 0 0 1 4.25-4.25h2.45c.03-.16.05-.33.05-.49V6.38C21 4 20 3 17.62 3H6.37C3.99 3 2.99 4 2.99 6.38v11.25c0 2.38 1 3.38 3.38 3.38h7.38c.17 0 .33-.02.49-.05v-2.45zm.76-9.75a1.25 1.25 0 1 1 0 2.5 1.25 1.25 0 0 1 0-2.5M7.76 10a1.25 1.25 0 1 1 2.5 0 1.25 1.25 0 0 1-2.5 0m5.91 5.67a3.87 3.87 0 0 0-3.34 0 .733.733 0 0 1-1-.34.763.763 0 0 1 .34-1.01c1.43-.71 3.17-.73 4.66-.02.37.18.53.63.35 1-.18.37-.63.53-1 .35zm6.55.08s-.07.09-.11.13l-4.24 4.24s-.09.07-.13.11V18.5c0-1.52 1.23-2.75 2.75-2.75z"/></svg>