<svg xmlns="http://www.w3.org/2000/svg" width="24" height="24" fill="none"><path fill="currentColor" d="M18.67 14.97h2.5c-.28.52-.64 1-1.07 1.43l-3.7 3.7c-.43.43-.91.79-1.43 1.07v-2.5c0-2.04 1.66-3.7 3.7-3.7ZM22 11.82c0 .56-.07 1.12-.23 1.65h-3.1c-2.87 0-5.2 2.33-5.2 5.2v3.1c-.53.16-1.09.23-1.65.23C6.39 22 2 17.61 2 12.18v-.36C2 6.39 6.39 2 11.82 2h.36C17.61 2 22 6.39 22 11.82ZM12.75 14a.75.75 0 0 0-.75-.75H8a.75.75 0 0 0 0 1.5h4a.75.75 0 0 0 .75-.75Zm4-4.5a.75.75 0 0 0-.75-.75H8.111a.75.75 0 0 0 0 1.5H16a.75.75 0 0 0 .75-.75Z"/></svg>