<svg xmlns="http://www.w3.org/2000/svg" width="24" height="24" fill="none"><path fill="currentColor" d="M16.88 15h3.34c-.06.09-.13.16-.21.24l-4.77 4.77c-.08.08-.15.15-.24.21v-3.34c0-1.04.84-1.88 1.88-1.88ZM21 6.37v6.48c0 .22-.02.44-.07.65h-4.05c-1.87 0-3.38 1.51-3.38 3.38v4.05c-.21.05-.43.07-.65.07H6.38C4.12 21 3 19.87 3 17.62V6.37C3 4.12 4.12 3 6.38 3h11.24C19.88 3 21 4.12 21 6.37ZM12.75 14a.75.75 0 0 0-.75-.75H8a.75.75 0 0 0 0 1.5h4a.75.75 0 0 0 .75-.75Zm4-4.5a.75.75 0 0 0-.75-.75H8a.75.75 0 0 0 0 1.5h8a.75.75 0 0 0 .75-.75Z"/></svg>