<svg xmlns="http://www.w3.org/2000/svg" width="24" height="24" fill="none"><path fill="currentColor" d="M14.25 18.5a4.26 4.26 0 0 1 4.25-4.25h2.45c.03-.16.05-.33.05-.49V6.38C21 4 20 3 17.62 3H6.37C3.99 3 2.99 4 2.99 6.38v11.25c0 2.38 1 3.38 3.38 3.38h7.38c.17 0 .33-.02.49-.05v-2.45l.01-.01Zm-.77-8.87c.31-.54.89-.88 1.51-.88s1.2.34 1.51.88a.75.75 0 0 1-.65 1.12c-.26 0-.52-.14-.65-.38a.225.225 0 0 0-.21-.12c-.09 0-.17.04-.21.12a.74.74 0 0 1-1.02.28.74.74 0 0 1-.28-1.02ZM7.76 10a1.25 1.25 0 1 1 2.5 0 1.25 1.25 0 0 1-2.5 0Zm1.91 5.22a.752.752 0 0 1-.35-1c.18-.37.63-.53 1-.35 1.07.51 2.32.5 3.34 0 .37-.18.82-.03 1 .34.18.37.03.82-.34 1.01-.73.36-1.51.54-2.34.54-.83 0-1.58-.18-2.31-.53v-.01Zm10.56.53s-.07.09-.11.13l-4.24 4.24s-.09.07-.13.11V18.5c0-1.52 1.23-2.75 2.75-2.75h1.73Z"/></svg>