<svg xmlns="http://www.w3.org/2000/svg" width="24" height="24" fill="none"><path fill="currentColor" d="M7.25 3A.75.75 0 0 1 8 2.25h5a.75.75 0 0 1 0 1.5H8A.75.75 0 0 1 7.25 3m5.25 14v2c0 .496.053.959.154 1.379a.298.298 0 0 1-.207.363 7.438 7.438 0 0 1-2.435.242c-3.44-.218-6.378-2.861-6.916-6.266A7.507 7.507 0 0 1 10.5 5.999c1.672 0 3.214.552 4.46 1.479l1.51-1.509c.29-.29.77-.29 1.06 0 .29.29.29.77 0 1.06l-1.46 1.46a7.471 7.471 0 0 1 1.804 3.654.307.307 0 0 1-.303.356H17A4.502 4.502 0 0 0 12.5 17m-1.25-7a.75.75 0 0 0-1.5 0v3.5a.75.75 0 0 0 1.5 0zM22 17v2c0 2-1 3-3 3h-2c-2 0-3-1-3-3v-2c0-2 1-3 3-3h2c2 0 3 1 3 3m-2.25 1a.5.5 0 0 0-.5-.5h-2.5a.5.5 0 0 0 0 1h2.5a.5.5 0 0 0 .5-.5"/></svg>