<svg xmlns="http://www.w3.org/2000/svg" width="24" height="24" fill="none"><path fill="currentColor" fill-rule="evenodd" d="M8.25 3A.75.75 0 0 1 9 2.25h5a.75.75 0 0 1 0 1.5H9A.75.75 0 0 1 8.25 3ZM19 13.5A7.5 7.5 0 1 1 11.5 6c1.673 0 3.212.554 4.46 1.48l1.51-1.51c.29-.29.77-.29 1.06 0 .29.29.29.77 0 1.06l-1.46 1.46A7.464 7.464 0 0 1 19 13.5Zm-4.25 0a.75.75 0 0 0-.75-.75h-1.75V11a.75.75 0 0 0-1.5 0v1.75H9a.75.75 0 0 0 0 1.5h1.75V16a.75.75 0 0 0 1.5 0v-1.75H14a.75.75 0 0 0 .75-.75Z" clip-rule="evenodd"/></svg>