<svg xmlns="http://www.w3.org/2000/svg" width="24" height="24" fill="none"><path fill="currentColor" d="M21.532 7.752a.748.748 0 0 1-1.06 0l-1.055-1.055-2.105 2.105 1.848 1.848c.29.29.29.77 0 1.06-.15.15-.34.22-.53.22a.71.71 0 0 1-.53-.22l-.796-.794L11.22 17c-1.146 1.146-2.362 1.427-3.648.488L3.53 21.53c-.15.15-.34.22-.53.22s-.38-.07-.53-.22a.755.755 0 0 1 0-1.06l4.036-4.036c-.637-.878-.707-1.734-.31-2.55.067-.137.302-.345.528-.12l.755.756a.748.748 0 0 0 1.06 0 .75.75 0 0 0 0-1.061s-.575-.578-.893-.9a.297.297 0 0 1 .002-.42c.182-.184.394-.397.631-.628a.304.304 0 0 1 .424.001l.896.896a.748.748 0 0 0 1.06 0 .75.75 0 0 0 0-1.061s-.578-.58-.896-.902a.297.297 0 0 1-.004-.417c.204-.212.417-.426.628-.638a.301.301 0 0 1 .425 0l.898.897a.748.748 0 0 0 1.06 0 .75.75 0 0 0 0-1.06l-.894-.895a.31.31 0 0 1 .004-.436l1.201-1.2-.791-.79a.767.767 0 0 1 0-1.07c.3-.29.77-.29 1.06 0l1.85 1.851 2.105-2.105-1.055-1.056a.75.75 0 1 1 1.061-1.06l4.222 4.221a.757.757 0 0 1-.002 1.065Z"/></svg>