<svg xmlns="http://www.w3.org/2000/svg" width="24" height="24" fill="none"><path fill="currentColor" d="M11 18c-2.757 0-5-2.243-5-5a4.985 4.985 0 0 1 3.754-4.84 1 1 0 1 1 .492 1.94A2.986 2.986 0 0 0 8 13c0 1.655 1.346 3 3 3a2.988 2.988 0 0 0 2.901-2.246 1 1 0 1 1 1.938.493A4.985 4.985 0 0 1 11 18Zm9-5a5.72 5.72 0 0 0-.037-.653.986.986 0 0 0-1.106-.88 1 1 0 0 0-.88 1.107c.016.142.023.284.023.427 0 3.86-3.141 7-7 7s-7-3.14-7-7 3.141-7 7-7c.143 0 .286.008.43.023a1 1 0 1 0 .22-1.987 5.9 5.9 0 0 0-.65-.036c-4.963 0-9 4.038-9 9s4.037 9 9 9 9-4.04 9-9.001Zm1.462-6.191a.5.5 0 0 0-.462-.31h-3.5V3a.5.5 0 0 0-.854-.353l-2.561 2.56a2.015 2.015 0 0 0-.586 1.415v2.465l-3.207 3.207a.999.999 0 1 0 1.414 1.414l3.207-3.207h2.465a2.01 2.01 0 0 0 1.414-.586l2.561-2.561a.5.5 0 0 0 .109-.544Z"/></svg>