<svg xmlns="http://www.w3.org/2000/svg" width="24" height="24" fill="none"><path fill="currentColor" d="M11.2 21.96a10 10 0 0 1-9.16-9.16h.05c.3-.04.6-.05.91-.05 4.55 0 8.25 3.7 8.25 8.25 0 .31-.02.61-.05.91zm1.61-19.87c-.04.3-.05.6-.05.91 0 4.55 3.7 8.25 8.25 8.25.31 0 .61-.02.91-.05h.05a10 10 0 0 0-9.16-9.16zm8.2 10.66c-5.38 0-9.75-4.37-9.75-9.75 0-.33.02-.65.06-.97-4.97.34-8.93 4.3-9.27 9.27.32-.03.64-.06.97-.06 5.38 0 9.75 4.37 9.75 9.75 0 .33-.02.65-.06.97 4.97-.34 8.93-4.3 9.27-9.27-.32.03-.64.06-.97.06"/></svg>