<svg xmlns="http://www.w3.org/2000/svg" width="24" height="24" fill="none"><path fill="currentColor" d="M6.298 19.359a.3.3 0 0 1 0 .424l-.778.788c-.29.29-.67.43-1.04.43-.38 0-.76-.14-1.05-.43-.57-.58-.57-1.51 0-2.09l.788-.778a.3.3 0 0 1 .424 0zM20.14 8.04l-6.465 6.465a5.062 5.062 0 0 1-2.015 1.235l-.8.26c-.76.26-1.46.69-2.04 1.26l-1.038 1.038a.3.3 0 0 1-.424 0l-1.656-1.656a.3.3 0 0 1 0-.424L6.74 15.18c.57-.58 1-1.28 1.26-2.04l.26-.8c.247-.759.67-1.45 1.234-2.014L15.96 3.86a2.963 2.963 0 0 1 4.18 0 2.963 2.963 0 0 1 0 4.18m-4.61.43a.754.754 0 0 0-1.06 0l-2 2c-.29.29-.29.77 0 1.06.15.15.34.22.53.22s.38-.07.53-.22l2-2c.29-.29.29-.77 0-1.06M18 7c0-.55-.45-1-1-1s-1 .45-1 1 .45 1 1 1 1-.45 1-1"/></svg>