<svg xmlns="http://www.w3.org/2000/svg" width="24" height="24" fill="none"><path fill="currentColor" d="M17.63 3H6.38C4.13 3 3 4.12 3 6.37v11.25C3 19.87 4.13 21 6.38 21h11.25c2.25 0 3.37-1.13 3.37-3.38V6.37C21 4.12 19.88 3 17.63 3m-2.1 11.47c.29.29.29.77 0 1.06-.15.15-.34.22-.53.22s-.38-.07-.53-.22L12 13.06l-2.47 2.47c-.15.15-.34.22-.53.22s-.38-.07-.53-.22a.754.754 0 0 1 0-1.06L10.94 12 8.47 9.53a.755.755 0 0 1 0-1.06c.29-.29.77-.29 1.06 0L12 10.94l2.47-2.47c.29-.29.77-.29 1.06 0 .29.29.29.77 0 1.06L13.06 12z"/></svg>