<svg xmlns="http://www.w3.org/2000/svg" width="24" height="24" fill="none"><path fill="currentColor" d="M18.56 7.75H5.44c-.17 0-.31.15-.3.32l.67 10.13c.11 1.58.94 2.8 3 2.8h6.38c2.06 0 2.89-1.22 3-2.8l.67-10.13a.305.305 0 0 0-.3-.32m-3.53 5.13-1.35 1.35c-.15.15-.34.22-.53.22s-.38-.07-.53-.22a.754.754 0 0 1 0-1.06l.24-.24c-.67.01-1.33.28-1.82.79-.67.7-.94 1.67-.71 2.6.1.4-.15.81-.55.91a.757.757 0 0 1-.91-.55c-.35-1.44.06-2.93 1.09-4 .71-.73 1.64-1.14 2.61-1.23a.735.735 0 0 1 .05-.98c.29-.29.77-.29 1.06 0l1.35 1.35c.29.29.29.77 0 1.06M20 5.25h-4.21c-.1-.18-.17-.39-.25-.62l-.2-.6c-.2-.62-.78-1.03-1.42-1.03h-3.84c-.64 0-1.22.41-1.42 1.03l-.2.6c-.08.23-.15.44-.25.62H4c-.41 0-.75.34-.75.75s.34.75.75.75h16c.41 0 .75-.34.75-.75s-.34-.75-.75-.75"/></svg>