<svg xmlns="http://www.w3.org/2000/svg" width="24" height="24" fill="none"><path fill="currentColor" d="M18.56 7.75H5.44c-.17 0-.31.15-.3.32l.67 10.13c.11 1.58.94 2.8 3 2.8h6.38c2.06 0 2.89-1.22 3-2.8l.67-10.13a.305.305 0 0 0-.3-.32m-3.43 8.93c-.09.34-.39.57-.73.57-.06 0-.12-.01-.18-.02-.4-.1-.65-.51-.55-.91.23-.93-.04-1.9-.71-2.6-.49-.51-1.15-.78-1.82-.79l.24.24c.29.3.29.77 0 1.06-.15.15-.34.22-.53.22s-.38-.07-.53-.22l-1.35-1.35a.754.754 0 0 1 0-1.06l1.35-1.35c.29-.29.77-.29 1.06 0 .27.27.28.69.05.98.97.09 1.9.5 2.61 1.23a4.278 4.278 0 0 1 1.09 4M20 5.25h-4.21c-.1-.18-.17-.39-.25-.62l-.2-.6c-.2-.62-.78-1.03-1.42-1.03h-3.84c-.64 0-1.22.41-1.42 1.03l-.2.6c-.08.23-.15.44-.25.62H4c-.41 0-.75.34-.75.75s.34.75.75.75h16c.41 0 .75-.34.75-.75s-.34-.75-.75-.75"/></svg>