<svg xmlns="http://www.w3.org/2000/svg" width="24" height="24" fill="none"><path fill="currentColor" d="M20.75 6a.75.75 0 0 1-.75.75H4a.75.75 0 0 1 0-1.5h4.214a4.53 4.53 0 0 0 .242-.618l.202-.607A1.5 1.5 0 0 1 10.081 3h3.838a1.5 1.5 0 0 1 1.423 1.025l.202.607c.077.23.149.436.242.618H20a.75.75 0 0 1 .75.75m-1.891 2.07L18.19 18.2c-.11 1.58-.94 2.8-3 2.8H8.81c-2.06 0-2.89-1.22-3-2.8L5.141 8.07a.3.3 0 0 1 .299-.32h13.119a.3.3 0 0 1 .3.32m-3.829 3.733a.75.75 0 0 0-1.061 0l-2.803 2.803-1.136-1.136a.75.75 0 1 0-1.061 1.061l1.667 1.667a.75.75 0 0 0 1.06 0l3.333-3.333a.75.75 0 0 0 .001-1.062"/></svg>