<svg xmlns="http://www.w3.org/2000/svg" width="24" height="24" fill="none"><path fill="currentColor" d="M12 2C6.477 2 2 6.477 2 12s4.477 10 10 10 10-4.477 10-10S17.523 2 12 2M8.75 17a.75.75 0 0 1-1.5 0v-5a.75.75 0 0 1 1.5 0zm4 0a.75.75 0 0 1-1.5 0v-3a.75.75 0 0 1 1.5 0zm4 0a.75.75 0 0 1-1.5 0v-1.5a.75.75 0 0 1 1.5 0zm0-6.68c0 .01-.005.018-.006.028a.737.737 0 0 1-.052.258.745.745 0 0 1-.144.218c-.007.008-.009.018-.017.025h-.001a.749.749 0 0 1-.531.22h-2.2a.75.75 0 0 1 0-1.5h.385l-1.799-1.793-1.287 1.273a1.502 1.502 0 0 1-2.115-.006L7.469 7.529A.75.75 0 1 1 8.53 6.468l1.514 1.514 1.287-1.273a1.503 1.503 0 0 1 2.113.004l1.806 1.799v-.394a.75.75 0 0 1 1.5 0z"/></svg>