<svg xmlns="http://www.w3.org/2000/svg" width="24" height="24" fill="none"><path fill="currentColor" fill-rule="evenodd" d="M18 7h-4.94l3.47-3.47c.29-.29.29-.77 0-1.06a.754.754 0 0 0-1.06 0L12 5.94 8.53 2.47a.755.755 0 0 0-1.06 0c-.29.29-.29.77 0 1.06L10.94 7H6c-2 0-3 1-3 3v8c0 2 1 3 3 3h12c2 0 3-1 3-3v-8c0-2-1-3-3-3Zm-3 9.5c0 1-.5 1.5-1.5 1.5h-6c-1 0-1.5-.5-1.5-1.5v-5c0-1 .5-1.5 1.5-1.5h6c1 0 1.5.5 1.5 1.5v5Zm3-1.5a1 1 0 1 1 0-2 1 1 0 0 1 0 2Zm0-3a1 1 0 1 1 0-2 1 1 0 0 1 0 2Z" clip-rule="evenodd"/></svg>