<svg xmlns="http://www.w3.org/2000/svg" width="24" height="24" fill="none"><path fill="currentColor" d="M19.94 7.99c.01.17.01.35.01.53 0 5.34-4.12 11.49-11.66 11.49-2.32 0-4.48-.66-6.29-1.81.33.04.65.05.99.05 1.92 0 3.68-.64 5.09-1.72-1.8-.04-3.31-1.2-3.83-2.8.25.04.51.06.77.06.37 0 .74-.05 1.08-.14-1.88-.38-3.29-2-3.29-3.96v-.05c.55.3 1.18.49 1.85.51-1.1-.73-1.83-1.96-1.83-3.36 0-.75.2-1.44.56-2.04C5.41 7.2 8.44 8.8 11.84 8.98c-.06-.3-.1-.61-.1-.92 0-2.23 1.83-4.04 4.1-4.04 1.18 0 2.25.49 2.99 1.27.93-.17 1.81-.51 2.6-.97-.3.94-.95 1.73-1.8 2.22.82-.09 1.62-.31 2.36-.62-.56.8-1.26 1.51-2.06 2.09z"/></svg>