<svg xmlns="http://www.w3.org/2000/svg" width="24" height="24" fill="none"><path fill="currentColor" d="M13.84 19.5H8.16c-.1 0-.19.05-.25.13l-.61.92c-.19.28-.5.45-.83.45H4.51c-.83 0-1.5-.67-1.5-1.5v-3c0-.83.67-1.5 1.5-1.5h1.96c.33 0 .65.17.83.45l.61.92c.06.08.15.13.25.13h5.68c.1 0 .19-.05.25-.13l.61-.92c.19-.28.5-.45.83-.45h1.96c.83 0 1.5.67 1.5 1.5v3c0 .83-.67 1.5-1.5 1.5h-1.97c-.33 0-.65-.17-.83-.45l-.61-.92a.313.313 0 0 0-.25-.13zm2.47-10.94.88.68c.26.2.61.26.93.16l1.86-.63c.78-.27 1.21-1.12.94-1.9l-.96-2.84c-.27-.78-1.12-1.21-1.9-.94l-1.86.63c-.32.11-.56.37-.65.69l-.29 1.07c-.03.1-.1.17-.19.21L9.69 7.51c-.1.03-.2.01-.28-.05l-.88-.68c-.26-.2-.61-.26-.93-.16l-1.86.63c-.78.27-1.21 1.12-.94 1.9l.96 2.84c.27.78 1.12 1.21 1.9.94l1.86-.63c.32-.11.56-.37.65-.69l.29-1.07c.03-.1.1-.17.19-.21l5.38-1.82c.1-.03.2-.01.28.05"/></svg>