<svg xmlns="http://www.w3.org/2000/svg" width="24" height="24" fill="none"><path fill="currentColor" d="M21.53 11.498a.75.75 0 0 1-1.06 1.061L19 11.089l-1.47 1.47a.748.748 0 0 1-1.06 0 .75.75 0 0 1 0-1.061l1.47-1.47-1.47-1.47a.75.75 0 0 1 1.061-1.061l1.47 1.47 1.47-1.47a.75.75 0 0 1 1.061 1.061l-1.47 1.47zM10.009 10.5c2.206 0 4-1.794 4-4s-1.794-4-4-4-4 1.794-4 4 1.794 4 4 4m1.991 2H8c-4.06 0-5.5 2.973-5.5 5.519 0 2.277 1.211 3.481 3.503 3.481h7.994c2.292 0 3.503-1.204 3.503-3.481 0-2.546-1.44-5.519-5.5-5.519"/></svg>