<svg xmlns="http://www.w3.org/2000/svg" width="24" height="24" fill="none"><path fill="currentColor" d="M2.25 8V4.5c0-1.409.841-2.25 2.25-2.25H8a.75.75 0 0 1 0 1.5H4.5c-.589 0-.75.161-.75.75V8a.75.75 0 0 1-1.5 0M19.5 2.25H16a.75.75 0 0 0 0 1.5h3.5c.589 0 .75.161.75.75V8a.75.75 0 0 0 1.5 0V4.5c0-1.409-.841-2.25-2.25-2.25M8 20.25H4.5c-.589 0-.75-.161-.75-.75V16a.75.75 0 0 0-1.5 0v3.5c0 1.409.841 2.25 2.25 2.25H8a.75.75 0 0 0 0-1.5m13-5a.75.75 0 0 0-.75.75v3.5c0 .589-.161.75-.75.75H16a.75.75 0 0 0 0 1.5h3.5c1.409 0 2.25-.841 2.25-2.25V16a.75.75 0 0 0-.75-.75m-8.994-4.083a2.837 2.837 0 0 0 2.834-2.833 2.837 2.837 0 0 0-2.834-2.833 2.836 2.836 0 0 0-2.833 2.833 2.836 2.836 0 0 0 2.833 2.833m4.661 4.845c0-1.326-.667-3.345-3.333-3.345h-2.667c-2.667 0-3.333 2-3.333 3.345 0 1.321.667 1.988 2.002 1.988h5.33c1.334 0 2.001-.667 2.001-1.988"/></svg>