<svg xmlns="http://www.w3.org/2000/svg" width="24" height="24" fill="none"><path fill="currentColor" d="M6.009 6.5c0-2.206 1.794-4 4-4s4 1.794 4 4-1.794 4-4 4-4-1.794-4-4M12.5 18a5.49 5.49 0 0 1 2.234-4.417.302.302 0 0 0-.046-.522c-.726-.351-1.612-.56-2.687-.56h-4c-4.06 0-5.5 2.97-5.5 5.52 0 2.28 1.21 3.48 3.5 3.48h7.165c.234 0 .385-.261.255-.455A5.456 5.456 0 0 1 12.5 18m9.5 0c0 2.21-1.79 4-4 4s-4-1.79-4-4 1.79-4 4-4 4 1.79 4 4m-2.58.72-.92-.93V16.5c0-.28-.22-.5-.5-.5s-.5.22-.5.5V18c0 .13.05.26.15.35l1.07 1.07a.485.485 0 0 0 .7 0c.2-.19.2-.51 0-.7"/></svg>