<svg xmlns="http://www.w3.org/2000/svg" width="24" height="24" fill="none"><path fill="currentColor" d="M18.75 18.35c0 2.03-1.13 3.15-3.18 3.15H8.43c-.4 0-.76-.04-1.08-.13-.07-.02-.3-.074-.3-.3 0-.09.03-.16.09-.21l7.31-7.31c.07-.07.17-.1.27-.09 2.96.4 4.03 2.81 4.03 4.89Zm.457-9.401a.32.32 0 0 0-.247.092l-2.78 2.78c-.159.16-.087.42.125.494a5.501 5.501 0 0 1 3.066 2.575c.05.11.15.18.28.18h.42c1.57 0 2.43-.86 2.43-2.42-.001-1.618-.876-3.514-3.294-3.701ZM3.93 15.07h.42c.13 0 .23-.07.28-.18.73-1.32 1.96-2.36 3.73-2.78.23-.06.33-.34.16-.5-.69-.65-1.19-1.5-1.41-2.45a.3.3 0 0 0-.29-.23H5.21c-2.74 0-3.71 2.01-3.71 3.72 0 1.56.86 2.42 2.43 2.42Zm2.56-7.22c.074 0 .147-.004.218-.01a.307.307 0 0 0 .206-.087.259.259 0 0 0 .078-.172A4.91 4.91 0 0 1 8.731 4.21c.061-.052.091-.087.106-.153a.282.282 0 0 0-.02-.202A2.668 2.668 0 0 0 6.49 2.499a2.676 2.676 0 0 0 0 5.351Zm16.04-6.38a.75.75 0 0 0-1.061 0L19.52 3.419a2.668 2.668 0 0 0-4.34.441c-.03.06-.03.14-.02.2.02.06.05.1.11.15a4.984 4.984 0 0 1 1.437 2.023l-1.232 1.232A3.511 3.511 0 0 0 12.01 4.5c-1.94 0-3.52 1.57-3.52 3.51 0 1.75 1.303 3.191 2.992 3.447l-1.97 1.97c-2.789.288-3.989 2.276-4.217 4.217L1.47 21.47a.75.75 0 0 0 1.06 1.061l20-20a.75.75 0 0 0 0-1.06Z"/></svg>