<svg xmlns="http://www.w3.org/2000/svg" width="24" height="24" fill="none"><path fill="currentColor" d="M6.009 6.5c0-2.206 1.794-4 4-4s4 1.794 4 4-1.794 4-4 4-4-1.794-4-4ZM11.75 18c0-1.92.86-3.62 2.22-4.77.05-.05.09-.13.09-.21 0-.203-.252-.287-.3-.3-.52-.14-1.11-.22-1.76-.22H8c-4.06 0-5.5 2.97-5.5 5.52 0 2.28 1.21 3.48 3.5 3.48h6.29c.17 0 .303-.129.309-.298a.241.241 0 0 0-.03-.131A6.185 6.185 0 0 1 11.75 18Zm11 0A4.756 4.756 0 0 1 18 22.75 4.756 4.756 0 0 1 13.25 18 4.756 4.756 0 0 1 18 13.25 4.756 4.756 0 0 1 22.75 18Zm-7.508 1.698 4.456-4.456A3.222 3.222 0 0 0 18 14.75 3.254 3.254 0 0 0 14.75 18c0 .624.185 1.202.492 1.698ZM21.25 18c0-.624-.185-1.202-.492-1.698l-4.456 4.456A3.222 3.222 0 0 0 18 21.25 3.254 3.254 0 0 0 21.25 18Z"/></svg>