<svg xmlns="http://www.w3.org/2000/svg" width="24" height="24" fill="none"><path fill="currentColor" d="m21.53 3.53-19 19a.748.748 0 0 1-1.06 0 .75.75 0 0 1 0-1.061l.895-.895c-.567-.584-.865-1.438-.865-2.555 0-2.55 1.44-5.52 5.5-5.52h3.439l3.409-3.409a5.413 5.413 0 0 0 .661-2.59c0-.33-.03-.66-.09-.97a.285.285 0 0 1 .1-.28 3.142 3.142 0 0 1 3.538-.369l2.412-2.412A.75.75 0 0 1 21.53 3.53m-1.9 5.22c.05-.17.09-.34.12-.5l-2.64 2.64c.16-.02.32-.06.48-.11.95-.3 1.73-1.07 2.04-2.03m-1.52 3.53h-1.98c-.17 0-.3.13-.3.3 0 .08.03.16.09.21l.03.03c1.4 1.35 2.05 3.28 2.05 5.2 0 .37-.02.73-.08 1.06a.521.521 0 0 0-.013.121c0 .17.133.299.293.299h1.46c1.83 0 2.84-1 2.84-2.82 0-2.03-1.15-4.4-4.39-4.4m-9.1-1.78c2.2 0 4-1.79 4-4s-1.8-4-4-4c-2.21 0-4 1.79-4 4s1.79 4 4 4m5.677 3.205a.307.307 0 0 0-.413.021l-7.262 7.262a.3.3 0 0 0 .212.512H13c2.29 0 3.5-1.2 3.5-3.48 0-1.527-.522-3.207-1.813-4.315"/></svg>