<svg xmlns="http://www.w3.org/2000/svg" width="24" height="24" fill="none"><path fill="currentColor" d="M6.009 6.5c0-2.206 1.794-4 4-4s4 1.794 4 4-1.794 4-4 4-4-1.794-4-4M12.6 18.05c-.28-1.42.01-2.79.8-3.76.28-.33.61-.61.99-.81.048-.029.073-.04.11-.07.06-.05.09-.13.09-.21 0-.216-.23-.29-.23-.29-.66-.26-1.44-.41-2.36-.41H8c-4.06 0-5.5 2.97-5.5 5.52 0 2.28 1.21 3.48 3.5 3.48h7.96a.3.3 0 0 0 .3-.3c0-.08-.04-.16-.09-.21-.72-.78-1.34-1.77-1.57-2.94m7.172-3.55c-1.324-.006-1.768 1.306-1.768 1.306s-.445-1.312-1.768-1.306c-1.778.009-2.477 1.64-2.157 3.262.522 2.644 3.925 4.166 3.925 4.166s3.403-1.523 3.925-4.166c.32-1.622-.376-3.253-2.157-3.262"/></svg>