<svg xmlns="http://www.w3.org/2000/svg" width="24" height="24" fill="none"><path fill="currentColor" d="M6.009 6.5c0-2.206 1.794-4 4-4s4 1.794 4 4-1.794 4-4 4-4-1.794-4-4m5.741 10.83c0-1.657.77-3.088 1.87-4.164a.298.298 0 0 0 .089-.304c-.004-.01-.031-.169-.237-.213a7 7 0 0 0-1.471-.148h-4c-4.06 0-5.5 2.97-5.5 5.52 0 2.28 1.21 3.48 3.5 3.48h6.91c.17 0 .3-.13.3-.3a.294.294 0 0 0-.09-.21 5.521 5.521 0 0 1-1.371-3.661m10.78 5.2a.748.748 0 0 1-1.06 0l-1.831-1.832a4.06 4.06 0 0 1-2.305.718 4.088 4.088 0 0 1-4.083-4.083 4.088 4.088 0 0 1 4.083-4.083 4.088 4.088 0 0 1 4.084 4.083 4.06 4.06 0 0 1-.718 2.305l1.831 1.831a.751.751 0 0 1-.001 1.061m-2.613-5.197a2.586 2.586 0 0 0-2.584-2.583 2.586 2.586 0 0 0-2.583 2.583 2.586 2.586 0 0 0 2.583 2.583 2.585 2.585 0 0 0 2.584-2.583"/></svg>