<svg xmlns="http://www.w3.org/2000/svg" width="24" height="24" fill="none"><path fill="currentColor" d="M6.009 6.5c0-2.206 1.794-4 4-4s4 1.794 4 4-1.794 4-4 4-4-1.794-4-4Zm10.048 7.68c0-.112-.1-.211-.127-.24-.87-.86-2.14-1.44-3.93-1.44H8c-4.06 0-5.5 2.97-5.5 5.52 0 2.28 1.21 3.48 3.5 3.48h5.2c.08 0 .16-.03.21-.09.05-.05.09-.135.09-.215V19.5c0-.4.16-.78.44-1.06l4.03-4.05a.31.31 0 0 0 .087-.21ZM13 19.501V22h2.499l4.539-4.519-2.519-2.519L13 19.501Zm8.708-5.089-1.12-1.12a.996.996 0 0 0-1.41 0l-.96.97 2.52 2.519.969-.96a.996.996 0 0 0 .001-1.409Z"/></svg>