<svg xmlns="http://www.w3.org/2000/svg" width="24" height="24" fill="none"><path fill="currentColor" d="M6.009 6.5c0-2.206 1.794-4 4-4s4 1.794 4 4-1.794 4-4 4-4-1.794-4-4m9.496 7.166a.299.299 0 0 0-.116-.189c-.831-.605-1.945-.977-3.389-.977H8c-4.06 0-5.5 2.97-5.5 5.52 0 2.28 1.21 3.48 3.5 3.48h7.71c.15 0 .29-.12.3-.28v-.03c-.01-.08-.01-.17-.01-.26v-2.36c0-1.02.36-1.85 1-2.38v-.44c0-.689.172-1.33.473-1.891a.321.321 0 0 0 .032-.193m6.995 4.905v2.357c0 1.047-.5 1.571-1.5 1.571h-4c-1 0-1.5-.524-1.5-1.571v-2.357c0-.848.345-1.335 1-1.497v-1.325c0-1.378 1.121-2.5 2.5-2.5s2.5 1.122 2.5 2.5v1.325c.655.162 1 .649 1 1.497M20 15.75a1.001 1.001 0 0 0-2 0V17h2z"/></svg>