<svg xmlns="http://www.w3.org/2000/svg" width="24" height="24" fill="none"><path fill="currentColor" d="M6.009 6.5c0-2.206 1.794-4 4-4s4 1.794 4 4-1.794 4-4 4-4-1.794-4-4m8.901 8.91c.31-.32.71-.53 1.14-.62.04 0 .08-.01.12-.02.11-.05.18-.15.18-.28a.36.36 0 0 0-.02-.11.36.36 0 0 0-.07-.1c-.87-1.04-2.24-1.78-4.26-1.78H8c-4.06 0-5.5 2.97-5.5 5.52 0 2.28 1.21 3.48 3.5 3.48h6.11a.3.3 0 0 0 .3-.3c0-.105-.09-.21-.1-.22-.37-.41-.56-.93-.56-1.48 0-.6.23-1.17.66-1.59zm7.623 3.56-2.5-2.5a.75.75 0 1 0-1.061 1.061l1.97 1.97-1.97 1.97a.75.75 0 0 0 1.06 1.061l2.5-2.5a.75.75 0 0 0 .001-1.062m-5.5-2.5a.75.75 0 0 0-1.061 0l-2.5 2.5a.75.75 0 0 0 0 1.061l2.5 2.5a.748.748 0 0 0 1.06 0 .75.75 0 0 0 0-1.061l-1.97-1.97 1.97-1.97a.748.748 0 0 0 .001-1.06"/></svg>