<svg xmlns="http://www.w3.org/2000/svg" width="24" height="24" fill="none"><path fill="currentColor" d="M20.99 8.74c-.08 1.76-1.3 4.16-3.67 7.21C14.87 19.14 12.8 21 11.11 21c-1.05 0-1.94-1.25-2.66-3.19-.48-1.78-.97-3.56-1.45-5.34-.54-1.94-1.12-2.91-1.73-2.91-.13 0-.61.28-1.41.85l-.85-1.09c.89-.78 1.76-1.56 2.63-2.35 1.18-1.03 2.07-1.56 2.67-1.62 1.4-.13 2.26.82 2.59 2.88.35 2.22.59 3.59.73 4.13.4 1.84.85 2.76 1.33 2.76.38 0 .94-.6 1.7-1.79.75-1.19 1.16-2.1 1.21-2.72.11-1.03-.3-1.54-1.21-1.54-.43 0-.88.1-1.33.3.88-2.9 2.57-4.44 5.07-4.36 1.85.05 2.72 1.38 2.61 3.73"/></svg>