<svg xmlns="http://www.w3.org/2000/svg" width="24" height="24" fill="none"><path fill="currentColor" d="M21 9.75c-.41 0-.75.34-.75.75v.75h-1.797a6.467 6.467 0 0 0-1.361-3.282L18.36 6.7l.53.53c.15.14.34.22.53.22.2 0 .39-.08.54-.22.29-.3.29-.77 0-1.06l-2.13-2.13a.754.754 0 0 0-1.06 0c-.29.3-.29.77 0 1.07l.53.53-1.268 1.268a6.47 6.47 0 0 0-3.282-1.36V3.75h.75c.41 0 .75-.34.75-.75s-.34-.75-.75-.75h-3c-.41 0-.75.34-.75.75s.34.75.75.75h.75v1.797a6.467 6.467 0 0 0-3.282 1.361L6.7 5.64l.53-.53c.29-.3.29-.77 0-1.07a.754.754 0 0 0-1.06 0L4.04 6.17c-.29.29-.29.76 0 1.06.15.14.34.22.54.22.19 0 .38-.08.53-.22l.53-.53 1.268 1.268a6.47 6.47 0 0 0-1.361 3.282H3.75v-.75c0-.41-.34-.75-.75-.75s-.75.34-.75.75v3c0 .41.34.75.75.75s.75-.34.75-.75v-.75h1.797a6.467 6.467 0 0 0 1.361 3.282L5.64 17.3l-.53-.53a.767.767 0 0 0-1.07 0c-.29.3-.29.77 0 1.06l2.13 2.13c.14.14.33.21.53.21.19 0 .38-.07.53-.21.29-.3.29-.77 0-1.07l-.53-.53 1.268-1.268a6.47 6.47 0 0 0 3.282 1.36v1.798h-.75c-.41 0-.75.34-.75.75s.34.75.75.75h3c.41 0 .75-.34.75-.75s-.34-.75-.75-.75h-.75v-1.797a6.467 6.467 0 0 0 3.282-1.361L17.3 18.36l-.53.53c-.29.3-.29.77 0 1.07.15.14.34.21.53.21.2 0 .39-.07.53-.21l2.13-2.13c.29-.29.29-.76 0-1.06a.767.767 0 0 0-1.07 0l-.53.53-1.268-1.268a6.47 6.47 0 0 0 1.361-3.282h1.797v.75c0 .41.34.75.75.75s.75-.34.75-.75v-3c0-.41-.34-.75-.75-.75Zm-12 3.5a1.25 1.25 0 1 1 0-2.5 1.25 1.25 0 0 1 0 2.5Zm4 1.5a.75.75 0 1 1 0-1.5.75.75 0 0 1 0 1.5ZM14 11a1 1 0 1 1 0-2 1 1 0 0 1 0 2Z"/></svg>