<svg xmlns="http://www.w3.org/2000/svg" width="24" height="24" fill="none"><path fill="currentColor" d="M21.75 10.5v3c0 .41-.34.75-.75.75s-.75-.34-.75-.75v-.75h-1.797a6.495 6.495 0 0 1-1.36 3.283L18.36 17.3l.53-.53c.3-.29.77-.29 1.07 0 .29.3.29.77 0 1.06l-2.13 2.13a.74.74 0 0 1-.53.21c-.19 0-.38-.07-.53-.21a.767.767 0 0 1 0-1.07l.53-.53-1.267-1.267a6.504 6.504 0 0 1-3.283 1.36v1.797h.75c.41 0 .75.34.75.75s-.34.75-.75.75h-3c-.41 0-.75-.34-.75-.75s.34-.75.75-.75h.75v-1.798a6.595 6.595 0 0 1-.897-.162.303.303 0 0 1-.142-.506l7.572-7.572a.302.302 0 0 1 .506.142c.075.291.127.592.162.897h1.798v-.75c0-.41.34-.75.75-.75s.751.339.751.749Zm-.22-8.032a.75.75 0 0 0-1.062.003l-2.104 2.104-.535-.535a.754.754 0 0 0-1.06 0c-.29.3-.29.77 0 1.07l.53.53-1.266 1.266a6.485 6.485 0 0 0-3.284-1.359V3.751h.75c.41 0 .75-.34.75-.75s-.34-.75-.75-.75h-3c-.41 0-.75.34-.75.75s.34.75.75.75h.75v1.796a6.485 6.485 0 0 0-3.284 1.359L6.699 5.64l.53-.53c.29-.3.29-.77 0-1.07a.755.755 0 0 0-1.06 0l-2.13 2.13c-.29.29-.29.76 0 1.06.15.14.34.22.54.22.19 0 .38-.08.53-.22l.53-.53 1.266 1.266a6.48 6.48 0 0 0-1.359 3.284H3.75v-.75c0-.41-.34-.75-.75-.75s-.75.34-.75.75v3c0 .41.34.75.75.75s.75-.34.75-.75v-.75h1.796a6.485 6.485 0 0 0 1.36 3.284L5.638 17.3l-.53-.53a.767.767 0 0 0-1.07 0c-.29.3-.29.77 0 1.06l.534.534-2.104 2.104a.75.75 0 0 0 1.058 1.064L21.529 3.529a.748.748 0 0 0 0-1.061Z"/></svg>