<svg xmlns="http://www.w3.org/2000/svg" width="24" height="24" fill="none"><path fill="currentColor" d="M16.98 11.41s.2.97.24 1.18h-.88c.09-.23.42-1.14.42-1.14s.09-.24.14-.39l.07.35zM21 8v8c0 2-1 3-3 3H6c-2 0-3-1-3-3V8c0-2 1-3 3-3h12c2 0 3 1 3 3M8.66 14.03l1.66-4.07H9.21l-1.03 2.78-.11-.56-.37-1.87c-.06-.26-.25-.33-.48-.34h-1.7l-.02.08c.41.1.78.26 1.11.45l.94 3.54h1.11zm2.47 0 .66-4.07h-1.05l-.66 4.07zm3.67-1.33c0-.46-.28-.82-.88-1.11-.37-.19-.59-.31-.59-.5 0-.17.19-.35.61-.35.34 0 .59.07.78.15l.09.04.14-.88c-.21-.08-.54-.17-.94-.17-1.04 0-1.77.56-1.78 1.35 0 .58.52.91.92 1.11.41.2.55.33.55.51 0 .27-.33.4-.63.4-.42 0-.64-.07-.99-.22l-.14-.07-.15.91c.25.11.7.21 1.17.22 1.11 0 1.83-.55 1.83-1.39zm3.7 1.33-.85-4.07h-.82c-.25 0-.44.07-.55.34l-1.56 3.73h1.11l.22-.61h1.35l.13.61z"/></svg>