<svg xmlns="http://www.w3.org/2000/svg" width="24" height="24" fill="none"><path fill="currentColor" d="M17.5 7a4.505 4.505 0 0 0-4.5 4.5c0 .925.282 1.784.762 2.5h-3.523c.48-.716.762-1.575.762-2.5 0-2.481-2.019-4.5-4.5-4.5a4.505 4.505 0 0 0-4.5 4.5c0 2.481 2.019 4.5 4.5 4.5h11c2.481 0 4.5-2.019 4.5-4.5S19.981 7 17.5 7ZM4 11.5C4 10.122 5.121 9 6.5 9S9 10.122 9 11.5 7.879 14 6.5 14A2.503 2.503 0 0 1 4 11.5ZM17.5 14a2.503 2.503 0 0 1-2.5-2.5c0-1.378 1.121-2.5 2.5-2.5s2.5 1.122 2.5 2.5-1.121 2.5-2.5 2.5Z"/></svg>