<svg xmlns="http://www.w3.org/2000/svg" width="24" height="24" fill="none"><path fill="currentColor" d="M20 9.25c-2.78 0-5.52.66-7.97 1.9-1.02-.58-1.97-1.25-2.84-2.02 2.71-2.42 6.24-3.61 9.96-3.33 0 0 .32.03.8.15.76 1 1.34 2.14 1.68 3.38-.52-.05-1.05-.08-1.63-.08m1.7 1.59a15.83 15.83 0 0 0-3.99.08A14.635 14.635 0 0 1 14 21.8c4.57-.93 8-4.96 8-9.8 0-.38-.03-.75-.07-1.12-.14-.02-.23-.04-.23-.04m-9.78 6.53v.05c0 .02-.02.03-.03.05-.49 1.51-1.18 2.95-2.07 4.29.61.14 1.24.21 1.89.23.35-.32.57-.54.58-.55 2.56-2.52 3.96-5.86 3.96-9.44 0-.26 0-.52-.03-.8-1.21.29-2.38.72-3.49 1.28-.04 1.68-.31 3.32-.81 4.9zM3.39 8.09c1.17 3.6 3.88 6.53 7.32 8.04.31-1.2.49-2.44.52-3.71a17.75 17.75 0 0 1-6.82-6.93c-.49.57-.92 1.19-1.27 1.86.09.29.17.55.24.73zm5.06 13.03c.76-1.1 1.35-2.3 1.81-3.55-3.6-1.53-6.48-4.47-7.93-8.08-.21.8-.33 1.64-.33 2.51 0 4.22 2.62 7.82 6.31 9.29.09-.1.15-.17.15-.17zM5.62 4.59c.68 1.28 1.52 2.44 2.49 3.49 2.72-2.46 6.19-3.82 9.88-3.82.11 0 .22.01.33.01a9.963 9.963 0 0 0-6.33-2.26c-2.4 0-4.72.9-6.47 2.38.03.07.06.14.09.2z"/></svg>