<svg xmlns="http://www.w3.org/2000/svg" width="24" height="24" fill="none"><path fill="currentColor" d="M16.75 13.5v1.25h-9.5V13.5c0-.59.16-.75.75-.75h8c.59 0 .75.16.75.75m-9.5 4.25h9.5v-1.5h-9.5zm0 2.95a.3.3 0 0 0 .3.3h8.9a.3.3 0 0 0 .3-.3v-1.45h-9.5zM21 8.59V19.5a1.5 1.5 0 0 1-1.5 1.5h-.95a.3.3 0 0 1-.3-.3v-7.2A2.25 2.25 0 0 0 16 11.25H8a2.25 2.25 0 0 0-2.25 2.25v7.2a.3.3 0 0 1-.3.3H4.5A1.5 1.5 0 0 1 3 19.5V8.59c0-.55.29-1.05.77-1.32l7.26-4.02c.6-.33 1.34-.33 1.94 0l7.26 4.02c.47.27.77.77.77 1.32M14.25 8a.75.75 0 0 0-.75-.75h-3a.75.75 0 0 0 0 1.5h3a.75.75 0 0 0 .75-.75"/></svg>