<svg xmlns="http://www.w3.org/2000/svg" width="24" height="24" fill="none"><path fill="currentColor" fill-rule="evenodd" d="M7.75 3a.75.75 0 0 1 .75-.75h6a.75.75 0 0 1 0 1.5h-6A.75.75 0 0 1 7.75 3m6.75 17.25h-6a.75.75 0 0 0 0 1.5h6a.75.75 0 0 0 0-1.5m5.25-8.5c0 .41-.33.75-.75.75h-1v3c0 2-1 3-3 3H8c-2 0-3-1-3-3v-7c0-2 1-3 3-3h7c2 0 3 1 3 3V11h1c.42 0 .75.34.75.75m-5.8 1.15-1.7-1.275V8.5a.75.75 0 0 0-1.5 0V12a.75.75 0 0 0 .3.6l2 1.5a.748.748 0 0 0 1.05-.15.75.75 0 0 0-.15-1.05" clip-rule="evenodd"/></svg>