<svg xmlns="http://www.w3.org/2000/svg" width="24" height="24" fill="none"><path fill="currentColor" d="M18 3H6C4 3 3 4 3 6v12c0 2 1 3 3 3h12c2 0 3-1 3-3V6c0-2-1-3-3-3M6.92 18.38c-.05.13-.12.24-.21.33-.19.18-.45.29-.71.29-.26 0-.52-.11-.71-.29-.18-.19-.29-.45-.29-.71 0-.06 0-.13.02-.2 0-.06.03-.12.06-.18.02-.06.05-.12.09-.18.03-.05.08-.1.12-.15.37-.37 1.04-.37 1.42 0 .18.19.29.44.29.71 0 .13-.03.26-.08.38m10-10.06-1.11 2.39c-.08.18-.26.29-.45.29h-2.6V8.5c0-.41-.34-.75-.75-.75s-.75.34-.75.75V11h-2.6c-.19 0-.37-.11-.45-.29L7.1 8.32a.91.91 0 0 1 .41-1.19 9.405 9.405 0 0 1 4.51-1.14c1.63 0 3.16.41 4.51 1.14.43.23.62.75.41 1.19zm1.79 10.39c-.1.09-.2.16-.33.21-.12.05-.25.08-.38.08-.26 0-.52-.11-.71-.29-.18-.19-.29-.45-.29-.71 0-.26.11-.52.29-.71.28-.28.73-.36 1.09-.21.13.05.23.12.33.21.18.19.29.45.29.71 0 .26-.11.52-.29.71"/></svg>