<svg xmlns="http://www.w3.org/2000/svg" width="24" height="24" fill="none"><path fill="currentColor" d="m21.53 3.53-18 18a.748.748 0 0 1-1.06 0 .75.75 0 0 1 0-1.061l8.372-8.372a8.117 8.117 0 0 0-4.191 1.892c-.19.16-.42.24-.65.24a1 1 0 0 1-.65-1.76 10.16 10.16 0 0 1 6.65-2.46c.19 0 .38.01.56.02.099.008.194.032.284.066l1.812-1.812A12.406 12.406 0 0 0 12 7.999c-3.08 0-6.04 1.13-8.33 3.19-.19.17-.43.25-.67.25-.27 0-.55-.11-.75-.33a1.02 1.02 0 0 1 .08-1.42A14.51 14.51 0 0 1 12 5.999c1.46 0 2.89.21 4.24.64.015.004.024.016.038.021l4.19-4.191A.75.75 0 1 1 21.53 3.53m-8.453 10.586a1.001 1.001 0 0 0-.353 1.969 3.88 3.88 0 0 1 1.668.729.999.999 0 1 0 1.216-1.586 5.855 5.855 0 0 0-2.531-1.112m3.409-3.065a1 1 0 0 0-.873 1.798c.633.308 1.216.69 1.732 1.137a.998.998 0 1 0 1.308-1.512 9.9 9.9 0 0 0-2.167-1.423m5.177-1.36a14.709 14.709 0 0 0-2.126-1.567 1 1 0 1 0-1.035 1.711 12.64 12.64 0 0 1 1.835 1.353.998.998 0 0 0 1.412-.086 1 1 0 0 0-.086-1.411M12 17.75a1.25 1.25 0 1 0 0 2.5 1.25 1.25 0 0 0 0-2.5"/></svg>