<svg xmlns="http://www.w3.org/2000/svg" width="24" height="24" fill="none"><path fill="currentColor" d="M14.999 17.019a.991.991 0 0 1-.604-.204c-1.373-1.042-3.418-1.042-4.791 0a1 1 0 1 1-1.209-1.593c2.074-1.575 5.135-1.575 7.209 0a1 1 0 0 1-.605 1.797m3.759-3.138c.36-.419.312-1.05-.105-1.41a10.21 10.21 0 0 0-6.652-2.461c-2.443 0-4.806.874-6.652 2.461a1 1 0 1 0 1.305 1.516 8.203 8.203 0 0 1 5.348-1.978 8.2 8.2 0 0 1 5.348 1.978.999.999 0 0 0 1.408-.106m2.987-2.771a1 1 0 0 0-.078-1.412A14.472 14.472 0 0 0 12 6a14.467 14.467 0 0 0-9.667 3.698 1 1 0 0 0 1.334 1.49A12.475 12.475 0 0 1 12 8.001c3.079 0 6.038 1.132 8.333 3.187a1.003 1.003 0 0 0 1.412-.078M12 17.75a1.25 1.25 0 1 0 0 2.5 1.25 1.25 0 0 0 0-2.5"/></svg>