<svg xmlns="http://www.w3.org/2000/svg" width="24" height="24" fill="none"><path fill="currentColor" d="M3.67 6.47A9.967 9.967 0 0 1 12 2c2.58 0 4.92.99 6.7 2.59h-.03c-1 0-1.69.85-1.69 1.78 0 .82.47 1.53.99 2.36.38.66.82 1.52.82 2.77 0 .86-.33 1.86-.76 3.25l-1.01 3.35-3.63-10.81c.62-.03 1.16-.09 1.16-.09.55-.06.47-.85-.07-.83 0 0-1.62.14-2.66.14s-2.65-.14-2.65-.14c-.54-.02-.6.81-.06.84.35.04.71.07 1.05.08l1.57 4.29-2.2 6.59L5.86 7.29c.62-.02 1.16-.09 1.16-.09.55-.06.48-.85-.06-.83 0 0-1.62.14-2.67.14l-.58-.02zm-.82 1.51A9.983 9.983 0 0 0 2 12c0 3.94 2.28 7.33 5.59 8.97L2.85 7.99zm17.99-.67a9.51 9.51 0 0 1-.71 4.5l-3.05 8.79C20.02 18.86 22 15.66 22 12c0-1.69-.42-3.29-1.17-4.68zm-5.56 14.03-3.09-8.46-2.99 8.71c-.17-.05-.34-.11-.5-.16 1.04.36 2.15.57 3.31.57 1.16 0 2.27-.21 3.31-.57l-.04-.08z"/></svg>